<svg xmlns="http://www.w3.org/2000/svg" viewBox="0 0 336.35 215.14"><defs><style>.cls-1,.cls-3,.cls-4,.cls-5{fill:none;}.cls-1,.cls-5{stroke:#1d1d1b;}.cls-1,.cls-4,.cls-5{stroke-linejoin:round;}.cls-1{stroke-width:0.76px;}.cls-2{fill:#1d1d1b;}.cls-3,.cls-4{stroke:#010101;stroke-linecap:round;}.cls-3{stroke-miterlimit:10;}.cls-5{stroke-width:0.44px;}</style></defs><g id="Layer_1" data-name="Layer 1"><rect class="cls-1" x="65.63" y="180.56" width="56.53" height="29.9"/><path class="cls-2" d="M90.83,195l2.83-2.55c.65-.59,1-1,1-1.26s-.33-.57-1-.59v-.32h3.49v.32a2.21,2.21,0,0,0-.86.18,3.37,3.37,0,0,0-.8.47c-.24.19-.69.59-1.35,1.21L92.45,194l3.48,3.5A12.32,12.32,0,0,0,97.52,199a2,2,0,0,0,1,.25v.31H93.75v-.31h.19a2.11,2.11,0,0,0,1-.13.37.37,0,0,0,.19-.32c0-.19-.33-.62-1-1.28l-2.62-2.64-.66.58v1.69a13.27,13.27,0,0,0,0,1.43.76.76,0,0,0,.28.51,1.64,1.64,0,0,0,.85.16h.18v.31H88v-.31h.29a1.65,1.65,0,0,0,.83-.15.7.7,0,0,0,.29-.47,10.65,10.65,0,0,0,.06-1.48v-4.55a8.62,8.62,0,0,0-.07-1.46.58.58,0,0,0-.28-.42,2.76,2.76,0,0,0-1-.11v-.32h4.1v.32h-.17a2.39,2.39,0,0,0-.9.11.62.62,0,0,0-.28.42,8.54,8.54,0,0,0-.07,1.46Z"/><path class="cls-2" d="M99,202.54v-.24a9.93,9.93,0,0,0,1.13-1.1,7.2,7.2,0,0,0,1-1.3,2.25,2.25,0,0,0,.3-1.1,1.35,1.35,0,0,0-.3-1,1,1,0,0,0-.76-.32.85.85,0,0,0-.69.29,1,1,0,0,0-.24.62.68.68,0,0,0,.31.59c.08.06.12.1.12.13a.33.33,0,0,1-.13.19.37.37,0,0,1-.22.12c-.08,0-.17-.08-.28-.24a1,1,0,0,1-.17-.61,1.11,1.11,0,0,1,.46-.94,1.62,1.62,0,0,1,1-.35,1.7,1.7,0,0,1,1.06.36,1.28,1.28,0,0,1,.47,1.08,1.81,1.81,0,0,1-.21.85,6.35,6.35,0,0,1-1,1.24,18,18,0,0,1-1.31,1.24H102l-.22.88h-.19a.35.35,0,0,1,0-.14s0-.06,0-.11a.17.17,0,0,0-.05-.14,1.35,1.35,0,0,0-.28,0Z"/><path class="cls-2" d="M102.9,200a3.71,3.71,0,0,1,.46-2,1.4,1.4,0,0,1,1.22-.73,1.38,1.38,0,0,1,1.21.73,4.36,4.36,0,0,1,0,3.9,1.37,1.37,0,0,1-1.21.74,1.4,1.4,0,0,1-1.22-.73A3.7,3.7,0,0,1,102.9,200Zm.65,0a4.83,4.83,0,0,0,.27,2.06.84.84,0,0,0,.76.43.79.79,0,0,0,.79-.52,5.72,5.72,0,0,0,.23-2,4.82,4.82,0,0,0-.27-2.07.84.84,0,0,0-.75-.43.86.86,0,0,0-.76.43A4.82,4.82,0,0,0,103.55,200Z"/><path class="cls-2" d="M107,202.54v-.24a9.93,9.93,0,0,0,1.13-1.1,7.2,7.2,0,0,0,1-1.3,2.25,2.25,0,0,0,.3-1.1,1.35,1.35,0,0,0-.3-1,1,1,0,0,0-.76-.32.85.85,0,0,0-.69.29,1,1,0,0,0-.24.62.68.68,0,0,0,.31.59c.08.06.12.1.12.13a.33.33,0,0,1-.13.19.37.37,0,0,1-.22.12c-.08,0-.17-.08-.28-.24a1,1,0,0,1-.17-.61,1.11,1.11,0,0,1,.46-.94,1.62,1.62,0,0,1,1-.35,1.7,1.7,0,0,1,1.06.36,1.28,1.28,0,0,1,.47,1.08,1.81,1.81,0,0,1-.21.85,6.35,6.35,0,0,1-1,1.24,18,18,0,0,1-1.31,1.24H110l-.22.88h-.19a.35.35,0,0,1,0-.14s0-.06,0-.11a.17.17,0,0,0-.05-.14,1.35,1.35,0,0,0-.28,0Z"/><rect class="cls-1" x="168.05" y="180.56" width="56.53" height="29.9"/><path class="cls-2" d="M193.25,195l2.83-2.55q1-.88,1-1.26c0-.38-.33-.57-1-.59v-.32h3.5v.32a2.26,2.26,0,0,0-.87.18,3.57,3.57,0,0,0-.8.47c-.24.19-.69.59-1.34,1.21L194.88,194l3.47,3.5a13.06,13.06,0,0,0,1.59,1.47,2,2,0,0,0,1.05.25v.31h-4.81v-.31h.18a2.08,2.08,0,0,0,1-.13.37.37,0,0,0,.19-.32c0-.19-.33-.62-1-1.28l-2.61-2.64-.67.58v1.69a10.36,10.36,0,0,0,.06,1.43.75.75,0,0,0,.27.51,1.66,1.66,0,0,0,.85.16h.18v.31h-4.16v-.31h.29a1.6,1.6,0,0,0,.82-.15.7.7,0,0,0,.29-.47,8.75,8.75,0,0,0,.07-1.48v-4.55a8.62,8.62,0,0,0-.07-1.46.59.59,0,0,0-.29-.42,2.76,2.76,0,0,0-1-.11v-.32h4.1v.32h-.17a2.36,2.36,0,0,0-.89.11.63.63,0,0,0-.29.42,9.81,9.81,0,0,0-.07,1.46Z"/><path class="cls-2" d="M201.45,202.54v-.24a10,10,0,0,0,1.12-1.1,6.87,6.87,0,0,0,1-1.3,2.25,2.25,0,0,0,.3-1.1,1.31,1.31,0,0,0-.31-1,1,1,0,0,0-.75-.32.85.85,0,0,0-.69.29.91.91,0,0,0-.25.62.69.69,0,0,0,.32.59c.08.06.12.1.12.13s-.05.11-.14.19a.37.37,0,0,1-.22.12c-.07,0-.17-.08-.28-.24a1,1,0,0,1-.17-.61,1.12,1.12,0,0,1,.47-.94,1.62,1.62,0,0,1,1-.35,1.72,1.72,0,0,1,1.06.36,1.28,1.28,0,0,1,.47,1.08,1.81,1.81,0,0,1-.21.85,7.21,7.21,0,0,1-1,1.24,18,18,0,0,1-1.31,1.24h2.48l-.22.88H204a.68.68,0,0,1,0-.14.34.34,0,0,0,0-.11c0-.07,0-.12,0-.14a1.16,1.16,0,0,0-.27,0Z"/><path class="cls-2" d="M205.33,200a3.62,3.62,0,0,1,.46-2,1.38,1.38,0,0,1,1.21-.73,1.4,1.4,0,0,1,1.22.73,4.36,4.36,0,0,1,0,3.9,1.37,1.37,0,0,1-2.43,0A3.61,3.61,0,0,1,205.33,200Zm.64,0a4.77,4.77,0,0,0,.28,2.06.84.84,0,0,0,.75.43.8.8,0,0,0,.8-.52,5.72,5.72,0,0,0,.23-2,4.61,4.61,0,0,0-.28-2.07.87.87,0,0,0-1.5,0A4.77,4.77,0,0,0,206,200Z"/><path class="cls-2" d="M211,199.7a1,1,0,0,1,.24,0,1.14,1.14,0,0,1,.91.4,1.47,1.47,0,0,1,.33,1,1.58,1.58,0,0,1-.49,1.18,1.8,1.8,0,0,1-1.26.45,1.71,1.71,0,0,1-.89-.23c-.24-.16-.37-.33-.37-.51a.26.26,0,0,1,.07-.19.26.26,0,0,1,.19-.08c.13,0,.23.09.28.28a.7.7,0,0,0,.32.45.72.72,0,0,0,.39.11,1,1,0,0,0,.8-.36,1.71,1.71,0,0,0,.31-1.11,1.45,1.45,0,0,0-.23-.9.66.66,0,0,0-.54-.3.91.91,0,0,0-.6.33.14.14,0,0,1-.11.06c-.08,0-.12-.05-.12-.13a.15.15,0,0,1,.06-.11,2.31,2.31,0,0,1,.35-.26,3.46,3.46,0,0,0,.81-.69,1.2,1.2,0,0,0,.2-.7.85.85,0,0,0-.21-.62.69.69,0,0,0-.55-.22.94.94,0,0,0-.62.22.71.71,0,0,0-.27.57.72.72,0,0,0,.24.52.06.06,0,0,1,0,0s0,.07-.12.11a.55.55,0,0,1-.19.06c-.08,0-.16-.06-.23-.19a.77.77,0,0,1-.1-.4,1,1,0,0,1,.37-.78,1.39,1.39,0,0,1,1-.35,1.47,1.47,0,0,1,1,.29.88.88,0,0,1,.33.66,1,1,0,0,1-.22.6,3.92,3.92,0,0,1-.76.63Z"/><rect class="cls-1" x="268.41" y="180.56" width="56.53" height="29.9"/><path class="cls-2" d="M293.61,195l2.83-2.55q1-.88,1-1.26c0-.38-.33-.57-1-.59v-.32h3.5v.32a2.26,2.26,0,0,0-.87.18,3.3,3.3,0,0,0-.79.47c-.25.19-.69.59-1.35,1.21L295.24,194l3.47,3.5a12.86,12.86,0,0,0,1.6,1.47,2,2,0,0,0,1,.25v.31h-4.81v-.31h.18a2.16,2.16,0,0,0,1-.13.4.4,0,0,0,.19-.32c0-.19-.33-.62-1-1.28l-2.62-2.64-.67.58v1.69a10.36,10.36,0,0,0,.06,1.43.76.76,0,0,0,.28.51,1.61,1.61,0,0,0,.85.16H295v.31h-4.16v-.31h.29a1.6,1.6,0,0,0,.82-.15.71.71,0,0,0,.3-.47,10.65,10.65,0,0,0,.06-1.48v-4.55a8.62,8.62,0,0,0-.07-1.46.58.58,0,0,0-.28-.42,2.87,2.87,0,0,0-1-.11v-.32H295v.32h-.17a2.39,2.39,0,0,0-.9.11.59.59,0,0,0-.28.42,8.14,8.14,0,0,0-.08,1.46Z"/><path class="cls-2" d="M301.81,202.54v-.24a9.93,9.93,0,0,0,1.13-1.1,7.2,7.2,0,0,0,1-1.3,2.25,2.25,0,0,0,.3-1.1,1.31,1.31,0,0,0-.31-1,1,1,0,0,0-.75-.32.85.85,0,0,0-.69.29,1,1,0,0,0-.25.62.69.69,0,0,0,.32.59c.08.06.12.1.12.13s-.05.11-.14.19a.35.35,0,0,1-.21.12c-.08,0-.18-.08-.29-.24a1,1,0,0,1-.16-.61,1.11,1.11,0,0,1,.46-.94,1.62,1.62,0,0,1,1-.35,1.72,1.72,0,0,1,1.06.36,1.28,1.28,0,0,1,.47,1.08,1.81,1.81,0,0,1-.21.85,6.75,6.75,0,0,1-1,1.24,18,18,0,0,1-1.31,1.24h2.49l-.23.88h-.18a.68.68,0,0,1,0-.14.34.34,0,0,0,0-.11c0-.07,0-.12-.05-.14a1.16,1.16,0,0,0-.27,0Z"/><path class="cls-2" d="M305.69,200a3.62,3.62,0,0,1,.46-2,1.38,1.38,0,0,1,1.21-.73,1.4,1.4,0,0,1,1.22.73,4.36,4.36,0,0,1,0,3.9,1.37,1.37,0,0,1-2.43,0A3.61,3.61,0,0,1,305.69,200Zm.65,0a4.83,4.83,0,0,0,.27,2.06.84.84,0,0,0,.75.43.8.8,0,0,0,.8-.52,5.72,5.72,0,0,0,.23-2,4.82,4.82,0,0,0-.27-2.07.86.86,0,0,0-.76-.43.84.84,0,0,0-.75.43A4.82,4.82,0,0,0,306.34,200Z"/><path class="cls-2" d="M311.54,200.78h-1.93v-.23l2.23-3.25h.25v3.25h.36a1.23,1.23,0,0,0,.4,0,.9.9,0,0,0,.17-.33h.17l-.09.6h-1v.67a4.24,4.24,0,0,0,0,.68.23.23,0,0,0,.12.18,1.1,1.1,0,0,0,.39.05v.18h-1.7v-.18h.13a.71.71,0,0,0,.34-.06.29.29,0,0,0,.12-.18c0-.08,0-.3,0-.67Zm0-.23v-2.48l-1.71,2.48Z"/><path class="cls-2" d="M91.67,119H88.15l-.24.58a6.09,6.09,0,0,0-.53,1.67.73.73,0,0,0,.28.63,1.13,1.13,0,0,0,.73.22v.31H85.63v-.31a1.51,1.51,0,0,0,.92-.44,5.21,5.21,0,0,0,.72-1.42l.33-.79L90.3,113h.26l3.1,7.37.42,1a1.28,1.28,0,0,0,.39.51,1.34,1.34,0,0,0,.73.24v.31H91.55v-.31a2.63,2.63,0,0,0,.91-.1.39.39,0,0,0,.24-.39,4.19,4.19,0,0,0-.32-.9Zm-.12-.31-1.64-4-1.63,4Z"/><path class="cls-2" d="M96.17,122.75a1.83,1.83,0,0,1,.51-.43,1.11,1.11,0,0,1,.56-.14,1.49,1.49,0,0,1,1.09.47,1.65,1.65,0,0,1,.46,1.2,1.76,1.76,0,0,1-.44,1.18,1.48,1.48,0,0,1-1.14.5,1.4,1.4,0,0,1-1-.37,2,2,0,0,1-.56-.93,4,4,0,0,1-.16-1.16A3.79,3.79,0,0,1,96,121a1.67,1.67,0,0,1,1.46-.83,1.55,1.55,0,0,1,.76.18q.33.19.33.42c0,.15-.08.22-.23.22a.34.34,0,0,1-.3-.21.79.79,0,0,0-.26-.32.65.65,0,0,0-.41-.1,1,1,0,0,0-.92.55,3.36,3.36,0,0,0-.31,1.64A1.48,1.48,0,0,0,96.17,122.75Zm0,1a2.79,2.79,0,0,0,.11.76,1.15,1.15,0,0,0,.36.58A.85.85,0,0,0,97.9,125a2.27,2.27,0,0,0,.24-1.17,2.61,2.61,0,0,0-.09-.77,1,1,0,0,0-.34-.46.88.88,0,0,0-.54-.18,1,1,0,0,0-.72.31A1.55,1.55,0,0,0,96.14,123.79Z"/><path class="cls-2" d="M101.29,123.64H99.37v-.23l2.23-3.25h.25v3.25h.36a1.19,1.19,0,0,0,.39,0c.05,0,.1-.14.18-.33H103l-.09.6h-1v.67c0,.37,0,.6,0,.68a.27.27,0,0,0,.13.18,1.1,1.1,0,0,0,.39,0v.18h-1.71v-.18h.14a.64.64,0,0,0,.33-.06.23.23,0,0,0,.12-.18,4.77,4.77,0,0,0,0-.67Zm0-.23v-2.48l-1.7,2.48Z"/><path class="cls-2" d="M194.1,119h-3.52l-.24.58a5.89,5.89,0,0,0-.54,1.67.74.74,0,0,0,.29.63,1.12,1.12,0,0,0,.72.22v.31h-2.75v-.31a1.54,1.54,0,0,0,.92-.44,5.21,5.21,0,0,0,.72-1.42c0-.07.13-.33.33-.79l2.69-6.44H193l3.09,7.37.43,1a1.18,1.18,0,0,0,.38.51,1.4,1.4,0,0,0,.73.24v.31H194v-.31a2.63,2.63,0,0,0,.91-.1.39.39,0,0,0,.23-.39,3.89,3.89,0,0,0-.31-.9Zm-.12-.31-1.64-4-1.64,4Z"/><path class="cls-2" d="M198.59,122.75a1.83,1.83,0,0,1,.51-.43,1.14,1.14,0,0,1,.56-.14,1.51,1.51,0,0,1,1.1.47,1.69,1.69,0,0,1,.46,1.2,1.72,1.72,0,0,1-.45,1.18,1.44,1.44,0,0,1-1.13.5,1.38,1.38,0,0,1-1-.37,2,2,0,0,1-.57-.93,4,4,0,0,1-.16-1.16,3.71,3.71,0,0,1,.55-2.08,1.67,1.67,0,0,1,1.45-.83,1.55,1.55,0,0,1,.76.18q.33.19.33.42a.19.19,0,0,1-.22.22.35.35,0,0,1-.31-.21.78.78,0,0,0-.25-.32.67.67,0,0,0-.41-.1,1,1,0,0,0-.93.55,3.48,3.48,0,0,0-.31,1.64C198.58,122.61,198.59,122.68,198.59,122.75Zm0,1a2.45,2.45,0,0,0,.11.76,1.21,1.21,0,0,0,.35.58.83.83,0,0,0,.56.22.8.8,0,0,0,.73-.39,2.26,2.26,0,0,0,.25-1.17,2.57,2.57,0,0,0-.1-.77,1,1,0,0,0-.33-.46.93.93,0,0,0-.55-.18,1,1,0,0,0-.71.31A1.51,1.51,0,0,0,198.57,123.79Z"/><path class="cls-2" d="M202.58,122.72h-.2l.12-2.43h2a1.74,1.74,0,0,1-.25.45.43.43,0,0,1-.26.07h-1.37l-.07,1.61a1.22,1.22,0,0,1,1-.5,1.31,1.31,0,0,1,1,.49,1.75,1.75,0,0,1,.44,1.21,2,2,0,0,1-.49,1.37,1.73,1.73,0,0,1-1.36.54,1.44,1.44,0,0,1-1-.28c-.23-.19-.34-.36-.34-.51a.24.24,0,0,1,.07-.18.23.23,0,0,1,.18-.07.26.26,0,0,1,.2.07,1.39,1.39,0,0,1,.15.32.69.69,0,0,0,.7.48,1.06,1.06,0,0,0,.85-.4,2.08,2.08,0,0,0,.34-1.31,1.89,1.89,0,0,0-.28-1.16.84.84,0,0,0-.67-.34A1,1,0,0,0,202.58,122.72Z"/><path class="cls-2" d="M296.52,119H293l-.24.58a6.09,6.09,0,0,0-.53,1.67.73.73,0,0,0,.28.63,1.13,1.13,0,0,0,.73.22v.31h-2.75v-.31a1.48,1.48,0,0,0,.91-.44,5.45,5.45,0,0,0,.73-1.42c0-.07.13-.33.32-.79l2.7-6.44h.26l3.1,7.37.42,1a1.28,1.28,0,0,0,.39.51,1.34,1.34,0,0,0,.73.24v.31h-3.64v-.31a2.6,2.6,0,0,0,.9-.1.39.39,0,0,0,.24-.39,4.19,4.19,0,0,0-.32-.9Zm-.11-.31-1.65-4-1.63,4Z"/><path class="cls-2" d="M301,122.75a1.83,1.83,0,0,1,.51-.43,1.11,1.11,0,0,1,.56-.14,1.48,1.48,0,0,1,1.09.47,1.65,1.65,0,0,1,.46,1.2,1.76,1.76,0,0,1-.44,1.18,1.48,1.48,0,0,1-1.14.5,1.4,1.4,0,0,1-1-.37,2.1,2.1,0,0,1-.56-.93,4,4,0,0,1-.16-1.16,3.79,3.79,0,0,1,.54-2.08,1.67,1.67,0,0,1,1.46-.83,1.55,1.55,0,0,1,.76.18q.33.19.33.42c0,.15-.08.22-.23.22a.34.34,0,0,1-.3-.21.87.87,0,0,0-.25-.32.71.71,0,0,0-.42-.1,1,1,0,0,0-.92.55,3.36,3.36,0,0,0-.31,1.64A1.48,1.48,0,0,0,301,122.75Zm0,1a2.79,2.79,0,0,0,.11.76,1.15,1.15,0,0,0,.36.58.85.85,0,0,0,1.29-.17,2.27,2.27,0,0,0,.24-1.17,2.61,2.61,0,0,0-.09-.77.94.94,0,0,0-.34-.46.88.88,0,0,0-.54-.18,1,1,0,0,0-.72.31A1.55,1.55,0,0,0,301,123.79Z"/><path class="cls-2" d="M305,122.75a1.83,1.83,0,0,1,.51-.43,1.11,1.11,0,0,1,.56-.14,1.48,1.48,0,0,1,1.09.47,1.65,1.65,0,0,1,.46,1.2,1.76,1.76,0,0,1-.44,1.18,1.48,1.48,0,0,1-1.14.5,1.4,1.4,0,0,1-1-.37,2.1,2.1,0,0,1-.56-.93,4,4,0,0,1-.16-1.16,3.79,3.79,0,0,1,.54-2.08,1.67,1.67,0,0,1,1.46-.83,1.55,1.55,0,0,1,.76.18q.33.19.33.42c0,.15-.08.22-.23.22a.34.34,0,0,1-.3-.21.87.87,0,0,0-.25-.32.71.71,0,0,0-.42-.1,1,1,0,0,0-.92.55,3.36,3.36,0,0,0-.31,1.64A1.48,1.48,0,0,0,305,122.75Zm0,1a2.79,2.79,0,0,0,.11.76,1.15,1.15,0,0,0,.36.58.85.85,0,0,0,1.29-.17,2.27,2.27,0,0,0,.24-1.17,2.61,2.61,0,0,0-.09-.77.94.94,0,0,0-.34-.46.88.88,0,0,0-.54-.18,1,1,0,0,0-.72.31A1.55,1.55,0,0,0,305,123.79Z"/><path class="cls-2" d="M6.48,191a2.2,2.2,0,0,1,1.34.45,1.21,1.21,0,0,1,.44,1,1.29,1.29,0,0,1-.3.86,1.37,1.37,0,0,1-.76.48,5.78,5.78,0,0,1-1.24.11H3.88v-.18h.21a.9.9,0,0,0,.47-.09.37.37,0,0,0,.16-.26,5,5,0,0,0,0-.85v-2.58a4.74,4.74,0,0,0,0-.83.35.35,0,0,0-.16-.26A1.13,1.13,0,0,0,4,188.7h-.1v-.18l.87,0,1,0c1.44,0,2.17.41,2.17,1.25a1,1,0,0,1-.38.83A2.34,2.34,0,0,1,6.48,191Zm-1-.08h.17a1.81,1.81,0,0,0,1.15-.27,1.06,1.06,0,0,0,.31-.86,1.4,1.4,0,0,0-.12-.64.79.79,0,0,0-.37-.35,2,2,0,0,0-.82-.12H5.52Zm0,.19v1.18a8.81,8.81,0,0,0,0,1,.48.48,0,0,0,.15.31.74.74,0,0,0,.47.1,1.25,1.25,0,0,0,.94-.32,1.35,1.35,0,0,0,.31-1,1.19,1.19,0,0,0-.36-1,1.87,1.87,0,0,0-1.24-.31Z"/><path class="cls-2" d="M10,191.31a1.26,1.26,0,0,1,.43-.59,1,1,0,0,1,.58-.23.53.53,0,0,1,.41.16.49.49,0,0,1,.15.33.27.27,0,0,1-.08.19.23.23,0,0,1-.19.09c-.13,0-.22-.1-.29-.29s-.12-.2-.21-.2a.66.66,0,0,0-.41.23,1.17,1.17,0,0,0-.3.47,3,3,0,0,0-.06.68v.57c0,.34,0,.56,0,.65a.31.31,0,0,0,.11.2.61.61,0,0,0,.35.07h.11v.18H8.86v-.18h.08a.59.59,0,0,0,.34-.07.25.25,0,0,0,.11-.18,4.69,4.69,0,0,0,0-.67v-.9c0-.35,0-.56,0-.65a.29.29,0,0,0-.11-.2.61.61,0,0,0-.35-.07H8.86v-.18a5.33,5.33,0,0,0,1-.23A2.56,2.56,0,0,1,10,191.31Z"/><path class="cls-2" d="M11.68,192.21a1.67,1.67,0,0,1,.49-1.23,1.73,1.73,0,0,1,2.42,0,1.67,1.67,0,0,1,.5,1.22,1.64,1.64,0,0,1-.5,1.27,1.79,1.79,0,0,1-2.42,0A1.68,1.68,0,0,1,11.68,192.21Zm.64,0a2,2,0,0,0,.28,1.2,1,1,0,0,0,.78.34,1,1,0,0,0,.78-.34,2,2,0,0,0,.27-1.2,2,2,0,0,0-.27-1.2,1,1,0,0,0-1.56,0A2,2,0,0,0,12.32,192.23Z"/><path class="cls-2" d="M18.9,193.23h.15c0,.45-.24.67-.66.67a.61.61,0,0,1-.42-.14.69.69,0,0,1-.2-.42,3.73,3.73,0,0,1-.71.42,1.57,1.57,0,0,1-.58.14.85.85,0,0,1-.56-.19.61.61,0,0,1-.23-.49.88.88,0,0,1,.39-.71,4.81,4.81,0,0,1,1.08-.58l.61-.25v-.15a1.79,1.79,0,0,0,0-.48.53.53,0,0,0-.23-.27.82.82,0,0,0-.47-.12c-.39,0-.61.13-.65.39s-.15.4-.33.4-.24-.07-.24-.23.11-.3.32-.47a1.55,1.55,0,0,1,1-.26,1.5,1.5,0,0,1,.77.16.72.72,0,0,1,.36.35,1.56,1.56,0,0,1,.09.61v1.29a2.24,2.24,0,0,0,.05.59.2.2,0,0,0,.2.13C18.75,193.62,18.86,193.49,18.9,193.23Zm-1.13-1.36-.43.17c-.67.27-1,.61-1,1a.6.6,0,0,0,.13.4.4.4,0,0,0,.33.15,1,1,0,0,0,.43-.13,3.15,3.15,0,0,0,.54-.36Z"/><path class="cls-2" d="M22.13,191v-1.25c0-.34,0-.56,0-.65a.31.31,0,0,0-.11-.2.61.61,0,0,0-.35-.07h-.08v-.18a4.55,4.55,0,0,0,1-.16h.09v4.3a4.87,4.87,0,0,0,0,.68.23.23,0,0,0,.12.18.85.85,0,0,0,.38.06v.18a5,5,0,0,0-1,.1,2.17,2.17,0,0,1,0-.58,2,2,0,0,1-.6.43,1.4,1.4,0,0,1-1.7-.35,1.73,1.73,0,0,1-.46-1.21,1.76,1.76,0,0,1,.47-1.27,1.45,1.45,0,0,1,1.09-.48,1.63,1.63,0,0,1,.62.12A1.78,1.78,0,0,1,22.13,191Zm0,.23a2.16,2.16,0,0,0-.51-.34,1.44,1.44,0,0,0-.53-.11.91.91,0,0,0-.73.34,1.67,1.67,0,0,0-.3,1.11,1.76,1.76,0,0,0,.31,1.15.91.91,0,0,0,.74.37,1,1,0,0,0,.55-.14,1.41,1.41,0,0,0,.47-.42Z"/><path class="cls-2" d="M26.36,193h.17a1.24,1.24,0,0,1-1.33.91,1.56,1.56,0,0,1-1.15-.47,1.84,1.84,0,0,1,0-2.5,1.69,1.69,0,0,1,1.95-.31c.23.12.35.27.35.45a.27.27,0,0,1-.07.18.19.19,0,0,1-.18.08c-.17,0-.28-.1-.32-.3a.6.6,0,0,0-.14-.31.63.63,0,0,0-.4-.09.92.92,0,0,0-.79.36,1.9,1.9,0,0,0-.26,1.09,2.16,2.16,0,0,0,.28,1.18,1,1,0,0,0,.86.43A.93.93,0,0,0,26.36,193Z"/><path class="cls-2" d="M30.24,193.23h.14c0,.45-.24.67-.65.67a.61.61,0,0,1-.42-.14.64.64,0,0,1-.2-.42,3.49,3.49,0,0,1-.72.42,1.48,1.48,0,0,1-.57.14.83.83,0,0,1-.56-.19.59.59,0,0,1-.24-.49.87.87,0,0,1,.4-.71,4.81,4.81,0,0,1,1.08-.58l.61-.25v-.15a1.68,1.68,0,0,0-.05-.48.5.5,0,0,0-.22-.27.84.84,0,0,0-.47-.12c-.39,0-.61.13-.65.39s-.16.4-.33.4-.24-.07-.24-.23.1-.3.32-.47a1.53,1.53,0,0,1,1-.26,1.5,1.5,0,0,1,.77.16.81.81,0,0,1,.36.35,1.56,1.56,0,0,1,.09.61v1.29a1.86,1.86,0,0,0,0,.59.19.19,0,0,0,.2.13C30.09,193.62,30.2,193.49,30.24,193.23Zm-1.13-1.36-.43.17c-.67.27-1,.61-1,1a.66.66,0,0,0,.13.4.43.43,0,0,0,.34.15,1,1,0,0,0,.42-.13,3.18,3.18,0,0,0,.55-.36Z"/><path class="cls-2" d="M30.79,193.92v-1h.15c.18.61.5.91.95.91a.52.52,0,0,0,.44-.18.6.6,0,0,0,.15-.39.53.53,0,0,0-.16-.41,2.21,2.21,0,0,0-.62-.39,2.47,2.47,0,0,1-.69-.47.79.79,0,0,1-.21-.56,1,1,0,0,1,.22-.6.78.78,0,0,1,.64-.29.83.83,0,0,1,.69.34.93.93,0,0,0,.15-.28h.15v1H32.5a1.35,1.35,0,0,0-.3-.61.67.67,0,0,0-.53-.25.51.51,0,0,0-.38.14.49.49,0,0,0-.14.34.46.46,0,0,0,.16.36,2.29,2.29,0,0,0,.6.36,1.7,1.7,0,0,1,.81.58,1.21,1.21,0,0,1,.15.56.9.9,0,0,1-.28.68,1,1,0,0,1-.69.26,1,1,0,0,1-.79-.37,1,1,0,0,0-.17.34Z"/><path class="cls-2" d="M35.33,190.8h-1v1.93a3.41,3.41,0,0,0,0,.6.41.41,0,0,0,.17.25.44.44,0,0,0,.27.09.57.57,0,0,0,.49-.32l.12.08a.89.89,0,0,1-.35.39,1.08,1.08,0,0,1-.48.13.82.82,0,0,1-.5-.17.66.66,0,0,1-.26-.39,3.62,3.62,0,0,1,0-.78V190.8h-.47v-.18a.85.85,0,0,0,.57-.27,1.31,1.31,0,0,0,.33-.73h.12v1h1Z"/><path class="cls-2" d="M14.59,200.82l1.62-1.46c.37-.34.56-.58.56-.72s-.19-.33-.56-.34v-.18h2v.18a1.24,1.24,0,0,0-.49.11,1.61,1.61,0,0,0-.46.26l-.77.69-1,.89,2,2a7.19,7.19,0,0,0,.91.83,1.11,1.11,0,0,0,.6.15v.18H16.26v-.18h.11a1.18,1.18,0,0,0,.55-.08A.21.21,0,0,0,17,203c0-.11-.19-.35-.56-.73L15,200.74l-.38.33v1a6.83,6.83,0,0,0,0,.82.41.41,0,0,0,.16.28.81.81,0,0,0,.49.1h.1v.18H13v-.18h.16a.85.85,0,0,0,.47-.09.35.35,0,0,0,.17-.27,4.81,4.81,0,0,0,0-.84v-2.6a6,6,0,0,0,0-.83.38.38,0,0,0-.16-.25,1.66,1.66,0,0,0-.57-.06v-.18H15.4v.18h-.09a1.16,1.16,0,0,0-.52.07.34.34,0,0,0-.16.24,4.59,4.59,0,0,0,0,.83Z"/><path class="cls-2" d="M21.91,201.3H19.68c0,.16,0,.27,0,.34a2.38,2.38,0,0,0,.27,1.27.86.86,0,0,0,.79.43,1,1,0,0,0,1-.64h.19a1.06,1.06,0,0,1-.5.62,1.51,1.51,0,0,1-1.57,0,1.56,1.56,0,0,1-.59-.58,1.64,1.64,0,0,1-.23-.91,1.83,1.83,0,0,1,.44-1.26,1.45,1.45,0,0,1,1.11-.5,1.27,1.27,0,0,1,1,.38A1.29,1.29,0,0,1,21.91,201.3Zm-.68-.16s0-.11,0-.16a.72.72,0,0,0-.2-.53.74.74,0,0,0-.5-.19c-.47,0-.75.3-.84.88Z"/><path class="cls-2" d="M24.14,202.81l.74-1.77a2.47,2.47,0,0,0,.16-.44c0-.13-.15-.2-.43-.2v-.18h1.12v.18a.53.53,0,0,0-.38.14,2,2,0,0,0-.3.56l-1.43,3.44a2.29,2.29,0,0,1-.36.67.45.45,0,0,1-.34.18c-.17,0-.26-.08-.26-.23s.14-.33.41-.45a1.18,1.18,0,0,0,.32-.18,1,1,0,0,0,.16-.27l.3-.76-1.2-2.58a1.44,1.44,0,0,0-.27-.43.56.56,0,0,0-.36-.09v-.18h1.47v.18c-.26,0-.38.06-.38.16a1.59,1.59,0,0,0,.15.38Z"/><path class="cls-2" d="M26.06,203.52v-1.05h.15c.17.61.49.91.95.91a.54.54,0,0,0,.44-.18.61.61,0,0,0,0-.81A2.74,2.74,0,0,0,27,202a2.54,2.54,0,0,1-.7-.47.79.79,0,0,1-.21-.56,1,1,0,0,1,.23-.6.77.77,0,0,1,.64-.29.85.85,0,0,1,.69.34.93.93,0,0,0,.15-.28h.14v1h-.14a1.35,1.35,0,0,0-.3-.61.69.69,0,0,0-.53-.25.5.5,0,0,0-.38.14.46.46,0,0,0-.15.34.5.5,0,0,0,.16.36,2.71,2.71,0,0,0,.6.36,1.6,1.6,0,0,1,.81.58,1.21,1.21,0,0,1,.15.56.93.93,0,0,1-.27.68,1,1,0,0,1-.7.26,1,1,0,0,1-.78-.37.83.83,0,0,0-.17.34Z"/><path class="cls-2" d="M11.62,113.62h-2l-.13.34a3.17,3.17,0,0,0-.31,1,.44.44,0,0,0,.16.36.7.7,0,0,0,.42.12v.18H8.17v-.18a.8.8,0,0,0,.52-.25,3,3,0,0,0,.41-.81l.19-.45,1.54-3.68H11l1.77,4.21L13,115a.78.78,0,0,0,.22.3.91.91,0,0,0,.42.13v.18H11.55v-.18a1.92,1.92,0,0,0,.52,0,.23.23,0,0,0,.13-.23,2.16,2.16,0,0,0-.18-.51Zm-.07-.18-.94-2.25-.93,2.25Z"/><path class="cls-2" d="M16.64,114.79h.17a1.23,1.23,0,0,1-1.33.91,1.57,1.57,0,0,1-1.15-.46,1.66,1.66,0,0,1-.46-1.23,1.69,1.69,0,0,1,.5-1.28,1.66,1.66,0,0,1,1.19-.49,1.51,1.51,0,0,1,.76.19c.23.12.35.27.35.44a.3.3,0,0,1-.06.18.23.23,0,0,1-.19.09c-.17,0-.28-.1-.32-.3a.64.64,0,0,0-.14-.32.63.63,0,0,0-.4-.09.89.89,0,0,0-.78.37,1.8,1.8,0,0,0-.27,1.09,2.12,2.12,0,0,0,.29,1.18,1,1,0,0,0,.85.42A.93.93,0,0,0,16.64,114.79Z"/><path class="cls-2" d="M19.19,112.55h-1v1.94a2.74,2.74,0,0,0,0,.6.4.4,0,0,0,.16.24.43.43,0,0,0,.27.1.58.58,0,0,0,.49-.32l.13.07a.85.85,0,0,1-.36.39,1,1,0,0,1-.48.13.76.76,0,0,1-.49-.16.77.77,0,0,1-.27-.39,4.43,4.43,0,0,1,0-.78v-1.82H17.2v-.18a.77.77,0,0,0,.58-.27,1.24,1.24,0,0,0,.32-.73h.13v1h1Z"/><path class="cls-2" d="M20.62,112.24v2.23c0,.35,0,.56,0,.65a.28.28,0,0,0,.12.2.59.59,0,0,0,.35.07h.08v.18H19.45v-.18h.14a.53.53,0,0,0,.36-.08.27.27,0,0,0,.1-.19c0-.07,0-.29,0-.65v-1a2.78,2.78,0,0,0,0-.69c0-.08-.08-.14-.14-.16a1.09,1.09,0,0,0-.31,0h-.11v-.18a4.36,4.36,0,0,0,1.08-.21Zm-.75-1.63a.44.44,0,0,1,.11-.29.41.41,0,0,1,.58,0,.44.44,0,0,1,.11.29.42.42,0,0,1-.11.29.39.39,0,0,1-.58,0A.42.42,0,0,1,19.87,110.61Z"/><path class="cls-2" d="M23.27,115.7H23l-1.13-2.57a1.86,1.86,0,0,0-.27-.47.45.45,0,0,0-.32-.11v-.18h1.45v.18a1.11,1.11,0,0,0-.33,0,.16.16,0,0,0-.09.15,1.68,1.68,0,0,0,.16.42l.86,1.94.78-1.73a2,2,0,0,0,.18-.54c0-.17-.13-.27-.39-.28v-.18H25v.18a.49.49,0,0,0-.33.17,3,3,0,0,0-.38.69Z"/><path class="cls-2" d="M26.29,112.24v2.23c0,.35,0,.56,0,.65a.25.25,0,0,0,.12.2.57.57,0,0,0,.34.07h.09v.18H25.12v-.18h.14a.53.53,0,0,0,.36-.08.26.26,0,0,0,.09-.19c0-.07,0-.29,0-.65v-1a2.78,2.78,0,0,0-.05-.69.32.32,0,0,0-.14-.16,1.14,1.14,0,0,0-.31,0h-.11v-.18a4.36,4.36,0,0,0,1.08-.21Zm-.76-1.63a.41.41,0,0,1,.41-.41.36.36,0,0,1,.28.12.4.4,0,0,1,.12.29.38.38,0,0,1-.12.29.34.34,0,0,1-.28.13.37.37,0,0,1-.29-.13A.38.38,0,0,1,25.53,110.61Z"/><path class="cls-2" d="M29.19,112.55h-1v1.94a2.74,2.74,0,0,0,0,.6.4.4,0,0,0,.16.24.43.43,0,0,0,.27.1.58.58,0,0,0,.49-.32l.13.07a.85.85,0,0,1-.36.39,1,1,0,0,1-.48.13.76.76,0,0,1-.49-.16.77.77,0,0,1-.27-.39,4.43,4.43,0,0,1,0-.78v-1.82H27.2v-.18a.77.77,0,0,0,.58-.27,1.24,1.24,0,0,0,.32-.73h.13v1h1Z"/><path class="cls-2" d="M31.4,115l.75-1.78c.1-.26.16-.41.16-.43s-.15-.2-.44-.21v-.18H33v.18a.56.56,0,0,0-.38.14,2.11,2.11,0,0,0-.31.56l-1.42,3.44a2.9,2.9,0,0,1-.36.67.45.45,0,0,1-.34.18c-.17,0-.26-.08-.26-.23s.14-.33.41-.45a1.37,1.37,0,0,0,.32-.18.8.8,0,0,0,.15-.27l.31-.76-1.2-2.58a1.6,1.6,0,0,0-.27-.43.56.56,0,0,0-.36-.09v-.18h1.47v.18c-.26,0-.39.06-.39.16a1.54,1.54,0,0,0,.16.39Z"/><path class="cls-2" d="M14.59,122.57l1.62-1.46c.37-.33.56-.57.56-.71s-.19-.33-.56-.34v-.18h2v.18a1.23,1.23,0,0,0-.49.1,1.92,1.92,0,0,0-.46.27l-.77.69-1,.89,2,2a8.66,8.66,0,0,0,.91.84,1.21,1.21,0,0,0,.6.14v.18H16.26V125h.11a1.23,1.23,0,0,0,.55-.07.22.22,0,0,0,.11-.18c0-.11-.19-.36-.57-.74L15,122.5l-.38.33v1a6.83,6.83,0,0,0,0,.82.44.44,0,0,0,.16.29.91.91,0,0,0,.49.09h.1v.18H13V125h.16a1,1,0,0,0,.47-.08.39.39,0,0,0,.17-.27,4.87,4.87,0,0,0,0-.85V121.2a6.16,6.16,0,0,0,0-.84.32.32,0,0,0-.17-.24,1.55,1.55,0,0,0-.56-.06v-.18H15.4v.18h-.1a1.37,1.37,0,0,0-.51.06.34.34,0,0,0-.16.24,4.81,4.81,0,0,0,0,.84Z"/><path class="cls-2" d="M21.91,123.06H19.68c0,.15,0,.26,0,.34a2.42,2.42,0,0,0,.27,1.27.86.86,0,0,0,.78.42,1,1,0,0,0,1-.64h.19a1.08,1.08,0,0,1-.5.63,1.48,1.48,0,0,1-.8.22,1.58,1.58,0,0,1-.77-.2,1.64,1.64,0,0,1-.59-.58,1.67,1.67,0,0,1-.23-.91,1.79,1.79,0,0,1,.44-1.26,1.42,1.42,0,0,1,1.11-.51,1.24,1.24,0,0,1,1,.39A1.27,1.27,0,0,1,21.91,123.06Zm-.68-.16c0-.06,0-.11,0-.16a.67.67,0,0,0-.7-.72c-.47,0-.75.29-.84.88Z"/><path class="cls-2" d="M24.14,124.57l.74-1.78a3,3,0,0,0,.16-.43c0-.13-.15-.2-.43-.21V122h1.12v.18a.58.58,0,0,0-.38.14,2.16,2.16,0,0,0-.3.56l-1.43,3.44a2.29,2.29,0,0,1-.36.67.45.45,0,0,1-.34.18c-.17,0-.26-.08-.26-.23s.14-.33.41-.45a1.18,1.18,0,0,0,.32-.18,1,1,0,0,0,.16-.27l.3-.76-1.2-2.58a1.6,1.6,0,0,0-.27-.43.56.56,0,0,0-.36-.09V122h1.47v.18c-.26,0-.38.06-.38.16a1.76,1.76,0,0,0,.15.39Z"/><path class="cls-2" d="M26.05,125.27v-1h.16c.17.61.49.91.95.91a.54.54,0,0,0,.44-.18.6.6,0,0,0,.15-.39.58.58,0,0,0-.16-.41,2.38,2.38,0,0,0-.62-.39,2.34,2.34,0,0,1-.7-.47.77.77,0,0,1-.21-.55,1,1,0,0,1,.23-.61.77.77,0,0,1,.64-.29.88.88,0,0,1,.69.34.81.81,0,0,0,.15-.28h.14v1h-.14a1.3,1.3,0,0,0-.3-.61.7.7,0,0,0-.53-.26.54.54,0,0,0-.38.14.46.46,0,0,0-.15.34.5.5,0,0,0,.16.36,2.11,2.11,0,0,0,.6.36,1.6,1.6,0,0,1,.81.59,1.17,1.17,0,0,1,.15.55.9.9,0,0,1-.27.68,1,1,0,0,1-.7.26,1.06,1.06,0,0,1-.78-.36.85.85,0,0,0-.17.33Z"/><path class="cls-2" d="M169.45,98.3v-.21a8.31,8.31,0,0,0,1-1A6.5,6.5,0,0,0,171.3,96a2,2,0,0,0,.26-1,1.18,1.18,0,0,0-.27-.86.85.85,0,0,0-.66-.28.76.76,0,0,0-.6.25.85.85,0,0,0-.22.54.6.6,0,0,0,.28.52c.07,0,.1.09.1.11a.31.31,0,0,1-.11.17.35.35,0,0,1-.19.11c-.07,0-.16-.07-.25-.21a.88.88,0,0,1-.15-.53,1,1,0,0,1,.41-.83,1.48,1.48,0,0,1,.89-.31,1.52,1.52,0,0,1,.93.32,1.14,1.14,0,0,1,.41,1,1.48,1.48,0,0,1-.19.74,5.32,5.32,0,0,1-.89,1.08c-.48.49-.86.85-1.15,1.09h2.17l-.19.77h-.16a.25.25,0,0,1,0-.12s0-.06,0-.1a.14.14,0,0,0-.05-.12,1,1,0,0,0-.24,0Z"/><path class="cls-2" d="M172.85,96.07a3.14,3.14,0,0,1,.4-1.71,1.19,1.19,0,0,1,2.12,0,3.75,3.75,0,0,1,0,3.41,1.19,1.19,0,0,1-2.12,0A3.17,3.17,0,0,1,172.85,96.07Zm.56,0a4.16,4.16,0,0,0,.24,1.8.75.75,0,0,0,.66.38.7.7,0,0,0,.7-.46,5,5,0,0,0,.2-1.72,4.18,4.18,0,0,0-.24-1.81.76.76,0,0,0-1.32,0A4.15,4.15,0,0,0,173.41,96.07Z"/><path class="cls-2" d="M176.45,98.3v-.21a8.31,8.31,0,0,0,1-1A6.5,6.5,0,0,0,178.3,96a2,2,0,0,0,.26-1,1.18,1.18,0,0,0-.27-.86.85.85,0,0,0-.66-.28.76.76,0,0,0-.6.25.85.85,0,0,0-.22.54.6.6,0,0,0,.28.52c.07,0,.1.09.1.11a.31.31,0,0,1-.11.17.35.35,0,0,1-.19.11c-.07,0-.16-.07-.25-.21a.88.88,0,0,1-.15-.53,1,1,0,0,1,.41-.83,1.48,1.48,0,0,1,.89-.31,1.52,1.52,0,0,1,.93.32,1.14,1.14,0,0,1,.41,1,1.48,1.48,0,0,1-.19.74,5.32,5.32,0,0,1-.89,1.08c-.48.49-.86.85-1.15,1.09h2.17l-.19.77h-.16a.25.25,0,0,1,0-.12s0-.06,0-.1a.14.14,0,0,0-.05-.12,1,1,0,0,0-.24,0Z"/><path class="cls-2" d="M179.85,96.07a3.14,3.14,0,0,1,.4-1.71,1.19,1.19,0,0,1,2.12,0,3.75,3.75,0,0,1,0,3.41,1.19,1.19,0,0,1-2.12,0A3.17,3.17,0,0,1,179.85,96.07Zm.56,0a4.16,4.16,0,0,0,.24,1.8.75.75,0,0,0,.66.38.7.7,0,0,0,.7-.46,5,5,0,0,0,.2-1.72,4.18,4.18,0,0,0-.24-1.81.76.76,0,0,0-1.32,0A4.15,4.15,0,0,0,180.41,96.07Z"/><path class="cls-2" d="M183.29,96.63H185v.52h-1.68Z"/><path class="cls-2" d="M185.53,96.07a3.13,3.13,0,0,1,.41-1.71,1.19,1.19,0,0,1,2.12,0,3.75,3.75,0,0,1,0,3.41,1.19,1.19,0,0,1-2.12,0A3.17,3.17,0,0,1,185.53,96.07Zm.57,0a4.16,4.16,0,0,0,.24,1.8.75.75,0,0,0,.66.38.71.71,0,0,0,.7-.46,5.06,5.06,0,0,0,.19-1.72,4.23,4.23,0,0,0-.23-1.81.76.76,0,0,0-1.32,0A4.15,4.15,0,0,0,186.1,96.07Z"/><path class="cls-2" d="M190.65,96.76H189v-.2l1.95-2.85h.22v2.85h.31a.78.78,0,0,0,.35,0,.94.94,0,0,0,.15-.29h.15l-.08.53h-.88v.58a3.76,3.76,0,0,0,0,.6.23.23,0,0,0,.11.16.83.83,0,0,0,.34.05v.15h-1.49v-.15h.12a.55.55,0,0,0,.29-.06.21.21,0,0,0,.1-.16,5.51,5.51,0,0,0,0-.59Zm0-.2V94.39l-1.49,2.17Z"/><path class="cls-2" d="M192.48,96.63h1.68v.52h-1.68Z"/><path class="cls-2" d="M194.83,98.3v-.21a8.37,8.37,0,0,0,1-1,6,6,0,0,0,.86-1.14,1.94,1.94,0,0,0,.27-1,1.18,1.18,0,0,0-.27-.86.87.87,0,0,0-.66-.28.78.78,0,0,0-.61.25.84.84,0,0,0-.21.54.58.58,0,0,0,.28.52c.06,0,.1.09.1.11s0,.1-.12.17a.35.35,0,0,1-.19.11c-.07,0-.15-.07-.25-.21a1,1,0,0,1-.14-.53,1,1,0,0,1,.4-.83,1.51,1.51,0,0,1,.9-.31,1.47,1.47,0,0,1,.92.32,1.11,1.11,0,0,1,.41,1,1.59,1.59,0,0,1-.18.74,5.12,5.12,0,0,1-.9,1.08,14.24,14.24,0,0,1-1.15,1.09h2.18l-.2.77h-.16a.5.5,0,0,1,0-.12.31.31,0,0,0,0-.1c0-.06,0-.1,0-.12a1,1,0,0,0-.24,0Z"/><path class="cls-2" d="M199.84,96.76h-1.68v-.2l2-2.85h.22v2.85h.31a.81.81,0,0,0,.35,0,.94.94,0,0,0,.15-.29h.15l-.08.53h-.88v.58c0,.33,0,.53,0,.6a.24.24,0,0,0,.12.16.83.83,0,0,0,.34.05v.15h-1.5v-.15h.12a.56.56,0,0,0,.3-.06.25.25,0,0,0,.1-.16,5.51,5.51,0,0,0,0-.59Zm0-.2V94.39l-1.49,2.17Z"/><path class="cls-2" d="M208.13,96.07a3.14,3.14,0,0,1,.4-1.71,1.23,1.23,0,0,1,1.06-.65,1.2,1.2,0,0,1,1.06.65,3.09,3.09,0,0,1,.41,1.71,3.17,3.17,0,0,1-.4,1.7,1.2,1.2,0,0,1-2.13,0A3.17,3.17,0,0,1,208.13,96.07Zm.56,0a4.16,4.16,0,0,0,.24,1.8.75.75,0,0,0,.66.38.69.69,0,0,0,.7-.46,5,5,0,0,0,.2-1.72,4.18,4.18,0,0,0-.24-1.81.76.76,0,0,0-1.32,0A4.15,4.15,0,0,0,208.69,96.07Z"/><path class="cls-2" d="M213.38,96a1.34,1.34,0,0,1,.79.36,1.2,1.2,0,0,1-.07,1.76,1.6,1.6,0,0,1-1,.33,1.5,1.5,0,0,1-1-.36,1.17,1.17,0,0,1-.12-1.66,1.45,1.45,0,0,1,.82-.43,1.28,1.28,0,0,1-.69-.41,1,1,0,0,1-.27-.71,1,1,0,0,1,.37-.82,1.36,1.36,0,0,1,.92-.32,1.44,1.44,0,0,1,.9.31,1,1,0,0,1,.4.83,1.06,1.06,0,0,1-.25.71A1.43,1.43,0,0,1,213.38,96Zm-1.17,1.17a2,2,0,0,0,.07.61.77.77,0,0,0,.28.37.87.87,0,0,0,.5.14.94.94,0,0,0,.64-.22,1.14,1.14,0,0,0,.25-.86,1.24,1.24,0,0,0-.25-.89,1,1,0,0,0-.65-.23.71.71,0,0,0-.63.29A1.3,1.3,0,0,0,212.21,97.14Zm.12-2.36a1.59,1.59,0,0,0,.18.84.61.61,0,0,0,.54.27.66.66,0,0,0,.58-.26,1.33,1.33,0,0,0,.2-.79,1.18,1.18,0,0,0-.2-.73.7.7,0,0,0-.57-.25.68.68,0,0,0-.52.23A1,1,0,0,0,212.33,94.78Z"/><path class="cls-2" d="M215.35,95.68a.36.36,0,0,1,.37-.37.38.38,0,0,1,.26.11.35.35,0,0,1,.1.26.33.33,0,0,1-.11.26.34.34,0,0,1-.25.11.35.35,0,0,1-.26-.11A.34.34,0,0,1,215.35,95.68Zm0,2.37a.38.38,0,0,1,.37-.37.38.38,0,0,1,.26.11.35.35,0,0,1,.1.26.33.33,0,0,1-.11.26.34.34,0,0,1-.25.11.35.35,0,0,1-.26-.11A.34.34,0,0,1,215.35,98.05Z"/><path class="cls-2" d="M216.88,96.07a3.14,3.14,0,0,1,.4-1.71,1.23,1.23,0,0,1,1.06-.65,1.2,1.2,0,0,1,1.06.65,3.09,3.09,0,0,1,.41,1.71,3.17,3.17,0,0,1-.4,1.7,1.2,1.2,0,0,1-2.13,0A3.17,3.17,0,0,1,216.88,96.07Zm.56,0a4.16,4.16,0,0,0,.24,1.8.75.75,0,0,0,.66.38.69.69,0,0,0,.7-.46,5,5,0,0,0,.2-1.72,4.18,4.18,0,0,0-.24-1.81.76.76,0,0,0-1.32,0A4.15,4.15,0,0,0,217.44,96.07Z"/><path class="cls-2" d="M220.38,96.07a3.14,3.14,0,0,1,.4-1.71,1.23,1.23,0,0,1,1.06-.65,1.2,1.2,0,0,1,1.06.65,3.09,3.09,0,0,1,.41,1.71,3.17,3.17,0,0,1-.4,1.7,1.2,1.2,0,0,1-2.13,0A3.17,3.17,0,0,1,220.38,96.07Zm.56,0a4.16,4.16,0,0,0,.24,1.8.75.75,0,0,0,.66.38.69.69,0,0,0,.7-.46,5,5,0,0,0,.2-1.72,4.18,4.18,0,0,0-.24-1.81.76.76,0,0,0-1.32,0A4.15,4.15,0,0,0,220.94,96.07Z"/><path class="cls-2" d="M67,98.3v-.21a8.37,8.37,0,0,0,1-1A6,6,0,0,0,68.87,96a1.94,1.94,0,0,0,.27-1,1.18,1.18,0,0,0-.27-.86.87.87,0,0,0-.66-.28.78.78,0,0,0-.61.25.84.84,0,0,0-.21.54.58.58,0,0,0,.28.52c.06,0,.1.09.1.11s0,.1-.12.17a.35.35,0,0,1-.19.11c-.07,0-.15-.07-.25-.21a1,1,0,0,1-.14-.53,1,1,0,0,1,.4-.83,1.49,1.49,0,0,1,.9-.31,1.47,1.47,0,0,1,.92.32,1.11,1.11,0,0,1,.41,1,1.59,1.59,0,0,1-.18.74,5.47,5.47,0,0,1-.9,1.08,14.24,14.24,0,0,1-1.15,1.09h2.18l-.2.77h-.16a.5.5,0,0,1,0-.12.31.31,0,0,0,0-.1c0-.06,0-.1,0-.12a1,1,0,0,0-.24,0Z"/><path class="cls-2" d="M70.42,96.07a3.13,3.13,0,0,1,.41-1.71,1.19,1.19,0,0,1,2.12,0,3.83,3.83,0,0,1,0,3.41,1.19,1.19,0,0,1-2.12,0A3.17,3.17,0,0,1,70.42,96.07Zm.57,0a4.38,4.38,0,0,0,.23,1.8.76.76,0,0,0,.67.38.69.69,0,0,0,.69-.46,4.75,4.75,0,0,0,.2-1.72,4.18,4.18,0,0,0-.24-1.81.72.72,0,0,0-.65-.38.75.75,0,0,0-.66.38A4.15,4.15,0,0,0,71,96.07Z"/><path class="cls-2" d="M74,98.3v-.21a8.37,8.37,0,0,0,1-1A6,6,0,0,0,75.87,96a1.94,1.94,0,0,0,.27-1,1.18,1.18,0,0,0-.27-.86.87.87,0,0,0-.66-.28.78.78,0,0,0-.61.25.84.84,0,0,0-.21.54.58.58,0,0,0,.28.52c.06,0,.1.09.1.11s0,.1-.12.17a.35.35,0,0,1-.19.11c-.07,0-.15-.07-.25-.21a1,1,0,0,1-.14-.53,1,1,0,0,1,.4-.83,1.49,1.49,0,0,1,.9-.31,1.47,1.47,0,0,1,.92.32,1.11,1.11,0,0,1,.41,1,1.59,1.59,0,0,1-.18.74,5.47,5.47,0,0,1-.9,1.08,14.24,14.24,0,0,1-1.15,1.09h2.18l-.2.77h-.16a.5.5,0,0,1,0-.12.31.31,0,0,0,0-.1c0-.06,0-.1,0-.12a1,1,0,0,0-.24,0Z"/><path class="cls-2" d="M77.42,96.07a3.13,3.13,0,0,1,.41-1.71,1.19,1.19,0,0,1,2.12,0,3.83,3.83,0,0,1,0,3.41,1.19,1.19,0,0,1-2.12,0A3.17,3.17,0,0,1,77.42,96.07Zm.57,0a4.38,4.38,0,0,0,.23,1.8.76.76,0,0,0,.67.38.69.69,0,0,0,.69-.46,4.75,4.75,0,0,0,.2-1.72,4.18,4.18,0,0,0-.24-1.81.72.72,0,0,0-.65-.38.75.75,0,0,0-.66.38A4.15,4.15,0,0,0,78,96.07Z"/><path class="cls-2" d="M80.87,96.63h1.68v.52H80.87Z"/><path class="cls-2" d="M83.11,96.07a3.14,3.14,0,0,1,.4-1.71,1.2,1.2,0,0,1,2.13,0,3.83,3.83,0,0,1,0,3.41,1.2,1.2,0,0,1-2.13,0A3.17,3.17,0,0,1,83.11,96.07Zm.57,0a4.21,4.21,0,0,0,.23,1.8.75.75,0,0,0,.66.38.69.69,0,0,0,.7-.46,5,5,0,0,0,.2-1.72,4.18,4.18,0,0,0-.24-1.81.76.76,0,0,0-1.32,0A4.2,4.2,0,0,0,83.68,96.07Z"/><path class="cls-2" d="M88.22,96.76H86.54v-.2l1.95-2.85h.22v2.85H89a.72.72,0,0,0,.34,0s.09-.12.15-.29h.15l-.07.53h-.89v.58a5.77,5.77,0,0,0,0,.6.23.23,0,0,0,.11.16.86.86,0,0,0,.34.05v.15H87.69v-.15h.12a.5.5,0,0,0,.29-.06.23.23,0,0,0,.11-.16c0-.07,0-.26,0-.59Zm0-.2V94.39l-1.49,2.17Z"/><path class="cls-2" d="M90.06,96.63h1.67v.52H90.06Z"/><path class="cls-2" d="M92.4,98.3v-.21a8.31,8.31,0,0,0,1-1A6.5,6.5,0,0,0,94.25,96a2,2,0,0,0,.26-1,1.18,1.18,0,0,0-.27-.86.85.85,0,0,0-.66-.28.76.76,0,0,0-.6.25.8.8,0,0,0-.22.54.6.6,0,0,0,.28.52c.07,0,.1.09.1.11a.31.31,0,0,1-.11.17.35.35,0,0,1-.19.11c-.07,0-.16-.07-.25-.21a.88.88,0,0,1-.15-.53,1,1,0,0,1,.41-.83,1.48,1.48,0,0,1,.89-.31,1.52,1.52,0,0,1,.93.32,1.14,1.14,0,0,1,.41,1,1.48,1.48,0,0,1-.19.74A5.32,5.32,0,0,1,94,96.8c-.48.49-.86.85-1.15,1.09H95l-.19.77h-.16a.25.25,0,0,1,0-.12s0-.06,0-.1a.14.14,0,0,0,0-.12,1,1,0,0,0-.24,0Z"/><path class="cls-2" d="M97.41,96.76H95.73v-.2l2-2.85h.22v2.85h.32a.75.75,0,0,0,.34,0s.09-.12.15-.29h.15l-.08.53H97.9v.58a5.77,5.77,0,0,0,0,.6.23.23,0,0,0,.11.16.86.86,0,0,0,.34.05v.15H96.88v-.15H97a.52.52,0,0,0,.29-.06.21.21,0,0,0,.1-.16,3.6,3.6,0,0,0,0-.59Zm0-.2V94.39l-1.49,2.17Z"/><path class="cls-2" d="M105.7,96.07a3.13,3.13,0,0,1,.41-1.71,1.19,1.19,0,0,1,2.12,0,3.83,3.83,0,0,1,0,3.41,1.19,1.19,0,0,1-2.12,0A3.17,3.17,0,0,1,105.7,96.07Zm.57,0a4.16,4.16,0,0,0,.24,1.8.75.75,0,0,0,.66.38.71.71,0,0,0,.7-.46,5.06,5.06,0,0,0,.19-1.72,4.41,4.41,0,0,0-.23-1.81.76.76,0,0,0-1.32,0A4.15,4.15,0,0,0,106.27,96.07Z"/><path class="cls-2" d="M109.43,94.65l.29-.94h.12c0,.05,0,.08.06.09a.67.67,0,0,0,.27,0h1.77l-1.23,3.74a2.59,2.59,0,0,1-.31.73.29.29,0,0,1-.21.12.19.19,0,0,1-.21-.21,1.73,1.73,0,0,1,.2-.54l.08-.19,1.38-3.2h-1.81a.19.19,0,0,0-.11.07,1,1,0,0,0-.13.29Z"/><path class="cls-2" d="M112.92,95.68a.38.38,0,0,1,.11-.26.35.35,0,0,1,.26-.11.37.37,0,1,1-.26.63A.38.38,0,0,1,112.92,95.68Zm0,2.37a.38.38,0,1,1,.11.26A.38.38,0,0,1,112.92,98.05Z"/><path class="cls-2" d="M115.9,95.82a.76.76,0,0,1,.21,0,1,1,0,0,1,.79.34,1.31,1.31,0,0,1,.29.86,1.34,1.34,0,0,1-.43,1,1.56,1.56,0,0,1-1.1.4,1.36,1.36,0,0,1-.77-.21c-.22-.13-.33-.28-.33-.44a.27.27,0,0,1,.06-.17.24.24,0,0,1,.16-.07c.12,0,.21.08.26.24a.57.57,0,0,0,.27.4.67.67,0,0,0,.35.1.86.86,0,0,0,.69-.32,1.46,1.46,0,0,0,.27-1,1.24,1.24,0,0,0-.2-.79.59.59,0,0,0-.47-.26.75.75,0,0,0-.52.29.16.16,0,0,1-.1,0c-.07,0-.1,0-.1-.11a.16.16,0,0,1,0-.1,2.93,2.93,0,0,1,.3-.22,3,3,0,0,0,.71-.61,1,1,0,0,0,.18-.61.78.78,0,0,0-.18-.55.62.62,0,0,0-.48-.19.84.84,0,0,0-.55.19.64.64,0,0,0-.24.51.63.63,0,0,0,.21.45l0,0s0,.06-.12.1l-.16,0c-.07,0-.14-.06-.2-.16a.73.73,0,0,1-.09-.35A.94.94,0,0,1,115,94a1.23,1.23,0,0,1,.87-.31,1.28,1.28,0,0,1,.86.26.78.78,0,0,1,.29.58.81.81,0,0,1-.2.52,2.75,2.75,0,0,1-.67.55Z"/><path class="cls-2" d="M118,96.07a3.13,3.13,0,0,1,.41-1.71,1.19,1.19,0,0,1,2.12,0,3.83,3.83,0,0,1,0,3.41,1.19,1.19,0,0,1-2.12,0A3.17,3.17,0,0,1,118,96.07Zm.57,0a4.16,4.16,0,0,0,.24,1.8.75.75,0,0,0,.66.38.71.71,0,0,0,.7-.46,5.06,5.06,0,0,0,.19-1.72,4.41,4.41,0,0,0-.23-1.81.76.76,0,0,0-1.32,0A4.15,4.15,0,0,0,118.52,96.07Z"/><path class="cls-2" d="M271.88,98.3v-.21a7.65,7.65,0,0,0,1-1,6,6,0,0,0,.86-1.14,1.94,1.94,0,0,0,.27-1,1.18,1.18,0,0,0-.27-.86.87.87,0,0,0-.66-.28.8.8,0,0,0-.61.25.84.84,0,0,0-.21.54.58.58,0,0,0,.28.52c.06,0,.1.09.1.11s0,.1-.12.17a.35.35,0,0,1-.19.11c-.07,0-.15-.07-.25-.21a1,1,0,0,1-.14-.53,1,1,0,0,1,.4-.83,1.51,1.51,0,0,1,.9-.31,1.47,1.47,0,0,1,.92.32,1.11,1.11,0,0,1,.41,1,1.59,1.59,0,0,1-.18.74,5.12,5.12,0,0,1-.9,1.08,14.24,14.24,0,0,1-1.15,1.09h2.18l-.2.77h-.16a.5.5,0,0,1,0-.12.31.31,0,0,0,0-.1c0-.06,0-.1,0-.12a1,1,0,0,0-.24,0Z"/><path class="cls-2" d="M275.27,96.07a3.13,3.13,0,0,1,.41-1.71,1.19,1.19,0,0,1,2.12,0,3.83,3.83,0,0,1,0,3.41,1.19,1.19,0,0,1-2.12,0A3.17,3.17,0,0,1,275.27,96.07Zm.57,0a4.16,4.16,0,0,0,.24,1.8.73.73,0,0,0,.66.38.69.69,0,0,0,.69-.46,4.75,4.75,0,0,0,.2-1.72,4.18,4.18,0,0,0-.24-1.81.72.72,0,0,0-.65-.38.75.75,0,0,0-.66.38A4.15,4.15,0,0,0,275.84,96.07Z"/><path class="cls-2" d="M278.88,98.3v-.21a7.65,7.65,0,0,0,1-1,6,6,0,0,0,.86-1.14,1.94,1.94,0,0,0,.27-1,1.18,1.18,0,0,0-.27-.86.87.87,0,0,0-.66-.28.8.8,0,0,0-.61.25.84.84,0,0,0-.21.54.58.58,0,0,0,.28.52c.06,0,.1.09.1.11s0,.1-.12.17a.35.35,0,0,1-.19.11c-.07,0-.15-.07-.25-.21a1,1,0,0,1-.14-.53,1,1,0,0,1,.4-.83,1.51,1.51,0,0,1,.9-.31,1.47,1.47,0,0,1,.92.32,1.11,1.11,0,0,1,.41,1,1.59,1.59,0,0,1-.18.74,5.12,5.12,0,0,1-.9,1.08,14.24,14.24,0,0,1-1.15,1.09h2.18l-.2.77h-.16a.5.5,0,0,1,0-.12.31.31,0,0,0,0-.1c0-.06,0-.1,0-.12a1,1,0,0,0-.24,0Z"/><path class="cls-2" d="M282.27,96.07a3.13,3.13,0,0,1,.41-1.71,1.19,1.19,0,0,1,2.12,0,3.83,3.83,0,0,1,0,3.41,1.19,1.19,0,0,1-2.12,0A3.17,3.17,0,0,1,282.27,96.07Zm.57,0a4.16,4.16,0,0,0,.24,1.8.73.73,0,0,0,.66.38.69.69,0,0,0,.69-.46,4.75,4.75,0,0,0,.2-1.72,4.18,4.18,0,0,0-.24-1.81.72.72,0,0,0-.65-.38.75.75,0,0,0-.66.38A4.15,4.15,0,0,0,282.84,96.07Z"/><path class="cls-2" d="M285.72,96.63h1.68v.52h-1.68Z"/><path class="cls-2" d="M288,96.07a3.14,3.14,0,0,1,.4-1.71,1.2,1.2,0,0,1,2.13,0,3.83,3.83,0,0,1,0,3.41,1.2,1.2,0,0,1-2.13,0A3.17,3.17,0,0,1,288,96.07Zm.57,0a4.21,4.21,0,0,0,.23,1.8.75.75,0,0,0,.66.38.69.69,0,0,0,.7-.46,5,5,0,0,0,.2-1.72,4.18,4.18,0,0,0-.24-1.81.76.76,0,0,0-1.32,0A4.37,4.37,0,0,0,288.53,96.07Z"/><path class="cls-2" d="M293.08,96.76h-1.69v-.2l2-2.85h.21v2.85h.32a.72.72,0,0,0,.34,0s.09-.12.15-.29h.15l-.07.53h-.89v.58a5.77,5.77,0,0,0,0,.6.26.26,0,0,0,.11.16.92.92,0,0,0,.35.05v.15h-1.5v-.15h.12a.5.5,0,0,0,.29-.06.23.23,0,0,0,.11-.16,5.51,5.51,0,0,0,0-.59Zm0-.2V94.39l-1.5,2.17Z"/><path class="cls-2" d="M294.91,96.63h1.68v.52h-1.68Z"/><path class="cls-2" d="M297.25,98.3v-.21a8.31,8.31,0,0,0,1-1A6.5,6.5,0,0,0,299.1,96a2,2,0,0,0,.26-1,1.18,1.18,0,0,0-.27-.86.84.84,0,0,0-.66-.28.76.76,0,0,0-.6.25.85.85,0,0,0-.22.54.6.6,0,0,0,.28.52c.07,0,.1.09.1.11a.31.31,0,0,1-.11.17.35.35,0,0,1-.19.11c-.07,0-.15-.07-.25-.21a.88.88,0,0,1-.15-.53,1,1,0,0,1,.41-.83,1.48,1.48,0,0,1,.89-.31,1.52,1.52,0,0,1,.93.32,1.14,1.14,0,0,1,.41,1,1.48,1.48,0,0,1-.19.74,5.32,5.32,0,0,1-.89,1.08c-.48.49-.86.85-1.15,1.09h2.17l-.19.77h-.16a.25.25,0,0,1,0-.12.31.31,0,0,0,0-.1.14.14,0,0,0-.05-.12,1,1,0,0,0-.24,0Z"/><path class="cls-2" d="M302.26,96.76h-1.68v-.2l1.95-2.85h.22v2.85h.32a.75.75,0,0,0,.34,0s.09-.12.15-.29h.15l-.08.53h-.88v.58a5.77,5.77,0,0,0,0,.6.23.23,0,0,0,.11.16.86.86,0,0,0,.34.05v.15h-1.49v-.15h.12a.52.52,0,0,0,.29-.06.26.26,0,0,0,.11-.16c0-.07,0-.26,0-.59Zm0-.2V94.39l-1.49,2.17Z"/><path class="cls-2" d="M310.55,96.07a3.13,3.13,0,0,1,.41-1.71,1.19,1.19,0,0,1,2.12,0,3.75,3.75,0,0,1,0,3.41,1.19,1.19,0,0,1-2.12,0A3.17,3.17,0,0,1,310.55,96.07Zm.57,0a4.16,4.16,0,0,0,.24,1.8.75.75,0,0,0,.66.38.71.71,0,0,0,.7-.46,5.06,5.06,0,0,0,.19-1.72,4.23,4.23,0,0,0-.23-1.81.76.76,0,0,0-1.32,0A4.15,4.15,0,0,0,311.12,96.07Z"/><path class="cls-2" d="M315.8,96a1.37,1.37,0,0,1,.8.36,1.11,1.11,0,0,1,.34.84,1.12,1.12,0,0,1-.42.92,1.6,1.6,0,0,1-1,.33,1.48,1.48,0,0,1-1-.36,1.17,1.17,0,0,1-.12-1.66,1.45,1.45,0,0,1,.81-.43,1.22,1.22,0,0,1-.68-.41,1.09,1.09,0,0,1,.09-1.53,1.37,1.37,0,0,1,.92-.32,1.47,1.47,0,0,1,.91.31,1,1,0,0,1,.39.83,1.06,1.06,0,0,1-.25.71A1.36,1.36,0,0,1,315.8,96Zm-1.17,1.17a2,2,0,0,0,.08.61.74.74,0,0,0,.27.37.9.9,0,0,0,.51.14.91.91,0,0,0,.63-.22,1.1,1.1,0,0,0,.25-.86,1.2,1.2,0,0,0-.25-.89.94.94,0,0,0-.65-.23.71.71,0,0,0-.63.29A1.3,1.3,0,0,0,314.63,97.14Zm.12-2.36a1.59,1.59,0,0,0,.18.84.61.61,0,0,0,.54.27.68.68,0,0,0,.59-.26,1.34,1.34,0,0,0,.19-.79,1.11,1.11,0,0,0-.2-.73.66.66,0,0,0-.56-.25.7.7,0,0,0-.53.23A1,1,0,0,0,314.75,94.78Z"/><path class="cls-2" d="M317.78,95.68a.37.37,0,0,1,.1-.26.37.37,0,1,1,0,.52A.37.37,0,0,1,317.78,95.68Zm0,2.37a.35.35,0,0,1,.1-.26.37.37,0,1,1,0,.52A.37.37,0,0,1,317.78,98.05Z"/><path class="cls-2" d="M320.75,95.82a.76.76,0,0,1,.21,0,1,1,0,0,1,.79.34A1.31,1.31,0,0,1,322,97a1.34,1.34,0,0,1-.43,1,1.56,1.56,0,0,1-1.1.4,1.36,1.36,0,0,1-.77-.21c-.22-.13-.33-.28-.33-.44a.27.27,0,0,1,.06-.17.24.24,0,0,1,.16-.07c.12,0,.21.08.26.24a.57.57,0,0,0,.27.4.67.67,0,0,0,.35.1.89.89,0,0,0,.7-.32,1.52,1.52,0,0,0,.26-1,1.24,1.24,0,0,0-.2-.79.59.59,0,0,0-.47-.26.75.75,0,0,0-.52.29.14.14,0,0,1-.1,0c-.07,0-.1,0-.1-.11a.16.16,0,0,1,.05-.1,2.93,2.93,0,0,1,.3-.22,3.32,3.32,0,0,0,.72-.61,1.07,1.07,0,0,0,.17-.61.78.78,0,0,0-.18-.55.62.62,0,0,0-.48-.19.84.84,0,0,0-.55.19.64.64,0,0,0-.24.51.63.63,0,0,0,.21.45l0,0s0,.06-.12.1l-.16,0c-.07,0-.14-.06-.2-.16a.73.73,0,0,1-.09-.35.94.94,0,0,1,.33-.69,1.46,1.46,0,0,1,1.73,0,.78.78,0,0,1,.29.58.81.81,0,0,1-.2.52,2.87,2.87,0,0,1-.66.55Z"/><path class="cls-2" d="M322.8,96.07a3.13,3.13,0,0,1,.41-1.71,1.19,1.19,0,0,1,2.12,0,3.75,3.75,0,0,1,0,3.41,1.19,1.19,0,0,1-2.12,0A3.17,3.17,0,0,1,322.8,96.07Zm.57,0a4.16,4.16,0,0,0,.24,1.8.75.75,0,0,0,.66.38.71.71,0,0,0,.7-.46,5.06,5.06,0,0,0,.19-1.72,4.23,4.23,0,0,0-.23-1.81.76.76,0,0,0-1.32,0A4.15,4.15,0,0,0,323.37,96.07Z"/><path class="cls-2" d="M78.1,7.81V7.6a8.31,8.31,0,0,0,1-1A6,6,0,0,0,80,5.5a1.94,1.94,0,0,0,.26-1A1.24,1.24,0,0,0,80,3.67a.9.9,0,0,0-.67-.27.73.73,0,0,0-.6.25.84.84,0,0,0-.21.54.61.61,0,0,0,.27.52c.07,0,.11.09.11.11s0,.1-.12.17a.32.32,0,0,1-.19.1c-.07,0-.15-.06-.25-.2a.89.89,0,0,1-.14-.53,1,1,0,0,1,.4-.83,1.42,1.42,0,0,1,.89-.31,1.5,1.5,0,0,1,.93.32,1.13,1.13,0,0,1,.41.94,1.66,1.66,0,0,1-.18.75,6.63,6.63,0,0,1-.9,1.08c-.48.48-.86.85-1.15,1.09h2.18l-.2.77h-.16a.59.59,0,0,1,0-.13.22.22,0,0,0,0-.09c0-.07,0-.11,0-.12a1,1,0,0,0-.24,0Z"/><path class="cls-2" d="M81.5,5.57a3.18,3.18,0,0,1,.4-1.71A1.22,1.22,0,0,1,83,3.22,1.24,1.24,0,0,1,84,3.86a3.18,3.18,0,0,1,.4,1.71A3.21,3.21,0,0,1,84,7.28,1.2,1.2,0,0,1,83,7.92a1.22,1.22,0,0,1-1.07-.64A3.18,3.18,0,0,1,81.5,5.57Zm.57,0a4.41,4.41,0,0,0,.23,1.81.76.76,0,0,0,.67.38.69.69,0,0,0,.69-.46,5.06,5.06,0,0,0,.2-1.73,4.09,4.09,0,0,0-.24-1.8.75.75,0,0,0-1.31,0A4.09,4.09,0,0,0,82.07,5.57Z"/><path class="cls-2" d="M85.1,7.81V7.6a8.31,8.31,0,0,0,1-1A6,6,0,0,0,87,5.5a1.94,1.94,0,0,0,.26-1A1.24,1.24,0,0,0,87,3.67a.9.9,0,0,0-.67-.27.73.73,0,0,0-.6.25.84.84,0,0,0-.21.54.61.61,0,0,0,.27.52c.07,0,.11.09.11.11s0,.1-.12.17a.32.32,0,0,1-.19.1c-.07,0-.15-.06-.25-.2a.89.89,0,0,1-.14-.53,1,1,0,0,1,.4-.83,1.42,1.42,0,0,1,.89-.31,1.5,1.5,0,0,1,.93.32,1.13,1.13,0,0,1,.41.94,1.66,1.66,0,0,1-.18.75,6.63,6.63,0,0,1-.9,1.08c-.48.48-.86.85-1.15,1.09h2.18l-.2.77h-.16a.59.59,0,0,1,0-.13.22.22,0,0,0,0-.09c0-.07,0-.11,0-.12a1,1,0,0,0-.24,0Z"/><path class="cls-2" d="M88.5,5.57a3.18,3.18,0,0,1,.4-1.71A1.22,1.22,0,0,1,90,3.22,1.24,1.24,0,0,1,91,3.86a3.18,3.18,0,0,1,.4,1.71A3.21,3.21,0,0,1,91,7.28,1.2,1.2,0,0,1,90,7.92a1.22,1.22,0,0,1-1.07-.64A3.18,3.18,0,0,1,88.5,5.57Zm.57,0a4.41,4.41,0,0,0,.23,1.81.76.76,0,0,0,.67.38.69.69,0,0,0,.69-.46,5.06,5.06,0,0,0,.2-1.73,4.09,4.09,0,0,0-.24-1.8.75.75,0,0,0-1.31,0A4.09,4.09,0,0,0,89.07,5.57Z"/><path class="cls-2" d="M92,6.14h1.68v.52H92Z"/><path class="cls-2" d="M94.19,5.57a3.18,3.18,0,0,1,.4-1.71,1.2,1.2,0,0,1,2.12,0,3.18,3.18,0,0,1,.41,1.71,3.3,3.3,0,0,1-.4,1.71,1.21,1.21,0,0,1-2.13,0A3.18,3.18,0,0,1,94.19,5.57Zm.56,0A4.18,4.18,0,0,0,95,7.38a.75.75,0,0,0,.66.38.69.69,0,0,0,.7-.46,5.06,5.06,0,0,0,.2-1.73,4.09,4.09,0,0,0-.24-1.8.75.75,0,0,0-1.32,0A4.09,4.09,0,0,0,94.75,5.57Z"/><path class="cls-2" d="M99.3,6.27H97.62V6.06l1.95-2.84h.22V6.06h.32a1.06,1.06,0,0,0,.34,0s.09-.12.15-.29h.15l-.08.53h-.88v.58a5.77,5.77,0,0,0,0,.6.19.19,0,0,0,.11.15.71.71,0,0,0,.34.05v.16H98.77V7.65h.12a.54.54,0,0,0,.29-.05.26.26,0,0,0,.11-.16c0-.07,0-.27,0-.59Zm0-.21V3.89L97.81,6.06Z"/><path class="cls-2" d="M101.14,6.14h1.67v.52h-1.67Z"/><path class="cls-2" d="M103.48,7.81V7.6a8.31,8.31,0,0,0,1-1,7,7,0,0,0,.86-1.14,2,2,0,0,0,.26-1,1.2,1.2,0,0,0-.27-.86.9.9,0,0,0-.66-.27.73.73,0,0,0-.6.25.8.8,0,0,0-.22.54.59.59,0,0,0,.28.52c.07,0,.1.09.1.11a.31.31,0,0,1-.11.17.34.34,0,0,1-.2.1c-.06,0-.15-.06-.24-.2a.9.9,0,0,1-.15-.53,1,1,0,0,1,.41-.83,1.42,1.42,0,0,1,.89-.31,1.47,1.47,0,0,1,.92.32,1.11,1.11,0,0,1,.42.94,1.67,1.67,0,0,1-.19.75,5.69,5.69,0,0,1-.9,1.08c-.47.48-.85.85-1.14,1.09h2.17l-.19.77h-.16a.3.3,0,0,1,0-.13s0,0,0-.09,0-.11,0-.12a1,1,0,0,0-.24,0Z"/><path class="cls-2" d="M108.32,5.32a.76.76,0,0,1,.21,0,1,1,0,0,1,.79.35,1.23,1.23,0,0,1,.29.86,1.3,1.3,0,0,1-.43,1,1.52,1.52,0,0,1-1.1.4,1.36,1.36,0,0,1-.77-.2c-.22-.14-.33-.28-.33-.44a.25.25,0,0,1,.06-.17.22.22,0,0,1,.17-.07c.11,0,.2.08.25.24a.6.6,0,0,0,.27.4.76.76,0,0,0,.35.09.88.88,0,0,0,.7-.31,1.54,1.54,0,0,0,.26-1,1.23,1.23,0,0,0-.2-.79.56.56,0,0,0-.47-.26.77.77,0,0,0-.52.28.11.11,0,0,1-.1,0c-.07,0-.1,0-.1-.11a.19.19,0,0,1,0-.1l.3-.22a3.08,3.08,0,0,0,.72-.6,1.1,1.1,0,0,0,.17-.62.77.77,0,0,0-.18-.54.63.63,0,0,0-.48-.2.85.85,0,0,0-.55.2.62.62,0,0,0-.24.5.65.65,0,0,0,.21.46.05.05,0,0,1,0,0s0,.06-.12.09a.34.34,0,0,1-.16,0c-.07,0-.14,0-.2-.16a.67.67,0,0,1-.09-.34.91.91,0,0,1,.33-.69,1.21,1.21,0,0,1,.88-.31,1.25,1.25,0,0,1,.85.26.76.76,0,0,1,.29.57.83.83,0,0,1-.2.53,3.15,3.15,0,0,1-.66.55Z"/><path class="cls-2" d="M180.53,7.81V7.6a8.31,8.31,0,0,0,1-1,7,7,0,0,0,.86-1.14,2,2,0,0,0,.26-1,1.2,1.2,0,0,0-.27-.86.9.9,0,0,0-.66-.27.73.73,0,0,0-.6.25.8.8,0,0,0-.22.54.59.59,0,0,0,.28.52c.07,0,.1.09.1.11a.31.31,0,0,1-.11.17.34.34,0,0,1-.2.1c-.06,0-.15-.06-.24-.2a.9.9,0,0,1-.15-.53,1,1,0,0,1,.41-.83,1.42,1.42,0,0,1,.89-.31,1.47,1.47,0,0,1,.92.32,1.11,1.11,0,0,1,.42.94,1.67,1.67,0,0,1-.19.75,5.69,5.69,0,0,1-.9,1.08c-.47.48-.85.85-1.14,1.09h2.17l-.19.77h-.16a.3.3,0,0,1,0-.13s0,0,0-.09,0-.11-.05-.12a1,1,0,0,0-.24,0Z"/><path class="cls-2" d="M183.92,5.57a3.18,3.18,0,0,1,.41-1.71,1.2,1.2,0,0,1,1.06-.64,1.22,1.22,0,0,1,1.06.64,3.18,3.18,0,0,1,.41,1.71,3.21,3.21,0,0,1-.41,1.71,1.2,1.2,0,0,1-2.12,0A3.18,3.18,0,0,1,183.92,5.57Zm.57,0a4.18,4.18,0,0,0,.24,1.81.75.75,0,0,0,.66.38.7.7,0,0,0,.7-.46,5.06,5.06,0,0,0,.2-1.73,4.09,4.09,0,0,0-.24-1.8.75.75,0,0,0-1.32,0A4.09,4.09,0,0,0,184.49,5.57Z"/><path class="cls-2" d="M187.53,7.81V7.6a8.31,8.31,0,0,0,1-1,7,7,0,0,0,.86-1.14,2,2,0,0,0,.26-1,1.2,1.2,0,0,0-.27-.86.9.9,0,0,0-.66-.27.73.73,0,0,0-.6.25.8.8,0,0,0-.22.54.59.59,0,0,0,.28.52c.07,0,.1.09.1.11a.31.31,0,0,1-.11.17.34.34,0,0,1-.2.1c-.06,0-.15-.06-.24-.2a.9.9,0,0,1-.15-.53,1,1,0,0,1,.41-.83,1.42,1.42,0,0,1,.89-.31,1.47,1.47,0,0,1,.92.32,1.11,1.11,0,0,1,.42.94,1.67,1.67,0,0,1-.19.75,5.69,5.69,0,0,1-.9,1.08c-.47.48-.85.85-1.14,1.09h2.17l-.19.77h-.16a.3.3,0,0,1,0-.13s0,0,0-.09,0-.11-.05-.12a1,1,0,0,0-.24,0Z"/><path class="cls-2" d="M190.92,5.57a3.18,3.18,0,0,1,.41-1.71,1.2,1.2,0,0,1,1.06-.64,1.22,1.22,0,0,1,1.06.64,3.18,3.18,0,0,1,.41,1.71,3.21,3.21,0,0,1-.41,1.71,1.2,1.2,0,0,1-2.12,0A3.18,3.18,0,0,1,190.92,5.57Zm.57,0a4.18,4.18,0,0,0,.24,1.81.75.75,0,0,0,.66.38.7.7,0,0,0,.7-.46,5.06,5.06,0,0,0,.2-1.73,4.09,4.09,0,0,0-.24-1.8.75.75,0,0,0-1.32,0A4.09,4.09,0,0,0,191.49,5.57Z"/><path class="cls-2" d="M194.37,6.14h1.68v.52h-1.68Z"/><path class="cls-2" d="M196.61,5.57A3.18,3.18,0,0,1,197,3.86a1.2,1.2,0,0,1,1.06-.64,1.22,1.22,0,0,1,1.06.64,3.18,3.18,0,0,1,.4,1.71,3.21,3.21,0,0,1-.4,1.71,1.2,1.2,0,0,1-2.12,0A3.18,3.18,0,0,1,196.61,5.57Zm.57,0a4.18,4.18,0,0,0,.24,1.81.75.75,0,0,0,.66.38.71.71,0,0,0,.7-.46A5.13,5.13,0,0,0,199,5.57a4.31,4.31,0,0,0-.23-1.8.75.75,0,0,0-1.32,0A4.09,4.09,0,0,0,197.18,5.57Z"/><path class="cls-2" d="M201.73,6.27h-1.68V6.06L202,3.22h.22V6.06h.31a1.09,1.09,0,0,0,.35,0,.94.94,0,0,0,.15-.29h.15l-.08.53h-.88v.58a3.76,3.76,0,0,0,0,.6.19.19,0,0,0,.11.15.68.68,0,0,0,.34.05v.16H201.2V7.65h.11a.58.58,0,0,0,.3-.05.21.21,0,0,0,.1-.16,5.66,5.66,0,0,0,0-.59Zm0-.21V3.89l-1.49,2.17Z"/><path class="cls-2" d="M203.56,6.14h1.68v.52h-1.68Z"/><path class="cls-2" d="M205.91,7.81V7.6a9.24,9.24,0,0,0,1-1,6,6,0,0,0,.86-1.14,1.94,1.94,0,0,0,.26-1,1.2,1.2,0,0,0-.26-.86.9.9,0,0,0-.67-.27.73.73,0,0,0-.6.25.84.84,0,0,0-.21.54.61.61,0,0,0,.27.52c.07,0,.11.09.11.11s0,.1-.12.17a.32.32,0,0,1-.19.1c-.07,0-.15-.06-.25-.2a.89.89,0,0,1-.14-.53,1,1,0,0,1,.4-.83,1.42,1.42,0,0,1,.89-.31,1.5,1.5,0,0,1,.93.32,1.13,1.13,0,0,1,.41.94,1.66,1.66,0,0,1-.18.75,6.63,6.63,0,0,1-.9,1.08c-.48.48-.86.85-1.15,1.09h2.18l-.2.77h-.16a.59.59,0,0,1,0-.13.22.22,0,0,0,0-.09c0-.07,0-.11,0-.12a1,1,0,0,0-.24,0Z"/><path class="cls-2" d="M210.92,6.27h-1.69V6.06l2-2.84h.21V6.06h.32a1,1,0,0,0,.34,0s.09-.12.15-.29h.16l-.08.53h-.89v.58a5.77,5.77,0,0,0,0,.6.22.22,0,0,0,.11.15.76.76,0,0,0,.35.05v.16h-1.5V7.65h.12a.52.52,0,0,0,.29-.05.23.23,0,0,0,.11-.16,5.66,5.66,0,0,0,0-.59Zm0-.21V3.89l-1.49,2.17Z"/><path class="cls-2" d="M283,7.81V7.6a8.37,8.37,0,0,0,1-1,6,6,0,0,0,.86-1.14,1.94,1.94,0,0,0,.26-1,1.2,1.2,0,0,0-.26-.86.9.9,0,0,0-.67-.27.73.73,0,0,0-.6.25.84.84,0,0,0-.21.54.61.61,0,0,0,.27.52c.07,0,.11.09.11.11s0,.1-.12.17a.32.32,0,0,1-.19.1c-.07,0-.15-.06-.25-.2a.89.89,0,0,1-.14-.53,1,1,0,0,1,.4-.83,1.43,1.43,0,0,1,.9-.31,1.47,1.47,0,0,1,.92.32,1.13,1.13,0,0,1,.41.94,1.66,1.66,0,0,1-.18.75,6.12,6.12,0,0,1-.9,1.08c-.47.48-.86.85-1.15,1.09h2.18l-.2.77h-.16a.59.59,0,0,1,0-.13.22.22,0,0,0,0-.09c0-.07,0-.11,0-.12a1,1,0,0,0-.24,0Z"/><path class="cls-2" d="M286.35,5.57a3.18,3.18,0,0,1,.4-1.71,1.22,1.22,0,0,1,1.07-.64,1.24,1.24,0,0,1,1.06.64,3.18,3.18,0,0,1,.4,1.71,3.21,3.21,0,0,1-.4,1.71,1.2,1.2,0,0,1-1.06.64,1.22,1.22,0,0,1-1.07-.64A3.18,3.18,0,0,1,286.35,5.57Zm.57,0a4.41,4.41,0,0,0,.23,1.81.76.76,0,0,0,.67.38.69.69,0,0,0,.69-.46,4.82,4.82,0,0,0,.2-1.73,4.09,4.09,0,0,0-.24-1.8.71.71,0,0,0-.65-.39.74.74,0,0,0-.66.39A4.09,4.09,0,0,0,286.92,5.57Z"/><path class="cls-2" d="M290,7.81V7.6a8.37,8.37,0,0,0,1-1,6,6,0,0,0,.86-1.14,1.94,1.94,0,0,0,.26-1,1.2,1.2,0,0,0-.26-.86.9.9,0,0,0-.67-.27.73.73,0,0,0-.6.25.84.84,0,0,0-.21.54.61.61,0,0,0,.27.52c.07,0,.11.09.11.11s0,.1-.12.17a.32.32,0,0,1-.19.1c-.07,0-.15-.06-.25-.2a.89.89,0,0,1-.14-.53,1,1,0,0,1,.4-.83,1.43,1.43,0,0,1,.9-.31,1.47,1.47,0,0,1,.92.32,1.13,1.13,0,0,1,.41.94,1.66,1.66,0,0,1-.18.75,6.12,6.12,0,0,1-.9,1.08c-.47.48-.86.85-1.15,1.09h2.18l-.2.77h-.16a.59.59,0,0,1,0-.13.22.22,0,0,0,0-.09c0-.07,0-.11,0-.12a1,1,0,0,0-.24,0Z"/><path class="cls-2" d="M293.35,5.57a3.18,3.18,0,0,1,.4-1.71,1.22,1.22,0,0,1,1.07-.64,1.24,1.24,0,0,1,1.06.64,3.18,3.18,0,0,1,.4,1.71,3.21,3.21,0,0,1-.4,1.71,1.2,1.2,0,0,1-1.06.64,1.22,1.22,0,0,1-1.07-.64A3.18,3.18,0,0,1,293.35,5.57Zm.57,0a4.41,4.41,0,0,0,.23,1.81.76.76,0,0,0,.67.38.69.69,0,0,0,.69-.46,4.82,4.82,0,0,0,.2-1.73,4.09,4.09,0,0,0-.24-1.8.71.71,0,0,0-.65-.39.74.74,0,0,0-.66.39A4.09,4.09,0,0,0,293.92,5.57Z"/><path class="cls-2" d="M296.8,6.14h1.68v.52H296.8Z"/><path class="cls-2" d="M299,5.57a3.18,3.18,0,0,1,.4-1.71,1.2,1.2,0,0,1,2.12,0A3.18,3.18,0,0,1,302,5.57a3.21,3.21,0,0,1-.4,1.71,1.21,1.21,0,0,1-2.13,0A3.18,3.18,0,0,1,299,5.57Zm.56,0a4.18,4.18,0,0,0,.24,1.81.75.75,0,0,0,.66.38.69.69,0,0,0,.7-.46,5.06,5.06,0,0,0,.2-1.73,4.09,4.09,0,0,0-.24-1.8.75.75,0,0,0-1.32,0A4.09,4.09,0,0,0,299.6,5.57Z"/><path class="cls-2" d="M304.15,6.27h-1.68V6.06l1.95-2.84h.22V6.06H305a1,1,0,0,0,.34,0s.09-.12.15-.29h.15l-.08.53h-.88v.58a5.77,5.77,0,0,0,0,.6.19.19,0,0,0,.11.15.71.71,0,0,0,.34.05v.16h-1.49V7.65h.12A.54.54,0,0,0,304,7.6a.23.23,0,0,0,.11-.16c0-.07,0-.27,0-.59Zm0-.21V3.89l-1.49,2.17Z"/><path class="cls-2" d="M306,6.14h1.67v.52H306Z"/><path class="cls-2" d="M308.33,7.81V7.6a8.31,8.31,0,0,0,1-1,7,7,0,0,0,.86-1.14,2,2,0,0,0,.26-1,1.2,1.2,0,0,0-.27-.86.9.9,0,0,0-.66-.27.73.73,0,0,0-.6.25.8.8,0,0,0-.22.54.62.62,0,0,0,.28.52c.07,0,.1.09.1.11A.31.31,0,0,1,309,5a.34.34,0,0,1-.2.1c-.06,0-.15-.06-.24-.2a.9.9,0,0,1-.15-.53,1,1,0,0,1,.41-.83,1.42,1.42,0,0,1,.89-.31,1.47,1.47,0,0,1,.92.32,1.11,1.11,0,0,1,.42.94,1.55,1.55,0,0,1-.19.75,5.69,5.69,0,0,1-.9,1.08c-.47.48-.85.85-1.14,1.09H311l-.19.77h-.16a.3.3,0,0,1,0-.13s0,0,0-.09,0-.11-.05-.12a1,1,0,0,0-.24,0Z"/><path class="cls-2" d="M312.35,5.46h-.18l.1-2.13h1.78a1.19,1.19,0,0,1-.22.4.33.33,0,0,1-.23.06h-1.2l0,1.41a1,1,0,0,1,.85-.44,1.16,1.16,0,0,1,.91.43,1.55,1.55,0,0,1,.38,1.06,1.76,1.76,0,0,1-.43,1.2,1.5,1.5,0,0,1-1.19.47,1.28,1.28,0,0,1-.83-.24q-.3-.25-.3-.45a.25.25,0,0,1,.06-.16A.23.23,0,0,1,312,7a.21.21,0,0,1,.17.06,1,1,0,0,1,.14.28.6.6,0,0,0,.61.42.92.92,0,0,0,.74-.35,1.73,1.73,0,0,0,.3-1.14,1.59,1.59,0,0,0-.25-1,.73.73,0,0,0-.58-.3A.83.83,0,0,0,312.35,5.46Z"/><path class="cls-2" d="M3,19l.88,0,1.46-.05a3.87,3.87,0,0,1,1.84.36,2.38,2.38,0,0,1,1,1,3.29,3.29,0,0,1,.14,2.49,2.14,2.14,0,0,1-.48.8,2,2,0,0,1-.71.48,3.07,3.07,0,0,1-.77.21,9,9,0,0,1-1,0H3v-.18h.22A.88.88,0,0,0,3.64,24a.38.38,0,0,0,.17-.26,6.48,6.48,0,0,0,0-.85V20.32a5.9,5.9,0,0,0,0-.82.38.38,0,0,0-.16-.26,1.33,1.33,0,0,0-.52-.07H3Zm1.64.11v3.54a10,10,0,0,0,0,1,.39.39,0,0,0,.17.32,1.36,1.36,0,0,0,.62.1,3.08,3.08,0,0,0,1.14-.19,1.58,1.58,0,0,0,.74-.75,3,3,0,0,0,.3-1.42,4,4,0,0,0-.17-1.2,2.2,2.2,0,0,0-.5-.86,1.74,1.74,0,0,0-.72-.45,3.53,3.53,0,0,0-1-.12Z"/><path class="cls-2" d="M12.39,23.66h.15c0,.45-.25.67-.66.67a.61.61,0,0,1-.42-.14.69.69,0,0,1-.2-.42,3.73,3.73,0,0,1-.71.42,1.57,1.57,0,0,1-.58.14.85.85,0,0,1-.56-.19.61.61,0,0,1-.23-.49.88.88,0,0,1,.39-.71,4.81,4.81,0,0,1,1.08-.58l.61-.25V22a1.79,1.79,0,0,0,0-.48.53.53,0,0,0-.23-.27.82.82,0,0,0-.47-.12c-.39,0-.61.13-.65.39s-.15.4-.33.4-.24-.07-.24-.23.11-.3.32-.47a1.55,1.55,0,0,1,1-.26,1.5,1.5,0,0,1,.77.16.72.72,0,0,1,.36.35,1.6,1.6,0,0,1,.09.61v1.29a2.24,2.24,0,0,0,0,.59.2.2,0,0,0,.2.13C12.24,24.05,12.35,23.92,12.39,23.66ZM11.26,22.3l-.43.17c-.67.27-1,.61-1,1a.63.63,0,0,0,.12.4.43.43,0,0,0,.34.15.91.91,0,0,0,.43-.13,3.15,3.15,0,0,0,.54-.36Z"/><path class="cls-2" d="M13.91,20.92v2.23c0,.34,0,.56,0,.65A.28.28,0,0,0,14,24a.57.57,0,0,0,.34.07h.09v.18H12.74v-.18h.14a.59.59,0,0,0,.36-.08.35.35,0,0,0,.1-.19c0-.08,0-.29,0-.65v-1a2.9,2.9,0,0,0,0-.69.29.29,0,0,0-.14-.15,1.09,1.09,0,0,0-.31,0h-.11v-.18a4.88,4.88,0,0,0,1.08-.21Zm-.76-1.63a.41.41,0,0,1,.7-.29.44.44,0,0,1,0,.58.41.41,0,0,1-.7-.29Z"/><path class="cls-2" d="M15.85,18.88v4.27c0,.34,0,.56,0,.65A.31.31,0,0,0,16,24a.61.61,0,0,0,.35.07h.09v.18H14.7v-.18h.11a.54.54,0,0,0,.33-.07.23.23,0,0,0,.12-.18,4.69,4.69,0,0,0,0-.67V20a1.38,1.38,0,0,0-.09-.64c-.06-.09-.2-.13-.43-.13V19a4.42,4.42,0,0,0,.56-.05,3,3,0,0,0,.44-.11Z"/><path class="cls-2" d="M18.61,23.64l.74-1.77a2.47,2.47,0,0,0,.16-.44c0-.13-.14-.2-.43-.2v-.18H20.2v.18a.53.53,0,0,0-.38.14,2,2,0,0,0-.3.56L18.1,25.37a2.9,2.9,0,0,1-.36.67.47.47,0,0,1-.35.18c-.17,0-.25-.08-.25-.23s.13-.33.4-.45a1.18,1.18,0,0,0,.32-.18.66.66,0,0,0,.16-.27l.31-.76-1.21-2.58a1.29,1.29,0,0,0-.26-.43.56.56,0,0,0-.36-.09v-.18H18v.18c-.26,0-.39.06-.39.16a1.59,1.59,0,0,0,.15.38Z"/><path class="cls-2" d="M28,24.25H26.6a6.22,6.22,0,0,1-1.16-1.39c-.17-.24-.34-.47-.52-.69a2.12,2.12,0,0,0-.38-.4.5.5,0,0,0-.31-.08H24v1.18a6.83,6.83,0,0,0,0,.82.45.45,0,0,0,.15.29.94.94,0,0,0,.49.09h.25v.18H22.41v-.18h.17a.88.88,0,0,0,.47-.09.38.38,0,0,0,.17-.26,7.23,7.23,0,0,0,0-.85v-2.6a6.51,6.51,0,0,0,0-.81.38.38,0,0,0-.16-.26,1.16,1.16,0,0,0-.52-.07h-.09V19l.75,0,1.21,0a4.25,4.25,0,0,1,1.23.14,1.66,1.66,0,0,1,.77.46,1.11,1.11,0,0,1,.29.76,1.19,1.19,0,0,1-.38.89,1.9,1.9,0,0,1-1.13.46,4.32,4.32,0,0,1,1.07,1.15,5.11,5.11,0,0,0,.95,1.06,1.4,1.4,0,0,0,.81.27Zm-4-2.74.6,0a2.18,2.18,0,0,0,.55-.09.88.88,0,0,0,.37-.2,1,1,0,0,0,.22-.35,1.45,1.45,0,0,0,.09-.54,1.4,1.4,0,0,0-.28-.9,1.63,1.63,0,0,0-1.22-.33H24Z"/><path class="cls-2" d="M29.33,20.92v2.23c0,.34,0,.56,0,.65a.31.31,0,0,0,.11.2.63.63,0,0,0,.35.07h.08v.18H28.16v-.18h.13a.61.61,0,0,0,.37-.08.34.34,0,0,0,.09-.19c0-.08,0-.29,0-.65v-1a2.29,2.29,0,0,0-.06-.69.23.23,0,0,0-.14-.15,1,1,0,0,0-.3,0h-.11v-.18a4.88,4.88,0,0,0,1.08-.21Zm-.76-1.63a.41.41,0,0,1,.41-.41.36.36,0,0,1,.28.12.41.41,0,0,1,0,.58.36.36,0,0,1-.28.12.41.41,0,0,1-.41-.41Z"/><path class="cls-2" d="M30.36,24.35V23.3h.15c.18.61.5.91.95.91a.55.55,0,0,0,.45-.18.64.64,0,0,0,.14-.39.56.56,0,0,0-.15-.41,2.58,2.58,0,0,0-.62-.39,2.4,2.4,0,0,1-.7-.47.79.79,0,0,1-.21-.56,1,1,0,0,1,.23-.6.76.76,0,0,1,.63-.29.83.83,0,0,1,.69.34,1.14,1.14,0,0,0,.16-.28h.14v1h-.14a1.47,1.47,0,0,0-.31-.61.67.67,0,0,0-.53-.25.48.48,0,0,0-.37.14.47.47,0,0,0,0,.7,2.49,2.49,0,0,0,.6.36,1.7,1.7,0,0,1,.81.58,1.21,1.21,0,0,1,.15.56.88.88,0,0,1-.28.68,1,1,0,0,1-.69.26,1,1,0,0,1-.78-.37,1,1,0,0,0-.18.34Z"/><path class="cls-2" d="M34.82,21.05h1.29v.18a1.72,1.72,0,0,0-1,.53c-.12.11-.32.27-.59.48l1.14,1.34a1.94,1.94,0,0,0,.41.39.71.71,0,0,0,.3.1v.18H34.82v-.18c.26,0,.4-.06.4-.17s-.09-.18-.27-.38l-.82-.95-.16.12v.46c0,.34,0,.56,0,.64a.31.31,0,0,0,.11.21.59.59,0,0,0,.34.07v.18H32.81v-.18h.12A.61.61,0,0,0,33.3,24a.34.34,0,0,0,.09-.19c0-.08,0-.29,0-.65V19.94a1.41,1.41,0,0,0-.08-.59c-.06-.09-.2-.13-.43-.13V19a4.27,4.27,0,0,0,.56-.05,2.49,2.49,0,0,0,.43-.11H34v3.6l.33-.24c.55-.38.82-.66.82-.83s-.1-.18-.3-.18Z"/><path class="cls-2" d="M9.2,31.9h-2l-.14.33a3.74,3.74,0,0,0-.31,1,.45.45,0,0,0,.17.37.65.65,0,0,0,.41.12v.18H5.75v-.18a.85.85,0,0,0,.52-.25,3.14,3.14,0,0,0,.42-.81s.07-.19.18-.46l1.54-3.67h.15l1.77,4.2.25.56a.64.64,0,0,0,.22.29.74.74,0,0,0,.41.14v.18H9.13v-.18a1.47,1.47,0,0,0,.52-.06.21.21,0,0,0,.13-.22,2.16,2.16,0,0,0-.18-.51Zm-.07-.18-.94-2.26-.93,2.26Z"/><path class="cls-2" d="M14.22,33.07h.17a1.23,1.23,0,0,1-1.33.91,1.59,1.59,0,0,1-1.15-.47,1.66,1.66,0,0,1-.46-1.23A1.7,1.7,0,0,1,12,31a1.64,1.64,0,0,1,1.19-.49,1.61,1.61,0,0,1,.76.18c.24.12.35.27.35.45a.32.32,0,0,1-.06.18.23.23,0,0,1-.19.09c-.17,0-.28-.1-.31-.31a.6.6,0,0,0-.15-.31.62.62,0,0,0-.39-.09.92.92,0,0,0-.79.36,1.84,1.84,0,0,0-.26,1.1,2.07,2.07,0,0,0,.28,1.17,1,1,0,0,0,.86.43A.92.92,0,0,0,14.22,33.07Z"/><path class="cls-2" d="M17.64,33.07h.17a1.24,1.24,0,0,1-1.33.91,1.58,1.58,0,0,1-1.15-.47,1.87,1.87,0,0,1,0-2.5,1.69,1.69,0,0,1,2-.31c.23.12.35.27.35.45a.32.32,0,0,1-.06.18.23.23,0,0,1-.19.09c-.17,0-.28-.1-.32-.31A.6.6,0,0,0,17,30.8a.63.63,0,0,0-.4-.09.9.9,0,0,0-.78.36,1.84,1.84,0,0,0-.27,1.1,2.06,2.06,0,0,0,.29,1.17.94.94,0,0,0,.85.43A.93.93,0,0,0,17.64,33.07Z"/><path class="cls-2" d="M18.29,32.24A1.69,1.69,0,0,1,20,30.52a1.69,1.69,0,0,1,1.7,1.72,1.61,1.61,0,0,1-.5,1.27A1.69,1.69,0,0,1,20,34a1.72,1.72,0,0,1-1.21-.47A1.69,1.69,0,0,1,18.29,32.24Zm.65,0a2,2,0,0,0,.28,1.2,1,1,0,0,0,.78.34,1,1,0,0,0,.78-.34,2,2,0,0,0,.27-1.2,2,2,0,0,0-.27-1.2A.92.92,0,0,0,20,30.7a1,1,0,0,0-.79.36A2,2,0,0,0,18.94,32.26Z"/><path class="cls-2" d="M25.47,30.65v2.1c0,.35,0,.57,0,.65a.25.25,0,0,0,.12.2.59.59,0,0,0,.35.07v.18a2.5,2.5,0,0,0-.86.12h-.05a1.6,1.6,0,0,1-.13-.74,1.64,1.64,0,0,1-.55.56,1.22,1.22,0,0,1-.68.19,1,1,0,0,1-.56-.15.78.78,0,0,1-.34-.36,1.68,1.68,0,0,1-.09-.63V31.75c0-.37,0-.6,0-.68a.27.27,0,0,0-.13-.18.79.79,0,0,0-.38-.06v-.18h1.09v2.22a1.75,1.75,0,0,0,0,.47.45.45,0,0,0,.2.26.61.61,0,0,0,.37.12,1,1,0,0,0,.57-.2,1.06,1.06,0,0,0,.38-.42,1.72,1.72,0,0,0,.1-.63v-.72c0-.35,0-.56,0-.64a.28.28,0,0,0-.1-.2.57.57,0,0,0-.36-.08h-.08v-.18Z"/><path class="cls-2" d="M27.27,30.52h.1a1.91,1.91,0,0,1,.1.66,2.21,2.21,0,0,1,.59-.5,1.52,1.52,0,0,1,.65-.16,1.14,1.14,0,0,1,.63.16.76.76,0,0,1,.31.39,2.39,2.39,0,0,1,.07.68v1c0,.37,0,.6,0,.68a.23.23,0,0,0,.12.18.85.85,0,0,0,.38.06v.18H28.61v-.18h.07a.61.61,0,0,0,.37-.08.32.32,0,0,0,.1-.19c0-.08,0-.29,0-.65v-1a2.35,2.35,0,0,0,0-.54.5.5,0,0,0-.2-.29.66.66,0,0,0-.41-.12,1,1,0,0,0-.55.17,1.85,1.85,0,0,0-.49.51v1.3a4.24,4.24,0,0,0,0,.68.23.23,0,0,0,.12.18.87.87,0,0,0,.39.06v.18H26.39v-.18a.8.8,0,0,0,.37-.06.21.21,0,0,0,.13-.16,4.39,4.39,0,0,0,0-.7V31.8c0-.37,0-.6,0-.68a.27.27,0,0,0-.13-.18.82.82,0,0,0-.38-.06V30.7A4.75,4.75,0,0,0,27.27,30.52Z"/><path class="cls-2" d="M32.61,30.83h-1v1.93a2.63,2.63,0,0,0,0,.6.39.39,0,0,0,.16.25.48.48,0,0,0,.27.09.57.57,0,0,0,.49-.32l.13.08a.85.85,0,0,1-.36.39,1.08,1.08,0,0,1-.48.13.77.77,0,0,1-.49-.17.68.68,0,0,1-.27-.39,4.43,4.43,0,0,1-.05-.78V30.83h-.47v-.18a.85.85,0,0,0,.58-.27,1.3,1.3,0,0,0,.32-.73h.13v1h1Z"/><path class="cls-2" d="M33.07,34V32.9h.15c.18.61.5.91,1,.91a.55.55,0,0,0,.45-.18.64.64,0,0,0,.14-.39.56.56,0,0,0-.15-.41,2.58,2.58,0,0,0-.62-.39,2.4,2.4,0,0,1-.7-.47.79.79,0,0,1-.21-.56,1,1,0,0,1,.23-.6.76.76,0,0,1,.63-.29.83.83,0,0,1,.69.34,1.14,1.14,0,0,0,.16-.28h.14v1h-.14a1.36,1.36,0,0,0-.31-.61A.67.67,0,0,0,34,30.7a.48.48,0,0,0-.37.14.46.46,0,0,0-.15.34.5.5,0,0,0,.16.36,2.71,2.71,0,0,0,.6.36,1.7,1.7,0,0,1,.81.58,1.21,1.21,0,0,1,.15.56.88.88,0,0,1-.28.68,1,1,0,0,1-.69.26,1,1,0,0,1-.78-.37,1,1,0,0,0-.18.34Z"/><line class="cls-3" x1="133.43" y1="112.89" x2="156.26" y2="112.89"/><polyline class="cls-4" points="153.97 115.57 156.77 112.78 153.9 109.91"/><line class="cls-3" x1="156.77" y1="125.47" x2="133.93" y2="125.47"/><polyline class="cls-4" points="136.22 122.79 133.43 125.58 136.3 128.45"/><line class="cls-3" x1="235.22" y1="112.89" x2="258.05" y2="112.89"/><polyline class="cls-4" points="255.76 115.57 258.56 112.78 255.69 109.91"/><line class="cls-3" x1="258.56" y1="125.47" x2="235.72" y2="125.47"/><polyline class="cls-4" points="238.01 122.79 235.22 125.58 238.09 128.45"/><line class="cls-3" x1="133.43" y1="189.17" x2="156.26" y2="189.17"/><polyline class="cls-4" points="153.97 191.85 156.77 189.05 153.9 186.18"/><line class="cls-3" x1="156.77" y1="201.75" x2="133.93" y2="201.75"/><polyline class="cls-4" points="136.22 199.06 133.43 201.86 136.3 204.73"/><line class="cls-3" x1="235.22" y1="189.17" x2="258.05" y2="189.17"/><polyline class="cls-4" points="255.76 191.85 258.56 189.05 255.69 186.18"/><line class="cls-3" x1="258.56" y1="201.75" x2="235.72" y2="201.75"/><polyline class="cls-4" points="238.01 199.06 235.22 201.86 238.09 204.73"/><polygon class="cls-1" points="118.54 41.12 62.01 41.12 71.19 11.22 127.72 11.22 118.54 41.12"/><polygon class="cls-1" points="221.26 41.12 164.72 41.12 173.9 11.22 230.43 11.22 221.26 41.12"/><polygon class="cls-1" points="322.42 41.12 265.89 41.12 275.06 11.22 331.6 11.22 322.42 41.12"/><path class="cls-2" d="M97.81,30.2h-2.5a11.21,11.21,0,0,1-2-2.43c-.29-.42-.59-.82-.91-1.21a4.35,4.35,0,0,0-.65-.7.91.91,0,0,0-.55-.13H90.8v2.06a13.27,13.27,0,0,0,0,1.43.73.73,0,0,0,.27.5,1.54,1.54,0,0,0,.85.17h.45v.31H88v-.31h.3a1.65,1.65,0,0,0,.83-.15.7.7,0,0,0,.29-.47,10.76,10.76,0,0,0,.06-1.48V23.24a10.08,10.08,0,0,0-.06-1.42.59.59,0,0,0-.28-.45,2.17,2.17,0,0,0-.91-.12h-.16v-.32l1.33-.07q1.32-.06,2.1-.06a7.9,7.9,0,0,1,2.16.25,2.81,2.81,0,0,1,1.34.81,1.92,1.92,0,0,1,.52,1.34,2.1,2.1,0,0,1-.67,1.55,3.4,3.4,0,0,1-2,.8,7.47,7.47,0,0,1,1.87,2,9.43,9.43,0,0,0,1.65,1.85,2.5,2.5,0,0,0,1.43.47Zm-7-4.78,1.06,0a4.2,4.2,0,0,0,1-.15,1.75,1.75,0,0,0,.65-.36,1.57,1.57,0,0,0,.39-.62,2.61,2.61,0,0,0,.15-.94,2.34,2.34,0,0,0-.49-1.57,2.8,2.8,0,0,0-2.13-.59l-.58,0Z"/><path class="cls-2" d="M100,28h.17v4.15c0,.34,0,.55,0,.64a.27.27,0,0,0,.11.2.63.63,0,0,0,.35.07h.15v.18H99V33h.13a.53.53,0,0,0,.36-.08.27.27,0,0,0,.1-.19c0-.07,0-.29,0-.64V29.32c0-.35,0-.56,0-.63a.32.32,0,0,0-.1-.2.53.53,0,0,0-.36-.08H99v-.18A1.68,1.68,0,0,0,100,28Z"/><path class="cls-2" d="M200.23,30.2h-2.49a10.93,10.93,0,0,1-2-2.43c-.3-.42-.6-.82-.91-1.21a4.88,4.88,0,0,0-.65-.7,1,1,0,0,0-.56-.13h-.37v2.06a10.36,10.36,0,0,0,.06,1.43.69.69,0,0,0,.27.5,1.52,1.52,0,0,0,.85.17h.45v.31h-4.44v-.31h.3a1.58,1.58,0,0,0,.82-.15.66.66,0,0,0,.29-.47,10.16,10.16,0,0,0,.07-1.48V23.24a9.53,9.53,0,0,0-.07-1.42.61.61,0,0,0-.27-.45,2.22,2.22,0,0,0-.92-.12h-.15v-.32l1.32-.07c.89,0,1.59-.06,2.11-.06a8,8,0,0,1,2.16.25,2.81,2.81,0,0,1,1.34.81,1.92,1.92,0,0,1,.51,1.34,2.07,2.07,0,0,1-.67,1.55,3.37,3.37,0,0,1-2,.8,7.45,7.45,0,0,1,1.88,2,9.43,9.43,0,0,0,1.65,1.85,2.44,2.44,0,0,0,1.42.47Zm-7-4.78,1.06,0a4,4,0,0,0,.95-.15,1.89,1.89,0,0,0,.66-.36,1.83,1.83,0,0,0,.39-.62,2.62,2.62,0,0,0,.14-.94,2.39,2.39,0,0,0-.48-1.57,2.8,2.8,0,0,0-2.13-.59l-.59,0Z"/><path class="cls-2" d="M200.72,33.2V33a10,10,0,0,0,1.12-1.1,7.33,7.33,0,0,0,1-1.3,2.25,2.25,0,0,0,.3-1.1,1.4,1.4,0,0,0-.31-1,1,1,0,0,0-.76-.31.88.88,0,0,0-.69.29,1,1,0,0,0-.24.62.69.69,0,0,0,.32.59c.07.05.11.1.11.12a.32.32,0,0,1-.13.2.37.37,0,0,1-.22.12c-.08,0-.17-.08-.28-.24a1,1,0,0,1-.17-.61,1.12,1.12,0,0,1,.47-.94,1.62,1.62,0,0,1,1-.35,1.67,1.67,0,0,1,1.05.36,1.26,1.26,0,0,1,.47,1.08,1.81,1.81,0,0,1-.21.85,6.57,6.57,0,0,1-1,1.24,18,18,0,0,1-1.31,1.24h2.48l-.22.88h-.18a.34.34,0,0,1,0-.14.34.34,0,0,0,0-.11c0-.08,0-.12-.05-.14a1.16,1.16,0,0,0-.27,0Z"/><path class="cls-2" d="M302.66,30.2h-2.5a11.21,11.21,0,0,1-2-2.43c-.29-.42-.59-.82-.91-1.21a4.35,4.35,0,0,0-.65-.7.91.91,0,0,0-.55-.13h-.37v2.06a13.27,13.27,0,0,0,.05,1.43.77.77,0,0,0,.27.5,1.56,1.56,0,0,0,.86.17h.44v.31h-4.44v-.31h.3a1.62,1.62,0,0,0,.83-.15.7.7,0,0,0,.29-.47,10.76,10.76,0,0,0,.06-1.48V23.24a10.08,10.08,0,0,0-.06-1.42.61.61,0,0,0-.27-.45,2.26,2.26,0,0,0-.92-.12h-.16v-.32l1.33-.07q1.32-.06,2.1-.06a7.9,7.9,0,0,1,2.16.25,2.81,2.81,0,0,1,1.34.81,1.88,1.88,0,0,1,.52,1.34,2.1,2.1,0,0,1-.67,1.55,3.4,3.4,0,0,1-2,.8,7.31,7.31,0,0,1,1.87,2,9.09,9.09,0,0,0,1.66,1.85,2.44,2.44,0,0,0,1.42.47Zm-7-4.78,1.06,0a4.2,4.2,0,0,0,1-.15,1.75,1.75,0,0,0,.65-.36,1.7,1.7,0,0,0,.4-.62,2.86,2.86,0,0,0,.14-.94,2.34,2.34,0,0,0-.49-1.57,2.77,2.77,0,0,0-2.13-.59l-.58,0Z"/><path class="cls-2" d="M304.67,30.36a1,1,0,0,1,.24,0,1.1,1.1,0,0,1,.91.4,1.47,1.47,0,0,1,.33,1,1.5,1.5,0,0,1-.49,1.17,1.73,1.73,0,0,1-1.26.46,1.65,1.65,0,0,1-.88-.23c-.25-.16-.37-.33-.37-.51a.26.26,0,0,1,.07-.19.22.22,0,0,1,.18-.08c.13,0,.23.09.29.28a.7.7,0,0,0,.31.45.83.83,0,0,0,.4.11,1,1,0,0,0,.79-.36,1.65,1.65,0,0,0,.31-1.11,1.5,1.5,0,0,0-.23-.91.68.68,0,0,0-.54-.29.87.87,0,0,0-.59.33.16.16,0,0,1-.12.05c-.07,0-.11,0-.11-.12a.17.17,0,0,1,.06-.12,3.29,3.29,0,0,1,.34-.25,3.81,3.81,0,0,0,.82-.69,1.2,1.2,0,0,0,.2-.7.89.89,0,0,0-.21-.63.75.75,0,0,0-.55-.22,1,1,0,0,0-.63.23.71.71,0,0,0-.27.57.72.72,0,0,0,.24.52s0,0,0,.05,0,.07-.13.11a.55.55,0,0,1-.19.06c-.08,0-.15-.07-.22-.19a.77.77,0,0,1-.11-.4,1,1,0,0,1,.37-.78,1.69,1.69,0,0,1,2-.06.88.88,0,0,1,.33.66,1,1,0,0,1-.22.6,3.63,3.63,0,0,1-.76.63Z"/><line class="cls-3" x1="176.84" y1="56.16" x2="94.57" y2="85.53"/><polyline class="cls-4" points="97.65 87.25 94.06 85.6 95.75 81.91"/><line class="cls-3" x1="89.91" y1="78.87" x2="172.17" y2="49.5"/><polyline class="cls-4" points="169.1 47.78 172.69 49.43 170.99 53.12"/><line class="cls-3" x1="215.7" y1="56.16" x2="297.96" y2="85.53"/><polyline class="cls-4" points="294.88 87.25 298.48 85.6 296.78 81.91"/><line class="cls-3" x1="302.63" y1="78.87" x2="220.36" y2="49.5"/><polyline class="cls-4" points="223.44 47.78 219.85 49.43 221.54 53.12"/><line class="cls-3" x1="189.71" y1="83.5" x2="189.71" y2="53.83"/><polyline class="cls-4" points="187.02 56.12 189.82 53.32 192.69 56.19"/><line class="cls-3" x1="202.49" y1="53.32" x2="202.49" y2="83"/><polyline class="cls-4" points="205.17 80.71 202.37 83.5 199.5 80.63"/><line class="cls-3" x1="176.84" y1="145.97" x2="94.57" y2="175.33"/><polyline class="cls-4" points="97.65 177.06 94.06 175.4 95.75 171.72"/><line class="cls-3" x1="89.91" y1="168.67" x2="172.17" y2="139.3"/><polyline class="cls-4" points="169.1 137.58 172.69 139.23 170.99 142.92"/><line class="cls-3" x1="215.7" y1="145.97" x2="297.96" y2="175.33"/><polyline class="cls-4" points="294.88 177.06 298.48 175.4 296.78 171.72"/><line class="cls-3" x1="302.63" y1="168.67" x2="220.36" y2="139.3"/><polyline class="cls-4" points="223.44 137.58 219.85 139.23 221.54 142.92"/><line class="cls-3" x1="189.71" y1="173.31" x2="189.71" y2="143.63"/><polyline class="cls-4" points="187.02 145.92 189.82 143.13 192.69 146"/><line class="cls-3" x1="202.49" y1="143.13" x2="202.49" y2="172.8"/><polyline class="cls-4" points="205.17 170.51 202.37 173.31 199.5 170.44"/><line class="cls-3" x1="133.43" y1="20.69" x2="156.26" y2="20.69"/><polyline class="cls-4" points="153.97 23.37 156.77 20.58 153.9 17.71"/><line class="cls-3" x1="156.77" y1="33.27" x2="133.93" y2="33.27"/><polyline class="cls-4" points="136.22 30.59 133.43 33.38 136.3 36.25"/><line class="cls-3" x1="235.22" y1="20.69" x2="258.05" y2="20.69"/><polyline class="cls-4" points="255.76 23.37 258.56 20.58 255.69 17.71"/><line class="cls-3" x1="258.56" y1="33.27" x2="235.72" y2="33.27"/><polyline class="cls-4" points="238.01 30.59 235.22 33.38 238.09 36.25"/><circle class="cls-5" cx="92.89" cy="118.37" r="16"/><circle class="cls-5" cx="195.99" cy="118.37" r="16"/><circle class="cls-5" cx="298.48" cy="118.37" r="16"/></g></svg>