<svg xmlns="http://www.w3.org/2000/svg" viewBox="0 0 446.1 124.46"><defs><style>.cls-1{fill:#1d1d1b;}.cls-2,.cls-3,.cls-4,.cls-5{fill:none;}.cls-2,.cls-5{stroke:#1d1d1b;}.cls-2,.cls-4,.cls-5{stroke-linejoin:round;}.cls-2{stroke-width:0.76px;}.cls-3,.cls-4{stroke:#010101;stroke-linecap:round;}.cls-3{stroke-miterlimit:10;}.cls-5{stroke-width:0.61px;}</style></defs><g id="Layer_1" data-name="Layer 1"><path class="cls-1" d="M60,23.17H58.18a8.17,8.17,0,0,1-1.45-1.73c-.21-.3-.42-.59-.65-.87a3.64,3.64,0,0,0-.46-.5.72.72,0,0,0-.4-.09H55v1.47q0,.78,0,1a.54.54,0,0,0,.2.36,1.09,1.09,0,0,0,.61.12h.32v.22H53V23h.21a1.18,1.18,0,0,0,.59-.11.48.48,0,0,0,.21-.33,7.67,7.67,0,0,0,0-1.06V18.2a7.34,7.34,0,0,0,0-1,.42.42,0,0,0-.2-.31,1.5,1.5,0,0,0-.65-.09H53v-.23l.94-.05c.63,0,1.14,0,1.51,0a5.46,5.46,0,0,1,1.54.18,2,2,0,0,1,1,.57,1.4,1.4,0,0,1,.36,1,1.49,1.49,0,0,1-.48,1.11,2.41,2.41,0,0,1-1.4.57,5.25,5.25,0,0,1,1.34,1.44A6.55,6.55,0,0,0,59,22.62,1.72,1.72,0,0,0,60,23Zm-5-3.41.76,0a3.12,3.12,0,0,0,.67-.11,1.07,1.07,0,0,0,.47-.26,1.15,1.15,0,0,0,.28-.44,1.89,1.89,0,0,0,.1-.67,1.65,1.65,0,0,0-.35-1.12,2,2,0,0,0-1.52-.42l-.41,0Z"/><path class="cls-1" d="M61.59,19V21.8c0,.43,0,.7,0,.81a.35.35,0,0,0,.15.25.74.74,0,0,0,.43.09h.1v.22H60.14V23h.16a.69.69,0,0,0,.46-.1.39.39,0,0,0,.12-.24c0-.09,0-.36,0-.81V20.59a3.27,3.27,0,0,0-.07-.86.29.29,0,0,0-.18-.19,1.13,1.13,0,0,0-.38,0h-.13v-.23A5.75,5.75,0,0,0,61.49,19Zm-.94-2a.51.51,0,0,1,.87-.36.52.52,0,0,1,.14.36.53.53,0,0,1-.14.37.51.51,0,0,1-.72,0A.5.5,0,0,1,60.65,17Z"/><path class="cls-1" d="M62.89,23.3V22h.19c.22.76.62,1.14,1.18,1.14a.68.68,0,0,0,.56-.23.76.76,0,0,0,.18-.49.73.73,0,0,0-.19-.52,3.62,3.62,0,0,0-.78-.48,3.17,3.17,0,0,1-.87-.58,1,1,0,0,1-.26-.7,1.19,1.19,0,0,1,.28-.76A1,1,0,0,1,64,19a1.08,1.08,0,0,1,.86.43,1.34,1.34,0,0,0,.19-.36h.18v1.24H65a1.65,1.65,0,0,0-.38-.77.84.84,0,0,0-.66-.32.64.64,0,0,0-.47.18.58.58,0,0,0-.18.42.59.59,0,0,0,.2.46,2.62,2.62,0,0,0,.74.44,2.13,2.13,0,0,1,1,.73,1.64,1.64,0,0,1,.19.7,1.12,1.12,0,0,1-.35.85,1.2,1.2,0,0,1-.87.32,1.34,1.34,0,0,1-1-.45,1.18,1.18,0,0,0-.21.42Z"/><path class="cls-1" d="M68.46,19.17h1.61v.23a2.24,2.24,0,0,0-1.19.66c-.16.14-.41.34-.74.6l1.42,1.67a2.65,2.65,0,0,0,.51.49.79.79,0,0,0,.38.13v.22h-2V23c.33,0,.5-.08.5-.22a1.36,1.36,0,0,0-.33-.47l-1-1.19-.21.16v.57c0,.43,0,.7,0,.8a.36.36,0,0,0,.14.26A.74.74,0,0,0,68,23v.22H66V23h.15a.69.69,0,0,0,.46-.1.39.39,0,0,0,.12-.24c0-.09,0-.36,0-.81v-4a1.62,1.62,0,0,0-.11-.74c-.07-.11-.25-.16-.53-.16v-.22a5,5,0,0,0,.69-.07,2.45,2.45,0,0,0,.55-.14h.1V21l.42-.3c.68-.48,1-.82,1-1s-.13-.21-.38-.22Z"/><path class="cls-1" d="M49,30.73H46.47l-.17.42a4.46,4.46,0,0,0-.38,1.19.57.57,0,0,0,.2.46.86.86,0,0,0,.52.15v.22h-2V33a1.08,1.08,0,0,0,.65-.31,4.11,4.11,0,0,0,.52-1c0-.05.09-.24.23-.57L48,26.46h.19l2.21,5.26.3.69a.89.89,0,0,0,.28.37,1,1,0,0,0,.52.17v.22H48.9V33a1.88,1.88,0,0,0,.65-.07.28.28,0,0,0,.17-.28,2.93,2.93,0,0,0-.23-.64Zm-.09-.22-1.17-2.82-1.17,2.82Z"/><path class="cls-1" d="M55.27,32.2h.21a1.52,1.52,0,0,1-1.66,1.13,2,2,0,0,1-1.44-.58,2.05,2.05,0,0,1-.58-1.53,2.13,2.13,0,0,1,.63-1.6A2.1,2.1,0,0,1,53.92,29a2.05,2.05,0,0,1,.95.23c.29.15.43.34.43.55a.32.32,0,0,1-.08.23.25.25,0,0,1-.23.11c-.21,0-.34-.12-.39-.37a.79.79,0,0,0-.18-.4.83.83,0,0,0-.5-.11,1.14,1.14,0,0,0-1,.45,2.33,2.33,0,0,0-.33,1.37A2.66,2.66,0,0,0,53,32.54a1.21,1.21,0,0,0,1.08.54A1.17,1.17,0,0,0,55.27,32.2Z"/><path class="cls-1" d="M59.54,32.2h.21a1.52,1.52,0,0,1-1.66,1.13,2,2,0,0,1-1.44-.58,2.09,2.09,0,0,1-.58-1.53,2.13,2.13,0,0,1,.63-1.6A2.1,2.1,0,0,1,58.19,29a2,2,0,0,1,1,.23c.29.15.44.34.44.55a.38.38,0,0,1-.08.23.27.27,0,0,1-.24.11c-.21,0-.34-.12-.39-.37a.79.79,0,0,0-.18-.4.82.82,0,0,0-.49-.11,1.15,1.15,0,0,0-1,.45,2.33,2.33,0,0,0-.33,1.37,2.58,2.58,0,0,0,.36,1.47,1.18,1.18,0,0,0,1.07.54A1.17,1.17,0,0,0,59.54,32.2Z"/><path class="cls-1" d="M60.36,31.17A2.1,2.1,0,0,1,61,29.63a2.17,2.17,0,0,1,3,0,2.3,2.3,0,0,1,0,3.13,2.17,2.17,0,0,1-1.51.57A2.13,2.13,0,0,1,61,32.75,2.1,2.1,0,0,1,60.36,31.17Zm.81,0a2.41,2.41,0,0,0,.35,1.49,1.16,1.16,0,0,0,1,.43,1.18,1.18,0,0,0,1-.43,2.49,2.49,0,0,0,.34-1.49,2.59,2.59,0,0,0-.34-1.5,1.15,1.15,0,0,0-1-.45,1.14,1.14,0,0,0-1,.45A2.47,2.47,0,0,0,61.17,31.19Z"/><path class="cls-1" d="M69.33,29.17V31.8c0,.43,0,.71,0,.82a.35.35,0,0,0,.15.25.9.9,0,0,0,.44.08v.22a3.06,3.06,0,0,0-1.08.16H68.8a2.15,2.15,0,0,1-.17-.93,2.08,2.08,0,0,1-.68.7,1.52,1.52,0,0,1-.84.23,1.36,1.36,0,0,1-.71-.18.93.93,0,0,1-.42-.44,2.07,2.07,0,0,1-.12-.8V30.55c0-.47,0-.75,0-.85a.32.32,0,0,0-.16-.23,1,1,0,0,0-.47-.07v-.23h1.35V32a2.66,2.66,0,0,0,0,.59.61.61,0,0,0,.25.33.84.84,0,0,0,.47.14,1.14,1.14,0,0,0,.71-.25,1.33,1.33,0,0,0,.47-.52,2.08,2.08,0,0,0,.12-.79v-.9c0-.44,0-.7,0-.8a.42.42,0,0,0-.12-.25.72.72,0,0,0-.46-.1h-.1v-.23Z"/><path class="cls-1" d="M71.57,29h.14a2.93,2.93,0,0,1,.12.83,2.6,2.6,0,0,1,.74-.62,1.69,1.69,0,0,1,.81-.21,1.41,1.41,0,0,1,.78.2,1,1,0,0,1,.39.49,3.09,3.09,0,0,1,.09.85V31.8a6.65,6.65,0,0,0,0,.85.27.27,0,0,0,.15.22,1,1,0,0,0,.48.08v.22h-2V33h.09a.69.69,0,0,0,.46-.1.39.39,0,0,0,.12-.24c0-.09,0-.36,0-.81V30.51a3.35,3.35,0,0,0,0-.67.59.59,0,0,0-.25-.36.76.76,0,0,0-.51-.16,1.21,1.21,0,0,0-.68.21,2.53,2.53,0,0,0-.62.64V31.8a6.65,6.65,0,0,0,0,.85.3.3,0,0,0,.16.22,1,1,0,0,0,.48.08v.22h-2V33a1,1,0,0,0,.46-.07.28.28,0,0,0,.17-.21,6.6,6.6,0,0,0,0-.87V30.61a6.65,6.65,0,0,0,0-.85.32.32,0,0,0-.15-.22,1.06,1.06,0,0,0-.48-.08v-.22A6.44,6.44,0,0,0,71.57,29Z"/><path class="cls-1" d="M78.25,29.4h-1.2v2.42a3.19,3.19,0,0,0,0,.75.58.58,0,0,0,.2.31.62.62,0,0,0,.34.11.72.72,0,0,0,.61-.4l.16.1a1,1,0,0,1-.45.48,1.16,1.16,0,0,1-.59.16,1,1,0,0,1-.62-.2.83.83,0,0,1-.33-.49,4.31,4.31,0,0,1-.07-1V29.4h-.58v-.23a1,1,0,0,0,.72-.33,1.66,1.66,0,0,0,.4-.92h.16v1.25h1.2Z"/><path class="cls-1" d="M48.39,36.61l1.09-.06c.91,0,1.52-.07,1.84-.07a4.86,4.86,0,0,1,2.3.45,3,3,0,0,1,1.23,1.22,3.89,3.89,0,0,1,.4,1.78A3.79,3.79,0,0,1,55,41.26a3,3,0,0,1-.6,1,2.64,2.64,0,0,1-.89.6,3.45,3.45,0,0,1-1,.26,10.78,10.78,0,0,1-1.28.05H48.36V43h.28a1.18,1.18,0,0,0,.59-.11.56.56,0,0,0,.21-.33,7.67,7.67,0,0,0,0-1.06V38.26a7.42,7.42,0,0,0,0-1,.45.45,0,0,0-.2-.31,1.5,1.5,0,0,0-.65-.09h-.2Zm2,.13v4.43c0,.65,0,1.07,0,1.26a.55.55,0,0,0,.22.4,1.66,1.66,0,0,0,.78.11,3.59,3.59,0,0,0,1.41-.23,1.94,1.94,0,0,0,.94-.94A3.81,3.81,0,0,0,54.19,40,4.64,4.64,0,0,0,54,38.5a2.61,2.61,0,0,0-.62-1.07,2.06,2.06,0,0,0-.9-.56,4.43,4.43,0,0,0-1.26-.15Z"/><path class="cls-1" d="M60.17,42.44h.18c0,.56-.31.84-.82.84A.74.74,0,0,1,59,43.1a.88.88,0,0,1-.25-.52,5.45,5.45,0,0,1-.89.52,1.81,1.81,0,0,1-.72.18,1.06,1.06,0,0,1-.7-.24.73.73,0,0,1-.29-.62,1.09,1.09,0,0,1,.49-.88A6.34,6.34,0,0,1,58,40.81l.76-.31v-.19a2.7,2.7,0,0,0,0-.6.59.59,0,0,0-.28-.33,1.05,1.05,0,0,0-.59-.15c-.49,0-.76.16-.82.49s-.19.49-.41.49-.3-.09-.3-.28.14-.38.4-.6a2.47,2.47,0,0,1,2.19-.12,1,1,0,0,1,.45.44,1.9,1.9,0,0,1,.11.77V42a2.68,2.68,0,0,0,.06.73.24.24,0,0,0,.26.16C60,42.92,60.11,42.76,60.17,42.44Zm-1.42-1.71-.53.22Q57,41.46,57,42.24a.71.71,0,0,0,.16.49.52.52,0,0,0,.42.19,1.23,1.23,0,0,0,.53-.15,3.54,3.54,0,0,0,.68-.46Z"/><path class="cls-1" d="M62.94,42.42l.93-2.22a2.93,2.93,0,0,0,.2-.55c0-.16-.18-.24-.54-.25v-.23h1.41v.23a.71.71,0,0,0-.48.17,2.68,2.68,0,0,0-.38.7L62.3,44.58a3.24,3.24,0,0,1-.45.83.55.55,0,0,1-.43.22c-.21,0-.32-.09-.32-.28s.17-.41.51-.56a1.76,1.76,0,0,0,.4-.23.91.91,0,0,0,.2-.34l.38-.95-1.51-3.22a1.82,1.82,0,0,0-.33-.54.74.74,0,0,0-.45-.11v-.23h1.84v.23c-.32,0-.49.08-.49.2a2.22,2.22,0,0,0,.2.48Z"/><path class="cls-1" d="M68,43.17v-.3a13,13,0,0,0,1.41-1.37,9.34,9.34,0,0,0,1.22-1.63A2.82,2.82,0,0,0,71,38.49a1.74,1.74,0,0,0-.38-1.23,1.28,1.28,0,0,0-1-.39,1.06,1.06,0,0,0-.86.36,1.19,1.19,0,0,0-.3.77.87.87,0,0,0,.39.75c.1.06.15.12.15.15s-.06.14-.17.24a.46.46,0,0,1-.27.15c-.1,0-.22-.1-.36-.29a1.29,1.29,0,0,1-.2-.76,1.4,1.4,0,0,1,.58-1.19,2.05,2.05,0,0,1,1.27-.43,2.11,2.11,0,0,1,1.32.45,1.6,1.6,0,0,1,.59,1.35,2.31,2.31,0,0,1-.26,1.06A8.31,8.31,0,0,1,70.29,41c-.68.69-1.23,1.21-1.64,1.56h3.1l-.28,1.09h-.23a.47.47,0,0,1,0-.17.52.52,0,0,0,0-.14c0-.09,0-.15-.07-.17a1.06,1.06,0,0,0-.34,0Z"/><path class="cls-1" d="M72.86,40a4.6,4.6,0,0,1,.57-2.45A1.75,1.75,0,0,1,75,36.62a1.73,1.73,0,0,1,1.52.92,5.4,5.4,0,0,1,0,4.87,1.72,1.72,0,0,1-1.52.92,1.74,1.74,0,0,1-1.52-.92A4.55,4.55,0,0,1,72.86,40Zm.81,0A5.86,5.86,0,0,0,74,42.55a1,1,0,0,0,.94.55,1,1,0,0,0,1-.66A7.09,7.09,0,0,0,76.23,40a5.89,5.89,0,0,0-.34-2.58,1.08,1.08,0,0,0-1.88,0A5.89,5.89,0,0,0,73.67,40Z"/><polygon class="cls-2" points="82.42 50.32 30.55 50.32 43.11 9.41 94.97 9.41 82.42 50.32"/><line class="cls-3" x1="100.92" y1="23.58" x2="123.76" y2="23.58"/><polyline class="cls-4" points="121.47 26.26 124.26 23.46 121.39 20.6"/><line class="cls-3" x1="124.26" y1="36.16" x2="101.43" y2="36.16"/><polyline class="cls-4" points="103.72 33.48 100.92 36.27 103.79 39.14"/><path class="cls-1" d="M162.26,23.17h-1.78A7.88,7.88,0,0,1,159,21.44c-.21-.3-.43-.59-.65-.87a3.48,3.48,0,0,0-.47-.5.66.66,0,0,0-.39-.09h-.27v1.47a9.49,9.49,0,0,0,0,1,.54.54,0,0,0,.2.36,1.06,1.06,0,0,0,.6.12h.32v.22h-3.17V23h.22a1.18,1.18,0,0,0,.59-.11.51.51,0,0,0,.2-.33,7.09,7.09,0,0,0,.05-1.06V18.2a6.81,6.81,0,0,0-.05-1,.41.41,0,0,0-.19-.31,1.52,1.52,0,0,0-.66-.09h-.11v-.23l1-.05c.63,0,1.13,0,1.5,0a5.41,5.41,0,0,1,1.54.18,1.93,1.93,0,0,1,1,.57,1.36,1.36,0,0,1,.37,1,1.49,1.49,0,0,1-.48,1.11,2.47,2.47,0,0,1-1.41.57,5.1,5.1,0,0,1,1.34,1.44,6.87,6.87,0,0,0,1.18,1.33,1.77,1.77,0,0,0,1,.33Zm-5-3.41.76,0a3.12,3.12,0,0,0,.68-.11,1.13,1.13,0,0,0,.47-.26,1.15,1.15,0,0,0,.28-.44,1.89,1.89,0,0,0,.1-.67,1.71,1.71,0,0,0-.35-1.12,2,2,0,0,0-1.52-.42l-.42,0Z"/><path class="cls-1" d="M163.89,19V21.8c0,.43,0,.7,0,.81a.34.34,0,0,0,.14.25.78.78,0,0,0,.44.09h.1v.22h-2.15V23h.16a.67.67,0,0,0,.45-.1.47.47,0,0,0,.13-.24c0-.09,0-.36,0-.81V20.59a3.46,3.46,0,0,0-.06-.86.34.34,0,0,0-.18-.19,1.13,1.13,0,0,0-.38,0h-.13v-.23a5.75,5.75,0,0,0,1.34-.26ZM163,17a.51.51,0,0,1,.51-.51.45.45,0,0,1,.35.15A.49.49,0,0,1,164,17a.5.5,0,0,1-.15.37.45.45,0,0,1-.35.15.49.49,0,0,1-.36-.15A.5.5,0,0,1,163,17Z"/><path class="cls-1" d="M165.18,23.3V22h.2c.22.76.61,1.14,1.18,1.14a.69.69,0,0,0,.56-.23.76.76,0,0,0,.18-.49.73.73,0,0,0-.2-.52,3.25,3.25,0,0,0-.77-.48,2.88,2.88,0,0,1-.87-.58,1,1,0,0,1-.27-.7,1.21,1.21,0,0,1,.29-.76,1,1,0,0,1,.79-.36,1.09,1.09,0,0,1,.87.43,1.34,1.34,0,0,0,.19-.36h.18v1.24h-.18a1.74,1.74,0,0,0-.38-.77.87.87,0,0,0-.66-.32.65.65,0,0,0-.48.18.58.58,0,0,0-.18.42.63.63,0,0,0,.2.46,2.56,2.56,0,0,0,.75.44,2.24,2.24,0,0,1,1,.73,1.62,1.62,0,0,1,.18.7,1.12,1.12,0,0,1-.34.85,1.2,1.2,0,0,1-.87.32,1.32,1.32,0,0,1-1-.45,1,1,0,0,0-.21.42Z"/><path class="cls-1" d="M170.76,19.17h1.61v.23a2.21,2.21,0,0,0-1.19.66q-.24.21-.75.6l1.43,1.67a2.17,2.17,0,0,0,.51.49.79.79,0,0,0,.38.13v.22h-2V23c.33,0,.49-.08.49-.22a1.42,1.42,0,0,0-.32-.47l-1-1.19-.21.16v.57c0,.43,0,.7,0,.8a.36.36,0,0,0,.14.26.73.73,0,0,0,.42.09v.22h-2V23h.15a.67.67,0,0,0,.45-.1.39.39,0,0,0,.12-.24c0-.09,0-.36,0-.81v-4a1.62,1.62,0,0,0-.11-.74c-.08-.11-.25-.16-.53-.16v-.22a5,5,0,0,0,.69-.07,2.45,2.45,0,0,0,.55-.14h.1V21l.42-.3c.68-.48,1-.82,1-1s-.12-.21-.37-.22Z"/><path class="cls-1" d="M151.28,30.73h-2.51l-.17.42a4.09,4.09,0,0,0-.38,1.19.54.54,0,0,0,.2.46.84.84,0,0,0,.52.15v.22h-2V33a1.14,1.14,0,0,0,.66-.31,3.85,3.85,0,0,0,.51-1l.24-.57,1.92-4.59h.19l2.21,5.26.31.69a.87.87,0,0,0,.27.37,1,1,0,0,0,.52.17v.22h-2.6V33a1.92,1.92,0,0,0,.65-.07.28.28,0,0,0,.17-.28,2.93,2.93,0,0,0-.23-.64Zm-.08-.22L150,27.69l-1.17,2.82Z"/><path class="cls-1" d="M157.56,32.2h.22a1.53,1.53,0,0,1-1.66,1.13,2,2,0,0,1-1.44-.58,2.05,2.05,0,0,1-.58-1.53A2.1,2.1,0,0,1,156.22,29a2.05,2.05,0,0,1,.95.23c.29.15.43.34.43.55a.38.38,0,0,1-.08.23.25.25,0,0,1-.23.11c-.22,0-.35-.12-.4-.37a.79.79,0,0,0-.18-.4.8.8,0,0,0-.49-.11,1.13,1.13,0,0,0-1,.45,2.33,2.33,0,0,0-.33,1.37,2.58,2.58,0,0,0,.35,1.47,1.19,1.19,0,0,0,1.07.54A1.16,1.16,0,0,0,157.56,32.2Z"/><path class="cls-1" d="M161.83,32.2h.22a1.53,1.53,0,0,1-1.66,1.13,2,2,0,0,1-1.44-.58,2.05,2.05,0,0,1-.58-1.53,2.13,2.13,0,0,1,.63-1.6,2.09,2.09,0,0,1,1.49-.61,2.05,2.05,0,0,1,.95.23c.29.15.43.34.43.55a.32.32,0,0,1-.08.23.25.25,0,0,1-.23.11c-.21,0-.34-.12-.39-.37a.71.71,0,0,0-.19-.4.78.78,0,0,0-.49-.11,1.14,1.14,0,0,0-1,.45,2.33,2.33,0,0,0-.33,1.37,2.66,2.66,0,0,0,.35,1.47,1.21,1.21,0,0,0,1.07.54A1.16,1.16,0,0,0,161.83,32.2Z"/><path class="cls-1" d="M162.65,31.17a2.1,2.1,0,0,1,.62-1.54,2.16,2.16,0,0,1,3,0,2.12,2.12,0,0,1,.62,1.54,2.06,2.06,0,0,1-.63,1.59,2.15,2.15,0,0,1-1.51.57,2.07,2.07,0,0,1-2.13-2.16Zm.82,0a2.42,2.42,0,0,0,.34,1.49,1.17,1.17,0,0,0,1,.43,1.15,1.15,0,0,0,1-.43,2.42,2.42,0,0,0,.34-1.49,2.6,2.6,0,0,0-.33-1.5,1.3,1.3,0,0,0-2,0A2.56,2.56,0,0,0,163.47,31.19Z"/><path class="cls-1" d="M171.63,29.17V31.8c0,.43,0,.71,0,.82a.34.34,0,0,0,.14.25,1,1,0,0,0,.45.08v.22a3,3,0,0,0-1.08.16h-.06a2,2,0,0,1-.17-.93,2.17,2.17,0,0,1-.68.7,1.57,1.57,0,0,1-.85.23,1.35,1.35,0,0,1-.7-.18,1,1,0,0,1-.43-.44,2.32,2.32,0,0,1-.11-.8V30.55a6.53,6.53,0,0,0,0-.85.28.28,0,0,0-.15-.23,1.09,1.09,0,0,0-.48-.07v-.23h1.36V32a2.66,2.66,0,0,0,0,.59.57.57,0,0,0,.25.33.81.81,0,0,0,.46.14,1.19,1.19,0,0,0,.72-.25,1.41,1.41,0,0,0,.47-.52,2.08,2.08,0,0,0,.12-.79v-.9c0-.44,0-.7,0-.8a.38.38,0,0,0-.13-.25.67.67,0,0,0-.45-.1h-.11v-.23Z"/><path class="cls-1" d="M173.87,29H174a2.57,2.57,0,0,1,.13.83,2.47,2.47,0,0,1,.74-.62,1.62,1.62,0,0,1,.8-.21,1.47,1.47,0,0,1,.79.2,1,1,0,0,1,.39.49,3.09,3.09,0,0,1,.09.85V31.8c0,.46,0,.75,0,.85a.3.3,0,0,0,.16.22,1,1,0,0,0,.47.08v.22h-2V33h.09a.71.71,0,0,0,.46-.1.39.39,0,0,0,.12-.24c0-.09,0-.36,0-.81V30.51a3.55,3.55,0,0,0,0-.67.63.63,0,0,0-.25-.36.81.81,0,0,0-.52-.16,1.26,1.26,0,0,0-.68.21,2.51,2.51,0,0,0-.61.64V31.8a6.65,6.65,0,0,0,0,.85.29.29,0,0,0,.15.22,1.06,1.06,0,0,0,.48.08v.22h-2V33a1,1,0,0,0,.47-.07.27.27,0,0,0,.16-.21,4.63,4.63,0,0,0,0-.87V30.61a6.65,6.65,0,0,0,0-.85.3.3,0,0,0-.16-.22,1,1,0,0,0-.48-.08v-.22A6.34,6.34,0,0,0,173.87,29Z"/><path class="cls-1" d="M180.55,29.4h-1.21v2.42a3.88,3.88,0,0,0,0,.75.6.6,0,0,0,.21.31.62.62,0,0,0,.34.11.73.73,0,0,0,.61-.4l.16.1a1,1,0,0,1-.45.48,1.23,1.23,0,0,1-.6.16,1,1,0,0,1-.62-.2.94.94,0,0,1-.33-.49,5.26,5.26,0,0,1-.06-1V29.4h-.59v-.23a1,1,0,0,0,.72-.33,1.67,1.67,0,0,0,.41-.92h.15v1.25h1.21Z"/><path class="cls-1" d="M150.69,36.61l1.09-.06c.91,0,1.52-.07,1.83-.07a4.84,4.84,0,0,1,2.3.45,2.9,2.9,0,0,1,1.23,1.22,3.77,3.77,0,0,1,.41,1.78,4,4,0,0,1-.22,1.33,2.86,2.86,0,0,1-.61,1,2.46,2.46,0,0,1-.89.6,3.28,3.28,0,0,1-1,.26,10.78,10.78,0,0,1-1.28.05h-2.93V43h.27a1.15,1.15,0,0,0,.59-.11.48.48,0,0,0,.21-.33,7.09,7.09,0,0,0,.05-1.06V38.26a6.88,6.88,0,0,0-.05-1,.41.41,0,0,0-.19-.31,1.52,1.52,0,0,0-.66-.09h-.19Zm2,.13v4.43a11,11,0,0,0,0,1.26.52.52,0,0,0,.22.4,1.64,1.64,0,0,0,.77.11,3.61,3.61,0,0,0,1.42-.23,2,2,0,0,0,.93-.94,3.68,3.68,0,0,0,.38-1.77,4.93,4.93,0,0,0-.22-1.5,2.72,2.72,0,0,0-.62-1.07,2.06,2.06,0,0,0-.9-.56,4.46,4.46,0,0,0-1.27-.15Z"/><path class="cls-1" d="M162.46,42.44h.18c0,.56-.3.84-.82.84a.73.73,0,0,1-.52-.18.88.88,0,0,1-.25-.52,5.5,5.5,0,0,1-.9.52,1.73,1.73,0,0,1-.72.18,1,1,0,0,1-.69-.24.74.74,0,0,1-.3-.62,1.12,1.12,0,0,1,.49-.88,6.21,6.21,0,0,1,1.36-.73l.76-.31v-.19a2.11,2.11,0,0,0-.06-.6.55.55,0,0,0-.28-.33,1,1,0,0,0-.59-.15c-.49,0-.76.16-.81.49s-.19.49-.41.49-.3-.09-.3-.28.13-.38.4-.6a2.47,2.47,0,0,1,2.19-.12,1,1,0,0,1,.45.44,2.09,2.09,0,0,1,.11.77V42a2.68,2.68,0,0,0,.06.73.23.23,0,0,0,.25.16C162.28,42.92,162.41,42.76,162.46,42.44Zm-1.41-1.71-.54.22q-1.26.51-1.26,1.29a.71.71,0,0,0,.17.49.5.5,0,0,0,.42.19,1.23,1.23,0,0,0,.53-.15,3.54,3.54,0,0,0,.68-.46Z"/><path class="cls-1" d="M165.24,42.42l.93-2.22a4.14,4.14,0,0,0,.2-.55c0-.16-.18-.24-.54-.25v-.23h1.4v.23a.73.73,0,0,0-.48.17,2.74,2.74,0,0,0-.37.7l-1.78,4.31a3.24,3.24,0,0,1-.45.83.57.57,0,0,1-.43.22c-.21,0-.32-.09-.32-.28s.17-.41.51-.56a1.44,1.44,0,0,0,.39-.23.79.79,0,0,0,.2-.34l.38-.95-1.5-3.22a1.82,1.82,0,0,0-.33-.54.74.74,0,0,0-.45-.11v-.23h1.83v.23c-.32,0-.48.08-.48.2a1.94,1.94,0,0,0,.19.48Z"/><path class="cls-1" d="M170.3,43.17v-.3a12.13,12.13,0,0,0,1.41-1.37,9,9,0,0,0,1.23-1.63,2.82,2.82,0,0,0,.38-1.38,1.74,1.74,0,0,0-.38-1.23,1.28,1.28,0,0,0-.95-.39,1.06,1.06,0,0,0-.86.36,1.15,1.15,0,0,0-.31.77.86.86,0,0,0,.4.75c.09.06.14.12.14.15s-.05.14-.16.24a.46.46,0,0,1-.28.15c-.09,0-.21-.1-.35-.29a1.29,1.29,0,0,1-.21-.76,1.43,1.43,0,0,1,.58-1.19,2.14,2.14,0,0,1,2.6,0,1.6,1.6,0,0,1,.59,1.35,2.2,2.2,0,0,1-.27,1.06A7.55,7.55,0,0,1,172.58,41c-.68.69-1.22,1.21-1.64,1.56h3.11l-.28,1.09h-.23a.47.47,0,0,1,0-.17.52.52,0,0,0,0-.14.18.18,0,0,0-.07-.17,1.06,1.06,0,0,0-.34,0Z"/><path class="cls-1" d="M177.41,36.62h.22V41.8c0,.43,0,.7,0,.81a.37.37,0,0,0,.14.25.8.8,0,0,0,.44.09h.19v.22h-2.2V43h.16a.69.69,0,0,0,.46-.1.39.39,0,0,0,.12-.24c0-.09,0-.36,0-.81V38.33c0-.44,0-.71,0-.8a.39.39,0,0,0-.12-.25.71.71,0,0,0-.46-.1h-.21V37A2.08,2.08,0,0,0,177.41,36.62Z"/><polygon class="cls-2" points="184.71 50.32 132.85 50.32 145.41 9.41 197.26 9.41 184.71 50.32"/><line class="cls-3" x1="203.22" y1="23.58" x2="226.05" y2="23.58"/><polyline class="cls-4" points="223.76 26.26 226.56 23.46 223.69 20.6"/><line class="cls-3" x1="226.56" y1="36.16" x2="203.72" y2="36.16"/><polyline class="cls-4" points="206.01 33.48 203.22 36.27 206.09 39.14"/><path class="cls-1" d="M264.56,23.17h-1.79a8.17,8.17,0,0,1-1.45-1.73c-.2-.3-.42-.59-.65-.87a3.08,3.08,0,0,0-.46-.5.7.7,0,0,0-.4-.09h-.26v1.47a7.34,7.34,0,0,0,0,1,.53.53,0,0,0,.19.36,1.09,1.09,0,0,0,.61.12h.32v.22h-3.17V23h.21a1.15,1.15,0,0,0,.59-.11.48.48,0,0,0,.21-.33,7.67,7.67,0,0,0,0-1.06V18.2a7.34,7.34,0,0,0,0-1,.39.39,0,0,0-.2-.31,1.47,1.47,0,0,0-.65-.09h-.11v-.23l1-.05c.63,0,1.13,0,1.5,0a5.46,5.46,0,0,1,1.54.18,2,2,0,0,1,1,.57,1.41,1.41,0,0,1,.37,1,1.49,1.49,0,0,1-.48,1.11,2.47,2.47,0,0,1-1.41.57,5.25,5.25,0,0,1,1.34,1.44,6.55,6.55,0,0,0,1.18,1.33,1.77,1.77,0,0,0,1,.33Zm-5-3.41.76,0a3.12,3.12,0,0,0,.68-.11,1.09,1.09,0,0,0,.46-.26,1,1,0,0,0,.28-.44,1.88,1.88,0,0,0,.11-.67,1.71,1.71,0,0,0-.35-1.12,2,2,0,0,0-1.52-.42l-.42,0Z"/><path class="cls-1" d="M266.19,19V21.8a7.17,7.17,0,0,0,0,.81.34.34,0,0,0,.14.25.74.74,0,0,0,.43.09h.1v.22h-2.15V23h.17a.67.67,0,0,0,.45-.1.39.39,0,0,0,.12-.24c0-.09,0-.36,0-.81V20.59a2.86,2.86,0,0,0-.07-.86.3.3,0,0,0-.17-.19,1.2,1.2,0,0,0-.39,0h-.13v-.23a5.75,5.75,0,0,0,1.35-.26Zm-.95-2a.51.51,0,0,1,1,0,.5.5,0,0,1-.15.37.51.51,0,0,1-.72,0A.5.5,0,0,1,265.24,17Z"/><path class="cls-1" d="M267.48,23.3V22h.19c.22.76.62,1.14,1.19,1.14a.66.66,0,0,0,.55-.23.76.76,0,0,0,.18-.49.73.73,0,0,0-.19-.52,3.16,3.16,0,0,0-.78-.48,3.17,3.17,0,0,1-.87-.58,1,1,0,0,1-.26-.7,1.19,1.19,0,0,1,.28-.76,1,1,0,0,1,.8-.36,1.06,1.06,0,0,1,.86.43,1.1,1.1,0,0,0,.19-.36h.18v1.24h-.18a1.73,1.73,0,0,0-.37-.77.88.88,0,0,0-.67-.32.64.64,0,0,0-.47.18.58.58,0,0,0-.18.42.63.63,0,0,0,.2.46,2.56,2.56,0,0,0,.75.44,2.14,2.14,0,0,1,1,.73,1.51,1.51,0,0,1,.19.7,1.12,1.12,0,0,1-.35.85,1.18,1.18,0,0,1-.86.32,1.31,1.31,0,0,1-1-.45,1.18,1.18,0,0,0-.22.42Z"/><path class="cls-1" d="M273.05,19.17h1.61v.23a2.27,2.27,0,0,0-1.19.66c-.16.14-.41.34-.74.6l1.43,1.67a2.4,2.4,0,0,0,.5.49A.82.82,0,0,0,275,23v.22h-2V23c.33,0,.5-.08.5-.22a1.36,1.36,0,0,0-.33-.47l-1-1.19-.21.16v.57c0,.43,0,.7,0,.8a.39.39,0,0,0,.14.26.76.76,0,0,0,.43.09v.22h-2V23h.15a.69.69,0,0,0,.46-.1.39.39,0,0,0,.12-.24c0-.09,0-.36,0-.81v-4a1.49,1.49,0,0,0-.11-.74c-.07-.11-.25-.16-.53-.16v-.22a5,5,0,0,0,.7-.07,2.32,2.32,0,0,0,.54-.14H272V21l.42-.3c.68-.48,1-.82,1-1s-.13-.21-.38-.22Z"/><path class="cls-1" d="M253.58,30.73h-2.52l-.17.42a4.46,4.46,0,0,0-.38,1.19.55.55,0,0,0,.21.46.82.82,0,0,0,.52.15v.22h-2V33a1.08,1.08,0,0,0,.65-.31,3.79,3.79,0,0,0,.52-1c0-.05.09-.24.23-.57l1.93-4.59h.19L255,31.72l.3.69a.89.89,0,0,0,.28.37,1,1,0,0,0,.52.17v.22h-2.6V33a1.85,1.85,0,0,0,.64-.07.27.27,0,0,0,.17-.28,2.65,2.65,0,0,0-.22-.64Zm-.08-.22-1.18-2.82-1.16,2.82Z"/><path class="cls-1" d="M259.86,32.2h.21a1.52,1.52,0,0,1-1.66,1.13,2,2,0,0,1-1.44-.58,2.09,2.09,0,0,1-.58-1.53,2.13,2.13,0,0,1,.63-1.6,2.1,2.1,0,0,1,1.49-.61,2,2,0,0,1,.95.23c.29.15.44.34.44.55a.38.38,0,0,1-.08.23.26.26,0,0,1-.23.11c-.22,0-.35-.12-.4-.37a.79.79,0,0,0-.18-.4.82.82,0,0,0-.49-.11,1.15,1.15,0,0,0-1,.45,2.33,2.33,0,0,0-.33,1.37,2.58,2.58,0,0,0,.36,1.47,1.18,1.18,0,0,0,1.07.54A1.17,1.17,0,0,0,259.86,32.2Z"/><path class="cls-1" d="M264.13,32.2h.22a1.53,1.53,0,0,1-1.66,1.13,2,2,0,0,1-1.44-.58,2.06,2.06,0,0,1-.59-1.53,2.13,2.13,0,0,1,.63-1.6,2.1,2.1,0,0,1,1.49-.61,2.06,2.06,0,0,1,1,.23c.29.15.43.34.43.55a.38.38,0,0,1-.08.23.25.25,0,0,1-.23.11c-.22,0-.35-.12-.4-.37a.79.79,0,0,0-.18-.4.8.8,0,0,0-.49-.11,1.15,1.15,0,0,0-1,.45,2.33,2.33,0,0,0-.33,1.37,2.58,2.58,0,0,0,.36,1.47,1.18,1.18,0,0,0,1.07.54A1.16,1.16,0,0,0,264.13,32.2Z"/><path class="cls-1" d="M265,31.17a2.1,2.1,0,0,1,.62-1.54,2.05,2.05,0,0,1,1.51-.62,2.07,2.07,0,0,1,1.52.62,2.11,2.11,0,0,1,.61,1.54,2.06,2.06,0,0,1-.62,1.59,2.17,2.17,0,0,1-1.51.57,2.13,2.13,0,0,1-1.51-.58A2.1,2.1,0,0,1,265,31.17Zm.81,0a2.41,2.41,0,0,0,.35,1.49,1.32,1.32,0,0,0,1.95,0,2.42,2.42,0,0,0,.34-1.49,2.51,2.51,0,0,0-.34-1.5,1.14,1.14,0,0,0-1-.45,1.15,1.15,0,0,0-1,.45A2.55,2.55,0,0,0,265.76,31.19Z"/><path class="cls-1" d="M273.93,29.17V31.8a7.39,7.39,0,0,0,0,.82.34.34,0,0,0,.14.25.92.92,0,0,0,.45.08v.22a3.09,3.09,0,0,0-1.09.16h-.06a2,2,0,0,1-.16-.93,2.28,2.28,0,0,1-.68.7,1.57,1.57,0,0,1-.85.23,1.39,1.39,0,0,1-.71-.18,1,1,0,0,1-.42-.44,2.07,2.07,0,0,1-.12-.8V30.55a7.51,7.51,0,0,0,0-.85.34.34,0,0,0-.15-.23,1.09,1.09,0,0,0-.48-.07v-.23h1.36V32a2.16,2.16,0,0,0,0,.59.53.53,0,0,0,.25.33.78.78,0,0,0,.46.14,1.19,1.19,0,0,0,.72-.25,1.29,1.29,0,0,0,.46-.52,1.88,1.88,0,0,0,.13-.79v-.9c0-.44,0-.7,0-.8a.42.42,0,0,0-.12-.25.71.71,0,0,0-.46-.1h-.1v-.23Z"/><path class="cls-1" d="M276.17,29h.13a2.88,2.88,0,0,1,.13.83,2.57,2.57,0,0,1,.73-.62A1.69,1.69,0,0,1,278,29a1.41,1.41,0,0,1,.78.2.93.93,0,0,1,.4.49,3.63,3.63,0,0,1,.08.85V31.8a6.65,6.65,0,0,0,0,.85.29.29,0,0,0,.15.22,1.06,1.06,0,0,0,.48.08v.22h-2.05V33h.09a.69.69,0,0,0,.46-.1.36.36,0,0,0,.13-.24c0-.09,0-.36,0-.81V30.51a3.35,3.35,0,0,0,0-.67.59.59,0,0,0-.25-.36.76.76,0,0,0-.51-.16,1.23,1.23,0,0,0-.68.21,2.35,2.35,0,0,0-.61.64V31.8a7.62,7.62,0,0,0,0,.85.3.3,0,0,0,.16.22,1.06,1.06,0,0,0,.48.08v.22h-2V33a1.07,1.07,0,0,0,.47-.07.27.27,0,0,0,.16-.21,6.6,6.6,0,0,0,0-.87V30.61c0-.46,0-.75,0-.85a.3.3,0,0,0-.16-.22,1.06,1.06,0,0,0-.48-.08v-.22A6.54,6.54,0,0,0,276.17,29Z"/><path class="cls-1" d="M282.85,29.4h-1.21v2.42a3.88,3.88,0,0,0,.05.75.54.54,0,0,0,.21.31.6.6,0,0,0,.34.11.74.74,0,0,0,.61-.4l.15.1a1.08,1.08,0,0,1-.44.48,1.23,1.23,0,0,1-.6.16,1,1,0,0,1-.62-.2.83.83,0,0,1-.33-.49,5,5,0,0,1-.07-1V29.4h-.58v-.23a1,1,0,0,0,.72-.33,1.6,1.6,0,0,0,.4-.92h.16v1.25h1.21Z"/><path class="cls-1" d="M256.13,36.61l1.09-.06c.91,0,1.52-.07,1.83-.07a4.91,4.91,0,0,1,2.31.45,2.93,2.93,0,0,1,1.22,1.22,3.77,3.77,0,0,1,.41,1.78,4,4,0,0,1-.22,1.33,2.86,2.86,0,0,1-.61,1,2.46,2.46,0,0,1-.89.6,3.28,3.28,0,0,1-1,.26,10.59,10.59,0,0,1-1.27.05H256.1V43h.28a1.13,1.13,0,0,0,.58-.11.48.48,0,0,0,.21-.33,7.09,7.09,0,0,0,.05-1.06V38.26a6.88,6.88,0,0,0-.05-1,.41.41,0,0,0-.19-.31,1.5,1.5,0,0,0-.65-.09h-.2Zm2,.13v4.43a11,11,0,0,0,0,1.26.52.52,0,0,0,.22.4,1.64,1.64,0,0,0,.77.11,3.61,3.61,0,0,0,1.42-.23,2,2,0,0,0,.93-.94,3.68,3.68,0,0,0,.38-1.77,4.93,4.93,0,0,0-.22-1.5,2.72,2.72,0,0,0-.62-1.07,2.06,2.06,0,0,0-.9-.56,4.46,4.46,0,0,0-1.27-.15Z"/><path class="cls-1" d="M267.9,42.44h.18c0,.56-.3.84-.82.84a.73.73,0,0,1-.52-.18.88.88,0,0,1-.25-.52,5.91,5.91,0,0,1-.89.52,1.81,1.81,0,0,1-.72.18,1.06,1.06,0,0,1-.7-.24.74.74,0,0,1-.3-.62,1.1,1.1,0,0,1,.5-.88,5.88,5.88,0,0,1,1.35-.73l.76-.31v-.19a2.11,2.11,0,0,0-.06-.6.55.55,0,0,0-.28-.33,1,1,0,0,0-.59-.15c-.48,0-.76.16-.81.49s-.19.49-.41.49-.3-.09-.3-.28.13-.38.4-.6a2.47,2.47,0,0,1,2.19-.12,1,1,0,0,1,.45.44,2.09,2.09,0,0,1,.11.77V42a2.68,2.68,0,0,0,.06.73.23.23,0,0,0,.25.16C267.72,42.92,267.85,42.76,267.9,42.44Zm-1.41-1.71L266,41q-1.26.51-1.26,1.29a.71.71,0,0,0,.16.49.5.5,0,0,0,.42.19,1.23,1.23,0,0,0,.53-.15,3.54,3.54,0,0,0,.68-.46Z"/><path class="cls-1" d="M270.68,42.42l.93-2.22a4.14,4.14,0,0,0,.2-.55c0-.16-.18-.24-.54-.25v-.23h1.4v.23a.7.7,0,0,0-.47.17,2.4,2.4,0,0,0-.38.7L270,44.58a3.24,3.24,0,0,1-.45.83.57.57,0,0,1-.43.22c-.21,0-.32-.09-.32-.28s.17-.41.51-.56a1.76,1.76,0,0,0,.4-.23.92.92,0,0,0,.19-.34l.38-.95-1.5-3.22a1.82,1.82,0,0,0-.33-.54.74.74,0,0,0-.45-.11v-.23h1.84v.23c-.33,0-.49.08-.49.2a2.53,2.53,0,0,0,.19.48Z"/><path class="cls-1" d="M272.1,42.81a.47.47,0,0,1,.16-.37.5.5,0,0,1,.37-.15.51.51,0,0,1,.37.15.5.5,0,0,1,.15.37.51.51,0,0,1-.15.37.53.53,0,0,1-.37.15.52.52,0,0,1-.38-.15A.53.53,0,0,1,272.1,42.81Z"/><path class="cls-1" d="M274.6,42.81a.47.47,0,0,1,.16-.37.5.5,0,0,1,.37-.15.51.51,0,0,1,.37.15.5.5,0,0,1,.15.37.51.51,0,0,1-.15.37.53.53,0,0,1-.37.15.52.52,0,0,1-.38-.15A.53.53,0,0,1,274.6,42.81Z"/><path class="cls-1" d="M277.1,42.81a.47.47,0,0,1,.16-.37.5.5,0,0,1,.37-.15.51.51,0,0,1,.37.15.5.5,0,0,1,.15.37.51.51,0,0,1-.15.37.53.53,0,0,1-.37.15.52.52,0,0,1-.38-.15A.53.53,0,0,1,277.1,42.81Z"/><polygon class="cls-2" points="287.01 50.32 235.15 50.32 247.7 9.41 299.56 9.41 287.01 50.32"/><line class="cls-3" x1="305.51" y1="23.58" x2="328.35" y2="23.58"/><polyline class="cls-4" points="326.06 26.26 328.86 23.46 325.99 20.6"/><line class="cls-3" x1="328.85" y1="36.16" x2="306.02" y2="36.16"/><polyline class="cls-4" points="308.31 33.48 305.51 36.27 308.38 39.14"/><path class="cls-1" d="M366.85,23.17h-1.78a7.88,7.88,0,0,1-1.45-1.73c-.21-.3-.42-.59-.65-.87a3.64,3.64,0,0,0-.46-.5.72.72,0,0,0-.4-.09h-.26v1.47q0,.78,0,1a.54.54,0,0,0,.2.36,1.09,1.09,0,0,0,.61.12H363v.22h-3.16V23h.21a1.18,1.18,0,0,0,.59-.11.48.48,0,0,0,.21-.33,7.67,7.67,0,0,0,0-1.06V18.2a7.34,7.34,0,0,0,0-1,.42.42,0,0,0-.2-.31,1.5,1.5,0,0,0-.65-.09h-.12v-.23l.95-.05c.63,0,1.14,0,1.51,0a5.46,5.46,0,0,1,1.54.18,2,2,0,0,1,1,.57,1.4,1.4,0,0,1,.36,1,1.49,1.49,0,0,1-.48,1.11,2.44,2.44,0,0,1-1.4.57,5.28,5.28,0,0,1,1.33,1.44,6.82,6.82,0,0,0,1.19,1.33,1.72,1.72,0,0,0,1,.33Zm-5-3.41.75,0a3.12,3.12,0,0,0,.68-.11,1.13,1.13,0,0,0,.47-.26,1.15,1.15,0,0,0,.28-.44,1.89,1.89,0,0,0,.1-.67,1.65,1.65,0,0,0-.35-1.12,2,2,0,0,0-1.52-.42l-.41,0Z"/><path class="cls-1" d="M368.48,19V21.8c0,.43,0,.7,0,.81a.37.37,0,0,0,.14.25.8.8,0,0,0,.44.09h.1v.22H367V23h.16a.69.69,0,0,0,.46-.1.39.39,0,0,0,.12-.24c0-.09,0-.36,0-.81V20.59a3.27,3.27,0,0,0-.07-.86.29.29,0,0,0-.18-.19,1.13,1.13,0,0,0-.38,0H367v-.23a5.75,5.75,0,0,0,1.35-.26Zm-.94-2a.51.51,0,0,1,.51-.51.45.45,0,0,1,.35.15.49.49,0,0,1,.15.36.5.5,0,0,1-.15.37.45.45,0,0,1-.35.15.49.49,0,0,1-.36-.15A.5.5,0,0,1,367.54,17Z"/><path class="cls-1" d="M369.78,23.3V22H370c.22.76.61,1.14,1.18,1.14a.68.68,0,0,0,.56-.23.76.76,0,0,0,.18-.49.73.73,0,0,0-.19-.52,3.62,3.62,0,0,0-.78-.48,3.17,3.17,0,0,1-.87-.58,1,1,0,0,1-.26-.7,1.19,1.19,0,0,1,.28-.76,1,1,0,0,1,.8-.36,1.08,1.08,0,0,1,.86.43,1.34,1.34,0,0,0,.19-.36h.18v1.24h-.18a1.65,1.65,0,0,0-.38-.77.86.86,0,0,0-.66-.32.64.64,0,0,0-.47.18.58.58,0,0,0-.18.42.59.59,0,0,0,.2.46,2.62,2.62,0,0,0,.74.44,2.13,2.13,0,0,1,1,.73,1.64,1.64,0,0,1,.19.7A1.12,1.12,0,0,1,372,23a1.2,1.2,0,0,1-.87.32,1.34,1.34,0,0,1-1-.45,1,1,0,0,0-.21.42Z"/><path class="cls-1" d="M375.35,19.17H377v.23a2.24,2.24,0,0,0-1.19.66c-.16.14-.41.34-.74.6l1.42,1.67a2.65,2.65,0,0,0,.51.49.79.79,0,0,0,.38.13v.22h-2V23c.33,0,.5-.08.5-.22a1.36,1.36,0,0,0-.33-.47l-1-1.19-.21.16v.57c0,.43,0,.7,0,.8a.36.36,0,0,0,.14.26.74.74,0,0,0,.43.09v.22h-2V23H373a.71.71,0,0,0,.46-.1.39.39,0,0,0,.12-.24c0-.09,0-.36,0-.81v-4a1.62,1.62,0,0,0-.11-.74c-.07-.11-.25-.16-.53-.16v-.22a5,5,0,0,0,.69-.07,2.45,2.45,0,0,0,.55-.14h.1V21l.42-.3c.68-.48,1-.82,1-1s-.12-.21-.37-.22Z"/><path class="cls-1" d="M355.88,30.73h-2.52l-.17.42a4.46,4.46,0,0,0-.38,1.19.57.57,0,0,0,.2.46.86.86,0,0,0,.52.15v.22h-2V33a1.08,1.08,0,0,0,.66-.31,4.11,4.11,0,0,0,.52-1c0-.05.09-.24.23-.57l1.92-4.59h.19l2.22,5.26.3.69a.89.89,0,0,0,.28.37.93.93,0,0,0,.51.17v.22h-2.6V33a1.88,1.88,0,0,0,.65-.07.28.28,0,0,0,.17-.28,2.93,2.93,0,0,0-.23-.64Zm-.09-.22-1.17-2.82-1.17,2.82Z"/><path class="cls-1" d="M362.15,32.2h.22a1.53,1.53,0,0,1-1.66,1.13,2,2,0,0,1-1.44-.58,2.05,2.05,0,0,1-.58-1.53,2.13,2.13,0,0,1,.63-1.6,2.09,2.09,0,0,1,1.49-.61,2.05,2.05,0,0,1,.95.23c.29.15.43.34.43.55a.32.32,0,0,1-.08.23.25.25,0,0,1-.23.11c-.21,0-.34-.12-.39-.37a.71.71,0,0,0-.19-.4.78.78,0,0,0-.49-.11,1.14,1.14,0,0,0-1,.45,2.33,2.33,0,0,0-.33,1.37,2.66,2.66,0,0,0,.35,1.47,1.21,1.21,0,0,0,1.07.54A1.16,1.16,0,0,0,362.15,32.2Z"/><path class="cls-1" d="M366.43,32.2h.21A1.52,1.52,0,0,1,365,33.33a2,2,0,0,1-1.44-.58,2.05,2.05,0,0,1-.58-1.53,2.13,2.13,0,0,1,.63-1.6,2.1,2.1,0,0,1,1.49-.61,2,2,0,0,1,.95.23c.29.15.44.34.44.55a.38.38,0,0,1-.08.23.27.27,0,0,1-.24.11c-.21,0-.34-.12-.39-.37a.79.79,0,0,0-.18-.4.83.83,0,0,0-.5-.11,1.14,1.14,0,0,0-1,.45,2.33,2.33,0,0,0-.33,1.37,2.58,2.58,0,0,0,.36,1.47,1.18,1.18,0,0,0,1.07.54A1.17,1.17,0,0,0,366.43,32.2Z"/><path class="cls-1" d="M367.25,31.17a2.1,2.1,0,0,1,.61-1.54,2.07,2.07,0,0,1,1.52-.62,2.05,2.05,0,0,1,1.51.62,2.12,2.12,0,0,1,.62,1.54,2.06,2.06,0,0,1-.63,1.59,2.26,2.26,0,0,1-3,0A2.1,2.1,0,0,1,367.25,31.17Zm.81,0a2.42,2.42,0,0,0,.34,1.49,1.19,1.19,0,0,0,1,.43,1.18,1.18,0,0,0,1-.43,2.49,2.49,0,0,0,.34-1.49,2.59,2.59,0,0,0-.34-1.5,1.15,1.15,0,0,0-1-.45,1.14,1.14,0,0,0-1,.45A2.47,2.47,0,0,0,368.06,31.19Z"/><path class="cls-1" d="M376.22,29.17V31.8c0,.43,0,.71,0,.82a.35.35,0,0,0,.15.25.9.9,0,0,0,.44.08v.22a3.06,3.06,0,0,0-1.08.16h-.06a2.15,2.15,0,0,1-.17-.93,2.08,2.08,0,0,1-.68.7,1.54,1.54,0,0,1-.84.23,1.36,1.36,0,0,1-.71-.18.93.93,0,0,1-.42-.44,2.07,2.07,0,0,1-.12-.8V30.55c0-.47,0-.75,0-.85a.32.32,0,0,0-.16-.23,1,1,0,0,0-.47-.07v-.23h1.35V32a2.66,2.66,0,0,0,.05.59.61.61,0,0,0,.25.33.82.82,0,0,0,.47.14,1.14,1.14,0,0,0,.71-.25,1.33,1.33,0,0,0,.47-.52,2.08,2.08,0,0,0,.12-.79v-.9c0-.44,0-.7,0-.8a.38.38,0,0,0-.13-.25.67.67,0,0,0-.45-.1h-.1v-.23Z"/><path class="cls-1" d="M378.46,29h.14a2.93,2.93,0,0,1,.12.83,2.6,2.6,0,0,1,.74-.62,1.69,1.69,0,0,1,.81-.21,1.43,1.43,0,0,1,.78.2,1,1,0,0,1,.39.49,3.09,3.09,0,0,1,.09.85V31.8c0,.46,0,.75,0,.85a.3.3,0,0,0,.16.22,1,1,0,0,0,.47.08v.22h-2V33h.09a.69.69,0,0,0,.46-.1.39.39,0,0,0,.12-.24c0-.09,0-.36,0-.81V30.51a3.35,3.35,0,0,0-.05-.67.59.59,0,0,0-.25-.36.78.78,0,0,0-.51-.16,1.21,1.21,0,0,0-.68.21,2.38,2.38,0,0,0-.62.64V31.8a6.65,6.65,0,0,0,0,.85.3.3,0,0,0,.16.22,1,1,0,0,0,.48.08v.22h-2V33a1,1,0,0,0,.46-.07.28.28,0,0,0,.17-.21,6.6,6.6,0,0,0,0-.87V30.61a6.65,6.65,0,0,0,0-.85.32.32,0,0,0-.15-.22,1.06,1.06,0,0,0-.48-.08v-.22A6.44,6.44,0,0,0,378.46,29Z"/><path class="cls-1" d="M385.14,29.4h-1.2v2.42a3.19,3.19,0,0,0,.05.75.58.58,0,0,0,.2.31.62.62,0,0,0,.34.11.72.72,0,0,0,.61-.4l.16.1a1,1,0,0,1-.45.48,1.17,1.17,0,0,1-.6.16.93.93,0,0,1-.61-.2.9.9,0,0,1-.34-.49,5.26,5.26,0,0,1-.06-1V29.4h-.58v-.23a1,1,0,0,0,.72-.33,1.66,1.66,0,0,0,.4-.92h.16v1.25h1.2Z"/><path class="cls-1" d="M355.28,36.61l1.09-.06c.91,0,1.52-.07,1.84-.07a4.86,4.86,0,0,1,2.3.45,2.87,2.87,0,0,1,1.22,1.22,3.77,3.77,0,0,1,.41,1.78,4,4,0,0,1-.22,1.33,2.86,2.86,0,0,1-.61,1,2.51,2.51,0,0,1-.88.6,3.45,3.45,0,0,1-1,.26,10.88,10.88,0,0,1-1.28.05h-2.94V43h.28a1.18,1.18,0,0,0,.59-.11.51.51,0,0,0,.2-.33,5.89,5.89,0,0,0,.05-1.06V38.26a5.7,5.7,0,0,0-.05-1,.41.41,0,0,0-.19-.31,1.5,1.5,0,0,0-.65-.09h-.2Zm2,.13v4.43c0,.65,0,1.07,0,1.26a.52.52,0,0,0,.22.4,1.64,1.64,0,0,0,.77.11,3.61,3.61,0,0,0,1.42-.23,1.94,1.94,0,0,0,.94-.94,3.81,3.81,0,0,0,.37-1.77,4.64,4.64,0,0,0-.22-1.5,2.61,2.61,0,0,0-.62-1.07,2.06,2.06,0,0,0-.9-.56,4.43,4.43,0,0,0-1.26-.15Z"/><path class="cls-1" d="M367.05,42.44h.19c0,.56-.31.84-.82.84a.74.74,0,0,1-.53-.18.88.88,0,0,1-.25-.52,5.45,5.45,0,0,1-.89.52,1.81,1.81,0,0,1-.72.18,1.06,1.06,0,0,1-.7-.24.73.73,0,0,1-.29-.62,1.09,1.09,0,0,1,.49-.88,6.1,6.1,0,0,1,1.35-.73l.76-.31v-.19a2.7,2.7,0,0,0-.05-.6.59.59,0,0,0-.28-.33,1.05,1.05,0,0,0-.59-.15c-.49,0-.76.16-.82.49s-.19.49-.41.49-.3-.09-.3-.28.13-.38.4-.6a2.47,2.47,0,0,1,2.19-.12,1,1,0,0,1,.45.44,2.09,2.09,0,0,1,.11.77V42a2.68,2.68,0,0,0,.06.73.23.23,0,0,0,.25.16C366.87,42.92,367,42.76,367.05,42.44Zm-1.41-1.71-.53.22q-1.26.51-1.26,1.29a.71.71,0,0,0,.16.49.52.52,0,0,0,.42.19,1.23,1.23,0,0,0,.53-.15,3.54,3.54,0,0,0,.68-.46Z"/><path class="cls-1" d="M369.83,42.42l.93-2.22a4.14,4.14,0,0,0,.2-.55c0-.16-.18-.24-.54-.25v-.23h1.41v.23a.71.71,0,0,0-.48.17,2.68,2.68,0,0,0-.38.7l-1.78,4.31a3.24,3.24,0,0,1-.45.83.55.55,0,0,1-.43.22c-.21,0-.32-.09-.32-.28s.17-.41.51-.56a1.76,1.76,0,0,0,.4-.23.91.91,0,0,0,.2-.34l.38-.95L368,40.05a1.82,1.82,0,0,0-.33-.54.74.74,0,0,0-.45-.11v-.23H369v.23c-.32,0-.49.08-.49.2a2.53,2.53,0,0,0,.19.48Z"/><path class="cls-1" d="M377.05,41h-2.4v-.29l2.79-4.06h.31v4.06h.45a1.47,1.47,0,0,0,.5,0,1.05,1.05,0,0,0,.21-.42h.22L379,41h-1.26v.83a6.74,6.74,0,0,0,0,.86.3.3,0,0,0,.16.22,1.12,1.12,0,0,0,.49.07v.22h-2.14V43h.17a.83.83,0,0,0,.42-.08.33.33,0,0,0,.15-.23,7.4,7.4,0,0,0,0-.84Zm0-.29v-3.1l-2.12,3.1Z"/><path class="cls-1" d="M382,36.62h.21V41.8c0,.43,0,.7,0,.81a.34.34,0,0,0,.14.25.74.74,0,0,0,.43.09H383v.22h-2.2V43H381a.67.67,0,0,0,.45-.1.47.47,0,0,0,.13-.24c0-.09,0-.36,0-.81V38.33c0-.44,0-.71,0-.8a.36.36,0,0,0-.13-.25.67.67,0,0,0-.45-.1h-.21V37A2.1,2.1,0,0,0,382,36.62Z"/><polygon class="cls-2" points="389.31 50.32 337.44 50.32 350 9.41 401.86 9.41 389.31 50.32"/><path class="cls-1" d="M247.84,86.51h-1.79a8.17,8.17,0,0,1-1.45-1.73c-.21-.3-.42-.59-.65-.87a3.64,3.64,0,0,0-.46-.5.7.7,0,0,0-.4-.09h-.26v1.47a7.34,7.34,0,0,0,0,1,.51.51,0,0,0,.19.36,1.09,1.09,0,0,0,.61.12H244v.22h-3.17v-.22H241a1.15,1.15,0,0,0,.59-.11.48.48,0,0,0,.21-.33,7.67,7.67,0,0,0,0-1.06V81.54a7.34,7.34,0,0,0,0-1,.39.39,0,0,0-.2-.31,1.47,1.47,0,0,0-.65-.09h-.11v-.23l.95,0,1.5,0a5.46,5.46,0,0,1,1.54.18,2,2,0,0,1,1,.57,1.41,1.41,0,0,1,.37,1,1.49,1.49,0,0,1-.48,1.11,2.47,2.47,0,0,1-1.41.57,5.25,5.25,0,0,1,1.34,1.44A6.55,6.55,0,0,0,246.82,86a1.77,1.77,0,0,0,1,.33Zm-5-3.41.76,0a3.22,3.22,0,0,0,.68-.11,1.09,1.09,0,0,0,.46-.26,1,1,0,0,0,.28-.44,1.88,1.88,0,0,0,.11-.67,1.71,1.71,0,0,0-.35-1.12,2,2,0,0,0-1.52-.42l-.42,0Z"/><path class="cls-1" d="M251.39,83.87H248.6c0,.19,0,.33,0,.43a3,3,0,0,0,.33,1.58,1.08,1.08,0,0,0,1,.53,1.29,1.29,0,0,0,1.26-.79h.23a1.36,1.36,0,0,1-.62.78,2,2,0,0,1-1,.28,1.92,1.92,0,0,1-1-.26,2,2,0,0,1-.74-.73,2.13,2.13,0,0,1-.29-1.13,2.31,2.31,0,0,1,.56-1.58,1.77,1.77,0,0,1,1.39-.63,1.57,1.57,0,0,1,1.22.48A1.7,1.7,0,0,1,251.39,83.87Zm-.85-.2a1.41,1.41,0,0,0,0-.2.85.85,0,0,0-.25-.66.86.86,0,0,0-.62-.24c-.59,0-.94.37-1.06,1.1Z"/><path class="cls-1" d="M255.59,85.54h.22a1.54,1.54,0,0,1-1.66,1.14,2,2,0,0,1-1.44-.59,2.05,2.05,0,0,1-.58-1.53,2.13,2.13,0,0,1,.63-1.6,2.09,2.09,0,0,1,1.49-.61,2.05,2.05,0,0,1,.95.23.65.65,0,0,1,.43.56.36.36,0,0,1-.08.23.26.26,0,0,1-.23.1.38.38,0,0,1-.39-.37.79.79,0,0,0-.18-.4.83.83,0,0,0-.5-.11,1.14,1.14,0,0,0-1,.45,2.35,2.35,0,0,0-.33,1.37,2.66,2.66,0,0,0,.35,1.47,1.21,1.21,0,0,0,1.07.54A1.16,1.16,0,0,0,255.59,85.54Z"/><path class="cls-1" d="M260,83.87h-2.79c0,.19,0,.33,0,.43a3,3,0,0,0,.33,1.58,1.07,1.07,0,0,0,1,.53,1.27,1.27,0,0,0,1.26-.79H260a1.4,1.4,0,0,1-.62.78,2,2,0,0,1-1,.28,1.92,1.92,0,0,1-1-.26,2,2,0,0,1-.74-.73,2.13,2.13,0,0,1-.29-1.13A2.31,2.31,0,0,1,257,83a1.77,1.77,0,0,1,1.39-.63,1.53,1.53,0,0,1,1.21.48A1.66,1.66,0,0,1,260,83.87Zm-.86-.2a1.5,1.5,0,0,0,0-.2.84.84,0,0,0-.87-.9c-.59,0-.95.37-1.06,1.1Z"/><path class="cls-1" d="M261.8,82.35h.13a2.61,2.61,0,0,1,.12.83,2.6,2.6,0,0,1,.74-.62,1.69,1.69,0,0,1,.81-.21,1.41,1.41,0,0,1,.78.2.85.85,0,0,1,.39.5,3,3,0,0,1,.09.84v1.25a6.65,6.65,0,0,0,0,.85.27.27,0,0,0,.15.22,1.06,1.06,0,0,0,.48.08v.22h-2v-.22h.09a.69.69,0,0,0,.46-.1.39.39,0,0,0,.12-.24c0-.09,0-.36,0-.81V83.85a3.35,3.35,0,0,0-.05-.67.59.59,0,0,0-.25-.36.76.76,0,0,0-.51-.16,1.21,1.21,0,0,0-.68.21,2.53,2.53,0,0,0-.62.64v1.63a6.65,6.65,0,0,0,0,.85.3.3,0,0,0,.16.22,1,1,0,0,0,.48.08v.22h-2v-.22a1.07,1.07,0,0,0,.47-.07.29.29,0,0,0,.16-.21,6.6,6.6,0,0,0,0-.87V84a6.65,6.65,0,0,0,0-.85.29.29,0,0,0-.15-.22,1.06,1.06,0,0,0-.48-.08v-.22A5.84,5.84,0,0,0,261.8,82.35Z"/><path class="cls-1" d="M268.48,82.74h-1.21v2.42a3.88,3.88,0,0,0,.05.75.51.51,0,0,0,.21.31.58.58,0,0,0,.34.11.74.74,0,0,0,.61-.4l.15.1a1,1,0,0,1-.45.48,1.18,1.18,0,0,1-.59.17,1,1,0,0,1-.62-.21.83.83,0,0,1-.33-.49,4.31,4.31,0,0,1-.07-1V82.74H266v-.22a1,1,0,0,0,.72-.34,1.66,1.66,0,0,0,.4-.92h.16v1.26h1.21Z"/><path class="cls-1" d="M236.16,91.12v-.23h3v.23H239a1.71,1.71,0,0,0-.64.08.4.4,0,0,0-.2.3,6.76,6.76,0,0,0,0,1v3.25q0,.78,0,1a.52.52,0,0,0,.2.36,1.09,1.09,0,0,0,.61.12h.19v.22h-3v-.22h.19a1.18,1.18,0,0,0,.59-.11.48.48,0,0,0,.21-.33,7.67,7.67,0,0,0,0-1.06V92.54a7.34,7.34,0,0,0,0-1,.42.42,0,0,0-.2-.31,1.5,1.5,0,0,0-.65-.09Z"/><path class="cls-1" d="M240.84,93.35h0a2.23,2.23,0,0,1,.14.84,2.4,2.4,0,0,1,.7-.63,1.7,1.7,0,0,1,.82-.21,1.33,1.33,0,0,1,.8.23,1.19,1.19,0,0,1,.43.67,2.88,2.88,0,0,1,.76-.67,1.6,1.6,0,0,1,.8-.23,1.4,1.4,0,0,1,.78.22.81.81,0,0,1,.39.49,3.69,3.69,0,0,1,.07.88v1.2a6.53,6.53,0,0,0,0,.85.34.34,0,0,0,.15.23,1.12,1.12,0,0,0,.49.07v.22h-2v-.22a.92.92,0,0,0,.44-.07.3.3,0,0,0,.16-.22,6.51,6.51,0,0,0,0-.86V94.81a3.17,3.17,0,0,0,0-.61.61.61,0,0,0-.25-.35.78.78,0,0,0-.5-.15,1.1,1.1,0,0,0-.64.22,2.64,2.64,0,0,0-.64.65v1.57c0,.43,0,.7,0,.81a.39.39,0,0,0,.14.25.74.74,0,0,0,.43.09v.22h-1.93v-.22a1,1,0,0,0,.45-.07.27.27,0,0,0,.16-.21,6.6,6.6,0,0,0,0-.87V95a4.68,4.68,0,0,0,0-.76.65.65,0,0,0-.25-.41.81.81,0,0,0-.52-.16,1.17,1.17,0,0,0-.62.19,2.84,2.84,0,0,0-.64.59v1.66c0,.44,0,.72,0,.82a.32.32,0,0,0,.15.25.92.92,0,0,0,.45.08v.22h-2v-.22a.94.94,0,0,0,.45-.07.31.31,0,0,0,.16-.21,6.83,6.83,0,0,0,0-.87V95c0-.46,0-.74,0-.84a.34.34,0,0,0-.15-.23.9.9,0,0,0-.47-.08v-.23A4.6,4.6,0,0,0,240.84,93.35Z"/><path class="cls-1" d="M248.86,93.35h0a2.23,2.23,0,0,1,.14.84,2.43,2.43,0,0,1,.71-.63,1.63,1.63,0,0,1,.81-.21,1.31,1.31,0,0,1,.8.23,1.14,1.14,0,0,1,.43.67,2.88,2.88,0,0,1,.76-.67,1.6,1.6,0,0,1,.8-.23,1.38,1.38,0,0,1,.78.22.87.87,0,0,1,.4.49,4.51,4.51,0,0,1,.06.88v1.2a6.53,6.53,0,0,0,0,.85.32.32,0,0,0,.16.23,1,1,0,0,0,.48.07v.22h-2v-.22a1,1,0,0,0,.45-.07.33.33,0,0,0,.16-.22,6.51,6.51,0,0,0,0-.86V94.81a3,3,0,0,0,0-.61.59.59,0,0,0-.24-.35.81.81,0,0,0-.51-.15,1.12,1.12,0,0,0-.64.22,2.82,2.82,0,0,0-.64.65v1.57c0,.43,0,.7,0,.81a.34.34,0,0,0,.13.25.76.76,0,0,0,.43.09v.22h-1.93v-.22a.94.94,0,0,0,.45-.07.27.27,0,0,0,.16-.21,4.63,4.63,0,0,0,0-.87V95a6.23,6.23,0,0,0,0-.76.71.71,0,0,0-.26-.41.81.81,0,0,0-.52-.16,1.17,1.17,0,0,0-.62.19,2.84,2.84,0,0,0-.64.59v1.66c0,.44,0,.72,0,.82a.32.32,0,0,0,.15.25.92.92,0,0,0,.45.08v.22h-2v-.22a1,1,0,0,0,.46-.07.32.32,0,0,0,.15-.21,6.83,6.83,0,0,0,0-.87V95a7.4,7.4,0,0,0,0-.84.28.28,0,0,0-.15-.23.9.9,0,0,0-.47-.08v-.23A4.51,4.51,0,0,0,248.86,93.35Z"/><path class="cls-1" d="M259.64,93.52v2.62a7.39,7.39,0,0,0,0,.82.34.34,0,0,0,.14.25.92.92,0,0,0,.45.08v.22a3.09,3.09,0,0,0-1.09.16h-.05a2,2,0,0,1-.17-.93,2.17,2.17,0,0,1-.68.7,1.58,1.58,0,0,1-.85.24,1.39,1.39,0,0,1-.71-.19,1,1,0,0,1-.42-.44,2.1,2.1,0,0,1-.11-.8V94.89a6.65,6.65,0,0,0,0-.85.31.31,0,0,0-.15-.23,1.09,1.09,0,0,0-.48-.07v-.22h1.36v2.77a2.16,2.16,0,0,0,.05.59.53.53,0,0,0,.25.33.81.81,0,0,0,.46.14,1.19,1.19,0,0,0,.72-.25,1.29,1.29,0,0,0,.46-.52,1.85,1.85,0,0,0,.13-.79v-.9c0-.44,0-.7,0-.8a.41.41,0,0,0-.13-.24.7.7,0,0,0-.46-.11h-.1v-.22Z"/><path class="cls-1" d="M261.88,93.35H262a2.57,2.57,0,0,1,.13.83,2.47,2.47,0,0,1,.74-.62,1.62,1.62,0,0,1,.8-.21,1.41,1.41,0,0,1,.78.2.91.91,0,0,1,.4.5,3,3,0,0,1,.09.84v1.25a7.62,7.62,0,0,0,0,.85.32.32,0,0,0,.15.22,1.06,1.06,0,0,0,.48.08v.22h-2.05v-.22h.1a.72.72,0,0,0,.46-.1.39.39,0,0,0,.12-.24c0-.09,0-.36,0-.81V94.85a3.55,3.55,0,0,0,0-.67.63.63,0,0,0-.25-.36.81.81,0,0,0-.52-.16,1.23,1.23,0,0,0-.68.21,2.35,2.35,0,0,0-.61.64v1.63c0,.46,0,.75,0,.85a.3.3,0,0,0,.16.22,1.06,1.06,0,0,0,.48.08v.22h-2v-.22a1,1,0,0,0,.47-.07.27.27,0,0,0,.16-.21,6.6,6.6,0,0,0,0-.87V95a7.62,7.62,0,0,0,0-.85.3.3,0,0,0-.16-.22,1,1,0,0,0-.48-.08v-.22A5.68,5.68,0,0,0,261.88,93.35Z"/><path class="cls-1" d="M267.43,93.35v2.79a7.17,7.17,0,0,0,0,.81.34.34,0,0,0,.14.25.74.74,0,0,0,.43.09h.1v.22H266v-.22h.17a.67.67,0,0,0,.45-.1.39.39,0,0,0,.12-.24c0-.09,0-.36,0-.81V94.93a2.86,2.86,0,0,0-.07-.86.3.3,0,0,0-.17-.19,1.24,1.24,0,0,0-.39,0H266v-.23a5.75,5.75,0,0,0,1.35-.26Zm-.95-2a.51.51,0,0,1,.87-.36.48.48,0,0,1,.14.36.5.5,0,0,1-.86.37A.5.5,0,0,1,266.48,91.31Z"/><path class="cls-1" d="M271.06,93.74h-1.21v2.42a3.88,3.88,0,0,0,0,.75.51.51,0,0,0,.21.31.62.62,0,0,0,.34.11.73.73,0,0,0,.61-.4l.16.1a1.1,1.1,0,0,1-.45.48,1.24,1.24,0,0,1-.6.17,1,1,0,0,1-.62-.21.88.88,0,0,1-.33-.49,5,5,0,0,1-.07-1V93.74h-.58v-.22a1,1,0,0,0,.72-.34,1.67,1.67,0,0,0,.41-.92h.15v1.26h1.21Z"/><path class="cls-1" d="M273.82,96.76l.93-2.22A4.14,4.14,0,0,0,275,94c0-.16-.18-.24-.54-.25v-.22h1.4v.22a.7.7,0,0,0-.47.17,2.4,2.4,0,0,0-.38.7l-1.78,4.31a3.06,3.06,0,0,1-.45.83.57.57,0,0,1-.43.23c-.21,0-.32-.1-.32-.29s.17-.41.51-.56a1.76,1.76,0,0,0,.4-.23,1.07,1.07,0,0,0,.2-.34l.38-1L272,94.39a1.82,1.82,0,0,0-.33-.54.74.74,0,0,0-.45-.11v-.22H273v.22c-.33,0-.49.08-.49.2a2.53,2.53,0,0,0,.19.48Z"/><rect class="cls-5" x="229.9" y="68.16" width="51.92" height="42.82"/><path class="cls-1" d="M68.76,83.69h2.85v.23A1.35,1.35,0,0,0,71,84a.45.45,0,0,0-.22.31,6,6,0,0,0,0,1.08v.7l-.21,0a3,3,0,0,0-1,.23,4.38,4.38,0,0,1-1.54.32,3.21,3.21,0,0,1-3.3-3.31,3.73,3.73,0,0,1,.89-2.49A3,3,0,0,1,68,79.77a2.81,2.81,0,0,1,2.19,1A2.33,2.33,0,0,0,70.4,80h.23v2.21H70.4a2.59,2.59,0,0,0-.78-1.61,2.14,2.14,0,0,0-1.53-.6,2.24,2.24,0,0,0-1.63.69,3.49,3.49,0,0,0-.69,2.47,3.66,3.66,0,0,0,.67,2.49,2.15,2.15,0,0,0,1.66.74,2,2,0,0,0,.92-.21,1.21,1.21,0,0,0,.57-.51,1.61,1.61,0,0,0,.15-.75,2.23,2.23,0,0,0-.07-.71.4.4,0,0,0-.22-.24,1.65,1.65,0,0,0-.54-.06h-.15Z"/><path class="cls-1" d="M75.85,83.87H73.06c0,.19,0,.33,0,.43a3,3,0,0,0,.33,1.58,1.07,1.07,0,0,0,1,.53,1.29,1.29,0,0,0,1.26-.79h.24a1.4,1.4,0,0,1-.62.78,2,2,0,0,1-1,.28,1.92,1.92,0,0,1-1-.26,2,2,0,0,1-.74-.73,2,2,0,0,1-.29-1.13A2.27,2.27,0,0,1,72.79,83a1.77,1.77,0,0,1,1.39-.63,1.53,1.53,0,0,1,1.21.48A1.66,1.66,0,0,1,75.85,83.87Zm-.86-.2a1.5,1.5,0,0,0,0-.2.84.84,0,0,0-.87-.9c-.59,0-1,.37-1.06,1.1Z"/><path class="cls-1" d="M76.6,84.51A2.1,2.1,0,0,1,77.21,83a2.17,2.17,0,0,1,3,0,2.3,2.3,0,0,1,0,3.13,2.18,2.18,0,0,1-1.51.58,2.14,2.14,0,0,1-1.51-.59A2.09,2.09,0,0,1,76.6,84.51Zm.81,0A2.34,2.34,0,0,0,77.76,86a1.16,1.16,0,0,0,1,.43,1.18,1.18,0,0,0,1-.43,2.49,2.49,0,0,0,.34-1.49,2.59,2.59,0,0,0-.34-1.5,1.15,1.15,0,0,0-1-.45,1.14,1.14,0,0,0-1,.45A2.49,2.49,0,0,0,77.41,84.53Z"/><path class="cls-1" d="M66.85,97.51H65.07a7.88,7.88,0,0,1-1.45-1.73c-.21-.3-.42-.59-.65-.87a3.64,3.64,0,0,0-.46-.5.72.72,0,0,0-.4-.09h-.26v1.47q0,.78,0,1a.52.52,0,0,0,.2.36,1.09,1.09,0,0,0,.61.12H63v.22H59.84v-.22h.21a1.18,1.18,0,0,0,.59-.11.48.48,0,0,0,.21-.33,7.67,7.67,0,0,0,0-1.06V92.54a7.34,7.34,0,0,0,0-1,.42.42,0,0,0-.2-.31,1.5,1.5,0,0,0-.65-.09h-.12v-.23l.95,0,1.51,0a5.46,5.46,0,0,1,1.54.18,2.11,2.11,0,0,1,1,.57,1.4,1.4,0,0,1,.36,1,1.49,1.49,0,0,1-.48,1.11,2.44,2.44,0,0,1-1.4.57,5.42,5.42,0,0,1,1.34,1.44A6.55,6.55,0,0,0,65.84,97a1.72,1.72,0,0,0,1,.33Zm-5-3.41.75,0a3.12,3.12,0,0,0,.68-.11,1.13,1.13,0,0,0,.47-.26,1.15,1.15,0,0,0,.28-.44,1.89,1.89,0,0,0,.1-.67,1.65,1.65,0,0,0-.35-1.12,2,2,0,0,0-1.52-.42l-.41,0Z"/><path class="cls-1" d="M70.41,94.87H67.62c0,.19,0,.33,0,.43a3,3,0,0,0,.33,1.58,1.07,1.07,0,0,0,1,.53,1.27,1.27,0,0,0,1.26-.79h.24a1.4,1.4,0,0,1-.62.78,2,2,0,0,1-1,.28,1.92,1.92,0,0,1-1-.26,2,2,0,0,1-.74-.73,2,2,0,0,1-.29-1.13A2.27,2.27,0,0,1,67.35,94a1.77,1.77,0,0,1,1.39-.63,1.53,1.53,0,0,1,1.21.48A1.66,1.66,0,0,1,70.41,94.87Zm-.86-.2a1.5,1.5,0,0,0,0-.2.84.84,0,0,0-.87-.9c-.59,0-1,.37-1.06,1.1Z"/><path class="cls-1" d="M74.22,93.87a1.11,1.11,0,0,1,.84-.47.48.48,0,0,1,.36.13.35.35,0,0,1,.13.27c0,.22-.1.33-.29.33a.34.34,0,0,1-.28-.2c-.07-.13-.15-.19-.23-.19a.6.6,0,0,0-.41.25,1.57,1.57,0,0,1,.26.85,1.48,1.48,0,0,1-.42,1,2,2,0,0,1-1.42.49c-.69,0-1,.16-1,.42s.07.2.23.25a4.73,4.73,0,0,0,1,.12,5.79,5.79,0,0,1,1.24.15,1.2,1.2,0,0,1,.69.44,1.3,1.3,0,0,1-.27,1.83,2.53,2.53,0,0,1-1.52.4,2.59,2.59,0,0,1-1.45-.36,1,1,0,0,1-.55-.88.71.71,0,0,1,.16-.49.52.52,0,0,1,.44-.19.32.32,0,0,1,.14,0,1,1,0,0,0-.3.7.82.82,0,0,0,.4.71,2.1,2.1,0,0,0,1.21.29,1.9,1.9,0,0,0,1.11-.29.87.87,0,0,0,.4-.73.72.72,0,0,0-.36-.69A3.1,3.1,0,0,0,73,97.84a3,3,0,0,1-1.36-.26.62.62,0,0,1-.31-.54c0-.43.29-.7.89-.81a2.15,2.15,0,0,1-.7-.62,1.38,1.38,0,0,1-.23-.79,1.35,1.35,0,0,1,.48-1,1.68,1.68,0,0,1,1.14-.43A1.75,1.75,0,0,1,74.22,93.87ZM72,94.93a1.31,1.31,0,0,0,.26.92.85.85,0,0,0,1.29,0,1.49,1.49,0,0,0,.27-1,1.37,1.37,0,0,0-.28-1,.92.92,0,0,0-.64-.27.76.76,0,0,0-.68.34A1.82,1.82,0,0,0,72,94.93Z"/><path class="cls-1" d="M77.09,93.35v2.79a7.17,7.17,0,0,0,0,.81.34.34,0,0,0,.14.25.74.74,0,0,0,.43.09h.11v.22H75.63v-.22h.17a.67.67,0,0,0,.45-.1.39.39,0,0,0,.12-.24c0-.09,0-.36,0-.81V94.93a2.86,2.86,0,0,0-.07-.86.3.3,0,0,0-.17-.19,1.2,1.2,0,0,0-.39,0h-.13v-.23A5.75,5.75,0,0,0,77,93.35Zm-1-2a.51.51,0,0,1,1,0,.5.5,0,0,1-.15.37.51.51,0,0,1-.72,0A.5.5,0,0,1,76.14,91.31Z"/><path class="cls-1" d="M78.35,95.51A2.1,2.1,0,0,1,79,94a2.07,2.07,0,0,1,1.52-.62A2.05,2.05,0,0,1,82,94a2.12,2.12,0,0,1,.62,1.54A2.06,2.06,0,0,1,82,97.1a2.15,2.15,0,0,1-1.5.58A2.12,2.12,0,0,1,79,97.09,2,2,0,0,1,78.35,95.51Zm.81,0A2.42,2.42,0,0,0,79.5,97a1.18,1.18,0,0,0,1,.43,1.15,1.15,0,0,0,1-.43,2.42,2.42,0,0,0,.34-1.49,2.6,2.6,0,0,0-.33-1.5,1.15,1.15,0,0,0-1-.45,1.14,1.14,0,0,0-1,.45A2.49,2.49,0,0,0,79.16,95.53Z"/><path class="cls-1" d="M84.35,93.35h.13a2.57,2.57,0,0,1,.13.83,2.6,2.6,0,0,1,.74-.62,1.65,1.65,0,0,1,.8-.21,1.47,1.47,0,0,1,.79.2.94.94,0,0,1,.39.5,3,3,0,0,1,.09.84v1.25c0,.46,0,.75,0,.85a.3.3,0,0,0,.16.22,1,1,0,0,0,.47.08v.22H86v-.22h.09a.71.71,0,0,0,.46-.1A.39.39,0,0,0,86.7,97c0-.09,0-.36,0-.81V94.85a3.35,3.35,0,0,0,0-.67.59.59,0,0,0-.25-.36.78.78,0,0,0-.51-.16,1.27,1.27,0,0,0-.69.21,2.51,2.51,0,0,0-.61.64v1.63a6.65,6.65,0,0,0,0,.85.32.32,0,0,0,.15.22,1.08,1.08,0,0,0,.49.08v.22h-2v-.22a1,1,0,0,0,.47-.07.28.28,0,0,0,.17-.21,6.6,6.6,0,0,0,0-.87V95a6.65,6.65,0,0,0,0-.85.3.3,0,0,0-.16-.22,1,1,0,0,0-.48-.08v-.22A5.53,5.53,0,0,0,84.35,93.35Z"/><rect class="cls-5" x="47.98" y="68.16" width="51.92" height="42.82"/><path class="cls-1" d="M338,81.85h-1.78a7.76,7.76,0,0,1-1.45-1.74c-.21-.3-.42-.58-.65-.86a3.64,3.64,0,0,0-.46-.5.72.72,0,0,0-.4-.09H333v1.47q0,.78,0,1a.54.54,0,0,0,.2.36,1.09,1.09,0,0,0,.61.12h.32v.22H331v-.22h.21a1.18,1.18,0,0,0,.59-.11.48.48,0,0,0,.21-.33,7.77,7.77,0,0,0,0-1.06V76.88a7.15,7.15,0,0,0,0-1,.46.46,0,0,0-.2-.32,1.74,1.74,0,0,0-.65-.08h-.12v-.23l.95,0c.63,0,1.13,0,1.51,0a5.91,5.91,0,0,1,1.54.17,2.12,2.12,0,0,1,1,.58,1.4,1.4,0,0,1,.36,1,1.49,1.49,0,0,1-.48,1.11,2.44,2.44,0,0,1-1.4.57A5.42,5.42,0,0,1,335.83,80,6.55,6.55,0,0,0,337,81.3a1.87,1.87,0,0,0,1,.33Zm-5-3.42.75,0a3.12,3.12,0,0,0,.68-.11,1.25,1.25,0,0,0,.47-.26,1.15,1.15,0,0,0,.28-.44,1.89,1.89,0,0,0,.1-.67,1.65,1.65,0,0,0-.35-1.12,2,2,0,0,0-1.52-.42,3,3,0,0,0-.41,0Z"/><path class="cls-1" d="M341.58,79.21h-2.79c0,.19,0,.33,0,.43a3,3,0,0,0,.33,1.58,1.09,1.09,0,0,0,1,.53,1.29,1.29,0,0,0,1.26-.8h.24a1.34,1.34,0,0,1-.62.78,2,2,0,0,1-2,0,2.07,2.07,0,0,1-1-1.87,2.24,2.24,0,0,1,.56-1.57,1.77,1.77,0,0,1,1.39-.63,1.53,1.53,0,0,1,1.21.48A1.64,1.64,0,0,1,341.58,79.21Zm-.86-.2a1.5,1.5,0,0,0,0-.2.83.83,0,0,0-.87-.9c-.59,0-.95.36-1.06,1.1Z"/><path class="cls-1" d="M345.78,80.88H346A1.55,1.55,0,0,1,344.34,82a2,2,0,0,1-1.44-.58,2.06,2.06,0,0,1-.59-1.54,2.12,2.12,0,0,1,2.12-2.2,2.06,2.06,0,0,1,1,.23c.29.15.43.34.43.55a.38.38,0,0,1-.08.23.27.27,0,0,1-.23.11c-.22,0-.35-.12-.4-.38a.75.75,0,0,0-.18-.39.73.73,0,0,0-.49-.11,1.15,1.15,0,0,0-1,.45,2.33,2.33,0,0,0-.32,1.37,2.58,2.58,0,0,0,.35,1.47,1.19,1.19,0,0,0,1.07.53A1.15,1.15,0,0,0,345.78,80.88Z"/><path class="cls-1" d="M350.22,79.21h-2.78a3.82,3.82,0,0,0,0,.43,3,3,0,0,0,.33,1.58,1.08,1.08,0,0,0,1,.53A1.3,1.3,0,0,0,350,81h.23a1.3,1.3,0,0,1-.62.78,1.85,1.85,0,0,1-1,.28,2,2,0,0,1-1-.25,2,2,0,0,1-1-1.87,2.28,2.28,0,0,1,.55-1.57,1.78,1.78,0,0,1,1.39-.63,1.55,1.55,0,0,1,1.22.48A1.58,1.58,0,0,1,350.22,79.21Zm-.85-.2a1.41,1.41,0,0,0,0-.2.83.83,0,0,0-.86-.9c-.6,0-.95.36-1.06,1.1Z"/><path class="cls-1" d="M352,77.69h.13a2.53,2.53,0,0,1,.13.83,2.44,2.44,0,0,1,.74-.62,1.65,1.65,0,0,1,.8-.21,1.47,1.47,0,0,1,.79.2,1,1,0,0,1,.39.49,3.09,3.09,0,0,1,.09.85v1.25c0,.46,0,.74,0,.85a.3.3,0,0,0,.16.22,1,1,0,0,0,.47.08v.22h-2v-.22h.09a.78.78,0,0,0,.46-.1.39.39,0,0,0,.12-.24c0-.1,0-.36,0-.81V79.19a3.35,3.35,0,0,0-.05-.67.59.59,0,0,0-.25-.36.78.78,0,0,0-.51-.16,1.27,1.27,0,0,0-.69.21,2.35,2.35,0,0,0-.61.64v1.63a6.76,6.76,0,0,0,0,.85.32.32,0,0,0,.15.22,1.08,1.08,0,0,0,.49.08v.22h-2v-.22a1.21,1.21,0,0,0,.47-.07.32.32,0,0,0,.17-.21,6.6,6.6,0,0,0,0-.87V79.29a6.53,6.53,0,0,0,0-.85.3.3,0,0,0-.16-.22,1,1,0,0,0-.48-.08v-.22A6.34,6.34,0,0,0,352,77.69Z"/><path class="cls-1" d="M358.66,78.08h-1.2V80.5a3,3,0,0,0,.05.74.51.51,0,0,0,.2.31.56.56,0,0,0,.34.12.72.72,0,0,0,.61-.4l.16.09a1,1,0,0,1-.45.49,1.2,1.2,0,0,1-.6.16,1,1,0,0,1-.61-.2.9.9,0,0,1-.34-.49,5.39,5.39,0,0,1-.06-1V78.08h-.58v-.23a1,1,0,0,0,.71-.33,1.6,1.6,0,0,0,.41-.92h.16v1.25h1.2Z"/><path class="cls-1" d="M333.23,93l-4.68-6.2v4.59a2.92,2.92,0,0,0,.06.75.58.58,0,0,0,.32.34,1.63,1.63,0,0,0,.79.15v.22h-2.47v-.22a1.8,1.8,0,0,0,.72-.18.55.55,0,0,0,.29-.3,3,3,0,0,0,.05-.76V87.88a4.49,4.49,0,0,0-.07-1,.47.47,0,0,0-.23-.33,1.94,1.94,0,0,0-.68-.07v-.23h1.95l3.92,5.18v-4a1.43,1.43,0,0,0-.09-.61.62.62,0,0,0-.37-.28,1.83,1.83,0,0,0-.66-.1v-.23h2.4v.23a1.6,1.6,0,0,0-.66.16.54.54,0,0,0-.31.3,1.76,1.76,0,0,0-.07.61V93Z"/><path class="cls-1" d="M338.57,90.21h-2.79c0,.19,0,.33,0,.43a3,3,0,0,0,.33,1.58,1.1,1.1,0,0,0,1,.53,1.3,1.3,0,0,0,1.26-.8h.23a1.3,1.3,0,0,1-.62.78,2,2,0,0,1-2,0,2.07,2.07,0,0,1-.74-.73,2.14,2.14,0,0,1-.29-1.14,2.29,2.29,0,0,1,.56-1.57,1.77,1.77,0,0,1,1.39-.63,1.57,1.57,0,0,1,1.22.48A1.68,1.68,0,0,1,338.57,90.21Zm-.85-.2c0-.07,0-.14,0-.2a.87.87,0,0,0-.25-.67.91.91,0,0,0-.62-.23c-.59,0-.95.36-1.06,1.1Z"/><path class="cls-1" d="M342.38,89.21a1.11,1.11,0,0,1,.84-.47.51.51,0,0,1,.36.12.38.38,0,0,1,.13.28c0,.22-.1.32-.29.32a.32.32,0,0,1-.28-.2c-.07-.12-.15-.18-.22-.18a.56.56,0,0,0-.41.25,1.65,1.65,0,0,1,.25.85,1.48,1.48,0,0,1-.42,1,2,2,0,0,1-1.42.49c-.69,0-1,.16-1,.42s.08.2.23.25a4.84,4.84,0,0,0,1,.12,5.7,5.7,0,0,1,1.24.15,1.2,1.2,0,0,1,.69.44,1.25,1.25,0,0,1,.26.79,1.23,1.23,0,0,1-.53,1,2.49,2.49,0,0,1-1.51.39,2.61,2.61,0,0,1-1.46-.35,1,1,0,0,1-.55-.89.78.78,0,0,1,.16-.49.55.55,0,0,1,.44-.19.37.37,0,0,1,.15,0,1,1,0,0,0-.31.7.83.83,0,0,0,.41.71,2.07,2.07,0,0,0,1.2.28,1.88,1.88,0,0,0,1.11-.28.86.86,0,0,0,.4-.73.72.72,0,0,0-.36-.69,3.24,3.24,0,0,0-1.27-.24,2.94,2.94,0,0,1-1.36-.25.63.63,0,0,1-.31-.55c0-.42.3-.69.89-.8a2.06,2.06,0,0,1-.7-.63,1.4,1.4,0,0,1-.23-.78,1.33,1.33,0,0,1,.48-1,1.64,1.64,0,0,1,1.14-.43A1.72,1.72,0,0,1,342.38,89.21Zm-2.2,1.06a1.37,1.37,0,0,0,.26.92.85.85,0,0,0,1.3,0,1.5,1.5,0,0,0,.26-1,1.36,1.36,0,0,0-.28-1,.9.9,0,0,0-.64-.27.74.74,0,0,0-.67.33A1.88,1.88,0,0,0,340.18,90.27Z"/><path class="cls-1" d="M348.14,92.12h.18c0,.56-.3.84-.82.84a.76.76,0,0,1-.53-.18.94.94,0,0,1-.25-.52,5.06,5.06,0,0,1-.89.52,1.81,1.81,0,0,1-.72.18,1.08,1.08,0,0,1-.7-.24.77.77,0,0,1-.29-.62,1.09,1.09,0,0,1,.49-.88,6.21,6.21,0,0,1,1.36-.73l.75-.31V90a2.2,2.2,0,0,0-.05-.6.64.64,0,0,0-.28-.34,1.12,1.12,0,0,0-.59-.14c-.49,0-.76.16-.81.49s-.19.49-.41.49-.3-.09-.3-.28.13-.38.39-.6a2.49,2.49,0,0,1,2.2-.12,1.12,1.12,0,0,1,.45.44,2.07,2.07,0,0,1,.11.76v1.62a2.68,2.68,0,0,0,.06.73.24.24,0,0,0,.25.16C348,92.6,348.09,92.44,348.14,92.12Zm-1.42-1.71-.53.22q-1.26.51-1.26,1.29a.76.76,0,0,0,.16.49.52.52,0,0,0,.42.19,1.27,1.27,0,0,0,.54-.15,4,4,0,0,0,.67-.46Z"/><path class="cls-1" d="M351.07,89.08h-1.21V91.5a3.68,3.68,0,0,0,.05.74.49.49,0,0,0,.21.31.56.56,0,0,0,.34.12.73.73,0,0,0,.61-.4l.16.09a1.07,1.07,0,0,1-.45.49,1.23,1.23,0,0,1-.6.16,1,1,0,0,1-.62-.2.88.88,0,0,1-.33-.49,5.39,5.39,0,0,1-.06-1V89.08h-.59v-.23a1,1,0,0,0,.72-.33,1.67,1.67,0,0,0,.41-.92h.15v1.25h1.21Z"/><path class="cls-1" d="M352.85,88.69v2.79c0,.43,0,.7,0,.81a.34.34,0,0,0,.14.25.78.78,0,0,0,.44.09h.1v.22H351.4v-.22h.16a.74.74,0,0,0,.45-.1.41.41,0,0,0,.13-.24c0-.09,0-.36,0-.81V90.27a3.41,3.41,0,0,0-.06-.86.4.4,0,0,0-.18-.2,1.62,1.62,0,0,0-.38,0h-.13V89a5.54,5.54,0,0,0,1.34-.26Zm-.94-2a.51.51,0,0,1,.51-.51.45.45,0,0,1,.35.15.49.49,0,0,1,.15.36.51.51,0,0,1-.15.37.45.45,0,0,1-.35.15.49.49,0,0,1-.36-.15A.51.51,0,0,1,351.91,86.65Z"/><path class="cls-1" d="M356.17,93h-.29l-1.42-3.2a2.76,2.76,0,0,0-.33-.6.55.55,0,0,0-.4-.13v-.23h1.81v.23a1,1,0,0,0-.41,0,.18.18,0,0,0-.11.18,1.59,1.59,0,0,0,.2.52l1.07,2.43,1-2.16a2.43,2.43,0,0,0,.23-.68c0-.21-.17-.33-.49-.34v-.23h1.34v.23a.57.57,0,0,0-.41.21,3.43,3.43,0,0,0-.47.86Z"/><path class="cls-1" d="M362.13,90.21h-2.79c0,.19,0,.33,0,.43a3,3,0,0,0,.33,1.58,1.09,1.09,0,0,0,1,.53,1.28,1.28,0,0,0,1.26-.8h.24a1.34,1.34,0,0,1-.62.78,2,2,0,0,1-2,0,2.07,2.07,0,0,1-.74-.73,2.14,2.14,0,0,1-.29-1.14,2.29,2.29,0,0,1,.56-1.57,1.77,1.77,0,0,1,1.39-.63,1.57,1.57,0,0,1,1.22.48A1.68,1.68,0,0,1,362.13,90.21Zm-.86-.2a1.5,1.5,0,0,0,0-.2.87.87,0,0,0-.25-.67.91.91,0,0,0-.62-.23c-.59,0-.95.36-1.06,1.1Z"/><path class="cls-1" d="M336.56,98.82h-.22l0-1.59h6.43l0,1.59h-.21a2.44,2.44,0,0,0-.31-.94.82.82,0,0,0-.42-.36,3.3,3.3,0,0,0-.76-.06h-1.07v4.67a9.49,9.49,0,0,0,0,1,.5.5,0,0,0,.2.36,1.08,1.08,0,0,0,.6.12h.33v.22h-3.3v-.22h.34a1.11,1.11,0,0,0,.58-.11.48.48,0,0,0,.21-.33,6,6,0,0,0,.05-1.06V97.46h-1a3.94,3.94,0,0,0-.86.06.74.74,0,0,0-.41.37A2.52,2.52,0,0,0,336.56,98.82Z"/><path class="cls-1" d="M346,101.21h-2.79a3.82,3.82,0,0,0,0,.43,3,3,0,0,0,.33,1.58,1.08,1.08,0,0,0,1,.53,1.3,1.3,0,0,0,1.26-.8H346a1.38,1.38,0,0,1-.62.78,1.91,1.91,0,0,1-1,.28,2,2,0,0,1-1-.25,2.08,2.08,0,0,1-1-1.87,2.28,2.28,0,0,1,.55-1.57,1.79,1.79,0,0,1,1.4-.63,1.55,1.55,0,0,1,1.21.48A1.64,1.64,0,0,1,346,101.21Zm-.86-.2a1.5,1.5,0,0,0,0-.2.84.84,0,0,0-.87-.9c-.6,0-.95.36-1.06,1.1Z"/><path class="cls-1" d="M346.82,104v-1.31H347c.22.75.62,1.13,1.19,1.13a.66.66,0,0,0,.55-.22.77.77,0,0,0,.19-.49.73.73,0,0,0-.2-.52,3.16,3.16,0,0,0-.78-.48,3,3,0,0,1-.87-.59,1,1,0,0,1-.26-.69,1.25,1.25,0,0,1,.28-.76,1,1,0,0,1,.8-.36,1,1,0,0,1,.86.43,1.28,1.28,0,0,0,.2-.36h.18V101H349a1.86,1.86,0,0,0-.38-.77.87.87,0,0,0-.66-.32.65.65,0,0,0-.48.18.58.58,0,0,0-.18.42.63.63,0,0,0,.2.46,2.56,2.56,0,0,0,.75.44,2.14,2.14,0,0,1,1,.73,1.48,1.48,0,0,1,.19.7,1.12,1.12,0,0,1-.35.85,1.22,1.22,0,0,1-.86.32,1.31,1.31,0,0,1-1-.45,1.18,1.18,0,0,0-.22.42Z"/><path class="cls-1" d="M352.5,100.08h-1.21v2.42a3,3,0,0,0,0,.74.49.49,0,0,0,.21.31.52.52,0,0,0,.33.12.74.74,0,0,0,.62-.4l.15.09a1,1,0,0,1-.45.49,1.16,1.16,0,0,1-.59.16,1,1,0,0,1-.62-.2.83.83,0,0,1-.33-.49,4.42,4.42,0,0,1-.07-1v-2.26H350v-.23a1,1,0,0,0,.72-.33,1.66,1.66,0,0,0,.4-.92h.16v1.25h1.21Z"/><path class="cls-1" d="M353.07,104v-1.31h.19c.22.75.62,1.13,1.19,1.13a.66.66,0,0,0,.55-.22.77.77,0,0,0,.19-.49.73.73,0,0,0-.2-.52,3.16,3.16,0,0,0-.78-.48,3,3,0,0,1-.87-.59,1,1,0,0,1-.26-.69,1.25,1.25,0,0,1,.28-.76,1,1,0,0,1,.8-.36,1,1,0,0,1,.86.43,1.28,1.28,0,0,0,.2-.36h.18V101h-.18a1.86,1.86,0,0,0-.38-.77.87.87,0,0,0-.66-.32.65.65,0,0,0-.48.18.58.58,0,0,0-.18.42.63.63,0,0,0,.2.46,2.56,2.56,0,0,0,.75.44,2.14,2.14,0,0,1,1,.73,1.48,1.48,0,0,1,.19.7,1.12,1.12,0,0,1-.35.85,1.22,1.22,0,0,1-.86.32,1.31,1.31,0,0,1-1-.45,1.18,1.18,0,0,0-.22.42Z"/><rect class="cls-5" x="320.08" y="68.16" width="51.92" height="42.82"/><path class="cls-1" d="M151.67,84.07h-2.52l-.17.42a4.46,4.46,0,0,0-.38,1.19.57.57,0,0,0,.2.46.86.86,0,0,0,.52.15v.22h-2v-.22A1.08,1.08,0,0,0,148,86a4.11,4.11,0,0,0,.52-1,6,6,0,0,1,.23-.56l1.92-4.6h.19l2.22,5.26.3.69a.89.89,0,0,0,.28.37.93.93,0,0,0,.51.17v.22h-2.6v-.22a1.88,1.88,0,0,0,.65-.07.28.28,0,0,0,.17-.28,2.93,2.93,0,0,0-.23-.64Zm-.09-.22L150.41,81l-1.17,2.82Z"/><path class="cls-1" d="M157.94,85.54h.22a1.54,1.54,0,0,1-1.66,1.14,2,2,0,0,1-1.44-.59,2.05,2.05,0,0,1-.58-1.53,2.13,2.13,0,0,1,.63-1.6,2.09,2.09,0,0,1,1.49-.61,2.05,2.05,0,0,1,1,.23.65.65,0,0,1,.43.56.36.36,0,0,1-.08.23.26.26,0,0,1-.23.1.38.38,0,0,1-.39-.37.71.71,0,0,0-.19-.4.78.78,0,0,0-.49-.11,1.14,1.14,0,0,0-1,.45,2.35,2.35,0,0,0-.33,1.37,2.66,2.66,0,0,0,.35,1.47,1.21,1.21,0,0,0,1.07.54A1.16,1.16,0,0,0,157.94,85.54Z"/><path class="cls-1" d="M161.14,82.74h-1.21v2.42a3.88,3.88,0,0,0,0,.75.51.51,0,0,0,.21.31.6.6,0,0,0,.34.11.73.73,0,0,0,.61-.4l.15.1a1.08,1.08,0,0,1-.44.48,1.24,1.24,0,0,1-.6.17,1,1,0,0,1-.62-.21.83.83,0,0,1-.33-.49,5,5,0,0,1-.07-1V82.74h-.58v-.22a1,1,0,0,0,.72-.34,1.67,1.67,0,0,0,.41-.92h.15v1.26h1.21Z"/><path class="cls-1" d="M162.92,82.35v2.79c0,.43,0,.7,0,.81a.34.34,0,0,0,.14.25.78.78,0,0,0,.44.09h.1v.22h-2.15v-.22h.16a.67.67,0,0,0,.45-.1.47.47,0,0,0,.13-.24c0-.09,0-.36,0-.81V83.93a3.46,3.46,0,0,0-.06-.86.34.34,0,0,0-.18-.19,1.13,1.13,0,0,0-.38,0h-.13v-.23a5.65,5.65,0,0,0,1.34-.26Zm-.94-2a.51.51,0,0,1,.51-.51.47.47,0,0,1,.35.15.49.49,0,0,1,.15.36.5.5,0,0,1-.15.37.47.47,0,0,1-.35.15.49.49,0,0,1-.36-.15A.5.5,0,0,1,162,80.31Z"/><path class="cls-1" d="M166.24,86.68H166l-1.42-3.21a2.39,2.39,0,0,0-.33-.59.56.56,0,0,0-.4-.14v-.22h1.81v.22a1.19,1.19,0,0,0-.41.05.18.18,0,0,0-.11.18,1.75,1.75,0,0,0,.19.53l1.08,2.42,1-2.16a2.1,2.1,0,0,0,.23-.67c0-.22-.16-.34-.48-.35v-.22h1.34v.22A.57.57,0,0,0,168,83a4.22,4.22,0,0,0-.48.86Z"/><path class="cls-1" d="M170,82.35v2.79c0,.43,0,.7,0,.81a.38.38,0,0,0,.15.25.74.74,0,0,0,.43.09h.1v.22h-2.15v-.22h.17a.67.67,0,0,0,.45-.1.39.39,0,0,0,.12-.24c0-.09,0-.36,0-.81V83.93a2.86,2.86,0,0,0-.07-.86.3.3,0,0,0-.17-.19,1.24,1.24,0,0,0-.39,0h-.13v-.23a5.75,5.75,0,0,0,1.35-.26Zm-.95-2a.51.51,0,0,1,.87-.36.52.52,0,0,1,.14.36.53.53,0,0,1-.14.37.51.51,0,0,1-.72,0A.5.5,0,0,1,169.06,80.31Z"/><path class="cls-1" d="M173.64,82.74h-1.21v2.42a3.88,3.88,0,0,0,0,.75.51.51,0,0,0,.21.31.6.6,0,0,0,.34.11.73.73,0,0,0,.61-.4l.15.1a1.08,1.08,0,0,1-.44.48,1.24,1.24,0,0,1-.6.17,1,1,0,0,1-.62-.21.83.83,0,0,1-.33-.49,5,5,0,0,1-.07-1V82.74h-.58v-.22a1,1,0,0,0,.72-.34,1.67,1.67,0,0,0,.41-.92h.15v1.26h1.21Z"/><path class="cls-1" d="M176.4,85.76l.93-2.22a4.14,4.14,0,0,0,.2-.55c0-.16-.18-.24-.54-.25v-.22h1.4v.22a.7.7,0,0,0-.47.17,2.4,2.4,0,0,0-.38.7l-1.78,4.31a3.06,3.06,0,0,1-.45.83.58.58,0,0,1-.43.23c-.21,0-.32-.1-.32-.29s.17-.41.51-.56a1.76,1.76,0,0,0,.4-.23.92.92,0,0,0,.19-.34l.39-1-1.51-3.22a1.82,1.82,0,0,0-.33-.54.74.74,0,0,0-.45-.11v-.22h1.84v.22c-.33,0-.49.08-.49.2a2.53,2.53,0,0,0,.19.48Z"/><path class="cls-1" d="M153.39,94.4v1.39a7.34,7.34,0,0,0,0,1,.51.51,0,0,0,.19.36,1.09,1.09,0,0,0,.61.12h.22v.22h-3v-.22h.17a1.15,1.15,0,0,0,.59-.11.48.48,0,0,0,.21-.33,7.67,7.67,0,0,0,0-1.06V92.54a7.34,7.34,0,0,0,0-1,.42.42,0,0,0-.2-.31,1.5,1.5,0,0,0-.65-.09h-.12v-.23l.83,0,1.55,0a5.89,5.89,0,0,1,1.58.16,1.92,1.92,0,0,1,.91.57,1.58,1.58,0,0,1,.35,1,1.84,1.84,0,0,1-.24,1,1.51,1.51,0,0,1-.69.63,4,4,0,0,1-1.59.22Zm0-.24h.47a3,3,0,0,0,.93-.12,1.12,1.12,0,0,0,.58-.48,1.91,1.91,0,0,0-.17-2.11,1.87,1.87,0,0,0-1.3-.38l-.51,0Z"/><path class="cls-1" d="M158.38,94.38a1.63,1.63,0,0,1,.54-.73,1.17,1.17,0,0,1,.73-.3.69.69,0,0,1,.51.2.63.63,0,0,1,.18.41.37.37,0,0,1-.09.25.31.31,0,0,1-.24.1c-.16,0-.28-.12-.37-.36s-.14-.24-.26-.24a.78.78,0,0,0-.5.28,1.35,1.35,0,0,0-.38.59,3.76,3.76,0,0,0-.08.85v.71a7.17,7.17,0,0,0,0,.81.33.33,0,0,0,.13.25.8.8,0,0,0,.44.09h.14v.22H157v-.22h.1a.83.83,0,0,0,.42-.08.28.28,0,0,0,.15-.23,6.44,6.44,0,0,0,0-.84V95c0-.43,0-.69,0-.8a.36.36,0,0,0-.14-.26.78.78,0,0,0-.44-.09H157v-.22a6,6,0,0,0,1.2-.29A3.13,3.13,0,0,1,158.38,94.38Z"/><path class="cls-1" d="M160.54,95.51a2.1,2.1,0,0,1,.62-1.54,2.05,2.05,0,0,1,1.51-.62,2.07,2.07,0,0,1,1.52.62,2.11,2.11,0,0,1,.61,1.54,2.06,2.06,0,0,1-.62,1.59,2.18,2.18,0,0,1-1.51.58,2.1,2.1,0,0,1-1.5-.59A2.06,2.06,0,0,1,160.54,95.51Zm.81,0A2.41,2.41,0,0,0,161.7,97a1.32,1.32,0,0,0,2,0,2.42,2.42,0,0,0,.34-1.49,2.51,2.51,0,0,0-.34-1.5,1.14,1.14,0,0,0-1-.45,1.17,1.17,0,0,0-1,.45A2.57,2.57,0,0,0,161.35,95.53Z"/><path class="cls-1" d="M167.6,93.52v.22h-.83v2.4a7.17,7.17,0,0,0,0,.81.33.33,0,0,0,.13.25.8.8,0,0,0,.44.09h.21v.22h-2.16v-.22a1,1,0,0,0,.46-.07A.27.27,0,0,0,166,97a6.6,6.6,0,0,0,0-.87v-2.4h-.74v-.22h.74v-.37a7.16,7.16,0,0,1,.05-.93,2,2,0,0,1,.28-.69A1.47,1.47,0,0,1,167,91a1.63,1.63,0,0,1,.82-.19,1.59,1.59,0,0,1,.92.24.64.64,0,0,1,.35.48.3.3,0,0,1-.1.24.32.32,0,0,1-.23.09c-.17,0-.33-.13-.47-.4a.72.72,0,0,0-.62-.44.73.73,0,0,0-.54.22.91.91,0,0,0-.28.56,14.08,14.08,0,0,0,0,1.42v.31Z"/><path class="cls-1" d="M169.49,93.35v2.79c0,.43,0,.7,0,.81a.37.37,0,0,0,.14.25.8.8,0,0,0,.44.09h.1v.22H168v-.22h.16a.71.71,0,0,0,.46-.1.46.46,0,0,0,.12-.24c0-.09,0-.36,0-.81V94.93a3.46,3.46,0,0,0-.06-.86c0-.1-.1-.17-.18-.19a1.13,1.13,0,0,0-.38,0H168v-.23a5.54,5.54,0,0,0,1.34-.26Zm-.94-2a.51.51,0,0,1,.51-.51.45.45,0,0,1,.35.15.49.49,0,0,1,.15.36.5.5,0,0,1-.15.37.45.45,0,0,1-.35.15.49.49,0,0,1-.36-.15A.5.5,0,0,1,168.55,91.31Z"/><path class="cls-1" d="M171.91,90.8v5.34c0,.43,0,.7,0,.81a.34.34,0,0,0,.14.25.78.78,0,0,0,.44.09h.11v.22h-2.14v-.22h.14a.83.83,0,0,0,.42-.08.34.34,0,0,0,.15-.23c0-.1,0-.38,0-.84v-4a1.82,1.82,0,0,0-.11-.8.7.7,0,0,0-.55-.16V91a5,5,0,0,0,.7-.07,2.58,2.58,0,0,0,.56-.14Z"/><path class="cls-1" d="M176.77,94.87H174c0,.19,0,.33,0,.43a3,3,0,0,0,.33,1.58,1.05,1.05,0,0,0,1,.53,1.29,1.29,0,0,0,1.26-.79h.23a1.36,1.36,0,0,1-.62.78,2,2,0,0,1-1,.28,1.92,1.92,0,0,1-1-.26,2,2,0,0,1-.74-.73,2.13,2.13,0,0,1-.29-1.13,2.31,2.31,0,0,1,.56-1.58,1.78,1.78,0,0,1,1.39-.63,1.55,1.55,0,0,1,1.22.48A1.6,1.6,0,0,1,176.77,94.87Zm-.85-.2a1.41,1.41,0,0,0,0-.2.85.85,0,0,0-.25-.66.86.86,0,0,0-.62-.24c-.59,0-.94.37-1.06,1.1Z"/><rect class="cls-5" x="138.16" y="68.16" width="51.92" height="42.82"/><path class="cls-1" d="M28.1,117.57H23.82A91.24,91.24,0,0,1,3.12,58.74q0-31.31,20-56.35h4.28A75.66,75.66,0,0,0,12.26,28,89.11,89.11,0,0,0,7,58.3q0,19.29,6.17,34.81T28.1,117.57Z"/><path class="cls-1" d="M432.71,93.11q6.17-15.52,6.16-34.81A88.87,88.87,0,0,0,433.57,28a75.48,75.48,0,0,0-15.15-25.6h4.27q20,25,20,56.35A91.19,91.19,0,0,1,422,117.57h-4.28Q426.54,108.65,432.71,93.11Z"/></g></svg>