<svg xmlns="http://www.w3.org/2000/svg" viewBox="0 0 446.77 120.48"><defs><style>.cls-1{fill:#1d1d1b;}.cls-2,.cls-3{fill:#fff;}.cls-3,.cls-4{stroke:#1d1d1b;stroke-width:0.56px;}.cls-3,.cls-4,.cls-6{stroke-linejoin:round;}.cls-4,.cls-5,.cls-6{fill:none;}.cls-5,.cls-6{stroke:#010101;stroke-linecap:round;stroke-width:0.75px;}.cls-5{stroke-miterlimit:10;}</style></defs><g id="Layer_1" data-name="Layer 1"><rect class="cls-1" x="2.04" y="94.43" width="197.99" height="23.73"/><path class="cls-2" d="M55.35,108.57v-2.34h.27c.3,1.52,1,2.29,2.16,2.29a1.57,1.57,0,0,0,1.19-.44,1.38,1.38,0,0,0,.42-1,1.24,1.24,0,0,0-.37-.92,4.5,4.5,0,0,0-1.35-.78,10,10,0,0,1-1.32-.66,2,2,0,0,1-.7-.74,2,2,0,0,1-.25-1,1.7,1.7,0,0,1,.54-1.29,1.89,1.89,0,0,1,1.37-.52,2.49,2.49,0,0,1,.87.15A2.32,2.32,0,0,1,59,102a1.15,1.15,0,0,0,.28-.64h.23v1.91H59.3a2.61,2.61,0,0,0-.72-1.31,1.73,1.73,0,0,0-1.2-.48,1.21,1.21,0,0,0-1,.35,1.17,1.17,0,0,0-.3.77,1.15,1.15,0,0,0,.38.86,5.2,5.2,0,0,0,1.36.79,13.94,13.94,0,0,1,1.36.68,1.86,1.86,0,0,1,.69.7,2.08,2.08,0,0,1,.26,1,2,2,0,0,1-.62,1.52,2.36,2.36,0,0,1-1.67.59,2.56,2.56,0,0,1-2-.92,1.89,1.89,0,0,0-.26.71Z"/><path class="cls-2" d="M62.45,104.07v3.07a8.43,8.43,0,0,0,0,.88.36.36,0,0,0,.15.28.82.82,0,0,0,.48.1h.11v.25H60.85v-.25H61a.76.76,0,0,0,.49-.11.4.4,0,0,0,.14-.26c0-.11,0-.4,0-.89V105.8a3.21,3.21,0,0,0-.08-.94.35.35,0,0,0-.19-.22,1.82,1.82,0,0,0-.42,0h-.14v-.25a6.18,6.18,0,0,0,1.48-.28Zm-1-2.24a.54.54,0,0,1,.16-.4.54.54,0,0,1,.4-.17.56.56,0,0,1,.55.57.55.55,0,0,1-.16.4.53.53,0,0,1-.39.16.54.54,0,0,1-.4-.16A.55.55,0,0,1,61.41,101.83Z"/><path class="cls-2" d="M67.19,104.63a1.3,1.3,0,0,1,.93-.51.57.57,0,0,1,.4.14.42.42,0,0,1,.14.3c0,.24-.11.36-.32.36a.39.39,0,0,1-.31-.22c-.08-.14-.16-.21-.25-.21a.71.71,0,0,0-.45.28,1.72,1.72,0,0,1,.28.94,1.61,1.61,0,0,1-.46,1.14,2.16,2.16,0,0,1-1.56.53c-.76,0-1.14.18-1.14.47,0,.13.09.22.26.27a4.24,4.24,0,0,0,1.07.13,7.4,7.4,0,0,1,1.36.17,1.35,1.35,0,0,1,.76.48,1.4,1.4,0,0,1,.29.87,1.38,1.38,0,0,1-.58,1.15,2.77,2.77,0,0,1-1.67.43,3,3,0,0,1-1.6-.38,1.16,1.16,0,0,1-.61-1,.8.8,0,0,1,.18-.54.57.57,0,0,1,.48-.21.41.41,0,0,1,.16,0,1.13,1.13,0,0,0-.33.77.92.92,0,0,0,.44.78,2.3,2.3,0,0,0,1.32.31,2.07,2.07,0,0,0,1.23-.31,1,1,0,0,0,.43-.8.8.8,0,0,0-.39-.76,3.52,3.52,0,0,0-1.39-.26,3.4,3.4,0,0,1-1.5-.28.72.72,0,0,1-.35-.6c0-.47.33-.77,1-.89a2.36,2.36,0,0,1-.77-.68,1.56,1.56,0,0,1-.26-.87,1.47,1.47,0,0,1,.53-1.14,1.83,1.83,0,0,1,1.25-.47A1.92,1.92,0,0,1,67.19,104.63Zm-2.41,1.17a1.52,1.52,0,0,0,.28,1,.94.94,0,0,0,.73.32.9.9,0,0,0,.7-.32,1.66,1.66,0,0,0,.29-1.11,1.48,1.48,0,0,0-.31-1.09,1,1,0,0,0-.7-.3.85.85,0,0,0-.75.37A2.06,2.06,0,0,0,64.78,105.8Z"/><path class="cls-2" d="M70.09,104.07h.15a2.94,2.94,0,0,1,.14.91,2.77,2.77,0,0,1,.81-.68,1.87,1.87,0,0,1,.89-.23,1.53,1.53,0,0,1,.86.22,1,1,0,0,1,.43.54,3.53,3.53,0,0,1,.1.93v1.38c0,.51,0,.82,0,.93a.37.37,0,0,0,.17.25,1.26,1.26,0,0,0,.53.08v.25H71.94v-.25H72a.77.77,0,0,0,.5-.11.45.45,0,0,0,.14-.27c0-.1,0-.39,0-.88v-1.42a3.25,3.25,0,0,0,0-.74.66.66,0,0,0-.27-.4.94.94,0,0,0-.57-.17,1.4,1.4,0,0,0-.75.23,2.51,2.51,0,0,0-.67.7v1.8a7.87,7.87,0,0,0,0,.93.34.34,0,0,0,.17.25,1.26,1.26,0,0,0,.53.08v.25H68.89v-.25a1.19,1.19,0,0,0,.51-.08.3.3,0,0,0,.18-.23,7,7,0,0,0,0-1v-1.31a8,8,0,0,0,0-.94.34.34,0,0,0-.18-.24,1,1,0,0,0-.52-.09v-.24A7.78,7.78,0,0,0,70.09,104.07Z"/><path class="cls-2" d="M79.27,107.84h.2c0,.61-.34.92-.91.92a.85.85,0,0,1-.57-.19,1,1,0,0,1-.28-.58,5.3,5.3,0,0,1-1,.58,2.2,2.2,0,0,1-.79.19,1.21,1.21,0,0,1-.77-.26.84.84,0,0,1-.32-.68,1.21,1.21,0,0,1,.54-1,6.7,6.7,0,0,1,1.49-.8l.83-.34v-.22a2.62,2.62,0,0,0-.06-.66.71.71,0,0,0-.3-.36,1.18,1.18,0,0,0-.65-.16c-.54,0-.84.18-.9.53s-.21.55-.45.55-.33-.1-.33-.31a1,1,0,0,1,.43-.66,2.8,2.8,0,0,1,2.42-.14,1.15,1.15,0,0,1,.49.49,2.26,2.26,0,0,1,.12.84v1.78a3.08,3.08,0,0,0,.07.8.26.26,0,0,0,.28.18C79.06,108.37,79.21,108.19,79.27,107.84ZM77.71,106l-.58.24c-.93.37-1.39.85-1.39,1.41a.81.81,0,0,0,.18.55.56.56,0,0,0,.46.21,1.34,1.34,0,0,0,.58-.17,4.23,4.23,0,0,0,.75-.5Z"/><path class="cls-2" d="M82.49,104.49H81.16v2.66a3.68,3.68,0,0,0,.06.83.57.57,0,0,0,.23.34.64.64,0,0,0,.37.13.81.81,0,0,0,.67-.44l.17.1a1.15,1.15,0,0,1-.49.53,1.37,1.37,0,0,1-.66.18,1.06,1.06,0,0,1-.68-.23,1,1,0,0,1-.36-.53A5.23,5.23,0,0,1,80.4,107v-2.5h-.64v-.24a1.15,1.15,0,0,0,.79-.37,1.78,1.78,0,0,0,.44-1h.17v1.38h1.33Z"/><path class="cls-2" d="M87.46,104.25v2.88c0,.48,0,.78,0,.9a.35.35,0,0,0,.16.28.94.94,0,0,0,.49.09v.25a3.15,3.15,0,0,0-1.19.17h-.07a2.37,2.37,0,0,1-.18-1,2.51,2.51,0,0,1-.75.77,1.75,1.75,0,0,1-.93.25,1.46,1.46,0,0,1-.78-.2,1.08,1.08,0,0,1-.46-.49,2.17,2.17,0,0,1-.13-.88v-1.49a7.87,7.87,0,0,0,0-.93.29.29,0,0,0-.17-.25,1,1,0,0,0-.52-.09v-.24h1.49v3a2.48,2.48,0,0,0,.06.65.58.58,0,0,0,.27.36.9.9,0,0,0,.51.15,1.32,1.32,0,0,0,.79-.27,1.48,1.48,0,0,0,.51-.57,2.18,2.18,0,0,0,.14-.87v-1a8.2,8.2,0,0,0,0-.88.43.43,0,0,0-.13-.27.74.74,0,0,0-.5-.12h-.12v-.24Z"/><path class="cls-2" d="M90.24,105.19a1.86,1.86,0,0,1,.59-.8,1.37,1.37,0,0,1,.81-.32.73.73,0,0,1,.56.22.7.7,0,0,1,.2.45.39.39,0,0,1-.1.27.36.36,0,0,1-.26.11c-.18,0-.32-.13-.41-.39s-.16-.27-.29-.27a.87.87,0,0,0-.55.31,1.42,1.42,0,0,0-.41.65,3.33,3.33,0,0,0-.1.93v.79c0,.47,0,.76,0,.88a.37.37,0,0,0,.16.28.8.8,0,0,0,.47.1h.15v.25H88.75v-.25h.11a.86.86,0,0,0,.46-.09.33.33,0,0,0,.16-.25,7.66,7.66,0,0,0,0-.92V105.9c0-.48,0-.77,0-.89a.36.36,0,0,0-.15-.28.82.82,0,0,0-.48-.1h-.11v-.24a8.12,8.12,0,0,0,1.32-.32A3.67,3.67,0,0,1,90.24,105.19Z"/><path class="cls-2" d="M96.71,105.74H93.64c0,.21,0,.36,0,.47A3.37,3.37,0,0,0,94,108a1.18,1.18,0,0,0,1.08.58,1.41,1.41,0,0,0,1.39-.87h.26a1.5,1.5,0,0,1-.68.85,2.1,2.1,0,0,1-1.12.31,2.07,2.07,0,0,1-1-.28,2.22,2.22,0,0,1-.81-.8,2.26,2.26,0,0,1-.32-1.25,2.51,2.51,0,0,1,.61-1.73,2,2,0,0,1,1.53-.69,1.72,1.72,0,0,1,1.34.53A1.84,1.84,0,0,1,96.71,105.74Zm-.94-.22a1.77,1.77,0,0,0,0-.22,1,1,0,0,0-.27-.73.93.93,0,0,0-.68-.26c-.65,0-1,.4-1.17,1.21Z"/><path class="cls-2" d="M102.55,104.25v.24h-.92v2.65c0,.47,0,.76,0,.88a.37.37,0,0,0,.16.28.76.76,0,0,0,.47.1h.23v.25h-2.37v-.25a1.22,1.22,0,0,0,.51-.08.31.31,0,0,0,.17-.23,5.57,5.57,0,0,0,0-1v-2.65H100v-.24h.82v-.4a8.76,8.76,0,0,1,0-1,2,2,0,0,1,.31-.76,1.65,1.65,0,0,1,.63-.6,1.92,1.92,0,0,1,.89-.21,1.71,1.71,0,0,1,1,.27.7.7,0,0,1,.38.54.3.3,0,0,1-.11.25.34.34,0,0,1-.25.11c-.19,0-.36-.15-.52-.44a.76.76,0,0,0-.68-.49.82.82,0,0,0-.6.25,1,1,0,0,0-.3.61c0,.24-.05.76-.05,1.56v.34Z"/><path class="cls-2" d="M103.16,106.44a2.32,2.32,0,0,1,2.34-2.37,2.28,2.28,0,0,1,1.67.68,2.32,2.32,0,0,1,.68,1.69,2.27,2.27,0,0,1-.69,1.75,2.37,2.37,0,0,1-1.66.63,2.33,2.33,0,0,1-1.66-.64A2.3,2.3,0,0,1,103.16,106.44Zm.89,0a2.71,2.71,0,0,0,.38,1.64,1.46,1.46,0,0,0,2.15,0,2.71,2.71,0,0,0,.37-1.64,2.81,2.81,0,0,0-.37-1.66,1.44,1.44,0,0,0-2.16,0A2.81,2.81,0,0,0,104.05,106.47Z"/><path class="cls-2" d="M110.08,105.19a1.81,1.81,0,0,1,.6-.8,1.32,1.32,0,0,1,.8-.32.72.72,0,0,1,.56.22.7.7,0,0,1,.2.45.39.39,0,0,1-.1.27.36.36,0,0,1-.26.11c-.18,0-.31-.13-.41-.39s-.16-.27-.29-.27a.87.87,0,0,0-.55.31,1.42,1.42,0,0,0-.41.65,3.39,3.39,0,0,0-.09.93v.79c0,.47,0,.76,0,.88a.4.4,0,0,0,.16.28.8.8,0,0,0,.47.1h.16v.25h-2.34v-.25h.11a.86.86,0,0,0,.46-.09.33.33,0,0,0,.16-.25,7.66,7.66,0,0,0,0-.92V105.9a8.55,8.55,0,0,0,0-.89.36.36,0,0,0-.15-.28.82.82,0,0,0-.48-.1h-.11v-.24a7.66,7.66,0,0,0,1.32-.32A3.67,3.67,0,0,1,110.08,105.19Z"/><path class="cls-2" d="M118.84,104.73a3.08,3.08,0,0,1,1.84.61,1.66,1.66,0,0,1,.61,1.32,1.8,1.8,0,0,1-.41,1.18,1.87,1.87,0,0,1-1,.65,7.58,7.58,0,0,1-1.7.16h-2.86v-.25h.28a1.26,1.26,0,0,0,.65-.12.57.57,0,0,0,.23-.37,9.05,9.05,0,0,0,0-1.16v-3.54a7,7,0,0,0,0-1.15.46.46,0,0,0-.21-.35,1.59,1.59,0,0,0-.72-.1h-.14v-.25l1.2,0,1.36,0c2,0,3,.57,3,1.72a1.43,1.43,0,0,1-.51,1.14A3.29,3.29,0,0,1,118.84,104.73Zm-1.31-.11h.22a2.48,2.48,0,0,0,1.59-.37,1.47,1.47,0,0,0,.42-1.18,1.79,1.79,0,0,0-.17-.88,1.06,1.06,0,0,0-.5-.48,2.74,2.74,0,0,0-1.13-.17l-.43,0Zm0,.27v1.62c0,.69,0,1.13,0,1.31a.7.7,0,0,0,.21.43,1,1,0,0,0,.64.14,1.71,1.71,0,0,0,1.29-.44,1.79,1.79,0,0,0,.43-1.32,1.67,1.67,0,0,0-.49-1.33,2.64,2.64,0,0,0-1.71-.42Z"/><path class="cls-2" d="M123.46,101.26v5.88c0,.47,0,.76,0,.88a.36.36,0,0,0,.15.28.82.82,0,0,0,.48.1h.13v.25h-2.35v-.25H122a.88.88,0,0,0,.46-.09.36.36,0,0,0,.16-.25,7.66,7.66,0,0,0,0-.92v-4.35a1.76,1.76,0,0,0-.13-.88q-.12-.18-.6-.18v-.24a4.68,4.68,0,0,0,.77-.08,2.77,2.77,0,0,0,.61-.15Z"/><path class="cls-2" d="M124.82,106.44a2.29,2.29,0,0,1,.68-1.69,2.38,2.38,0,0,1,3.33,0,2.32,2.32,0,0,1,.68,1.69,2.27,2.27,0,0,1-.69,1.75,2.37,2.37,0,0,1-1.66.63,2.33,2.33,0,0,1-1.66-.64A2.3,2.3,0,0,1,124.82,106.44Zm.89,0a2.71,2.71,0,0,0,.38,1.64,1.46,1.46,0,0,0,2.15,0,2.71,2.71,0,0,0,.37-1.64,2.81,2.81,0,0,0-.37-1.66,1.44,1.44,0,0,0-2.16,0A2.88,2.88,0,0,0,125.71,106.47Z"/><path class="cls-2" d="M134.12,107.57h.23a1.67,1.67,0,0,1-1.82,1.25,2.12,2.12,0,0,1-1.58-.64,2.27,2.27,0,0,1-.65-1.69,2.34,2.34,0,0,1,.7-1.75,2.25,2.25,0,0,1,1.64-.67,2.19,2.19,0,0,1,1,.25c.32.17.48.37.48.61a.4.4,0,0,1-.09.25.29.29,0,0,1-.25.12c-.24,0-.38-.14-.44-.41a.79.79,0,0,0-.2-.44.85.85,0,0,0-.54-.12,1.23,1.23,0,0,0-1.08.5,2.55,2.55,0,0,0-.36,1.5,3,3,0,0,0,.38,1.62,1.33,1.33,0,0,0,1.18.59A1.28,1.28,0,0,0,134.12,107.57Z"/><path class="cls-2" d="M137.52,104.25h1.77v.24a2.49,2.49,0,0,0-1.31.73c-.18.16-.45.37-.82.67l1.57,1.83a2.61,2.61,0,0,0,.56.54.87.87,0,0,0,.42.14v.25h-2.19v-.25q.54,0,.54-.24c0-.07-.11-.24-.35-.52l-1.13-1.31-.23.17v.64a8.43,8.43,0,0,0,0,.88.37.37,0,0,0,.15.28.78.78,0,0,0,.47.1v.25h-2.23v-.25h.16a.83.83,0,0,0,.51-.11.43.43,0,0,0,.13-.26c0-.11,0-.4,0-.89v-4.41a1.74,1.74,0,0,0-.12-.82c-.08-.12-.27-.18-.58-.18v-.24a4.8,4.8,0,0,0,.76-.08,2.49,2.49,0,0,0,.6-.15h.12v4.95l.46-.32c.75-.53,1.12-.92,1.12-1.15s-.14-.24-.41-.25Z"/><path class="cls-2" d="M143.85,105h-.28l.16-3.34h2.79a2.15,2.15,0,0,1-.34.63.56.56,0,0,1-.36.08h-1.88l-.09,2.23a1.65,1.65,0,0,1,1.33-.7,1.83,1.83,0,0,1,1.43.68,2.39,2.39,0,0,1,.6,1.66,2.76,2.76,0,0,1-.67,1.89,2.38,2.38,0,0,1-1.87.74,2,2,0,0,1-1.31-.39c-.31-.26-.47-.49-.47-.7a.33.33,0,0,1,.1-.24.33.33,0,0,1,.25-.11.34.34,0,0,1,.27.11,1.78,1.78,0,0,1,.22.43.94.94,0,0,0,1,.67,1.48,1.48,0,0,0,1.16-.56,2.76,2.76,0,0,0,.46-1.8,2.53,2.53,0,0,0-.38-1.59,1.13,1.13,0,0,0-.91-.47A1.29,1.29,0,0,0,143.85,105Z"/><rect class="cls-1" x="245.93" y="94.43" width="197.99" height="23.73"/><path class="cls-2" d="M299.24,108.57v-2.34h.27c.3,1.52,1,2.29,2.17,2.29a1.56,1.56,0,0,0,1.18-.44,1.35,1.35,0,0,0,.43-1,1.28,1.28,0,0,0-.37-.92,4.72,4.72,0,0,0-1.36-.78,10,10,0,0,1-1.32-.66,1.89,1.89,0,0,1-.69-.74,1.91,1.91,0,0,1-.25-1,1.66,1.66,0,0,1,.54-1.29,1.85,1.85,0,0,1,1.36-.52,2.49,2.49,0,0,1,.87.15,2.32,2.32,0,0,1,.84.62,1.15,1.15,0,0,0,.28-.64h.24v1.91h-.24a2.61,2.61,0,0,0-.72-1.31,1.73,1.73,0,0,0-1.2-.48,1.22,1.22,0,0,0-1,.35,1.17,1.17,0,0,0-.3.77,1.15,1.15,0,0,0,.38.86,5.38,5.38,0,0,0,1.36.79,14.38,14.38,0,0,1,1.37.68,1.9,1.9,0,0,1,.68.7,2.08,2.08,0,0,1,.26,1,2,2,0,0,1-.62,1.52,2.35,2.35,0,0,1-1.67.59,2.56,2.56,0,0,1-2-.92,2.07,2.07,0,0,0-.26.71Z"/><path class="cls-2" d="M306.34,104.07v3.07a8.43,8.43,0,0,0,0,.88.39.39,0,0,0,.15.28.82.82,0,0,0,.48.1h.11v.25h-2.36v-.25h.18a.81.81,0,0,0,.5-.11.43.43,0,0,0,.13-.26c0-.11,0-.4,0-.89V105.8a3.37,3.37,0,0,0-.07-.94.4.4,0,0,0-.2-.22,1.82,1.82,0,0,0-.42,0h-.14v-.25a6.18,6.18,0,0,0,1.48-.28Zm-1-2.24a.54.54,0,0,1,.16-.4.56.56,0,0,1,.4-.17.56.56,0,0,1,.55.57.55.55,0,0,1-.16.4.53.53,0,0,1-.39.16.55.55,0,0,1-.56-.56Z"/><path class="cls-2" d="M311.09,104.63a1.26,1.26,0,0,1,.92-.51.57.57,0,0,1,.4.14.42.42,0,0,1,.14.3c0,.24-.11.36-.32.36a.39.39,0,0,1-.31-.22q-.12-.21-.24-.21a.71.71,0,0,0-.46.28,1.72,1.72,0,0,1,.28.94,1.61,1.61,0,0,1-.46,1.14,2.14,2.14,0,0,1-1.56.53c-.76,0-1.13.18-1.13.47,0,.13.08.22.25.27a4.32,4.32,0,0,0,1.07.13,7.4,7.4,0,0,1,1.36.17,1.35,1.35,0,0,1,.76.48,1.4,1.4,0,0,1,.29.87,1.36,1.36,0,0,1-.58,1.15,2.75,2.75,0,0,1-1.67.43,3,3,0,0,1-1.6-.38,1.15,1.15,0,0,1-.6-1,.8.8,0,0,1,.17-.54.59.59,0,0,1,.49-.21.37.37,0,0,1,.15,0,1.13,1.13,0,0,0-.33.77.92.92,0,0,0,.44.78,2.31,2.31,0,0,0,1.33.31,2.06,2.06,0,0,0,1.22-.31,1,1,0,0,0,.44-.8.79.79,0,0,0-.4-.76,3.52,3.52,0,0,0-1.39-.26,3.4,3.4,0,0,1-1.5-.28.71.71,0,0,1-.34-.6c0-.47.32-.77,1-.89a2.36,2.36,0,0,1-.77-.68,1.56,1.56,0,0,1-.26-.87,1.47,1.47,0,0,1,.53-1.14,1.84,1.84,0,0,1,1.26-.47A2,2,0,0,1,311.09,104.63Zm-2.42,1.17a1.52,1.52,0,0,0,.28,1,.94.94,0,0,0,.73.32.9.9,0,0,0,.7-.32,1.66,1.66,0,0,0,.29-1.11,1.48,1.48,0,0,0-.31-1.09,1,1,0,0,0-.7-.3.82.82,0,0,0-.74.37A2,2,0,0,0,308.67,105.8Z"/><path class="cls-2" d="M314,104.07h.14a2.94,2.94,0,0,1,.14.91,2.77,2.77,0,0,1,.81-.68,1.87,1.87,0,0,1,.89-.23,1.5,1.5,0,0,1,.86.22,1,1,0,0,1,.43.54,3.15,3.15,0,0,1,.1.93v1.38a7.87,7.87,0,0,0,0,.93.32.32,0,0,0,.17.25,1.18,1.18,0,0,0,.52.08v.25h-2.25v-.25h.1a.77.77,0,0,0,.5-.11.45.45,0,0,0,.14-.27c0-.1,0-.39,0-.88v-1.42a3.1,3.1,0,0,0-.06-.74.66.66,0,0,0-.27-.4.94.94,0,0,0-.57-.17,1.4,1.4,0,0,0-.75.23,2.66,2.66,0,0,0-.67.7v1.8a7.87,7.87,0,0,0,0,.93.37.37,0,0,0,.17.25,1.26,1.26,0,0,0,.53.08v.25h-2.22v-.25a1.19,1.19,0,0,0,.51-.08.3.3,0,0,0,.18-.23,5.57,5.57,0,0,0,0-1v-1.31a8,8,0,0,0,0-.94.35.35,0,0,0-.17-.24,1.12,1.12,0,0,0-.53-.09v-.24A8.15,8.15,0,0,0,314,104.07Z"/><path class="cls-2" d="M323.16,107.84h.2c0,.61-.34.92-.9.92a.86.86,0,0,1-.58-.19,1,1,0,0,1-.28-.58,5.3,5.3,0,0,1-1,.58,2.15,2.15,0,0,1-.79.19,1.21,1.21,0,0,1-.77-.26.84.84,0,0,1-.32-.68,1.21,1.21,0,0,1,.54-1,6.93,6.93,0,0,1,1.49-.8l.83-.34v-.22a2.62,2.62,0,0,0-.06-.66.71.71,0,0,0-.3-.36,1.18,1.18,0,0,0-.65-.16c-.54,0-.84.18-.9.53s-.21.55-.45.55-.33-.1-.33-.31.15-.42.44-.66a2.16,2.16,0,0,1,1.35-.35,2.21,2.21,0,0,1,1.06.21,1.15,1.15,0,0,1,.49.49,2,2,0,0,1,.13.84v1.78a3.25,3.25,0,0,0,.06.8.27.27,0,0,0,.28.18C323,108.37,323.1,108.19,323.16,107.84ZM321.6,106l-.58.24c-.93.37-1.39.85-1.39,1.41a.81.81,0,0,0,.18.55.57.57,0,0,0,.46.21,1.34,1.34,0,0,0,.58-.17,3.9,3.9,0,0,0,.75-.5Z"/><path class="cls-2" d="M326.38,104.49h-1.32v2.66a3.88,3.88,0,0,0,.05.83.57.57,0,0,0,.23.34.64.64,0,0,0,.37.13.81.81,0,0,0,.67-.44l.17.1a1.15,1.15,0,0,1-.49.53,1.31,1.31,0,0,1-.66.18,1.06,1.06,0,0,1-.68-.23,1,1,0,0,1-.36-.53,5.23,5.23,0,0,1-.07-1.07v-2.5h-.64v-.24a1.15,1.15,0,0,0,.79-.37,1.78,1.78,0,0,0,.44-1h.18v1.38h1.32Z"/><path class="cls-2" d="M331.35,104.25v2.88c0,.48,0,.78,0,.9a.38.38,0,0,0,.16.28,1,1,0,0,0,.49.09v.25a3.15,3.15,0,0,0-1.19.17h-.06a2.21,2.21,0,0,1-.19-1,2.51,2.51,0,0,1-.75.77,1.75,1.75,0,0,1-.93.25,1.46,1.46,0,0,1-.78-.2,1.08,1.08,0,0,1-.46-.49,2.17,2.17,0,0,1-.13-.88v-1.49a7.87,7.87,0,0,0,0-.93.3.3,0,0,0-.16-.25,1.09,1.09,0,0,0-.53-.09v-.24h1.5v3a2.59,2.59,0,0,0,.05.65.62.62,0,0,0,.27.36.9.9,0,0,0,.51.15,1.32,1.32,0,0,0,.79-.27,1.48,1.48,0,0,0,.51-.57,2,2,0,0,0,.14-.87v-1c0-.48,0-.77,0-.88a.45.45,0,0,0-.14-.27.74.74,0,0,0-.5-.12h-.12v-.24Z"/><path class="cls-2" d="M334.13,105.19a1.81,1.81,0,0,1,.6-.8,1.32,1.32,0,0,1,.8-.32.72.72,0,0,1,.56.22.7.7,0,0,1,.2.45.39.39,0,0,1-.1.27.36.36,0,0,1-.26.11c-.18,0-.31-.13-.41-.39s-.16-.27-.29-.27a.87.87,0,0,0-.55.31,1.51,1.51,0,0,0-.41.65,3.83,3.83,0,0,0-.09.93v.79c0,.47,0,.76,0,.88a.4.4,0,0,0,.16.28.82.82,0,0,0,.48.1H335v.25h-2.34v-.25h.11a.86.86,0,0,0,.46-.09.37.37,0,0,0,.17-.25c0-.11,0-.41,0-.92V105.9a8.55,8.55,0,0,0,0-.89.36.36,0,0,0-.15-.28.82.82,0,0,0-.48-.1h-.11v-.24a7.66,7.66,0,0,0,1.32-.32A3.67,3.67,0,0,1,334.13,105.19Z"/><path class="cls-2" d="M340.6,105.74h-3.07c0,.21,0,.36,0,.47a3.37,3.37,0,0,0,.36,1.74,1.2,1.2,0,0,0,1.09.58,1.41,1.41,0,0,0,1.38-.87h.26a1.5,1.5,0,0,1-.68.85,2.14,2.14,0,0,1-2.17,0,2.22,2.22,0,0,1-.81-.8,2.26,2.26,0,0,1-.32-1.25,2.51,2.51,0,0,1,.61-1.73,2,2,0,0,1,1.53-.69,1.72,1.72,0,0,1,1.34.53A1.84,1.84,0,0,1,340.6,105.74Zm-.94-.22a2,2,0,0,0,0-.22,1,1,0,0,0-.28-.73.93.93,0,0,0-.68-.26c-.65,0-1,.4-1.17,1.21Z"/><path class="cls-2" d="M346.44,104.25v.24h-.92v2.65c0,.47,0,.76,0,.88a.4.4,0,0,0,.16.28.8.8,0,0,0,.47.1h.24v.25H344v-.25a1.22,1.22,0,0,0,.51-.08.35.35,0,0,0,.18-.23,8,8,0,0,0,0-1v-2.65h-.82v-.24h.82v-.4a6.75,6.75,0,0,1,.06-1,1.83,1.83,0,0,1,.3-.76,1.65,1.65,0,0,1,.63-.6,1.93,1.93,0,0,1,.9-.21,1.7,1.7,0,0,1,1,.27.68.68,0,0,1,.38.54.32.32,0,0,1-.1.25.38.38,0,0,1-.26.11c-.19,0-.36-.15-.52-.44a.76.76,0,0,0-.68-.49.79.79,0,0,0-.59.25,1,1,0,0,0-.31.61c0,.24-.05.76-.05,1.56v.34Z"/><path class="cls-2" d="M347.05,106.44a2.29,2.29,0,0,1,.68-1.69,2.38,2.38,0,0,1,3.33,0,2.32,2.32,0,0,1,.68,1.69,2.27,2.27,0,0,1-.69,1.75,2.37,2.37,0,0,1-1.66.63,2.33,2.33,0,0,1-1.66-.64A2.3,2.3,0,0,1,347.05,106.44Zm.89,0a2.71,2.71,0,0,0,.38,1.64,1.46,1.46,0,0,0,2.15,0,2.71,2.71,0,0,0,.37-1.64,2.81,2.81,0,0,0-.37-1.66,1.44,1.44,0,0,0-2.16,0A2.88,2.88,0,0,0,347.94,106.47Z"/><path class="cls-2" d="M354,105.19a1.89,1.89,0,0,1,.6-.8,1.32,1.32,0,0,1,.8-.32.72.72,0,0,1,.56.22.7.7,0,0,1,.2.45.39.39,0,0,1-.1.27.36.36,0,0,1-.26.11c-.18,0-.31-.13-.41-.39s-.16-.27-.29-.27a.89.89,0,0,0-.55.31,1.51,1.51,0,0,0-.41.65,3.83,3.83,0,0,0-.09.93v.79a8.43,8.43,0,0,0,0,.88.36.36,0,0,0,.15.28.82.82,0,0,0,.48.1h.15v.25h-2.34v-.25h.11a.86.86,0,0,0,.46-.09.37.37,0,0,0,.17-.25c0-.11,0-.41,0-.92V105.9a8.55,8.55,0,0,0,0-.89.36.36,0,0,0-.15-.28.82.82,0,0,0-.48-.1h-.11v-.24a7.66,7.66,0,0,0,1.32-.32A3.38,3.38,0,0,1,354,105.19Z"/><path class="cls-2" d="M362.73,104.73a3.12,3.12,0,0,1,1.85.61,1.68,1.68,0,0,1,.6,1.32,1.8,1.8,0,0,1-.41,1.18,1.87,1.87,0,0,1-1,.65,7.58,7.58,0,0,1-1.7.16h-2.86v-.25h.28a1.26,1.26,0,0,0,.65-.12.57.57,0,0,0,.23-.37,9.05,9.05,0,0,0,0-1.16v-3.54a7,7,0,0,0-.05-1.15.46.46,0,0,0-.21-.35,1.59,1.59,0,0,0-.72-.1h-.14v-.25l1.2,0,1.36,0c2,0,3,.57,3,1.72a1.43,1.43,0,0,1-.51,1.14A3.25,3.25,0,0,1,362.73,104.73Zm-1.31-.11h.22a2.48,2.48,0,0,0,1.59-.37,1.47,1.47,0,0,0,.42-1.18,1.92,1.92,0,0,0-.16-.88,1.16,1.16,0,0,0-.5-.48,2.83,2.83,0,0,0-1.14-.17l-.43,0Zm0,.27v1.62a11.51,11.51,0,0,0,0,1.31.65.65,0,0,0,.2.43,1.06,1.06,0,0,0,.64.14,1.68,1.68,0,0,0,1.29-.44,1.79,1.79,0,0,0,.43-1.32,1.7,1.7,0,0,0-.48-1.33,2.67,2.67,0,0,0-1.71-.42Z"/><path class="cls-2" d="M367.35,101.26v5.88c0,.47,0,.76,0,.88a.36.36,0,0,0,.15.28.82.82,0,0,0,.48.1h.13v.25h-2.35v-.25h.15a.88.88,0,0,0,.46-.09.36.36,0,0,0,.16-.25,7.66,7.66,0,0,0,0-.92v-4.35a1.94,1.94,0,0,0-.12-.88c-.09-.12-.29-.18-.61-.18v-.24a4.9,4.9,0,0,0,.78-.08,2.8,2.8,0,0,0,.6-.15Z"/><path class="cls-2" d="M368.71,106.44a2.29,2.29,0,0,1,.68-1.69,2.38,2.38,0,0,1,3.33,0,2.5,2.5,0,0,1,0,3.44,2.37,2.37,0,0,1-1.66.63,2.31,2.31,0,0,1-1.65-.64A2.27,2.27,0,0,1,368.71,106.44Zm.89,0a2.71,2.71,0,0,0,.38,1.64,1.33,1.33,0,0,0,1.07.47,1.31,1.31,0,0,0,1.08-.47,2.71,2.71,0,0,0,.37-1.64,2.81,2.81,0,0,0-.37-1.66,1.42,1.42,0,0,0-2.15,0A2.8,2.8,0,0,0,369.6,106.47Z"/><path class="cls-2" d="M378,107.57h.24a1.69,1.69,0,0,1-1.83,1.25,2.13,2.13,0,0,1-1.58-.64,2.26,2.26,0,0,1-.64-1.69,2.33,2.33,0,0,1,.69-1.75,2.27,2.27,0,0,1,1.64-.67,2.13,2.13,0,0,1,1,.25c.32.17.48.37.48.61a.4.4,0,0,1-.09.25.29.29,0,0,1-.25.12c-.24,0-.38-.14-.44-.41a.79.79,0,0,0-.2-.44.85.85,0,0,0-.54-.12,1.23,1.23,0,0,0-1.08.5,2.55,2.55,0,0,0-.36,1.5,2.9,2.9,0,0,0,.39,1.62,1.32,1.32,0,0,0,1.18.59A1.27,1.27,0,0,0,378,107.57Z"/><path class="cls-2" d="M381.41,104.25h1.77v.24a2.53,2.53,0,0,0-1.31.73c-.17.16-.45.37-.82.67l1.57,1.83a2.87,2.87,0,0,0,.56.54.87.87,0,0,0,.42.14v.25h-2.19v-.25c.36,0,.55-.09.55-.24s-.12-.24-.36-.52l-1.13-1.31-.23.17v.64a8.43,8.43,0,0,0,0,.88.37.37,0,0,0,.15.28.78.78,0,0,0,.47.1v.25h-2.23v-.25h.16a.83.83,0,0,0,.51-.11.43.43,0,0,0,.13-.26c0-.11,0-.4,0-.89v-4.41a1.74,1.74,0,0,0-.12-.82c-.08-.12-.27-.18-.58-.18v-.24a4.68,4.68,0,0,0,.76-.08,2.77,2.77,0,0,0,.61-.15h.11v4.95l.46-.32c.75-.53,1.12-.92,1.12-1.15s-.14-.24-.41-.25Z"/><path class="cls-2" d="M387.75,105a2.5,2.5,0,0,1,.7-.59,1.67,1.67,0,0,1,.77-.2,2.05,2.05,0,0,1,1.51.65,2.3,2.3,0,0,1,.63,1.65,2.35,2.35,0,0,1-.61,1.62,2,2,0,0,1-1.56.69,1.93,1.93,0,0,1-1.36-.51,2.73,2.73,0,0,1-.78-1.27,5.62,5.62,0,0,1-.22-1.6,5.16,5.16,0,0,1,.75-2.86,2.31,2.31,0,0,1,2-1.15,2.12,2.12,0,0,1,1.05.26q.45.25.45.57a.28.28,0,0,1-.31.31.48.48,0,0,1-.42-.3,1.26,1.26,0,0,0-.35-.44,1,1,0,0,0-.56-.13,1.36,1.36,0,0,0-1.27.75,4.64,4.64,0,0,0-.43,2.26C387.74,104.8,387.74,104.9,387.75,105Zm0,1.43a3.74,3.74,0,0,0,.15,1,1.66,1.66,0,0,0,.49.81,1.17,1.17,0,0,0,.77.29,1.1,1.1,0,0,0,1-.54,3.08,3.08,0,0,0,.33-1.6,3.67,3.67,0,0,0-.12-1.06,1.36,1.36,0,0,0-.46-.63,1.23,1.23,0,0,0-.75-.25,1.37,1.37,0,0,0-1,.42A2.14,2.14,0,0,0,387.72,106.43Z"/><rect class="cls-3" x="9.37" y="8.66" width="56.64" height="29.37"/><path class="cls-1" d="M28.7,17.46a2.82,2.82,0,0,1,1.67.56,1.55,1.55,0,0,1,.55,1.2,1.7,1.7,0,0,1-.37,1.08,1.79,1.79,0,0,1-.95.59,7.13,7.13,0,0,1-1.55.14h-2.6V20.8h.25a1.05,1.05,0,0,0,.59-.11.48.48,0,0,0,.21-.33,7.58,7.58,0,0,0,0-1.06V16.08a7.51,7.51,0,0,0,0-1,.44.44,0,0,0-.2-.32,1.5,1.5,0,0,0-.65-.09h-.13V14.4l1.09,0,1.24,0c1.81,0,2.72.52,2.72,1.56a1.28,1.28,0,0,1-.47,1A2.79,2.79,0,0,1,28.7,17.46Zm-1.2-.09h.2A2.26,2.26,0,0,0,29.14,17,1.33,1.33,0,0,0,29.53,16a1.72,1.72,0,0,0-.15-.8,1,1,0,0,0-.45-.44,2.58,2.58,0,0,0-1-.15H27.5Zm0,.24v1.47q0,.95,0,1.2a.6.6,0,0,0,.19.38.9.9,0,0,0,.59.14,1.59,1.59,0,0,0,1.17-.4,1.68,1.68,0,0,0,.39-1.21,1.53,1.53,0,0,0-.44-1.2,2.4,2.4,0,0,0-1.56-.39Z"/><path class="cls-1" d="M32.89,14.31v5.34c0,.43,0,.7,0,.81a.34.34,0,0,0,.14.25.78.78,0,0,0,.44.09h.11V21H31.46V20.8h.14a.83.83,0,0,0,.42-.08.34.34,0,0,0,.15-.23c0-.09,0-.37,0-.84V15.7a1.74,1.74,0,0,0-.11-.79c-.08-.11-.26-.17-.55-.17v-.22a4.86,4.86,0,0,0,.7-.07,2.58,2.58,0,0,0,.56-.14Z"/><path class="cls-1" d="M34.13,19a2.1,2.1,0,0,1,.62-1.54,2.17,2.17,0,0,1,3,0,2.29,2.29,0,0,1,0,3.12,2.18,2.18,0,0,1-1.51.58,2.14,2.14,0,0,1-1.51-.59A2.09,2.09,0,0,1,34.13,19Zm.81,0a2.46,2.46,0,0,0,.35,1.5,1.34,1.34,0,0,0,2,0,2.55,2.55,0,0,0,.34-1.5,2.51,2.51,0,0,0-.34-1.5,1.14,1.14,0,0,0-1-.45,1.15,1.15,0,0,0-1,.45A2.49,2.49,0,0,0,34.94,19Z"/><path class="cls-1" d="M42.58,20.05h.22a1.54,1.54,0,0,1-1.66,1.14,2,2,0,0,1-1.44-.58,2.33,2.33,0,0,1,0-3.13,2.14,2.14,0,0,1,2.44-.39.65.65,0,0,1,.43.56.43.43,0,0,1-.08.23.26.26,0,0,1-.23.1c-.22,0-.35-.12-.4-.37a.79.79,0,0,0-.18-.4.8.8,0,0,0-.49-.11,1.12,1.12,0,0,0-1,.45,2.35,2.35,0,0,0-.33,1.37,2.64,2.64,0,0,0,.35,1.48,1.21,1.21,0,0,0,1.07.53A1.16,1.16,0,0,0,42.58,20.05Z"/><path class="cls-1" d="M45.67,17h1.61v.22a2.24,2.24,0,0,0-1.19.67l-.74.6,1.43,1.67a2.7,2.7,0,0,0,.5.49,1,1,0,0,0,.39.12V21h-2V20.8c.34,0,.5-.08.5-.21s-.11-.22-.33-.48l-1-1.19-.21.16v.57a7.17,7.17,0,0,0,0,.81.31.31,0,0,0,.14.25.73.73,0,0,0,.42.09V21h-2V20.8h.15a.69.69,0,0,0,.46-.1.39.39,0,0,0,.12-.24c0-.09,0-.36,0-.81v-4a1.62,1.62,0,0,0-.11-.74c-.08-.11-.25-.16-.53-.16v-.22a5,5,0,0,0,.69-.07,2.61,2.61,0,0,0,.55-.14h.1v4.5l.42-.29c.68-.49,1-.83,1-1s-.13-.22-.38-.23Z"/><path class="cls-1" d="M24.85,32H23.07a8.29,8.29,0,0,1-1.45-1.74c-.21-.3-.43-.59-.65-.86a3.22,3.22,0,0,0-.47-.51.66.66,0,0,0-.39-.09h-.27V30.3a9.88,9.88,0,0,0,0,1,.49.49,0,0,0,.19.35,1.09,1.09,0,0,0,.61.12H21V32H17.83V31.8h.22a1.08,1.08,0,0,0,.59-.11.51.51,0,0,0,.2-.33,7,7,0,0,0,.05-1.06V27.05a6.81,6.81,0,0,0-.05-1,.43.43,0,0,0-.19-.31,1.52,1.52,0,0,0-.66-.09h-.11V25.4l.95,0c.63,0,1.13-.05,1.5-.05a5.41,5.41,0,0,1,1.54.18,2,2,0,0,1,1,.57,1.36,1.36,0,0,1,.37,1,1.49,1.49,0,0,1-.48,1.11,2.35,2.35,0,0,1-1.41.57,5.2,5.2,0,0,1,1.34,1.45,7,7,0,0,0,1.18,1.32,1.77,1.77,0,0,0,1,.33Zm-5-3.42.76,0a2.61,2.61,0,0,0,.68-.11,1,1,0,0,0,.46-.26,1.09,1.09,0,0,0,.29-.44,2.1,2.1,0,0,0,.1-.67A1.71,1.71,0,0,0,21.78,26a2,2,0,0,0-1.52-.42l-.42,0Z"/><path class="cls-1" d="M28.4,29.38H25.61c0,.19,0,.33,0,.43a3.14,3.14,0,0,0,.32,1.58,1.08,1.08,0,0,0,1,.53,1.29,1.29,0,0,0,1.26-.79h.23a1.36,1.36,0,0,1-.62.78,2,2,0,0,1-1,.28,1.92,1.92,0,0,1-1-.26,2,2,0,0,1-.74-.72,2.19,2.19,0,0,1-.29-1.14,2.31,2.31,0,0,1,.56-1.58,1.78,1.78,0,0,1,1.39-.62,1.58,1.58,0,0,1,1.22.47A1.65,1.65,0,0,1,28.4,29.38Zm-.85-.2a1.41,1.41,0,0,0,0-.2.85.85,0,0,0-.25-.66.86.86,0,0,0-.62-.24c-.59,0-.94.37-1.06,1.1Z"/><path class="cls-1" d="M31.22,28v.22h-.84v2.4c0,.43,0,.7,0,.81a.34.34,0,0,0,.14.25.74.74,0,0,0,.43.09h.21V32H29V31.8a1,1,0,0,0,.46-.07.27.27,0,0,0,.16-.2,4.84,4.84,0,0,0,0-.88v-2.4h-.75V28h.75v-.36a5.78,5.78,0,0,1,.05-.94A1.76,1.76,0,0,1,30,26a1.55,1.55,0,0,1,.57-.54,1.63,1.63,0,0,1,.82-.19,1.57,1.57,0,0,1,.92.24c.24.16.35.32.35.48a.3.3,0,0,1-.1.24.32.32,0,0,1-.23.09c-.17,0-.33-.13-.47-.4a.72.72,0,0,0-.62-.44.77.77,0,0,0-.54.22,1,1,0,0,0-.28.56c0,.22,0,.7,0,1.42V28Z"/><path class="cls-1" d="M35.49,29.38H32.7c0,.19,0,.33,0,.43A3,3,0,0,0,33,31.39a1.07,1.07,0,0,0,1,.53,1.27,1.27,0,0,0,1.26-.79h.24a1.4,1.4,0,0,1-.62.78,2,2,0,0,1-1,.28,1.92,1.92,0,0,1-1-.26,2,2,0,0,1-.74-.72,2.19,2.19,0,0,1-.29-1.14,2.31,2.31,0,0,1,.56-1.58,1.76,1.76,0,0,1,1.39-.62,1.56,1.56,0,0,1,1.21.47A1.66,1.66,0,0,1,35.49,29.38Zm-.86-.2a1.5,1.5,0,0,0,0-.2.84.84,0,0,0-.87-.9c-.59,0-1,.37-1.06,1.1Z"/><path class="cls-1" d="M37.53,28.89a1.63,1.63,0,0,1,.54-.73,1.16,1.16,0,0,1,.73-.29.63.63,0,0,1,.51.2.62.62,0,0,1,.19.41.33.33,0,0,1-.1.24.29.29,0,0,1-.23.1c-.16,0-.29-.12-.37-.36s-.15-.24-.27-.24a.8.8,0,0,0-.5.28,1.3,1.3,0,0,0-.37.6,3.06,3.06,0,0,0-.09.84v.71c0,.43,0,.7,0,.81a.34.34,0,0,0,.14.25.76.76,0,0,0,.43.09h.14V32H36.18V31.8h.1a.89.89,0,0,0,.42-.08.34.34,0,0,0,.15-.23c0-.09,0-.37,0-.84V29.53c0-.43,0-.7,0-.81a.33.33,0,0,0-.14-.26.74.74,0,0,0-.43-.09h-.1v-.22a7,7,0,0,0,1.2-.28A3.33,3.33,0,0,1,37.53,28.89Z"/><path class="cls-1" d="M43.41,29.38H40.62c0,.19,0,.33,0,.43a3.13,3.13,0,0,0,.33,1.58,1.08,1.08,0,0,0,1,.53,1.29,1.29,0,0,0,1.26-.79h.23a1.36,1.36,0,0,1-.62.78,2,2,0,0,1-1,.28,1.92,1.92,0,0,1-1-.26,2,2,0,0,1-.74-.72,2.19,2.19,0,0,1-.29-1.14,2.31,2.31,0,0,1,.56-1.58,1.78,1.78,0,0,1,1.39-.62,1.58,1.58,0,0,1,1.22.47A1.65,1.65,0,0,1,43.41,29.38Zm-.85-.2a1.41,1.41,0,0,0,0-.2.85.85,0,0,0-.25-.66.86.86,0,0,0-.62-.24c-.59,0-.94.37-1.06,1.1Z"/><path class="cls-1" d="M45.17,27.87h.13a2.46,2.46,0,0,1,.13.82,2.47,2.47,0,0,1,.74-.62,1.61,1.61,0,0,1,.8-.2,1.39,1.39,0,0,1,.79.2.88.88,0,0,1,.39.49,3,3,0,0,1,.09.84v1.25a7.51,7.51,0,0,0,0,.85.36.36,0,0,0,.15.23,1.09,1.09,0,0,0,.48.07V32h-2V31.8h.09a.72.72,0,0,0,.46-.1.39.39,0,0,0,.12-.24c0-.09,0-.36,0-.81V29.36a3.55,3.55,0,0,0,0-.67.63.63,0,0,0-.25-.36.87.87,0,0,0-.52-.16,1.17,1.17,0,0,0-.68.22,2.3,2.3,0,0,0-.61.63v1.63a6.53,6.53,0,0,0,0,.85.33.33,0,0,0,.15.23,1.09,1.09,0,0,0,.48.07V32h-2V31.8a1,1,0,0,0,.47-.07.27.27,0,0,0,.16-.2,6.12,6.12,0,0,0,0-.88V29.46a6.33,6.33,0,0,0,0-.84.32.32,0,0,0-.16-.23,1,1,0,0,0-.48-.08v-.22A6.3,6.3,0,0,0,45.17,27.87Z"/><path class="cls-1" d="M52.93,31.05h.21a1.53,1.53,0,0,1-1.66,1.14,2,2,0,0,1-1.43-.58,2.19,2.19,0,0,1,1.53-3.74,2,2,0,0,1,1,.22c.29.15.44.34.44.56a.43.43,0,0,1-.08.23.28.28,0,0,1-.23.1c-.22,0-.35-.12-.4-.37a.79.79,0,0,0-.18-.4.82.82,0,0,0-.49-.11,1.15,1.15,0,0,0-1,.45,2.35,2.35,0,0,0-.33,1.37,2.63,2.63,0,0,0,.36,1.48,1.2,1.2,0,0,0,1.07.53A1.17,1.17,0,0,0,52.93,31.05Z"/><path class="cls-1" d="M57.37,29.38H54.58c0,.19,0,.33,0,.43a3,3,0,0,0,.33,1.58,1.08,1.08,0,0,0,1,.53,1.29,1.29,0,0,0,1.26-.79h.23a1.36,1.36,0,0,1-.62.78,2,2,0,0,1-1,.28,1.92,1.92,0,0,1-1-.26,2,2,0,0,1-.74-.72,2.19,2.19,0,0,1-.29-1.14,2.31,2.31,0,0,1,.56-1.58,1.78,1.78,0,0,1,1.39-.62,1.58,1.58,0,0,1,1.67,1.51Zm-.85-.2a1.41,1.41,0,0,0,0-.2.85.85,0,0,0-.25-.66.86.86,0,0,0-.62-.24c-.59,0-.94.37-1.06,1.1Z"/><rect class="cls-3" x="72.73" y="8.66" width="56.64" height="29.37"/><path class="cls-1" d="M92.06,17.46a2.88,2.88,0,0,1,1.68.56,1.54,1.54,0,0,1,.54,1.2,1.65,1.65,0,0,1-.37,1.08,1.76,1.76,0,0,1-1,.59,7,7,0,0,1-1.55.14h-2.6V20.8h.26a1.08,1.08,0,0,0,.59-.11.47.47,0,0,0,.2-.33,7,7,0,0,0,0-1.06V16.08a7,7,0,0,0,0-1,.43.43,0,0,0-.19-.32,1.52,1.52,0,0,0-.66-.09h-.12V14.4l1.09,0,1.24,0c1.81,0,2.71.52,2.71,1.56a1.25,1.25,0,0,1-.47,1A2.76,2.76,0,0,1,92.06,17.46Zm-1.2-.09h.21A2.3,2.3,0,0,0,92.51,17,1.33,1.33,0,0,0,92.9,16a1.6,1.6,0,0,0-.16-.8,1,1,0,0,0-.45-.44,2.53,2.53,0,0,0-1-.15h-.4Zm0,.24v1.47c0,.63,0,1,0,1.2a.55.55,0,0,0,.18.38.92.92,0,0,0,.59.14,1.59,1.59,0,0,0,1.17-.4,1.68,1.68,0,0,0,.39-1.21,1.5,1.5,0,0,0-.44-1.2,2.35,2.35,0,0,0-1.55-.39Z"/><path class="cls-1" d="M96.26,14.31v5.34c0,.43,0,.7,0,.81a.31.31,0,0,0,.14.25.74.74,0,0,0,.43.09H97V21H94.83V20.8H95a.82.82,0,0,0,.41-.08.28.28,0,0,0,.15-.23,6.22,6.22,0,0,0,0-.84V15.7a1.57,1.57,0,0,0-.12-.79c-.07-.11-.25-.17-.54-.17v-.22a5,5,0,0,0,.7-.07,2.45,2.45,0,0,0,.55-.14Z"/><path class="cls-1" d="M97.5,19a2.1,2.1,0,0,1,.61-1.54,2,2,0,0,1,1.51-.61,2,2,0,0,1,1.52.62,2.26,2.26,0,0,1,0,3.12,2.16,2.16,0,0,1-1.51.58,2.1,2.1,0,0,1-1.5-.59A2,2,0,0,1,97.5,19Zm.81,0a2.47,2.47,0,0,0,.34,1.5,1.19,1.19,0,0,0,1,.42,1.17,1.17,0,0,0,1-.42,2.47,2.47,0,0,0,.34-1.5,2.6,2.6,0,0,0-.33-1.5,1.3,1.3,0,0,0-2,0A2.58,2.58,0,0,0,98.31,19Z"/><path class="cls-1" d="M106,20.05h.21a1.53,1.53,0,0,1-1.66,1.14,2,2,0,0,1-1.44-.58,2.33,2.33,0,0,1,0-3.13,2.14,2.14,0,0,1,2.44-.39c.29.15.44.34.44.56a.43.43,0,0,1-.08.23.3.3,0,0,1-.24.1c-.21,0-.34-.12-.39-.37a.79.79,0,0,0-.18-.4.83.83,0,0,0-.5-.11,1.14,1.14,0,0,0-1,.45,2.35,2.35,0,0,0-.33,1.37,2.72,2.72,0,0,0,.35,1.48,1.23,1.23,0,0,0,1.08.53A1.17,1.17,0,0,0,106,20.05Z"/><path class="cls-1" d="M109,17h1.61v.22a2.2,2.2,0,0,0-1.19.67l-.74.6,1.42,1.67a3,3,0,0,0,.51.49.89.89,0,0,0,.38.12V21h-2V20.8c.33,0,.5-.08.5-.21s-.11-.22-.33-.48l-1-1.19-.21.16v.57c0,.43,0,.7,0,.81a.34.34,0,0,0,.14.25.74.74,0,0,0,.43.09V21h-2V20.8h.15a.71.71,0,0,0,.46-.1.39.39,0,0,0,.12-.24c0-.09,0-.36,0-.81v-4a1.62,1.62,0,0,0-.11-.74c-.07-.11-.25-.16-.53-.16v-.22a5,5,0,0,0,.69-.07,2.45,2.45,0,0,0,.55-.14h.1v4.5l.42-.29c.68-.49,1-.83,1-1s-.12-.22-.37-.23Z"/><path class="cls-1" d="M88.21,32H86.43A8.29,8.29,0,0,1,85,30.29c-.21-.3-.42-.59-.65-.86a3.35,3.35,0,0,0-.46-.51.72.72,0,0,0-.4-.09h-.26V30.3c0,.52,0,.86,0,1a.49.49,0,0,0,.2.35,1.09,1.09,0,0,0,.61.12h.32V32H81.2V31.8h.21a1.08,1.08,0,0,0,.59-.11.48.48,0,0,0,.21-.33,7.58,7.58,0,0,0,0-1.06V27.05a7.34,7.34,0,0,0,0-1,.44.44,0,0,0-.2-.31,1.5,1.5,0,0,0-.65-.09h-.11V25.4l.94,0c.63,0,1.14-.05,1.51-.05a5.46,5.46,0,0,1,1.54.18,2.11,2.11,0,0,1,1,.57,1.4,1.4,0,0,1,.36,1,1.49,1.49,0,0,1-.48,1.11,2.29,2.29,0,0,1-1.4.57A5.52,5.52,0,0,1,86,30.15a6.7,6.7,0,0,0,1.18,1.32,1.72,1.72,0,0,0,1,.33Zm-5-3.42.76,0a2.6,2.6,0,0,0,.67-.11,1.07,1.07,0,0,0,.75-.7,1.86,1.86,0,0,0,.1-.67A1.65,1.65,0,0,0,85.14,26a2,2,0,0,0-1.52-.42l-.41,0Z"/><path class="cls-1" d="M91.77,29.38H89c0,.19,0,.33,0,.43a3,3,0,0,0,.33,1.58,1.07,1.07,0,0,0,1,.53,1.27,1.27,0,0,0,1.26-.79h.24a1.4,1.4,0,0,1-.62.78,2,2,0,0,1-1,.28,1.92,1.92,0,0,1-1-.26,2,2,0,0,1-.74-.72,2.19,2.19,0,0,1-.29-1.14,2.31,2.31,0,0,1,.56-1.58,1.76,1.76,0,0,1,1.39-.62,1.56,1.56,0,0,1,1.21.47A1.66,1.66,0,0,1,91.77,29.38Zm-.86-.2a1.5,1.5,0,0,0,0-.2.84.84,0,0,0-.87-.9c-.59,0-1,.37-1.06,1.1Z"/><path class="cls-1" d="M94.58,28v.22h-.83v2.4c0,.43,0,.7,0,.81a.34.34,0,0,0,.14.25.78.78,0,0,0,.44.09h.21V32H92.38V31.8a1,1,0,0,0,.47-.07.27.27,0,0,0,.16-.2,6.92,6.92,0,0,0,0-.88v-2.4H92.3V28H93v-.36a7.22,7.22,0,0,1,0-.94,1.8,1.8,0,0,1,.28-.69,1.55,1.55,0,0,1,.57-.54,1.63,1.63,0,0,1,.82-.19,1.59,1.59,0,0,1,.92.24c.23.16.35.32.35.48a.32.32,0,0,1-.33.33c-.17,0-.33-.13-.48-.4a.71.71,0,0,0-.62-.44.81.81,0,0,0-.54.22,1,1,0,0,0-.27.56c0,.22,0,.7,0,1.42V28Z"/><path class="cls-1" d="M98.85,29.38H96.06c0,.19,0,.33,0,.43a3,3,0,0,0,.32,1.58,1.08,1.08,0,0,0,1,.53,1.29,1.29,0,0,0,1.26-.79h.23a1.36,1.36,0,0,1-.62.78,2,2,0,0,1-1,.28,1.92,1.92,0,0,1-1-.26,2,2,0,0,1-.74-.72,2.19,2.19,0,0,1-.29-1.14,2.31,2.31,0,0,1,.56-1.58,1.78,1.78,0,0,1,1.39-.62,1.58,1.58,0,0,1,1.22.47A1.65,1.65,0,0,1,98.85,29.38Zm-.85-.2a1.41,1.41,0,0,0,0-.2.85.85,0,0,0-.25-.66.86.86,0,0,0-.62-.24c-.59,0-.94.37-1.06,1.1Z"/><path class="cls-1" d="M100.9,28.89a1.63,1.63,0,0,1,.54-.73,1.16,1.16,0,0,1,.73-.29.66.66,0,0,1,.51.2.61.61,0,0,1,.18.41.36.36,0,0,1-.09.24.31.31,0,0,1-.24.1c-.16,0-.28-.12-.37-.36s-.14-.24-.26-.24a.78.78,0,0,0-.5.28,1.32,1.32,0,0,0-.38.6,3.6,3.6,0,0,0-.08.84v.71c0,.43,0,.7,0,.81a.37.37,0,0,0,.14.25.8.8,0,0,0,.44.09h.14V32H99.54V31.8h.1a.83.83,0,0,0,.42-.08.34.34,0,0,0,.15-.23,7.18,7.18,0,0,0,0-.84V29.53c0-.43,0-.7,0-.81a.36.36,0,0,0-.14-.26.78.78,0,0,0-.44-.09h-.1v-.22a6.58,6.58,0,0,0,1.2-.28A3,3,0,0,1,100.9,28.89Z"/><path class="cls-1" d="M106.78,29.38H104c0,.19,0,.33,0,.43a3,3,0,0,0,.33,1.58,1.07,1.07,0,0,0,1,.53,1.27,1.27,0,0,0,1.26-.79h.24a1.4,1.4,0,0,1-.62.78,2,2,0,0,1-1,.28,1.92,1.92,0,0,1-1-.26,2,2,0,0,1-.74-.72,2.19,2.19,0,0,1-.29-1.14,2.31,2.31,0,0,1,.56-1.58,1.76,1.76,0,0,1,1.39-.62,1.56,1.56,0,0,1,1.21.47A1.66,1.66,0,0,1,106.78,29.38Zm-.86-.2a1.5,1.5,0,0,0,0-.2.84.84,0,0,0-.87-.9c-.59,0-.95.37-1.06,1.1Z"/><path class="cls-1" d="M108.54,27.87h.13a2.79,2.79,0,0,1,.12.82,2.6,2.6,0,0,1,.74-.62,1.68,1.68,0,0,1,.81-.2,1.33,1.33,0,0,1,.78.2.84.84,0,0,1,.39.49,3,3,0,0,1,.09.84v1.25a6.53,6.53,0,0,0,0,.85.3.3,0,0,0,.15.23,1.06,1.06,0,0,0,.48.07V32h-2.05V31.8h.09a.69.69,0,0,0,.46-.1.39.39,0,0,0,.12-.24c0-.09,0-.36,0-.81V29.36a3.35,3.35,0,0,0-.05-.67.59.59,0,0,0-.25-.36.82.82,0,0,0-.51-.16,1.15,1.15,0,0,0-.68.22,2.32,2.32,0,0,0-.62.63v1.63a6.53,6.53,0,0,0,0,.85.34.34,0,0,0,.16.23,1,1,0,0,0,.48.07V32h-2V31.8a1.07,1.07,0,0,0,.47-.07.29.29,0,0,0,.16-.2,6.92,6.92,0,0,0,0-.88V29.46a6.33,6.33,0,0,0,0-.84.31.31,0,0,0-.15-.23,1.06,1.06,0,0,0-.48-.08v-.22A6.69,6.69,0,0,0,108.54,27.87Z"/><path class="cls-1" d="M116.29,31.05h.22a1.54,1.54,0,0,1-1.66,1.14,2,2,0,0,1-1.44-.58,2.33,2.33,0,0,1,0-3.13,2.14,2.14,0,0,1,2.44-.39.65.65,0,0,1,.43.56.36.36,0,0,1-.08.23.26.26,0,0,1-.23.1.38.38,0,0,1-.39-.37.71.71,0,0,0-.19-.4.78.78,0,0,0-.49-.11,1.14,1.14,0,0,0-1,.45,2.35,2.35,0,0,0-.33,1.37A2.72,2.72,0,0,0,114,31.4a1.22,1.22,0,0,0,1.07.53A1.16,1.16,0,0,0,116.29,31.05Z"/><path class="cls-1" d="M120.74,29.38H118c0,.19,0,.33,0,.43a3,3,0,0,0,.33,1.58,1.07,1.07,0,0,0,1,.53,1.27,1.27,0,0,0,1.26-.79h.24a1.4,1.4,0,0,1-.62.78,2,2,0,0,1-1,.28,1.92,1.92,0,0,1-1-.26,2,2,0,0,1-.74-.72,2.19,2.19,0,0,1-.29-1.14,2.31,2.31,0,0,1,.56-1.58,1.76,1.76,0,0,1,1.39-.62,1.56,1.56,0,0,1,1.21.47A1.66,1.66,0,0,1,120.74,29.38Zm-.86-.2a1.5,1.5,0,0,0,0-.2.84.84,0,0,0-.87-.9c-.59,0-1,.37-1.06,1.1Z"/><rect class="cls-3" x="253.52" y="8.66" width="56.64" height="29.37"/><path class="cls-1" d="M272.85,17.46a2.82,2.82,0,0,1,1.67.56,1.52,1.52,0,0,1,.55,1.2,1.7,1.7,0,0,1-.37,1.08,1.79,1.79,0,0,1-.95.59,7.06,7.06,0,0,1-1.55.14h-2.6V20.8h.25a1.05,1.05,0,0,0,.59-.11.48.48,0,0,0,.21-.33,7.58,7.58,0,0,0,0-1.06V16.08a7.51,7.51,0,0,0,0-1,.44.44,0,0,0-.2-.32,1.47,1.47,0,0,0-.65-.09h-.13V14.4l1.09,0,1.24,0c1.81,0,2.72.52,2.72,1.56a1.28,1.28,0,0,1-.47,1A2.79,2.79,0,0,1,272.85,17.46Zm-1.2-.09h.2A2.32,2.32,0,0,0,273.3,17a1.36,1.36,0,0,0,.38-1.07,1.72,1.72,0,0,0-.15-.8,1,1,0,0,0-.45-.44,2.58,2.58,0,0,0-1-.15h-.39Zm0,.24v1.47q0,.95,0,1.2a.6.6,0,0,0,.19.38.9.9,0,0,0,.59.14,1.59,1.59,0,0,0,1.17-.4,1.68,1.68,0,0,0,.39-1.21,1.53,1.53,0,0,0-.44-1.2A2.4,2.4,0,0,0,272,17.6Z"/><path class="cls-1" d="M277.05,14.31v5.34c0,.43,0,.7,0,.81a.34.34,0,0,0,.14.25.78.78,0,0,0,.44.09h.11V21h-2.14V20.8h.14a.83.83,0,0,0,.42-.08.34.34,0,0,0,.15-.23c0-.09,0-.37,0-.84V15.7a1.6,1.6,0,0,0-.11-.79c-.07-.11-.26-.17-.55-.17v-.22a4.86,4.86,0,0,0,.7-.07,2.58,2.58,0,0,0,.56-.14Z"/><path class="cls-1" d="M278.28,19a2.1,2.1,0,0,1,.62-1.54,2.17,2.17,0,0,1,3,0,2.29,2.29,0,0,1,0,3.12,2.18,2.18,0,0,1-1.51.58,2.14,2.14,0,0,1-1.51-.59A2.09,2.09,0,0,1,278.28,19Zm.81,0a2.46,2.46,0,0,0,.35,1.5,1.34,1.34,0,0,0,1.95,0,2.55,2.55,0,0,0,.34-1.5,2.51,2.51,0,0,0-.34-1.5,1.14,1.14,0,0,0-1-.45,1.15,1.15,0,0,0-1,.45A2.49,2.49,0,0,0,279.09,19Z"/><path class="cls-1" d="M286.73,20.05H287a1.54,1.54,0,0,1-1.66,1.14,2,2,0,0,1-1.44-.58,2.33,2.33,0,0,1,0-3.13,2.14,2.14,0,0,1,2.44-.39.65.65,0,0,1,.43.56.36.36,0,0,1-.08.23.26.26,0,0,1-.23.1c-.22,0-.35-.12-.4-.37a.71.71,0,0,0-.18-.4.8.8,0,0,0-.49-.11,1.13,1.13,0,0,0-1,.45,2.35,2.35,0,0,0-.33,1.37,2.64,2.64,0,0,0,.35,1.48,1.21,1.21,0,0,0,1.07.53A1.16,1.16,0,0,0,286.73,20.05Z"/><path class="cls-1" d="M289.82,17h1.61v.22a2.24,2.24,0,0,0-1.19.67l-.74.6,1.43,1.67a2.7,2.7,0,0,0,.5.49,1,1,0,0,0,.39.12V21h-2V20.8c.34,0,.5-.08.5-.21s-.11-.22-.33-.48l-1-1.19-.21.16v.57c0,.43,0,.7,0,.81a.31.31,0,0,0,.14.25.73.73,0,0,0,.42.09V21h-2V20.8h.16a.67.67,0,0,0,.45-.1.39.39,0,0,0,.12-.24c0-.09,0-.36,0-.81v-4a1.62,1.62,0,0,0-.11-.74c-.08-.11-.25-.16-.53-.16v-.22a5,5,0,0,0,.69-.07,2.45,2.45,0,0,0,.55-.14h.1v4.5l.42-.29c.68-.49,1-.83,1-1s-.13-.22-.38-.23Z"/><path class="cls-1" d="M269,32h-1.78a8.29,8.29,0,0,1-1.45-1.74c-.21-.3-.43-.59-.65-.86a3.22,3.22,0,0,0-.47-.51.66.66,0,0,0-.39-.09H264V30.3a9.88,9.88,0,0,0,0,1,.49.49,0,0,0,.2.35,1,1,0,0,0,.6.12h.32V32H262V31.8h.22a1.08,1.08,0,0,0,.59-.11.51.51,0,0,0,.2-.33A7,7,0,0,0,263,30.3V27.05a6.81,6.81,0,0,0-.05-1,.43.43,0,0,0-.19-.31,1.52,1.52,0,0,0-.66-.09H262V25.4l1,0c.63,0,1.13-.05,1.5-.05a5.41,5.41,0,0,1,1.54.18,2,2,0,0,1,1,.57,1.36,1.36,0,0,1,.37,1,1.49,1.49,0,0,1-.48,1.11,2.35,2.35,0,0,1-1.41.57,5.2,5.2,0,0,1,1.34,1.45A7,7,0,0,0,268,31.47a1.77,1.77,0,0,0,1,.33Zm-5-3.42.76,0a2.61,2.61,0,0,0,.68-.11,1.13,1.13,0,0,0,.47-.26,1.19,1.19,0,0,0,.28-.44,2.1,2.1,0,0,0,.1-.67,1.71,1.71,0,0,0-.35-1.12,2,2,0,0,0-1.52-.42l-.42,0Z"/><path class="cls-1" d="M272.55,29.38h-2.78a3.82,3.82,0,0,0,0,.43,3,3,0,0,0,.33,1.58,1.06,1.06,0,0,0,1,.53,1.29,1.29,0,0,0,1.26-.79h.23a1.36,1.36,0,0,1-.62.78,2,2,0,0,1-1,.28,1.92,1.92,0,0,1-1-.26,2.12,2.12,0,0,1-.74-.72,2.19,2.19,0,0,1-.29-1.14,2.31,2.31,0,0,1,.56-1.58,1.78,1.78,0,0,1,1.39-.62,1.58,1.58,0,0,1,1.67,1.51Zm-.85-.2a1.41,1.41,0,0,0,0-.2.85.85,0,0,0-.25-.66.86.86,0,0,0-.62-.24c-.59,0-.94.37-1.06,1.1Z"/><path class="cls-1" d="M275.37,28v.22h-.84v2.4c0,.43,0,.7,0,.81a.34.34,0,0,0,.14.25.74.74,0,0,0,.43.09h.21V32h-2.16V31.8a1.07,1.07,0,0,0,.47-.07.32.32,0,0,0,.16-.2,6.92,6.92,0,0,0,0-.88v-2.4h-.75V28h.75v-.36a5.78,5.78,0,0,1,.05-.94,1.76,1.76,0,0,1,.27-.69,1.55,1.55,0,0,1,.57-.54,1.66,1.66,0,0,1,.82-.19,1.57,1.57,0,0,1,.92.24c.24.16.35.32.35.48a.3.3,0,0,1-.1.24.32.32,0,0,1-.23.09c-.17,0-.33-.13-.47-.4a.72.72,0,0,0-.62-.44.79.79,0,0,0-.54.22,1,1,0,0,0-.28.56c0,.22,0,.7,0,1.42V28Z"/><path class="cls-1" d="M279.64,29.38h-2.79c0,.19,0,.33,0,.43a3,3,0,0,0,.33,1.58,1.07,1.07,0,0,0,1,.53,1.27,1.27,0,0,0,1.26-.79h.24a1.4,1.4,0,0,1-.62.78,2,2,0,0,1-1,.28,1.92,1.92,0,0,1-1-.26,2,2,0,0,1-.74-.72,2.19,2.19,0,0,1-.29-1.14,2.31,2.31,0,0,1,.56-1.58,1.76,1.76,0,0,1,1.39-.62,1.56,1.56,0,0,1,1.21.47A1.66,1.66,0,0,1,279.64,29.38Zm-.86-.2a1.5,1.5,0,0,0,0-.2.84.84,0,0,0-.87-.9c-.59,0-.95.37-1.06,1.1Z"/><path class="cls-1" d="M281.68,28.89a1.71,1.71,0,0,1,.54-.73,1.18,1.18,0,0,1,.73-.29.63.63,0,0,1,.51.2.58.58,0,0,1,.19.41.33.33,0,0,1-.1.24.29.29,0,0,1-.23.1c-.16,0-.29-.12-.37-.36s-.15-.24-.27-.24a.82.82,0,0,0-.5.28,1.3,1.3,0,0,0-.37.6,3.06,3.06,0,0,0-.09.84v.71c0,.43,0,.7,0,.81a.34.34,0,0,0,.14.25.76.76,0,0,0,.43.09h.14V32h-2.12V31.8h.1a.89.89,0,0,0,.42-.08.34.34,0,0,0,.15-.23c0-.09,0-.37,0-.84V29.53c0-.43,0-.7,0-.81a.33.33,0,0,0-.14-.26.74.74,0,0,0-.43-.09h-.1v-.22a7,7,0,0,0,1.2-.28A3.33,3.33,0,0,1,281.68,28.89Z"/><path class="cls-1" d="M287.56,29.38h-2.79c0,.19,0,.33,0,.43a3,3,0,0,0,.33,1.58,1.06,1.06,0,0,0,1,.53,1.29,1.29,0,0,0,1.26-.79h.23a1.36,1.36,0,0,1-.62.78,2,2,0,0,1-1,.28,1.92,1.92,0,0,1-1-.26,2.12,2.12,0,0,1-.74-.72,2.19,2.19,0,0,1-.29-1.14,2.31,2.31,0,0,1,.56-1.58,1.78,1.78,0,0,1,1.39-.62,1.58,1.58,0,0,1,1.67,1.51Zm-.85-.2a1.41,1.41,0,0,0,0-.2.85.85,0,0,0-.25-.66.86.86,0,0,0-.62-.24c-.59,0-.94.37-1.06,1.1Z"/><path class="cls-1" d="M289.32,27.87h.13a2.46,2.46,0,0,1,.13.82,2.47,2.47,0,0,1,.74-.62,1.61,1.61,0,0,1,.8-.2,1.39,1.39,0,0,1,.79.2.88.88,0,0,1,.39.49,3,3,0,0,1,.09.84v1.25c0,.47,0,.75,0,.85a.34.34,0,0,0,.16.23,1,1,0,0,0,.47.07V32h-2V31.8h.09a.71.71,0,0,0,.46-.1.39.39,0,0,0,.12-.24c0-.09,0-.36,0-.81V29.36a3.55,3.55,0,0,0,0-.67.63.63,0,0,0-.25-.36.87.87,0,0,0-.52-.16,1.19,1.19,0,0,0-.68.22,2.3,2.3,0,0,0-.61.63v1.63a6.53,6.53,0,0,0,0,.85.33.33,0,0,0,.15.23,1.09,1.09,0,0,0,.48.07V32h-2V31.8a1,1,0,0,0,.47-.07.27.27,0,0,0,.16-.2,4.84,4.84,0,0,0,0-.88V29.46a6.33,6.33,0,0,0,0-.84.32.32,0,0,0-.16-.23,1,1,0,0,0-.48-.08v-.22A6.3,6.3,0,0,0,289.32,27.87Z"/><path class="cls-1" d="M297.08,31.05h.21a1.53,1.53,0,0,1-1.66,1.14,2,2,0,0,1-1.43-.58,2.19,2.19,0,0,1,1.53-3.74,2,2,0,0,1,.95.22c.29.15.44.34.44.56a.43.43,0,0,1-.08.23.28.28,0,0,1-.23.1c-.22,0-.35-.12-.4-.37a.79.79,0,0,0-.18-.4.8.8,0,0,0-.49-.11,1.15,1.15,0,0,0-1,.45,2.35,2.35,0,0,0-.33,1.37,2.63,2.63,0,0,0,.36,1.48,1.2,1.2,0,0,0,1.07.53A1.17,1.17,0,0,0,297.08,31.05Z"/><path class="cls-1" d="M301.52,29.38h-2.79c0,.19,0,.33,0,.43a3,3,0,0,0,.33,1.58,1.06,1.06,0,0,0,1,.53,1.29,1.29,0,0,0,1.26-.79h.23a1.36,1.36,0,0,1-.62.78,2,2,0,0,1-1,.28,1.92,1.92,0,0,1-1-.26,2.12,2.12,0,0,1-.74-.72,2.19,2.19,0,0,1-.29-1.14,2.31,2.31,0,0,1,.56-1.58,1.78,1.78,0,0,1,1.39-.62,1.58,1.58,0,0,1,1.67,1.51Zm-.85-.2a1.41,1.41,0,0,0,0-.2.85.85,0,0,0-.25-.66.86.86,0,0,0-.62-.24c-.59,0-.94.37-1.06,1.1Z"/><rect class="cls-3" x="316.88" y="8.66" width="56.64" height="29.37"/><path class="cls-1" d="M336.21,17.46a2.88,2.88,0,0,1,1.68.56,1.54,1.54,0,0,1,.54,1.2,1.65,1.65,0,0,1-.37,1.08,1.76,1.76,0,0,1-.95.59,7,7,0,0,1-1.55.14H333V20.8h.26a1.08,1.08,0,0,0,.59-.11.47.47,0,0,0,.2-.33,7,7,0,0,0,.05-1.06V16.08a7,7,0,0,0-.05-1,.43.43,0,0,0-.19-.32,1.52,1.52,0,0,0-.66-.09H333V14.4l1.09,0,1.24,0c1.81,0,2.71.52,2.71,1.56a1.27,1.27,0,0,1-.46,1A2.83,2.83,0,0,1,336.21,17.46ZM335,17.37h.2a2.3,2.3,0,0,0,1.44-.33,1.33,1.33,0,0,0,.39-1.07,1.6,1.6,0,0,0-.16-.8,1,1,0,0,0-.45-.44,2.53,2.53,0,0,0-1-.15H335Zm0,.24v1.47q0,.95,0,1.2a.55.55,0,0,0,.18.38.92.92,0,0,0,.59.14,1.59,1.59,0,0,0,1.17-.4,1.68,1.68,0,0,0,.39-1.21,1.5,1.5,0,0,0-.44-1.2,2.35,2.35,0,0,0-1.55-.39Z"/><path class="cls-1" d="M340.41,14.31v5.34c0,.43,0,.7,0,.81a.31.31,0,0,0,.14.25.74.74,0,0,0,.43.09h.12V21H339V20.8h.14a.82.82,0,0,0,.41-.08.28.28,0,0,0,.15-.23,6.22,6.22,0,0,0,0-.84V15.7a1.74,1.74,0,0,0-.11-.79c-.08-.11-.26-.17-.55-.17v-.22a5,5,0,0,0,.7-.07,2.45,2.45,0,0,0,.55-.14Z"/><path class="cls-1" d="M341.65,19a2.1,2.1,0,0,1,.61-1.54,2.06,2.06,0,0,1,1.51-.61,2,2,0,0,1,1.52.62,2.26,2.26,0,0,1,0,3.12,2.16,2.16,0,0,1-1.51.58,2.12,2.12,0,0,1-1.5-.59A2,2,0,0,1,341.65,19Zm.81,0a2.47,2.47,0,0,0,.34,1.5,1.19,1.19,0,0,0,1,.42,1.17,1.17,0,0,0,1-.42,2.47,2.47,0,0,0,.34-1.5,2.6,2.6,0,0,0-.33-1.5,1.17,1.17,0,0,0-1-.45,1.14,1.14,0,0,0-1,.45A2.49,2.49,0,0,0,342.46,19Z"/><path class="cls-1" d="M350.1,20.05h.21a1.53,1.53,0,0,1-1.66,1.14,2,2,0,0,1-1.43-.58,2.31,2.31,0,0,1,0-3.13,2.06,2.06,0,0,1,1.49-.61,2,2,0,0,1,.95.22c.29.15.44.34.44.56a.43.43,0,0,1-.08.23.28.28,0,0,1-.24.1c-.21,0-.34-.12-.39-.37a.79.79,0,0,0-.18-.4.82.82,0,0,0-.49-.11,1.15,1.15,0,0,0-1,.45,2.35,2.35,0,0,0-.33,1.37,2.63,2.63,0,0,0,.36,1.48,1.2,1.2,0,0,0,1.07.53A1.17,1.17,0,0,0,350.1,20.05Z"/><path class="cls-1" d="M353.19,17h1.61v.22a2.2,2.2,0,0,0-1.19.67l-.74.6,1.42,1.67a3,3,0,0,0,.51.49.89.89,0,0,0,.38.12V21h-2V20.8c.33,0,.5-.08.5-.21s-.11-.22-.33-.48l-1-1.19-.21.16v.57c0,.43,0,.7,0,.81a.34.34,0,0,0,.14.25.74.74,0,0,0,.43.09V21h-2V20.8h.15a.71.71,0,0,0,.46-.1.39.39,0,0,0,.12-.24c0-.09,0-.36,0-.81v-4a1.49,1.49,0,0,0-.11-.74c-.07-.11-.25-.16-.53-.16v-.22a5,5,0,0,0,.69-.07,2.45,2.45,0,0,0,.55-.14h.1v4.5l.42-.29c.68-.49,1-.83,1-1s-.12-.22-.37-.23Z"/><path class="cls-1" d="M332.36,32h-1.78a8.62,8.62,0,0,1-1.45-1.74c-.21-.3-.42-.59-.65-.86a3.35,3.35,0,0,0-.46-.51.72.72,0,0,0-.4-.09h-.26V30.3c0,.52,0,.86,0,1a.49.49,0,0,0,.2.35,1.09,1.09,0,0,0,.61.12h.32V32h-3.17V31.8h.21a1.05,1.05,0,0,0,.59-.11.48.48,0,0,0,.21-.33,7.58,7.58,0,0,0,0-1.06V27.05a7.34,7.34,0,0,0,0-1,.44.44,0,0,0-.2-.31,1.5,1.5,0,0,0-.65-.09h-.11V25.4l.94,0c.63,0,1.14-.05,1.51-.05a5.46,5.46,0,0,1,1.54.18,2.11,2.11,0,0,1,1,.57,1.4,1.4,0,0,1,.36,1,1.49,1.49,0,0,1-.48,1.11,2.29,2.29,0,0,1-1.4.57,5.35,5.35,0,0,1,1.34,1.45,6.7,6.7,0,0,0,1.18,1.32,1.74,1.74,0,0,0,1,.33Zm-5-3.42.76,0a2.53,2.53,0,0,0,.67-.11,1.07,1.07,0,0,0,.75-.7,1.86,1.86,0,0,0,.1-.67A1.7,1.7,0,0,0,329.3,26a2,2,0,0,0-1.53-.42l-.41,0Z"/><path class="cls-1" d="M335.92,29.38h-2.79c0,.19,0,.33,0,.43a3,3,0,0,0,.33,1.58,1.07,1.07,0,0,0,1,.53,1.27,1.27,0,0,0,1.26-.79h.24a1.4,1.4,0,0,1-.62.78,2,2,0,0,1-1,.28,1.92,1.92,0,0,1-1-.26,2,2,0,0,1-.74-.72,2.19,2.19,0,0,1-.29-1.14,2.31,2.31,0,0,1,.56-1.58,1.76,1.76,0,0,1,1.39-.62,1.56,1.56,0,0,1,1.21.47A1.66,1.66,0,0,1,335.92,29.38Zm-.86-.2a1.5,1.5,0,0,0,0-.2.84.84,0,0,0-.87-.9c-.59,0-.95.37-1.06,1.1Z"/><path class="cls-1" d="M338.73,28v.22h-.83v2.4c0,.43,0,.7,0,.81a.34.34,0,0,0,.14.25.78.78,0,0,0,.44.09h.21V32h-2.17V31.8a1,1,0,0,0,.47-.07.27.27,0,0,0,.16-.2,6.92,6.92,0,0,0,0-.88v-2.4h-.74V28h.74v-.36a7.22,7.22,0,0,1,.05-.94,1.8,1.8,0,0,1,.28-.69,1.55,1.55,0,0,1,.57-.54,1.63,1.63,0,0,1,.82-.19,1.59,1.59,0,0,1,.92.24c.23.16.35.32.35.48a.32.32,0,0,1-.33.33c-.17,0-.33-.13-.47-.4a.72.72,0,0,0-.62-.44.77.77,0,0,0-.54.22.91.91,0,0,0-.28.56c0,.22,0,.7,0,1.42V28Z"/><path class="cls-1" d="M343,29.38h-2.78a3.82,3.82,0,0,0,0,.43,3,3,0,0,0,.33,1.58,1.05,1.05,0,0,0,1,.53,1.29,1.29,0,0,0,1.26-.79H343a1.36,1.36,0,0,1-.62.78,2,2,0,0,1-1,.28,1.92,1.92,0,0,1-1-.26,2.12,2.12,0,0,1-.74-.72,2.19,2.19,0,0,1-.28-1.14,2.31,2.31,0,0,1,.55-1.58,1.78,1.78,0,0,1,1.39-.62A1.58,1.58,0,0,1,343,29.38Zm-.85-.2a1.41,1.41,0,0,0,0-.2.85.85,0,0,0-.25-.66.86.86,0,0,0-.62-.24c-.59,0-.94.37-1.06,1.1Z"/><path class="cls-1" d="M345.05,28.89a1.63,1.63,0,0,1,.54-.73,1.16,1.16,0,0,1,.73-.29.66.66,0,0,1,.51.2.61.61,0,0,1,.18.41.36.36,0,0,1-.09.24.31.31,0,0,1-.24.1c-.16,0-.28-.12-.37-.36s-.14-.24-.26-.24a.78.78,0,0,0-.5.28,1.32,1.32,0,0,0-.38.6,3.6,3.6,0,0,0-.08.84v.71a7.17,7.17,0,0,0,0,.81.33.33,0,0,0,.13.25.8.8,0,0,0,.44.09h.14V32h-2.13V31.8h.1a.83.83,0,0,0,.42-.08.31.31,0,0,0,.15-.23,6.22,6.22,0,0,0,0-.84V29.53c0-.43,0-.7,0-.81a.36.36,0,0,0-.14-.26.78.78,0,0,0-.44-.09h-.1v-.22a6.58,6.58,0,0,0,1.2-.28A3,3,0,0,1,345.05,28.89Z"/><path class="cls-1" d="M350.93,29.38h-2.79c0,.19,0,.33,0,.43a3,3,0,0,0,.33,1.58,1.07,1.07,0,0,0,1,.53,1.27,1.27,0,0,0,1.26-.79h.24a1.4,1.4,0,0,1-.62.78,2,2,0,0,1-1,.28,1.92,1.92,0,0,1-1-.26,2,2,0,0,1-.74-.72,2.19,2.19,0,0,1-.29-1.14,2.31,2.31,0,0,1,.56-1.58,1.76,1.76,0,0,1,1.39-.62,1.56,1.56,0,0,1,1.21.47A1.66,1.66,0,0,1,350.93,29.38Zm-.86-.2a1.5,1.5,0,0,0,0-.2.84.84,0,0,0-.87-.9c-.59,0-1,.37-1.06,1.1Z"/><path class="cls-1" d="M352.69,27.87h.13a2.79,2.79,0,0,1,.12.82,2.6,2.6,0,0,1,.74-.62,1.68,1.68,0,0,1,.81-.2,1.33,1.33,0,0,1,.78.2.84.84,0,0,1,.39.49,3,3,0,0,1,.09.84v1.25a6.53,6.53,0,0,0,0,.85.3.3,0,0,0,.15.23,1.09,1.09,0,0,0,.48.07V32h-2.05V31.8h.09a.69.69,0,0,0,.46-.1.39.39,0,0,0,.12-.24c0-.09,0-.36,0-.81V29.36a3.35,3.35,0,0,0-.05-.67.59.59,0,0,0-.25-.36.82.82,0,0,0-.51-.16,1.15,1.15,0,0,0-.68.22,2.32,2.32,0,0,0-.62.63v1.63a6.53,6.53,0,0,0,0,.85.34.34,0,0,0,.16.23,1,1,0,0,0,.48.07V32h-2V31.8a1.07,1.07,0,0,0,.47-.07.29.29,0,0,0,.16-.2,6.92,6.92,0,0,0,0-.88V29.46a6.33,6.33,0,0,0,0-.84.31.31,0,0,0-.15-.23,1.06,1.06,0,0,0-.48-.08v-.22A6.49,6.49,0,0,0,352.69,27.87Z"/><path class="cls-1" d="M360.44,31.05h.22A1.53,1.53,0,0,1,359,32.19a2,2,0,0,1-1.44-.58,2.33,2.33,0,0,1,.05-3.13,2.14,2.14,0,0,1,2.44-.39.65.65,0,0,1,.43.56.36.36,0,0,1-.08.23.26.26,0,0,1-.23.1.38.38,0,0,1-.39-.37.79.79,0,0,0-.18-.4.83.83,0,0,0-.5-.11,1.14,1.14,0,0,0-1,.45,2.35,2.35,0,0,0-.33,1.37,2.72,2.72,0,0,0,.35,1.48,1.22,1.22,0,0,0,1.07.53A1.16,1.16,0,0,0,360.44,31.05Z"/><path class="cls-1" d="M364.89,29.38H362.1c0,.19,0,.33,0,.43a3,3,0,0,0,.33,1.58,1.07,1.07,0,0,0,1,.53,1.27,1.27,0,0,0,1.26-.79h.24a1.4,1.4,0,0,1-.62.78,2,2,0,0,1-1,.28,1.92,1.92,0,0,1-1-.26,2,2,0,0,1-.74-.72,2.19,2.19,0,0,1-.29-1.14,2.31,2.31,0,0,1,.56-1.58,1.76,1.76,0,0,1,1.39-.62,1.56,1.56,0,0,1,1.21.47A1.66,1.66,0,0,1,364.89,29.38Zm-.86-.2a1.5,1.5,0,0,0,0-.2.84.84,0,0,0-.87-.9c-.59,0-.95.37-1.06,1.1Z"/><rect class="cls-3" x="380.25" y="8.66" width="56.64" height="29.37"/><path class="cls-1" d="M399.58,17.46a2.82,2.82,0,0,1,1.67.56,1.52,1.52,0,0,1,.55,1.2,1.7,1.7,0,0,1-.37,1.08,1.79,1.79,0,0,1-.95.59,7.13,7.13,0,0,1-1.55.14h-2.6V20.8h.25a1.05,1.05,0,0,0,.59-.11.48.48,0,0,0,.21-.33,7.58,7.58,0,0,0,0-1.06V16.08a7.51,7.51,0,0,0,0-1,.44.44,0,0,0-.2-.32,1.5,1.5,0,0,0-.65-.09h-.13V14.4l1.09,0,1.24,0c1.81,0,2.72.52,2.72,1.56a1.28,1.28,0,0,1-.47,1A2.79,2.79,0,0,1,399.58,17.46Zm-1.2-.09h.21A2.3,2.3,0,0,0,400,17a1.36,1.36,0,0,0,.38-1.07,1.72,1.72,0,0,0-.15-.8,1,1,0,0,0-.45-.44,2.58,2.58,0,0,0-1-.15h-.39Zm0,.24v1.47q0,.95,0,1.2a.6.6,0,0,0,.19.38.9.9,0,0,0,.59.14,1.59,1.59,0,0,0,1.17-.4,1.68,1.68,0,0,0,.39-1.21,1.53,1.53,0,0,0-.44-1.2,2.4,2.4,0,0,0-1.56-.39Z"/><path class="cls-1" d="M403.78,14.31v5.34c0,.43,0,.7,0,.81a.34.34,0,0,0,.14.25.78.78,0,0,0,.44.09h.11V21h-2.13V20.8h.13a.83.83,0,0,0,.42-.08.34.34,0,0,0,.15-.23c0-.09,0-.37,0-.84V15.7a1.74,1.74,0,0,0-.11-.79c-.07-.11-.26-.17-.55-.17v-.22a4.86,4.86,0,0,0,.7-.07,2.58,2.58,0,0,0,.56-.14Z"/><path class="cls-1" d="M405,19a2.1,2.1,0,0,1,.62-1.54,2.17,2.17,0,0,1,3,0,2.29,2.29,0,0,1,0,3.12,2.18,2.18,0,0,1-1.51.58,2.14,2.14,0,0,1-1.51-.59A2.09,2.09,0,0,1,405,19Zm.81,0a2.46,2.46,0,0,0,.35,1.5,1.34,1.34,0,0,0,1.95,0,2.47,2.47,0,0,0,.34-1.5,2.51,2.51,0,0,0-.34-1.5,1.14,1.14,0,0,0-1-.45,1.15,1.15,0,0,0-1,.45A2.49,2.49,0,0,0,405.82,19Z"/><path class="cls-1" d="M413.46,20.05h.22A1.54,1.54,0,0,1,412,21.19a2,2,0,0,1-1.44-.58,2.33,2.33,0,0,1,.05-3.13,2.14,2.14,0,0,1,2.44-.39.65.65,0,0,1,.43.56.43.43,0,0,1-.08.23.26.26,0,0,1-.23.1c-.22,0-.35-.12-.4-.37a.71.71,0,0,0-.18-.4.8.8,0,0,0-.49-.11,1.13,1.13,0,0,0-1,.45,2.35,2.35,0,0,0-.33,1.37,2.72,2.72,0,0,0,.35,1.48,1.21,1.21,0,0,0,1.07.53A1.16,1.16,0,0,0,413.46,20.05Z"/><path class="cls-1" d="M416.55,17h1.62v.22a2.22,2.22,0,0,0-1.2.67l-.74.6,1.43,1.67a2.41,2.41,0,0,0,.51.49.89.89,0,0,0,.38.12V21h-2V20.8c.34,0,.5-.08.5-.21s-.11-.22-.33-.48l-1-1.19-.21.16v.57c0,.43,0,.7,0,.81a.31.31,0,0,0,.14.25.73.73,0,0,0,.42.09V21h-2V20.8h.16a.67.67,0,0,0,.45-.1.39.39,0,0,0,.12-.24c0-.09,0-.36,0-.81v-4a1.62,1.62,0,0,0-.11-.74c-.08-.11-.25-.16-.53-.16v-.22a5,5,0,0,0,.69-.07,2.45,2.45,0,0,0,.55-.14h.1v4.5l.42-.29c.68-.49,1-.83,1-1s-.13-.22-.38-.23Z"/><path class="cls-1" d="M395.73,32H394a8.29,8.29,0,0,1-1.45-1.74c-.21-.3-.43-.59-.65-.86a3.22,3.22,0,0,0-.47-.51.66.66,0,0,0-.39-.09h-.27V30.3a9.88,9.88,0,0,0,0,1,.46.46,0,0,0,.2.35,1,1,0,0,0,.6.12h.32V32h-3.17V31.8h.22a1.08,1.08,0,0,0,.59-.11.51.51,0,0,0,.2-.33,7,7,0,0,0,0-1.06V27.05a6.81,6.81,0,0,0,0-1,.43.43,0,0,0-.19-.31,1.52,1.52,0,0,0-.66-.09h-.11V25.4l.95,0c.63,0,1.13-.05,1.5-.05a5.41,5.41,0,0,1,1.54.18,2,2,0,0,1,1,.57,1.36,1.36,0,0,1,.37,1,1.49,1.49,0,0,1-.48,1.11,2.35,2.35,0,0,1-1.41.57,5.2,5.2,0,0,1,1.34,1.45,7,7,0,0,0,1.18,1.32,1.77,1.77,0,0,0,1,.33Zm-5-3.42.76,0a2.61,2.61,0,0,0,.68-.11,1.13,1.13,0,0,0,.47-.26,1.19,1.19,0,0,0,.28-.44,2.1,2.1,0,0,0,.1-.67,1.71,1.71,0,0,0-.35-1.12,2,2,0,0,0-1.52-.42l-.42,0Z"/><path class="cls-1" d="M399.28,29.38H396.5a3.82,3.82,0,0,0,0,.43,3,3,0,0,0,.33,1.58,1.05,1.05,0,0,0,1,.53,1.29,1.29,0,0,0,1.26-.79h.23a1.36,1.36,0,0,1-.62.78,2,2,0,0,1-1,.28,1.92,1.92,0,0,1-1-.26,2,2,0,0,1-.74-.72,2.19,2.19,0,0,1-.28-1.14,2.31,2.31,0,0,1,.55-1.58,1.78,1.78,0,0,1,1.39-.62,1.58,1.58,0,0,1,1.67,1.51Zm-.85-.2a1.41,1.41,0,0,0,0-.2.85.85,0,0,0-.25-.66.86.86,0,0,0-.62-.24c-.59,0-.94.37-1.05,1.1Z"/><path class="cls-1" d="M402.1,28v.22h-.84v2.4c0,.43,0,.7,0,.81a.34.34,0,0,0,.14.25.74.74,0,0,0,.43.09h.21V32H399.9V31.8a1,1,0,0,0,.46-.07.28.28,0,0,0,.17-.2,6.92,6.92,0,0,0,0-.88v-2.4h-.75V28h.75v-.36a5.78,5.78,0,0,1,.05-.94,1.76,1.76,0,0,1,.27-.69,1.55,1.55,0,0,1,.57-.54,1.66,1.66,0,0,1,.82-.19,1.57,1.57,0,0,1,.92.24c.24.16.35.32.35.48a.3.3,0,0,1-.1.24.32.32,0,0,1-.23.09c-.17,0-.33-.13-.47-.4a.72.72,0,0,0-.62-.44.81.81,0,0,0-.54.22.9.9,0,0,0-.27.56,13.18,13.18,0,0,0-.05,1.42V28Z"/><path class="cls-1" d="M406.37,29.38h-2.79c0,.19,0,.33,0,.43a3,3,0,0,0,.33,1.58,1.07,1.07,0,0,0,1,.53,1.27,1.27,0,0,0,1.26-.79h.24a1.4,1.4,0,0,1-.62.78,2,2,0,0,1-1,.28,1.92,1.92,0,0,1-1-.26,2,2,0,0,1-.74-.72,2.19,2.19,0,0,1-.29-1.14,2.31,2.31,0,0,1,.56-1.58,1.76,1.76,0,0,1,1.39-.62,1.56,1.56,0,0,1,1.21.47A1.66,1.66,0,0,1,406.37,29.38Zm-.86-.2a1.5,1.5,0,0,0,0-.2.84.84,0,0,0-.87-.9c-.59,0-1,.37-1.06,1.1Z"/><path class="cls-1" d="M408.41,28.89a1.63,1.63,0,0,1,.54-.73,1.18,1.18,0,0,1,.73-.29.63.63,0,0,1,.51.2.62.62,0,0,1,.19.41.33.33,0,0,1-.1.24.29.29,0,0,1-.23.1c-.16,0-.29-.12-.37-.36s-.15-.24-.26-.24a.8.8,0,0,0-.51.28,1.3,1.3,0,0,0-.37.6,3.06,3.06,0,0,0-.09.84v.71c0,.43,0,.7,0,.81a.34.34,0,0,0,.14.25.76.76,0,0,0,.43.09h.14V32h-2.12V31.8h.1a.89.89,0,0,0,.42-.08.34.34,0,0,0,.15-.23c0-.09,0-.37,0-.84V29.53c0-.43,0-.7,0-.81a.33.33,0,0,0-.14-.26.74.74,0,0,0-.43-.09h-.1v-.22a7,7,0,0,0,1.2-.28A3.33,3.33,0,0,1,408.41,28.89Z"/><path class="cls-1" d="M414.29,29.38h-2.78a3.82,3.82,0,0,0,0,.43,3.14,3.14,0,0,0,.32,1.58,1.08,1.08,0,0,0,1,.53,1.29,1.29,0,0,0,1.26-.79h.23a1.36,1.36,0,0,1-.62.78,2,2,0,0,1-1,.28,1.92,1.92,0,0,1-1-.26,2,2,0,0,1-.74-.72,2.19,2.19,0,0,1-.28-1.14,2.31,2.31,0,0,1,.55-1.58,1.78,1.78,0,0,1,1.39-.62,1.58,1.58,0,0,1,1.67,1.51Zm-.85-.2a1.41,1.41,0,0,0,0-.2.85.85,0,0,0-.25-.66.86.86,0,0,0-.62-.24c-.59,0-.94.37-1.06,1.1Z"/><path class="cls-1" d="M416.05,27.87h.13a2.46,2.46,0,0,1,.13.82,2.47,2.47,0,0,1,.74-.62,1.61,1.61,0,0,1,.8-.2,1.39,1.39,0,0,1,.79.2.88.88,0,0,1,.39.49,3,3,0,0,1,.09.84v1.25c0,.47,0,.75,0,.85a.34.34,0,0,0,.16.23,1,1,0,0,0,.47.07V32h-2V31.8h.09a.71.71,0,0,0,.46-.1.39.39,0,0,0,.12-.24c0-.09,0-.36,0-.81V29.36a3.55,3.55,0,0,0,0-.67.63.63,0,0,0-.25-.36.87.87,0,0,0-.52-.16,1.19,1.19,0,0,0-.68.22,2.3,2.3,0,0,0-.61.63v1.63a6.53,6.53,0,0,0,0,.85.33.33,0,0,0,.15.23,1.09,1.09,0,0,0,.48.07V32h-2V31.8a1,1,0,0,0,.47-.07.27.27,0,0,0,.16-.2,4.84,4.84,0,0,0,0-.88V29.46a6.33,6.33,0,0,0,0-.84.32.32,0,0,0-.16-.23,1,1,0,0,0-.48-.08v-.22A6.3,6.3,0,0,0,416.05,27.87Z"/><path class="cls-1" d="M423.81,31.05H424a1.53,1.53,0,0,1-1.66,1.14,2,2,0,0,1-1.43-.58,2.19,2.19,0,0,1,1.53-3.74,2,2,0,0,1,1,.22c.29.15.44.34.44.56a.43.43,0,0,1-.08.23.28.28,0,0,1-.23.1c-.22,0-.35-.12-.4-.37a.79.79,0,0,0-.18-.4.8.8,0,0,0-.49-.11,1.15,1.15,0,0,0-1,.45,2.35,2.35,0,0,0-.33,1.37,2.63,2.63,0,0,0,.36,1.48,1.2,1.2,0,0,0,1.07.53A1.17,1.17,0,0,0,423.81,31.05Z"/><path class="cls-1" d="M428.25,29.38h-2.78a3.82,3.82,0,0,0,0,.43,3.14,3.14,0,0,0,.32,1.58,1.08,1.08,0,0,0,1,.53,1.29,1.29,0,0,0,1.26-.79h.23a1.36,1.36,0,0,1-.62.78,2,2,0,0,1-1,.28,1.92,1.92,0,0,1-1-.26,2,2,0,0,1-.74-.72,2.19,2.19,0,0,1-.28-1.14,2.31,2.31,0,0,1,.55-1.58,1.78,1.78,0,0,1,1.39-.62,1.58,1.58,0,0,1,1.67,1.51Zm-.85-.2a1.41,1.41,0,0,0,0-.2.85.85,0,0,0-.25-.66.86.86,0,0,0-.62-.24c-.59,0-.94.37-1.06,1.1Z"/><rect class="cls-4" x="2.6" y="2.38" width="197.42" height="115.78"/><line class="cls-4" x1="2.6" y1="94.43" x2="200.02" y2="94.43"/><rect class="cls-4" x="252.98" y="44.4" width="31.28" height="18.46"/><path class="cls-1" d="M262.32,54.22h.24l-.14,2.06h-5.49v-.22h.14a1,1,0,0,0,.64-.13.66.66,0,0,0,.18-.34,7,7,0,0,0,0-1V51.31a7,7,0,0,0,0-1,.5.5,0,0,0-.19-.34,1.42,1.42,0,0,0-.63-.09v-.23h4.73l.16,1.65h-.23a2.49,2.49,0,0,0-.39-1,1,1,0,0,0-.53-.37,4.93,4.93,0,0,0-1-.07h-.92v2.78h.7a1.77,1.77,0,0,0,.68-.09.41.41,0,0,0,.25-.25,1.91,1.91,0,0,0,.07-.66h.23v2.27h-.23a1.94,1.94,0,0,0-.1-.74.43.43,0,0,0-.27-.24,2.11,2.11,0,0,0-.6-.06h-.73v1.57a3.41,3.41,0,0,0,.15,1.38c.1.14.37.21.82.21h.49a2.31,2.31,0,0,0,.86-.14,1.41,1.41,0,0,0,.64-.55A3,3,0,0,0,262.32,54.22Z"/><path class="cls-1" d="M264.24,52.12h.13a2.57,2.57,0,0,1,.13.83,2.6,2.6,0,0,1,.74-.62,1.65,1.65,0,0,1,.8-.21,1.47,1.47,0,0,1,.79.2.94.94,0,0,1,.39.5,3,3,0,0,1,.09.84v1.25c0,.46,0,.75,0,.85a.3.3,0,0,0,.16.22,1,1,0,0,0,.47.08v.22h-2v-.22H266a.71.71,0,0,0,.46-.1.39.39,0,0,0,.12-.24c0-.09,0-.36,0-.81V53.62a3.35,3.35,0,0,0-.05-.67.59.59,0,0,0-.25-.36.78.78,0,0,0-.51-.16,1.27,1.27,0,0,0-.69.21,2.51,2.51,0,0,0-.61.64v1.63a6.65,6.65,0,0,0,0,.85.32.32,0,0,0,.15.22,1.08,1.08,0,0,0,.49.08v.22h-2v-.22a1,1,0,0,0,.47-.07.28.28,0,0,0,.17-.21,6.6,6.6,0,0,0,0-.87V53.72a6.53,6.53,0,0,0,0-.85.3.3,0,0,0-.16-.22,1,1,0,0,0-.48-.08v-.22A5.53,5.53,0,0,0,264.24,52.12Z"/><path class="cls-1" d="M270.92,52.51h-1.2v2.42a3.19,3.19,0,0,0,0,.75.58.58,0,0,0,.2.31.62.62,0,0,0,.34.11.72.72,0,0,0,.61-.4l.16.1a1,1,0,0,1-.45.48,1.24,1.24,0,0,1-.6.17.94.94,0,0,1-.61-.21.9.9,0,0,1-.34-.49,5.26,5.26,0,0,1-.06-1V52.51h-.58v-.22a1,1,0,0,0,.71-.34,1.6,1.6,0,0,0,.41-.92h.16v1.26h1.2Z"/><path class="cls-1" d="M272.76,53.14a1.6,1.6,0,0,1,.54-.72,1.17,1.17,0,0,1,.73-.3.69.69,0,0,1,.51.2.63.63,0,0,1,.18.41.37.37,0,0,1-.09.25.33.33,0,0,1-.24.1c-.16,0-.28-.12-.37-.36s-.14-.24-.26-.24a.78.78,0,0,0-.5.28,1.27,1.27,0,0,0-.38.59,3.25,3.25,0,0,0-.08.85v.71c0,.43,0,.7,0,.81A.37.37,0,0,0,273,56a.78.78,0,0,0,.44.09h.13v.22H271.4v-.22h.1a.83.83,0,0,0,.42-.08.36.36,0,0,0,.15-.23,7.4,7.4,0,0,0,0-.84V53.78c0-.43,0-.7,0-.8a.36.36,0,0,0-.14-.26.78.78,0,0,0-.44-.09h-.1v-.22a6,6,0,0,0,1.2-.29A3.11,3.11,0,0,1,272.76,53.14Z"/><path class="cls-1" d="M277.43,55.53l.93-2.22a4.14,4.14,0,0,0,.2-.55c0-.16-.18-.24-.54-.25v-.22h1.4v.22a.73.73,0,0,0-.48.17,2.74,2.74,0,0,0-.37.7l-1.78,4.31a3.06,3.06,0,0,1-.45.83.58.58,0,0,1-.43.23c-.21,0-.32-.1-.32-.29s.17-.41.51-.56a1.76,1.76,0,0,0,.4-.23.92.92,0,0,0,.19-.34l.38-.95-1.5-3.22a1.82,1.82,0,0,0-.33-.54.74.74,0,0,0-.45-.11v-.22h1.84v.22c-.33,0-.49.08-.49.2a2.53,2.53,0,0,0,.19.48Z"/><rect class="cls-4" x="291" y="44.4" width="31.28" height="18.46"/><path class="cls-1" d="M300.35,54.22h.23l-.14,2.06H295v-.22h.13a1,1,0,0,0,.64-.13.54.54,0,0,0,.18-.34,7,7,0,0,0,0-1V51.31a7,7,0,0,0,0-1,.5.5,0,0,0-.19-.34,1.42,1.42,0,0,0-.63-.09v-.23h4.73l.16,1.65h-.23a2.51,2.51,0,0,0-.38-1,1,1,0,0,0-.54-.37,4.93,4.93,0,0,0-1-.07h-.92v2.78h.71a1.74,1.74,0,0,0,.67-.09.43.43,0,0,0,.26-.25,2.32,2.32,0,0,0,.06-.66h.23v2.27h-.23a2,2,0,0,0-.09-.74.47.47,0,0,0-.28-.24,2.06,2.06,0,0,0-.6-.06h-.73v1.57a3.16,3.16,0,0,0,.16,1.38q.15.21.81.21h.49a2.31,2.31,0,0,0,.86-.14,1.48,1.48,0,0,0,.65-.55A3.34,3.34,0,0,0,300.35,54.22Z"/><path class="cls-1" d="M302.27,52.12h.13a2.93,2.93,0,0,1,.12.83,2.6,2.6,0,0,1,.74-.62,1.69,1.69,0,0,1,.81-.21,1.41,1.41,0,0,1,.78.2.94.94,0,0,1,.39.5,3,3,0,0,1,.09.84v1.25a6.65,6.65,0,0,0,0,.85.27.27,0,0,0,.15.22,1,1,0,0,0,.48.08v.22h-2.05v-.22H304a.69.69,0,0,0,.46-.1.39.39,0,0,0,.12-.24c0-.09,0-.36,0-.81V53.62a3.35,3.35,0,0,0-.05-.67.59.59,0,0,0-.25-.36.76.76,0,0,0-.51-.16,1.21,1.21,0,0,0-.68.21,2.53,2.53,0,0,0-.62.64v1.63a6.65,6.65,0,0,0,0,.85.3.3,0,0,0,.16.22,1,1,0,0,0,.48.08v.22h-2v-.22a1.07,1.07,0,0,0,.47-.07.29.29,0,0,0,.16-.21,6.6,6.6,0,0,0,0-.87V53.72a6.53,6.53,0,0,0,0-.85.29.29,0,0,0-.15-.22,1.06,1.06,0,0,0-.48-.08v-.22A5.84,5.84,0,0,0,302.27,52.12Z"/><path class="cls-1" d="M308.94,52.51h-1.2v2.42a3.19,3.19,0,0,0,.05.75.58.58,0,0,0,.2.31.62.62,0,0,0,.34.11.72.72,0,0,0,.61-.4l.16.1a1,1,0,0,1-.45.48,1.18,1.18,0,0,1-.59.17,1,1,0,0,1-.62-.21.83.83,0,0,1-.33-.49,4.31,4.31,0,0,1-.07-1V52.51h-.58v-.22a1,1,0,0,0,.72-.34,1.66,1.66,0,0,0,.4-.92h.16v1.26h1.2Z"/><path class="cls-1" d="M310.78,53.14a1.6,1.6,0,0,1,.54-.72,1.17,1.17,0,0,1,.73-.3.68.68,0,0,1,.51.2.63.63,0,0,1,.18.41.37.37,0,0,1-.09.25.3.3,0,0,1-.23.1c-.17,0-.29-.12-.37-.36s-.15-.24-.27-.24a.78.78,0,0,0-.5.28,1.35,1.35,0,0,0-.38.59,3.76,3.76,0,0,0-.08.85v.71c0,.43,0,.7,0,.81A.31.31,0,0,0,311,56a.74.74,0,0,0,.43.09h.14v.22h-2.13v-.22h.11a.82.82,0,0,0,.41-.08.3.3,0,0,0,.15-.23,6.44,6.44,0,0,0,0-.84V53.78c0-.43,0-.7,0-.8a.36.36,0,0,0-.14-.26.76.76,0,0,0-.43-.09h-.11v-.22a6,6,0,0,0,1.2-.29A3.11,3.11,0,0,1,310.78,53.14Z"/><path class="cls-1" d="M315.45,55.53l.93-2.22a4.14,4.14,0,0,0,.2-.55c0-.16-.18-.24-.54-.25v-.22h1.41v.22a.71.71,0,0,0-.48.17,2.68,2.68,0,0,0-.38.7l-1.78,4.31a3.06,3.06,0,0,1-.45.83.57.57,0,0,1-.43.23c-.21,0-.32-.1-.32-.29s.17-.41.51-.56a1.76,1.76,0,0,0,.4-.23.91.91,0,0,0,.2-.34l.38-.95-1.51-3.22a1.82,1.82,0,0,0-.33-.54.74.74,0,0,0-.45-.11v-.22h1.84v.22c-.32,0-.49.08-.49.2a2.53,2.53,0,0,0,.19.48Z"/><rect class="cls-4" x="329.02" y="44.4" width="31.28" height="18.46"/><path class="cls-1" d="M338.37,54.22h.23l-.14,2.06H333v-.22h.13a1,1,0,0,0,.64-.13.54.54,0,0,0,.18-.34,7,7,0,0,0,0-1V51.31a7,7,0,0,0,0-1,.5.5,0,0,0-.19-.34,1.42,1.42,0,0,0-.63-.09v-.23h4.74l.15,1.65h-.23a2.51,2.51,0,0,0-.38-1,1,1,0,0,0-.54-.37,4.87,4.87,0,0,0-1-.07h-.91v2.78h.7a1.8,1.8,0,0,0,.68-.09.44.44,0,0,0,.25-.25,2.32,2.32,0,0,0,.06-.66h.23v2.27h-.23a2,2,0,0,0-.09-.74.43.43,0,0,0-.27-.24,2.14,2.14,0,0,0-.61-.06h-.72v1.57a3.41,3.41,0,0,0,.15,1.38q.15.21.81.21h.5a2.38,2.38,0,0,0,.86-.14,1.51,1.51,0,0,0,.64-.55A3.34,3.34,0,0,0,338.37,54.22Z"/><path class="cls-1" d="M340.29,52.12h.13a2.88,2.88,0,0,1,.13.83,2.57,2.57,0,0,1,.73-.62,1.69,1.69,0,0,1,.81-.21,1.41,1.41,0,0,1,.78.2.91.91,0,0,1,.4.5,3.48,3.48,0,0,1,.08.84v1.25a6.65,6.65,0,0,0,0,.85.29.29,0,0,0,.15.22,1.06,1.06,0,0,0,.48.08v.22H342v-.22h.1a.67.67,0,0,0,.45-.1.36.36,0,0,0,.13-.24c0-.09,0-.36,0-.81V53.62a2.72,2.72,0,0,0,0-.67.61.61,0,0,0-.24-.36.81.81,0,0,0-.52-.16,1.23,1.23,0,0,0-.68.21,2.35,2.35,0,0,0-.61.64v1.63c0,.46,0,.75,0,.85a.3.3,0,0,0,.16.22,1.06,1.06,0,0,0,.48.08v.22h-2v-.22a1.07,1.07,0,0,0,.47-.07.27.27,0,0,0,.16-.21,6.6,6.6,0,0,0,0-.87V53.72c0-.47,0-.75,0-.85a.3.3,0,0,0-.16-.22,1.06,1.06,0,0,0-.48-.08v-.22A5.68,5.68,0,0,0,340.29,52.12Z"/><path class="cls-1" d="M347,52.51h-1.21v2.42a3.88,3.88,0,0,0,.05.75A.54.54,0,0,0,346,56a.6.6,0,0,0,.34.11.73.73,0,0,0,.61-.4l.15.1a1.08,1.08,0,0,1-.44.48,1.24,1.24,0,0,1-.6.17,1,1,0,0,1-.62-.21.83.83,0,0,1-.33-.49,5,5,0,0,1-.07-1V52.51h-.58v-.22a1,1,0,0,0,.72-.34,1.6,1.6,0,0,0,.4-.92h.16v1.26H347Z"/><path class="cls-1" d="M348.8,53.14a1.6,1.6,0,0,1,.54-.72,1.19,1.19,0,0,1,.73-.3.66.66,0,0,1,.51.2.64.64,0,0,1,.19.41.37.37,0,0,1-.1.25.29.29,0,0,1-.23.1c-.16,0-.29-.12-.37-.36s-.15-.24-.27-.24a.8.8,0,0,0-.5.28,1.32,1.32,0,0,0-.37.59,3.19,3.19,0,0,0-.09.85v.71c0,.43,0,.7,0,.81A.34.34,0,0,0,349,56a.74.74,0,0,0,.43.09h.14v.22h-2.12v-.22h.1A.89.89,0,0,0,348,56a.31.31,0,0,0,.14-.23,6.44,6.44,0,0,0,0-.84V53.78c0-.43,0-.7,0-.8a.36.36,0,0,0-.14-.26.74.74,0,0,0-.43-.09h-.1v-.22a6.3,6.3,0,0,0,1.2-.29A3.44,3.44,0,0,1,348.8,53.14Z"/><path class="cls-1" d="M353.48,55.53l.92-2.22a2.93,2.93,0,0,0,.2-.55c0-.16-.18-.24-.54-.25v-.22h1.41v.22a.71.71,0,0,0-.48.17,2.68,2.68,0,0,0-.38.7l-1.78,4.31a3.06,3.06,0,0,1-.45.83.57.57,0,0,1-.43.23c-.21,0-.31-.1-.31-.29s.17-.41.5-.56a1.76,1.76,0,0,0,.4-.23.91.91,0,0,0,.2-.34l.38-.95-1.5-3.22a2,2,0,0,0-.34-.54.7.7,0,0,0-.45-.11v-.22h1.84v.22c-.32,0-.48.08-.48.2a1.94,1.94,0,0,0,.19.48Z"/><rect class="cls-4" x="367.04" y="44.4" width="31.28" height="18.46"/><path class="cls-1" d="M376.39,54.22h.24l-.15,2.06H371v-.22h.14a1,1,0,0,0,.63-.13.61.61,0,0,0,.19-.34,8.86,8.86,0,0,0,0-1V51.31a9.08,9.08,0,0,0,0-1,.54.54,0,0,0-.19-.34,1.42,1.42,0,0,0-.63-.09v-.23h4.73l.16,1.65h-.23a2.66,2.66,0,0,0-.39-1,1,1,0,0,0-.54-.37,4.82,4.82,0,0,0-1-.07H373v2.78h.7a1.8,1.8,0,0,0,.68-.09.41.41,0,0,0,.25-.25,2.32,2.32,0,0,0,.06-.66h.23v2.27h-.23a2,2,0,0,0-.09-.74.43.43,0,0,0-.27-.24,2.11,2.11,0,0,0-.6-.06H373v1.57a3.41,3.41,0,0,0,.15,1.38c.1.14.37.21.82.21h.49a2.34,2.34,0,0,0,.86-.14,1.46,1.46,0,0,0,.64-.55A3.34,3.34,0,0,0,376.39,54.22Z"/><path class="cls-1" d="M378.31,52.12h.13a2.57,2.57,0,0,1,.13.83,2.47,2.47,0,0,1,.74-.62,1.62,1.62,0,0,1,.8-.21,1.47,1.47,0,0,1,.79.2.94.94,0,0,1,.39.5,3,3,0,0,1,.09.84v1.25c0,.46,0,.75,0,.85a.3.3,0,0,0,.16.22,1,1,0,0,0,.47.08v.22h-2v-.22h.09a.71.71,0,0,0,.46-.1.39.39,0,0,0,.12-.24c0-.09,0-.36,0-.81V53.62a3.55,3.55,0,0,0,0-.67.63.63,0,0,0-.25-.36.81.81,0,0,0-.52-.16,1.26,1.26,0,0,0-.68.21,2.51,2.51,0,0,0-.61.64v1.63a6.65,6.65,0,0,0,0,.85.29.29,0,0,0,.15.22,1.06,1.06,0,0,0,.48.08v.22h-2v-.22a1,1,0,0,0,.47-.07.27.27,0,0,0,.16-.21,4.63,4.63,0,0,0,0-.87V53.72a6.53,6.53,0,0,0,0-.85.3.3,0,0,0-.16-.22,1,1,0,0,0-.48-.08v-.22A5.53,5.53,0,0,0,378.31,52.12Z"/><path class="cls-1" d="M385,52.51h-1.21v2.42a3.88,3.88,0,0,0,.05.75A.6.6,0,0,0,384,56a.62.62,0,0,0,.34.11.73.73,0,0,0,.61-.4l.16.1a1,1,0,0,1-.45.48,1.24,1.24,0,0,1-.6.17,1,1,0,0,1-.62-.21.94.94,0,0,1-.33-.49,5.26,5.26,0,0,1-.06-1V52.51h-.58v-.22a1,1,0,0,0,.71-.34,1.67,1.67,0,0,0,.41-.92h.15v1.26H385Z"/><path class="cls-1" d="M386.83,53.14a1.6,1.6,0,0,1,.54-.72,1.15,1.15,0,0,1,.73-.3.65.65,0,0,1,.5.2.59.59,0,0,1,.19.41.33.33,0,0,1-.1.25.29.29,0,0,1-.23.1c-.16,0-.28-.12-.37-.36s-.15-.24-.26-.24a.82.82,0,0,0-.51.28,1.32,1.32,0,0,0-.37.59,3.25,3.25,0,0,0-.08.85v.71c0,.43,0,.7,0,.81A.34.34,0,0,0,387,56a.78.78,0,0,0,.44.09h.13v.22h-2.12v-.22h.1A.83.83,0,0,0,386,56a.36.36,0,0,0,.15-.23c0-.1,0-.38,0-.84V53.78a6.84,6.84,0,0,0,0-.8.35.35,0,0,0-.13-.26.8.8,0,0,0-.44-.09h-.1v-.22a6.13,6.13,0,0,0,1.2-.29A3.4,3.4,0,0,1,386.83,53.14Z"/><path class="cls-1" d="M391.5,55.53l.93-2.22a4.14,4.14,0,0,0,.2-.55c0-.16-.18-.24-.54-.25v-.22h1.4v.22a.71.71,0,0,0-.48.17,2.74,2.74,0,0,0-.37.7l-1.79,4.31a3.11,3.11,0,0,1-.44.83.6.6,0,0,1-.43.23c-.22,0-.32-.1-.32-.29s.17-.41.51-.56a1.63,1.63,0,0,0,.39-.23.79.79,0,0,0,.2-.34l.38-.95-1.5-3.22a2.06,2.06,0,0,0-.33-.54.74.74,0,0,0-.45-.11v-.22h1.83v.22c-.32,0-.48.08-.48.2a1.94,1.94,0,0,0,.19.48Z"/><rect class="cls-4" x="405.07" y="44.4" width="31.28" height="18.46"/><path class="cls-1" d="M414.41,54.22h.24l-.14,2.06H409v-.22h.14a1,1,0,0,0,.64-.13.59.59,0,0,0,.18-.34,7,7,0,0,0,0-1V51.31a7,7,0,0,0,0-1,.5.5,0,0,0-.19-.34,1.42,1.42,0,0,0-.63-.09v-.23h4.73l.16,1.65h-.23a2.51,2.51,0,0,0-.38-1,1.06,1.06,0,0,0-.54-.37,4.93,4.93,0,0,0-1-.07H411v2.78h.71a1.74,1.74,0,0,0,.67-.09.46.46,0,0,0,.26-.25,2.32,2.32,0,0,0,.06-.66h.23v2.27h-.23a1.76,1.76,0,0,0-.1-.74.43.43,0,0,0-.27-.24,2.11,2.11,0,0,0-.6-.06H411v1.57a3.41,3.41,0,0,0,.15,1.38c.1.14.38.21.82.21h.49a2.31,2.31,0,0,0,.86-.14,1.41,1.41,0,0,0,.64-.55A3,3,0,0,0,414.41,54.22Z"/><path class="cls-1" d="M416.33,52.12h.14a2.93,2.93,0,0,1,.12.83,2.6,2.6,0,0,1,.74-.62,1.69,1.69,0,0,1,.81-.21,1.43,1.43,0,0,1,.78.2.94.94,0,0,1,.39.5,3,3,0,0,1,.09.84v1.25c0,.46,0,.75,0,.85a.3.3,0,0,0,.16.22,1,1,0,0,0,.47.08v.22h-2v-.22h.09a.69.69,0,0,0,.46-.1.39.39,0,0,0,.12-.24c0-.09,0-.36,0-.81V53.62a3.35,3.35,0,0,0-.05-.67.59.59,0,0,0-.25-.36.78.78,0,0,0-.51-.16,1.21,1.21,0,0,0-.68.21,2.38,2.38,0,0,0-.62.64v1.63a6.65,6.65,0,0,0,0,.85.3.3,0,0,0,.16.22,1,1,0,0,0,.48.08v.22h-2v-.22a1,1,0,0,0,.47-.07.28.28,0,0,0,.17-.21,6.6,6.6,0,0,0,0-.87V53.72a6.53,6.53,0,0,0,0-.85.32.32,0,0,0-.15-.22,1.08,1.08,0,0,0-.49-.08v-.22A5.53,5.53,0,0,0,416.33,52.12Z"/><path class="cls-1" d="M423,52.51h-1.2v2.42a3.19,3.19,0,0,0,.05.75.58.58,0,0,0,.2.31.62.62,0,0,0,.34.11.72.72,0,0,0,.61-.4l.16.1a1,1,0,0,1-.45.48,1.19,1.19,0,0,1-.6.17.94.94,0,0,1-.61-.21.9.9,0,0,1-.34-.49,5.26,5.26,0,0,1-.06-1V52.51h-.58v-.22a1,1,0,0,0,.72-.34,1.66,1.66,0,0,0,.4-.92h.16v1.26H423Z"/><path class="cls-1" d="M424.85,53.14a1.6,1.6,0,0,1,.54-.72,1.17,1.17,0,0,1,.73-.3.69.69,0,0,1,.51.2.63.63,0,0,1,.18.41.37.37,0,0,1-.09.25.31.31,0,0,1-.24.1c-.16,0-.28-.12-.37-.36s-.14-.24-.26-.24a.78.78,0,0,0-.5.28,1.35,1.35,0,0,0-.38.59,3.76,3.76,0,0,0-.08.85v.71c0,.43,0,.7,0,.81A.37.37,0,0,0,425,56a.8.8,0,0,0,.44.09h.14v.22h-2.13v-.22h.1A.83.83,0,0,0,424,56a.36.36,0,0,0,.15-.23,7.4,7.4,0,0,0,0-.84V53.78c0-.43,0-.7,0-.8a.36.36,0,0,0-.14-.26.78.78,0,0,0-.44-.09h-.1v-.22a6,6,0,0,0,1.2-.29A3.11,3.11,0,0,1,424.85,53.14Z"/><path class="cls-1" d="M429.52,55.53l.93-2.22a4.14,4.14,0,0,0,.2-.55c0-.16-.18-.24-.54-.25v-.22h1.4v.22a.7.7,0,0,0-.47.17,2.4,2.4,0,0,0-.38.7l-1.78,4.31a3.06,3.06,0,0,1-.45.83.58.58,0,0,1-.43.23c-.21,0-.32-.1-.32-.29s.17-.41.51-.56a1.76,1.76,0,0,0,.4-.23.92.92,0,0,0,.19-.34l.39-.95-1.51-3.22a1.82,1.82,0,0,0-.33-.54.74.74,0,0,0-.45-.11v-.22h1.84v.22c-.33,0-.49.08-.49.2a2.53,2.53,0,0,0,.19.48Z"/><rect class="cls-4" x="252.98" y="69.24" width="31.28" height="18.46"/><path class="cls-1" d="M262.32,79.06h.24l-.14,2.06h-5.49V80.9h.14a1.1,1.1,0,0,0,.64-.13.66.66,0,0,0,.18-.34,7,7,0,0,0,0-1V76.15a7,7,0,0,0,0-1,.48.48,0,0,0-.19-.34,1.42,1.42,0,0,0-.63-.09V74.5h4.73l.16,1.65h-.23a2.49,2.49,0,0,0-.39-1,.94.94,0,0,0-.53-.37,4.93,4.93,0,0,0-1-.07h-.92V77.5h.7a1.82,1.82,0,0,0,.68-.08.41.41,0,0,0,.25-.25,1.91,1.91,0,0,0,.07-.66h.23v2.27h-.23a1.9,1.9,0,0,0-.1-.74.44.44,0,0,0-.27-.25,2.7,2.7,0,0,0-.6-.05h-.73v1.57a3.41,3.41,0,0,0,.15,1.38c.1.14.37.21.82.21h.49a2.31,2.31,0,0,0,.86-.14,1.47,1.47,0,0,0,.64-.55A3,3,0,0,0,262.32,79.06Z"/><path class="cls-1" d="M264.24,77h.13a2.53,2.53,0,0,1,.13.83,2.44,2.44,0,0,1,.74-.62A1.65,1.65,0,0,1,266,77a1.47,1.47,0,0,1,.79.2,1,1,0,0,1,.39.49,3.09,3.09,0,0,1,.09.85v1.25c0,.46,0,.74,0,.84a.3.3,0,0,0,.16.23,1,1,0,0,0,.47.08v.22h-2V80.9H266a.7.7,0,0,0,.46-.11.35.35,0,0,0,.12-.23c0-.1,0-.36,0-.81V78.46a3.35,3.35,0,0,0-.05-.67.59.59,0,0,0-.25-.36.78.78,0,0,0-.51-.16,1.27,1.27,0,0,0-.69.21,2.35,2.35,0,0,0-.61.64v1.63a6.44,6.44,0,0,0,0,.84.32.32,0,0,0,.15.23,1.08,1.08,0,0,0,.49.08v.22h-2V80.9a1,1,0,0,0,.47-.07.32.32,0,0,0,.17-.21,6.6,6.6,0,0,0,0-.87V78.56a6.53,6.53,0,0,0,0-.85.3.3,0,0,0-.16-.22,1,1,0,0,0-.48-.08v-.22A6.34,6.34,0,0,0,264.24,77Z"/><path class="cls-1" d="M270.92,77.35h-1.2v2.41a3.09,3.09,0,0,0,0,.75.51.51,0,0,0,.2.31.56.56,0,0,0,.34.12.72.72,0,0,0,.61-.4l.16.09a1,1,0,0,1-.45.49,1.23,1.23,0,0,1-.6.16,1,1,0,0,1-.61-.2.9.9,0,0,1-.34-.49,5.39,5.39,0,0,1-.06-1V77.35h-.58v-.23a1,1,0,0,0,.71-.33,1.6,1.6,0,0,0,.41-.92h.16v1.25h1.2Z"/><path class="cls-1" d="M272.76,78a1.69,1.69,0,0,1,.54-.73A1.22,1.22,0,0,1,274,77a.69.69,0,0,1,.51.2.63.63,0,0,1,.18.41.33.33,0,0,1-.33.35c-.16,0-.28-.12-.37-.36s-.14-.25-.26-.25a.8.8,0,0,0-.5.29,1.27,1.27,0,0,0-.38.59,3.25,3.25,0,0,0-.08.85v.71c0,.43,0,.7,0,.81a.37.37,0,0,0,.14.25.78.78,0,0,0,.44.09h.13v.22H271.4V80.9h.1a.83.83,0,0,0,.42-.08.36.36,0,0,0,.15-.23,7.4,7.4,0,0,0,0-.84V78.62c0-.43,0-.7,0-.81a.35.35,0,0,0-.14-.25.78.78,0,0,0-.44-.09h-.1v-.22a6.74,6.74,0,0,0,1.2-.29A3.11,3.11,0,0,1,272.76,78Z"/><path class="cls-1" d="M277.43,80.37l.93-2.23a3.77,3.77,0,0,0,.2-.54c0-.16-.18-.25-.54-.25v-.23h1.4v.23a.73.73,0,0,0-.48.17,2.74,2.74,0,0,0-.37.7l-1.78,4.3a3.34,3.34,0,0,1-.45.84.57.57,0,0,1-.43.22c-.21,0-.32-.09-.32-.29s.17-.4.51-.56a1.49,1.49,0,0,0,.4-.22,1,1,0,0,0,.19-.34l.38-1L275.57,78a1.69,1.69,0,0,0-.33-.54.74.74,0,0,0-.45-.11v-.23h1.84v.23c-.33,0-.49.07-.49.2a2.53,2.53,0,0,0,.19.48Z"/><rect class="cls-4" x="291" y="69.24" width="31.28" height="18.46"/><path class="cls-1" d="M300.35,79.06h.23l-.14,2.06H295V80.9h.13a1.1,1.1,0,0,0,.64-.13.54.54,0,0,0,.18-.34,7,7,0,0,0,0-1V76.15a7,7,0,0,0,0-1,.48.48,0,0,0-.19-.34,1.42,1.42,0,0,0-.63-.09V74.5h4.73l.16,1.65h-.23a2.51,2.51,0,0,0-.38-1,.93.93,0,0,0-.54-.37,4.93,4.93,0,0,0-1-.07h-.92V77.5h.71a1.79,1.79,0,0,0,.67-.08.43.43,0,0,0,.26-.25,2.32,2.32,0,0,0,.06-.66h.23v2.27h-.23a2,2,0,0,0-.09-.74.49.49,0,0,0-.28-.25,2.64,2.64,0,0,0-.6-.05h-.73v1.57a3.16,3.16,0,0,0,.16,1.38q.15.21.81.21h.49a2.31,2.31,0,0,0,.86-.14,1.55,1.55,0,0,0,.65-.55A3.34,3.34,0,0,0,300.35,79.06Z"/><path class="cls-1" d="M302.27,77h.13a2.87,2.87,0,0,1,.12.83,2.44,2.44,0,0,1,.74-.62,1.69,1.69,0,0,1,.81-.21,1.41,1.41,0,0,1,.78.2,1,1,0,0,1,.39.49,3.09,3.09,0,0,1,.09.85v1.25a6.44,6.44,0,0,0,0,.84.27.27,0,0,0,.15.23,1,1,0,0,0,.48.08v.22h-2.05V80.9H304a.68.68,0,0,0,.46-.11.35.35,0,0,0,.12-.23c0-.1,0-.36,0-.81V78.46a3.35,3.35,0,0,0-.05-.67.59.59,0,0,0-.25-.36.76.76,0,0,0-.51-.16,1.21,1.21,0,0,0-.68.21,2.38,2.38,0,0,0-.62.64v1.63a6.44,6.44,0,0,0,0,.84.3.3,0,0,0,.16.23,1,1,0,0,0,.48.08v.22h-2V80.9a1.07,1.07,0,0,0,.47-.07.34.34,0,0,0,.16-.21,6.6,6.6,0,0,0,0-.87V78.56a6.53,6.53,0,0,0,0-.85.29.29,0,0,0-.15-.22,1.06,1.06,0,0,0-.48-.08v-.22A6.75,6.75,0,0,0,302.27,77Z"/><path class="cls-1" d="M308.94,77.35h-1.2v2.41a3.09,3.09,0,0,0,.05.75.51.51,0,0,0,.2.31.56.56,0,0,0,.34.12.72.72,0,0,0,.61-.4l.16.09a1,1,0,0,1-.45.49,1.16,1.16,0,0,1-.59.16,1,1,0,0,1-.62-.2.83.83,0,0,1-.33-.49,4.42,4.42,0,0,1-.07-1V77.35h-.58v-.23a1,1,0,0,0,.72-.33,1.66,1.66,0,0,0,.4-.92h.16v1.25h1.2Z"/><path class="cls-1" d="M310.78,78a1.69,1.69,0,0,1,.54-.73,1.22,1.22,0,0,1,.73-.29.68.68,0,0,1,.51.2.63.63,0,0,1,.18.41.37.37,0,0,1-.09.25.34.34,0,0,1-.23.1c-.17,0-.29-.12-.37-.36s-.15-.25-.27-.25a.8.8,0,0,0-.5.29,1.35,1.35,0,0,0-.38.59,3.76,3.76,0,0,0-.08.85v.71c0,.43,0,.7,0,.81a.31.31,0,0,0,.14.25.74.74,0,0,0,.43.09h.14v.22h-2.13V80.9h.11a.82.82,0,0,0,.41-.08.3.3,0,0,0,.15-.23,6.44,6.44,0,0,0,0-.84V78.62c0-.43,0-.7,0-.81a.35.35,0,0,0-.14-.25.76.76,0,0,0-.43-.09h-.11v-.22a6.74,6.74,0,0,0,1.2-.29A3.11,3.11,0,0,1,310.78,78Z"/><path class="cls-1" d="M315.45,80.37l.93-2.23a3.77,3.77,0,0,0,.2-.54c0-.16-.18-.25-.54-.25v-.23h1.41v.23a.71.71,0,0,0-.48.17,2.68,2.68,0,0,0-.38.7l-1.78,4.3a3.34,3.34,0,0,1-.45.84.55.55,0,0,1-.43.22c-.21,0-.32-.09-.32-.29s.17-.4.51-.56a1.49,1.49,0,0,0,.4-.22,1,1,0,0,0,.2-.34l.38-1L313.59,78a1.69,1.69,0,0,0-.33-.54.74.74,0,0,0-.45-.11v-.23h1.84v.23c-.32,0-.49.07-.49.2a2.53,2.53,0,0,0,.19.48Z"/><rect class="cls-4" x="9.37" y="44.4" width="31.28" height="18.46"/><path class="cls-1" d="M18.71,54.22H19l-.14,2.06H13.32v-.22h.14a1,1,0,0,0,.64-.13.66.66,0,0,0,.18-.34,7,7,0,0,0,0-1V51.31a9.08,9.08,0,0,0,0-1,.54.54,0,0,0-.19-.34,1.42,1.42,0,0,0-.63-.09v-.23h4.73l.16,1.65h-.23a2.49,2.49,0,0,0-.39-1,1,1,0,0,0-.54-.37,4.76,4.76,0,0,0-1-.07h-.92v2.78H16a1.77,1.77,0,0,0,.68-.09.41.41,0,0,0,.25-.25,2.32,2.32,0,0,0,.06-.66h.23v2.27H17a2,2,0,0,0-.09-.74A.43.43,0,0,0,16.6,53a2.11,2.11,0,0,0-.6-.06h-.73v1.57a3.41,3.41,0,0,0,.15,1.38c.1.14.37.21.82.21h.49a2.34,2.34,0,0,0,.86-.14,1.46,1.46,0,0,0,.64-.55A3.16,3.16,0,0,0,18.71,54.22Z"/><path class="cls-1" d="M20.63,52.12h.13a2.57,2.57,0,0,1,.13.83,2.47,2.47,0,0,1,.74-.62,1.65,1.65,0,0,1,.8-.21,1.47,1.47,0,0,1,.79.2.94.94,0,0,1,.39.5,3,3,0,0,1,.09.84v1.25c0,.46,0,.75,0,.85a.3.3,0,0,0,.16.22,1,1,0,0,0,.47.08v.22h-2v-.22h.09a.71.71,0,0,0,.46-.1.39.39,0,0,0,.12-.24c0-.09,0-.36,0-.81V53.62A3.55,3.55,0,0,0,23,53a.63.63,0,0,0-.25-.36.81.81,0,0,0-.52-.16,1.26,1.26,0,0,0-.68.21,2.51,2.51,0,0,0-.61.64v1.63a6.65,6.65,0,0,0,0,.85.29.29,0,0,0,.15.22,1.06,1.06,0,0,0,.48.08v.22h-2v-.22A1,1,0,0,0,20,56a.3.3,0,0,0,.17-.21,6.6,6.6,0,0,0,0-.87V53.72a6.53,6.53,0,0,0,0-.85.3.3,0,0,0-.16-.22,1,1,0,0,0-.48-.08v-.22A5.53,5.53,0,0,0,20.63,52.12Z"/><path class="cls-1" d="M27.31,52.51H26.1v2.42a3.88,3.88,0,0,0,0,.75.66.66,0,0,0,.21.31.62.62,0,0,0,.34.11.73.73,0,0,0,.61-.4l.16.1a1,1,0,0,1-.45.48,1.24,1.24,0,0,1-.6.17.94.94,0,0,1-.61-.21.9.9,0,0,1-.34-.49,5.26,5.26,0,0,1-.06-1V52.51h-.58v-.22a1,1,0,0,0,.71-.34A1.6,1.6,0,0,0,26,51h.15v1.26h1.21Z"/><path class="cls-1" d="M29.15,53.14a1.6,1.6,0,0,1,.54-.72,1.17,1.17,0,0,1,.73-.3.65.65,0,0,1,.5.2.59.59,0,0,1,.19.41A.37.37,0,0,1,31,53a.33.33,0,0,1-.24.1c-.16,0-.28-.12-.37-.36s-.14-.24-.26-.24a.82.82,0,0,0-.51.28,1.32,1.32,0,0,0-.37.59,3.25,3.25,0,0,0-.08.85v.71c0,.43,0,.7,0,.81a.34.34,0,0,0,.14.25.78.78,0,0,0,.44.09h.13v.22H27.79v-.22h.1a.83.83,0,0,0,.42-.08.36.36,0,0,0,.15-.23c0-.1,0-.38,0-.84V53.78c0-.43,0-.7,0-.8a.39.39,0,0,0-.14-.26.78.78,0,0,0-.44-.09h-.1v-.22a6,6,0,0,0,1.2-.29A3.11,3.11,0,0,1,29.15,53.14Z"/><path class="cls-1" d="M33.82,55.53l.93-2.22a4.14,4.14,0,0,0,.2-.55c0-.16-.18-.24-.54-.25v-.22h1.4v.22a.71.71,0,0,0-.48.17,2.74,2.74,0,0,0-.37.7l-1.78,4.31a3.06,3.06,0,0,1-.45.83.58.58,0,0,1-.43.23c-.21,0-.32-.1-.32-.29s.17-.41.51-.56a1.76,1.76,0,0,0,.4-.23.92.92,0,0,0,.19-.34l.38-.95L32,53.16a1.82,1.82,0,0,0-.33-.54.74.74,0,0,0-.45-.11v-.22H33v.22c-.32,0-.48.08-.48.2a1.94,1.94,0,0,0,.19.48Z"/><rect class="cls-4" x="47.39" y="44.4" width="31.28" height="18.46"/><path class="cls-1" d="M56.74,54.22H57l-.14,2.06H51.35v-.22h.13a1,1,0,0,0,.64-.13.54.54,0,0,0,.18-.34,7,7,0,0,0,0-1V51.31a7,7,0,0,0,0-1,.5.5,0,0,0-.19-.34,1.42,1.42,0,0,0-.63-.09v-.23h4.73l.16,1.65h-.23a2.51,2.51,0,0,0-.38-1,1,1,0,0,0-.54-.37,4.93,4.93,0,0,0-1-.07h-.92v2.78H54a1.74,1.74,0,0,0,.67-.09.43.43,0,0,0,.26-.25,2.32,2.32,0,0,0,.06-.66h.23v2.27H55a1.76,1.76,0,0,0-.1-.74.43.43,0,0,0-.27-.24,2.06,2.06,0,0,0-.6-.06h-.73v1.57a3.41,3.41,0,0,0,.15,1.38c.11.14.38.21.82.21h.49a2.31,2.31,0,0,0,.86-.14,1.41,1.41,0,0,0,.64-.55A3.16,3.16,0,0,0,56.74,54.22Z"/><path class="cls-1" d="M58.65,52.12h.14a2.93,2.93,0,0,1,.12.83,2.6,2.6,0,0,1,.74-.62,1.69,1.69,0,0,1,.81-.21,1.43,1.43,0,0,1,.78.2.94.94,0,0,1,.39.5,3,3,0,0,1,.09.84v1.25a6.65,6.65,0,0,0,0,.85.27.27,0,0,0,.15.22,1,1,0,0,0,.48.08v.22H60.33v-.22h.09a.69.69,0,0,0,.46-.1.39.39,0,0,0,.12-.24c0-.09,0-.36,0-.81V53.62A3.35,3.35,0,0,0,61,53a.59.59,0,0,0-.25-.36.76.76,0,0,0-.51-.16,1.21,1.21,0,0,0-.68.21,2.38,2.38,0,0,0-.62.64v1.63a6.65,6.65,0,0,0,0,.85.3.3,0,0,0,.16.22,1,1,0,0,0,.48.08v.22h-2v-.22A1,1,0,0,0,58,56a.28.28,0,0,0,.17-.21,6.6,6.6,0,0,0,0-.87V53.72a6.53,6.53,0,0,0,0-.85.29.29,0,0,0-.15-.22,1.06,1.06,0,0,0-.48-.08v-.22A5.59,5.59,0,0,0,58.65,52.12Z"/><path class="cls-1" d="M65.33,52.51h-1.2v2.42a3.19,3.19,0,0,0,.05.75.58.58,0,0,0,.2.31.62.62,0,0,0,.34.11.72.72,0,0,0,.61-.4l.16.1a1,1,0,0,1-.45.48,1.18,1.18,0,0,1-.59.17,1,1,0,0,1-.62-.21.83.83,0,0,1-.33-.49,4.31,4.31,0,0,1-.07-1V52.51h-.58v-.22a1,1,0,0,0,.72-.34A1.66,1.66,0,0,0,64,51h.16v1.26h1.2Z"/><path class="cls-1" d="M67.17,53.14a1.6,1.6,0,0,1,.54-.72,1.17,1.17,0,0,1,.73-.3.69.69,0,0,1,.51.2.63.63,0,0,1,.18.41A.37.37,0,0,1,69,53a.3.3,0,0,1-.23.1c-.17,0-.29-.12-.38-.36s-.14-.24-.26-.24a.78.78,0,0,0-.5.28,1.35,1.35,0,0,0-.38.59,3.76,3.76,0,0,0-.08.85v.71c0,.43,0,.7,0,.81a.31.31,0,0,0,.14.25.74.74,0,0,0,.43.09h.14v.22H65.81v-.22h.11a.82.82,0,0,0,.41-.08.3.3,0,0,0,.15-.23,6.44,6.44,0,0,0,0-.84V53.78c0-.43,0-.7,0-.8a.36.36,0,0,0-.14-.26.76.76,0,0,0-.43-.09h-.11v-.22a6,6,0,0,0,1.2-.29A3.11,3.11,0,0,1,67.17,53.14Z"/><path class="cls-1" d="M71.84,55.53l.93-2.22a4.14,4.14,0,0,0,.2-.55c0-.16-.18-.24-.54-.25v-.22h1.41v.22a.71.71,0,0,0-.48.17,2.68,2.68,0,0,0-.38.7L71.2,57.69a3.06,3.06,0,0,1-.45.83.57.57,0,0,1-.43.23c-.21,0-.32-.1-.32-.29s.17-.41.51-.56a1.76,1.76,0,0,0,.4-.23,1.07,1.07,0,0,0,.2-.34l.38-.95L70,53.16a1.82,1.82,0,0,0-.33-.54.74.74,0,0,0-.45-.11v-.22H71v.22c-.32,0-.49.08-.49.2a2.53,2.53,0,0,0,.19.48Z"/><rect class="cls-4" x="85.41" y="44.4" width="31.28" height="18.46"/><path class="cls-1" d="M94.76,54.22H95l-.14,2.06H89.37v-.22h.13a1,1,0,0,0,.64-.13.54.54,0,0,0,.18-.34,7,7,0,0,0,0-1V51.31a7,7,0,0,0,0-1,.5.5,0,0,0-.19-.34,1.42,1.42,0,0,0-.63-.09v-.23h4.74l.15,1.65h-.23a2.51,2.51,0,0,0-.38-1,1,1,0,0,0-.54-.37,4.87,4.87,0,0,0-1-.07h-.91v2.78H92a1.8,1.8,0,0,0,.68-.09.44.44,0,0,0,.25-.25,2.32,2.32,0,0,0,.06-.66h.23v2.27H93a2,2,0,0,0-.09-.74.43.43,0,0,0-.27-.24A2.14,2.14,0,0,0,92,52.9h-.72v1.57a3.41,3.41,0,0,0,.15,1.38q.15.21.81.21h.5a2.38,2.38,0,0,0,.86-.14,1.51,1.51,0,0,0,.64-.55A3.34,3.34,0,0,0,94.76,54.22Z"/><path class="cls-1" d="M96.68,52.12h.13a2.88,2.88,0,0,1,.13.83,2.57,2.57,0,0,1,.73-.62,1.69,1.69,0,0,1,.81-.21,1.41,1.41,0,0,1,.78.2.91.91,0,0,1,.4.5,3.48,3.48,0,0,1,.08.84v1.25a6.65,6.65,0,0,0,0,.85.29.29,0,0,0,.15.22,1.06,1.06,0,0,0,.48.08v.22H98.35v-.22h.09a.69.69,0,0,0,.46-.1.36.36,0,0,0,.13-.24c0-.09,0-.36,0-.81V53.62A3.35,3.35,0,0,0,99,53a.61.61,0,0,0-.24-.36.81.81,0,0,0-.52-.16,1.23,1.23,0,0,0-.68.21,2.35,2.35,0,0,0-.61.64v1.63a7.62,7.62,0,0,0,0,.85.3.3,0,0,0,.16.22,1.06,1.06,0,0,0,.48.08v.22h-2v-.22a1.07,1.07,0,0,0,.47-.07.27.27,0,0,0,.16-.21,6.6,6.6,0,0,0,0-.87V53.72c0-.47,0-.75,0-.85a.3.3,0,0,0-.16-.22,1.06,1.06,0,0,0-.48-.08v-.22A5.68,5.68,0,0,0,96.68,52.12Z"/><path class="cls-1" d="M103.36,52.51h-1.21v2.42a3.88,3.88,0,0,0,0,.75.54.54,0,0,0,.21.31.6.6,0,0,0,.34.11.74.74,0,0,0,.61-.4l.15.1a1.08,1.08,0,0,1-.44.48,1.24,1.24,0,0,1-.6.17,1,1,0,0,1-.62-.21.83.83,0,0,1-.33-.49,4.31,4.31,0,0,1-.07-1V52.51h-.58v-.22a1,1,0,0,0,.72-.34A1.6,1.6,0,0,0,102,51h.16v1.26h1.21Z"/><path class="cls-1" d="M105.19,53.14a1.6,1.6,0,0,1,.54-.72,1.17,1.17,0,0,1,.73-.3.66.66,0,0,1,.51.2.64.64,0,0,1,.19.41.37.37,0,0,1-.1.25.29.29,0,0,1-.23.1c-.16,0-.29-.12-.37-.36s-.15-.24-.27-.24a.8.8,0,0,0-.5.28,1.45,1.45,0,0,0-.38.59,3.76,3.76,0,0,0-.08.85v.71c0,.43,0,.7,0,.81a.34.34,0,0,0,.14.25.74.74,0,0,0,.43.09H106v.22h-2.12v-.22h.1a.89.89,0,0,0,.42-.08.31.31,0,0,0,.14-.23,6.44,6.44,0,0,0,0-.84V53.78c0-.43,0-.7,0-.8a.36.36,0,0,0-.14-.26.74.74,0,0,0-.43-.09h-.1v-.22a6.3,6.3,0,0,0,1.2-.29A3.44,3.44,0,0,1,105.19,53.14Z"/><path class="cls-1" d="M109.87,55.53l.92-2.22a2.93,2.93,0,0,0,.2-.55c0-.16-.18-.24-.54-.25v-.22h1.41v.22a.71.71,0,0,0-.48.17,2.68,2.68,0,0,0-.38.7l-1.78,4.31a3.06,3.06,0,0,1-.45.83.57.57,0,0,1-.43.23c-.21,0-.32-.1-.32-.29s.17-.41.51-.56a1.76,1.76,0,0,0,.4-.23.91.91,0,0,0,.2-.34l.38-.95L108,53.16a2,2,0,0,0-.34-.54.7.7,0,0,0-.45-.11v-.22h1.84v.22c-.32,0-.48.08-.48.2a1.94,1.94,0,0,0,.19.48Z"/><rect class="cls-4" x="123.43" y="44.4" width="31.28" height="18.46"/><path class="cls-1" d="M132.78,54.22H133l-.15,2.06h-5.48v-.22h.14a1,1,0,0,0,.63-.13.61.61,0,0,0,.19-.34,8.86,8.86,0,0,0,0-1V51.31a9.08,9.08,0,0,0,0-1,.51.51,0,0,0-.2-.34,1.34,1.34,0,0,0-.62-.09v-.23h4.73l.15,1.65h-.23a2.51,2.51,0,0,0-.38-1,1,1,0,0,0-.54-.37,4.82,4.82,0,0,0-1-.07h-.92v2.78h.7a1.8,1.8,0,0,0,.68-.09.41.41,0,0,0,.25-.25,2.32,2.32,0,0,0,.06-.66h.23v2.27H131a2,2,0,0,0-.09-.74.43.43,0,0,0-.27-.24,2.11,2.11,0,0,0-.6-.06h-.73v1.57a3.41,3.41,0,0,0,.15,1.38c.1.14.37.21.82.21h.49a2.34,2.34,0,0,0,.86-.14,1.46,1.46,0,0,0,.64-.55A3.34,3.34,0,0,0,132.78,54.22Z"/><path class="cls-1" d="M134.7,52.12h.13A2.57,2.57,0,0,1,135,53a2.47,2.47,0,0,1,.74-.62,1.62,1.62,0,0,1,.8-.21,1.47,1.47,0,0,1,.79.2.94.94,0,0,1,.39.5,3,3,0,0,1,.09.84v1.25a7.62,7.62,0,0,0,0,.85.32.32,0,0,0,.15.22,1.06,1.06,0,0,0,.48.08v.22h-2v-.22h.1a.72.72,0,0,0,.46-.1.39.39,0,0,0,.12-.24c0-.09,0-.36,0-.81V53.62a3.55,3.55,0,0,0,0-.67.63.63,0,0,0-.25-.36.81.81,0,0,0-.52-.16,1.26,1.26,0,0,0-.68.21,2.35,2.35,0,0,0-.61.64v1.63a6.65,6.65,0,0,0,0,.85.29.29,0,0,0,.15.22,1.06,1.06,0,0,0,.48.08v.22h-2v-.22a1,1,0,0,0,.47-.07.27.27,0,0,0,.16-.21,5.82,5.82,0,0,0,0-.87V53.72a6.53,6.53,0,0,0,0-.85.3.3,0,0,0-.16-.22,1,1,0,0,0-.48-.08v-.22A5.53,5.53,0,0,0,134.7,52.12Z"/><path class="cls-1" d="M141.38,52.51h-1.21v2.42a3.88,3.88,0,0,0,.05.75.6.6,0,0,0,.21.31.62.62,0,0,0,.34.11.73.73,0,0,0,.61-.4l.16.1a1.1,1.1,0,0,1-.45.48,1.24,1.24,0,0,1-.6.17,1,1,0,0,1-.62-.21.94.94,0,0,1-.33-.49,5,5,0,0,1-.07-1V52.51h-.58v-.22a1,1,0,0,0,.72-.34A1.67,1.67,0,0,0,140,51h.15v1.26h1.21Z"/><path class="cls-1" d="M143.22,53.14a1.6,1.6,0,0,1,.54-.72,1.15,1.15,0,0,1,.72-.3.66.66,0,0,1,.51.2.59.59,0,0,1,.19.41.33.33,0,0,1-.1.25.29.29,0,0,1-.23.1c-.16,0-.29-.12-.37-.36s-.15-.24-.26-.24a.82.82,0,0,0-.51.28,1.32,1.32,0,0,0-.37.59,3.19,3.19,0,0,0-.09.85v.71c0,.43,0,.7,0,.81a.34.34,0,0,0,.14.25.78.78,0,0,0,.44.09H144v.22h-2.12v-.22h.1a.83.83,0,0,0,.42-.08.36.36,0,0,0,.15-.23c0-.1,0-.38,0-.84V53.78a6.84,6.84,0,0,0,0-.8.33.33,0,0,0-.14-.26.74.74,0,0,0-.43-.09h-.1v-.22a6.3,6.3,0,0,0,1.2-.29A3.4,3.4,0,0,1,143.22,53.14Z"/><path class="cls-1" d="M147.89,55.53l.93-2.22a4.14,4.14,0,0,0,.2-.55c0-.16-.18-.24-.55-.25v-.22h1.41v.22a.71.71,0,0,0-.48.17,2.74,2.74,0,0,0-.37.7l-1.79,4.31a2.81,2.81,0,0,1-.45.83.57.57,0,0,1-.43.23c-.21,0-.31-.1-.31-.29s.17-.41.51-.56a1.63,1.63,0,0,0,.39-.23.79.79,0,0,0,.2-.34l.38-.95L146,53.16a2.38,2.38,0,0,0-.33-.54.74.74,0,0,0-.45-.11v-.22h1.83v.22c-.32,0-.48.08-.48.2a1.94,1.94,0,0,0,.19.48Z"/><rect class="cls-4" x="161.46" y="44.4" width="31.28" height="18.46"/><path class="cls-1" d="M170.8,54.22H171l-.14,2.06h-5.49v-.22h.14a1,1,0,0,0,.64-.13.66.66,0,0,0,.18-.34,7,7,0,0,0,0-1V51.31a7,7,0,0,0,0-1,.5.5,0,0,0-.19-.34,1.42,1.42,0,0,0-.63-.09v-.23h4.73l.16,1.65h-.23a2.49,2.49,0,0,0-.39-1,1,1,0,0,0-.53-.37,4.93,4.93,0,0,0-1-.07h-.92v2.78h.7a1.77,1.77,0,0,0,.68-.09.41.41,0,0,0,.25-.25,1.91,1.91,0,0,0,.07-.66h.23v2.27h-.23a1.94,1.94,0,0,0-.1-.74.43.43,0,0,0-.27-.24,2.11,2.11,0,0,0-.6-.06h-.73v1.57a3.41,3.41,0,0,0,.15,1.38c.1.14.38.21.82.21h.49a2.31,2.31,0,0,0,.86-.14,1.41,1.41,0,0,0,.64-.55A3,3,0,0,0,170.8,54.22Z"/><path class="cls-1" d="M172.72,52.12h.13A2.57,2.57,0,0,1,173,53a2.6,2.6,0,0,1,.74-.62,1.65,1.65,0,0,1,.8-.21,1.47,1.47,0,0,1,.79.2.94.94,0,0,1,.39.5,3,3,0,0,1,.09.84v1.25c0,.46,0,.75,0,.85A.3.3,0,0,0,176,56a1,1,0,0,0,.47.08v.22h-2v-.22h.09A.71.71,0,0,0,175,56a.39.39,0,0,0,.12-.24c0-.09,0-.36,0-.81V53.62A3.35,3.35,0,0,0,175,53a.59.59,0,0,0-.25-.36.78.78,0,0,0-.51-.16,1.27,1.27,0,0,0-.69.21,2.51,2.51,0,0,0-.61.64v1.63a6.65,6.65,0,0,0,0,.85.32.32,0,0,0,.15.22,1.08,1.08,0,0,0,.49.08v.22h-2v-.22a1,1,0,0,0,.47-.07.28.28,0,0,0,.17-.21,6.6,6.6,0,0,0,0-.87V53.72a6.53,6.53,0,0,0,0-.85.3.3,0,0,0-.16-.22,1,1,0,0,0-.48-.08v-.22A5.53,5.53,0,0,0,172.72,52.12Z"/><path class="cls-1" d="M179.4,52.51h-1.2v2.42a3.19,3.19,0,0,0,.05.75.58.58,0,0,0,.2.31.62.62,0,0,0,.34.11.72.72,0,0,0,.61-.4l.16.1a1,1,0,0,1-.45.48,1.19,1.19,0,0,1-.6.17.94.94,0,0,1-.61-.21.9.9,0,0,1-.34-.49,5.26,5.26,0,0,1-.06-1V52.51h-.58v-.22a1.06,1.06,0,0,0,.72-.34A1.66,1.66,0,0,0,178,51h.16v1.26h1.2Z"/><path class="cls-1" d="M181.24,53.14a1.6,1.6,0,0,1,.54-.72,1.17,1.17,0,0,1,.73-.3.69.69,0,0,1,.51.2.63.63,0,0,1,.18.41.37.37,0,0,1-.09.25.31.31,0,0,1-.24.1c-.16,0-.28-.12-.37-.36s-.14-.24-.26-.24a.78.78,0,0,0-.5.28,1.35,1.35,0,0,0-.38.59,3.76,3.76,0,0,0-.08.85v.71c0,.43,0,.7,0,.81a.37.37,0,0,0,.14.25.8.8,0,0,0,.44.09H182v.22h-2.13v-.22h.1a.83.83,0,0,0,.42-.08.36.36,0,0,0,.15-.23,7.4,7.4,0,0,0,0-.84V53.78c0-.43,0-.7,0-.8a.36.36,0,0,0-.14-.26.78.78,0,0,0-.44-.09h-.1v-.22a6,6,0,0,0,1.2-.29A3.11,3.11,0,0,1,181.24,53.14Z"/><path class="cls-1" d="M185.91,55.53l.93-2.22a4.14,4.14,0,0,0,.2-.55c0-.16-.18-.24-.54-.25v-.22h1.4v.22a.68.68,0,0,0-.47.17,2.4,2.4,0,0,0-.38.7l-1.78,4.31a3.06,3.06,0,0,1-.45.83.58.58,0,0,1-.43.23c-.21,0-.32-.1-.32-.29s.17-.41.51-.56a1.76,1.76,0,0,0,.4-.23.92.92,0,0,0,.19-.34l.39-.95-1.51-3.22a1.82,1.82,0,0,0-.33-.54.74.74,0,0,0-.45-.11v-.22h1.84v.22c-.33,0-.49.08-.49.2a2.53,2.53,0,0,0,.19.48Z"/><rect class="cls-4" x="9.37" y="69.24" width="31.28" height="18.46"/><path class="cls-1" d="M18.71,79.06H19l-.14,2.06H13.32V80.9h.14a1.1,1.1,0,0,0,.64-.13.66.66,0,0,0,.18-.34,7,7,0,0,0,0-1V76.15a9.08,9.08,0,0,0,0-1,.51.51,0,0,0-.19-.34,1.42,1.42,0,0,0-.63-.09V74.5h4.73l.16,1.65h-.23a2.49,2.49,0,0,0-.39-1,.93.93,0,0,0-.54-.37,4.76,4.76,0,0,0-1-.07h-.92V77.5H16a1.82,1.82,0,0,0,.68-.08.41.41,0,0,0,.25-.25,2.32,2.32,0,0,0,.06-.66h.23v2.27H17a2,2,0,0,0-.09-.74.44.44,0,0,0-.27-.25,2.7,2.7,0,0,0-.6-.05h-.73v1.57a3.41,3.41,0,0,0,.15,1.38c.1.14.37.21.82.21h.49a2.34,2.34,0,0,0,.86-.14,1.53,1.53,0,0,0,.64-.55A3.16,3.16,0,0,0,18.71,79.06Z"/><path class="cls-1" d="M20.63,77h.13a2.53,2.53,0,0,1,.13.83,2.33,2.33,0,0,1,.74-.62,1.65,1.65,0,0,1,.8-.21,1.47,1.47,0,0,1,.79.2,1,1,0,0,1,.39.49,3.09,3.09,0,0,1,.09.85v1.25c0,.46,0,.74,0,.84a.3.3,0,0,0,.16.23,1,1,0,0,0,.47.08v.22h-2V80.9h.09a.7.7,0,0,0,.46-.11.35.35,0,0,0,.12-.23c0-.1,0-.36,0-.81V78.46a3.55,3.55,0,0,0,0-.67.63.63,0,0,0-.25-.36.81.81,0,0,0-.52-.16,1.26,1.26,0,0,0-.68.21,2.35,2.35,0,0,0-.61.64v1.63a6.44,6.44,0,0,0,0,.84.29.29,0,0,0,.15.23,1.06,1.06,0,0,0,.48.08v.22h-2V80.9a1,1,0,0,0,.47-.07.35.35,0,0,0,.17-.21,6.6,6.6,0,0,0,0-.87V78.56a6.53,6.53,0,0,0,0-.85.3.3,0,0,0-.16-.22,1,1,0,0,0-.48-.08v-.22A6.34,6.34,0,0,0,20.63,77Z"/><path class="cls-1" d="M27.31,77.35H26.1v2.41a3.73,3.73,0,0,0,0,.75.58.58,0,0,0,.21.31.56.56,0,0,0,.34.12.73.73,0,0,0,.61-.4l.16.09a1,1,0,0,1-.45.49,1.23,1.23,0,0,1-.6.16,1,1,0,0,1-.61-.2.9.9,0,0,1-.34-.49,5.39,5.39,0,0,1-.06-1V77.35h-.58v-.23a1,1,0,0,0,.71-.33,1.6,1.6,0,0,0,.41-.92h.15v1.25h1.21Z"/><path class="cls-1" d="M29.15,78a1.69,1.69,0,0,1,.54-.73,1.22,1.22,0,0,1,.73-.29.65.65,0,0,1,.5.2.59.59,0,0,1,.19.41.33.33,0,0,1-.33.35c-.16,0-.28-.12-.37-.36s-.14-.25-.26-.25a.84.84,0,0,0-.51.29,1.32,1.32,0,0,0-.37.59,3.25,3.25,0,0,0-.08.85v.71c0,.43,0,.7,0,.81a.34.34,0,0,0,.14.25.78.78,0,0,0,.44.09h.13v.22H27.79V80.9h.1a.83.83,0,0,0,.42-.08.36.36,0,0,0,.15-.23c0-.1,0-.38,0-.84V78.62c0-.43,0-.7,0-.81a.39.39,0,0,0-.14-.25.78.78,0,0,0-.44-.09h-.1v-.22A6.74,6.74,0,0,0,29,77,3.11,3.11,0,0,1,29.15,78Z"/><path class="cls-1" d="M33.82,80.37l.93-2.23a3.77,3.77,0,0,0,.2-.54c0-.16-.18-.25-.54-.25v-.23h1.4v.23a.71.71,0,0,0-.48.17,2.74,2.74,0,0,0-.37.7l-1.78,4.3a3.34,3.34,0,0,1-.45.84.57.57,0,0,1-.43.22c-.21,0-.32-.09-.32-.29s.17-.4.51-.56a1.49,1.49,0,0,0,.4-.22,1,1,0,0,0,.19-.34l.38-1L32,78a1.69,1.69,0,0,0-.33-.54.74.74,0,0,0-.45-.11v-.23H33v.23c-.32,0-.48.07-.48.2a1.94,1.94,0,0,0,.19.48Z"/><rect class="cls-4" x="47.39" y="69.24" width="31.28" height="18.46"/><path class="cls-1" d="M56.74,79.06H57l-.14,2.06H51.35V80.9h.13a1.1,1.1,0,0,0,.64-.13.54.54,0,0,0,.18-.34,7,7,0,0,0,0-1V76.15a7,7,0,0,0,0-1,.48.48,0,0,0-.19-.34,1.42,1.42,0,0,0-.63-.09V74.5h4.73l.16,1.65h-.23a2.51,2.51,0,0,0-.38-1,1,1,0,0,0-.54-.37,4.93,4.93,0,0,0-1-.07h-.92V77.5H54a1.79,1.79,0,0,0,.67-.08.43.43,0,0,0,.26-.25,2.32,2.32,0,0,0,.06-.66h.23v2.27H55a1.73,1.73,0,0,0-.1-.74.44.44,0,0,0-.27-.25,2.64,2.64,0,0,0-.6-.05h-.73v1.57a3.41,3.41,0,0,0,.15,1.38c.11.14.38.21.82.21h.49a2.31,2.31,0,0,0,.86-.14,1.47,1.47,0,0,0,.64-.55A3.16,3.16,0,0,0,56.74,79.06Z"/><path class="cls-1" d="M58.65,77h.14a2.87,2.87,0,0,1,.12.83,2.44,2.44,0,0,1,.74-.62,1.69,1.69,0,0,1,.81-.21,1.43,1.43,0,0,1,.78.2,1,1,0,0,1,.39.49,3.09,3.09,0,0,1,.09.85v1.25a6.44,6.44,0,0,0,0,.84.27.27,0,0,0,.15.23,1,1,0,0,0,.48.08v.22H60.33V80.9h.09a.68.68,0,0,0,.46-.11.35.35,0,0,0,.12-.23c0-.1,0-.36,0-.81V78.46a3.35,3.35,0,0,0-.05-.67.59.59,0,0,0-.25-.36.76.76,0,0,0-.51-.16,1.21,1.21,0,0,0-.68.21,2.24,2.24,0,0,0-.62.64v1.63a6.44,6.44,0,0,0,0,.84.3.3,0,0,0,.16.23,1,1,0,0,0,.48.08v.22h-2V80.9a1,1,0,0,0,.46-.07.32.32,0,0,0,.17-.21,6.6,6.6,0,0,0,0-.87V78.56a6.53,6.53,0,0,0,0-.85.29.29,0,0,0-.15-.22,1.06,1.06,0,0,0-.48-.08v-.22A6.44,6.44,0,0,0,58.65,77Z"/><path class="cls-1" d="M65.33,77.35h-1.2v2.41a3.09,3.09,0,0,0,.05.75.51.51,0,0,0,.2.31.56.56,0,0,0,.34.12.72.72,0,0,0,.61-.4l.16.09a1,1,0,0,1-.45.49,1.16,1.16,0,0,1-.59.16,1,1,0,0,1-.62-.2.83.83,0,0,1-.33-.49,4.42,4.42,0,0,1-.07-1V77.35h-.58v-.23a1,1,0,0,0,.72-.33,1.66,1.66,0,0,0,.4-.92h.16v1.25h1.2Z"/><path class="cls-1" d="M67.17,78a1.69,1.69,0,0,1,.54-.73,1.22,1.22,0,0,1,.73-.29.69.69,0,0,1,.51.2.63.63,0,0,1,.18.41.37.37,0,0,1-.09.25.34.34,0,0,1-.23.1c-.17,0-.29-.12-.38-.36s-.14-.25-.26-.25a.8.8,0,0,0-.5.29,1.35,1.35,0,0,0-.38.59,3.76,3.76,0,0,0-.08.85v.71c0,.43,0,.7,0,.81a.31.31,0,0,0,.14.25.74.74,0,0,0,.43.09h.14v.22H65.81V80.9h.11a.82.82,0,0,0,.41-.08.3.3,0,0,0,.15-.23,6.44,6.44,0,0,0,0-.84V78.62c0-.43,0-.7,0-.81a.35.35,0,0,0-.14-.25.76.76,0,0,0-.43-.09h-.11v-.22A6.74,6.74,0,0,0,67,77,3.11,3.11,0,0,1,67.17,78Z"/><path class="cls-1" d="M71.84,80.37l.93-2.23a3.77,3.77,0,0,0,.2-.54c0-.16-.18-.25-.54-.25v-.23h1.41v.23a.71.71,0,0,0-.48.17,2.68,2.68,0,0,0-.38.7l-1.78,4.3a3.34,3.34,0,0,1-.45.84.55.55,0,0,1-.43.22c-.21,0-.32-.09-.32-.29s.17-.4.51-.56a1.49,1.49,0,0,0,.4-.22,1.2,1.2,0,0,0,.2-.34l.38-1L70,78a1.69,1.69,0,0,0-.33-.54.74.74,0,0,0-.45-.11v-.23H71v.23c-.32,0-.49.07-.49.2a2.53,2.53,0,0,0,.19.48Z"/><rect class="cls-4" x="85.41" y="69.24" width="31.28" height="18.46"/><path class="cls-1" d="M94.76,79.06H95l-.14,2.06H89.37V80.9h.13a1.08,1.08,0,0,0,.64-.13.54.54,0,0,0,.18-.34,7,7,0,0,0,0-1V76.15a7,7,0,0,0,0-1,.48.48,0,0,0-.19-.34,1.42,1.42,0,0,0-.63-.09V74.5h4.74l.15,1.65h-.23a2.51,2.51,0,0,0-.38-1,.93.93,0,0,0-.54-.37,4.87,4.87,0,0,0-1-.07h-.91V77.5H92a1.85,1.85,0,0,0,.68-.08.44.44,0,0,0,.25-.25,2.32,2.32,0,0,0,.06-.66h.23v2.27H93a2,2,0,0,0-.09-.74.44.44,0,0,0-.27-.25,2.74,2.74,0,0,0-.61-.05h-.72v1.57a3.41,3.41,0,0,0,.15,1.38q.15.21.81.21h.5a2.38,2.38,0,0,0,.86-.14,1.59,1.59,0,0,0,.64-.55A3.34,3.34,0,0,0,94.76,79.06Z"/><path class="cls-1" d="M96.68,77h.13a2.82,2.82,0,0,1,.13.83,2.42,2.42,0,0,1,.73-.62,1.69,1.69,0,0,1,.81-.21,1.41,1.41,0,0,1,.78.2.93.93,0,0,1,.4.49,3.63,3.63,0,0,1,.08.85v1.25a6.44,6.44,0,0,0,0,.84.29.29,0,0,0,.15.23,1.06,1.06,0,0,0,.48.08v.22H98.35V80.9h.09a.68.68,0,0,0,.46-.11.32.32,0,0,0,.13-.23c0-.1,0-.36,0-.81V78.46a3.35,3.35,0,0,0-.05-.67.61.61,0,0,0-.24-.36.81.81,0,0,0-.52-.16,1.23,1.23,0,0,0-.68.21,2.21,2.21,0,0,0-.61.64v1.63a7.4,7.4,0,0,0,0,.84.3.3,0,0,0,.16.23,1.06,1.06,0,0,0,.48.08v.22h-2V80.9a1.07,1.07,0,0,0,.47-.07.31.31,0,0,0,.16-.21,6.6,6.6,0,0,0,0-.87V78.56c0-.47,0-.75,0-.85a.3.3,0,0,0-.16-.22,1.06,1.06,0,0,0-.48-.08v-.22A6.54,6.54,0,0,0,96.68,77Z"/><path class="cls-1" d="M103.36,77.35h-1.21v2.41a3.73,3.73,0,0,0,0,.75.49.49,0,0,0,.21.31.54.54,0,0,0,.34.12.74.74,0,0,0,.61-.4l.15.09a1.05,1.05,0,0,1-.44.49,1.23,1.23,0,0,1-.6.16,1,1,0,0,1-.62-.2.83.83,0,0,1-.33-.49,4.42,4.42,0,0,1-.07-1V77.35h-.58v-.23a1,1,0,0,0,.72-.33,1.6,1.6,0,0,0,.4-.92h.16v1.25h1.21Z"/><path class="cls-1" d="M105.19,78a1.69,1.69,0,0,1,.54-.73,1.22,1.22,0,0,1,.73-.29.66.66,0,0,1,.51.2.64.64,0,0,1,.19.41.37.37,0,0,1-.1.25.33.33,0,0,1-.23.1c-.16,0-.29-.12-.37-.36s-.15-.25-.27-.25a.83.83,0,0,0-.5.29,1.45,1.45,0,0,0-.38.59,3.76,3.76,0,0,0-.08.85v.71c0,.43,0,.7,0,.81a.34.34,0,0,0,.14.25.74.74,0,0,0,.43.09H106v.22h-2.12V80.9h.1a.89.89,0,0,0,.42-.08.31.31,0,0,0,.14-.23,6.44,6.44,0,0,0,0-.84V78.62c0-.43,0-.7,0-.81a.35.35,0,0,0-.14-.25.74.74,0,0,0-.43-.09h-.1v-.22A7.17,7.17,0,0,0,105,77,3.44,3.44,0,0,1,105.19,78Z"/><path class="cls-1" d="M109.87,80.37l.92-2.23a2.72,2.72,0,0,0,.2-.54c0-.16-.18-.25-.54-.25v-.23h1.41v.23a.71.71,0,0,0-.48.17,2.68,2.68,0,0,0-.38.7l-1.78,4.3a3.34,3.34,0,0,1-.45.84.55.55,0,0,1-.43.22c-.21,0-.32-.09-.32-.29s.17-.4.51-.56a1.49,1.49,0,0,0,.4-.22,1,1,0,0,0,.2-.34l.38-1L108,78a1.85,1.85,0,0,0-.34-.54.7.7,0,0,0-.45-.11v-.23h1.84v.23c-.32,0-.48.07-.48.2a1.94,1.94,0,0,0,.19.48Z"/><rect class="cls-4" x="123.43" y="69.24" width="31.28" height="18.46"/><path class="cls-1" d="M132.78,79.06H133l-.15,2.06h-5.48V80.9h.14a1,1,0,0,0,.63-.13.61.61,0,0,0,.19-.34,8.86,8.86,0,0,0,0-1V76.15a9.08,9.08,0,0,0,0-1,.48.48,0,0,0-.2-.34,1.34,1.34,0,0,0-.62-.09V74.5h4.73l.15,1.65h-.23a2.51,2.51,0,0,0-.38-1,.93.93,0,0,0-.54-.37,4.82,4.82,0,0,0-1-.07h-.92V77.5h.7a1.85,1.85,0,0,0,.68-.08.41.41,0,0,0,.25-.25,2.32,2.32,0,0,0,.06-.66h.23v2.27H131a2,2,0,0,0-.09-.74.44.44,0,0,0-.27-.25,2.7,2.7,0,0,0-.6-.05h-.73v1.57a3.41,3.41,0,0,0,.15,1.38c.1.14.37.21.82.21h.49a2.34,2.34,0,0,0,.86-.14,1.53,1.53,0,0,0,.64-.55A3.34,3.34,0,0,0,132.78,79.06Z"/><path class="cls-1" d="M134.7,77h.13a2.53,2.53,0,0,1,.13.83,2.33,2.33,0,0,1,.74-.62,1.62,1.62,0,0,1,.8-.21,1.47,1.47,0,0,1,.79.2,1,1,0,0,1,.39.49,3.09,3.09,0,0,1,.09.85v1.25a7.4,7.4,0,0,0,0,.84.32.32,0,0,0,.15.23,1.06,1.06,0,0,0,.48.08v.22h-2V80.9h.1a.71.71,0,0,0,.46-.11.35.35,0,0,0,.12-.23c0-.1,0-.36,0-.81V78.46a3.55,3.55,0,0,0,0-.67.63.63,0,0,0-.25-.36.81.81,0,0,0-.52-.16,1.26,1.26,0,0,0-.68.21,2.21,2.21,0,0,0-.61.64v1.63a6.44,6.44,0,0,0,0,.84.29.29,0,0,0,.15.23,1.06,1.06,0,0,0,.48.08v.22h-2V80.9a1,1,0,0,0,.47-.07.31.31,0,0,0,.16-.21,5.82,5.82,0,0,0,0-.87V78.56a6.53,6.53,0,0,0,0-.85.3.3,0,0,0-.16-.22,1,1,0,0,0-.48-.08v-.22A6.34,6.34,0,0,0,134.7,77Z"/><path class="cls-1" d="M141.38,77.35h-1.21v2.41a3.73,3.73,0,0,0,.05.75.53.53,0,0,0,.21.31.56.56,0,0,0,.34.12.73.73,0,0,0,.61-.4l.16.09a1.07,1.07,0,0,1-.45.49,1.23,1.23,0,0,1-.6.16,1,1,0,0,1-.62-.2.94.94,0,0,1-.33-.49,5.15,5.15,0,0,1-.07-1V77.35h-.58v-.23a1,1,0,0,0,.72-.33,1.67,1.67,0,0,0,.41-.92h.15v1.25h1.21Z"/><path class="cls-1" d="M143.22,78a1.69,1.69,0,0,1,.54-.73,1.19,1.19,0,0,1,.72-.29.66.66,0,0,1,.51.2.59.59,0,0,1,.19.41.33.33,0,0,1-.1.25.33.33,0,0,1-.23.1c-.16,0-.29-.12-.37-.36s-.15-.25-.26-.25a.84.84,0,0,0-.51.29,1.32,1.32,0,0,0-.37.59,3.19,3.19,0,0,0-.09.85v.71c0,.43,0,.7,0,.81a.34.34,0,0,0,.14.25.78.78,0,0,0,.44.09H144v.22h-2.12V80.9h.1a.83.83,0,0,0,.42-.08.36.36,0,0,0,.15-.23c0-.1,0-.38,0-.84V78.62a7.17,7.17,0,0,0,0-.81.32.32,0,0,0-.14-.25.74.74,0,0,0-.43-.09h-.1v-.22a7.17,7.17,0,0,0,1.2-.29A3.4,3.4,0,0,1,143.22,78Z"/><path class="cls-1" d="M147.89,80.37l.93-2.23a3.77,3.77,0,0,0,.2-.54c0-.16-.18-.25-.55-.25v-.23h1.41v.23a.71.71,0,0,0-.48.17,2.74,2.74,0,0,0-.37.7l-1.79,4.3a3,3,0,0,1-.45.84.55.55,0,0,1-.43.22c-.21,0-.31-.09-.31-.29s.17-.4.51-.56a1.39,1.39,0,0,0,.39-.22.87.87,0,0,0,.2-.34l.38-1L146,78a2.16,2.16,0,0,0-.33-.54.74.74,0,0,0-.45-.11v-.23h1.83v.23c-.32,0-.48.07-.48.2a1.94,1.94,0,0,0,.19.48Z"/><rect class="cls-4" x="161.46" y="69.24" width="31.28" height="18.46"/><path class="cls-1" d="M170.8,79.06H171l-.14,2.06h-5.49V80.9h.14a1.1,1.1,0,0,0,.64-.13.66.66,0,0,0,.18-.34,7,7,0,0,0,0-1V76.15a7,7,0,0,0,0-1,.48.48,0,0,0-.19-.34,1.42,1.42,0,0,0-.63-.09V74.5h4.73l.16,1.65h-.23a2.49,2.49,0,0,0-.39-1,.94.94,0,0,0-.53-.37,4.93,4.93,0,0,0-1-.07h-.92V77.5h.7a1.82,1.82,0,0,0,.68-.08.41.41,0,0,0,.25-.25,1.91,1.91,0,0,0,.07-.66h.23v2.27h-.23A1.9,1.9,0,0,0,169,78a.44.44,0,0,0-.27-.25,2.7,2.7,0,0,0-.6-.05h-.73v1.57a3.41,3.41,0,0,0,.15,1.38c.1.14.38.21.82.21h.49a2.31,2.31,0,0,0,.86-.14,1.47,1.47,0,0,0,.64-.55A3,3,0,0,0,170.8,79.06Z"/><path class="cls-1" d="M172.72,77h.13a2.53,2.53,0,0,1,.13.83,2.44,2.44,0,0,1,.74-.62,1.65,1.65,0,0,1,.8-.21,1.47,1.47,0,0,1,.79.2,1,1,0,0,1,.39.49,3.09,3.09,0,0,1,.09.85v1.25c0,.46,0,.74,0,.84a.3.3,0,0,0,.16.23,1,1,0,0,0,.47.08v.22h-2V80.9h.09a.7.7,0,0,0,.46-.11.35.35,0,0,0,.12-.23c0-.1,0-.36,0-.81V78.46a3.35,3.35,0,0,0-.05-.67.59.59,0,0,0-.25-.36.78.78,0,0,0-.51-.16,1.27,1.27,0,0,0-.69.21,2.35,2.35,0,0,0-.61.64v1.63a6.44,6.44,0,0,0,0,.84.32.32,0,0,0,.15.23,1.08,1.08,0,0,0,.49.08v.22h-2V80.9a1,1,0,0,0,.47-.07.32.32,0,0,0,.17-.21,6.6,6.6,0,0,0,0-.87V78.56a6.53,6.53,0,0,0,0-.85.3.3,0,0,0-.16-.22,1,1,0,0,0-.48-.08v-.22A6.34,6.34,0,0,0,172.72,77Z"/><path class="cls-1" d="M179.4,77.35h-1.2v2.41a3.09,3.09,0,0,0,.05.75.51.51,0,0,0,.2.31.56.56,0,0,0,.34.12.72.72,0,0,0,.61-.4l.16.09a1,1,0,0,1-.45.49,1.17,1.17,0,0,1-.6.16,1,1,0,0,1-.61-.2.9.9,0,0,1-.34-.49,5.39,5.39,0,0,1-.06-1V77.35h-.58v-.23a1,1,0,0,0,.72-.33,1.66,1.66,0,0,0,.4-.92h.16v1.25h1.2Z"/><path class="cls-1" d="M181.24,78a1.69,1.69,0,0,1,.54-.73,1.22,1.22,0,0,1,.73-.29.69.69,0,0,1,.51.2.63.63,0,0,1,.18.41.37.37,0,0,1-.09.25.35.35,0,0,1-.24.1c-.16,0-.28-.12-.37-.36s-.14-.25-.26-.25a.8.8,0,0,0-.5.29,1.35,1.35,0,0,0-.38.59,3.76,3.76,0,0,0-.08.85v.71c0,.43,0,.7,0,.81a.37.37,0,0,0,.14.25.8.8,0,0,0,.44.09H182v.22h-2.13V80.9h.1a.83.83,0,0,0,.42-.08.36.36,0,0,0,.15-.23,7.4,7.4,0,0,0,0-.84V78.62c0-.43,0-.7,0-.81a.35.35,0,0,0-.14-.25.78.78,0,0,0-.44-.09h-.1v-.22a6.74,6.74,0,0,0,1.2-.29A3.11,3.11,0,0,1,181.24,78Z"/><path class="cls-1" d="M185.91,80.37l.93-2.23a3.77,3.77,0,0,0,.2-.54c0-.16-.18-.25-.54-.25v-.23h1.4v.23a.68.68,0,0,0-.47.17,2.4,2.4,0,0,0-.38.7l-1.78,4.3a3.34,3.34,0,0,1-.45.84.57.57,0,0,1-.43.22c-.21,0-.32-.09-.32-.29s.17-.4.51-.56a1.49,1.49,0,0,0,.4-.22,1,1,0,0,0,.19-.34l.39-1L184.05,78a1.69,1.69,0,0,0-.33-.54.74.74,0,0,0-.45-.11v-.23h1.84v.23c-.33,0-.49.07-.49.2a2.53,2.53,0,0,0,.19.48Z"/><rect class="cls-4" x="246.21" y="2.38" width="197.42" height="115.78"/><line class="cls-4" x1="246.21" y1="94.43" x2="443.63" y2="94.43"/><polyline class="cls-5" points="251.09 23.19 222.55 23.19 222.55 105.66 200.02 105.66"/><polyline class="cls-6" points="248.8 20.51 251.59 23.3 248.72 26.17"/></g></svg>