<svg xmlns="http://www.w3.org/2000/svg" viewBox="0 0 368.46 211.05"><defs><style>.cls-1{fill:#1d1d1b;}.cls-2,.cls-3,.cls-4,.cls-5,.cls-6{fill:none;}.cls-2{stroke:#1d1d1b;stroke-width:0.44px;}.cls-2,.cls-4,.cls-5{stroke-linejoin:round;}.cls-3,.cls-4,.cls-5,.cls-6{stroke:#010101;}.cls-3,.cls-4,.cls-5{stroke-linecap:round;}.cls-3,.cls-6{stroke-miterlimit:10;}.cls-3,.cls-4{stroke-width:0.75px;}.cls-5,.cls-6{stroke-width:2px;}</style></defs><g id="Layer_1" data-name="Layer 1"><path class="cls-1" d="M18.89,42H15.37l-.24.59a5.86,5.86,0,0,0-.54,1.66.77.77,0,0,0,.29.64,1.18,1.18,0,0,0,.72.21v.32H12.85v-.32a1.5,1.5,0,0,0,.92-.43,5.32,5.32,0,0,0,.72-1.43c0-.07.13-.33.33-.79L17.51,36h.27l3.1,7.36.42,1a1.28,1.28,0,0,0,.38.52,1.5,1.5,0,0,0,.73.23v.32H18.77v-.32a2.63,2.63,0,0,0,.91-.1.39.39,0,0,0,.23-.39,3.89,3.89,0,0,0-.31-.9Zm-.12-.31-1.64-4-1.63,4Z"/><path class="cls-1" d="M23.38,45.74h-.21l.12-2.43h2a2.14,2.14,0,0,1-.25.46.43.43,0,0,1-.26.06H23.44l-.06,1.62a1.17,1.17,0,0,1,1-.51,1.34,1.34,0,0,1,1.05.49,1.81,1.81,0,0,1,.43,1.21A2,2,0,0,1,25.33,48a1.74,1.74,0,0,1-1.36.55,1.44,1.44,0,0,1-.95-.29c-.23-.19-.34-.36-.34-.51a.24.24,0,0,1,.07-.18.23.23,0,0,1,.18-.07.24.24,0,0,1,.2.07,1.53,1.53,0,0,1,.16.32.67.67,0,0,0,.69.48,1.06,1.06,0,0,0,.85-.4,2.06,2.06,0,0,0,.34-1.31,1.91,1.91,0,0,0-.28-1.16.84.84,0,0,0-.67-.34A.92.92,0,0,0,23.38,45.74Z"/><circle class="cls-2" cx="18.46" cy="42.21" r="16"/><path class="cls-1" d="M84.55,42H81l-.24.59a6.06,6.06,0,0,0-.53,1.66.79.79,0,0,0,.28.64,1.21,1.21,0,0,0,.73.21v.32H78.52v-.32a1.47,1.47,0,0,0,.91-.43,5.26,5.26,0,0,0,.73-1.43c0-.07.13-.33.33-.79L83.18,36h.27l3.09,7.36.43,1a1.28,1.28,0,0,0,.38.52,1.5,1.5,0,0,0,.73.23v.32H84.44v-.32a2.57,2.57,0,0,0,.9-.1.38.38,0,0,0,.24-.39,4.52,4.52,0,0,0-.31-.9Zm-.11-.31-1.64-4-1.64,4Z"/><path class="cls-1" d="M89.05,45.78a1.71,1.71,0,0,1,.51-.44,1.25,1.25,0,0,1,.56-.14,1.49,1.49,0,0,1,1.1.48,1.65,1.65,0,0,1,.46,1.19,1.71,1.71,0,0,1-.45,1.18,1.44,1.44,0,0,1-1.14.51,1.37,1.37,0,0,1-1-.38,2,2,0,0,1-.57-.92,4.06,4.06,0,0,1-.16-1.16A3.76,3.76,0,0,1,88.92,44a1.68,1.68,0,0,1,1.46-.84,1.45,1.45,0,0,1,.76.19q.33.18.33.42a.19.19,0,0,1-.22.21.35.35,0,0,1-.31-.21.87.87,0,0,0-.25-.32.76.76,0,0,0-.41-.09,1,1,0,0,0-.93.54A3.52,3.52,0,0,0,89,45.57C89,45.63,89.05,45.7,89.05,45.78Zm0,1a2.43,2.43,0,0,0,.11.75,1.24,1.24,0,0,0,.35.59.87.87,0,0,0,.56.21.8.8,0,0,0,.73-.39A2.27,2.27,0,0,0,91,46.81a2.49,2.49,0,0,0-.09-.76.9.9,0,0,0-.33-.46.88.88,0,0,0-.55-.19,1,1,0,0,0-.71.31A1.52,1.52,0,0,0,89,46.82Z"/><circle class="cls-2" cx="84.13" cy="42.21" r="16"/><path class="cls-1" d="M150.22,42H146.7l-.24.59a6.06,6.06,0,0,0-.53,1.66.76.76,0,0,0,.28.64,1.19,1.19,0,0,0,.73.21v.32h-2.76v-.32a1.48,1.48,0,0,0,.92-.43,5.57,5.57,0,0,0,.73-1.43c0-.07.13-.33.32-.79l2.7-6.43h.26l3.1,7.36.42,1a1.4,1.4,0,0,0,.39.52,1.46,1.46,0,0,0,.73.23v.32H150.1v-.32A2.63,2.63,0,0,0,151,45a.38.38,0,0,0,.24-.39,4.19,4.19,0,0,0-.32-.9Zm-.12-.31-1.64-4-1.63,4Z"/><path class="cls-1" d="M154.26,44.25l.33-1.07h.14a.09.09,0,0,0,.06.1.91.91,0,0,0,.31,0h2l-1.4,4.27a3.46,3.46,0,0,1-.35.84.34.34,0,0,1-.25.14c-.15,0-.23-.09-.23-.25a1.94,1.94,0,0,1,.22-.61l.1-.22,1.57-3.66h-1.67a2.61,2.61,0,0,0-.4,0,.23.23,0,0,0-.12.08,1.32,1.32,0,0,0-.15.33Z"/><circle class="cls-2" cx="149.8" cy="42.21" r="16"/><path class="cls-1" d="M215.89,42h-3.52l-.24.59a5.71,5.71,0,0,0-.53,1.66.76.76,0,0,0,.28.64,1.19,1.19,0,0,0,.73.21v.32h-2.76v-.32a1.5,1.5,0,0,0,.92-.43,5.32,5.32,0,0,0,.72-1.43l.33-.79,2.7-6.43h.26l3.1,7.36.42,1a1.4,1.4,0,0,0,.39.52,1.43,1.43,0,0,0,.73.23v.32h-3.65v-.32a2.63,2.63,0,0,0,.91-.1.37.37,0,0,0,.23-.39,3.89,3.89,0,0,0-.31-.9Zm-.12-.31-1.64-4-1.63,4Z"/><path class="cls-1" d="M221.66,45.76a1.5,1.5,0,0,1,.91.41,1.25,1.25,0,0,1,.4,1,1.28,1.28,0,0,1-.48,1,1.85,1.85,0,0,1-1.17.38,1.72,1.72,0,0,1-1.17-.41,1.29,1.29,0,0,1-.47-1,1.24,1.24,0,0,1,.34-.89,1.61,1.61,0,0,1,.92-.49,1.49,1.49,0,0,1-.78-.47,1.16,1.16,0,0,1-.31-.81,1.17,1.17,0,0,1,.42-.94,1.56,1.56,0,0,1,1-.36,1.67,1.67,0,0,1,1,.35,1.15,1.15,0,0,1,.45.95,1.24,1.24,0,0,1-.29.81A1.59,1.59,0,0,1,221.66,45.76Zm-1.33,1.33a2.24,2.24,0,0,0,.08.7.8.8,0,0,0,.31.42,1,1,0,0,0,.58.17,1.08,1.08,0,0,0,.73-.25,1.31,1.31,0,0,0,.29-1,1.35,1.35,0,0,0-.29-1,1.06,1.06,0,0,0-.75-.27.8.8,0,0,0-.71.33A1.5,1.5,0,0,0,220.33,47.09Zm.13-2.69a1.74,1.74,0,0,0,.21,1,.67.67,0,0,0,.61.32.8.8,0,0,0,.68-.3,1.57,1.57,0,0,0,.22-.9,1.33,1.33,0,0,0-.23-.84.79.79,0,0,0-.65-.28.76.76,0,0,0-.6.26A1.11,1.11,0,0,0,220.46,44.4Z"/><circle class="cls-2" cx="215.47" cy="42.21" r="16"/><path class="cls-1" d="M281.56,42H278l-.24.59a5.86,5.86,0,0,0-.54,1.66.77.77,0,0,0,.29.64,1.18,1.18,0,0,0,.72.21v.32h-2.75v-.32a1.5,1.5,0,0,0,.92-.43,5.32,5.32,0,0,0,.72-1.43c0-.07.13-.33.33-.79L280.18,36h.27l3.1,7.36.42,1a1.21,1.21,0,0,0,.39.52,1.42,1.42,0,0,0,.72.23v.32h-3.64v-.32a2.63,2.63,0,0,0,.91-.1.39.39,0,0,0,.23-.39,3.89,3.89,0,0,0-.31-.9Zm-.12-.31-1.64-4-1.63,4Z"/><path class="cls-1" d="M288,46a1.83,1.83,0,0,1-.51.43,1.15,1.15,0,0,1-.56.15,1.47,1.47,0,0,1-1.1-.48,1.69,1.69,0,0,1-.46-1.2,1.72,1.72,0,0,1,.45-1.18,1.48,1.48,0,0,1,1.14-.5,1.36,1.36,0,0,1,1,.37,2,2,0,0,1,.57.93,4.06,4.06,0,0,1,.16,1.16,3.81,3.81,0,0,1-.54,2.08,1.7,1.7,0,0,1-1.46.84,1.56,1.56,0,0,1-.76-.19q-.33-.19-.33-.42c0-.15.08-.22.23-.22s.24.09.33.26a.64.64,0,0,0,.63.37,1,1,0,0,0,.93-.55,3.51,3.51,0,0,0,.31-1.64A1.62,1.62,0,0,0,288,46Zm0-1a2.72,2.72,0,0,0-.11-.75,1.2,1.2,0,0,0-.35-.59.86.86,0,0,0-.56-.22.8.8,0,0,0-.73.39,2.17,2.17,0,0,0-.25,1.17,2.24,2.24,0,0,0,.1.77.94.94,0,0,0,.33.46.93.93,0,0,0,.55.18,1,1,0,0,0,.71-.3A1.55,1.55,0,0,0,288,44.92Z"/><circle class="cls-2" cx="281.13" cy="42.21" r="16"/><path class="cls-1" d="M347.22,42H343.7l-.24.59a6.06,6.06,0,0,0-.53,1.66.79.79,0,0,0,.28.64,1.21,1.21,0,0,0,.73.21v.32h-2.75v-.32a1.47,1.47,0,0,0,.91-.43,5.26,5.26,0,0,0,.73-1.43c0-.07.13-.33.33-.79L345.85,36h.27l3.09,7.36.43,1a1.28,1.28,0,0,0,.38.52,1.46,1.46,0,0,0,.73.23v.32h-3.64v-.32a2.57,2.57,0,0,0,.9-.1.38.38,0,0,0,.24-.39,4.19,4.19,0,0,0-.32-.9Zm-.11-.31-1.64-4-1.64,4Z"/><path class="cls-1" d="M352.81,43.18H353v4.15c0,.34,0,.55,0,.64a.31.31,0,0,0,.11.21.71.71,0,0,0,.35.07h.15v.18h-1.75v-.18H352a.61.61,0,0,0,.37-.08.32.32,0,0,0,.1-.19c0-.08,0-.29,0-.65V44.55c0-.35,0-.57,0-.64a.32.32,0,0,0-.1-.2.61.61,0,0,0-.37-.08h-.16v-.18A1.68,1.68,0,0,0,352.81,43.18Z"/><path class="cls-1" d="M355,45.87a3.62,3.62,0,0,1,.46-2,1.38,1.38,0,0,1,1.21-.73,1.41,1.41,0,0,1,1.22.74,4.34,4.34,0,0,1,0,3.89,1.36,1.36,0,0,1-2.43,0A3.61,3.61,0,0,1,355,45.87Zm.65,0a4.79,4.79,0,0,0,.27,2.06.85.85,0,0,0,.75.44.81.81,0,0,0,.8-.53,5.72,5.72,0,0,0,.23-2,4.76,4.76,0,0,0-.27-2.06.85.85,0,0,0-.76-.44.84.84,0,0,0-.75.43A4.82,4.82,0,0,0,355.65,45.87Z"/><circle class="cls-2" cx="346.8" cy="42.21" r="16"/><line class="cls-3" x1="39.63" y1="37.68" x2="62.46" y2="37.68"/><polyline class="cls-4" points="60.17 35 62.97 37.8 60.1 40.67"/><line class="cls-3" x1="62.97" y1="45.44" x2="40.13" y2="45.44"/><polyline class="cls-4" points="42.42 42.76 39.63 45.56 42.49 48.42"/><line class="cls-3" x1="105.29" y1="37.68" x2="128.13" y2="37.68"/><polyline class="cls-4" points="125.84 35 128.64 37.8 125.77 40.67"/><line class="cls-3" x1="128.64" y1="45.44" x2="105.8" y2="45.44"/><polyline class="cls-4" points="108.09 42.76 105.29 45.56 108.16 48.42"/><line class="cls-3" x1="170.96" y1="37.68" x2="193.8" y2="37.68"/><polyline class="cls-4" points="191.51 35 194.3 37.8 191.44 40.67"/><line class="cls-3" x1="194.3" y1="45.44" x2="171.47" y2="45.44"/><polyline class="cls-4" points="173.76 42.76 170.96 45.56 173.83 48.42"/><line class="cls-3" x1="236.63" y1="37.68" x2="259.46" y2="37.68"/><polyline class="cls-4" points="257.18 35 259.97 37.8 257.1 40.67"/><line class="cls-3" x1="259.97" y1="45.44" x2="237.13" y2="45.44"/><polyline class="cls-4" points="239.42 42.76 236.63 45.56 239.5 48.42"/><line class="cls-3" x1="302.3" y1="37.68" x2="325.13" y2="37.68"/><polyline class="cls-4" points="322.84 35 325.64 37.8 322.77 40.67"/><line class="cls-3" x1="325.64" y1="45.44" x2="302.8" y2="45.44"/><polyline class="cls-4" points="305.09 42.76 302.3 45.56 305.17 48.42"/><path class="cls-1" d="M17.72,105.26a3.93,3.93,0,0,1,2.34.78,2.15,2.15,0,0,1,.77,1.68,2.36,2.36,0,0,1-.52,1.51,2.41,2.41,0,0,1-1.33.82,9.63,9.63,0,0,1-2.17.2H13.17v-.32h.36a1.6,1.6,0,0,0,.82-.15.68.68,0,0,0,.29-.47,10.65,10.65,0,0,0,.06-1.48v-4.51a10.51,10.51,0,0,0-.06-1.45.65.65,0,0,0-.28-.45,2,2,0,0,0-.91-.13h-.18V101l1.53,0,1.73-.06q3.81,0,3.81,2.19a1.8,1.8,0,0,1-.66,1.45A4,4,0,0,1,17.72,105.26ZM16,105.13h.29a3.22,3.22,0,0,0,2-.46,1.88,1.88,0,0,0,.54-1.5,2.34,2.34,0,0,0-.22-1.13,1.49,1.49,0,0,0-.63-.61,3.56,3.56,0,0,0-1.45-.21,5.15,5.15,0,0,0-.55,0Zm0,.33v2.07c0,.88,0,1.43.05,1.67a.82.82,0,0,0,.26.54,1.31,1.31,0,0,0,.82.19,2.2,2.2,0,0,0,1.64-.56,2.32,2.32,0,0,0,.55-1.69,2.15,2.15,0,0,0-.62-1.69,3.35,3.35,0,0,0-2.18-.54Z"/><path class="cls-1" d="M22.5,110.56h-.2l.11-2.43h2a1.67,1.67,0,0,1-.24.46.45.45,0,0,1-.27.06H22.56l-.06,1.62a1.19,1.19,0,0,1,1-.51,1.36,1.36,0,0,1,1,.49,1.76,1.76,0,0,1,.43,1.21,2,2,0,0,1-.48,1.38,1.76,1.76,0,0,1-1.37.54,1.46,1.46,0,0,1-.95-.29.76.76,0,0,1-.33-.51.28.28,0,0,1,.06-.18.25.25,0,0,1,.19-.07.21.21,0,0,1,.19.08.94.94,0,0,1,.16.31.68.68,0,0,0,.7.48,1.06,1.06,0,0,0,.84-.4,2,2,0,0,0,.34-1.31,1.85,1.85,0,0,0-.28-1.16.83.83,0,0,0-.66-.34A1,1,0,0,0,22.5,110.56Z"/><circle class="cls-2" cx="18.46" cy="107.04" r="16"/><path class="cls-1" d="M83.39,105.26a3.93,3.93,0,0,1,2.34.78,2.15,2.15,0,0,1,.77,1.68,2.36,2.36,0,0,1-.52,1.51,2.41,2.41,0,0,1-1.33.82,9.63,9.63,0,0,1-2.17.2H78.84v-.32h.35a1.62,1.62,0,0,0,.83-.15.68.68,0,0,0,.29-.47,10.65,10.65,0,0,0,.06-1.48v-4.51a10.51,10.51,0,0,0-.06-1.45.65.65,0,0,0-.28-.45,2,2,0,0,0-.91-.13h-.18V101l1.53,0,1.73-.06c2.54,0,3.8.73,3.8,2.19a1.79,1.79,0,0,1-.65,1.45A4,4,0,0,1,83.39,105.26Zm-1.68-.13H82a3.18,3.18,0,0,0,2-.46,1.88,1.88,0,0,0,.54-1.5,2.47,2.47,0,0,0-.21-1.13,1.49,1.49,0,0,0-.63-.61,3.59,3.59,0,0,0-1.45-.21,5.15,5.15,0,0,0-.55,0Zm0,.33v2.07c0,.88,0,1.43.05,1.67a.86.86,0,0,0,.25.54,1.34,1.34,0,0,0,.83.19,2.22,2.22,0,0,0,1.64-.56,2.37,2.37,0,0,0,.55-1.69,2.15,2.15,0,0,0-.62-1.69,3.37,3.37,0,0,0-2.18-.54Z"/><path class="cls-1" d="M88.18,110.6a1.67,1.67,0,0,1,.51-.43,1.09,1.09,0,0,1,.56-.15,1.47,1.47,0,0,1,1.09.48,1.61,1.61,0,0,1,.46,1.19,1.74,1.74,0,0,1-.44,1.18,1.52,1.52,0,0,1-2.13.14,1.93,1.93,0,0,1-.56-.93,4.07,4.07,0,0,1-.17-1.16,3.77,3.77,0,0,1,.55-2.08,1.66,1.66,0,0,1,1.46-.84,1.48,1.48,0,0,1,.76.19c.21.12.32.26.32.42a.2.2,0,0,1-.22.22.34.34,0,0,1-.3-.22.88.88,0,0,0-.26-.32.76.76,0,0,0-.41-.09,1,1,0,0,0-.92.54,3.43,3.43,0,0,0-.31,1.65A1.62,1.62,0,0,0,88.18,110.6Zm0,1a2.78,2.78,0,0,0,.11.75,1.18,1.18,0,0,0,.36.59.83.83,0,0,0,.56.21.82.82,0,0,0,.73-.39,2.27,2.27,0,0,0,.24-1.17,2.54,2.54,0,0,0-.09-.76.92.92,0,0,0-.34-.46.83.83,0,0,0-.54-.19,1,1,0,0,0-.72.31A1.57,1.57,0,0,0,88.15,111.64Z"/><circle class="cls-2" cx="84.13" cy="107.04" r="16"/><path class="cls-1" d="M149.05,105.26a4,4,0,0,1,2.35.78,2.14,2.14,0,0,1,.76,1.68,2.31,2.31,0,0,1-.52,1.51,2.38,2.38,0,0,1-1.33.82,9.57,9.57,0,0,1-2.17.2h-3.63v-.32h.35a1.65,1.65,0,0,0,.83-.15.71.71,0,0,0,.29-.47,10.65,10.65,0,0,0,.06-1.48v-4.51a8.63,8.63,0,0,0-.07-1.45.61.61,0,0,0-.27-.45,2,2,0,0,0-.91-.13h-.18V101l1.52,0,1.74-.06c2.53,0,3.8.73,3.8,2.19a1.82,1.82,0,0,1-.65,1.45A4,4,0,0,1,149.05,105.26Zm-1.67-.13h.28a3.2,3.2,0,0,0,2-.46,1.88,1.88,0,0,0,.54-1.5A2.47,2.47,0,0,0,150,102a1.46,1.46,0,0,0-.64-.61,3.52,3.52,0,0,0-1.45-.21,5,5,0,0,0-.54,0Zm0,.33v2.07a14.45,14.45,0,0,0,.05,1.67.81.81,0,0,0,.25.54,1.34,1.34,0,0,0,.83.19,2.23,2.23,0,0,0,1.64-.56,2.37,2.37,0,0,0,.54-1.69,2.11,2.11,0,0,0-.62-1.69,3.32,3.32,0,0,0-2.17-.54Z"/><path class="cls-1" d="M153.39,109.08l.32-1.08h.14s0,.09.07.1a.84.84,0,0,0,.3,0h2l-1.41,4.27a3.08,3.08,0,0,1-.35.84.34.34,0,0,1-.24.14c-.16,0-.23-.08-.23-.25a2.1,2.1,0,0,1,.21-.61,1.38,1.38,0,0,0,.1-.22l1.58-3.65h-2.07a.22.22,0,0,0-.13.09,1,1,0,0,0-.15.33Z"/><circle class="cls-2" cx="149.8" cy="107.04" r="16"/><path class="cls-1" d="M214.72,105.26a3.93,3.93,0,0,1,2.34.78,2.15,2.15,0,0,1,.77,1.68,2.31,2.31,0,0,1-.52,1.51,2.41,2.41,0,0,1-1.33.82,9.57,9.57,0,0,1-2.17.2h-3.64v-.32h.36a1.58,1.58,0,0,0,.82-.15.65.65,0,0,0,.29-.47,10.05,10.05,0,0,0,.07-1.48v-4.51a9.94,9.94,0,0,0-.07-1.45.61.61,0,0,0-.27-.45,2,2,0,0,0-.92-.13h-.17V101l1.52,0,1.74-.06c2.53,0,3.8.73,3.8,2.19a1.8,1.8,0,0,1-.66,1.45A3.93,3.93,0,0,1,214.72,105.26Zm-1.67-.13h.28a3.2,3.2,0,0,0,2-.46,1.88,1.88,0,0,0,.54-1.5,2.47,2.47,0,0,0-.21-1.13,1.51,1.51,0,0,0-.64-.61,3.52,3.52,0,0,0-1.45-.21,4.87,4.87,0,0,0-.54,0Zm0,.33v2.07c0,.88,0,1.43,0,1.67a.82.82,0,0,0,.26.54,1.31,1.31,0,0,0,.82.19,2.2,2.2,0,0,0,1.64-.56,2.32,2.32,0,0,0,.55-1.69,2.15,2.15,0,0,0-.62-1.69,3.35,3.35,0,0,0-2.18-.54Z"/><path class="cls-1" d="M220.79,110.58a1.5,1.5,0,0,1,.91.42,1.24,1.24,0,0,1,.39,1,1.28,1.28,0,0,1-.48,1,1.85,1.85,0,0,1-1.17.38,1.76,1.76,0,0,1-1.17-.41,1.33,1.33,0,0,1-.13-1.9,1.61,1.61,0,0,1,.93-.49,1.49,1.49,0,0,1-.79-.47,1.2,1.2,0,0,1-.3-.81,1.18,1.18,0,0,1,.41-.94,1.56,1.56,0,0,1,1.05-.36,1.65,1.65,0,0,1,1,.35,1.15,1.15,0,0,1,.45,1,1.23,1.23,0,0,1-.28.81A1.63,1.63,0,0,1,220.79,110.58Zm-1.34,1.33a2.54,2.54,0,0,0,.08.7.82.82,0,0,0,.32.42,1,1,0,0,0,.58.17,1,1,0,0,0,.72-.25,1.31,1.31,0,0,0,.29-1,1.35,1.35,0,0,0-.29-1,1,1,0,0,0-.74-.27.83.83,0,0,0-.72.33A1.5,1.5,0,0,0,219.45,111.91Zm.14-2.69a1.91,1.91,0,0,0,.2,1,.7.7,0,0,0,.62.31.78.78,0,0,0,.67-.3,1.49,1.49,0,0,0,.22-.9,1.28,1.28,0,0,0-.23-.84.77.77,0,0,0-.64-.28.79.79,0,0,0-.6.26A1.13,1.13,0,0,0,219.59,109.22Z"/><circle class="cls-2" cx="215.47" cy="107.04" r="16"/><path class="cls-1" d="M280.39,105.26a3.93,3.93,0,0,1,2.34.78,2.15,2.15,0,0,1,.77,1.68,2.36,2.36,0,0,1-.52,1.51,2.41,2.41,0,0,1-1.33.82,9.57,9.57,0,0,1-2.17.2h-3.64v-.32h.36a1.6,1.6,0,0,0,.82-.15.68.68,0,0,0,.29-.47,10.65,10.65,0,0,0,.06-1.48v-4.51a10.51,10.51,0,0,0-.06-1.45.65.65,0,0,0-.28-.45,2,2,0,0,0-.91-.13h-.18V101l1.53,0,1.73-.06q3.81,0,3.81,2.19a1.8,1.8,0,0,1-.66,1.45A4,4,0,0,1,280.39,105.26Zm-1.68-.13H279a3.22,3.22,0,0,0,2-.46,1.88,1.88,0,0,0,.54-1.5,2.34,2.34,0,0,0-.22-1.13,1.49,1.49,0,0,0-.63-.61,3.56,3.56,0,0,0-1.45-.21,5.15,5.15,0,0,0-.55,0Zm0,.33v2.07c0,.88,0,1.43.05,1.67a.82.82,0,0,0,.26.54,1.31,1.31,0,0,0,.82.19,2.2,2.2,0,0,0,1.64-.56,2.32,2.32,0,0,0,.55-1.69,2.15,2.15,0,0,0-.62-1.69,3.35,3.35,0,0,0-2.18-.54Z"/><path class="cls-1" d="M287.08,110.78a1.53,1.53,0,0,1-.5.43,1.16,1.16,0,0,1-.57.15,1.45,1.45,0,0,1-1.09-.48,1.64,1.64,0,0,1-.46-1.19,1.77,1.77,0,0,1,.44-1.19A1.48,1.48,0,0,1,286,108a1.4,1.4,0,0,1,1,.37,1.93,1.93,0,0,1,.56.93,4.07,4.07,0,0,1,.17,1.16,3.79,3.79,0,0,1-.55,2.08,1.66,1.66,0,0,1-1.46.84,1.59,1.59,0,0,1-.76-.19c-.21-.13-.32-.27-.32-.42a.19.19,0,0,1,.22-.22c.13,0,.24.09.33.26a.66.66,0,0,0,.64.37,1,1,0,0,0,.92-.55,3.36,3.36,0,0,0,.31-1.64A1.62,1.62,0,0,0,287.08,110.78Zm0-1a2.76,2.76,0,0,0-.1-.75,1.14,1.14,0,0,0-.36-.59.83.83,0,0,0-.56-.21.81.81,0,0,0-.73.38,2.27,2.27,0,0,0-.24,1.17,2.57,2.57,0,0,0,.09.77,1,1,0,0,0,.34.46.88.88,0,0,0,.54.18,1,1,0,0,0,.72-.3A1.6,1.6,0,0,0,287.1,109.74Z"/><circle class="cls-2" cx="281.13" cy="107.04" r="16"/><path class="cls-1" d="M346.06,105.26a3.93,3.93,0,0,1,2.34.78,2.15,2.15,0,0,1,.77,1.68,2.36,2.36,0,0,1-.52,1.51,2.41,2.41,0,0,1-1.33.82,9.63,9.63,0,0,1-2.17.2h-3.64v-.32h.35a1.62,1.62,0,0,0,.83-.15.68.68,0,0,0,.29-.47,10.65,10.65,0,0,0,.06-1.48v-4.51a8.63,8.63,0,0,0-.07-1.45.61.61,0,0,0-.27-.45,2,2,0,0,0-.91-.13h-.18V101l1.53,0,1.73-.06c2.54,0,3.8.73,3.8,2.19a1.79,1.79,0,0,1-.65,1.45A4,4,0,0,1,346.06,105.26Zm-1.68-.13h.29a3.18,3.18,0,0,0,2-.46,1.88,1.88,0,0,0,.54-1.5A2.47,2.47,0,0,0,347,102a1.49,1.49,0,0,0-.63-.61,3.59,3.59,0,0,0-1.45-.21,5.15,5.15,0,0,0-.55,0Zm0,.33v2.07c0,.88,0,1.43.05,1.67a.86.86,0,0,0,.25.54,1.34,1.34,0,0,0,.83.19,2.22,2.22,0,0,0,1.64-.56,2.37,2.37,0,0,0,.55-1.69,2.15,2.15,0,0,0-.62-1.69,3.37,3.37,0,0,0-2.18-.54Z"/><path class="cls-1" d="M351.93,108h.17v4.15c0,.34,0,.56,0,.64a.27.27,0,0,0,.11.21.68.68,0,0,0,.35.07h.15v.18H351v-.18h.13a.61.61,0,0,0,.37-.08.37.37,0,0,0,.09-.19c0-.08,0-.29,0-.65v-2.78c0-.35,0-.57,0-.64a.33.33,0,0,0-.09-.2.63.63,0,0,0-.37-.08h-.17v-.18A1.66,1.66,0,0,0,351.93,108Z"/><path class="cls-1" d="M354.12,110.69a3.62,3.62,0,0,1,.47-2,1.36,1.36,0,0,1,2.42,0,3.61,3.61,0,0,1,.46,2,3.66,3.66,0,0,1-.46,2,1.36,1.36,0,0,1-2.42,0A3.61,3.61,0,0,1,354.12,110.69Zm.65,0a4.79,4.79,0,0,0,.27,2.06.86.86,0,0,0,.76.44.82.82,0,0,0,.8-.53,5.79,5.79,0,0,0,.22-2,4.76,4.76,0,0,0-.27-2.06.83.83,0,0,0-.75-.44.84.84,0,0,0-.75.43A4.61,4.61,0,0,0,354.77,110.69Z"/><circle class="cls-2" cx="346.8" cy="107.04" r="16"/><line class="cls-3" x1="302.3" y1="102.5" x2="325.13" y2="102.5"/><polyline class="cls-4" points="322.84 99.82 325.64 102.62 322.77 105.49"/><line class="cls-3" x1="325.64" y1="110.26" x2="302.8" y2="110.26"/><polyline class="cls-4" points="305.09 107.58 302.3 110.38 305.17 113.25"/><line class="cls-3" x1="236.63" y1="102.5" x2="259.46" y2="102.5"/><polyline class="cls-4" points="257.18 99.82 259.97 102.62 257.1 105.49"/><line class="cls-3" x1="259.97" y1="110.26" x2="237.13" y2="110.26"/><polyline class="cls-4" points="239.42 107.58 236.63 110.38 239.5 113.25"/><line class="cls-3" x1="170.96" y1="102.5" x2="193.8" y2="102.5"/><polyline class="cls-4" points="191.51 99.82 194.3 102.62 191.44 105.49"/><line class="cls-3" x1="194.3" y1="110.26" x2="171.47" y2="110.26"/><polyline class="cls-4" points="173.76 107.58 170.96 110.38 173.83 113.25"/><line class="cls-3" x1="105.29" y1="102.5" x2="128.13" y2="102.5"/><polyline class="cls-4" points="125.84 99.82 128.64 102.62 125.77 105.49"/><line class="cls-3" x1="128.64" y1="110.26" x2="105.8" y2="110.26"/><polyline class="cls-4" points="108.09 107.58 105.29 110.38 108.16 113.25"/><line class="cls-3" x1="39.63" y1="102.5" x2="62.46" y2="102.5"/><polyline class="cls-4" points="60.17 99.82 62.97 102.62 60.1 105.49"/><line class="cls-3" x1="62.97" y1="110.26" x2="40.13" y2="110.26"/><polyline class="cls-4" points="42.42 107.58 39.63 110.38 42.49 113.25"/><path class="cls-1" d="M20.83,172.49h.33l-.2,2.89H13.29v-.32h.19a1.45,1.45,0,0,0,.89-.18.81.81,0,0,0,.26-.47,12.67,12.67,0,0,0,0-1.45v-4.54a10.12,10.12,0,0,0-.06-1.4.59.59,0,0,0-.26-.46,1.84,1.84,0,0,0-.88-.14v-.31H20.1l.22,2.31H20a3.54,3.54,0,0,0-.54-1.38,1.34,1.34,0,0,0-.75-.51,6.6,6.6,0,0,0-1.41-.11H16v3.89h1a2.93,2.93,0,0,0,.95-.11.62.62,0,0,0,.35-.36,3,3,0,0,0,.09-.92h.32v3.18h-.32a2.87,2.87,0,0,0-.13-1,.66.66,0,0,0-.38-.34,3.29,3.29,0,0,0-.85-.08H16v2.19a4.78,4.78,0,0,0,.21,1.94c.14.2.52.29,1.14.29h.69a3.14,3.14,0,0,0,1.2-.19,2,2,0,0,0,.9-.77A4.31,4.31,0,0,0,20.83,172.49Z"/><path class="cls-1" d="M22.64,175.69h-.2l.12-2.43h2a1.89,1.89,0,0,1-.25.46.43.43,0,0,1-.26.06H22.71l-.07,1.62a1.2,1.2,0,0,1,1-.51,1.34,1.34,0,0,1,1,.49,1.77,1.77,0,0,1,.44,1.21A2,2,0,0,1,24.6,178a1.75,1.75,0,0,1-1.36.54,1.44,1.44,0,0,1-.95-.29c-.23-.19-.34-.36-.34-.51a.24.24,0,0,1,.07-.18.21.21,0,0,1,.18-.07.23.23,0,0,1,.2.08,1.26,1.26,0,0,1,.15.31.68.68,0,0,0,.7.48,1.06,1.06,0,0,0,.85-.4,2.06,2.06,0,0,0,.34-1.31,1.91,1.91,0,0,0-.28-1.16.84.84,0,0,0-.67-.34A1,1,0,0,0,22.64,175.69Z"/><circle class="cls-2" cx="18.46" cy="172.16" r="16"/><path class="cls-1" d="M86.5,172.49h.33l-.2,2.89H79v-.32h.19a1.47,1.47,0,0,0,.89-.18.87.87,0,0,0,.26-.47,12.67,12.67,0,0,0,0-1.45v-4.54a10.12,10.12,0,0,0-.06-1.4.63.63,0,0,0-.27-.46,1.79,1.79,0,0,0-.87-.14v-.31h6.62l.22,2.31h-.32a3.7,3.7,0,0,0-.54-1.38,1.34,1.34,0,0,0-.75-.51,6.73,6.73,0,0,0-1.41-.11H81.68v3.89h1a2.85,2.85,0,0,0,.94-.11.64.64,0,0,0,.36-.36,3,3,0,0,0,.09-.92h.32v3.18h-.32a2.87,2.87,0,0,0-.13-1,.66.66,0,0,0-.38-.34,3.29,3.29,0,0,0-.85-.08h-1v2.19a4.78,4.78,0,0,0,.21,1.94c.15.2.53.29,1.15.29h.69a3.18,3.18,0,0,0,1.2-.19,2.16,2.16,0,0,0,.9-.77A4.48,4.48,0,0,0,86.5,172.49Z"/><path class="cls-1" d="M88.32,175.73a1.67,1.67,0,0,1,.51-.43,1.12,1.12,0,0,1,.56-.15,1.45,1.45,0,0,1,1.09.48,1.61,1.61,0,0,1,.46,1.19A1.7,1.7,0,0,1,90.5,178a1.52,1.52,0,0,1-2.13.14,2.1,2.1,0,0,1-.56-.93,4.06,4.06,0,0,1-.16-1.16,3.76,3.76,0,0,1,.54-2.08,1.68,1.68,0,0,1,1.46-.84,1.45,1.45,0,0,1,.76.19q.33.18.33.42a.2.2,0,0,1-.22.22.36.36,0,0,1-.31-.22.87.87,0,0,0-.25-.32.78.78,0,0,0-.41-.09,1,1,0,0,0-.93.54,3.43,3.43,0,0,0-.31,1.65A1.62,1.62,0,0,0,88.32,175.73Zm0,1a2.76,2.76,0,0,0,.1.75,1.18,1.18,0,0,0,.36.59.85.85,0,0,0,.56.21.81.81,0,0,0,.73-.39,2.27,2.27,0,0,0,.24-1.17,2.54,2.54,0,0,0-.09-.76.86.86,0,0,0-.34-.46.83.83,0,0,0-.54-.19,1,1,0,0,0-.72.31A1.57,1.57,0,0,0,88.3,176.77Z"/><circle class="cls-2" cx="84.13" cy="172.16" r="16"/><path class="cls-1" d="M152.17,172.49h.33l-.2,2.89h-7.68v-.32h.19a1.51,1.51,0,0,0,.9-.18.8.8,0,0,0,.25-.47A9.92,9.92,0,0,0,146,173v-4.54A10.12,10.12,0,0,0,146,167a.63.63,0,0,0-.27-.46,1.84,1.84,0,0,0-.88-.14v-.31h6.63l.22,2.31h-.32a3.7,3.7,0,0,0-.54-1.38,1.33,1.33,0,0,0-.76-.51,6.55,6.55,0,0,0-1.4-.11h-1.29v3.89h1a2.88,2.88,0,0,0,.95-.11.64.64,0,0,0,.36-.36,3.5,3.5,0,0,0,.08-.92H150v3.18h-.32a2.66,2.66,0,0,0-.13-1,.61.61,0,0,0-.38-.34,3.15,3.15,0,0,0-.84-.08h-1v2.19a4.78,4.78,0,0,0,.21,1.94c.14.2.52.29,1.14.29h.69a3.23,3.23,0,0,0,1.21-.19,2.16,2.16,0,0,0,.9-.77A4.48,4.48,0,0,0,152.17,172.49Z"/><path class="cls-1" d="M153.53,174.21l.33-1.08H154c0,.05,0,.09.07.1a.91.91,0,0,0,.31,0h2l-1.4,4.27a3.46,3.46,0,0,1-.35.84.34.34,0,0,1-.25.14c-.15,0-.23-.08-.23-.25a1.94,1.94,0,0,1,.22-.61,1.28,1.28,0,0,0,.09-.22l1.58-3.65H154a.22.22,0,0,0-.13.09,1.09,1.09,0,0,0-.14.33Z"/><circle class="cls-2" cx="149.8" cy="172.16" r="16"/><path class="cls-1" d="M217.84,172.49h.33l-.2,2.89h-7.68v-.32h.19a1.45,1.45,0,0,0,.89-.18.81.81,0,0,0,.26-.47,10.57,10.57,0,0,0,.05-1.45v-4.54a10.72,10.72,0,0,0-.05-1.4.63.63,0,0,0-.27-.46,1.84,1.84,0,0,0-.88-.14v-.31h6.63l.21,2.31H217a3.55,3.55,0,0,0-.53-1.38,1.4,1.4,0,0,0-.76-.51,6.6,6.6,0,0,0-1.41-.11H213v3.89h1a2.93,2.93,0,0,0,.95-.11.59.59,0,0,0,.35-.36,3,3,0,0,0,.09-.92h.32v3.18h-.32a2.66,2.66,0,0,0-.13-1,.63.63,0,0,0-.38-.34,3.25,3.25,0,0,0-.84-.08h-1v2.19a4.78,4.78,0,0,0,.21,1.94c.14.2.52.29,1.14.29h.69a3.23,3.23,0,0,0,1.21-.19,2.09,2.09,0,0,0,.89-.77A4.48,4.48,0,0,0,217.84,172.49Z"/><path class="cls-1" d="M220.93,175.71a1.45,1.45,0,0,1,.91.42,1.24,1.24,0,0,1,.4,1,1.28,1.28,0,0,1-.48,1,1.85,1.85,0,0,1-1.17.38,1.72,1.72,0,0,1-1.17-.41,1.25,1.25,0,0,1-.47-1,1.27,1.27,0,0,1,.33-.89,1.68,1.68,0,0,1,.93-.49,1.43,1.43,0,0,1-.78-.47,1.16,1.16,0,0,1-.31-.81,1.19,1.19,0,0,1,.42-.94,1.56,1.56,0,0,1,1.05-.36,1.69,1.69,0,0,1,1,.35,1.15,1.15,0,0,1,.45,1,1.24,1.24,0,0,1-.29.81A1.59,1.59,0,0,1,220.93,175.71ZM219.6,177a2.2,2.2,0,0,0,.08.7.8.8,0,0,0,.31.42,1,1,0,0,0,.58.17,1.08,1.08,0,0,0,.73-.25,1.32,1.32,0,0,0,.28-1,1.36,1.36,0,0,0-.28-1,1.08,1.08,0,0,0-.75-.27.83.83,0,0,0-.72.33A1.58,1.58,0,0,0,219.6,177Zm.13-2.69a1.8,1.8,0,0,0,.21,1,.67.67,0,0,0,.61.31.77.77,0,0,0,.67-.3,1.49,1.49,0,0,0,.23-.9,1.33,1.33,0,0,0-.23-.84.86.86,0,0,0-1.25,0A1.13,1.13,0,0,0,219.73,174.35Z"/><circle class="cls-2" cx="215.47" cy="172.16" r="16"/><path class="cls-1" d="M283.5,172.49h.33l-.2,2.89H276v-.32h.19a1.45,1.45,0,0,0,.89-.18.81.81,0,0,0,.26-.47,12.67,12.67,0,0,0,.05-1.45v-4.54a10.12,10.12,0,0,0-.06-1.4.59.59,0,0,0-.26-.46,1.84,1.84,0,0,0-.88-.14v-.31h6.62l.22,2.31h-.32a3.54,3.54,0,0,0-.54-1.38,1.34,1.34,0,0,0-.75-.51,6.6,6.6,0,0,0-1.41-.11h-1.29v3.89h1a2.93,2.93,0,0,0,.95-.11.62.62,0,0,0,.35-.36,3,3,0,0,0,.09-.92h.32v3.18h-.32a2.87,2.87,0,0,0-.13-1,.66.66,0,0,0-.38-.34,3.29,3.29,0,0,0-.85-.08h-1v2.19a4.7,4.7,0,0,0,.22,1.94c.14.2.52.29,1.14.29h.69a3.14,3.14,0,0,0,1.2-.19,2,2,0,0,0,.9-.77A4.31,4.31,0,0,0,283.5,172.49Z"/><path class="cls-1" d="M287.23,175.91a1.67,1.67,0,0,1-.51.43,1.16,1.16,0,0,1-.57.15,1.47,1.47,0,0,1-1.09-.48,1.69,1.69,0,0,1-.46-1.2,1.72,1.72,0,0,1,.45-1.18,1.46,1.46,0,0,1,1.13-.5,1.37,1.37,0,0,1,1,.37,2,2,0,0,1,.57.93,4.06,4.06,0,0,1,.16,1.16,3.71,3.71,0,0,1-.55,2.08,1.65,1.65,0,0,1-1.45.84,1.56,1.56,0,0,1-.76-.19q-.33-.19-.33-.42c0-.15.08-.22.23-.22s.23.09.32.26a.66.66,0,0,0,.64.37,1,1,0,0,0,.93-.55,3.48,3.48,0,0,0,.31-1.64C287.24,176.06,287.23,176,287.23,175.91Zm0-1a2.78,2.78,0,0,0-.11-.75,1.2,1.2,0,0,0-.35-.59.88.88,0,0,0-.56-.22.8.8,0,0,0-.73.39,2.17,2.17,0,0,0-.25,1.17,2.24,2.24,0,0,0,.1.77.94.94,0,0,0,.33.46.93.93,0,0,0,.55.18,1,1,0,0,0,.71-.3A1.55,1.55,0,0,0,287.25,174.87Z"/><circle class="cls-2" cx="281.13" cy="172.16" r="16"/><path class="cls-1" d="M349.17,172.49h.33l-.2,2.89h-7.67v-.32h.19a1.47,1.47,0,0,0,.89-.18.87.87,0,0,0,.26-.47,12.67,12.67,0,0,0,0-1.45v-4.54A10.12,10.12,0,0,0,343,167a.63.63,0,0,0-.27-.46,1.79,1.79,0,0,0-.87-.14v-.31h6.62l.22,2.31h-.32a3.7,3.7,0,0,0-.54-1.38,1.34,1.34,0,0,0-.75-.51,6.73,6.73,0,0,0-1.41-.11h-1.29v3.89h1a2.85,2.85,0,0,0,.94-.11.64.64,0,0,0,.36-.36,3.1,3.1,0,0,0,.08-.92h.33v3.18h-.33a2.94,2.94,0,0,0-.12-1,.66.66,0,0,0-.38-.34,3.29,3.29,0,0,0-.85-.08h-1v2.19a4.78,4.78,0,0,0,.21,1.94c.15.2.53.29,1.15.29h.69a3.18,3.18,0,0,0,1.2-.19,2.16,2.16,0,0,0,.9-.77A4.48,4.48,0,0,0,349.17,172.49Z"/><path class="cls-1" d="M352.08,173.13h.17v4.15c0,.34,0,.56,0,.64a.31.31,0,0,0,.11.21.71.71,0,0,0,.35.07h.15v.18h-1.76v-.18h.13a.61.61,0,0,0,.37-.08.39.39,0,0,0,.1-.19c0-.08,0-.29,0-.65V174.5c0-.35,0-.57,0-.64a.35.35,0,0,0-.1-.2.61.61,0,0,0-.37-.08h-.16v-.18A1.68,1.68,0,0,0,352.08,173.13Z"/><path class="cls-1" d="M354.27,175.82a3.62,3.62,0,0,1,.46-2,1.37,1.37,0,0,1,2.43,0,3.7,3.7,0,0,1,.46,1.95,3.75,3.75,0,0,1-.46,2,1.41,1.41,0,0,1-1.22.74,1.39,1.39,0,0,1-1.21-.74A3.61,3.61,0,0,1,354.27,175.82Zm.65,0a4.79,4.79,0,0,0,.27,2.06.85.85,0,0,0,.75.44.81.81,0,0,0,.8-.53,5.72,5.72,0,0,0,.23-2,4.56,4.56,0,0,0-.28-2.06.83.83,0,0,0-.75-.44.84.84,0,0,0-.75.43A4.82,4.82,0,0,0,354.92,175.82Z"/><circle class="cls-2" cx="346.8" cy="172.16" r="16"/><line class="cls-3" x1="302.3" y1="166.63" x2="325.13" y2="166.63"/><polyline class="cls-4" points="322.84 163.95 325.64 166.75 322.77 169.62"/><line class="cls-3" x1="325.64" y1="175.39" x2="302.8" y2="175.39"/><polyline class="cls-4" points="305.09 172.71 302.3 175.51 305.17 178.38"/><polyline class="cls-5" points="344.01 203.74 346.8 206.53 349.67 203.67"/><line class="cls-3" x1="236.63" y1="166.63" x2="259.46" y2="166.63"/><polyline class="cls-4" points="257.18 163.95 259.97 166.75 257.1 169.62"/><line class="cls-3" x1="259.97" y1="175.39" x2="237.13" y2="175.39"/><polyline class="cls-4" points="239.42 172.71 236.63 175.51 239.5 178.38"/><line class="cls-3" x1="170.96" y1="166.63" x2="193.8" y2="166.63"/><polyline class="cls-4" points="191.51 163.95 194.3 166.75 191.44 169.62"/><line class="cls-3" x1="194.3" y1="175.39" x2="171.47" y2="175.39"/><polyline class="cls-4" points="173.76 172.71 170.96 175.51 173.83 178.38"/><line class="cls-3" x1="105.29" y1="166.63" x2="128.13" y2="166.63"/><polyline class="cls-4" points="125.84 163.95 128.64 166.75 125.77 169.62"/><line class="cls-3" x1="128.64" y1="175.39" x2="105.8" y2="175.39"/><polyline class="cls-4" points="108.09 172.71 105.29 175.51 108.16 178.38"/><line class="cls-3" x1="39.63" y1="166.63" x2="62.46" y2="166.63"/><polyline class="cls-4" points="60.17 163.95 62.97 166.75 60.1 169.62"/><line class="cls-3" x1="62.97" y1="175.39" x2="40.13" y2="175.39"/><polyline class="cls-4" points="42.42 172.71 39.63 175.51 42.49 178.38"/><polyline class="cls-6" points="18.99 3.76 18.99 41.67 84.13 41.67 84.13 106.49 215.47 106.49 215.47 171.05 346.8 171.05 346.8 206.53"/></g></svg>