<svg xmlns="http://www.w3.org/2000/svg" viewBox="0 0 488.32 307.65"><defs><style>.cls-1,.cls-10,.cls-2,.cls-5,.cls-6,.cls-7,.cls-8,.cls-9{fill:none;}.cls-1,.cls-10,.cls-2,.cls-5,.cls-6,.cls-7,.cls-8{stroke:#010101;}.cls-1,.cls-10,.cls-2,.cls-5,.cls-7{stroke-miterlimit:10;}.cls-1,.cls-2{stroke-width:2px;}.cls-10,.cls-2,.cls-5,.cls-6,.cls-7,.cls-8{stroke-linecap:round;}.cls-3{fill:#fff;stroke-width:0.44px;}.cls-3,.cls-9{stroke:#1d1d1b;}.cls-3,.cls-6,.cls-8,.cls-9{stroke-linejoin:round;}.cls-4{fill:#1d1d1b;}.cls-5,.cls-6{stroke-width:0.78px;}.cls-10,.cls-7,.cls-8{stroke-width:0.75px;}.cls-9{stroke-width:0.2px;}.cls-10{stroke-dasharray:2 2;}</style></defs><g id="Layer_1" data-name="Layer 1"><line class="cls-1" x1="238.28" y1="159.91" x2="238.28" y2="113.24"/><line class="cls-1" x1="403.66" y1="159.91" x2="403.66" y2="113.24"/><line class="cls-2" x1="263.71" y1="238.78" x2="283.37" y2="189.58"/><line class="cls-2" x1="322.51" y1="238.78" x2="302.85" y2="189.58"/><line class="cls-2" x1="49.74" y1="159.04" x2="68.97" y2="110.94"/><line class="cls-1" x1="183.91" y1="231.87" x2="183.91" y2="192.1"/><line class="cls-1" x1="130.05" y1="159.91" x2="130.05" y2="113.24"/><line class="cls-1" x1="187.99" y1="81.23" x2="187.99" y2="34.44"/><line class="cls-2" x1="339.03" y1="88.09" x2="200.7" y2="29.46"/><line class="cls-2" x1="39.93" y1="86.48" x2="174.46" y2="29.46"/><circle class="cls-3" cx="187.48" cy="18.43" r="16"/><circle class="cls-3" cx="187.48" cy="97.24" r="16"/><circle class="cls-3" cx="238.94" cy="97.24" r="16"/><circle class="cls-3" cx="27.32" cy="97.24" r="16"/><circle class="cls-3" cx="79.08" cy="97.24" r="16"/><circle class="cls-3" cx="130.41" cy="97.24" r="16"/><circle class="cls-3" cx="352.16" cy="97.24" r="16"/><circle class="cls-3" cx="403.66" cy="97.24" r="16"/><circle class="cls-3" cx="293.25" cy="175.92" r="16"/><circle class="cls-3" cx="184.72" cy="175.87" r="16"/><circle class="cls-3" cx="238.92" cy="175.87" r="16"/><circle class="cls-3" cx="130.05" cy="175.87" r="16"/><circle class="cls-3" cx="48.66" cy="175.79" r="16"/><circle class="cls-3" cx="403.66" cy="175.92" r="16"/><path class="cls-4" d="M185.9,18.23h-3.52l-.24.59a6.06,6.06,0,0,0-.53,1.66.76.76,0,0,0,.28.64,1.19,1.19,0,0,0,.73.21v.32h-2.76v-.32a1.5,1.5,0,0,0,.92-.43,5.57,5.57,0,0,0,.73-1.43c0-.07.13-.33.32-.79l2.7-6.43h.26l3.1,7.36.42,1a1.4,1.4,0,0,0,.39.52,1.43,1.43,0,0,0,.73.23v.32h-3.65v-.32a2.63,2.63,0,0,0,.91-.1.38.38,0,0,0,.24-.39,4.19,4.19,0,0,0-.32-.9Zm-.12-.31-1.64-4-1.63,4Z"/><path class="cls-4" d="M190.4,22a1.71,1.71,0,0,1,.51-.44,1.22,1.22,0,0,1,.56-.14,1.47,1.47,0,0,1,1.09.48,1.61,1.61,0,0,1,.46,1.19,1.74,1.74,0,0,1-.44,1.18,1.45,1.45,0,0,1-1.14.51,1.41,1.41,0,0,1-1-.38,1.93,1.93,0,0,1-.56-.92,4.06,4.06,0,0,1-.16-1.16,3.76,3.76,0,0,1,.54-2.08,1.66,1.66,0,0,1,1.46-.84,1.45,1.45,0,0,1,.76.19q.33.18.33.42c0,.14-.08.21-.23.21a.34.34,0,0,1-.3-.21.79.79,0,0,0-.26-.32.73.73,0,0,0-.41-.09,1,1,0,0,0-.92.54,3.4,3.4,0,0,0-.31,1.65A1.62,1.62,0,0,0,190.4,22Zm0,1a2.78,2.78,0,0,0,.11.75,1.18,1.18,0,0,0,.36.59.85.85,0,0,0,.56.21.81.81,0,0,0,.73-.39,2.27,2.27,0,0,0,.24-1.17,2.49,2.49,0,0,0-.09-.76.86.86,0,0,0-.34-.46.83.83,0,0,0-.54-.19,1,1,0,0,0-.72.31A1.57,1.57,0,0,0,190.37,23Z"/><path class="cls-4" d="M26.05,96.29a4.06,4.06,0,0,1,2.35.78,2.14,2.14,0,0,1,.76,1.68,2.29,2.29,0,0,1-.52,1.51,2.41,2.41,0,0,1-1.33.82,9.57,9.57,0,0,1-2.17.2H21.5V101h.36a1.58,1.58,0,0,0,.82-.15.64.64,0,0,0,.29-.46A8.92,8.92,0,0,0,23,98.87V94.35A9.94,9.94,0,0,0,23,92.9a.61.61,0,0,0-.27-.45,2,2,0,0,0-.92-.13h-.17V92l1.52,0,1.74-.06c2.53,0,3.8.73,3.8,2.19A1.81,1.81,0,0,1,28,95.55,3.91,3.91,0,0,1,26.05,96.29Zm-1.67-.13h.28a3.19,3.19,0,0,0,2-.47,1.88,1.88,0,0,0,.54-1.5A2.4,2.4,0,0,0,27,93.08a1.48,1.48,0,0,0-.64-.62,3.52,3.52,0,0,0-1.45-.21l-.54,0Zm0,.33v2.07c0,.88,0,1.44,0,1.67a.86.86,0,0,0,.26.54,1.24,1.24,0,0,0,.82.19,2.2,2.2,0,0,0,1.64-.56,2.31,2.31,0,0,0,.55-1.68,2.17,2.17,0,0,0-.62-1.7,3.34,3.34,0,0,0-2.17-.54Z"/><path class="cls-4" d="M30.84,101.63a1.67,1.67,0,0,1,.51-.43,1.15,1.15,0,0,1,.56-.15,1.49,1.49,0,0,1,1.1.48,1.77,1.77,0,0,1,0,2.37,1.44,1.44,0,0,1-1.14.51,1.4,1.4,0,0,1-1-.37,2,2,0,0,1-.57-.93,4.06,4.06,0,0,1-.16-1.16,3.76,3.76,0,0,1,.54-2.08A1.68,1.68,0,0,1,32.17,99a1.56,1.56,0,0,1,.76.19q.33.18.33.42a.2.2,0,0,1-.22.22.34.34,0,0,1-.31-.22,1,1,0,0,0-.25-.32.76.76,0,0,0-.41-.09,1,1,0,0,0-.93.55,3.48,3.48,0,0,0-.31,1.64C30.83,101.49,30.84,101.56,30.84,101.63Zm0,1a2.43,2.43,0,0,0,.11.75,1.2,1.2,0,0,0,.35.59.87.87,0,0,0,.56.21.8.8,0,0,0,.73-.39,2.26,2.26,0,0,0,.24-1.16,2.57,2.57,0,0,0-.09-.77.9.9,0,0,0-.33-.46.93.93,0,0,0-.55-.18,1,1,0,0,0-.71.3A1.55,1.55,0,0,0,30.82,102.67Z"/><path class="cls-4" d="M188.74,97.91H189v3.25h-.29a2.59,2.59,0,0,0-.45-1,4,4,0,0,1-3.12,1.38,4.45,4.45,0,0,1-3.29-1.27,4.54,4.54,0,0,1-1.27-3.36,5.75,5.75,0,0,1,.59-2.59,3.9,3.9,0,0,1,1.64-1.8,4.67,4.67,0,0,1,2.31-.59,4,4,0,0,1,1.88.43,3.71,3.71,0,0,1,1.26,1,3.31,3.31,0,0,0,.36-1.21h.3l.08,3.52h-.29A4,4,0,0,0,187.48,93a3.38,3.38,0,0,0-2.13-.73A2.7,2.7,0,0,0,183,93.48a5.73,5.73,0,0,0-.86,3.39,4.84,4.84,0,0,0,.94,3.19,2.92,2.92,0,0,0,2.33,1.11,3.63,3.63,0,0,0,1.53-.36,2.66,2.66,0,0,0,1.23-1.23A4.72,4.72,0,0,0,188.74,97.91Z"/><path class="cls-4" d="M191,101.74a1.83,1.83,0,0,1,.51-.43,1.14,1.14,0,0,1,.56-.14,1.48,1.48,0,0,1,1.1.47,1.69,1.69,0,0,1,.46,1.2,1.72,1.72,0,0,1-.45,1.18,1.46,1.46,0,0,1-1.14.5,1.36,1.36,0,0,1-1-.37,2,2,0,0,1-.57-.93,4,4,0,0,1-.16-1.16,3.79,3.79,0,0,1,.54-2.08,1.69,1.69,0,0,1,1.46-.83,1.55,1.55,0,0,1,.76.18q.33.19.33.42a.2.2,0,0,1-.22.22.35.35,0,0,1-.31-.21.87.87,0,0,0-.25-.32.67.67,0,0,0-.41-.1,1,1,0,0,0-.93.55,3.48,3.48,0,0,0-.31,1.64C191,101.6,191,101.67,191,101.74Zm0,1a2.35,2.35,0,0,0,.11.75,1.2,1.2,0,0,0,.35.59.83.83,0,0,0,.56.22.8.8,0,0,0,.73-.39,2.27,2.27,0,0,0,.24-1.17,2.57,2.57,0,0,0-.09-.77.94.94,0,0,0-.33-.46.93.93,0,0,0-.55-.18,1,1,0,0,0-.71.31A1.51,1.51,0,0,0,191,102.78Z"/><path class="cls-4" d="M344.84,92.16l1.52-.07c1.27-.06,2.13-.1,2.57-.1a6.79,6.79,0,0,1,3.22.63,4.05,4.05,0,0,1,1.72,1.71,5.22,5.22,0,0,1,.57,2.48,5.6,5.6,0,0,1-.31,1.87,4,4,0,0,1-.85,1.4,3.5,3.5,0,0,1-1.24.84,4.92,4.92,0,0,1-1.34.37c-.43,0-1,.07-1.79.07H344.8V101h.38a1.58,1.58,0,0,0,.82-.15.69.69,0,0,0,.3-.46,10.86,10.86,0,0,0,.06-1.48V94.48A10.44,10.44,0,0,0,346.3,93a.65.65,0,0,0-.28-.44,2.13,2.13,0,0,0-.91-.12h-.27Zm2.86.2v6.19a16.45,16.45,0,0,0,.05,1.77.73.73,0,0,0,.3.56,2.53,2.53,0,0,0,1.09.16,5.17,5.17,0,0,0,2-.33,2.75,2.75,0,0,0,1.3-1.31,5.21,5.21,0,0,0,.52-2.48,6.74,6.74,0,0,0-.3-2.1,3.67,3.67,0,0,0-.87-1.5,2.94,2.94,0,0,0-1.26-.79,6.21,6.21,0,0,0-1.77-.21C348.4,92.32,348.05,92.33,347.7,92.36Z"/><path class="cls-4" d="M356.21,101.71a1.67,1.67,0,0,1,.51-.43,1.15,1.15,0,0,1,.56-.15,1.49,1.49,0,0,1,1.1.48,1.67,1.67,0,0,1,.46,1.19,1.71,1.71,0,0,1-.45,1.18,1.51,1.51,0,0,1-2.12.14,2,2,0,0,1-.57-.93,4.06,4.06,0,0,1-.16-1.16,3.68,3.68,0,0,1,.55-2.08,1.66,1.66,0,0,1,1.45-.84,1.45,1.45,0,0,1,.76.19q.33.18.33.42a.2.2,0,0,1-.22.22.36.36,0,0,1-.31-.22,1,1,0,0,0-.25-.32.76.76,0,0,0-.41-.09,1,1,0,0,0-.93.55,3.48,3.48,0,0,0-.31,1.64C356.2,101.56,356.21,101.63,356.21,101.71Zm0,1a2.43,2.43,0,0,0,.11.75,1.2,1.2,0,0,0,.35.59.87.87,0,0,0,.56.21.8.8,0,0,0,.73-.39,2.25,2.25,0,0,0,.25-1.16,2.52,2.52,0,0,0-.1-.77.9.9,0,0,0-.33-.46.93.93,0,0,0-.55-.18,1,1,0,0,0-.71.3A1.55,1.55,0,0,0,356.19,102.75Z"/><path class="cls-4" d="M187.18,170.69l.08,2.31h-.32a3,3,0,0,0-.43-1.25,1.43,1.43,0,0,0-.7-.62,4.33,4.33,0,0,0-1.22-.12h-1.81v3.93h.87a1.56,1.56,0,0,0,1.11-.29,1.61,1.61,0,0,0,.28-1.13h.34v3.26H185a3,3,0,0,0-.12-.94.84.84,0,0,0-.35-.47,2.36,2.36,0,0,0-.92-.12h-.87v2.3a13.27,13.27,0,0,0,.05,1.43.73.73,0,0,0,.28.5,1.54,1.54,0,0,0,.86.17h.31V180H180v-.31h.28a1.65,1.65,0,0,0,.83-.15.7.7,0,0,0,.29-.47,10.16,10.16,0,0,0,.07-1.48V173a9.8,9.8,0,0,0-.07-1.43.6.6,0,0,0-.27-.44,2.22,2.22,0,0,0-.92-.12H180v-.32Z"/><path class="cls-4" d="M189.46,177.72h.17v4.14c0,.35,0,.56,0,.65a.24.24,0,0,0,.11.2.59.59,0,0,0,.35.07h.15V183H188.5v-.18h.13a.54.54,0,0,0,.37-.08.31.31,0,0,0,.09-.19c0-.07,0-.29,0-.65v-2.78c0-.35,0-.56,0-.64a.39.39,0,0,0-.1-.19.54.54,0,0,0-.37-.08h-.17V178A1.66,1.66,0,0,0,189.46,177.72Z"/><path class="cls-4" d="M191.65,180.4a3.61,3.61,0,0,1,.47-2,1.37,1.37,0,0,1,2.42,0,4.28,4.28,0,0,1,0,3.9,1.36,1.36,0,0,1-1.21.74,1.38,1.38,0,0,1-1.21-.73A3.67,3.67,0,0,1,191.65,180.4Zm.65,0a4.76,4.76,0,0,0,.27,2.06.84.84,0,0,0,.76.44.8.8,0,0,0,.8-.52,5.82,5.82,0,0,0,.22-2,4.79,4.79,0,0,0-.27-2.06.86.86,0,0,0-1.5,0A4.59,4.59,0,0,0,192.3,180.4Z"/><path class="cls-4" d="M295.17,170.64l.08,2.31h-.32a3,3,0,0,0-.43-1.25,1.46,1.46,0,0,0-.69-.62,4.41,4.41,0,0,0-1.23-.12h-1.81v3.93h.87a1.66,1.66,0,0,0,1.12-.28,1.72,1.72,0,0,0,.27-1.14h.35v3.27H293a2.94,2.94,0,0,0-.12-.94.82.82,0,0,0-.35-.48,2.36,2.36,0,0,0-.92-.12h-.87v2.3a10.36,10.36,0,0,0,.06,1.43.71.71,0,0,0,.27.51,1.68,1.68,0,0,0,.86.16h.31v.31H288v-.31h.28a1.62,1.62,0,0,0,.83-.15.7.7,0,0,0,.29-.47,8.75,8.75,0,0,0,.07-1.48V173a8.27,8.27,0,0,0-.07-1.42.61.61,0,0,0-.27-.45,2.17,2.17,0,0,0-.91-.12H288v-.32Z"/><path class="cls-4" d="M297.45,177.67h.18v4.15c0,.34,0,.55,0,.64a.27.27,0,0,0,.11.2.61.61,0,0,0,.35.07h.15v.18h-1.76v-.18h.13a.54.54,0,0,0,.37-.08.26.26,0,0,0,.09-.19c0-.07,0-.29,0-.64V179c0-.35,0-.56,0-.63a.32.32,0,0,0-.1-.2.61.61,0,0,0-.37-.08h-.17v-.18A1.66,1.66,0,0,0,297.45,177.67Z"/><path class="cls-4" d="M299.77,182.91v-.24a10,10,0,0,0,1.12-1.1,6.87,6.87,0,0,0,1-1.3,2.25,2.25,0,0,0,.3-1.1,1.33,1.33,0,0,0-.31-1,1,1,0,0,0-.76-.32.88.88,0,0,0-.69.29,1,1,0,0,0-.24.62.68.68,0,0,0,.32.59c.08.06.11.1.11.13a.33.33,0,0,1-.13.19.37.37,0,0,1-.22.12c-.08,0-.17-.08-.28-.24a1,1,0,0,1-.17-.61,1.12,1.12,0,0,1,.47-.94,1.62,1.62,0,0,1,1-.35,1.67,1.67,0,0,1,1.05.36,1.26,1.26,0,0,1,.48,1.08,1.82,1.82,0,0,1-.22.85,6.57,6.57,0,0,1-1,1.24,18,18,0,0,1-1.31,1.24h2.48l-.22.88h-.18a.34.34,0,0,1,0-.14.34.34,0,0,0,0-.11c0-.07,0-.12-.05-.13a.67.67,0,0,0-.27,0Z"/><path class="cls-4" d="M401.91,175.82h4v.33a2.06,2.06,0,0,0-.9.13.66.66,0,0,0-.31.44,8.62,8.62,0,0,0-.08,1.51v1l-.29,0a4,4,0,0,0-1.38.32,6.2,6.2,0,0,1-2.15.44,4.5,4.5,0,0,1-4.63-4.63,5.26,5.26,0,0,1,1.26-3.49,4.2,4.2,0,0,1,3.41-1.5,4,4,0,0,1,3.08,1.37,3.22,3.22,0,0,0,.29-1h.32v3.1h-.32a3.75,3.75,0,0,0-1.09-2.27,3,3,0,0,0-2.15-.83,3.08,3.08,0,0,0-2.27,1,4.82,4.82,0,0,0-1,3.45,5.17,5.17,0,0,0,.93,3.49,3,3,0,0,0,2.33,1,2.91,2.91,0,0,0,1.29-.29,1.64,1.64,0,0,0,.79-.71,2.31,2.31,0,0,0,.21-1.05,3.43,3.43,0,0,0-.09-1,.58.58,0,0,0-.31-.34,2.2,2.2,0,0,0-.75-.08h-.22Z"/><path class="cls-4" d="M408.39,177.53h.17v4.15c0,.34,0,.55,0,.64a.28.28,0,0,0,.12.21.66.66,0,0,0,.34.07h.16v.18h-1.76v-.18h.13a.57.57,0,0,0,.36-.08.32.32,0,0,0,.1-.2c0-.07,0-.29,0-.64V178.9c0-.36,0-.57,0-.64a.32.32,0,0,0-.1-.2.59.59,0,0,0-.36-.08h-.17v-.18A1.68,1.68,0,0,0,408.39,177.53Z"/><path class="cls-4" d="M410.7,182.78v-.25a9.13,9.13,0,0,0,1.13-1.1,7.2,7.2,0,0,0,1-1.3,2.25,2.25,0,0,0,.3-1.1,1.37,1.37,0,0,0-.3-1,1,1,0,0,0-.76-.32.85.85,0,0,0-.69.29,1,1,0,0,0-.25.62.68.68,0,0,0,.32.59c.08.06.12.1.12.13a.39.39,0,0,1-.13.19.4.4,0,0,1-.22.12c-.08,0-.18-.08-.29-.24a1,1,0,0,1-.16-.6,1.12,1.12,0,0,1,.46-1,1.68,1.68,0,0,1,1-.35,1.7,1.7,0,0,1,1.06.36,1.28,1.28,0,0,1,.47,1.08,1.81,1.81,0,0,1-.21.85,6.06,6.06,0,0,1-1,1.24c-.54.55-1,1-1.31,1.25h2.49l-.23.87h-.18a.68.68,0,0,1,0-.14.25.25,0,0,0,0-.1c0-.08,0-.13-.06-.14a.76.76,0,0,0-.27,0Z"/><circle class="cls-3" cx="183.98" cy="247.88" r="16"/><path class="cls-4" d="M183.22,246.87h-4.84v2.24a13.27,13.27,0,0,0,.05,1.43.73.73,0,0,0,.28.5,1.5,1.5,0,0,0,.84.17h.24v.31h-4.17v-.31h.24a1.65,1.65,0,0,0,.83-.15.7.7,0,0,0,.29-.47,10.76,10.76,0,0,0,.06-1.48v-4.55a10.25,10.25,0,0,0-.06-1.43.64.64,0,0,0-.27-.44,2.22,2.22,0,0,0-.92-.12h-.17v-.32h4.17v.32h-.17a2.17,2.17,0,0,0-.89.11.58.58,0,0,0-.28.42,8.46,8.46,0,0,0-.07,1.46v1.84h4.84v-1.84a10.25,10.25,0,0,0-.06-1.43.67.67,0,0,0-.27-.44,2.22,2.22,0,0,0-.92-.12h-.24v-.32h4.21v.32h-.13a2.19,2.19,0,0,0-.9.11.58.58,0,0,0-.28.42,8.46,8.46,0,0,0-.07,1.46v4.55a11,11,0,0,0,.05,1.43.69.69,0,0,0,.27.5,1.57,1.57,0,0,0,.85.17h.21v.31h-4.21v-.31h.32a1.56,1.56,0,0,0,.81-.15.71.71,0,0,0,.3-.47,10.76,10.76,0,0,0,.06-1.48Z"/><path class="cls-4" d="M188.56,249.28h.17v4.14c0,.35,0,.56,0,.65a.26.26,0,0,0,.11.2.59.59,0,0,0,.35.07h.15v.18H187.6v-.18h.13c.19,0,.31,0,.36-.08a.3.3,0,0,0,.1-.19c0-.07,0-.29,0-.65v-2.78c0-.35,0-.56,0-.64a.26.26,0,0,0-.1-.19.5.5,0,0,0-.36-.09h-.17v-.18A1.62,1.62,0,0,0,188.56,249.28Z"/><path class="cls-4" d="M190.75,252a3.7,3.7,0,0,1,.46-2,1.4,1.4,0,0,1,1.22-.73,1.38,1.38,0,0,1,1.21.73,4.36,4.36,0,0,1,0,3.9,1.38,1.38,0,0,1-1.21.74,1.41,1.41,0,0,1-1.22-.74A3.7,3.7,0,0,1,190.75,252Zm.65,0a4.79,4.79,0,0,0,.27,2.06.83.83,0,0,0,.76.44.79.79,0,0,0,.79-.52,5.5,5.5,0,0,0,.23-2,4.79,4.79,0,0,0-.27-2.06.85.85,0,0,0-.75-.44.87.87,0,0,0-.76.44A4.79,4.79,0,0,0,191.4,252Z"/><circle class="cls-3" cx="265.07" cy="248.03" r="16"/><path class="cls-4" d="M262.17,243.52v-.32h4.24v.32h-.2a2.17,2.17,0,0,0-.89.11.59.59,0,0,0-.29.42,9.71,9.71,0,0,0-.07,1.46v4.55a13.27,13.27,0,0,0,.05,1.43.73.73,0,0,0,.28.5,1.52,1.52,0,0,0,.85.17h.27v.31h-4.24v-.31h.28a1.6,1.6,0,0,0,.82-.15.7.7,0,0,0,.29-.47,10.76,10.76,0,0,0,.06-1.48v-4.55a10.25,10.25,0,0,0-.06-1.43.6.6,0,0,0-.27-.44,2.22,2.22,0,0,0-.92-.12Z"/><path class="cls-4" d="M268.91,250.23h.17v4.14c0,.35,0,.56,0,.65a.26.26,0,0,0,.11.2.59.59,0,0,0,.35.07h.15v.18H268v-.18h.13a.54.54,0,0,0,.37-.08.34.34,0,0,0,.09-.19c0-.07,0-.29,0-.65v-2.78c0-.35,0-.56,0-.64a.31.31,0,0,0-.09-.19.53.53,0,0,0-.37-.09h-.17v-.18A1.6,1.6,0,0,0,268.91,250.23Z"/><path class="cls-4" d="M271.22,255.47v-.24a9.16,9.16,0,0,0,1.13-1.1,6.76,6.76,0,0,0,1-1.3,2.25,2.25,0,0,0,.3-1.1,1.4,1.4,0,0,0-.3-1,1,1,0,0,0-.76-.31.88.88,0,0,0-.69.29.94.94,0,0,0-.24.61.68.68,0,0,0,.32.6c.07,0,.11.1.11.12s0,.11-.13.19a.35.35,0,0,1-.22.13c-.08,0-.17-.08-.28-.24a1,1,0,0,1-.17-.61,1.14,1.14,0,0,1,.47-1,1.71,1.71,0,0,1,2.07,0,1.26,1.26,0,0,1,.47,1.08,1.81,1.81,0,0,1-.21.85,6.29,6.29,0,0,1-1,1.23c-.55.56-1,1-1.31,1.25h2.48l-.22.88h-.19a.32.32,0,0,1,0-.14.34.34,0,0,0,0-.11c0-.08,0-.12-.05-.14a1.23,1.23,0,0,0-.27,0Z"/><circle class="cls-3" cx="322.46" cy="248.12" r="16"/><path class="cls-4" d="M319.79,242.4h4.3v.32h-.23a2.22,2.22,0,0,0-.9.11.6.6,0,0,0-.28.42,10.39,10.39,0,0,0-.06,1.46v6.06a11.58,11.58,0,0,1-.1,1.79,2.8,2.8,0,0,1-1.64,2.1,4,4,0,0,1-1.65.31,2.86,2.86,0,0,1-1.62-.38,1.12,1.12,0,0,1-.57-.92.73.73,0,0,1,.21-.54.63.63,0,0,1,.49-.22.69.69,0,0,1,.5.2.63.63,0,0,1,.21.48.8.8,0,0,1-.09.36.64.64,0,0,0-.07.24.4.4,0,0,0,.26.35,1.52,1.52,0,0,0,.64.12,1.84,1.84,0,0,0,1.31-.5,2,2,0,0,0,.65-1.17,16,16,0,0,0,.11-2.22v-6.06a9.8,9.8,0,0,0-.07-1.43.6.6,0,0,0-.27-.44,2.22,2.22,0,0,0-.92-.12h-.21Z"/><path class="cls-4" d="M326.39,249.43h.17v4.14c0,.35,0,.56,0,.65a.27.27,0,0,0,.11.2.63.63,0,0,0,.35.07h.15v.18h-1.75v-.18h.13a.53.53,0,0,0,.36-.08.27.27,0,0,0,.1-.19c0-.07,0-.29,0-.65v-2.78c0-.35,0-.56,0-.64a.32.32,0,0,0-.1-.19.53.53,0,0,0-.36-.08h-.17v-.18A1.68,1.68,0,0,0,326.39,249.43Z"/><path class="cls-4" d="M328.7,254.67v-.24a9.93,9.93,0,0,0,1.13-1.1,7.2,7.2,0,0,0,1-1.3,2.25,2.25,0,0,0,.3-1.1,1.4,1.4,0,0,0-.3-1,1,1,0,0,0-.76-.31.85.85,0,0,0-.69.29,1,1,0,0,0-.25.62.69.69,0,0,0,.32.59c.08.05.12.1.12.12s-.05.11-.13.2a.4.4,0,0,1-.22.12c-.08,0-.18-.08-.29-.24a1,1,0,0,1-.16-.61,1.1,1.1,0,0,1,.46-.94,1.62,1.62,0,0,1,1-.35,1.72,1.72,0,0,1,1.06.36,1.28,1.28,0,0,1,.47,1.08,1.81,1.81,0,0,1-.21.85,6.35,6.35,0,0,1-1,1.24c-.54.55-1,1-1.31,1.24h2.49l-.23.88h-.18a.68.68,0,0,1,0-.14.31.31,0,0,0,0-.11c0-.08,0-.12-.06-.14a1.16,1.16,0,0,0-.27,0Z"/><path class="cls-4" d="M421.35,280.37l.87-.05,1.47-.05a3.87,3.87,0,0,1,1.84.36,2.29,2.29,0,0,1,1,1,3,3,0,0,1,.32,1.42,3,3,0,0,1-.17,1.07,2.34,2.34,0,0,1-.48.8,2.23,2.23,0,0,1-.71.48,3.07,3.07,0,0,1-.77.21,9.2,9.2,0,0,1-1,0h-2.34v-.18h.22a1,1,0,0,0,.47-.08.41.41,0,0,0,.16-.27,4.87,4.87,0,0,0,0-.85v-2.55a4.68,4.68,0,0,0,0-.82.32.32,0,0,0-.15-.25,1.19,1.19,0,0,0-.52-.07h-.16Zm1.63.11V284c0,.52,0,.86,0,1a.43.43,0,0,0,.18.32,1.37,1.37,0,0,0,.62.09,3,3,0,0,0,1.13-.19,1.6,1.6,0,0,0,.75-.75,3,3,0,0,0,.3-1.42,3.74,3.74,0,0,0-.18-1.2,2,2,0,0,0-.5-.85,1.65,1.65,0,0,0-.71-.45,3.61,3.61,0,0,0-1-.12C423.39,280.46,423.19,280.46,423,280.48Z"/><path class="cls-4" d="M428.53,282.29v2.23c0,.34,0,.56,0,.65a.29.29,0,0,0,.11.2.61.61,0,0,0,.35.07h.08v.18h-1.72v-.18h.13a.55.55,0,0,0,.36-.08.3.3,0,0,0,.1-.19c0-.07,0-.29,0-.65v-1a2.2,2.2,0,0,0-.06-.69.23.23,0,0,0-.14-.16,1.05,1.05,0,0,0-.3,0h-.11v-.18a5.14,5.14,0,0,0,1.08-.21Zm-.75-1.63a.4.4,0,0,1,.12-.29.38.38,0,0,1,.29-.12.38.38,0,0,1,.28.12.4.4,0,0,1,.12.29.38.38,0,0,1-.12.29.38.38,0,0,1-.28.12.41.41,0,0,1-.41-.41Z"/><path class="cls-4" d="M429.57,285.72v-1.05h.15c.18.61.49.91.95.91a.52.52,0,0,0,.44-.18.6.6,0,0,0,.15-.39.53.53,0,0,0-.16-.41,2.21,2.21,0,0,0-.62-.39,2.27,2.27,0,0,1-.69-.47.79.79,0,0,1-.21-.56,1,1,0,0,1,.22-.6.78.78,0,0,1,.64-.29.86.86,0,0,1,.69.34.93.93,0,0,0,.15-.28h.15v1h-.15a1.3,1.3,0,0,0-.3-.61.67.67,0,0,0-.53-.26.56.56,0,0,0-.38.14.49.49,0,0,0-.14.34.46.46,0,0,0,.16.36,1.85,1.85,0,0,0,.6.36,1.7,1.7,0,0,1,.81.58,1.24,1.24,0,0,1,.15.56.88.88,0,0,1-.28.68,1,1,0,0,1-.69.26,1.06,1.06,0,0,1-.79-.36,1,1,0,0,0-.17.33Z"/><path class="cls-4" d="M434.11,282.6h-1v1.94a3.6,3.6,0,0,0,0,.6.41.41,0,0,0,.17.24.39.39,0,0,0,.27.1.6.6,0,0,0,.49-.32l.12.07a.89.89,0,0,1-.35.39,1,1,0,0,1-.48.13.8.8,0,0,1-.5-.17.67.67,0,0,1-.26-.38,3.5,3.5,0,0,1-.06-.79V282.6h-.46v-.18a.77.77,0,0,0,.57-.27,1.31,1.31,0,0,0,.33-.73h.12v1h1Z"/><path class="cls-4" d="M435.58,283.11a1.23,1.23,0,0,1,.43-.58.93.93,0,0,1,.58-.24.57.57,0,0,1,.41.16.49.49,0,0,1,.15.33.3.3,0,0,1-.08.2.25.25,0,0,1-.18.08c-.14,0-.23-.1-.3-.29s-.12-.2-.21-.2a.65.65,0,0,0-.4.23,1.13,1.13,0,0,0-.31.48,2.94,2.94,0,0,0-.06.67v.57c0,.34,0,.56,0,.65a.29.29,0,0,0,.11.2.61.61,0,0,0,.35.07h.11v.18h-1.7v-.18h.08a.71.71,0,0,0,.34-.06.36.36,0,0,0,.12-.18c0-.08,0-.31,0-.68v-.9c0-.34,0-.56,0-.64a.31.31,0,0,0-.11-.21.61.61,0,0,0-.35-.07h-.08v-.18a5.14,5.14,0,0,0,1-.23A2.56,2.56,0,0,1,435.58,283.11Z"/><path class="cls-4" d="M438.45,282.29v2.23c0,.34,0,.56,0,.65a.29.29,0,0,0,.11.2.61.61,0,0,0,.35.07H439v.18h-1.72v-.18h.13a.57.57,0,0,0,.36-.08.3.3,0,0,0,.1-.19c0-.07,0-.29,0-.65v-1a2.34,2.34,0,0,0-.05-.69.23.23,0,0,0-.14-.16,1.09,1.09,0,0,0-.31,0h-.1v-.18a5.14,5.14,0,0,0,1.08-.21Zm-.75-1.63a.4.4,0,0,1,.12-.29.38.38,0,0,1,.28-.12.38.38,0,0,1,.29.12.4.4,0,0,1,.12.29.41.41,0,0,1-.41.41.38.38,0,0,1-.28-.12A.38.38,0,0,1,437.7,280.66Z"/><path class="cls-4" d="M439.93,285.75h-.15v-4.28a3.75,3.75,0,0,0,0-.61.28.28,0,0,0-.12-.2.77.77,0,0,0-.37-.07v-.18a3,3,0,0,0,.56-.05,2.09,2.09,0,0,0,.44-.11h.08v2.53a2.09,2.09,0,0,1,.56-.37,1.39,1.39,0,0,1,.57-.12,1.46,1.46,0,0,1,1.13.48A1.76,1.76,0,0,1,443,284a1.79,1.79,0,0,1-.45,1.25,1.53,1.53,0,0,1-1.18.5,1.26,1.26,0,0,1-.62-.15,1.18,1.18,0,0,1-.45-.44A2.23,2.23,0,0,0,439.93,285.75Zm.41-2.74v1.26a2.29,2.29,0,0,0,.07.69.78.78,0,0,0,.31.41.88.88,0,0,0,.57.2.92.92,0,0,0,.8-.42,2,2,0,0,0,.3-1.19,1.79,1.79,0,0,0-.28-1.09.86.86,0,0,0-.74-.37,1.08,1.08,0,0,0-.52.13A1.87,1.87,0,0,0,440.34,283Z"/><path class="cls-4" d="M446.65,282.42v2.1c0,.35,0,.57,0,.66a.28.28,0,0,0,.12.2.7.7,0,0,0,.35.06v.18a2.45,2.45,0,0,0-.86.13h0a.43.43,0,1,0-.68-.19,1.22,1.22,0,0,1-.68.19,1,1,0,0,1-.56-.15.72.72,0,0,1-.34-.35,1.74,1.74,0,0,1-.09-.64v-1.09c0-.37,0-.6,0-.68a.27.27,0,0,0-.13-.18.79.79,0,0,0-.38-.06v-.18h1.09v2.22a1.88,1.88,0,0,0,0,.48.44.44,0,0,0,.2.26.65.65,0,0,0,.37.11,1,1,0,0,0,.57-.2,1.06,1.06,0,0,0,.38-.42,1.65,1.65,0,0,0,.1-.63v-.72c0-.35,0-.56,0-.64a.26.26,0,0,0-.1-.19.5.5,0,0,0-.36-.09h-.08v-.18Z"/><path class="cls-4" d="M449.54,282.6h-1v1.94a2.74,2.74,0,0,0,0,.6.4.4,0,0,0,.16.24.43.43,0,0,0,.27.1.6.6,0,0,0,.49-.32l.13.07a.85.85,0,0,1-.36.39,1,1,0,0,1-.48.13.77.77,0,0,1-.49-.17.69.69,0,0,1-.27-.38,4.49,4.49,0,0,1-.05-.79V282.6h-.47v-.18a.77.77,0,0,0,.58-.27,1.3,1.3,0,0,0,.32-.73h.13v1h1Z"/><path class="cls-4" d="M451,282.29v2.23c0,.34,0,.56,0,.65a.27.27,0,0,0,.12.2.57.57,0,0,0,.34.07h.09v.18H449.8v-.18h.14a.59.59,0,0,0,.36-.08.35.35,0,0,0,.1-.19c0-.07,0-.29,0-.65v-1a2.78,2.78,0,0,0-.05-.69.28.28,0,0,0-.14-.16,1.14,1.14,0,0,0-.31,0h-.11v-.18a4.88,4.88,0,0,0,1.08-.21Zm-.76-1.63a.41.41,0,0,1,.41-.41.36.36,0,0,1,.28.12.4.4,0,0,1,.12.29.38.38,0,0,1-.12.29.36.36,0,0,1-.28.12.4.4,0,0,1-.29-.12A.38.38,0,0,1,450.21,280.66Z"/><path class="cls-4" d="M452,284a1.67,1.67,0,0,1,.49-1.23,1.71,1.71,0,0,1,2.42,0,1.67,1.67,0,0,1,.5,1.23,1.66,1.66,0,0,1-.5,1.27,1.81,1.81,0,0,1-2.42,0A1.66,1.66,0,0,1,452,284Zm.64,0a2,2,0,0,0,.28,1.19.94.94,0,0,0,.78.34.93.93,0,0,0,.78-.34,2,2,0,0,0,.27-1.19,2.06,2.06,0,0,0-.27-1.21,1,1,0,0,0-1.56,0A2,2,0,0,0,452.62,284Z"/><path class="cls-4" d="M456.78,282.29h.11a2.55,2.55,0,0,1,.1.66,1.9,1.9,0,0,1,.59-.49,1.33,1.33,0,0,1,.64-.17,1.17,1.17,0,0,1,.63.16.7.7,0,0,1,.31.4,2.31,2.31,0,0,1,.07.67v1c0,.37,0,.6,0,.68a.27.27,0,0,0,.13.18.79.79,0,0,0,.38.06v.18h-1.64v-.18h.07a.61.61,0,0,0,.37-.08.3.3,0,0,0,.1-.19c0-.07,0-.29,0-.65v-1a2.35,2.35,0,0,0,0-.54.5.5,0,0,0-.2-.29.65.65,0,0,0-.41-.12,1,1,0,0,0-.54.17,1.6,1.6,0,0,0-.49.51v1.3a4.87,4.87,0,0,0,0,.68.23.23,0,0,0,.12.18.87.87,0,0,0,.39.06v.18H455.9v-.18a1.07,1.07,0,0,0,.38-.05.25.25,0,0,0,.13-.17c0-.07,0-.31,0-.7v-.95c0-.37,0-.6,0-.68a.26.26,0,0,0-.12-.18.87.87,0,0,0-.39-.06v-.18A4.75,4.75,0,0,0,456.78,282.29Z"/><path class="cls-4" d="M421.37,299.07v-.18h2.42v.18h-.11a1.37,1.37,0,0,0-.51.06.4.4,0,0,0-.17.24,6.16,6.16,0,0,0,0,.84v2.6a6.63,6.63,0,0,0,0,.81.4.4,0,0,0,.16.29.89.89,0,0,0,.49.1h.15v.18h-2.42V304h.16a.9.9,0,0,0,.47-.09.41.41,0,0,0,.16-.27,4.81,4.81,0,0,0,0-.84v-2.6a4.68,4.68,0,0,0,0-.82.34.34,0,0,0-.15-.25,1.21,1.21,0,0,0-.53-.07Z"/><path class="cls-4" d="M425.12,300.86h0a1.61,1.61,0,0,1,.12.67,1.73,1.73,0,0,1,.56-.5,1.24,1.24,0,0,1,.65-.17,1,1,0,0,1,.64.18,1,1,0,0,1,.35.54,2.16,2.16,0,0,1,.61-.54,1.23,1.23,0,0,1,.63-.18,1.06,1.06,0,0,1,.63.17.64.64,0,0,1,.31.39,3,3,0,0,1,.06.71v1c0,.37,0,.6,0,.68a.24.24,0,0,0,.13.18.79.79,0,0,0,.38.06v.18h-1.6V304A.78.78,0,0,0,429,304a.27.27,0,0,0,.13-.17c0-.08,0-.31,0-.69V302a2,2,0,0,0,0-.49.47.47,0,0,0-.19-.28.65.65,0,0,0-.41-.12.88.88,0,0,0-.51.18,1.94,1.94,0,0,0-.51.52v1.26c0,.34,0,.55,0,.64a.29.29,0,0,0,.11.2.6.6,0,0,0,.35.08v.18h-1.55V304a.78.78,0,0,0,.36-.06.23.23,0,0,0,.13-.17,4.14,4.14,0,0,0,0-.69v-.89a4.4,4.4,0,0,0,0-.61.52.52,0,0,0-.21-.32.64.64,0,0,0-.41-.14.89.89,0,0,0-.5.16,2,2,0,0,0-.51.47v1.33c0,.35,0,.57,0,.65a.27.27,0,0,0,.12.2.75.75,0,0,0,.36.07v.18H424.2V304a.78.78,0,0,0,.36-.06.27.27,0,0,0,.13-.17c0-.08,0-.31,0-.69v-1c0-.36,0-.59,0-.67a.23.23,0,0,0-.12-.18.67.67,0,0,0-.37-.07V301A4.09,4.09,0,0,0,425.12,300.86Z"/><path class="cls-4" d="M431.4,300.86h.11a2,2,0,0,1,.06.52,1.76,1.76,0,0,1,.54-.39,1.39,1.39,0,0,1,.61-.13,1.44,1.44,0,0,1,1.1.46,1.71,1.71,0,0,1,.44,1.24,1.8,1.8,0,0,1-.44,1.25,1.47,1.47,0,0,1-1.17.5,1.38,1.38,0,0,1-.56-.12,1.59,1.59,0,0,1-.52-.35v1.22c0,.37,0,.59,0,.67a.27.27,0,0,0,.13.18.79.79,0,0,0,.38.06v.18h-1.68V306h.12c.19,0,.31,0,.36-.08a.27.27,0,0,0,.1-.19c0-.07,0-.29,0-.64v-2.91c0-.34,0-.56,0-.64a.31.31,0,0,0-.11-.21.71.71,0,0,0-.35-.07h-.12v-.18A6.11,6.11,0,0,0,431.4,300.86Zm.17,2.72a1.47,1.47,0,0,0,.45.39,1,1,0,0,0,1.27-.25,1.79,1.79,0,0,0,.33-1.2,1.6,1.6,0,0,0-.32-1.08,1,1,0,0,0-.75-.35,1.06,1.06,0,0,0-.52.13,1.77,1.77,0,0,0-.46.42Z"/><path class="cls-4" d="M435.81,298.81v4.28c0,.34,0,.55,0,.64a.31.31,0,0,0,.11.21.71.71,0,0,0,.35.07h.09v.18h-1.71V304h.11a.69.69,0,0,0,.34-.07.29.29,0,0,0,.12-.18c0-.08,0-.3,0-.67v-3.17a1.36,1.36,0,0,0-.09-.63c-.06-.09-.2-.13-.43-.13V299a3.15,3.15,0,0,0,.56-.06,1.6,1.6,0,0,0,.44-.11Z"/><path class="cls-4" d="M437.79,300.86v2.23c0,.34,0,.55,0,.64a.28.28,0,0,0,.12.21.66.66,0,0,0,.34.07h.09v.18h-1.73V304h.14a.59.59,0,0,0,.36-.08.38.38,0,0,0,.1-.2c0-.07,0-.29,0-.64v-1a2.78,2.78,0,0,0-.05-.69.29.29,0,0,0-.14-.15.8.8,0,0,0-.31,0h-.11v-.18a4.43,4.43,0,0,0,1.08-.2Zm-.76-1.64a.38.38,0,0,1,.12-.28.39.39,0,0,1,.58,0,.41.41,0,0,1,.11.28.44.44,0,0,1-.11.3.41.41,0,0,1-.58,0A.41.41,0,0,1,437,299.22Z"/><path class="cls-4" d="M441.56,303.4h.17a1.23,1.23,0,0,1-1.33.91,1.55,1.55,0,0,1-1.15-.46,1.84,1.84,0,0,1,0-2.5,1.69,1.69,0,0,1,1.95-.31c.23.12.35.27.35.44a.28.28,0,0,1-.07.19.22.22,0,0,1-.18.08c-.17,0-.28-.1-.32-.3a.42.42,0,0,0-.54-.41.9.9,0,0,0-.78.37,1.8,1.8,0,0,0-.27,1.09,2.1,2.1,0,0,0,.29,1.18,1,1,0,0,0,.85.43A.93.93,0,0,0,441.56,303.4Z"/><path class="cls-4" d="M443.21,300.86v2.23c0,.34,0,.55,0,.64a.31.31,0,0,0,.11.21.74.74,0,0,0,.35.07h.08v.18H442V304h.13a.61.61,0,0,0,.37-.08.37.37,0,0,0,.09-.2c0-.07,0-.29,0-.64v-1a2.2,2.2,0,0,0-.06-.69.23.23,0,0,0-.14-.15.71.71,0,0,0-.3,0H442v-.18a4.64,4.64,0,0,0,1.08-.2Zm-.76-1.64a.38.38,0,0,1,.12-.28.37.37,0,0,1,.29-.13.35.35,0,0,1,.28.13.38.38,0,0,1,.12.28.41.41,0,0,1-.12.3.38.38,0,0,1-.28.12.4.4,0,0,1-.29-.12A.41.41,0,0,1,442.45,299.22Z"/><path class="cls-4" d="M446.11,301.17h-1v1.93a2.63,2.63,0,0,0,0,.6.45.45,0,0,0,.16.25.48.48,0,0,0,.27.09.6.6,0,0,0,.49-.32l.13.07a.76.76,0,0,1-.36.39,1,1,0,0,1-.48.13.76.76,0,0,1-.49-.16.68.68,0,0,1-.27-.39,4.43,4.43,0,0,1-.05-.78v-1.81h-.47V301a.85.85,0,0,0,.58-.27A1.27,1.27,0,0,0,445,300h.13v1h1Z"/><path class="cls-4" d="M448.44,298.93l.87,0q1.08-.06,1.47-.06a3.9,3.9,0,0,1,1.84.36,2.37,2.37,0,0,1,1,1,3.06,3.06,0,0,1,.32,1.42,3,3,0,0,1-.18,1.06,2.12,2.12,0,0,1-1.19,1.29,2.58,2.58,0,0,1-.77.2,8.57,8.57,0,0,1-1,.05h-2.35V304h.22a.88.88,0,0,0,.47-.09.42.42,0,0,0,.17-.27,6.16,6.16,0,0,0,0-.84v-2.56a6.14,6.14,0,0,0,0-.82.36.36,0,0,0-.16-.25,1.16,1.16,0,0,0-.52-.07h-.15Zm1.63.11v3.54c0,.52,0,.86,0,1a.44.44,0,0,0,.17.32,1.4,1.4,0,0,0,.62.09,2.89,2.89,0,0,0,1.14-.19,1.51,1.51,0,0,0,.74-.74,3,3,0,0,0,.3-1.42,4,4,0,0,0-.17-1.2,2.2,2.2,0,0,0-.5-.86,1.74,1.74,0,0,0-.72-.45,3.53,3.53,0,0,0-1-.12Z"/><path class="cls-4" d="M455.62,300.86v2.23a4.5,4.5,0,0,0,0,.64.27.27,0,0,0,.11.21.68.68,0,0,0,.35.07h.08v.18h-1.72V304h.13a.59.59,0,0,0,.36-.08.32.32,0,0,0,.1-.2c0-.07,0-.29,0-.64v-1a2.78,2.78,0,0,0-.05-.69.26.26,0,0,0-.14-.15.76.76,0,0,0-.31,0h-.1v-.18a4.44,4.44,0,0,0,1.07-.2Zm-.75-1.64a.37.37,0,0,1,.11-.28.39.39,0,0,1,.58,0,.37.37,0,0,1,.11.28.4.4,0,1,1-.8,0Z"/><path class="cls-4" d="M456.65,304.29v-1.05h.16c.17.6.49.91.95.91a.54.54,0,0,0,.44-.18.62.62,0,0,0,.15-.4.58.58,0,0,0-.16-.41,2.42,2.42,0,0,0-.62-.38,2.54,2.54,0,0,1-.7-.47.81.81,0,0,1-.21-.56,1,1,0,0,1,.23-.61.76.76,0,0,1,.64-.28.86.86,0,0,1,.69.34,1,1,0,0,0,.15-.29h.14v1h-.14a1.3,1.3,0,0,0-.3-.61.7.7,0,0,0-.53-.26.49.49,0,0,0-.38.15.44.44,0,0,0-.15.33.52.52,0,0,0,.16.37,2.41,2.41,0,0,0,.6.35,1.7,1.7,0,0,1,.81.59,1.17,1.17,0,0,1,.15.55.9.9,0,0,1-.27.68,1,1,0,0,1-.7.26A1.06,1.06,0,0,1,457,304a.83.83,0,0,0-.17.34Z"/><path class="cls-4" d="M461.19,301.17h-1v1.93a2.63,2.63,0,0,0,0,.6.45.45,0,0,0,.16.25.49.49,0,0,0,.28.09.58.58,0,0,0,.48-.32l.13.07a.76.76,0,0,1-.36.39,1,1,0,0,1-.48.13.78.78,0,0,1-.49-.16.73.73,0,0,1-.27-.39,4.43,4.43,0,0,1-.05-.78v-1.81h-.46V301a.85.85,0,0,0,.57-.27,1.27,1.27,0,0,0,.32-.74h.13v1h1Z"/><path class="cls-4" d="M462.66,301.67a1.45,1.45,0,0,1,.43-.58,1,1,0,0,1,.59-.23.51.51,0,0,1,.4.16.46.46,0,0,1,.15.33.26.26,0,0,1-.07.19.24.24,0,0,1-.19.08c-.13,0-.23-.09-.3-.29s-.11-.19-.21-.19a.62.62,0,0,0-.4.23,1,1,0,0,0-.3.47,3,3,0,0,0-.07.68v.57c0,.34,0,.55,0,.64a.27.27,0,0,0,.11.21.68.68,0,0,0,.35.07h.11v.18h-1.7V304h.08a.65.65,0,0,0,.33-.07.23.23,0,0,0,.12-.18c0-.08,0-.3,0-.67v-.9c0-.35,0-.56,0-.65a.27.27,0,0,0-.11-.2.62.62,0,0,0-.35-.08h-.08v-.17a6.36,6.36,0,0,0,1-.23A2.77,2.77,0,0,1,462.66,301.67Z"/><path class="cls-4" d="M465.54,300.86v2.23c0,.34,0,.55,0,.64a.28.28,0,0,0,.12.21.66.66,0,0,0,.34.07h.09v.18h-1.73V304h.14a.59.59,0,0,0,.36-.08.38.38,0,0,0,.1-.2c0-.07,0-.29,0-.64v-1a2.78,2.78,0,0,0-.05-.69.29.29,0,0,0-.14-.15.8.8,0,0,0-.31,0h-.11v-.18a4.43,4.43,0,0,0,1.08-.2Zm-.76-1.64a.38.38,0,0,1,.12-.28.39.39,0,0,1,.58,0,.41.41,0,0,1,.11.28.44.44,0,0,1-.11.3.41.41,0,0,1-.58,0A.41.41,0,0,1,464.78,299.22Z"/><path class="cls-4" d="M467,304.31h-.15V300a3.6,3.6,0,0,0,0-.6.33.33,0,0,0-.13-.21.78.78,0,0,0-.36-.06V299a3.05,3.05,0,0,0,.55-.06,1.6,1.6,0,0,0,.45-.11h.08v2.54A2,2,0,0,1,468,301a1.46,1.46,0,0,1,.57-.12,1.5,1.5,0,0,1,1.14.48,1.92,1.92,0,0,1,0,2.47,1.48,1.48,0,0,1-1.17.5,1.32,1.32,0,0,1-.62-.14,1.21,1.21,0,0,1-.45-.45A2,2,0,0,0,467,304.31Zm.41-2.73v1.25a2.94,2.94,0,0,0,.06.7,1,1,0,0,0,.31.41.92.92,0,0,0,.58.19,1,1,0,0,0,.8-.41,2,2,0,0,0,.3-1.19,1.77,1.77,0,0,0-.28-1.09.88.88,0,0,0-.74-.38,1.25,1.25,0,0,0-.53.13A1.75,1.75,0,0,0,467.43,301.58Z"/><path class="cls-4" d="M473.74,301v2.09c0,.35,0,.57,0,.66a.29.29,0,0,0,.11.2.75.75,0,0,0,.36.07v.18a2.3,2.3,0,0,0-.87.12h-.05a1.74,1.74,0,0,1-.13-.74,1.82,1.82,0,0,1-.54.56,1.33,1.33,0,0,1-.68.18,1.1,1.1,0,0,1-.57-.14.81.81,0,0,1-.33-.36,1.49,1.49,0,0,1-.1-.64v-1.09a4.69,4.69,0,0,0,0-.67.23.23,0,0,0-.12-.19,1.07,1.07,0,0,0-.38-.05V301h1.09v2.21a2.72,2.72,0,0,0,0,.48.5.5,0,0,0,.2.26.61.61,0,0,0,.38.11,1,1,0,0,0,.57-.19,1.16,1.16,0,0,0,.37-.42,1.53,1.53,0,0,0,.1-.63v-.73c0-.35,0-.56,0-.63a.32.32,0,0,0-.1-.2.53.53,0,0,0-.36-.08h-.09V301Z"/><path class="cls-4" d="M476.63,301.17h-1v1.93a3.41,3.41,0,0,0,0,.6.47.47,0,0,0,.17.25.44.44,0,0,0,.27.09.6.6,0,0,0,.49-.32l.12.07a.79.79,0,0,1-.35.39,1,1,0,0,1-.48.13.79.79,0,0,1-.5-.16.66.66,0,0,1-.26-.39,3.45,3.45,0,0,1-.06-.78v-1.81h-.46V301a.85.85,0,0,0,.57-.27,1.34,1.34,0,0,0,.33-.74h.12v1h1Z"/><path class="cls-4" d="M478.05,300.86v2.23c0,.34,0,.55,0,.64a.31.31,0,0,0,.11.21.71.71,0,0,0,.35.07h.08v.18h-1.72V304H477a.55.55,0,0,0,.36-.08.32.32,0,0,0,.1-.2c0-.07,0-.29,0-.64v-1a2.34,2.34,0,0,0-.05-.69.23.23,0,0,0-.14-.15.76.76,0,0,0-.31,0h-.1v-.18a4.64,4.64,0,0,0,1.08-.2Zm-.75-1.64a.38.38,0,0,1,.12-.28.36.36,0,0,1,.29-.13.35.35,0,0,1,.28.13.38.38,0,0,1,.12.28.41.41,0,0,1-.12.3.38.38,0,0,1-.28.12.38.38,0,0,1-.29-.12A.41.41,0,0,1,477.3,299.22Z"/><path class="cls-4" d="M479.06,302.58a1.71,1.71,0,0,1,.49-1.23,1.75,1.75,0,0,1,2.43,0,1.83,1.83,0,0,1,0,2.5,1.71,1.71,0,0,1-1.21.46,1.66,1.66,0,0,1-1.7-1.73Zm.65,0a1.89,1.89,0,0,0,.28,1.19.92.92,0,0,0,.77.34,1,1,0,0,0,.79-.34,2,2,0,0,0,.27-1.19,2,2,0,0,0-.27-1.2.92.92,0,0,0-.79-.36.93.93,0,0,0-.78.35A2.06,2.06,0,0,0,479.71,302.6Z"/><path class="cls-4" d="M483.87,300.86h.1a2.18,2.18,0,0,1,.1.66,2.21,2.21,0,0,1,.59-.5,1.36,1.36,0,0,1,.65-.16,1.08,1.08,0,0,1,.62.16.67.67,0,0,1,.32.39,2.35,2.35,0,0,1,.07.68v1a4.69,4.69,0,0,0,0,.67.23.23,0,0,0,.12.18.71.71,0,0,0,.38.07v.18h-1.63V304h.07a.53.53,0,0,0,.37-.09.28.28,0,0,0,.09-.19c0-.07,0-.29,0-.64v-1a2.94,2.94,0,0,0,0-.54.51.51,0,0,0-.2-.29.63.63,0,0,0-.41-.13,1,1,0,0,0-.55.17,2.18,2.18,0,0,0-.49.51v1.31c0,.37,0,.59,0,.67a.27.27,0,0,0,.13.18.71.71,0,0,0,.38.07v.18H483V304a.8.8,0,0,0,.37-.06.23.23,0,0,0,.13-.17,4.14,4.14,0,0,0,0-.69v-1c0-.37,0-.59,0-.67a.27.27,0,0,0-.13-.18.85.85,0,0,0-.38-.06V301A6,6,0,0,0,483.87,300.86Z"/><path class="cls-4" d="M424.62,247.85h-2l-.13.34a3.26,3.26,0,0,0-.31.95.44.44,0,0,0,.16.36.64.64,0,0,0,.42.13v.18h-1.57v-.18a.88.88,0,0,0,.52-.25,3.14,3.14,0,0,0,.41-.82s.08-.19.19-.45l1.54-3.67H424l1.77,4.2.24.56a.74.74,0,0,0,.23.29.82.82,0,0,0,.41.14v.18h-2.08v-.18a1.51,1.51,0,0,0,.52-.06.21.21,0,0,0,.13-.22,2.33,2.33,0,0,0-.18-.52Zm-.07-.17-.94-2.26-.93,2.26Z"/><path class="cls-4" d="M429.64,249h.17a1.24,1.24,0,0,1-1.33.91,1.58,1.58,0,0,1-1.15-.47,1.87,1.87,0,0,1,0-2.5,1.64,1.64,0,0,1,1.19-.49,1.61,1.61,0,0,1,.76.18c.23.12.35.27.35.44a.33.33,0,0,1-.06.19.26.26,0,0,1-.19.08c-.17,0-.28-.1-.32-.3a.6.6,0,0,0-.14-.31.63.63,0,0,0-.4-.09.9.9,0,0,0-.78.36,1.82,1.82,0,0,0-.27,1.09,2.08,2.08,0,0,0,.29,1.18,1.05,1.05,0,0,0,1.84-.27Z"/><path class="cls-4" d="M432.19,246.79h-1v1.93a2.63,2.63,0,0,0,0,.6.42.42,0,0,0,.16.25.49.49,0,0,0,.28.09.56.56,0,0,0,.48-.32l.13.08a.78.78,0,0,1-.36.38,1,1,0,0,1-.48.14.79.79,0,0,1-.49-.17.73.73,0,0,1-.27-.39,4.43,4.43,0,0,1-.05-.78v-1.81h-.46v-.18a.85.85,0,0,0,.57-.27,1.27,1.27,0,0,0,.32-.74h.13v1h1Z"/><path class="cls-4" d="M433.62,246.48v2.23a4.42,4.42,0,0,0,0,.64.27.27,0,0,0,.11.21.68.68,0,0,0,.35.07h.08v.18h-1.72v-.18h.13a.59.59,0,0,0,.36-.08.32.32,0,0,0,.1-.19c0-.08,0-.29,0-.65v-1a2.84,2.84,0,0,0-.05-.69.26.26,0,0,0-.14-.15,1,1,0,0,0-.31,0h-.1v-.17a4.9,4.9,0,0,0,1.07-.21Zm-.75-1.63a.38.38,0,0,1,.11-.29.41.41,0,0,1,.58,0,.38.38,0,0,1,.11.29.39.39,0,0,1-.11.29.41.41,0,0,1-.58,0A.39.39,0,0,1,432.87,244.85Z"/><path class="cls-4" d="M436.27,249.94h-.22l-1.14-2.57a1.54,1.54,0,0,0-.27-.47.41.41,0,0,0-.32-.11v-.18h1.45v.18a.85.85,0,0,0-.33,0,.13.13,0,0,0-.09.14,1.68,1.68,0,0,0,.16.42l.86,1.94.78-1.73a1.77,1.77,0,0,0,.18-.54q0-.26-.39-.27v-.18H438v.18a.44.44,0,0,0-.33.16,3.47,3.47,0,0,0-.38.7Z"/><path class="cls-4" d="M439.29,246.48v2.23c0,.34,0,.56,0,.64a.28.28,0,0,0,.12.21.66.66,0,0,0,.34.07h.09v.18h-1.73v-.18h.14a.59.59,0,0,0,.36-.08.39.39,0,0,0,.1-.19c0-.08,0-.29,0-.65v-1a2.84,2.84,0,0,0-.05-.69.29.29,0,0,0-.14-.15,1.05,1.05,0,0,0-.31,0h-.11v-.17a4.88,4.88,0,0,0,1.08-.21Zm-.76-1.63a.38.38,0,0,1,.12-.29.41.41,0,0,1,.58,0,.42.42,0,0,1,.11.29.44.44,0,0,1-.11.29.41.41,0,0,1-.7-.29Z"/><path class="cls-4" d="M442.19,246.79h-1v1.93a2.63,2.63,0,0,0,0,.6.42.42,0,0,0,.16.25.49.49,0,0,0,.28.09.56.56,0,0,0,.48-.32l.13.08a.78.78,0,0,1-.36.38,1,1,0,0,1-.48.14.79.79,0,0,1-.49-.17.73.73,0,0,1-.27-.39,4.43,4.43,0,0,1-.05-.78v-1.81h-.46v-.18a.85.85,0,0,0,.57-.27,1.27,1.27,0,0,0,.32-.74h.13v1h1Z"/><path class="cls-4" d="M444.4,249.2l.75-1.78a4.33,4.33,0,0,0,.16-.43c0-.13-.15-.2-.44-.2v-.18H446v.18a.48.48,0,0,0-.38.14,1.73,1.73,0,0,0-.31.56l-1.42,3.44a2.9,2.9,0,0,1-.36.67.45.45,0,0,1-.34.18c-.17,0-.26-.08-.26-.24s.14-.32.41-.44a1.37,1.37,0,0,0,.32-.18.8.8,0,0,0,.15-.27l.31-.77-1.2-2.57a1.44,1.44,0,0,0-.27-.43.56.56,0,0,0-.36-.09v-.18h1.47v.18c-.26,0-.39.06-.39.16a1.55,1.55,0,0,0,.16.38Z"/><path class="cls-4" d="M449.83,247.2l1.61-1.45q.57-.51.57-.72c0-.22-.19-.33-.57-.34v-.18h2v.18a1.43,1.43,0,0,0-.49.1,1.92,1.92,0,0,0-.46.27c-.14.11-.39.34-.77.69l-1,.89,2,2a6.53,6.53,0,0,0,.91.83,1.07,1.07,0,0,0,.6.15v.18H451.5v-.18h.1a1.21,1.21,0,0,0,.56-.08.22.22,0,0,0,.11-.18c0-.11-.19-.35-.57-.73l-1.49-1.51-.38.33v1a7,7,0,0,0,0,.82.4.4,0,0,0,.16.28.78.78,0,0,0,.48.1h.1v.18h-2.37v-.18h.16a.88.88,0,0,0,.47-.09.42.42,0,0,0,.17-.27,6.9,6.9,0,0,0,0-.84v-2.6a4.81,4.81,0,0,0,0-.84.31.31,0,0,0-.16-.24,1.59,1.59,0,0,0-.56-.06v-.18h2.34v.18h-.1a1.37,1.37,0,0,0-.51.06.38.38,0,0,0-.16.24,4.81,4.81,0,0,0,0,.84Z"/><path class="cls-4" d="M457.15,247.69h-2.23c0,.15,0,.27,0,.34a2.48,2.48,0,0,0,.26,1.27.88.88,0,0,0,.79.42,1,1,0,0,0,1-.63h.19a1.13,1.13,0,0,1-.5.62,1.55,1.55,0,0,1-.81.23,1.51,1.51,0,0,1-.77-.21,1.64,1.64,0,0,1-.82-1.49,1.84,1.84,0,0,1,.45-1.26,1.43,1.43,0,0,1,1.11-.5,1.25,1.25,0,0,1,1,.38A1.36,1.36,0,0,1,457.15,247.69Zm-.69-.16a1,1,0,0,0,0-.16.68.68,0,0,0-.21-.53.66.66,0,0,0-.49-.19c-.47,0-.76.29-.85.88Z"/><path class="cls-4" d="M459.37,249.2l.75-1.78a4.33,4.33,0,0,0,.16-.43c0-.13-.15-.2-.44-.2v-.18H461v.18a.5.5,0,0,0-.39.14,2,2,0,0,0-.3.56l-1.42,3.44a2.9,2.9,0,0,1-.36.67.47.47,0,0,1-.35.18c-.17,0-.25-.08-.25-.24s.14-.32.41-.44a1.37,1.37,0,0,0,.32-.18.8.8,0,0,0,.15-.27l.31-.77-1.2-2.57a1.44,1.44,0,0,0-.27-.43.56.56,0,0,0-.36-.09v-.18h1.47v.18c-.26,0-.39.06-.39.16a1.78,1.78,0,0,0,.15.38Z"/><path class="cls-4" d="M390.28,230.25l0,1.56h-4.5v-.18h.16a.9.9,0,0,0,.47-.09.37.37,0,0,0,.16-.27,4.81,4.81,0,0,0,0-.84v-2.6a4.75,4.75,0,0,0,0-.82.34.34,0,0,0-.15-.25,1.16,1.16,0,0,0-.52-.07h-.12v-.18h2.54v.18h-.23a1.37,1.37,0,0,0-.51.06.4.4,0,0,0-.17.24,6.16,6.16,0,0,0,0,.84v2.77a4.82,4.82,0,0,0,0,.72.39.39,0,0,0,.17.23,1.53,1.53,0,0,0,.6.08h.4a2.2,2.2,0,0,0,.73-.09,1,1,0,0,0,.45-.37,3.14,3.14,0,0,0,.39-.92Z"/><path class="cls-4" d="M393.54,229.69h-2.23c0,.15,0,.27,0,.34a2.38,2.38,0,0,0,.27,1.27.87.87,0,0,0,.79.43,1,1,0,0,0,1-.64h.19a1.09,1.09,0,0,1-.5.62,1.49,1.49,0,0,1-.8.23,1.51,1.51,0,0,1-.77-.21,1.64,1.64,0,0,1-.82-1.49,1.83,1.83,0,0,1,.44-1.26,1.45,1.45,0,0,1,1.11-.5,1.27,1.27,0,0,1,1,.38A1.29,1.29,0,0,1,393.54,229.69Zm-.68-.16c0-.06,0-.11,0-.16a.72.72,0,0,0-.2-.53.69.69,0,0,0-.5-.19c-.47,0-.75.3-.84.88Z"/><path class="cls-4" d="M396.59,228.89a.92.92,0,0,1,.67-.38.4.4,0,0,1,.29.11.28.28,0,0,1,.1.22c0,.17-.07.26-.23.26a.27.27,0,0,1-.22-.16q-.09-.15-.18-.15a.5.5,0,0,0-.33.2,1.28,1.28,0,0,1,.2.68,1.2,1.2,0,0,1-.33.83,1.62,1.62,0,0,1-1.14.39c-.55,0-.82.13-.82.34s.06.16.18.2a3.79,3.79,0,0,0,.78.09,5.1,5.1,0,0,1,1,.12,1,1,0,0,1,.55.35,1,1,0,0,1,.21.64,1,1,0,0,1-.42.83,2,2,0,0,1-1.22.32,2.1,2.1,0,0,1-1.16-.29.82.82,0,0,1-.44-.71.58.58,0,0,1,.13-.39.43.43,0,0,1,.35-.15l.12,0a.81.81,0,0,0-.25.56.67.67,0,0,0,.33.57,1.66,1.66,0,0,0,1,.23,1.52,1.52,0,0,0,.89-.23.7.7,0,0,0,.32-.59.58.58,0,0,0-.29-.55,2.64,2.64,0,0,0-1-.18,2.6,2.6,0,0,1-1.09-.21.52.52,0,0,1-.25-.44c0-.34.24-.55.72-.64a1.73,1.73,0,0,1-.56-.5,1.17,1.17,0,0,1-.19-.63,1.08,1.08,0,0,1,.39-.83,1.32,1.32,0,0,1,.91-.34A1.41,1.41,0,0,1,396.59,228.89Zm-1.76.85a1.09,1.09,0,0,0,.21.74.69.69,0,0,0,1,0,1.14,1.14,0,0,0,.22-.81,1.08,1.08,0,0,0-.23-.79.7.7,0,0,0-.51-.22.61.61,0,0,0-.54.27A1.47,1.47,0,0,0,394.83,229.74Z"/><path class="cls-4" d="M400.79,229.69h-2.23c0,.15,0,.27,0,.34a2.38,2.38,0,0,0,.27,1.27.87.87,0,0,0,.79.43,1,1,0,0,0,1-.64h.19a1.09,1.09,0,0,1-.5.62,1.49,1.49,0,0,1-.8.23,1.51,1.51,0,0,1-.77-.21,1.64,1.64,0,0,1-.82-1.49,1.83,1.83,0,0,1,.44-1.26,1.45,1.45,0,0,1,1.11-.5,1.27,1.27,0,0,1,1,.38A1.29,1.29,0,0,1,400.79,229.69Zm-.68-.16c0-.06,0-.11,0-.16a.72.72,0,0,0-.2-.53.69.69,0,0,0-.5-.19c-.47,0-.75.3-.84.88Z"/><path class="cls-4" d="M402.2,228.48h.1a1.91,1.91,0,0,1,.1.66,2.21,2.21,0,0,1,.59-.5,1.36,1.36,0,0,1,.65-.16,1.14,1.14,0,0,1,.63.16.76.76,0,0,1,.31.39,2.39,2.39,0,0,1,.07.68v1c0,.37,0,.6,0,.68a.23.23,0,0,0,.12.18.85.85,0,0,0,.38.06v.18h-1.63v-.18h.07a.61.61,0,0,0,.37-.08.32.32,0,0,0,.1-.2c0-.07,0-.28,0-.64v-1a2.35,2.35,0,0,0,0-.54.47.47,0,0,0-.2-.29.66.66,0,0,0-.41-.12,1,1,0,0,0-.55.17,2,2,0,0,0-.49.5v1.31a4.24,4.24,0,0,0,0,.68.23.23,0,0,0,.12.18.87.87,0,0,0,.39.06v.18h-1.62v-.18a.8.8,0,0,0,.37-.06.21.21,0,0,0,.13-.16,4.39,4.39,0,0,0,0-.7v-1c0-.38,0-.6,0-.68a.27.27,0,0,0-.13-.18.82.82,0,0,0-.38-.06v-.18A4.92,4.92,0,0,0,402.2,228.48Z"/><path class="cls-4" d="M408.35,229V227.7c0-.34,0-.56,0-.65a.28.28,0,0,0-.12-.2.57.57,0,0,0-.34-.07h-.09v-.18a4.63,4.63,0,0,0,1-.16h.08v4.3c0,.37,0,.6,0,.68a.26.26,0,0,0,.12.18.91.91,0,0,0,.39.05v.18a5.89,5.89,0,0,0-1,.11,2.69,2.69,0,0,1-.05-.58,2.06,2.06,0,0,1-.59.43,1.46,1.46,0,0,1-.64.15,1.41,1.41,0,0,1-1.07-.5,1.76,1.76,0,0,1-.45-1.21,1.74,1.74,0,0,1,.46-1.27,1.49,1.49,0,0,1,1.1-.48,1.72,1.72,0,0,1,1.16.47Zm0,.22a2,2,0,0,0-.52-.33,1.39,1.39,0,0,0-.52-.11.94.94,0,0,0-.74.34,1.74,1.74,0,0,0-.29,1.11,1.82,1.82,0,0,0,.3,1.15.92.92,0,0,0,.75.37,1.15,1.15,0,0,0,.55-.14,1.41,1.41,0,0,0,.47-.42Z"/><path class="cls-4" d="M410.1,228.81a.44.44,0,0,1,.12-.3.42.42,0,0,1,.72.3.4.4,0,0,1-.12.29.41.41,0,0,1-.6,0A.4.4,0,0,1,410.1,228.81Zm0,2.7a.37.37,0,0,1,.13-.29.4.4,0,0,1,.29-.12.41.41,0,0,1,.3.12.4.4,0,0,1,.12.29.41.41,0,0,1-.12.3.39.39,0,0,1-.3.13.43.43,0,0,1-.3-.13A.41.41,0,0,1,410.1,231.51Z"/><line class="cls-5" x1="258.39" y1="45.62" x2="280.23" y2="54.8"/><polyline class="cls-6" points="279.13 51.33 280.66 55.11 276.75 56.69"/><path class="cls-4" d="M240.19,97.91h.3v3.25h-.3a2.57,2.57,0,0,0-.44-1,4,4,0,0,1-3.12,1.38,4.45,4.45,0,0,1-3.29-1.27,4.54,4.54,0,0,1-1.27-3.36,5.88,5.88,0,0,1,.58-2.59,4,4,0,0,1,1.64-1.8A4.73,4.73,0,0,1,236.6,92a4,4,0,0,1,1.89.43,3.71,3.71,0,0,1,1.26,1,3.29,3.29,0,0,0,.35-1.21h.31l.08,3.52h-.3A4,4,0,0,0,238.94,93a3.38,3.38,0,0,0-2.14-.73,2.7,2.7,0,0,0-2.31,1.18,5.73,5.73,0,0,0-.86,3.39,4.78,4.78,0,0,0,.94,3.19,2.92,2.92,0,0,0,2.33,1.11,3.59,3.59,0,0,0,1.52-.36,2.68,2.68,0,0,0,1.24-1.23A4.5,4.5,0,0,0,240.19,97.91Z"/><path class="cls-4" d="M243.56,99.15h.17v4.14c0,.35,0,.56,0,.65a.27.27,0,0,0,.11.2.61.61,0,0,0,.35.07h.15v.18h-1.76v-.18h.13a.54.54,0,0,0,.37-.08.32.32,0,0,0,.1-.19c0-.07,0-.29,0-.65v-2.78c0-.35,0-.56,0-.64a.32.32,0,0,0-.1-.19.54.54,0,0,0-.37-.08h-.16v-.18A1.68,1.68,0,0,0,243.56,99.15Z"/><path class="cls-4" d="M247.56,99.15h.17v4.14c0,.35,0,.56,0,.65a.27.27,0,0,0,.11.2.61.61,0,0,0,.35.07h.15v.18h-1.76v-.18h.13a.54.54,0,0,0,.37-.08.32.32,0,0,0,.1-.19c0-.07,0-.29,0-.65v-2.78c0-.35,0-.56,0-.64a.32.32,0,0,0-.1-.19.54.54,0,0,0-.37-.08h-.16v-.18A1.68,1.68,0,0,0,247.56,99.15Z"/><path class="cls-4" d="M77.81,96.29a4,4,0,0,1,2.34.78,2.15,2.15,0,0,1,.77,1.68,2.35,2.35,0,0,1-.52,1.51,2.41,2.41,0,0,1-1.33.82,9.63,9.63,0,0,1-2.17.2H73.26V101h.35a1.62,1.62,0,0,0,.83-.15.68.68,0,0,0,.29-.46,10.86,10.86,0,0,0,.06-1.48V94.35a10.51,10.51,0,0,0-.06-1.45.65.65,0,0,0-.28-.45,2,2,0,0,0-.91-.13h-.18V92l1.53,0,1.73-.06c2.54,0,3.8.73,3.8,2.19a1.78,1.78,0,0,1-.65,1.45A3.87,3.87,0,0,1,77.81,96.29Zm-1.68-.13h.29a3.18,3.18,0,0,0,2-.47A1.88,1.88,0,0,0,79,94.2a2.4,2.4,0,0,0-.21-1.12,1.45,1.45,0,0,0-.63-.62,3.59,3.59,0,0,0-1.45-.21l-.55,0Zm0,.33v2.07c0,.88,0,1.44.05,1.67a.86.86,0,0,0,.25.54,1.28,1.28,0,0,0,.83.19,2.22,2.22,0,0,0,1.64-.56,2.36,2.36,0,0,0,.55-1.68,2.17,2.17,0,0,0-.62-1.7,3.37,3.37,0,0,0-2.18-.54Z"/><path class="cls-4" d="M83.87,101.61a1.45,1.45,0,0,1,.91.42,1.21,1.21,0,0,1,.4,1,1.26,1.26,0,0,1-.48,1,1.85,1.85,0,0,1-1.17.38,1.72,1.72,0,0,1-1.17-.41,1.33,1.33,0,0,1-.13-1.9,1.61,1.61,0,0,1,.92-.49,1.47,1.47,0,0,1-.78-.46,1.25,1.25,0,0,1,.11-1.76,1.56,1.56,0,0,1,1-.36,1.62,1.62,0,0,1,1,.36,1.13,1.13,0,0,1,.45.94,1.24,1.24,0,0,1-.29.81A1.59,1.59,0,0,1,83.87,101.61Zm-1.33,1.33a2.2,2.2,0,0,0,.08.7.8.8,0,0,0,.31.42.93.93,0,0,0,.58.17,1.08,1.08,0,0,0,.73-.25,1.28,1.28,0,0,0,.29-1,1.37,1.37,0,0,0-.29-1,1.06,1.06,0,0,0-.75-.27.8.8,0,0,0-.71.33A1.5,1.5,0,0,0,82.54,102.94Zm.13-2.69a1.78,1.78,0,0,0,.21,1,.69.69,0,0,0,.61.32.81.81,0,0,0,.68-.31,1.57,1.57,0,0,0,.22-.9,1.3,1.3,0,0,0-.23-.83.85.85,0,0,0-1.25,0A1.13,1.13,0,0,0,82.67,100.25Z"/><path class="cls-4" d="M129.14,96.29a4,4,0,0,1,2.34.78,2.15,2.15,0,0,1,.77,1.68,2.35,2.35,0,0,1-.52,1.51,2.41,2.41,0,0,1-1.33.82,9.63,9.63,0,0,1-2.17.2h-3.64V101H125a1.6,1.6,0,0,0,.82-.15.68.68,0,0,0,.29-.46,10.86,10.86,0,0,0,.06-1.48V94.35a10.51,10.51,0,0,0-.06-1.45.65.65,0,0,0-.28-.45,1.94,1.94,0,0,0-.91-.13h-.18V92l1.53,0,1.73-.06q3.81,0,3.81,2.19a1.79,1.79,0,0,1-.66,1.45A3.87,3.87,0,0,1,129.14,96.29Zm-1.68-.13h.29a3.21,3.21,0,0,0,2-.47,1.88,1.88,0,0,0,.54-1.5,2.27,2.27,0,0,0-.22-1.12,1.45,1.45,0,0,0-.63-.62,3.56,3.56,0,0,0-1.45-.21l-.55,0Zm0,.33v2.07c0,.88,0,1.44.05,1.67a.82.82,0,0,0,.26.54,1.24,1.24,0,0,0,.82.19,2.2,2.2,0,0,0,1.64-.56,2.31,2.31,0,0,0,.55-1.68,2.17,2.17,0,0,0-.62-1.7,3.35,3.35,0,0,0-2.18-.54Z"/><path class="cls-4" d="M135.83,101.81a1.53,1.53,0,0,1-.5.43,1.16,1.16,0,0,1-.57.15,1.45,1.45,0,0,1-1.09-.48,1.64,1.64,0,0,1-.46-1.19,1.77,1.77,0,0,1,.44-1.19,1.48,1.48,0,0,1,1.14-.5,1.44,1.44,0,0,1,1,.37,1.93,1.93,0,0,1,.56.93,4.07,4.07,0,0,1,.17,1.16,3.77,3.77,0,0,1-.55,2.08,1.66,1.66,0,0,1-1.46.84,1.48,1.48,0,0,1-.76-.19c-.21-.12-.32-.26-.32-.42a.2.2,0,0,1,.22-.22q.2,0,.33.27a.67.67,0,0,0,.64.36,1,1,0,0,0,.92-.55,3.36,3.36,0,0,0,.31-1.64A1.62,1.62,0,0,0,135.83,101.81Zm0-1a2.76,2.76,0,0,0-.1-.75,1.14,1.14,0,0,0-.36-.59.83.83,0,0,0-.56-.21.81.81,0,0,0-.73.39,2.22,2.22,0,0,0-.24,1.17,2.54,2.54,0,0,0,.09.76.92.92,0,0,0,.34.46.89.89,0,0,0,.54.19,1,1,0,0,0,.72-.31A1.59,1.59,0,0,0,135.85,100.77Z"/><path class="cls-4" d="M396.33,92.16l1.53-.07c1.27-.06,2.13-.1,2.57-.1a6.79,6.79,0,0,1,3.22.63,4.11,4.11,0,0,1,1.72,1.71,5.78,5.78,0,0,1,.25,4.35,3.82,3.82,0,0,1-.84,1.4,3.59,3.59,0,0,1-1.24.84,5,5,0,0,1-1.35.37c-.42,0-1,.07-1.79.07h-4.11V101h.39a1.6,1.6,0,0,0,.82-.15.68.68,0,0,0,.29-.46,8.92,8.92,0,0,0,.07-1.48V94.48a8.56,8.56,0,0,0-.07-1.44.6.6,0,0,0-.27-.44,2.17,2.17,0,0,0-.91-.12h-.28Zm2.86.2v6.19c0,.92,0,1.51.05,1.77a.76.76,0,0,0,.31.56,2.44,2.44,0,0,0,1.08.16,5.13,5.13,0,0,0,2-.33,2.76,2.76,0,0,0,1.31-1.31,5.33,5.33,0,0,0,.52-2.48,6.44,6.44,0,0,0-.31-2.1,3.67,3.67,0,0,0-.87-1.5,2.89,2.89,0,0,0-1.26-.79,6.21,6.21,0,0,0-1.77-.21C399.9,92.32,399.55,92.33,399.19,92.36Z"/><path class="cls-4" d="M408.79,99.11H409v4.15c0,.34,0,.56,0,.65a.31.31,0,0,0,.11.2.61.61,0,0,0,.35.07h.15v.18h-1.76v-.18H408a.61.61,0,0,0,.37-.08.28.28,0,0,0,.09-.19c0-.08,0-.29,0-.65v-2.78c0-.35,0-.56,0-.64a.3.3,0,0,0-.1-.19.53.53,0,0,0-.37-.09h-.17v-.18A1.66,1.66,0,0,0,408.79,99.11Z"/><path class="cls-4" d="M411.11,104.36v-.24a11,11,0,0,0,1.12-1.1,7.21,7.21,0,0,0,1-1.3,2.29,2.29,0,0,0,.3-1.11,1.39,1.39,0,0,0-.31-1,1,1,0,0,0-.76-.31.85.85,0,0,0-.69.29.92.92,0,0,0-.24.61.71.71,0,0,0,.32.6c.07.05.11.09.11.12s0,.11-.13.19a.37.37,0,0,1-.22.12c-.08,0-.17-.08-.28-.23a1,1,0,0,1-.17-.61,1.13,1.13,0,0,1,.47-1,1.68,1.68,0,0,1,1-.35,1.62,1.62,0,0,1,1.05.37,1.25,1.25,0,0,1,.47,1.07,1.85,1.85,0,0,1-.21.86,6.29,6.29,0,0,1-1,1.23c-.54.55-1,1-1.31,1.25h2.48l-.22.88h-.18a.39.39,0,0,1,0-.15.28.28,0,0,0,0-.1c0-.08,0-.13-.05-.14a1.16,1.16,0,0,0-.27,0Z"/><line class="cls-7" x1="122.74" y1="127.25" x2="122.74" y2="145.74"/><polyline class="cls-8" points="120.06 143.45 122.85 146.25 125.72 143.38"/><line class="cls-7" x1="230.8" y1="127.25" x2="230.8" y2="145.74"/><polyline class="cls-8" points="228.12 143.45 230.91 146.25 233.78 143.38"/><line class="cls-7" x1="397.35" y1="127.25" x2="397.35" y2="145.74"/><polyline class="cls-8" points="394.66 143.45 397.46 146.25 400.33 143.38"/><path class="cls-4" d="M241.38,170.69l.07,2.31h-.32a2.73,2.73,0,0,0-.43-1.25,1.46,1.46,0,0,0-.69-.62,4.33,4.33,0,0,0-1.22-.12H237v3.93h.86a1.59,1.59,0,0,0,1.12-.29,1.61,1.61,0,0,0,.28-1.13h.34v3.26h-.34a3,3,0,0,0-.12-.94.81.81,0,0,0-.36-.47,2.29,2.29,0,0,0-.92-.12H237v2.3A11,11,0,0,0,237,179a.73.73,0,0,0,.28.5,1.5,1.5,0,0,0,.85.17h.32V180h-4.31v-.31h.29a1.58,1.58,0,0,0,.82-.15.71.71,0,0,0,.3-.47,10.76,10.76,0,0,0,.06-1.48V173a10.36,10.36,0,0,0-.06-1.43.65.65,0,0,0-.28-.44,2.17,2.17,0,0,0-.91-.12h-.16v-.32Z"/><path class="cls-4" d="M243.66,177.72h.17v4.14c0,.35,0,.56,0,.65a.25.25,0,0,0,.12.2.57.57,0,0,0,.34.07h.16V183H242.7v-.18h.13c.18,0,.31,0,.36-.08a.27.27,0,0,0,.1-.19c0-.07,0-.29,0-.65v-2.78c0-.35,0-.56,0-.64a.32.32,0,0,0-.1-.19.53.53,0,0,0-.36-.08h-.17V178A1.68,1.68,0,0,0,243.66,177.72Z"/><path class="cls-4" d="M247.66,177.72h.17v4.14c0,.35,0,.56,0,.65a.25.25,0,0,0,.12.2.57.57,0,0,0,.34.07h.16V183H246.7v-.18h.13c.18,0,.31,0,.36-.08a.27.27,0,0,0,.1-.19c0-.07,0-.29,0-.65v-2.78c0-.35,0-.56,0-.64a.32.32,0,0,0-.1-.19.53.53,0,0,0-.36-.08h-.17V178A1.68,1.68,0,0,0,247.66,177.72Z"/><path class="cls-4" d="M132.51,170.69l.08,2.31h-.33a2.84,2.84,0,0,0-.42-1.25,1.43,1.43,0,0,0-.7-.62,4.33,4.33,0,0,0-1.22-.12h-1.81v3.93H129a1.56,1.56,0,0,0,1.11-.29,1.61,1.61,0,0,0,.28-1.13h.34v3.26h-.34a3,3,0,0,0-.12-.94.84.84,0,0,0-.35-.47,2.36,2.36,0,0,0-.92-.12h-.87v2.3a13.27,13.27,0,0,0,0,1.43.73.73,0,0,0,.28.5,1.54,1.54,0,0,0,.86.17h.31V180h-4.3v-.31h.28a1.65,1.65,0,0,0,.83-.15.7.7,0,0,0,.29-.47,10.16,10.16,0,0,0,.07-1.48V173a9.8,9.8,0,0,0-.07-1.43.6.6,0,0,0-.27-.44,2.22,2.22,0,0,0-.92-.12h-.16v-.32Z"/><path class="cls-4" d="M135.61,180.49a1.71,1.71,0,0,1-.51.44,1.22,1.22,0,0,1-.56.14,1.45,1.45,0,0,1-1.09-.48,1.61,1.61,0,0,1-.46-1.19,1.74,1.74,0,0,1,.44-1.18,1.45,1.45,0,0,1,1.14-.5,1.4,1.4,0,0,1,1,.37,2,2,0,0,1,.56.93,4,4,0,0,1,.16,1.15,3.76,3.76,0,0,1-.54,2.08,1.66,1.66,0,0,1-1.46.84,1.45,1.45,0,0,1-.76-.19c-.22-.12-.33-.26-.33-.41s.08-.22.23-.22.24.09.33.26a.67.67,0,0,0,.64.37,1,1,0,0,0,.92-.55,3.43,3.43,0,0,0,.31-1.65A1.7,1.7,0,0,0,135.61,180.49Zm0-1a2.76,2.76,0,0,0-.1-.75,1.18,1.18,0,0,0-.36-.59.85.85,0,0,0-.56-.21.81.81,0,0,0-.73.39,2.27,2.27,0,0,0-.24,1.17,2.61,2.61,0,0,0,.09.77.94.94,0,0,0,.34.46.88.88,0,0,0,.54.18,1,1,0,0,0,.72-.31A1.57,1.57,0,0,0,135.63,179.45Z"/><line class="cls-7" x1="269.33" y1="206.43" x2="261.64" y2="225.62"/><polyline class="cls-8" points="260 222.5 261.55 226.13 265.28 224.53"/><line class="cls-7" x1="317.05" y1="206.43" x2="324.65" y2="225.36"/><polyline class="cls-8" points="326.28 222.24 324.73 225.87 321 224.28"/><path class="cls-4" d="M51.4,177.35h.33l-.2,2.88H43.85v-.31H44a1.37,1.37,0,0,0,.89-.19.82.82,0,0,0,.26-.46,10,10,0,0,0,.06-1.45v-4.55a9.94,9.94,0,0,0-.06-1.39.67.67,0,0,0-.27-.47,1.87,1.87,0,0,0-.88-.13V171h6.63l.21,2.31h-.32A3.56,3.56,0,0,0,50,171.9a1.42,1.42,0,0,0-.76-.52,6.76,6.76,0,0,0-1.41-.1H46.58v3.89h1a2.61,2.61,0,0,0,.95-.12.58.58,0,0,0,.35-.35,3,3,0,0,0,.09-.92h.32V177H49a2.6,2.6,0,0,0-.13-1,.65.65,0,0,0-.38-.35,3.36,3.36,0,0,0-.84-.07h-1v2.19a4.82,4.82,0,0,0,.21,1.94c.14.19.52.29,1.14.29h.69a3.23,3.23,0,0,0,1.21-.19,2.09,2.09,0,0,0,.89-.77A4.56,4.56,0,0,0,51.4,177.35Z"/><path class="cls-4" d="M54.49,180.57a1.5,1.5,0,0,1,.91.41,1.22,1.22,0,0,1,.4,1,1.26,1.26,0,0,1-.48,1,1.79,1.79,0,0,1-1.17.38A1.71,1.71,0,0,1,53,183a1.26,1.26,0,0,1-.47-1,1.32,1.32,0,0,1,.33-.9,1.67,1.67,0,0,1,.93-.48,1.49,1.49,0,0,1-.78-.47,1.24,1.24,0,0,1,.11-1.75,1.56,1.56,0,0,1,1-.36,1.63,1.63,0,0,1,1,.35,1.14,1.14,0,0,1,.45.94,1.2,1.2,0,0,1-.29.81A1.54,1.54,0,0,1,54.49,180.57Zm-1.33,1.33a2.17,2.17,0,0,0,.08.69.83.83,0,0,0,.31.43,1,1,0,0,0,.58.17,1.13,1.13,0,0,0,.73-.25,1.33,1.33,0,0,0,.28-1,1.39,1.39,0,0,0-.28-1,1.06,1.06,0,0,0-.75-.26.83.83,0,0,0-.72.33A1.58,1.58,0,0,0,53.16,181.9Zm.13-2.69a1.74,1.74,0,0,0,.21.95.68.68,0,0,0,.61.32.8.8,0,0,0,.68-.3,1.63,1.63,0,0,0,.22-.91,1.32,1.32,0,0,0-.23-.83.85.85,0,0,0-1.25,0A1.16,1.16,0,0,0,53.29,179.21Z"/><line class="cls-7" x1="54.92" y1="127.79" x2="47.23" y2="146.98"/><polyline class="cls-8" points="45.59 143.86 47.15 147.49 50.88 145.9"/><line class="cls-7" x1="176.6" y1="206.69" x2="176.6" y2="225.18"/><polyline class="cls-8" points="173.92 222.89 176.72 225.69 179.59 222.82"/><path class="cls-4" d="M395.29,245.45h2v.15h-.11a1.19,1.19,0,0,0-.41.05.29.29,0,0,0-.12.19,4,4,0,0,0,0,.67v2.78a5.74,5.74,0,0,1,0,.82,1.3,1.3,0,0,1-.23.55,1.42,1.42,0,0,1-.52.41,2,2,0,0,1-.76.14,1.31,1.31,0,0,1-.74-.18.49.49,0,0,1-.26-.42.31.31,0,0,1,.1-.24.27.27,0,0,1,.22-.1.32.32,0,0,1,.23.09.3.3,0,0,1,.1.22.47.47,0,0,1,0,.16.24.24,0,0,0,0,.12q0,.09.12.15a.67.67,0,0,0,.3.06.88.88,0,0,0,.6-.23.91.91,0,0,0,.29-.53,7.86,7.86,0,0,0,0-1v-2.78a4.21,4.21,0,0,0,0-.65.31.31,0,0,0-.12-.21,1.22,1.22,0,0,0-.42-.05h-.1Z"/><path class="cls-4" d="M397.6,249.16l.16-.49h.06a.05.05,0,0,0,0,.05h1.06l-.64,2a1.35,1.35,0,0,1-.16.38.14.14,0,0,1-.11.06.1.1,0,0,1-.11-.11,1.19,1.19,0,0,1,.1-.28l.05-.1.72-1.67h-.95l-.06,0a.62.62,0,0,0-.06.15Z"/><circle class="cls-9" cx="396.51" cy="248.07" r="7.33"/><polyline class="cls-8" points="406.89 286.81 409.69 284.01 406.82 281.14"/><line class="cls-10" x1="386.15" y1="301.5" x2="409.2" y2="301.5"/><polyline class="cls-8" points="406.91 304.19 409.7 301.39 406.83 298.52"/><path class="cls-4" d="M426.22,265.69h.17v1.85h-.17A1.33,1.33,0,0,0,426,267a2.28,2.28,0,0,1-1.78.78,2.56,2.56,0,0,1-1.88-.72,2.59,2.59,0,0,1-.73-1.92,3.25,3.25,0,0,1,.34-1.48,2.2,2.2,0,0,1,.94-1,2.6,2.6,0,0,1,1.32-.34,2.25,2.25,0,0,1,1.07.25,2.12,2.12,0,0,1,.72.54,2.12,2.12,0,0,0,.21-.69h.17l.05,2h-.17a2.28,2.28,0,0,0-.72-1.49,1.94,1.94,0,0,0-1.22-.42,1.55,1.55,0,0,0-1.32.68,3.22,3.22,0,0,0-.49,1.93,2.81,2.81,0,0,0,.53,1.83,1.68,1.68,0,0,0,1.33.63,2.06,2.06,0,0,0,.88-.21,1.48,1.48,0,0,0,.7-.7A2.64,2.64,0,0,0,426.22,265.69Z"/><path class="cls-4" d="M427.21,266.07a1.67,1.67,0,0,1,.49-1.23,1.64,1.64,0,0,1,1.21-.49,1.66,1.66,0,0,1,1.22.49,1.68,1.68,0,0,1,.49,1.23,1.66,1.66,0,0,1-.5,1.27,1.72,1.72,0,0,1-1.21.47,1.68,1.68,0,0,1-1.7-1.74Zm.65,0a1.87,1.87,0,0,0,.28,1.19.93.93,0,0,0,.77.35,1,1,0,0,0,.79-.35,2,2,0,0,0,.27-1.19,2,2,0,0,0-.27-1.2,1,1,0,0,0-1.57,0A2,2,0,0,0,427.86,266.09Z"/><path class="cls-4" d="M432,264.35h.11a2.18,2.18,0,0,1,.1.66,2.07,2.07,0,0,1,.59-.5,1.36,1.36,0,0,1,.65-.16,1.08,1.08,0,0,1,.62.16.79.79,0,0,1,.32.39,2.83,2.83,0,0,1,.07.68v1a4.69,4.69,0,0,0,0,.67.23.23,0,0,0,.12.19.85.85,0,0,0,.38.06v.18h-1.64v-.18h.08a.53.53,0,0,0,.37-.09.26.26,0,0,0,.09-.19c0-.07,0-.28,0-.64v-1a3.31,3.31,0,0,0,0-.54.51.51,0,0,0-.2-.29.69.69,0,0,0-.41-.13,1,1,0,0,0-.55.17,2,2,0,0,0-.49.51v1.31c0,.37,0,.59,0,.67a.27.27,0,0,0,.13.19.82.82,0,0,0,.38.06v.18h-1.61v-.18a.83.83,0,0,0,.37-.06.23.23,0,0,0,.13-.16,4.39,4.39,0,0,0,0-.7v-.95c0-.38,0-.6,0-.68a.27.27,0,0,0-.13-.18.85.85,0,0,0-.38-.06v-.18A4.82,4.82,0,0,0,432,264.35Z"/><path class="cls-4" d="M436.26,264.35h.11a2.18,2.18,0,0,1,.1.66,2.07,2.07,0,0,1,.59-.5,1.36,1.36,0,0,1,.65-.16,1.08,1.08,0,0,1,.62.16.79.79,0,0,1,.32.39,2.83,2.83,0,0,1,.07.68v1a4.69,4.69,0,0,0,0,.67.23.23,0,0,0,.12.19.85.85,0,0,0,.38.06v.18H437.6v-.18h.08a.53.53,0,0,0,.37-.09.26.26,0,0,0,.09-.19c0-.07,0-.28,0-.64v-1a3.31,3.31,0,0,0,0-.54.51.51,0,0,0-.2-.29.69.69,0,0,0-.41-.13,1,1,0,0,0-.55.17,2,2,0,0,0-.49.51v1.31c0,.37,0,.59,0,.67a.27.27,0,0,0,.13.19.82.82,0,0,0,.38.06v.18h-1.61v-.18a.83.83,0,0,0,.37-.06.23.23,0,0,0,.13-.16,4.39,4.39,0,0,0,0-.7v-.95c0-.38,0-.6,0-.68a.27.27,0,0,0-.13-.18.85.85,0,0,0-.38-.06v-.18A4.82,4.82,0,0,0,436.26,264.35Z"/><path class="cls-4" d="M442.61,265.56h-2.23c0,.15,0,.27,0,.34a2.38,2.38,0,0,0,.27,1.27.85.85,0,0,0,.78.42,1,1,0,0,0,1-.63h.19a1.13,1.13,0,0,1-.5.62,1.55,1.55,0,0,1-.81.23,1.48,1.48,0,0,1-.76-.21,1.67,1.67,0,0,1-.6-.58,1.73,1.73,0,0,1-.23-.91,1.84,1.84,0,0,1,.45-1.26,1.45,1.45,0,0,1,1.11-.5,1.24,1.24,0,0,1,1,.38A1.36,1.36,0,0,1,442.61,265.56Zm-.69-.16a1,1,0,0,0,0-.16.68.68,0,0,0-.21-.53.66.66,0,0,0-.49-.19c-.47,0-.76.3-.85.88Z"/><path class="cls-4" d="M446,266.9h.17a1.23,1.23,0,0,1-1.33.91,1.59,1.59,0,0,1-1.15-.47,1.66,1.66,0,0,1-.46-1.23,1.7,1.7,0,0,1,.5-1.27,1.64,1.64,0,0,1,1.19-.49,1.61,1.61,0,0,1,.76.18c.24.12.35.27.35.44a.33.33,0,0,1-.06.19.24.24,0,0,1-.19.08c-.17,0-.27-.1-.31-.3a.6.6,0,0,0-.15-.31.62.62,0,0,0-.39-.09.92.92,0,0,0-.79.36,1.83,1.83,0,0,0-.26,1.09,2.08,2.08,0,0,0,.28,1.18,1,1,0,0,0,.86.43A.93.93,0,0,0,446,266.9Z"/><path class="cls-4" d="M448.53,264.66h-1v1.93a2.63,2.63,0,0,0,0,.6.46.46,0,0,0,.44.34.57.57,0,0,0,.49-.32l.12.08a.78.78,0,0,1-.36.38.92.92,0,0,1-.48.14.79.79,0,0,1-.49-.17.66.66,0,0,1-.26-.39,3.45,3.45,0,0,1-.06-.78v-1.81h-.46v-.18a.85.85,0,0,0,.57-.27,1.34,1.34,0,0,0,.33-.74h.12v1h1Z"/><path class="cls-4" d="M450,264.35v2.23c0,.34,0,.56,0,.64a.31.31,0,0,0,.11.21.71.71,0,0,0,.35.07h.08v.18h-1.72v-.18h.13a.57.57,0,0,0,.36-.08.32.32,0,0,0,.1-.19c0-.08,0-.29,0-.65v-1a2.43,2.43,0,0,0-.05-.69.23.23,0,0,0-.14-.15,1.09,1.09,0,0,0-.31,0h-.1v-.18a5.14,5.14,0,0,0,1.08-.21Zm-.75-1.63a.38.38,0,0,1,.12-.29.38.38,0,0,1,.28-.12.41.41,0,0,1,.41.41.4.4,0,0,1-.12.29.38.38,0,0,1-.29.12.38.38,0,0,1-.28-.12A.4.4,0,0,1,449.2,262.72Z"/><path class="cls-4" d="M451,266.07a1.67,1.67,0,0,1,.49-1.23,1.64,1.64,0,0,1,1.21-.49,1.66,1.66,0,0,1,1.22.49,1.68,1.68,0,0,1,.49,1.23,1.66,1.66,0,0,1-.5,1.27,1.72,1.72,0,0,1-1.21.47,1.68,1.68,0,0,1-1.7-1.74Zm.65,0a1.87,1.87,0,0,0,.28,1.19.93.93,0,0,0,.77.35,1,1,0,0,0,.79-.35,2,2,0,0,0,.27-1.19,2,2,0,0,0-.27-1.2,1,1,0,0,0-1.57,0A2,2,0,0,0,451.61,266.09Z"/><path class="cls-4" d="M455.76,264.35h.11a2.18,2.18,0,0,1,.1.66,2.07,2.07,0,0,1,.59-.5,1.36,1.36,0,0,1,.65-.16,1.08,1.08,0,0,1,.62.16.79.79,0,0,1,.32.39,2.83,2.83,0,0,1,.07.68v1a4.69,4.69,0,0,0,0,.67.23.23,0,0,0,.12.19.85.85,0,0,0,.38.06v.18H457.1v-.18h.08a.53.53,0,0,0,.37-.09.26.26,0,0,0,.09-.19c0-.07,0-.28,0-.64v-1a3.31,3.31,0,0,0,0-.54.51.51,0,0,0-.2-.29.69.69,0,0,0-.41-.13,1,1,0,0,0-.55.17,2,2,0,0,0-.49.51v1.31c0,.37,0,.59,0,.67a.27.27,0,0,0,.13.19.82.82,0,0,0,.38.06v.18h-1.61v-.18a.83.83,0,0,0,.37-.06.23.23,0,0,0,.13-.16,4.39,4.39,0,0,0,0-.7v-.95c0-.38,0-.6,0-.68a.27.27,0,0,0-.13-.18.85.85,0,0,0-.38-.06v-.18A4.82,4.82,0,0,0,455.76,264.35Z"/><line class="cls-2" x1="386.72" y1="266.06" x2="409.01" y2="266.06"/><line class="cls-10" x1="259.06" y1="175.88" x2="272.32" y2="175.88"/><polyline class="cls-8" points="270.03 178.56 272.82 175.76 269.95 172.89"/><line class="cls-7" x1="386.15" y1="283.98" x2="409.2" y2="283.98"/><rect class="cls-10" x="1.66" y="73.52" width="153.74" height="47.61"/><rect class="cls-10" x="161.87" y="73.52" width="102.73" height="47.61"/><rect class="cls-10" x="104.16" y="152.23" width="213.11" height="47.61"/><line class="cls-10" x1="204.73" y1="175.88" x2="217.98" y2="175.88"/><polyline class="cls-8" points="215.69 178.56 218.49 175.76 215.62 172.89"/><line class="cls-10" x1="150.69" y1="175.88" x2="163.95" y2="175.88"/><polyline class="cls-8" points="161.66 178.56 164.45 175.76 161.58 172.89"/><line class="cls-10" x1="206.84" y1="97.84" x2="220.09" y2="97.84"/><polyline class="cls-8" points="217.8 100.53 220.6 97.73 217.73 94.86"/><line class="cls-10" x1="98.22" y1="97.84" x2="111.48" y2="97.84"/><polyline class="cls-8" points="109.19 100.53 111.98 97.73 109.12 94.86"/><line class="cls-10" x1="46.63" y1="97.84" x2="59.88" y2="97.84"/><polyline class="cls-8" points="57.59 100.53 60.39 97.73 57.52 94.86"/><line class="cls-10" x1="371.31" y1="97.84" x2="384.56" y2="97.84"/><polyline class="cls-8" points="382.27 100.53 385.07 97.73 382.2 94.86"/><rect class="cls-10" x="327" y="73.52" width="102.73" height="47.61"/><line class="cls-7" x1="180.67" y1="48.16" x2="180.67" y2="66.66"/><polyline class="cls-8" points="177.99 64.37 180.79 67.16 183.66 64.3"/><line class="cls-5" x1="116.77" y1="45.62" x2="94.94" y2="54.8"/><polyline class="cls-6" points="96.03 51.33 94.5 55.11 98.41 56.69"/></g></svg>