<svg xmlns="http://www.w3.org/2000/svg" viewBox="0 0 297.36 280.86"><defs><style>.cls-1{fill:#1d1d1b;}.cls-10,.cls-11,.cls-12,.cls-2,.cls-3,.cls-4,.cls-5,.cls-6,.cls-8,.cls-9{fill:none;}.cls-10,.cls-2,.cls-3,.cls-8,.cls-9{stroke:#1d1d1b;}.cls-10,.cls-12,.cls-2,.cls-3,.cls-5,.cls-8,.cls-9{stroke-linejoin:round;}.cls-2{stroke-width:0.76px;}.cls-3{stroke-width:0.44px;}.cls-4,.cls-5,.cls-6{stroke:#010101;}.cls-11,.cls-12,.cls-4,.cls-5{stroke-linecap:round;}.cls-11,.cls-4,.cls-6{stroke-miterlimit:10;}.cls-10,.cls-11,.cls-12,.cls-4,.cls-5,.cls-8,.cls-9{stroke-width:0.75px;}.cls-6{stroke-width:2px;}.cls-7{fill:#fff;}.cls-9{stroke-dasharray:2.03 2.03;}.cls-10{stroke-dasharray:2.03 2.03;}.cls-11,.cls-12{stroke:#ee737d;}.cls-13{fill:#ee737d;}</style></defs><g id="Layer_1" data-name="Layer 1"><path class="cls-1" d="M17.68,75.36l1.08,0c.91,0,1.52-.07,1.84-.07a4.86,4.86,0,0,1,2.3.45,2.93,2.93,0,0,1,1.23,1.21A4.15,4.15,0,0,1,24.31,80a2.9,2.9,0,0,1-.6,1,2.57,2.57,0,0,1-.89.61,4.32,4.32,0,0,1-1,.26c-.3,0-.73.05-1.28.05H17.65V81.7h.27a1.08,1.08,0,0,0,.59-.11.48.48,0,0,0,.21-.33,7.58,7.58,0,0,0,0-1.06V77a7.15,7.15,0,0,0,0-1,.44.44,0,0,0-.2-.32,1.47,1.47,0,0,0-.65-.09h-.19Zm2,.14v4.42c0,.65,0,1.08,0,1.26a.53.53,0,0,0,.22.4,1.62,1.62,0,0,0,.78.12,3.63,3.63,0,0,0,1.42-.24,2,2,0,0,0,.93-.93,3.76,3.76,0,0,0,.37-1.78,4.64,4.64,0,0,0-.22-1.5,2.68,2.68,0,0,0-.62-1.07,2.16,2.16,0,0,0-.9-.56,4.43,4.43,0,0,0-1.26-.15Q20.1,75.47,19.72,75.5Z"/><path class="cls-1" d="M26.65,77.77v2.78c0,.43,0,.7,0,.81a.33.33,0,0,0,.15.25.74.74,0,0,0,.43.09h.1v.23H25.2V81.7h.17a.67.67,0,0,0,.45-.1.35.35,0,0,0,.12-.24c0-.09,0-.36,0-.81V79.34a3.27,3.27,0,0,0-.07-.86.29.29,0,0,0-.18-.19,1.13,1.13,0,0,0-.38,0H25.2V78a6.32,6.32,0,0,0,1.35-.26Zm-.94-2a.53.53,0,0,1,.15-.37.51.51,0,0,1,.72,0,.57.57,0,0,1,.14.37.52.52,0,0,1-.14.36.51.51,0,0,1-.87-.36Z"/><path class="cls-1" d="M28,82.05V80.74h.19c.22.76.62,1.14,1.19,1.14a.67.67,0,0,0,.55-.23.76.76,0,0,0,.18-.49.69.69,0,0,0-.19-.51,3,3,0,0,0-.78-.49,3,3,0,0,1-.87-.58,1,1,0,0,1-.26-.7,1.17,1.17,0,0,1,.28-.75,1,1,0,0,1,.8-.36,1.06,1.06,0,0,1,.86.42,1.34,1.34,0,0,0,.19-.36h.18v1.24h-.18a1.57,1.57,0,0,0-.38-.76.81.81,0,0,0-.66-.32.64.64,0,0,0-.47.18.58.58,0,0,0-.18.42.59.59,0,0,0,.2.45,2.77,2.77,0,0,0,.75.45,2.08,2.08,0,0,1,1,.73,1.56,1.56,0,0,1,.19.69,1.12,1.12,0,0,1-.35.85,1.2,1.2,0,0,1-.86.33,1.32,1.32,0,0,1-1-.46,1.18,1.18,0,0,0-.21.42Z"/><path class="cls-1" d="M33.62,78.15h-1.2v2.42a3.19,3.19,0,0,0,0,.75.54.54,0,0,0,.2.31.56.56,0,0,0,.34.12.74.74,0,0,0,.61-.4l.16.09a1,1,0,0,1-.45.48,1.19,1.19,0,0,1-.6.17.94.94,0,0,1-.61-.21.9.9,0,0,1-.34-.49,5.26,5.26,0,0,1-.06-1V78.15h-.58v-.22a1.06,1.06,0,0,0,.72-.34,1.63,1.63,0,0,0,.4-.92h.16v1.26h1.2Z"/><path class="cls-1" d="M35.46,78.79a1.63,1.63,0,0,1,.54-.73,1.16,1.16,0,0,1,.73-.29.66.66,0,0,1,.51.2.61.61,0,0,1,.18.41.36.36,0,0,1-.09.24.31.31,0,0,1-.24.1c-.16,0-.28-.12-.37-.36s-.14-.24-.26-.24a.78.78,0,0,0-.5.28,1.32,1.32,0,0,0-.38.6,3.6,3.6,0,0,0-.08.84v.71c0,.43,0,.7,0,.81a.35.35,0,0,0,.14.25.8.8,0,0,0,.44.09h.14v.23H34.1V81.7h.1a.74.74,0,0,0,.42-.08.34.34,0,0,0,.15-.23,7.18,7.18,0,0,0,0-.84V79.43c0-.43,0-.7,0-.81a.36.36,0,0,0-.14-.26.78.78,0,0,0-.44-.09h-.1v-.22a6.58,6.58,0,0,0,1.2-.28A3,3,0,0,1,35.46,78.79Z"/><path class="cls-1" d="M39.05,77.77v2.78c0,.43,0,.7,0,.81a.32.32,0,0,0,.14.25.78.78,0,0,0,.44.09h.1v.23H37.6V81.7h.16c.23,0,.39,0,.45-.1a.32.32,0,0,0,.13-.24c0-.09,0-.36,0-.81V79.34a3.46,3.46,0,0,0-.06-.86c0-.1-.1-.17-.18-.19a1.13,1.13,0,0,0-.38,0H37.6V78A6.32,6.32,0,0,0,39,77.77Zm-.94-2a.53.53,0,0,1,.15-.37.49.49,0,0,1,.36-.15.45.45,0,0,1,.35.15.53.53,0,0,1,.15.37.49.49,0,0,1-.15.36.45.45,0,0,1-.35.15.51.51,0,0,1-.51-.51Z"/><path class="cls-1" d="M40.9,82.09h-.19V76.74a5.75,5.75,0,0,0,0-.76.34.34,0,0,0-.16-.25.84.84,0,0,0-.45-.09v-.22a5,5,0,0,0,.69-.07,2.3,2.3,0,0,0,.55-.14h.11v3.17a2.25,2.25,0,0,1,.69-.46,1.78,1.78,0,0,1,.71-.15,1.84,1.84,0,0,1,1.42.6,2.16,2.16,0,0,1,.55,1.53,2.21,2.21,0,0,1-.57,1.56,1.86,1.86,0,0,1-1.47.63A1.55,1.55,0,0,1,42,81.9a1.52,1.52,0,0,1-.55-.55A2.42,2.42,0,0,0,40.9,82.09Zm.52-3.43v1.57a3,3,0,0,0,.08.87,1,1,0,0,0,.38.51,1.11,1.11,0,0,0,.72.25,1.18,1.18,0,0,0,1-.52A2.58,2.58,0,0,0,44,79.85a2.27,2.27,0,0,0-.35-1.36A1.09,1.09,0,0,0,42.7,78a1.51,1.51,0,0,0-.65.15A2.29,2.29,0,0,0,41.42,78.66Z"/><path class="cls-1" d="M49.31,77.93v2.62a7.28,7.28,0,0,0,0,.82.34.34,0,0,0,.14.25.92.92,0,0,0,.45.08v.23a3.13,3.13,0,0,0-1.09.15h-.06a2,2,0,0,1-.16-.92,2.24,2.24,0,0,1-.68.69,1.58,1.58,0,0,1-.85.24,1.3,1.3,0,0,1-.71-.19,1,1,0,0,1-.42-.44,2,2,0,0,1-.12-.8V79.3a7.73,7.73,0,0,0,0-.85.3.3,0,0,0-.15-.22,1.06,1.06,0,0,0-.48-.08v-.22h1.36V80.7a2.29,2.29,0,0,0,.05.6.54.54,0,0,0,.25.32.78.78,0,0,0,.46.14,1.19,1.19,0,0,0,.72-.25,1.23,1.23,0,0,0,.46-.52,1.85,1.85,0,0,0,.13-.79v-.9c0-.44,0-.7,0-.8a.39.39,0,0,0-.12-.24.7.7,0,0,0-.46-.11h-.1v-.22Z"/><path class="cls-1" d="M52.91,78.15h-1.2v2.42a3.19,3.19,0,0,0,0,.75.54.54,0,0,0,.2.31.56.56,0,0,0,.34.12.74.74,0,0,0,.61-.4l.16.09a1,1,0,0,1-.45.48,1.18,1.18,0,0,1-.59.17,1,1,0,0,1-.62-.21.83.83,0,0,1-.33-.49,4.31,4.31,0,0,1-.07-1V78.15h-.58v-.22a1,1,0,0,0,.72-.34,1.63,1.63,0,0,0,.4-.92h.16v1.26h1.2Z"/><path class="cls-1" d="M54.7,77.77v2.78a7.17,7.17,0,0,0,0,.81.32.32,0,0,0,.14.25.74.74,0,0,0,.43.09h.11v.23H53.24V81.7h.17a.67.67,0,0,0,.45-.1.35.35,0,0,0,.12-.24c0-.09,0-.36,0-.81V79.34a2.86,2.86,0,0,0-.07-.86.3.3,0,0,0-.17-.19,1.2,1.2,0,0,0-.39,0h-.13V78a6.32,6.32,0,0,0,1.35-.26Zm-1-2a.53.53,0,0,1,.15-.37.51.51,0,0,1,.72,0,.53.53,0,0,1,.15.37.51.51,0,0,1-1,0Z"/><path class="cls-1" d="M56,79.92a2.11,2.11,0,0,1,.61-1.54,2.07,2.07,0,0,1,1.52-.61,2,2,0,0,1,1.51.62,2.26,2.26,0,0,1,0,3.12,2.15,2.15,0,0,1-1.5.58,2.12,2.12,0,0,1-1.51-.59A2,2,0,0,1,56,79.92Zm.81,0a2.47,2.47,0,0,0,.34,1.5,1.2,1.2,0,0,0,1,.42,1.17,1.17,0,0,0,1-.42,2.47,2.47,0,0,0,.34-1.5,2.6,2.6,0,0,0-.33-1.5,1.15,1.15,0,0,0-1-.45,1.14,1.14,0,0,0-1,.45A2.51,2.51,0,0,0,56.77,79.94Z"/><path class="cls-1" d="M62,77.77h.13a2.46,2.46,0,0,1,.13.82A2.6,2.6,0,0,1,63,78a1.64,1.64,0,0,1,.8-.2,1.39,1.39,0,0,1,.79.2.88.88,0,0,1,.39.49,3,3,0,0,1,.09.84v1.25c0,.47,0,.75,0,.85a.32.32,0,0,0,.16.23,1,1,0,0,0,.47.07v.23h-2V81.7h.09a.71.71,0,0,0,.46-.1.39.39,0,0,0,.12-.24c0-.09,0-.36,0-.81V79.27a3.39,3.39,0,0,0,0-.68.59.59,0,0,0-.25-.36.84.84,0,0,0-.51-.16,1.2,1.2,0,0,0-.69.22,2.3,2.3,0,0,0-.61.63v1.63a6.53,6.53,0,0,0,0,.85.34.34,0,0,0,.15.23,1.12,1.12,0,0,0,.49.07v.23h-2V81.7a1,1,0,0,0,.47-.07.28.28,0,0,0,.17-.2,6.92,6.92,0,0,0,0-.88V79.36a6.44,6.44,0,0,0,0-.84.32.32,0,0,0-.16-.23,1,1,0,0,0-.48-.07V78A6.3,6.3,0,0,0,62,77.77Z"/><path class="cls-1" d="M19.18,90.44h.21v2.32h-.21a1.71,1.71,0,0,0-.31-.7,2.86,2.86,0,0,1-2.23,1,3.17,3.17,0,0,1-2.35-.91,3.23,3.23,0,0,1-.91-2.4,4.18,4.18,0,0,1,.42-1.85A2.84,2.84,0,0,1,15,86.6a3.32,3.32,0,0,1,1.65-.42,3,3,0,0,1,1.35.31,2.78,2.78,0,0,1,.9.67,2.37,2.37,0,0,0,.25-.85h.22l.05,2.51h-.21A2.82,2.82,0,0,0,18.29,87a2.48,2.48,0,0,0-1.53-.52,1.93,1.93,0,0,0-1.65.85,4,4,0,0,0-.61,2.41A3.44,3.44,0,0,0,15.17,92a2.07,2.07,0,0,0,1.66.79,2.6,2.6,0,0,0,1.09-.26,1.9,1.9,0,0,0,.88-.87A3.27,3.27,0,0,0,19.18,90.44Z"/><path class="cls-1" d="M20.42,90.92A2.12,2.12,0,0,1,21,89.38a2,2,0,0,1,1.51-.61,2,2,0,0,1,1.52.62,2.26,2.26,0,0,1,0,3.12,2.16,2.16,0,0,1-1.51.58,2.1,2.1,0,0,1-1.5-.59A2.06,2.06,0,0,1,20.42,90.92Zm.81,0a2.46,2.46,0,0,0,.35,1.5,1.19,1.19,0,0,0,1,.42,1.17,1.17,0,0,0,1-.42,2.47,2.47,0,0,0,.34-1.5,2.51,2.51,0,0,0-.34-1.5,1.14,1.14,0,0,0-1-.45,1.17,1.17,0,0,0-1,.45A2.59,2.59,0,0,0,21.23,90.94Z"/><path class="cls-1" d="M26.45,88.77h.05a2,2,0,0,1,.14.84,2.43,2.43,0,0,1,.71-.63,1.63,1.63,0,0,1,.81-.21A1.31,1.31,0,0,1,29,89a1.17,1.17,0,0,1,.43.67,3.1,3.1,0,0,1,.77-.67,1.55,1.55,0,0,1,.79-.22,1.43,1.43,0,0,1,.79.21.89.89,0,0,1,.39.49,4.39,4.39,0,0,1,.07.88v1.2c0,.47,0,.75,0,.85a.3.3,0,0,0,.16.23,1.09,1.09,0,0,0,.48.07v.23h-2V92.7a1,1,0,0,0,.45-.07.31.31,0,0,0,.16-.21,6.83,6.83,0,0,0,0-.87V90.22a3,3,0,0,0-.05-.61.59.59,0,0,0-.24-.35.81.81,0,0,0-.51-.15,1.07,1.07,0,0,0-.63.22,2.66,2.66,0,0,0-.65.65v1.57c0,.43,0,.7,0,.81a.34.34,0,0,0,.14.25.73.73,0,0,0,.42.09v.23H28.07V92.7a1,1,0,0,0,.46-.07.29.29,0,0,0,.16-.21,6.6,6.6,0,0,0,0-.87v-1.1a4.74,4.74,0,0,0,0-.77.64.64,0,0,0-.25-.4.78.78,0,0,0-.52-.17,1.15,1.15,0,0,0-.62.19,2.87,2.87,0,0,0-.65.59v1.66c0,.44,0,.72,0,.82a.38.38,0,0,0,.15.25,1,1,0,0,0,.46.08v.23h-2V92.7a1,1,0,0,0,.45-.07.31.31,0,0,0,.16-.21,6.72,6.72,0,0,0,0-.87V90.36a6.44,6.44,0,0,0,0-.84.28.28,0,0,0-.15-.23,1,1,0,0,0-.46-.08V89A5.62,5.62,0,0,0,26.45,88.77Z"/><path class="cls-1" d="M34.48,88.77h.05a2.16,2.16,0,0,1,.14.84,2.4,2.4,0,0,1,.7-.63,1.7,1.7,0,0,1,.82-.21A1.35,1.35,0,0,1,37,89a1.28,1.28,0,0,1,.43.67,2.91,2.91,0,0,1,.76-.67,1.55,1.55,0,0,1,.79-.22,1.41,1.41,0,0,1,.79.21.81.81,0,0,1,.39.49,3.74,3.74,0,0,1,.07.88v1.2a6.53,6.53,0,0,0,0,.85.29.29,0,0,0,.15.23,1.09,1.09,0,0,0,.48.07v.23h-2V92.7a.92.92,0,0,0,.44-.07.31.31,0,0,0,.16-.21,6.83,6.83,0,0,0,0-.87V90.22a2.42,2.42,0,0,0-.05-.61.59.59,0,0,0-.24-.35.8.8,0,0,0-.5-.15,1.08,1.08,0,0,0-.64.22,2.47,2.47,0,0,0-.64.65v1.57c0,.43,0,.7,0,.81a.34.34,0,0,0,.14.25.74.74,0,0,0,.43.09v.23H36.09V92.7a1,1,0,0,0,.46-.07.27.27,0,0,0,.16-.21,6.6,6.6,0,0,0,0-.87v-1.1a4.74,4.74,0,0,0,0-.77.64.64,0,0,0-.25-.4.76.76,0,0,0-.52-.17,1.17,1.17,0,0,0-.62.19,2.84,2.84,0,0,0-.64.59v1.66a7.17,7.17,0,0,0,0,.82.34.34,0,0,0,.14.25,1,1,0,0,0,.46.08v.23h-2V92.7a1,1,0,0,0,.45-.07.31.31,0,0,0,.16-.21,6.72,6.72,0,0,0,0-.87V90.36c0-.46,0-.74,0-.84a.34.34,0,0,0-.15-.23,1,1,0,0,0-.47-.08V89A5.88,5.88,0,0,0,34.48,88.77Z"/><path class="cls-1" d="M42.71,88.77v2.78c0,.43,0,.7,0,.81a.32.32,0,0,0,.14.25.78.78,0,0,0,.44.09h.1v.23H41.25V92.7h.17a.67.67,0,0,0,.45-.1.35.35,0,0,0,.12-.24,6.75,6.75,0,0,0,0-.81V90.34a3.46,3.46,0,0,0-.06-.86.34.34,0,0,0-.18-.19,1.13,1.13,0,0,0-.38,0h-.14V89a6.32,6.32,0,0,0,1.35-.26Zm-.94-2a.53.53,0,0,1,.15-.37.48.48,0,0,1,.36-.15.49.49,0,0,1,.35.15.53.53,0,0,1,.15.37.49.49,0,0,1-.15.36.49.49,0,0,1-.35.15.48.48,0,0,1-.36-.15A.49.49,0,0,1,41.77,86.73Z"/><path class="cls-1" d="M46.34,89.15h-1.2v2.42a3.19,3.19,0,0,0,0,.75.54.54,0,0,0,.2.31.56.56,0,0,0,.34.12.74.74,0,0,0,.61-.4l.16.09a1,1,0,0,1-.45.48,1.19,1.19,0,0,1-.6.17.94.94,0,0,1-.61-.21.9.9,0,0,1-.34-.49,5.26,5.26,0,0,1-.06-1V89.15h-.58v-.22a1.06,1.06,0,0,0,.72-.34,1.63,1.63,0,0,0,.4-.92h.16v1.26h1.2Z"/><path class="cls-1" d="M47.91,88.77H48a2,2,0,0,1,.15.84,2.28,2.28,0,0,1,.7-.63,1.63,1.63,0,0,1,.81-.21,1.31,1.31,0,0,1,.8.22,1.17,1.17,0,0,1,.43.67,3.1,3.1,0,0,1,.77-.67,1.55,1.55,0,0,1,.79-.22,1.43,1.43,0,0,1,.79.21.89.89,0,0,1,.39.49,4.39,4.39,0,0,1,.07.88v1.2c0,.47,0,.75,0,.85a.3.3,0,0,0,.16.23,1.09,1.09,0,0,0,.48.07v.23h-2V92.7a1,1,0,0,0,.45-.07.31.31,0,0,0,.16-.21,6.83,6.83,0,0,0,0-.87V90.22a3,3,0,0,0-.05-.61.59.59,0,0,0-.24-.35.81.81,0,0,0-.51-.15,1.07,1.07,0,0,0-.63.22,2.66,2.66,0,0,0-.65.65v1.57c0,.43,0,.7,0,.81a.34.34,0,0,0,.14.25.73.73,0,0,0,.42.09v.23H49.53V92.7a1,1,0,0,0,.46-.07.29.29,0,0,0,.16-.21,6.6,6.6,0,0,0,0-.87v-1.1a4.74,4.74,0,0,0,0-.77.64.64,0,0,0-.25-.4.78.78,0,0,0-.52-.17,1.15,1.15,0,0,0-.62.19,2.65,2.65,0,0,0-.64.59v1.66c0,.44,0,.72,0,.82a.38.38,0,0,0,.15.25,1,1,0,0,0,.46.08v.23h-2V92.7a1,1,0,0,0,.45-.07.31.31,0,0,0,.16-.21,6.72,6.72,0,0,0,0-.87V90.36a6.44,6.44,0,0,0,0-.84.28.28,0,0,0-.15-.23,1,1,0,0,0-.46-.08V89A5.62,5.62,0,0,0,47.91,88.77Z"/><path class="cls-1" d="M58.53,90.28H55.74c0,.19,0,.34,0,.43a3,3,0,0,0,.33,1.58,1.08,1.08,0,0,0,1,.53A1.29,1.29,0,0,0,58.3,92h.23a1.36,1.36,0,0,1-.62.78,2,2,0,0,1-1,.28,1.92,1.92,0,0,1-1-.26,2,2,0,0,1-.74-.72A2.19,2.19,0,0,1,54.91,91a2.31,2.31,0,0,1,.56-1.58,1.79,1.79,0,0,1,1.39-.62,1.6,1.6,0,0,1,1.22.47A1.7,1.7,0,0,1,58.53,90.28Zm-.85-.2a1.41,1.41,0,0,0,0-.2.84.84,0,0,0-.87-.9c-.59,0-1,.37-1.06,1.1Z"/><path class="cls-1" d="M60.29,88.77h.13a2.75,2.75,0,0,1,.13.82,2.57,2.57,0,0,1,.73-.62,1.68,1.68,0,0,1,.81-.2,1.33,1.33,0,0,1,.78.2.86.86,0,0,1,.4.49,3,3,0,0,1,.08.84v1.25a6.53,6.53,0,0,0,0,.85.31.31,0,0,0,.15.23,1.09,1.09,0,0,0,.48.07v.23H62V92.7h.1a.67.67,0,0,0,.45-.1.36.36,0,0,0,.13-.24c0-.09,0-.36,0-.81V90.27a2.77,2.77,0,0,0,0-.68.61.61,0,0,0-.24-.36.87.87,0,0,0-.52-.16,1.17,1.17,0,0,0-.68.22,2.17,2.17,0,0,0-.61.63v1.63c0,.47,0,.75,0,.85a.32.32,0,0,0,.16.23,1.09,1.09,0,0,0,.48.07v.23h-2V92.7a1.07,1.07,0,0,0,.47-.07.27.27,0,0,0,.16-.2,6.92,6.92,0,0,0,0-.88V90.36c0-.46,0-.74,0-.84a.32.32,0,0,0-.16-.23,1.09,1.09,0,0,0-.48-.07V89A6.49,6.49,0,0,0,60.29,88.77Z"/><path class="cls-1" d="M67,89.15H65.76v2.42a3.88,3.88,0,0,0,0,.75.51.51,0,0,0,.21.31.54.54,0,0,0,.34.12.76.76,0,0,0,.61-.4l.15.09a1,1,0,0,1-.44.48,1.24,1.24,0,0,1-.6.17,1,1,0,0,1-.62-.21.83.83,0,0,1-.33-.49,4.31,4.31,0,0,1-.07-1V89.15h-.58v-.22a1,1,0,0,0,.72-.34,1.64,1.64,0,0,0,.41-.92h.15v1.26H67Z"/><path class="cls-1" d="M67.54,93.05V91.74h.19c.23.76.62,1.14,1.19,1.14a.66.66,0,0,0,.55-.23.72.72,0,0,0,.19-.49.69.69,0,0,0-.2-.51,2.92,2.92,0,0,0-.77-.49,2.71,2.71,0,0,1-.87-.58,1,1,0,0,1-.27-.7,1.18,1.18,0,0,1,.29-.75,1,1,0,0,1,.79-.36,1.08,1.08,0,0,1,.87.42,1.34,1.34,0,0,0,.19-.36h.18v1.24h-.18a1.66,1.66,0,0,0-.38-.76.84.84,0,0,0-.66-.32.65.65,0,0,0-.48.18.58.58,0,0,0-.18.42.62.62,0,0,0,.2.45,2.77,2.77,0,0,0,.75.45,2.17,2.17,0,0,1,1,.73,1.54,1.54,0,0,1,.18.69,1.12,1.12,0,0,1-.34.85,1.21,1.21,0,0,1-.87.33,1.3,1.3,0,0,1-1-.46,1.18,1.18,0,0,0-.22.42Z"/><rect class="cls-2" x="3.53" y="69.56" width="76.94" height="29.9"/><path class="cls-1" d="M210.73,114.11H209a7.76,7.76,0,0,1-1.45-1.74c-.21-.3-.42-.59-.65-.86a3.09,3.09,0,0,0-.46-.5.72.72,0,0,0-.4-.09h-.26v1.47q0,.78,0,1a.54.54,0,0,0,.2.36,1.11,1.11,0,0,0,.61.11h.32v.23h-3.17v-.23h.21a1.2,1.2,0,0,0,.59-.1.53.53,0,0,0,.21-.34,7.49,7.49,0,0,0,0-1v-3.25a7.15,7.15,0,0,0,0-1,.44.44,0,0,0-.2-.32,1.5,1.5,0,0,0-.65-.09h-.11v-.22l.94,0c.63,0,1.14,0,1.51,0a5.46,5.46,0,0,1,1.54.18,2.12,2.12,0,0,1,1,.58,1.36,1.36,0,0,1,.36.95,1.46,1.46,0,0,1-.48,1.11,2.29,2.29,0,0,1-1.4.57,5.71,5.71,0,0,1,1.34,1.45,6.7,6.7,0,0,0,1.18,1.32,1.72,1.72,0,0,0,1,.33Zm-5-3.42.76,0a2.53,2.53,0,0,0,.67-.11,1.06,1.06,0,0,0,.47-.25,1.15,1.15,0,0,0,.28-.44,2,2,0,0,0,.1-.68,1.67,1.67,0,0,0-.35-1.12,2,2,0,0,0-1.52-.42l-.41,0Z"/><path class="cls-1" d="M212.36,110v2.79c0,.42,0,.69,0,.8a.37.37,0,0,0,.15.26.85.85,0,0,0,.43.08h.1v.23h-2.15v-.23h.17a.67.67,0,0,0,.45-.1.35.35,0,0,0,.12-.24c0-.09,0-.36,0-.8v-1.21a3.21,3.21,0,0,0-.07-.86.3.3,0,0,0-.18-.2,1.49,1.49,0,0,0-.38,0h-.13v-.22a6.32,6.32,0,0,0,1.35-.26Zm-.94-2a.49.49,0,0,1,.15-.36.48.48,0,0,1,.72,0,.53.53,0,0,1,0,.72.48.48,0,0,1-.72,0A.49.49,0,0,1,211.42,107.91Z"/><path class="cls-1" d="M213.66,114.24v-1.32h.19c.22.76.61,1.14,1.19,1.14a.67.67,0,0,0,.55-.22.79.79,0,0,0,.18-.5.69.69,0,0,0-.19-.51,3.62,3.62,0,0,0-.78-.48,3.16,3.16,0,0,1-.87-.59,1,1,0,0,1-.26-.7,1.19,1.19,0,0,1,.28-.75,1,1,0,0,1,.8-.36,1.07,1.07,0,0,1,.86.42,1.23,1.23,0,0,0,.19-.35H216v1.23h-.18a1.61,1.61,0,0,0-.38-.76.81.81,0,0,0-.66-.32.64.64,0,0,0-.47.18.59.59,0,0,0,0,.87,2.84,2.84,0,0,0,.74.45,2.07,2.07,0,0,1,1,.73,1.56,1.56,0,0,1,.19.69,1.12,1.12,0,0,1-.35.85,1.21,1.21,0,0,1-.87.33,1.34,1.34,0,0,1-1-.45,1,1,0,0,0-.21.42Z"/><path class="cls-1" d="M219.23,110.11h1.61v.22a2.2,2.2,0,0,0-1.19.67c-.16.14-.41.34-.74.6l1.42,1.67a3,3,0,0,0,.51.49.68.68,0,0,0,.38.12v.23h-2v-.23c.33,0,.5-.07.5-.21a1.36,1.36,0,0,0-.33-.47l-1-1.2-.21.16v.58c0,.42,0,.69,0,.8a.34.34,0,0,0,.14.25.74.74,0,0,0,.43.09v.23h-2v-.23h.15a.69.69,0,0,0,.46-.1.35.35,0,0,0,.12-.24c0-.09,0-.36,0-.8v-4a1.56,1.56,0,0,0-.11-.74c-.07-.11-.25-.17-.53-.17v-.22a3.82,3.82,0,0,0,.69-.07,2,2,0,0,0,.55-.14h.1v4.5l.42-.29c.68-.48,1-.83,1-1s-.13-.22-.38-.23Z"/><path class="cls-1" d="M199.76,121.67h-2.52l-.17.42a4.35,4.35,0,0,0-.38,1.19.54.54,0,0,0,.2.45.86.86,0,0,0,.52.15v.23h-2v-.23a1,1,0,0,0,.65-.31,4.19,4.19,0,0,0,.52-1s.09-.24.23-.57l1.93-4.6H199l2.21,5.26.3.7a1,1,0,0,0,.28.37.94.94,0,0,0,.52.16v.23h-2.61v-.23a1.88,1.88,0,0,0,.65-.07.27.27,0,0,0,.17-.28,3.13,3.13,0,0,0-.23-.64Zm-.09-.22-1.17-2.82-1.17,2.82Z"/><path class="cls-1" d="M206,123.13h.21a1.53,1.53,0,0,1-1.66,1.14,2,2,0,0,1-1.44-.58,2.07,2.07,0,0,1-.58-1.54,2.12,2.12,0,0,1,.63-1.59,2.06,2.06,0,0,1,1.49-.61,1.94,1.94,0,0,1,.95.23c.29.15.44.33.44.55a.35.35,0,0,1-.09.23.27.27,0,0,1-.23.11c-.21,0-.34-.13-.39-.38a.71.71,0,0,0-.18-.39.76.76,0,0,0-.5-.12,1.12,1.12,0,0,0-1,.46,2.31,2.31,0,0,0-.33,1.36,2.72,2.72,0,0,0,.35,1.48,1.23,1.23,0,0,0,1.08.53A1.16,1.16,0,0,0,206,123.13Z"/><path class="cls-1" d="M210.31,123.13h.21a1.53,1.53,0,0,1-1.66,1.14,2,2,0,0,1-1.44-.58,2.33,2.33,0,0,1,.05-3.13A2.06,2.06,0,0,1,209,120a1.91,1.91,0,0,1,.95.23c.29.15.44.33.44.55a.4.4,0,0,1-.08.23.28.28,0,0,1-.23.11c-.22,0-.35-.13-.4-.38a.71.71,0,0,0-.18-.39.74.74,0,0,0-.49-.12,1.13,1.13,0,0,0-1,.46,2.31,2.31,0,0,0-.33,1.36,2.63,2.63,0,0,0,.36,1.48,1.2,1.2,0,0,0,1.07.53A1.16,1.16,0,0,0,210.31,123.13Z"/><path class="cls-1" d="M211.13,122.1a2.07,2.07,0,0,1,.61-1.53,2,2,0,0,1,1.52-.62,2.21,2.21,0,0,1,1.51,3.74,2.24,2.24,0,0,1-3,0A2.09,2.09,0,0,1,211.13,122.1Zm.81,0a2.36,2.36,0,0,0,.35,1.49,1.19,1.19,0,0,0,1,.43,1.21,1.21,0,0,0,1-.43,2.51,2.51,0,0,0,.34-1.49,2.61,2.61,0,0,0-.34-1.51,1.15,1.15,0,0,0-1-.45,1.14,1.14,0,0,0-1,.45A2.53,2.53,0,0,0,211.94,122.13Z"/><path class="cls-1" d="M220.1,120.11v2.62c0,.44,0,.71,0,.82a.33.33,0,0,0,.15.25.8.8,0,0,0,.44.08v.23a3.37,3.37,0,0,0-1.08.15h-.06a2,2,0,0,1-.16-.92,2.2,2.2,0,0,1-.69.7,1.6,1.6,0,0,1-.84.23,1.36,1.36,0,0,1-.71-.18,1,1,0,0,1-.42-.45,2,2,0,0,1-.12-.8v-1.36c0-.46,0-.74,0-.85a.3.3,0,0,0-.16-.22,1,1,0,0,0-.47-.08v-.22h1.35v2.77a2.7,2.7,0,0,0,0,.6.63.63,0,0,0,.25.32.77.77,0,0,0,.47.14,1.19,1.19,0,0,0,.71-.24,1.35,1.35,0,0,0,.47-.53,2,2,0,0,0,.13-.78v-.91c0-.43,0-.7,0-.79a.39.39,0,0,0-.12-.25.71.71,0,0,0-.46-.11h-.1v-.22Z"/><path class="cls-1" d="M222.34,120h.14a2.85,2.85,0,0,1,.12.82,2.78,2.78,0,0,1,.74-.62,1.8,1.8,0,0,1,.81-.2,1.43,1.43,0,0,1,.78.2.92.92,0,0,1,.39.49,3,3,0,0,1,.09.85v1.25a6.44,6.44,0,0,0,0,.84.28.28,0,0,0,.15.23,1.06,1.06,0,0,0,.48.07v.23h-2v-.23h.09a.69.69,0,0,0,.46-.1.39.39,0,0,0,.12-.24c0-.09,0-.36,0-.8v-1.29a3.47,3.47,0,0,0-.05-.68.64.64,0,0,0-.25-.36.81.81,0,0,0-.51-.15,1.21,1.21,0,0,0-.68.21,2.11,2.11,0,0,0-.62.64v1.63a6.44,6.44,0,0,0,0,.84.32.32,0,0,0,.16.23,1,1,0,0,0,.48.07v.23h-2v-.23a1.2,1.2,0,0,0,.46-.06.32.32,0,0,0,.17-.21,6.72,6.72,0,0,0,0-.87v-1.19a6.53,6.53,0,0,0,0-.85.31.31,0,0,0-.15-.23,1.09,1.09,0,0,0-.48-.07v-.23A6.38,6.38,0,0,0,222.34,120Z"/><path class="cls-1" d="M229,120.33h-1.2v2.42a3.19,3.19,0,0,0,.05.75.54.54,0,0,0,.2.31.56.56,0,0,0,.34.12.74.74,0,0,0,.61-.4l.16.09a1,1,0,0,1-.45.49,1.16,1.16,0,0,1-.59.16,1,1,0,0,1-.62-.21.84.84,0,0,1-.33-.48,4.42,4.42,0,0,1-.07-1v-2.27h-.58v-.22a1,1,0,0,0,.72-.34,1.63,1.63,0,0,0,.4-.92h.16v1.26H229Z"/><path class="cls-1" d="M201.66,127.54l1.09-.05c.91,0,1.52-.07,1.84-.07a4.86,4.86,0,0,1,2.3.45,2.9,2.9,0,0,1,1.23,1.22,3.85,3.85,0,0,1,.4,1.77,3.75,3.75,0,0,1-.22,1.33,2.9,2.9,0,0,1-.6,1,2.67,2.67,0,0,1-.89.61,3.84,3.84,0,0,1-1,.26c-.31,0-.73.05-1.28.05h-2.94v-.23h.28a1.2,1.2,0,0,0,.59-.1.62.62,0,0,0,.21-.34,7.49,7.49,0,0,0,0-1.05v-3.2a7.15,7.15,0,0,0,0-1,.47.47,0,0,0-.2-.32,1.55,1.55,0,0,0-.65-.08h-.2Zm2,.14v4.42c0,.66,0,1.08,0,1.27a.51.51,0,0,0,.22.39,1.6,1.6,0,0,0,.77.12,3.68,3.68,0,0,0,1.43-.24,2,2,0,0,0,.93-.93,3.85,3.85,0,0,0,.37-1.78,4.58,4.58,0,0,0-.22-1.49,2.72,2.72,0,0,0-.62-1.08,2.16,2.16,0,0,0-.9-.56,4.43,4.43,0,0,0-1.26-.15Z"/><path class="cls-1" d="M213.44,133.38h.18c0,.55-.31.83-.82.83a.8.8,0,0,1-.53-.17.91.91,0,0,1-.25-.53,5.58,5.58,0,0,1-.89.53,2,2,0,0,1-.72.17,1.13,1.13,0,0,1-.7-.23.75.75,0,0,1-.29-.62,1.08,1.08,0,0,1,.49-.88,5.93,5.93,0,0,1,1.35-.73l.76-.31v-.2a2.83,2.83,0,0,0-.05-.6.66.66,0,0,0-.28-.33,1.05,1.05,0,0,0-.59-.15c-.49,0-.76.17-.82.49s-.19.5-.41.5-.3-.09-.3-.28a.86.86,0,0,1,.4-.6,2,2,0,0,1,1.23-.32,2,2,0,0,1,1,.19,1,1,0,0,1,.45.45,1.84,1.84,0,0,1,.11.76V133a2.59,2.59,0,0,0,.06.72.25.25,0,0,0,.26.16C213.25,133.85,213.38,133.7,213.44,133.38ZM212,131.67l-.53.21q-1.26.51-1.26,1.29a.73.73,0,0,0,.16.5.54.54,0,0,0,.42.18,1.23,1.23,0,0,0,.53-.15,4,4,0,0,0,.68-.45Z"/><path class="cls-1" d="M216.21,133.35l.93-2.22a3.33,3.33,0,0,0,.2-.54c0-.16-.18-.25-.54-.26v-.22h1.41v.22a.66.66,0,0,0-.48.18,2.51,2.51,0,0,0-.38.7l-1.78,4.3a3.34,3.34,0,0,1-.45.84.55.55,0,0,1-.43.22c-.21,0-.32-.1-.32-.29s.17-.41.51-.56a1.83,1.83,0,0,0,.4-.22,1.12,1.12,0,0,0,.2-.34l.38-.95L214.35,131a1.61,1.61,0,0,0-.33-.53.67.67,0,0,0-.45-.12v-.22h1.84v.22c-.32,0-.49.08-.49.2a2.22,2.22,0,0,0,.2.48Z"/><path class="cls-1" d="M221.46,128.89l.41-1.34H222c0,.07,0,.11.08.13a1.35,1.35,0,0,0,.38,0H225l-1.75,5.34a3.82,3.82,0,0,1-.44,1,.43.43,0,0,1-.3.17.27.27,0,0,1-.3-.3,2.68,2.68,0,0,1,.28-.77,2.86,2.86,0,0,0,.12-.27l2-4.57H222a.33.33,0,0,0-.16.11,1.51,1.51,0,0,0-.18.41Z"/><path class="cls-1" d="M32.37,164.8l-4.68-6.2v4.59a3.08,3.08,0,0,0,.06.76.59.59,0,0,0,.32.33,1.63,1.63,0,0,0,.79.15v.22H26.39v-.22a1.81,1.81,0,0,0,.72-.17.62.62,0,0,0,.3-.31,3.87,3.87,0,0,0,0-.76v-3.51a4.49,4.49,0,0,0-.07-1,.5.5,0,0,0-.22-.33,2,2,0,0,0-.69-.07V158h2l3.92,5.18v-4a1.43,1.43,0,0,0-.09-.61.62.62,0,0,0-.37-.28,1.83,1.83,0,0,0-.66-.1V158h2.4v.23a1.6,1.6,0,0,0-.66.16.57.57,0,0,0-.31.3,2.05,2.05,0,0,0-.07.61v5.47Z"/><path class="cls-1" d="M34.09,162.65a2.1,2.1,0,0,1,2.13-2.16,2.05,2.05,0,0,1,1.51.62,2.12,2.12,0,0,1,.62,1.54,2.06,2.06,0,0,1-.63,1.59,2.26,2.26,0,0,1-3,0A2.06,2.06,0,0,1,34.09,162.65Zm.81,0a2.42,2.42,0,0,0,.34,1.49,1.19,1.19,0,0,0,1,.43,1.18,1.18,0,0,0,1-.43,2.5,2.5,0,0,0,.33-1.49,2.6,2.6,0,0,0-.33-1.5,1.3,1.3,0,0,0-2,0A2.53,2.53,0,0,0,34.9,162.67Z"/><path class="cls-1" d="M41.46,160.88H40.25v2.42a3.88,3.88,0,0,0,0,.75.6.6,0,0,0,.21.31.62.62,0,0,0,.34.11.73.73,0,0,0,.61-.4l.16.09a1,1,0,0,1-.45.49,1.23,1.23,0,0,1-.6.16,1,1,0,0,1-.62-.2.94.94,0,0,1-.33-.49,5.32,5.32,0,0,1-.06-1v-2.26H39v-.23a1,1,0,0,0,.72-.33,1.67,1.67,0,0,0,.41-.92h.15v1.25h1.21Z"/><path class="cls-1" d="M46,163.92h.18c0,.56-.31.84-.82.84a.74.74,0,0,1-.53-.18.88.88,0,0,1-.25-.52,5.45,5.45,0,0,1-.89.52,1.81,1.81,0,0,1-.72.18,1.06,1.06,0,0,1-.7-.24.73.73,0,0,1-.29-.62,1.09,1.09,0,0,1,.49-.88,6.1,6.1,0,0,1,1.35-.73l.76-.31v-.19a2.7,2.7,0,0,0,0-.6.64.64,0,0,0-.28-.34,1.14,1.14,0,0,0-.59-.14c-.49,0-.76.16-.82.49s-.19.49-.41.49-.3-.09-.3-.28.13-.38.4-.6a2.47,2.47,0,0,1,2.19-.12,1,1,0,0,1,.45.44,1.87,1.87,0,0,1,.11.76v1.62a2.68,2.68,0,0,0,.06.73.23.23,0,0,0,.25.16C45.85,164.4,46,164.24,46,163.92Zm-1.42-1.71-.53.22q-1.26.51-1.26,1.29a.71.71,0,0,0,.16.49.52.52,0,0,0,.42.19,1.23,1.23,0,0,0,.53-.15,3.54,3.54,0,0,0,.68-.46Z"/><path class="cls-1" d="M48,161.51a1.6,1.6,0,0,1,.54-.72,1.19,1.19,0,0,1,.73-.3.66.66,0,0,1,.51.2.64.64,0,0,1,.19.41.37.37,0,0,1-.1.25.29.29,0,0,1-.23.1c-.16,0-.29-.12-.37-.36s-.15-.25-.27-.25a.83.83,0,0,0-.5.29,1.32,1.32,0,0,0-.37.59,3.19,3.19,0,0,0-.09.85v.71c0,.43,0,.7,0,.81a.34.34,0,0,0,.14.25.76.76,0,0,0,.43.09h.14v.22H46.63v-.22h.1a.89.89,0,0,0,.42-.08.31.31,0,0,0,.14-.23,6.44,6.44,0,0,0,0-.84v-1.13c0-.43,0-.7,0-.8a.33.33,0,0,0-.14-.26.74.74,0,0,0-.43-.09h-.1v-.22a6.3,6.3,0,0,0,1.2-.29A3.44,3.44,0,0,1,48,161.51Z"/><path class="cls-1" d="M52.66,163.9l.92-2.23a2.72,2.72,0,0,0,.2-.54c0-.16-.18-.24-.54-.25v-.23h1.41v.23a.71.71,0,0,0-.48.17,2.68,2.68,0,0,0-.38.7L52,166.05a3.34,3.34,0,0,1-.45.84.55.55,0,0,1-.43.22c-.21,0-.31-.09-.31-.28s.17-.41.5-.57a1.49,1.49,0,0,0,.4-.22.91.91,0,0,0,.2-.34l.38-.95-1.5-3.22a1.85,1.85,0,0,0-.34-.54.7.7,0,0,0-.45-.11v-.23h1.84v.23c-.32,0-.48.08-.48.2a1.94,1.94,0,0,0,.19.48Z"/><path class="cls-1" d="M56.53,163.06h.15v3.63c0,.3,0,.49,0,.57a.23.23,0,0,0,.1.17.44.44,0,0,0,.3.07h.13v.15H55.68v-.15h.12a.56.56,0,0,0,.32-.07.3.3,0,0,0,.08-.17c0-.07,0-.26,0-.57v-2.43c0-.31,0-.49,0-.56a.25.25,0,0,0-.08-.17.49.49,0,0,0-.32-.07h-.15v-.16A1.49,1.49,0,0,0,56.53,163.06Z"/><rect class="cls-2" x="14.01" y="146.23" width="56.53" height="29.9"/><path class="cls-1" d="M32.37,206.62l-4.68-6.2V205a2.92,2.92,0,0,0,.06.75.63.63,0,0,0,.32.34,1.63,1.63,0,0,0,.79.15v.22H26.39v-.22a1.8,1.8,0,0,0,.72-.18.58.58,0,0,0,.3-.3,3.87,3.87,0,0,0,0-.76V201.5a4.49,4.49,0,0,0-.07-1,.5.5,0,0,0-.22-.33,2,2,0,0,0-.69-.07v-.23h2L32.34,205v-4a1.43,1.43,0,0,0-.09-.61.62.62,0,0,0-.37-.28,1.83,1.83,0,0,0-.66-.1v-.23h2.4v.23a1.6,1.6,0,0,0-.66.16.57.57,0,0,0-.31.3,2,2,0,0,0-.07.6v5.48Z"/><path class="cls-1" d="M34.09,204.46a2.1,2.1,0,0,1,2.13-2.15,2.05,2.05,0,0,1,1.51.62,2.11,2.11,0,0,1,.62,1.53,2,2,0,0,1-.63,1.59,2.23,2.23,0,0,1-3,0A2,2,0,0,1,34.09,204.46Zm.81,0a2.42,2.42,0,0,0,.34,1.49,1.19,1.19,0,0,0,1,.43,1.18,1.18,0,0,0,1-.43,2.5,2.5,0,0,0,.33-1.49,2.58,2.58,0,0,0-.33-1.5,1.15,1.15,0,0,0-1-.45,1.13,1.13,0,0,0-1,.44A2.53,2.53,0,0,0,34.9,204.49Z"/><path class="cls-1" d="M41.46,202.7H40.25v2.41a3.73,3.73,0,0,0,0,.75.53.53,0,0,0,.21.31.56.56,0,0,0,.34.12.73.73,0,0,0,.61-.4l.16.09a1,1,0,0,1-.45.49,1.23,1.23,0,0,1-.6.16,1,1,0,0,1-.62-.2,1,1,0,0,1-.33-.49,5.39,5.39,0,0,1-.06-1V202.7H39v-.23a1,1,0,0,0,.72-.33,1.67,1.67,0,0,0,.41-.92h.15v1.25h1.21Z"/><path class="cls-1" d="M46,205.74h.18c0,.56-.31.83-.82.83a.74.74,0,0,1-.53-.17.88.88,0,0,1-.25-.52,5.45,5.45,0,0,1-.89.52,1.78,1.78,0,0,1-.72.17,1.06,1.06,0,0,1-.7-.23.74.74,0,0,1-.29-.62,1.08,1.08,0,0,1,.49-.88,6.1,6.1,0,0,1,1.35-.73l.76-.31v-.19a2.87,2.87,0,0,0,0-.61.66.66,0,0,0-.28-.33,1.14,1.14,0,0,0-.59-.14c-.49,0-.76.16-.82.48s-.19.5-.41.5-.3-.09-.3-.28a.83.83,0,0,1,.4-.6,2.47,2.47,0,0,1,2.19-.12,1,1,0,0,1,.45.44,1.87,1.87,0,0,1,.11.76v1.62a2.68,2.68,0,0,0,.06.73.25.25,0,0,0,.25.16C45.85,206.22,46,206.06,46,205.74ZM44.62,204l-.53.21q-1.26.52-1.26,1.29a.73.73,0,0,0,.16.5.52.52,0,0,0,.42.19,1.23,1.23,0,0,0,.53-.15,4.08,4.08,0,0,0,.68-.46Z"/><path class="cls-1" d="M48,203.33a1.69,1.69,0,0,1,.54-.73,1.24,1.24,0,0,1,.73-.29.66.66,0,0,1,.51.2.62.62,0,0,1,.19.41.37.37,0,0,1-.1.25.33.33,0,0,1-.23.1c-.16,0-.29-.12-.37-.36s-.15-.25-.27-.25a.83.83,0,0,0-.5.29,1.32,1.32,0,0,0-.37.59,3.19,3.19,0,0,0-.09.85v.71c0,.43,0,.69,0,.81a.34.34,0,0,0,.14.25.76.76,0,0,0,.43.09h.14v.22H46.63v-.22h.1a.89.89,0,0,0,.42-.08.31.31,0,0,0,.14-.23,6.44,6.44,0,0,0,0-.84V204c0-.43,0-.7,0-.81a.31.31,0,0,0-.14-.25.74.74,0,0,0-.43-.09h-.1v-.22a7.17,7.17,0,0,0,1.2-.29A3.44,3.44,0,0,1,48,203.33Z"/><path class="cls-1" d="M52.66,205.71l.92-2.22a2.72,2.72,0,0,0,.2-.54c0-.16-.18-.25-.54-.25v-.23h1.41v.23a.66.66,0,0,0-.48.17,2.68,2.68,0,0,0-.38.7L52,207.87a3.34,3.34,0,0,1-.45.84.55.55,0,0,1-.43.22c-.21,0-.31-.09-.31-.29s.17-.4.5-.56a1.83,1.83,0,0,0,.4-.22,1,1,0,0,0,.2-.34l.38-1-1.5-3.22a1.71,1.71,0,0,0-.34-.54.64.64,0,0,0-.45-.11v-.23h1.84v.23c-.32,0-.48.07-.48.2a1.94,1.94,0,0,0,.19.48Z"/><path class="cls-1" d="M55.05,209.47v-.21a7.65,7.65,0,0,0,1-1,6,6,0,0,0,.86-1.14,2,2,0,0,0,.27-1,1.2,1.2,0,0,0-.27-.86.9.9,0,0,0-.66-.27.76.76,0,0,0-.61.25.84.84,0,0,0-.21.54.59.59,0,0,0,.28.52c.07,0,.1.09.1.11s0,.1-.12.17a.29.29,0,0,1-.19.1c-.07,0-.15-.06-.25-.2a1,1,0,0,1-.14-.53,1,1,0,0,1,.41-.83,1.4,1.4,0,0,1,.89-.31,1.47,1.47,0,0,1,.92.32,1.1,1.1,0,0,1,.41.94,1.66,1.66,0,0,1-.18.75,5.39,5.39,0,0,1-.9,1.08c-.47.48-.85.85-1.14,1.09h2.17l-.19.77h-.17a.59.59,0,0,1,0-.13.2.2,0,0,0,0-.09c0-.07,0-.11-.05-.12a1,1,0,0,0-.24,0Z"/><rect class="cls-2" x="14.01" y="188.05" width="56.53" height="29.9"/><path class="cls-1" d="M32.37,248.44l-4.68-6.2v4.59a2.92,2.92,0,0,0,.06.75.59.59,0,0,0,.32.33,1.51,1.51,0,0,0,.79.16v.22H26.39v-.22a1.8,1.8,0,0,0,.72-.18.58.58,0,0,0,.3-.3,3.94,3.94,0,0,0,0-.76v-3.51a4.49,4.49,0,0,0-.07-1,.5.5,0,0,0-.22-.33,2,2,0,0,0-.69-.08v-.22h2l3.92,5.18v-4a1.52,1.52,0,0,0-.09-.62.61.61,0,0,0-.37-.27,1.82,1.82,0,0,0-.66-.11v-.22h2.4v.22a1.75,1.75,0,0,0-.66.17.57.57,0,0,0-.31.3,2,2,0,0,0-.07.6v5.48Z"/><path class="cls-1" d="M34.09,246.28a2.1,2.1,0,0,1,2.13-2.15,2.05,2.05,0,0,1,1.51.62,2.08,2.08,0,0,1,.62,1.53,2,2,0,0,1-.63,1.59,2.23,2.23,0,0,1-3,0A2,2,0,0,1,34.09,246.28Zm.81,0a2.44,2.44,0,0,0,.34,1.49,1.22,1.22,0,0,0,1,.43,1.21,1.21,0,0,0,1-.43,2.52,2.52,0,0,0,.33-1.49,2.62,2.62,0,0,0-.33-1.51,1.15,1.15,0,0,0-1-.45,1.14,1.14,0,0,0-1,.45A2.53,2.53,0,0,0,34.9,246.31Z"/><path class="cls-1" d="M41.46,244.52H40.25v2.41a3.88,3.88,0,0,0,0,.75.59.59,0,0,0,.55.43.73.73,0,0,0,.61-.4l.16.09a1,1,0,0,1-.45.49,1.23,1.23,0,0,1-.6.16,1,1,0,0,1-.62-.21.91.91,0,0,1-.33-.48,5.39,5.39,0,0,1-.06-1v-2.26H39v-.23a1,1,0,0,0,.72-.34,1.61,1.61,0,0,0,.41-.91h.15v1.25h1.21Z"/><path class="cls-1" d="M46,247.56h.18c0,.55-.31.83-.82.83a.78.78,0,0,1-.53-.17.88.88,0,0,1-.25-.53,4.92,4.92,0,0,1-.89.53,2,2,0,0,1-.72.17,1.11,1.11,0,0,1-.7-.23.74.74,0,0,1-.29-.62,1.08,1.08,0,0,1,.49-.88,5.72,5.72,0,0,1,1.35-.73l.76-.31v-.2a2.83,2.83,0,0,0,0-.6.66.66,0,0,0-.28-.33,1.05,1.05,0,0,0-.59-.14c-.49,0-.76.16-.82.48s-.19.5-.41.5-.3-.09-.3-.28a.83.83,0,0,1,.4-.6,2.47,2.47,0,0,1,2.19-.12,1,1,0,0,1,.45.44,1.87,1.87,0,0,1,.11.76v1.62a2.68,2.68,0,0,0,.06.73.25.25,0,0,0,.25.16C45.85,248,46,247.88,46,247.56Zm-1.42-1.71-.53.21q-1.26.52-1.26,1.29a.73.73,0,0,0,.16.5.55.55,0,0,0,.42.19,1.23,1.23,0,0,0,.53-.15,4.8,4.8,0,0,0,.68-.46Z"/><path class="cls-1" d="M48,245.15a1.69,1.69,0,0,1,.54-.73,1.24,1.24,0,0,1,.73-.29.66.66,0,0,1,.51.2.62.62,0,0,1,.19.41.35.35,0,0,1-.1.24.3.3,0,0,1-.23.11c-.16,0-.29-.12-.37-.36s-.15-.25-.27-.25a.83.83,0,0,0-.5.29,1.32,1.32,0,0,0-.37.59,3.19,3.19,0,0,0-.09.85v.71c0,.42,0,.69,0,.8a.36.36,0,0,0,.14.26.76.76,0,0,0,.43.09h.14v.22H46.63v-.22h.1a.89.89,0,0,0,.42-.08.31.31,0,0,0,.14-.23,6.44,6.44,0,0,0,0-.84v-1.13c0-.43,0-.7,0-.81a.31.31,0,0,0-.14-.25.74.74,0,0,0-.43-.09h-.1v-.22a7.17,7.17,0,0,0,1.2-.29A3.44,3.44,0,0,1,48,245.15Z"/><path class="cls-1" d="M52.66,247.53l.92-2.22a2.72,2.72,0,0,0,.2-.54c0-.16-.18-.25-.54-.25v-.23h1.41v.23a.66.66,0,0,0-.48.17,2.68,2.68,0,0,0-.38.7L52,249.69a3.34,3.34,0,0,1-.45.84.55.55,0,0,1-.43.22c-.21,0-.31-.09-.31-.29s.17-.41.5-.56a1.83,1.83,0,0,0,.4-.22,1,1,0,0,0,.2-.34l.38-1-1.5-3.22a1.71,1.71,0,0,0-.34-.54.64.64,0,0,0-.45-.11v-.23h1.84v.23c-.32,0-.48.07-.48.2a2.13,2.13,0,0,0,.19.47Z"/><path class="cls-1" d="M56.39,248.8a.76.76,0,0,1,.21,0,1,1,0,0,1,.79.34,1.44,1.44,0,0,1-.14,1.89,1.52,1.52,0,0,1-1.1.4,1.45,1.45,0,0,1-.77-.2c-.22-.14-.33-.29-.33-.44a.24.24,0,0,1,.06-.17.2.2,0,0,1,.16-.07c.12,0,.21.08.26.24a.6.6,0,0,0,.27.4.76.76,0,0,0,.35.09.85.85,0,0,0,.69-.31,1.49,1.49,0,0,0,.27-1,1.26,1.26,0,0,0-.2-.79.59.59,0,0,0-.47-.26.79.79,0,0,0-.52.29.11.11,0,0,1-.1.05c-.07,0-.1,0-.1-.11a.19.19,0,0,1,.05-.1l.3-.22a2.84,2.84,0,0,0,.72-.61,1,1,0,0,0,.17-.61.77.77,0,0,0-.18-.54.63.63,0,0,0-.48-.2.85.85,0,0,0-.55.2.62.62,0,0,0-.24.5.67.67,0,0,0,.21.46.05.05,0,0,1,0,0s0,.06-.12.09a.34.34,0,0,1-.16,0c-.07,0-.14,0-.2-.16a.68.68,0,0,1-.09-.35.91.91,0,0,1,.33-.68,1.2,1.2,0,0,1,.87-.31,1.28,1.28,0,0,1,.86.26.76.76,0,0,1,.29.57.85.85,0,0,1-.2.53,3,3,0,0,1-.67.55Z"/><rect class="cls-2" x="14.01" y="229.87" width="56.53" height="29.9"/><path class="cls-1" d="M144.54,19.11H141l-.24.59a5.89,5.89,0,0,0-.54,1.67.74.74,0,0,0,.29.63,1.2,1.2,0,0,0,.73.22v.31H138.5v-.31a1.51,1.51,0,0,0,.92-.44,5.21,5.21,0,0,0,.72-1.42c0-.07.13-.34.33-.8l2.69-6.43h.27l3.1,7.36.42,1a1.3,1.3,0,0,0,.39.52,1.42,1.42,0,0,0,.72.24v.31h-3.64v-.31a2.92,2.92,0,0,0,.91-.1.4.4,0,0,0,.23-.4,3.73,3.73,0,0,0-.31-.89Zm-.12-.31-1.64-4-1.63,4Z"/><path class="cls-1" d="M150,22.69a.69.69,0,0,1,.25,0,1.12,1.12,0,0,1,.9.39A1.65,1.65,0,0,1,151,25.2a1.73,1.73,0,0,1-1.26.46,1.57,1.57,0,0,1-.88-.24c-.25-.15-.37-.32-.37-.5a.26.26,0,0,1,.07-.19.19.19,0,0,1,.18-.08c.14,0,.23.09.29.27a.72.72,0,0,0,.31.46.86.86,0,0,0,.4.11,1,1,0,0,0,.8-.36,1.72,1.72,0,0,0,.3-1.12,1.42,1.42,0,0,0-.23-.9.65.65,0,0,0-.54-.29.86.86,0,0,0-.59.32.17.17,0,0,1-.11.06.11.11,0,0,1-.12-.12.17.17,0,0,1,.06-.12,3.29,3.29,0,0,1,.34-.25,3.53,3.53,0,0,0,.82-.7,1.15,1.15,0,0,0,.2-.69.89.89,0,0,0-.21-.63.75.75,0,0,0-.55-.22.93.93,0,0,0-.62.23.69.69,0,0,0-.28.57.74.74,0,0,0,.24.52l0,0s0,.08-.13.11a.55.55,0,0,1-.19.06c-.08,0-.15-.06-.22-.18a.8.8,0,0,1-.11-.4,1,1,0,0,1,.38-.78,1.64,1.64,0,0,1,2-.06.87.87,0,0,1,.33.66.9.9,0,0,1-.22.59,3.34,3.34,0,0,1-.76.64Z"/><path class="cls-1" d="M152.31,23a3.68,3.68,0,0,1,.46-1.95,1.41,1.41,0,0,1,1.22-.74,1.39,1.39,0,0,1,1.21.74,3.61,3.61,0,0,1,.46,1.95,3.61,3.61,0,0,1-.46,2,1.39,1.39,0,0,1-1.21.74,1.41,1.41,0,0,1-1.22-.74A3.7,3.7,0,0,1,152.31,23Zm.65,0a4.79,4.79,0,0,0,.27,2.06.83.83,0,0,0,.76.44.79.79,0,0,0,.79-.52,5.75,5.75,0,0,0,.23-2,4.79,4.79,0,0,0-.27-2.06.85.85,0,0,0-.75-.44.86.86,0,0,0-.76.44A4.79,4.79,0,0,0,153,23Z"/><path class="cls-1" d="M157,22.84h-.21l.12-2.43h2a1.44,1.44,0,0,1-.25.46.43.43,0,0,1-.26.06h-1.37L157,22.55a1.16,1.16,0,0,1,1-.5,1.36,1.36,0,0,1,1,.48,1.81,1.81,0,0,1,.43,1.21,2,2,0,0,1-.49,1.38,1.73,1.73,0,0,1-1.36.54,1.49,1.49,0,0,1-1-.28.74.74,0,0,1-.34-.52.22.22,0,0,1,.07-.17.23.23,0,0,1,.18-.08.25.25,0,0,1,.2.08,1.18,1.18,0,0,1,.16.31.67.67,0,0,0,.7.49,1.07,1.07,0,0,0,.84-.41,2,2,0,0,0,.34-1.3,1.83,1.83,0,0,0-.28-1.16.85.85,0,0,0-.67-.35A.92.92,0,0,0,157,22.84Z"/><circle class="cls-3" cx="148.11" cy="19.45" r="16"/><path class="cls-1" d="M143.37,82.17a3.93,3.93,0,0,1,2.34.79,2.12,2.12,0,0,1,.77,1.67,2.33,2.33,0,0,1-.52,1.51,2.43,2.43,0,0,1-1.33.83,9.66,9.66,0,0,1-2.17.19h-3.64v-.31h.36a1.6,1.6,0,0,0,.82-.15.7.7,0,0,0,.29-.47,10.76,10.76,0,0,0,.06-1.48V80.24a10.7,10.7,0,0,0-.06-1.46.61.61,0,0,0-.28-.45,2.13,2.13,0,0,0-.91-.12h-.18v-.32l1.53,0,1.74,0c2.53,0,3.8.73,3.8,2.18a1.77,1.77,0,0,1-.66,1.45A3.87,3.87,0,0,1,143.37,82.17ZM141.69,82H142a3.21,3.21,0,0,0,2-.47,1.88,1.88,0,0,0,.54-1.5,2.43,2.43,0,0,0-.21-1.12,1.45,1.45,0,0,0-.64-.61,3.36,3.36,0,0,0-1.45-.22l-.55,0Zm0,.34v2.06c0,.88,0,1.44.05,1.68a.86.86,0,0,0,.26.54,1.32,1.32,0,0,0,.82.18,2.2,2.2,0,0,0,1.64-.56A2.28,2.28,0,0,0,145,84.6a2.13,2.13,0,0,0-.62-1.69,3.29,3.29,0,0,0-2.18-.55Z"/><path class="cls-1" d="M149.09,87.32a.67.67,0,0,1,.24,0,1.13,1.13,0,0,1,.91.4,1.47,1.47,0,0,1,.33,1,1.54,1.54,0,0,1-.49,1.17,1.76,1.76,0,0,1-1.26.46,1.71,1.71,0,0,1-.89-.23c-.25-.16-.37-.33-.37-.51a.26.26,0,0,1,.07-.19.26.26,0,0,1,.19-.08c.13,0,.23.09.28.28a.7.7,0,0,0,.32.45.82.82,0,0,0,.39.11,1,1,0,0,0,.8-.36,1.71,1.71,0,0,0,.31-1.11,1.5,1.5,0,0,0-.23-.91.68.68,0,0,0-.54-.29.91.91,0,0,0-.6.33.16.16,0,0,1-.11,0,.11.11,0,0,1-.12-.12.17.17,0,0,1,.06-.12,4,4,0,0,1,.35-.25,3.46,3.46,0,0,0,.81-.69,1.2,1.2,0,0,0,.2-.7.89.89,0,0,0-.21-.63.73.73,0,0,0-.55-.22,1,1,0,0,0-.62.23.71.71,0,0,0-.27.57.72.72,0,0,0,.24.52s0,0,0,0,0,.07-.12.11a.48.48,0,0,1-.19,0c-.08,0-.16-.06-.23-.18a.77.77,0,0,1-.1-.4,1,1,0,0,1,.37-.78,1.37,1.37,0,0,1,1-.35,1.42,1.42,0,0,1,1,.29.88.88,0,0,1,.33.66.91.91,0,0,1-.23.59,3.48,3.48,0,0,1-.75.64Z"/><path class="cls-1" d="M151.44,87.6a3.61,3.61,0,0,1,.46-1.95,1.38,1.38,0,0,1,1.21-.73,1.4,1.4,0,0,1,1.22.73,4.36,4.36,0,0,1,0,3.9,1.41,1.41,0,0,1-1.22.74,1.37,1.37,0,0,1-1.21-.74A3.61,3.61,0,0,1,151.44,87.6Zm.64,0a4.59,4.59,0,0,0,.28,2.06.83.83,0,0,0,.75.44.8.8,0,0,0,.8-.52,5.75,5.75,0,0,0,.23-2,4.74,4.74,0,0,0-.28-2.06.86.86,0,0,0-1.5,0A4.74,4.74,0,0,0,152.08,87.6Z"/><path class="cls-1" d="M156.15,87.47H156l.12-2.43h2a1.51,1.51,0,0,1-.24.46.45.45,0,0,1-.27.06h-1.37l-.06,1.62a1.2,1.2,0,0,1,1-.5,1.33,1.33,0,0,1,1,.49,1.72,1.72,0,0,1,.43,1.21,2,2,0,0,1-.48,1.37,1.75,1.75,0,0,1-1.36.54,1.42,1.42,0,0,1-.95-.28.74.74,0,0,1-.34-.52.27.27,0,0,1,.06-.17.26.26,0,0,1,.19-.08.26.26,0,0,1,.2.08,1.48,1.48,0,0,1,.15.31.68.68,0,0,0,.7.49,1.09,1.09,0,0,0,.84-.4,2,2,0,0,0,.34-1.31,1.83,1.83,0,0,0-.28-1.16.83.83,0,0,0-.66-.35A1,1,0,0,0,156.15,87.47Z"/><circle class="cls-3" cx="148.11" cy="83.95" r="16"/><path class="cls-1" d="M143.37,202.51a3.93,3.93,0,0,1,2.34.79,2.13,2.13,0,0,1,.77,1.67,2.33,2.33,0,0,1-.52,1.51,2.43,2.43,0,0,1-1.33.83,9.66,9.66,0,0,1-2.17.19h-3.64v-.31h.36A1.6,1.6,0,0,0,140,207a.7.7,0,0,0,.29-.47,10.65,10.65,0,0,0,.06-1.48v-4.51a10.7,10.7,0,0,0-.06-1.46.61.61,0,0,0-.28-.45,2.13,2.13,0,0,0-.91-.12h-.18v-.32l1.53,0,1.74-.05c2.53,0,3.8.73,3.8,2.19a1.77,1.77,0,0,1-.66,1.44A3.78,3.78,0,0,1,143.37,202.51Zm-1.68-.13H142a3.22,3.22,0,0,0,2-.46,1.9,1.9,0,0,0,.54-1.51,2.43,2.43,0,0,0-.21-1.12,1.51,1.51,0,0,0-.64-.61,3.36,3.36,0,0,0-1.45-.22l-.55,0Zm0,.34v2.06c0,.88,0,1.44.05,1.68a.86.86,0,0,0,.26.54,1.32,1.32,0,0,0,.82.18,2.2,2.2,0,0,0,1.64-.56,2.28,2.28,0,0,0,.55-1.68,2.13,2.13,0,0,0-.62-1.69,3.35,3.35,0,0,0-2.18-.55Z"/><path class="cls-1" d="M149.09,207.66a1,1,0,0,1,.24,0,1.16,1.16,0,0,1,.91.4,1.47,1.47,0,0,1,.33,1,1.58,1.58,0,0,1-.49,1.18,1.8,1.8,0,0,1-1.26.45,1.71,1.71,0,0,1-.89-.23c-.25-.16-.37-.33-.37-.51a.26.26,0,0,1,.07-.19.26.26,0,0,1,.19-.08c.13,0,.23.09.28.28a.7.7,0,0,0,.32.45.72.72,0,0,0,.39.11,1,1,0,0,0,.8-.36,1.71,1.71,0,0,0,.31-1.11,1.45,1.45,0,0,0-.23-.9.66.66,0,0,0-.54-.3.91.91,0,0,0-.6.33.14.14,0,0,1-.11.06c-.08,0-.12-.05-.12-.13a.19.19,0,0,1,.06-.12,4,4,0,0,1,.35-.25,3.46,3.46,0,0,0,.81-.69,1.2,1.2,0,0,0,.2-.7.85.85,0,0,0-.21-.62.7.7,0,0,0-.55-.23,1,1,0,0,0-.62.23.71.71,0,0,0-.27.57.72.72,0,0,0,.24.52s0,0,0,.05,0,.07-.12.11a.55.55,0,0,1-.19.06c-.08,0-.16-.07-.23-.19a.77.77,0,0,1-.1-.4,1,1,0,0,1,.37-.78,1.37,1.37,0,0,1,1-.35,1.47,1.47,0,0,1,1,.29.88.88,0,0,1,.33.66,1,1,0,0,1-.23.6,3.8,3.8,0,0,1-.75.63Z"/><path class="cls-1" d="M151.44,207.94a3.61,3.61,0,0,1,.46-1.95,1.38,1.38,0,0,1,1.21-.73,1.4,1.4,0,0,1,1.22.73,4.36,4.36,0,0,1,0,3.9,1.37,1.37,0,0,1-2.43,0A3.65,3.65,0,0,1,151.44,207.94Zm.64,0a4.64,4.64,0,0,0,.28,2.07.84.84,0,0,0,.75.43.8.8,0,0,0,.8-.52,5.75,5.75,0,0,0,.23-2,4.74,4.74,0,0,0-.28-2.06.86.86,0,0,0-1.5,0A4.74,4.74,0,0,0,152.08,207.94Z"/><path class="cls-1" d="M156.15,207.82H156l.12-2.43h2a1.54,1.54,0,0,1-.24.45.44.44,0,0,1-.27.07h-1.37l-.06,1.61a1.2,1.2,0,0,1,1-.5,1.33,1.33,0,0,1,1,.49,1.74,1.74,0,0,1,.43,1.21,2,2,0,0,1-.48,1.37,1.75,1.75,0,0,1-1.36.54,1.42,1.42,0,0,1-.95-.28c-.23-.19-.34-.36-.34-.51a.28.28,0,0,1,.06-.18.25.25,0,0,1,.19-.07.26.26,0,0,1,.2.07,1.39,1.39,0,0,1,.15.32.68.68,0,0,0,.7.48,1.06,1.06,0,0,0,.84-.4,2,2,0,0,0,.34-1.31,1.83,1.83,0,0,0-.28-1.16.82.82,0,0,0-.66-.34A1,1,0,0,0,156.15,207.82Z"/><circle class="cls-3" cx="148.11" cy="204.29" r="16"/><path class="cls-1" d="M207.72,202.51a3.94,3.94,0,0,1,2.35.79,2.12,2.12,0,0,1,.76,1.67,2.27,2.27,0,0,1-.52,1.51,2.39,2.39,0,0,1-1.33.83,9.66,9.66,0,0,1-2.17.19h-3.63v-.31h.35a1.65,1.65,0,0,0,.83-.15.7.7,0,0,0,.29-.47,10.65,10.65,0,0,0,.06-1.48v-4.51a8.78,8.78,0,0,0-.07-1.46.61.61,0,0,0-.27-.45,2.17,2.17,0,0,0-.91-.12h-.18v-.32l1.52,0,1.74-.05c2.53,0,3.8.73,3.8,2.19a1.79,1.79,0,0,1-.65,1.44A3.82,3.82,0,0,1,207.72,202.51Zm-1.67-.13h.29a3.18,3.18,0,0,0,2-.46,1.9,1.9,0,0,0,.54-1.51,2.43,2.43,0,0,0-.21-1.12,1.4,1.4,0,0,0-.64-.61,3.31,3.31,0,0,0-1.44-.22l-.55,0Zm0,.34v2.06a14.67,14.67,0,0,0,0,1.68.86.86,0,0,0,.25.54,1.35,1.35,0,0,0,.83.18,2.22,2.22,0,0,0,1.64-.56,2.32,2.32,0,0,0,.54-1.68,2.13,2.13,0,0,0-.61-1.69,3.37,3.37,0,0,0-2.18-.55Z"/><path class="cls-1" d="M213.44,207.66a1.09,1.09,0,0,1,.25,0,1.12,1.12,0,0,1,.9.4,1.47,1.47,0,0,1,.33,1,1.54,1.54,0,0,1-.49,1.18,1.77,1.77,0,0,1-1.26.45,1.67,1.67,0,0,1-.88-.23c-.25-.16-.37-.33-.37-.51a.26.26,0,0,1,.07-.19.22.22,0,0,1,.18-.08c.14,0,.23.09.29.28a.7.7,0,0,0,.31.45.78.78,0,0,0,.4.11,1,1,0,0,0,.8-.36,1.71,1.71,0,0,0,.3-1.11,1.39,1.39,0,0,0-.23-.9.66.66,0,0,0-.54-.3.87.87,0,0,0-.59.33.17.17,0,0,1-.11.06c-.08,0-.12-.05-.12-.13a.19.19,0,0,1,.06-.12,3.29,3.29,0,0,1,.34-.25,3.81,3.81,0,0,0,.82-.69,1.2,1.2,0,0,0,.2-.7.85.85,0,0,0-.21-.62.72.72,0,0,0-.55-.23.93.93,0,0,0-.62.23.69.69,0,0,0-.28.57.72.72,0,0,0,.24.52s0,0,0,.05,0,.07-.13.11a.49.49,0,0,1-.19.06c-.08,0-.15-.07-.22-.19a.77.77,0,0,1-.11-.4,1,1,0,0,1,.38-.78,1.37,1.37,0,0,1,1-.35,1.44,1.44,0,0,1,1,.29.9.9,0,0,1,.34.66,1,1,0,0,1-.23.6,3.63,3.63,0,0,1-.76.63Z"/><path class="cls-1" d="M215.79,207.94a3.7,3.7,0,0,1,.46-1.95,1.4,1.4,0,0,1,1.22-.73,1.38,1.38,0,0,1,1.21.73,4.36,4.36,0,0,1,0,3.9,1.37,1.37,0,0,1-1.21.74,1.4,1.4,0,0,1-1.22-.73A3.74,3.74,0,0,1,215.79,207.94Zm.65,0a4.85,4.85,0,0,0,.27,2.07.84.84,0,0,0,.76.43.79.79,0,0,0,.79-.52,5.75,5.75,0,0,0,.23-2,4.79,4.79,0,0,0-.27-2.06.85.85,0,0,0-.75-.44.87.87,0,0,0-.76.44A4.79,4.79,0,0,0,216.44,207.94Z"/><path class="cls-1" d="M220.51,207.85a2.16,2.16,0,0,1,.51-.43,1.25,1.25,0,0,1,.56-.14,1.5,1.5,0,0,1,1.1.47,1.65,1.65,0,0,1,.46,1.2,1.72,1.72,0,0,1-.45,1.18,1.44,1.44,0,0,1-1.13.5,1.4,1.4,0,0,1-1-.37,2,2,0,0,1-.57-.93,4.37,4.37,0,0,1-.16-1.15,3.66,3.66,0,0,1,.55-2.08,1.66,1.66,0,0,1,1.46-.84,1.51,1.51,0,0,1,.75.18q.33.19.33.42a.19.19,0,0,1-.22.22.33.33,0,0,1-.3-.21.88.88,0,0,0-.26-.32.67.67,0,0,0-.41-.1,1,1,0,0,0-.92.55,3.36,3.36,0,0,0-.31,1.64Zm0,1a2.79,2.79,0,0,0,.11.76,1.15,1.15,0,0,0,.36.58.79.79,0,0,0,.55.22.82.82,0,0,0,.74-.39,2.27,2.27,0,0,0,.24-1.17,2.61,2.61,0,0,0-.09-.77,1.09,1.09,0,0,0-.34-.46.91.91,0,0,0-.55-.18,1,1,0,0,0-.71.31A1.51,1.51,0,0,0,220.49,208.89Z"/><circle class="cls-3" cx="212.47" cy="204.29" r="16"/><path class="cls-1" d="M187.11,261.5h.29v3.25h-.29a2.59,2.59,0,0,0-.45-1,4,4,0,0,1-3.12,1.39,4.46,4.46,0,0,1-3.29-1.28,4.52,4.52,0,0,1-1.27-3.36,5.75,5.75,0,0,1,.59-2.59,4,4,0,0,1,1.64-1.8,4.67,4.67,0,0,1,2.31-.59,4.16,4.16,0,0,1,1.88.43,3.85,3.85,0,0,1,1.26,1,3.31,3.31,0,0,0,.36-1.21h.3l.08,3.52h-.29a4,4,0,0,0-1.26-2.61,3.44,3.44,0,0,0-2.13-.73,2.73,2.73,0,0,0-2.32,1.19,5.68,5.68,0,0,0-.86,3.38,4.84,4.84,0,0,0,.94,3.19,2.91,2.91,0,0,0,2.33,1.12,3.65,3.65,0,0,0,1.53-.37,2.64,2.64,0,0,0,1.23-1.22A4.83,4.83,0,0,0,187.11,261.5Z"/><path class="cls-1" d="M190.31,265.14l.24,0a1.12,1.12,0,0,1,.91.39,1.47,1.47,0,0,1,.33,1,1.54,1.54,0,0,1-.49,1.18,1.78,1.78,0,0,1-1.26.45,1.56,1.56,0,0,1-.88-.23c-.25-.16-.38-.33-.38-.51a.32.32,0,0,1,.07-.19.26.26,0,0,1,.19-.08c.13,0,.23.09.29.28a.69.69,0,0,0,.31.46.81.81,0,0,0,.39.1,1,1,0,0,0,.8-.36,1.65,1.65,0,0,0,.31-1.11,1.45,1.45,0,0,0-.23-.9.66.66,0,0,0-.54-.3.87.87,0,0,0-.59.33.17.17,0,0,1-.12.06c-.08,0-.11-.05-.11-.13a.15.15,0,0,1,.06-.11,2.83,2.83,0,0,1,.34-.26,3.24,3.24,0,0,0,.81-.69,1.14,1.14,0,0,0,.2-.7.84.84,0,0,0-.2-.62.71.71,0,0,0-.55-.22,1,1,0,0,0-.63.22.71.71,0,0,0-.27.57.72.72,0,0,0,.24.52.09.09,0,0,1,0,.05s-.05.07-.13.11a.55.55,0,0,1-.19.06c-.08,0-.16-.06-.23-.19a.77.77,0,0,1-.1-.4,1,1,0,0,1,.37-.78,1.69,1.69,0,0,1,2-.06.88.88,0,0,1,.33.66,1,1,0,0,1-.22.6,3.63,3.63,0,0,1-.76.63Z"/><path class="cls-1" d="M192.66,265.43a3.62,3.62,0,0,1,.46-2,1.38,1.38,0,0,1,1.21-.73,1.4,1.4,0,0,1,1.22.73,3.67,3.67,0,0,1,.46,2,3.6,3.6,0,0,1-.46,1.94,1.37,1.37,0,0,1-2.43,0A3.61,3.61,0,0,1,192.66,265.43Zm.65,0a4.83,4.83,0,0,0,.27,2.06.85.85,0,0,0,.75.44.8.8,0,0,0,.8-.53,5.72,5.72,0,0,0,.23-2,4.82,4.82,0,0,0-.27-2.07.88.88,0,0,0-1.51,0A4.82,4.82,0,0,0,193.31,265.43Z"/><path class="cls-1" d="M197.38,265.34a1.71,1.71,0,0,1,.51-.44,1.25,1.25,0,0,1,.56-.14,1.51,1.51,0,0,1,1.1.47,1.69,1.69,0,0,1,.46,1.2,1.72,1.72,0,0,1-.45,1.18,1.43,1.43,0,0,1-1.14.5,1.38,1.38,0,0,1-1-.37,2,2,0,0,1-.57-.93,4,4,0,0,1-.16-1.15,3.74,3.74,0,0,1,.54-2.08,1.68,1.68,0,0,1,1.46-.84,1.55,1.55,0,0,1,.76.18q.33.19.33.42a.19.19,0,0,1-.22.22.35.35,0,0,1-.31-.21A.87.87,0,0,0,199,263a.67.67,0,0,0-.41-.1,1,1,0,0,0-.93.55,3.51,3.51,0,0,0-.31,1.64C197.37,265.19,197.38,265.26,197.38,265.34Zm0,1a2.45,2.45,0,0,0,.11.76,1.16,1.16,0,0,0,.35.58.83.83,0,0,0,.56.22.8.8,0,0,0,.73-.39,2.27,2.27,0,0,0,.24-1.17,2.61,2.61,0,0,0-.09-.77,1,1,0,0,0-.33-.46.93.93,0,0,0-.55-.18,1,1,0,0,0-.71.31A1.51,1.51,0,0,0,197.36,266.37Z"/><circle class="cls-3" cx="187.88" cy="261.77" r="16"/><path class="cls-1" d="M227.82,255.79l1.52-.08c1.28-.06,2.13-.09,2.57-.09a6.76,6.76,0,0,1,3.22.63,4,4,0,0,1,1.72,1.7,5.73,5.73,0,0,1,.26,4.35,4,4,0,0,1-.84,1.4,3.65,3.65,0,0,1-1.25.85,5.26,5.26,0,0,1-1.34.36,16.59,16.59,0,0,1-1.79.07h-4.11v-.31h.38a1.65,1.65,0,0,0,.83-.15.7.7,0,0,0,.29-.47,10.65,10.65,0,0,0,.06-1.48V258.1a10.15,10.15,0,0,0-.06-1.43.61.61,0,0,0-.27-.45,2.22,2.22,0,0,0-.92-.12h-.27Zm2.86.19v6.19c0,.92,0,1.51,0,1.78a.7.7,0,0,0,.31.55,2.3,2.3,0,0,0,1.08.16,5.13,5.13,0,0,0,2-.33,2.72,2.72,0,0,0,1.3-1.3,5.23,5.23,0,0,0,.52-2.49,6.83,6.83,0,0,0-.3-2.1,3.81,3.81,0,0,0-.87-1.5,2.92,2.92,0,0,0-1.26-.78,6.21,6.21,0,0,0-1.77-.21Z"/><path class="cls-1" d="M240.12,265.14l.25,0a1.12,1.12,0,0,1,.9.39,1.47,1.47,0,0,1,.33,1,1.54,1.54,0,0,1-.49,1.18,1.77,1.77,0,0,1-1.26.45,1.58,1.58,0,0,1-.88-.23c-.25-.16-.37-.33-.37-.51a.26.26,0,0,1,.07-.19.23.23,0,0,1,.18-.08c.14,0,.23.09.29.28a.72.72,0,0,0,.31.46.85.85,0,0,0,.4.1,1,1,0,0,0,.8-.36,1.71,1.71,0,0,0,.3-1.11,1.39,1.39,0,0,0-.23-.9.66.66,0,0,0-.54-.3.9.9,0,0,0-.59.33.17.17,0,0,1-.11.06c-.08,0-.12-.05-.12-.13a.15.15,0,0,1,.06-.11,2.83,2.83,0,0,1,.34-.26,3.54,3.54,0,0,0,.82-.69,1.2,1.2,0,0,0,.2-.7.85.85,0,0,0-.21-.62.71.71,0,0,0-.55-.22.92.92,0,0,0-.62.22.69.69,0,0,0-.28.57.72.72,0,0,0,.24.52.09.09,0,0,1,0,.05s0,.07-.13.11a.55.55,0,0,1-.19.06c-.08,0-.15-.06-.22-.19a.77.77,0,0,1-.11-.4,1.06,1.06,0,0,1,.38-.78,1.42,1.42,0,0,1,1-.35,1.44,1.44,0,0,1,1,.29.85.85,0,0,1,.33.66,1,1,0,0,1-.22.6,3.63,3.63,0,0,1-.76.63Z"/><path class="cls-1" d="M242.47,265.43a3.71,3.71,0,0,1,.46-2,1.4,1.4,0,0,1,1.22-.73,1.38,1.38,0,0,1,1.21.73,3.67,3.67,0,0,1,.46,2,3.6,3.6,0,0,1-.46,1.94,1.36,1.36,0,0,1-1.21.74,1.4,1.4,0,0,1-1.22-.73A3.7,3.7,0,0,1,242.47,265.43Zm.65,0a4.83,4.83,0,0,0,.27,2.06.86.86,0,0,0,.76.44.8.8,0,0,0,.79-.53,5.48,5.48,0,0,0,.23-2,4.82,4.82,0,0,0-.27-2.07.84.84,0,0,0-.75-.43.86.86,0,0,0-.76.43A4.82,4.82,0,0,0,243.12,265.43Z"/><path class="cls-1" d="M247.19,265.34a2,2,0,0,1,.51-.44,1.25,1.25,0,0,1,.56-.14,1.5,1.5,0,0,1,1.1.47,1.65,1.65,0,0,1,.46,1.2,1.72,1.72,0,0,1-.45,1.18,1.52,1.52,0,0,1-2.12.13,2,2,0,0,1-.57-.93,4.37,4.37,0,0,1-.16-1.15,3.66,3.66,0,0,1,.55-2.08,1.66,1.66,0,0,1,1.46-.84,1.51,1.51,0,0,1,.75.18q.33.19.33.42a.19.19,0,0,1-.22.22.35.35,0,0,1-.31-.21.78.78,0,0,0-.25-.32.67.67,0,0,0-.41-.1,1,1,0,0,0-.92.55,3.38,3.38,0,0,0-.31,1.64Zm0,1a2.79,2.79,0,0,0,.11.76,1.11,1.11,0,0,0,.36.58.79.79,0,0,0,.55.22.8.8,0,0,0,.73-.39,2.17,2.17,0,0,0,.25-1.17,2.61,2.61,0,0,0-.09-.77,1.09,1.09,0,0,0-.34-.46.89.89,0,0,0-.55-.18,1,1,0,0,0-.71.31A1.51,1.51,0,0,0,247.17,266.37Z"/><circle class="cls-3" cx="237.11" cy="261.77" r="16"/><path class="cls-1" d="M275.35,262.1h.32l-.19,2.88H267.8v-.31H268a1.45,1.45,0,0,0,.89-.18.85.85,0,0,0,.26-.47,10.57,10.57,0,0,0,.05-1.45V258a12.85,12.85,0,0,0-.05-1.4.67.67,0,0,0-.27-.47A1.87,1.87,0,0,0,268,256v-.32h6.63l.21,2.32h-.32a3.55,3.55,0,0,0-.53-1.38,1.4,1.4,0,0,0-.76-.51,6,6,0,0,0-1.41-.11h-1.28v3.89h1a2.61,2.61,0,0,0,.95-.12.58.58,0,0,0,.35-.35,3,3,0,0,0,.09-.92h.32v3.17h-.32a2.6,2.6,0,0,0-.13-1,.6.6,0,0,0-.38-.34,2.86,2.86,0,0,0-.84-.08h-1v2.19a4.78,4.78,0,0,0,.21,1.94c.14.19.52.29,1.14.29h.69a3.14,3.14,0,0,0,1.2-.19,2,2,0,0,0,.9-.77A4.56,4.56,0,0,0,275.35,262.1Z"/><path class="cls-1" d="M278.09,265.14a1.07,1.07,0,0,1,.25,0,1.12,1.12,0,0,1,.9.39,1.47,1.47,0,0,1,.33,1,1.54,1.54,0,0,1-.49,1.18,1.76,1.76,0,0,1-1.25.45,1.6,1.6,0,0,1-.89-.23c-.25-.16-.37-.33-.37-.51a.26.26,0,0,1,.07-.19.23.23,0,0,1,.18-.08c.14,0,.23.09.29.28a.72.72,0,0,0,.31.46.88.88,0,0,0,.4.1,1,1,0,0,0,.8-.36,1.71,1.71,0,0,0,.3-1.11,1.39,1.39,0,0,0-.23-.9.66.66,0,0,0-.54-.3.9.9,0,0,0-.59.33.15.15,0,0,1-.11.06c-.08,0-.12-.05-.12-.13a.15.15,0,0,1,.06-.11,2.83,2.83,0,0,1,.34-.26,3.54,3.54,0,0,0,.82-.69,1.2,1.2,0,0,0,.2-.7.85.85,0,0,0-.21-.62.71.71,0,0,0-.55-.22.92.92,0,0,0-.62.22.69.69,0,0,0-.28.57.72.72,0,0,0,.24.52.09.09,0,0,1,0,.05s0,.07-.13.11a.49.49,0,0,1-.19.06c-.08,0-.15-.06-.22-.19a.77.77,0,0,1-.11-.4,1.06,1.06,0,0,1,.38-.78,1.42,1.42,0,0,1,1-.35,1.49,1.49,0,0,1,1,.29.88.88,0,0,1,.33.66,1,1,0,0,1-.23.6,3.63,3.63,0,0,1-.76.63Z"/><path class="cls-1" d="M280.44,265.43a3.62,3.62,0,0,1,.47-2,1.37,1.37,0,0,1,2.42,0,3.67,3.67,0,0,1,.46,2,3.6,3.6,0,0,1-.46,1.94,1.36,1.36,0,0,1-2.42,0A3.61,3.61,0,0,1,280.44,265.43Zm.65,0a4.83,4.83,0,0,0,.27,2.06.85.85,0,0,0,.76.44.8.8,0,0,0,.79-.53,5.48,5.48,0,0,0,.23-2,4.82,4.82,0,0,0-.27-2.07.84.84,0,0,0-.75-.43.86.86,0,0,0-.76.43A4.82,4.82,0,0,0,281.09,265.43Z"/><path class="cls-1" d="M285.16,265.34a2,2,0,0,1,.51-.44,1.26,1.26,0,0,1,.57-.14,1.49,1.49,0,0,1,1.09.47,1.65,1.65,0,0,1,.46,1.2,1.72,1.72,0,0,1-.45,1.18,1.52,1.52,0,0,1-2.12.13,1.89,1.89,0,0,1-.56-.93,4,4,0,0,1-.17-1.15,3.66,3.66,0,0,1,.55-2.08,1.66,1.66,0,0,1,1.46-.84,1.51,1.51,0,0,1,.75.18q.33.19.33.42a.19.19,0,0,1-.22.22.33.33,0,0,1-.3-.21.88.88,0,0,0-.26-.32.67.67,0,0,0-.41-.1,1,1,0,0,0-.92.55,3.38,3.38,0,0,0-.31,1.64Zm0,1a2.79,2.79,0,0,0,.11.76,1.11,1.11,0,0,0,.36.58.79.79,0,0,0,.55.22.82.82,0,0,0,.74-.39,2.27,2.27,0,0,0,.24-1.17,2.61,2.61,0,0,0-.09-.77,1.09,1.09,0,0,0-.34-.46.89.89,0,0,0-.55-.18,1,1,0,0,0-.71.31A1.51,1.51,0,0,0,285.14,266.37Z"/><circle class="cls-3" cx="276.98" cy="261.77" r="16"/><path class="cls-1" d="M272.08,202.51a3.93,3.93,0,0,1,2.34.79,2.13,2.13,0,0,1,.77,1.67,2.27,2.27,0,0,1-.52,1.51,2.43,2.43,0,0,1-1.33.83,9.66,9.66,0,0,1-2.17.19h-3.64v-.31h.36a1.58,1.58,0,0,0,.82-.15.66.66,0,0,0,.29-.47,10.65,10.65,0,0,0,.06-1.48v-4.51a10.7,10.7,0,0,0-.06-1.46.61.61,0,0,0-.27-.45,2.22,2.22,0,0,0-.92-.12h-.17v-.32l1.52,0,1.74-.05c2.53,0,3.8.73,3.8,2.19a1.77,1.77,0,0,1-.66,1.44A3.78,3.78,0,0,1,272.08,202.51Zm-1.68-.13h.29a3.2,3.2,0,0,0,2-.46,1.9,1.9,0,0,0,.54-1.51,2.43,2.43,0,0,0-.21-1.12,1.51,1.51,0,0,0-.64-.61,3.36,3.36,0,0,0-1.45-.22l-.55,0Zm0,.34v2.06c0,.88,0,1.44.05,1.68a.86.86,0,0,0,.26.54,1.32,1.32,0,0,0,.82.18,2.2,2.2,0,0,0,1.64-.56,2.28,2.28,0,0,0,.55-1.68,2.13,2.13,0,0,0-.62-1.69,3.35,3.35,0,0,0-2.18-.55Z"/><path class="cls-1" d="M277.8,207.66a1,1,0,0,1,.24,0,1.14,1.14,0,0,1,.91.4,1.47,1.47,0,0,1,.33,1,1.58,1.58,0,0,1-.49,1.18,1.8,1.8,0,0,1-1.26.45,1.71,1.71,0,0,1-.89-.23c-.24-.16-.37-.33-.37-.51a.32.32,0,0,1,.07-.19.26.26,0,0,1,.19-.08c.13,0,.23.09.29.28a.66.66,0,0,0,.31.45.72.72,0,0,0,.39.11,1,1,0,0,0,.8-.36,1.65,1.65,0,0,0,.31-1.11,1.45,1.45,0,0,0-.23-.9.66.66,0,0,0-.54-.3.91.91,0,0,0-.6.33.14.14,0,0,1-.11.06c-.08,0-.12-.05-.12-.13a.19.19,0,0,1,.06-.12,4,4,0,0,1,.35-.25,3.46,3.46,0,0,0,.81-.69,1.14,1.14,0,0,0,.2-.7.89.89,0,0,0-.2-.62.74.74,0,0,0-.56-.23,1,1,0,0,0-.62.23.71.71,0,0,0-.27.57.72.72,0,0,0,.24.52s0,0,0,.05-.05.07-.13.11a.55.55,0,0,1-.19.06c-.08,0-.16-.07-.23-.19a.77.77,0,0,1-.1-.4,1,1,0,0,1,.37-.78,1.4,1.4,0,0,1,1-.35,1.44,1.44,0,0,1,1,.29.88.88,0,0,1,.33.66,1,1,0,0,1-.22.6,3.92,3.92,0,0,1-.76.63Z"/><path class="cls-1" d="M280.15,207.94a3.61,3.61,0,0,1,.46-1.95,1.38,1.38,0,0,1,1.21-.73A1.4,1.4,0,0,1,283,206a4.36,4.36,0,0,1,0,3.9,1.37,1.37,0,0,1-2.43,0A3.65,3.65,0,0,1,280.15,207.94Zm.65,0a4.85,4.85,0,0,0,.27,2.07.84.84,0,0,0,.75.43.8.8,0,0,0,.8-.52,5.75,5.75,0,0,0,.23-2,4.79,4.79,0,0,0-.27-2.06.87.87,0,0,0-.76-.44.85.85,0,0,0-.75.44A4.79,4.79,0,0,0,280.8,207.94Z"/><path class="cls-1" d="M284.41,206.33l.33-1.07h.14a.1.1,0,0,0,.06.1.91.91,0,0,0,.31,0h2l-1.4,4.27a3.08,3.08,0,0,1-.35.84.32.32,0,0,1-.24.13.21.21,0,0,1-.24-.24,1.86,1.86,0,0,1,.22-.61l.1-.22,1.57-3.66h-1.67a2.61,2.61,0,0,0-.4,0,.17.17,0,0,0-.12.08,1.32,1.32,0,0,0-.15.33Z"/><circle class="cls-3" cx="276.83" cy="204.29" r="16"/><line class="cls-4" x1="141.77" y1="39.64" x2="141.77" y2="62.48"/><polyline class="cls-5" points="139.09 60.19 141.89 62.98 144.75 60.12"/><line class="cls-4" x1="155.39" y1="62.98" x2="155.39" y2="40.15"/><polyline class="cls-5" points="152.71 42.44 155.51 39.64 158.38 42.51"/><line class="cls-4" x1="191.77" y1="207.43" x2="168.93" y2="207.43"/><polyline class="cls-5" points="171.22 210.11 168.43 207.31 171.29 204.45"/><line class="cls-4" x1="228.31" y1="222.2" x2="241.41" y2="240.91"/><polyline class="cls-5" points="242.29 237.49 241.61 241.39 237.61 240.68"/><line class="cls-4" x1="196.68" y1="222.2" x2="183.59" y2="240.91"/><polyline class="cls-5" points="182.7 237.49 183.39 241.39 187.38 240.68"/><line class="cls-4" x1="168.43" y1="200.67" x2="191.26" y2="200.67"/><polyline class="cls-5" points="188.97 203.35 191.77 200.56 188.9 197.69"/><line class="cls-4" x1="255.77" y1="207.43" x2="232.94" y2="207.43"/><polyline class="cls-5" points="235.22 210.11 232.43 207.31 235.3 204.45"/><line class="cls-4" x1="232.43" y1="200.67" x2="255.27" y2="200.67"/><polyline class="cls-5" points="252.98 203.35 255.77 200.56 252.9 197.69"/><line class="cls-4" x1="283.32" y1="224.1" x2="283.32" y2="240.88"/><polyline class="cls-5" points="286 238.59 283.21 241.39 280.34 238.52"/><line class="cls-4" x1="125.44" y1="84.04" x2="86.21" y2="84.04"/><polyline class="cls-5" points="88.5 86.72 85.71 83.92 88.58 81.06"/><line class="cls-4" x1="214.03" y1="83.97" x2="214.03" y2="96.64"/><polyline class="cls-5" points="216.71 94.35 213.91 97.14 211.04 94.27"/><line class="cls-4" x1="214.03" y1="83.97" x2="170.89" y2="83.97"/><line class="cls-4" x1="99.06" y1="147.17" x2="137.05" y2="109.18"/><polyline class="cls-5" points="133.54 108.9 137.49 108.9 137.49 112.96"/><line class="cls-4" x1="131.37" y1="102.77" x2="93.37" y2="140.77"/><polyline class="cls-5" points="96.89 141.04 92.93 141.04 92.93 136.99"/><line class="cls-6" x1="148.08" y1="67.83" x2="148.08" y2="35.33"/><circle class="cls-1" cx="131.83" cy="50.44" r="4.78"/><path class="cls-7" d="M133.15,52.94h-2.41v-.37h.19a.76.76,0,0,0,.35-.06.23.23,0,0,0,.13-.16,1.31,1.31,0,0,0,0-.33V49a1,1,0,0,0,0-.34.28.28,0,0,0-.17-.15,1.47,1.47,0,0,0-.42,0h-.14v-.36a7.74,7.74,0,0,0,.93-.17,1.75,1.75,0,0,0,.5-.23h.36v4.39a.54.54,0,0,0,.1.38.48.48,0,0,0,.37.11h.22Z"/><circle class="cls-1" cx="106.34" cy="76.4" r="4.78"/><path class="cls-7" d="M108.1,78.22l-.17,1h-.33a.93.93,0,0,0,0-.14c0-.1-.07-.16-.2-.16h-2.57v-.36a11.77,11.77,0,0,0,1-1.08,7.18,7.18,0,0,0,.83-1.23A2.66,2.66,0,0,0,107,75a1.19,1.19,0,0,0-.12-.56.77.77,0,0,0-.31-.33.8.8,0,0,0-.4-.11.76.76,0,0,0-.37.1.65.65,0,0,0-.26.26.56.56,0,0,0-.1.33,1.43,1.43,0,0,0,.16.54.06.06,0,0,1,0,0s0,0-.16.09l-.25.11a.48.48,0,0,1-.16.05s-.09-.07-.14-.21a1.34,1.34,0,0,1-.08-.46,1.1,1.1,0,0,1,.18-.62,1.12,1.12,0,0,1,.53-.44,2.13,2.13,0,0,1,.88-.16,1.8,1.8,0,0,1,1,.24,1.26,1.26,0,0,1,.49.55,1.46,1.46,0,0,1,.13.58,1.86,1.86,0,0,1-.36,1.07,8.08,8.08,0,0,1-1,1.13l-.25.24-.49.46-.33.3Z"/><circle class="cls-1" cx="106.83" cy="116.71" r="4.78"/><path class="cls-7" d="M108.66,117.45a1.66,1.66,0,0,1-.16.73,2,2,0,0,1-.46.6,2.06,2.06,0,0,1-.67.4,2.25,2.25,0,0,1-.82.15,2.07,2.07,0,0,1-.68-.1,1.14,1.14,0,0,1-.47-.29.56.56,0,0,1-.17-.41.42.42,0,0,1,.12-.32.36.36,0,0,1,.27-.11.41.41,0,0,1,.3.11,1.62,1.62,0,0,1,.22.37.72.72,0,0,0,.2.28.44.44,0,0,0,.29.09.77.77,0,0,0,.81-.43,2.19,2.19,0,0,0,.18-.87,2.55,2.55,0,0,0-.1-.84.38.38,0,0,0-.38-.27.66.66,0,0,0-.4.17.66.66,0,0,1-.32.19.19.19,0,0,1-.14-.05.2.2,0,0,1,0-.14.3.3,0,0,1,0-.16,1,1,0,0,1,.18-.14c.31-.22.54-.38.69-.5a1.25,1.25,0,0,0,.32-.38,1,1,0,0,0,.11-.5.64.64,0,0,0-.21-.52.8.8,0,0,0-.52-.18.85.85,0,0,0-.35.08.6.6,0,0,0-.27.22.44.44,0,0,0-.1.28.58.58,0,0,0,.13.37.24.24,0,0,1,.07.1s0,0,0,.05l-.08,0-.33.14a.29.29,0,0,1-.15.06c-.06,0-.13-.06-.19-.18a.75.75,0,0,1-.1-.38,1,1,0,0,1,.14-.47,1.29,1.29,0,0,1,.52-.48,2.14,2.14,0,0,1,1-.21,2.21,2.21,0,0,1,.71.1,1.1,1.1,0,0,1,.5.31.76.76,0,0,1,.18.51,1,1,0,0,1-.11.44,1.48,1.48,0,0,1-.25.35,3,3,0,0,1-.3.25l-.35.23a1,1,0,0,1,.84.38,1.83,1.83,0,0,1,.23.38A1.6,1.6,0,0,1,108.66,117.45Z"/><circle class="cls-1" cx="124.36" cy="134.01" r="4.78"/><path class="cls-7" d="M125.83,136.51h-2.41v-.38h.13a1.07,1.07,0,0,0,.42,0,.22.22,0,0,0,.16-.15,1.33,1.33,0,0,0,0-.35v-.77h-1.87v-.5l2.29-3.06h.53v3.11h.72v.45h-.72v.77a1.1,1.1,0,0,0,0,.37.26.26,0,0,0,.16.15,1.79,1.79,0,0,0,.39,0h.13Zm-1.67-2.15v-2l-1.45,2Z"/><circle class="cls-1" cx="166.09" cy="50.44" r="4.78"/><path class="cls-7" d="M168,47.81l-1.47,4.56a3.32,3.32,0,0,1-.13.35.94.94,0,0,1-.18.25.46.46,0,0,1-.29.09.47.47,0,0,1-.32-.12.45.45,0,0,1-.14-.33.79.79,0,0,1,0-.2,1.36,1.36,0,0,1,.1-.21l.08-.15,1.65-3.4h-1.65l-.35,0a.3.3,0,0,0-.17.1A1.13,1.13,0,0,0,165,49l0,.12h-.39l.54-1.64h.37a.61.61,0,0,0,0,.17.09.09,0,0,0,0,.07.55.55,0,0,0,.31.05Z"/><circle class="cls-1" cx="156.73" cy="144.54" r="4.78"/><path class="cls-7" d="M158.56,145.35a1.94,1.94,0,0,1-.15.78,1.76,1.76,0,0,1-.39.56,1.57,1.57,0,0,1-.54.35,1.59,1.59,0,0,1-.59.12,1.45,1.45,0,0,1-.56-.12,1.57,1.57,0,0,1-.58-.38,2,2,0,0,1-.44-.72,3.16,3.16,0,0,1-.17-1.09,4.24,4.24,0,0,1,.27-1.53,2.54,2.54,0,0,1,.79-1.13,2,2,0,0,1,1.24-.41,1.57,1.57,0,0,1,.58.09.88.88,0,0,1,.33.24.44.44,0,0,1,.1.28.34.34,0,0,1-.1.24.31.31,0,0,1-.26.12.47.47,0,0,1-.17,0,.41.41,0,0,1-.13-.1,1.63,1.63,0,0,1-.14-.18.61.61,0,0,0-.49-.27.62.62,0,0,0-.55.32,2.12,2.12,0,0,0-.27.7c0,.25-.08.52-.11.81a1.55,1.55,0,0,1,.84-.29,1.61,1.61,0,0,1,.71.17,1.34,1.34,0,0,1,.56.55A1.78,1.78,0,0,1,158.56,145.35Zm-1-.06a5,5,0,0,0,0-.56,1.1,1.1,0,0,0-.19-.46.52.52,0,0,0-.44-.19c-.48,0-.71.46-.71,1.38a3.54,3.54,0,0,0,0,.47,1.45,1.45,0,0,0,.1.41.68.68,0,0,0,.22.32.58.58,0,0,0,.38.12.6.6,0,0,0,.37-.11.73.73,0,0,0,.2-.32,1.93,1.93,0,0,0,.07-.43C157.52,145.77,157.52,145.56,157.52,145.29Z"/><circle class="cls-1" cx="192.59" cy="77.01" r="4.78"/><path class="cls-7" d="M194.42,77.78a1.72,1.72,0,0,1-.25.89,1.8,1.8,0,0,1-.72.7,2.29,2.29,0,0,1-1.14.27,1.79,1.79,0,0,1-.7-.12,1,1,0,0,1-.43-.29.55.55,0,0,1-.14-.36.4.4,0,0,1,.12-.31.37.37,0,0,1,.27-.12.33.33,0,0,1,.21.07,2,2,0,0,1,.15.22,1.12,1.12,0,0,0,.34.41.7.7,0,0,0,.4.12.72.72,0,0,0,.57-.22,1,1,0,0,0,.23-.5,3.64,3.64,0,0,0,0-.6,3,3,0,0,0-.17-1.1.63.63,0,0,0-.62-.4.7.7,0,0,0-.37.12.79.79,0,0,0-.32.43h-.42l.07-2.61H194l-.16.34a.79.79,0,0,1-.18.27.41.41,0,0,1-.22,0H191.9l0,1.41a1.66,1.66,0,0,1,.26-.2,1,1,0,0,1,.28-.12,1.28,1.28,0,0,1,.41-.05,1.59,1.59,0,0,1,.66.14,1.44,1.44,0,0,1,.51.39,1.8,1.8,0,0,1,.32.55A1.9,1.9,0,0,1,194.42,77.78Z"/><polyline class="cls-8" points="80.8 269.12 80.8 270.12 79.8 270.12"/><line class="cls-9" x1="77.77" y1="270.12" x2="5.81" y2="270.12"/><polyline class="cls-8" points="4.79 270.12 3.79 270.12 3.79 269.12"/><line class="cls-10" x1="3.79" y1="267.1" x2="3.79" y2="138.45"/><polyline class="cls-8" points="3.79 137.44 3.79 136.44 4.79 136.44"/><line class="cls-9" x1="6.82" y1="136.44" x2="78.78" y2="136.44"/><polyline class="cls-8" points="79.8 136.44 80.8 136.44 80.8 137.44"/><line class="cls-10" x1="80.8" y1="139.47" x2="80.8" y2="268.11"/><line class="cls-4" x1="148.28" y1="105.53" x2="148.28" y2="183.1"/><polyline class="cls-5" points="150.97 180.81 148.17 183.61 145.3 180.74"/><line class="cls-6" x1="277.2" y1="245.77" x2="277.2" y2="220.3"/><line class="cls-6" x1="218.78" y1="219" x2="237.61" y2="245.74"/><line class="cls-6" x1="206.38" y1="219.1" x2="187.88" y2="245.77"/><polygon class="cls-2" points="233.19 141.26 181.32 141.26 193.88 100.35 245.74 100.35 233.19 141.26"/></g><g id="RED"><line class="cls-11" x1="131.37" y1="102.77" x2="93.37" y2="140.77"/><polyline class="cls-12" points="96.89 141.04 92.93 141.04 92.93 136.99"/><circle class="cls-13" cx="106.83" cy="116.71" r="4.78"/><path class="cls-7" d="M108.66,117.45a1.66,1.66,0,0,1-.16.73,2,2,0,0,1-.46.6,2.06,2.06,0,0,1-.67.4,2.25,2.25,0,0,1-.82.15,2.07,2.07,0,0,1-.68-.1,1.14,1.14,0,0,1-.47-.29.56.56,0,0,1-.17-.41.42.42,0,0,1,.12-.32.36.36,0,0,1,.27-.11.41.41,0,0,1,.3.11,1.62,1.62,0,0,1,.22.37.72.72,0,0,0,.2.28.44.44,0,0,0,.29.09.77.77,0,0,0,.81-.43,2.19,2.19,0,0,0,.18-.87,2.55,2.55,0,0,0-.1-.84.38.38,0,0,0-.38-.27.66.66,0,0,0-.4.17.66.66,0,0,1-.32.19.19.19,0,0,1-.14-.05.2.2,0,0,1,0-.14.3.3,0,0,1,0-.16,1,1,0,0,1,.18-.14c.31-.22.54-.38.69-.5a1.25,1.25,0,0,0,.32-.38,1,1,0,0,0,.11-.5.64.64,0,0,0-.21-.52.8.8,0,0,0-.52-.18.85.85,0,0,0-.35.08.6.6,0,0,0-.27.22.44.44,0,0,0-.1.28.58.58,0,0,0,.13.37.24.24,0,0,1,.07.1s0,0,0,.05l-.08,0-.33.14a.29.29,0,0,1-.15.06c-.06,0-.13-.06-.19-.18a.75.75,0,0,1-.1-.38,1,1,0,0,1,.14-.47,1.29,1.29,0,0,1,.52-.48,2.14,2.14,0,0,1,1-.21,2.21,2.21,0,0,1,.71.1,1.1,1.1,0,0,1,.5.31.76.76,0,0,1,.18.51,1,1,0,0,1-.11.44,1.48,1.48,0,0,1-.25.35,3,3,0,0,1-.3.25l-.35.23a1,1,0,0,1,.84.38,1.83,1.83,0,0,1,.23.38A1.6,1.6,0,0,1,108.66,117.45Z"/></g></svg>