<svg xmlns="http://www.w3.org/2000/svg" viewBox="0 0 540.97 163.39"><defs><style>.cls-1,.cls-2{fill:none;stroke:#010101;stroke-miterlimit:10;stroke-width:2px;}.cls-2{stroke-linecap:round;}.cls-3{fill:#fff;stroke:#1d1d1b;stroke-linejoin:round;stroke-width:0.76px;}.cls-4{fill:#1d1d1b;}</style></defs><g id="Layer_1" data-name="Layer 1"><line class="cls-1" x1="231.17" y1="68.12" x2="197.69" y2="30.02"/><line class="cls-1" x1="161.83" y1="69.28" x2="195.85" y2="30.56"/><line class="cls-2" x1="105.8" y1="67.71" x2="193.74" y2="29.31"/><line class="cls-2" x1="289.44" y1="69.52" x2="200.28" y2="29.31"/><line class="cls-1" x1="491.71" y1="65.47" x2="491.71" y2="32.97"/><line class="cls-2" x1="401.15" y1="67.71" x2="486.83" y2="30.29"/><line class="cls-2" x1="584.78" y1="69.46" x2="495.09" y2="30.29"/><line class="cls-2" x1="97.64" y1="97.48" x2="97.64" y2="130.23"/><line class="cls-2" x1="87.98" y1="94.23" x2="66.14" y2="130.23"/><line class="cls-2" x1="87.98" y1="94.23" x2="66.14" y2="130.23"/><line class="cls-2" x1="153.8" y1="94.23" x2="130.09" y2="130.23"/><line class="cls-2" x1="174.92" y1="94.23" x2="195.88" y2="130.23"/><line class="cls-2" x1="163.45" y1="94.23" x2="164.39" y2="130.23"/><line class="cls-2" x1="229.27" y1="97.48" x2="228.34" y2="130.23"/><line class="cls-2" x1="295.12" y1="97.48" x2="295.12" y2="130.23"/><line class="cls-2" x1="239.53" y1="94.23" x2="263.62" y2="130.23"/><line class="cls-2" x1="305.74" y1="94.23" x2="327.57" y2="130.23"/><line class="cls-2" x1="225.32" y1="17.93" x2="948.41" y2="17.93"/><line class="cls-2" x1="113.64" y1="79.2" x2="948.41" y2="79.2"/><line class="cls-2" x1="67.14" y1="145.18" x2="948.41" y2="145.18"/><circle class="cls-3" cx="97.64" cy="81.47" r="16"/><path class="cls-4" d="M97.53,82.1H94l-.24.59a6.09,6.09,0,0,0-.53,1.67.75.75,0,0,0,.28.63,1.19,1.19,0,0,0,.73.21v.32H91.5V85.2a1.47,1.47,0,0,0,.91-.43,5.57,5.57,0,0,0,.73-1.43c0-.06.13-.33.32-.79l2.7-6.43h.26l3.1,7.36.42,1a1.4,1.4,0,0,0,.39.52,1.46,1.46,0,0,0,.73.23v.32H97.42V85.2a2.6,2.6,0,0,0,.9-.1.37.37,0,0,0,.24-.39,4,4,0,0,0-.32-.89Zm-.11-.31-1.65-4-1.63,4Z"/><path class="cls-4" d="M103.11,83.27h.18v4.15c0,.34,0,.56,0,.65a.31.31,0,0,0,.11.2.61.61,0,0,0,.35.07h.15v.18h-1.76v-.18h.13a.61.61,0,0,0,.37-.08.39.39,0,0,0,.1-.19c0-.08,0-.29,0-.65V84.64c0-.35,0-.57,0-.64a.3.3,0,0,0-.1-.19.53.53,0,0,0-.37-.09h-.17v-.18A1.64,1.64,0,0,0,103.11,83.27Z"/><circle class="cls-3" cx="163.45" cy="81.47" r="16"/><path class="cls-4" d="M163.35,82.1h-3.52l-.24.59a5.74,5.74,0,0,0-.53,1.67.75.75,0,0,0,.28.63,1.19,1.19,0,0,0,.73.21v.32h-2.76V85.2a1.5,1.5,0,0,0,.92-.43,5.32,5.32,0,0,0,.72-1.43c0-.06.14-.33.33-.79l2.7-6.43h.26l3.1,7.36.42,1a1.4,1.4,0,0,0,.39.52,1.43,1.43,0,0,0,.73.23v.32h-3.65V85.2a2.63,2.63,0,0,0,.91-.1.37.37,0,0,0,.24-.39,4,4,0,0,0-.32-.89Zm-.12-.31-1.64-4-1.63,4Z"/><path class="cls-4" d="M167.25,88.52v-.24a11,11,0,0,0,1.12-1.1,7.43,7.43,0,0,0,1-1.3,2.22,2.22,0,0,0,.31-1.11,1.39,1.39,0,0,0-.31-1,1,1,0,0,0-.76-.31.88.88,0,0,0-.69.28,1,1,0,0,0-.24.62.68.68,0,0,0,.32.6c.07,0,.11.09.11.12s0,.11-.13.19a.37.37,0,0,1-.22.12c-.08,0-.17-.08-.28-.23a1,1,0,0,1-.17-.61,1.13,1.13,0,0,1,.47-.95,1.68,1.68,0,0,1,1-.35,1.62,1.62,0,0,1,1.05.37,1.25,1.25,0,0,1,.47,1.07,1.85,1.85,0,0,1-.21.86,6.29,6.29,0,0,1-1,1.23c-.55.55-1,1-1.31,1.25h2.48l-.22.87h-.18a.36.36,0,0,1,0-.14.28.28,0,0,0,0-.1c0-.08,0-.13-.05-.14a1.23,1.23,0,0,0-.27,0Z"/><circle class="cls-3" cx="229.27" cy="81.47" r="16"/><path class="cls-4" d="M227.73,82.21h-3.52l-.24.59a5.89,5.89,0,0,0-.54,1.67.74.74,0,0,0,.29.63,1.2,1.2,0,0,0,.73.22v.31h-2.76v-.31a1.51,1.51,0,0,0,.92-.44,5.21,5.21,0,0,0,.72-1.42c0-.07.13-.34.33-.8l2.69-6.43h.27l3.1,7.36.42,1a1.27,1.27,0,0,0,.39.51,1.42,1.42,0,0,0,.72.24v.31h-3.64v-.31a2.92,2.92,0,0,0,.91-.1.4.4,0,0,0,.23-.4,3.89,3.89,0,0,0-.31-.89Zm-.12-.3L226,78l-1.63,4Z"/><path class="cls-4" d="M231.74,88.34a.42.42,0,0,1,.12-.3.41.41,0,0,1,.3-.12.44.44,0,0,1,.3.12.42.42,0,0,1,.12.3.38.38,0,0,1-.13.3.4.4,0,0,1-.29.12.38.38,0,0,1-.3-.13A.4.4,0,0,1,231.74,88.34Z"/><path class="cls-4" d="M233.74,88.34a.42.42,0,0,1,.12-.3.41.41,0,0,1,.3-.12.44.44,0,0,1,.3.12.42.42,0,0,1,.12.3.38.38,0,0,1-.13.3.4.4,0,0,1-.29.12.38.38,0,0,1-.3-.13A.4.4,0,0,1,233.74,88.34Z"/><path class="cls-4" d="M235.74,88.34a.42.42,0,0,1,.12-.3.41.41,0,0,1,.3-.12.44.44,0,0,1,.3.12.42.42,0,0,1,.12.3.38.38,0,0,1-.13.3.4.4,0,0,1-.29.12.38.38,0,0,1-.3-.13A.4.4,0,0,1,235.74,88.34Z"/><circle class="cls-3" cx="295.09" cy="81.47" r="16"/><path class="cls-4" d="M295.48,82.18H292l-.24.59a6.09,6.09,0,0,0-.53,1.67.75.75,0,0,0,.28.63,1.19,1.19,0,0,0,.73.21v.32h-2.75v-.32a1.47,1.47,0,0,0,.91-.43,5.57,5.57,0,0,0,.73-1.43c0-.06.13-.33.33-.79l2.69-6.43h.27l3.09,7.36.43,1a1.28,1.28,0,0,0,.38.52,1.46,1.46,0,0,0,.73.23v.32h-3.64v-.32a2.6,2.6,0,0,0,.9-.1.37.37,0,0,0,.24-.39,4,4,0,0,0-.32-.89Zm-.11-.31-1.64-4-1.64,4Z"/><path class="cls-4" d="M301.1,86.84h-1.92V86.6l2.23-3.25h.25V86.6H302a1,1,0,0,0,.4,0s.1-.13.17-.33h.17l-.09.61h-1v.66c0,.38,0,.61,0,.69a.25.25,0,0,0,.13.17.87.87,0,0,0,.39.06v.18h-1.7v-.18h.13a.59.59,0,0,0,.34-.07.29.29,0,0,0,.12-.18c0-.08,0-.3,0-.67Zm0-.24V84.12l-1.7,2.48Z"/><path class="cls-4" d="M305.26,85.93a1.5,1.5,0,0,1,.91.42,1.24,1.24,0,0,1,.39,1,1.27,1.27,0,0,1-.48,1,1.85,1.85,0,0,1-1.17.38,1.72,1.72,0,0,1-1.17-.41,1.28,1.28,0,0,1-.47-1,1.25,1.25,0,0,1,.34-.89,1.61,1.61,0,0,1,.93-.49,1.49,1.49,0,0,1-.79-.47,1.2,1.2,0,0,1-.31-.81,1.19,1.19,0,0,1,.42-.94,1.56,1.56,0,0,1,1.05-.36,1.67,1.67,0,0,1,1,.35,1.16,1.16,0,0,1,.45,1,1.19,1.19,0,0,1-.29.81A1.56,1.56,0,0,1,305.26,85.93Zm-1.34,1.33a2.54,2.54,0,0,0,.08.7.82.82,0,0,0,.32.42.94.94,0,0,0,.57.17,1.06,1.06,0,0,0,.73-.25,1.31,1.31,0,0,0,.29-1,1.35,1.35,0,0,0-.29-1,1,1,0,0,0-.74-.27.83.83,0,0,0-.72.33A1.5,1.5,0,0,0,303.92,87.26Zm.14-2.69a1.91,1.91,0,0,0,.2,1,.69.69,0,0,0,.62.31.78.78,0,0,0,.67-.3,1.49,1.49,0,0,0,.22-.9,1.33,1.33,0,0,0-.23-.84.82.82,0,0,0-.64-.28.78.78,0,0,0-.6.26A1.13,1.13,0,0,0,304.06,84.57Z"/><polygon class="cls-3" points="221.37 32.88 164.83 32.88 174.01 2.98 230.54 2.98 221.37 32.88"/><path class="cls-4" d="M200.63,22h-2.5a11.21,11.21,0,0,1-2-2.43c-.29-.42-.59-.82-.91-1.21a4.35,4.35,0,0,0-.65-.7.89.89,0,0,0-.55-.13h-.37v2.06a13.41,13.41,0,0,0,0,1.43.73.73,0,0,0,.28.5,1.5,1.5,0,0,0,.85.17h.44V22H190.8v-.31h.31a1.6,1.6,0,0,0,.82-.15.7.7,0,0,0,.29-.47,10.76,10.76,0,0,0,.06-1.48V15a10.25,10.25,0,0,0-.06-1.43.6.6,0,0,0-.27-.44A2.22,2.22,0,0,0,191,13h-.16v-.32l1.33-.07c.88,0,1.59-.06,2.1-.06a7.53,7.53,0,0,1,2.16.25,2.76,2.76,0,0,1,1.34.81,1.87,1.87,0,0,1,.52,1.33,2.11,2.11,0,0,1-.67,1.56,3.44,3.44,0,0,1-2,.8,7.31,7.31,0,0,1,1.87,2,9.4,9.4,0,0,0,1.66,1.85,2.51,2.51,0,0,0,1.42.47Zm-7-4.78,1.06,0a4.11,4.11,0,0,0,.95-.15,1.75,1.75,0,0,0,.65-.36,1.7,1.7,0,0,0,.4-.62,2.89,2.89,0,0,0,.14-1,2.33,2.33,0,0,0-.49-1.56,2.77,2.77,0,0,0-2.13-.59l-.58,0Z"/><path class="cls-4" d="M202.8,19.72H203v4.14c0,.34,0,.56,0,.65a.26.26,0,0,0,.11.2.57.57,0,0,0,.34.07h.16V25h-1.76v-.18H202a.55.55,0,0,0,.36-.08.3.3,0,0,0,.1-.19c0-.07,0-.29,0-.65V21.08c0-.35,0-.56,0-.64a.3.3,0,0,0-.1-.19.52.52,0,0,0-.36-.09h-.17V20A1.68,1.68,0,0,0,202.8,19.72Z"/><polygon class="cls-3" points="516.29 32.88 459.76 32.88 468.94 2.98 525.47 2.98 516.29 32.88"/><path class="cls-4" d="M495.27,22h-2.5a11.52,11.52,0,0,1-2-2.43c-.29-.42-.59-.82-.9-1.21a5.57,5.57,0,0,0-.65-.7,1,1,0,0,0-.56-.13h-.37v2.06a13.41,13.41,0,0,0,.05,1.43.73.73,0,0,0,.28.5,1.52,1.52,0,0,0,.85.17h.44V22h-4.43v-.31h.3a1.6,1.6,0,0,0,.82-.15.7.7,0,0,0,.29-.47,10.76,10.76,0,0,0,.06-1.48V15a10.25,10.25,0,0,0-.06-1.43.6.6,0,0,0-.27-.44,2.22,2.22,0,0,0-.92-.12h-.16v-.32l1.33-.07c.88,0,1.59-.06,2.11-.06a7.5,7.5,0,0,1,2.15.25,2.84,2.84,0,0,1,1.35.81A1.91,1.91,0,0,1,493,15a2.07,2.07,0,0,1-.67,1.56,3.44,3.44,0,0,1-2,.8,7.31,7.31,0,0,1,1.87,2,9.4,9.4,0,0,0,1.66,1.85,2.51,2.51,0,0,0,1.42.47Zm-7-4.78,1.06,0a4.11,4.11,0,0,0,.95-.15,1.75,1.75,0,0,0,.65-.36,1.7,1.7,0,0,0,.4-.62,2.89,2.89,0,0,0,.14-1A2.33,2.33,0,0,0,491,13.5a2.77,2.77,0,0,0-2.13-.59l-.58,0Z"/><path class="cls-4" d="M495.75,25v-.24a9.16,9.16,0,0,0,1.13-1.1,6.76,6.76,0,0,0,1-1.3,2.25,2.25,0,0,0,.3-1.1,1.4,1.4,0,0,0-.3-1,1,1,0,0,0-.76-.31.83.83,0,0,0-.69.29.94.94,0,0,0-.24.61.7.7,0,0,0,.31.6q.12.07.12.12c0,.05,0,.11-.13.2a.37.37,0,0,1-.22.12c-.08,0-.17-.08-.28-.24a1,1,0,0,1-.17-.61,1.11,1.11,0,0,1,.47-.94,1.62,1.62,0,0,1,1-.35,1.67,1.67,0,0,1,1,.36,1.26,1.26,0,0,1,.47,1.08,1.81,1.81,0,0,1-.21.85,6.29,6.29,0,0,1-1,1.23c-.55.56-1,1-1.31,1.25h2.48l-.22.88h-.19a.32.32,0,0,1,0-.14.34.34,0,0,0,0-.11c0-.08,0-.12-.05-.14a1.35,1.35,0,0,0-.28,0Z"/><rect class="cls-3" x="52.33" y="130.23" width="27.62" height="29.9"/><path class="cls-4" d="M61.83,145.64l2.23-2c.51-.46.77-.79.77-1s-.26-.46-.77-.47v-.25H66.8v.25a1.88,1.88,0,0,0-.68.14,2.75,2.75,0,0,0-.62.37c-.19.15-.55.47-1.06.95l-1.33,1.22,2.73,2.76a9.81,9.81,0,0,0,1.25,1.15,1.56,1.56,0,0,0,.82.2v.24H64.13V149h.15a1.85,1.85,0,0,0,.76-.1.31.31,0,0,0,.15-.26c0-.15-.26-.48-.78-1l-2.06-2.07-.52.45v1.33a8.15,8.15,0,0,0,.05,1.12.58.58,0,0,0,.21.4,1.28,1.28,0,0,0,.67.13h.14v.24H59.63V149h.23a1.22,1.22,0,0,0,.64-.12.53.53,0,0,0,.23-.37,6.54,6.54,0,0,0,.06-1.16v-3.57a6.47,6.47,0,0,0-.06-1.15.48.48,0,0,0-.22-.34,2.37,2.37,0,0,0-.78-.08v-.25H63v.25h-.13a1.78,1.78,0,0,0-.71.09.48.48,0,0,0-.22.33,6.4,6.4,0,0,0-.06,1.15Z"/><path class="cls-4" d="M69.52,148.28h.13v3.11c0,.26,0,.42,0,.48a.27.27,0,0,0,.08.16.56.56,0,0,0,.27.05h.11v.13H68.8v-.13h.1a.41.41,0,0,0,.27-.06.21.21,0,0,0,.07-.14,3.88,3.88,0,0,0,0-.49v-2.08c0-.27,0-.43,0-.48a.22.22,0,0,0-.08-.15.41.41,0,0,0-.27-.06h-.13v-.14A1.18,1.18,0,0,0,69.52,148.28Z"/><rect class="cls-3" x="85.01" y="130.23" width="27.62" height="29.9"/><path class="cls-4" d="M94.51,145.64l2.22-2c.52-.46.78-.79.78-1s-.26-.46-.78-.47v-.25h2.75v.25a1.84,1.84,0,0,0-.68.14,2.82,2.82,0,0,0-.63.37c-.19.15-.54.47-1,.95l-1.33,1.22,2.73,2.76a9.81,9.81,0,0,0,1.25,1.15,1.56,1.56,0,0,0,.82.2v.24H96.81V149H97a1.85,1.85,0,0,0,.76-.1.31.31,0,0,0,.15-.26c0-.15-.26-.48-.78-1L95,145.54l-.52.45v1.33c0,.57,0,1,0,1.12a.63.63,0,0,0,.22.4,1.28,1.28,0,0,0,.67.13h.14v.24H92.31V149h.22a1.24,1.24,0,0,0,.65-.12.53.53,0,0,0,.23-.37,7,7,0,0,0,0-1.16v-3.57a8.28,8.28,0,0,0,0-1.15.46.46,0,0,0-.23-.34,2.34,2.34,0,0,0-.77-.08v-.25h3.22v.25h-.14a1.75,1.75,0,0,0-.7.09.45.45,0,0,0-.22.33,6.4,6.4,0,0,0-.06,1.15Z"/><path class="cls-4" d="M100.93,152.21V152a6.76,6.76,0,0,0,.85-.82,5.44,5.44,0,0,0,.74-1,1.68,1.68,0,0,0,.22-.82,1,1,0,0,0-.23-.74.75.75,0,0,0-.57-.24.61.61,0,0,0-.51.22.72.72,0,0,0-.19.46.52.52,0,0,0,.24.45q.09.06.09.09s0,.08-.1.14-.12.1-.16.1-.13-.06-.22-.18a.81.81,0,0,1-.12-.46.85.85,0,0,1,.35-.71,1.25,1.25,0,0,1,.76-.26,1.29,1.29,0,0,1,.8.27,1,1,0,0,1,.35.81,1.41,1.41,0,0,1-.16.64,5.1,5.1,0,0,1-.77.93c-.41.41-.73.72-1,.93h1.86l-.17.66h-.13a.41.41,0,0,1,0-.11.17.17,0,0,0,0-.08c0-.05,0-.09,0-.1a.64.64,0,0,0-.2,0Z"/><rect class="cls-3" x="117.69" y="130.23" width="27.62" height="29.9"/><path class="cls-4" d="M127.19,145.64l2.22-2c.52-.46.78-.79.78-1s-.26-.46-.78-.47v-.25h2.75v.25a1.84,1.84,0,0,0-.68.14,2.82,2.82,0,0,0-.63.37c-.19.15-.54.47-1,.95l-1.33,1.22,2.73,2.76a9.81,9.81,0,0,0,1.25,1.15,1.53,1.53,0,0,0,.82.2v.24h-3.78V149h.14a1.87,1.87,0,0,0,.77-.1.31.31,0,0,0,.15-.26c0-.15-.26-.48-.78-1l-2.06-2.07-.52.45v1.33a8.8,8.8,0,0,0,0,1.12.59.59,0,0,0,.22.4,1.28,1.28,0,0,0,.67.13h.14v.24H125V149h.22a1.26,1.26,0,0,0,.65-.12.53.53,0,0,0,.23-.37,7,7,0,0,0,0-1.16v-3.57a8.28,8.28,0,0,0,0-1.15.49.49,0,0,0-.23-.34,2.37,2.37,0,0,0-.78-.08v-.25h3.23v.25h-.14a1.72,1.72,0,0,0-.7.09.45.45,0,0,0-.22.33,6.4,6.4,0,0,0-.06,1.15Z"/><path class="cls-4" d="M134.76,150.08a.55.55,0,0,1,.18,0,.82.82,0,0,1,.68.29,1.09,1.09,0,0,1,.25.74,1.13,1.13,0,0,1-.37.88,1.44,1.44,0,0,1-1.61.17.49.49,0,0,1-.27-.38.2.2,0,0,1,0-.15.17.17,0,0,1,.14-.06q.15,0,.21.21a.55.55,0,0,0,.24.34.55.55,0,0,0,.29.08.74.74,0,0,0,.6-.27,1.23,1.23,0,0,0,.23-.83,1.08,1.08,0,0,0-.17-.68.49.49,0,0,0-.41-.22.67.67,0,0,0-.44.24.14.14,0,0,1-.09.05c-.05,0-.08,0-.08-.1a.12.12,0,0,1,0-.08l.26-.19a2.5,2.5,0,0,0,.61-.52.9.9,0,0,0,.15-.53.61.61,0,0,0-.16-.46.53.53,0,0,0-.41-.17.71.71,0,0,0-.46.17.52.52,0,0,0-.21.43.54.54,0,0,0,.18.39l0,0s0,.06-.1.09l-.14,0c-.06,0-.11,0-.17-.14a.61.61,0,0,1-.08-.3.82.82,0,0,1,.29-.59,1.05,1.05,0,0,1,.75-.26,1.06,1.06,0,0,1,.73.22.67.67,0,0,1,.25.49.7.7,0,0,1-.17.45,2.51,2.51,0,0,1-.57.48Z"/><rect class="cls-3" x="150.37" y="130.23" width="27.62" height="29.9"/><path class="cls-4" d="M159.87,145.64l2.22-2c.52-.46.78-.79.78-1s-.26-.46-.78-.47v-.25h2.75v.25a1.8,1.8,0,0,0-.68.14,2.82,2.82,0,0,0-.63.37c-.19.15-.54.47-1.06.95l-1.32,1.22,2.73,2.76a9.81,9.81,0,0,0,1.25,1.15,1.53,1.53,0,0,0,.82.2v.24h-3.78V149h.14a1.81,1.81,0,0,0,.76-.1.31.31,0,0,0,.15-.26c0-.15-.25-.48-.77-1l-2.06-2.07-.52.45v1.33a8.8,8.8,0,0,0,0,1.12.59.59,0,0,0,.22.4,1.28,1.28,0,0,0,.67.13h.14v.24h-3.27V149h.22a1.26,1.26,0,0,0,.65-.12.53.53,0,0,0,.23-.37,8.35,8.35,0,0,0,0-1.16v-3.57a6.47,6.47,0,0,0-.06-1.15.45.45,0,0,0-.22-.34,2.37,2.37,0,0,0-.78-.08v-.25H161v.25h-.14a1.72,1.72,0,0,0-.7.09.49.49,0,0,0-.23.33,8.17,8.17,0,0,0,0,1.15Z"/><path class="cls-4" d="M167.59,150.89h-1.45v-.17l1.68-2.44H168v2.44h.26a.8.8,0,0,0,.3,0,.71.71,0,0,0,.13-.25h.13l-.07.45H168v.5c0,.28,0,.46,0,.52a.17.17,0,0,0,.1.13.66.66,0,0,0,.29,0v.13h-1.28v-.13h.1a.49.49,0,0,0,.25-.05.2.2,0,0,0,.09-.13,4.18,4.18,0,0,0,0-.51Zm0-.17v-1.86l-1.28,1.86Z"/><rect class="cls-3" x="183.05" y="130.23" width="27.62" height="29.9"/><path class="cls-4" d="M192.55,145.64l2.22-2c.52-.46.77-.79.77-1s-.25-.46-.77-.47v-.25h2.74v.25a1.79,1.79,0,0,0-.67.14,2.82,2.82,0,0,0-.63.37c-.19.15-.54.47-1.06.95l-1.33,1.22,2.73,2.76a10.58,10.58,0,0,0,1.25,1.15,1.59,1.59,0,0,0,.83.2v.24h-3.79V149H195a1.81,1.81,0,0,0,.76-.1.31.31,0,0,0,.15-.26c0-.15-.26-.48-.78-1l-2.05-2.07-.52.45v1.33a8.8,8.8,0,0,0,0,1.12.59.59,0,0,0,.22.4,1.25,1.25,0,0,0,.67.13h.14v.24h-3.28V149h.23a1.26,1.26,0,0,0,.65-.12.57.57,0,0,0,.23-.37,8.35,8.35,0,0,0,.05-1.16v-3.57a6.47,6.47,0,0,0-.06-1.15.48.48,0,0,0-.22-.34,2.37,2.37,0,0,0-.78-.08v-.25h3.22v.25h-.13a1.72,1.72,0,0,0-.7.09.49.49,0,0,0-.23.33,6.8,6.8,0,0,0,0,1.15Z"/><path class="cls-4" d="M199.41,150.2h-.15l.09-1.82h1.52a1.14,1.14,0,0,1-.18.34.34.34,0,0,1-.2.05h-1l-.05,1.21a.91.91,0,0,1,.73-.38,1,1,0,0,1,.78.37,1.29,1.29,0,0,1,.33.91,1.51,1.51,0,0,1-.37,1,1.29,1.29,0,0,1-1,.4,1.07,1.07,0,0,1-.71-.21.57.57,0,0,1-.26-.39.21.21,0,0,1,.05-.13.17.17,0,0,1,.14-.05.21.21,0,0,1,.15.05,1.28,1.28,0,0,1,.12.24.5.5,0,0,0,.52.36.8.8,0,0,0,.63-.3,1.51,1.51,0,0,0,.26-1,1.39,1.39,0,0,0-.21-.87.64.64,0,0,0-.5-.26A.71.71,0,0,0,199.41,150.2Z"/><rect class="cls-3" x="215.72" y="130.23" width="27.62" height="29.9"/><path class="cls-4" d="M225.22,145.64l2.23-2c.51-.46.77-.79.77-1s-.26-.46-.77-.47v-.25h2.74v.25a1.88,1.88,0,0,0-.68.14,3,3,0,0,0-.62.37c-.19.15-.55.47-1.06.95l-1.33,1.22,2.73,2.76a9.81,9.81,0,0,0,1.25,1.15,1.56,1.56,0,0,0,.82.2v.24h-3.78V149h.15a1.81,1.81,0,0,0,.76-.1.31.31,0,0,0,.15-.26c0-.15-.26-.48-.78-1l-2.05-2.07-.53.45v1.33a8.15,8.15,0,0,0,.05,1.12.59.59,0,0,0,.22.4,1.21,1.21,0,0,0,.66.13h.14v.24H223V149h.23a1.29,1.29,0,0,0,.65-.12.61.61,0,0,0,.23-.37,8.35,8.35,0,0,0,.05-1.16v-3.57a6.47,6.47,0,0,0-.06-1.15.48.48,0,0,0-.22-.34,2.37,2.37,0,0,0-.78-.08v-.25h3.22v.25h-.13a1.78,1.78,0,0,0-.71.09.48.48,0,0,0-.22.33,6.4,6.4,0,0,0-.06,1.15Z"/><path class="cls-4" d="M231.74,152a.33.33,0,0,1,.09-.22.31.31,0,0,1,.44,0,.33.33,0,0,1,.09.22.32.32,0,0,1-.09.23.31.31,0,0,1-.22.09.31.31,0,0,1-.31-.32Z"/><path class="cls-4" d="M233.24,152a.33.33,0,0,1,.09-.22.31.31,0,0,1,.44,0,.33.33,0,0,1,.09.22.32.32,0,0,1-.09.23.31.31,0,0,1-.22.09.31.31,0,0,1-.31-.32Z"/><path class="cls-4" d="M234.74,152a.33.33,0,0,1,.09-.22.31.31,0,0,1,.44,0,.33.33,0,0,1,.09.22.32.32,0,0,1-.09.23.31.31,0,0,1-.22.09.31.31,0,0,1-.31-.32Z"/><rect class="cls-3" x="248.4" y="130.23" width="27.62" height="29.9"/><path class="cls-4" d="M257.9,145.64l2.23-2c.51-.46.77-.79.77-1s-.26-.46-.77-.47v-.25h2.74v.25a1.88,1.88,0,0,0-.68.14,2.75,2.75,0,0,0-.62.37c-.19.15-.55.47-1.06.95l-1.33,1.22,2.73,2.76a9.81,9.81,0,0,0,1.25,1.15,1.56,1.56,0,0,0,.82.2v.24H260.2V149h.15a1.81,1.81,0,0,0,.76-.1.31.31,0,0,0,.15-.26c0-.15-.26-.48-.78-1l-2.06-2.07-.52.45v1.33a8.15,8.15,0,0,0,.05,1.12.58.58,0,0,0,.21.4,1.28,1.28,0,0,0,.67.13H259v.24H255.7V149h.23a1.22,1.22,0,0,0,.64-.12.53.53,0,0,0,.23-.37,6.54,6.54,0,0,0,.06-1.16v-3.57a6.47,6.47,0,0,0-.06-1.15.48.48,0,0,0-.22-.34,2.37,2.37,0,0,0-.78-.08v-.25H259v.25h-.13a1.78,1.78,0,0,0-.71.09.48.48,0,0,0-.22.33,6.4,6.4,0,0,0-.06,1.15Z"/><path class="cls-4" d="M264.41,152a.3.3,0,0,1,.1-.22.31.31,0,0,1,.44,0,.33.33,0,0,1,.09.22.32.32,0,0,1-.09.23.31.31,0,0,1-.22.09.29.29,0,0,1-.22-.09A.3.3,0,0,1,264.41,152Z"/><path class="cls-4" d="M265.91,152a.3.3,0,0,1,.1-.22.31.31,0,0,1,.44,0,.33.33,0,0,1,.09.22.32.32,0,0,1-.09.23.31.31,0,0,1-.22.09.29.29,0,0,1-.22-.09A.3.3,0,0,1,265.91,152Z"/><path class="cls-4" d="M267.41,152a.3.3,0,0,1,.1-.22.31.31,0,0,1,.44,0,.33.33,0,0,1,.09.22.32.32,0,0,1-.09.23.31.31,0,0,1-.22.09.29.29,0,0,1-.22-.09A.3.3,0,0,1,267.41,152Z"/><rect class="cls-3" x="281.08" y="130.23" width="27.62" height="29.9"/><path class="cls-4" d="M290.58,145.64l2.22-2c.52-.46.78-.79.78-1s-.26-.46-.78-.47v-.25h2.75v.25a1.84,1.84,0,0,0-.68.14,2.82,2.82,0,0,0-.63.37c-.19.15-.54.47-1.05.95l-1.33,1.22,2.73,2.76a9.81,9.81,0,0,0,1.25,1.15,1.56,1.56,0,0,0,.82.2v.24h-3.78V149H293a1.85,1.85,0,0,0,.76-.1.31.31,0,0,0,.15-.26c0-.15-.26-.48-.78-1l-2.06-2.07-.52.45v1.33c0,.57,0,1,0,1.12a.63.63,0,0,0,.22.4,1.28,1.28,0,0,0,.67.13h.14v.24h-3.27V149h.22a1.24,1.24,0,0,0,.65-.12.53.53,0,0,0,.23-.37,7,7,0,0,0,0-1.16v-3.57a8.28,8.28,0,0,0,0-1.15.48.48,0,0,0-.22-.34,2.45,2.45,0,0,0-.78-.08v-.25h3.22v.25h-.14a1.75,1.75,0,0,0-.7.09.45.45,0,0,0-.22.33,6.4,6.4,0,0,0-.06,1.15Z"/><path class="cls-4" d="M298.27,148.28h.13v3.11c0,.26,0,.42,0,.48a.23.23,0,0,0,.08.16.54.54,0,0,0,.26.05h.12v.13h-1.32v-.13h.1a.41.41,0,0,0,.27-.06.21.21,0,0,0,.07-.14c0-.06,0-.22,0-.49v-2.08a4.65,4.65,0,0,0,0-.48.21.21,0,0,0-.07-.15.43.43,0,0,0-.27-.06h-.13v-.14A1.18,1.18,0,0,0,298.27,148.28Z"/><path class="cls-4" d="M301.27,148.28h.13v3.11c0,.26,0,.42,0,.48a.23.23,0,0,0,.08.16.54.54,0,0,0,.26.05h.12v.13h-1.32v-.13h.1a.41.41,0,0,0,.27-.06.21.21,0,0,0,.07-.14c0-.06,0-.22,0-.49v-2.08a4.65,4.65,0,0,0,0-.48.21.21,0,0,0-.07-.15.43.43,0,0,0-.27-.06h-.13v-.14A1.18,1.18,0,0,0,301.27,148.28Z"/><path class="cls-4" d="M304.41,150.22a1.1,1.1,0,0,1,.69.31.94.94,0,0,1,.29.71,1,1,0,0,1-.36.79,1.35,1.35,0,0,1-.87.28,1.29,1.29,0,0,1-.88-.3,1,1,0,0,1-.36-.76,1,1,0,0,1,.26-.67,1.13,1.13,0,0,1,.69-.36,1.18,1.18,0,0,1-.59-.35.93.93,0,0,1-.23-.62.89.89,0,0,1,.32-.7,1.17,1.17,0,0,1,.79-.27,1.19,1.19,0,0,1,.77.27.83.83,0,0,1,.34.7.92.92,0,0,1-.21.61A1.21,1.21,0,0,1,304.41,150.22Zm-1,1a1.88,1.88,0,0,0,.06.53.6.6,0,0,0,.24.31.69.69,0,0,0,.43.13.8.8,0,0,0,.55-.19,1,1,0,0,0,.21-.74,1,1,0,0,0-.21-.76.82.82,0,0,0-.56-.2.61.61,0,0,0-.54.25A1.11,1.11,0,0,0,303.41,151.21Zm.1-2a1.37,1.37,0,0,0,.16.72.5.5,0,0,0,.46.24.59.59,0,0,0,.5-.23,1.15,1.15,0,0,0,.17-.68,1,1,0,0,0-.17-.62.61.61,0,0,0-.49-.21.58.58,0,0,0-.45.19A.85.85,0,0,0,303.51,149.19Z"/><rect class="cls-3" x="313.76" y="130.23" width="27.62" height="29.9"/><path class="cls-4" d="M323.26,145.64l2.22-2c.52-.46.78-.79.78-1s-.26-.46-.78-.47v-.25h2.75v.25a1.84,1.84,0,0,0-.68.14,2.82,2.82,0,0,0-.63.37c-.19.15-.54.47-1.06.95l-1.32,1.22,2.73,2.76a9.81,9.81,0,0,0,1.25,1.15,1.53,1.53,0,0,0,.82.2v.24h-3.78V149h.14a1.87,1.87,0,0,0,.77-.1.31.31,0,0,0,.15-.26c0-.15-.26-.48-.78-1l-2.06-2.07-.52.45v1.33a8.8,8.8,0,0,0,0,1.12.59.59,0,0,0,.22.4,1.28,1.28,0,0,0,.67.13h.14v.24h-3.27V149h.22a1.26,1.26,0,0,0,.65-.12.53.53,0,0,0,.23-.37,8.35,8.35,0,0,0,0-1.16v-3.57a8.28,8.28,0,0,0,0-1.15.49.49,0,0,0-.23-.34,2.37,2.37,0,0,0-.78-.08v-.25h3.23v.25h-.14a1.72,1.72,0,0,0-.7.09.45.45,0,0,0-.22.33,6.4,6.4,0,0,0-.06,1.15Z"/><path class="cls-4" d="M331,148.28h.13v3.11c0,.26,0,.42,0,.48a.19.19,0,0,0,.08.16.54.54,0,0,0,.26.05h.12v.13h-1.32v-.13h.09a.44.44,0,0,0,.28-.06.27.27,0,0,0,.07-.14c0-.06,0-.22,0-.49v-2.08a4.65,4.65,0,0,0,0-.48.21.21,0,0,0-.07-.15.46.46,0,0,0-.28-.06h-.12v-.14A1.18,1.18,0,0,0,331,148.28Z"/><path class="cls-4" d="M334,148.28h.13v3.11c0,.26,0,.42,0,.48a.19.19,0,0,0,.08.16.54.54,0,0,0,.26.05h.12v.13h-1.32v-.13h.09a.44.44,0,0,0,.28-.06.27.27,0,0,0,.07-.14c0-.06,0-.22,0-.49v-2.08a4.65,4.65,0,0,0,0-.48.21.21,0,0,0-.07-.15.46.46,0,0,0-.28-.06h-.12v-.14A1.18,1.18,0,0,0,334,148.28Z"/><path class="cls-4" d="M337.56,150.36a1.16,1.16,0,0,1-.38.33.88.88,0,0,1-.42.11,1.09,1.09,0,0,1-.82-.36,1.25,1.25,0,0,1-.35-.9,1.29,1.29,0,0,1,.34-.88,1.08,1.08,0,0,1,.85-.38,1,1,0,0,1,.74.28,1.59,1.59,0,0,1,.43.69,3.15,3.15,0,0,1,.12.87,2.83,2.83,0,0,1-.41,1.56,1.25,1.25,0,0,1-1.1.63,1.13,1.13,0,0,1-.56-.14c-.17-.09-.25-.2-.25-.31a.15.15,0,0,1,.17-.17c.09,0,.18.07.25.2a.48.48,0,0,0,.47.27.75.75,0,0,0,.7-.41,2.61,2.61,0,0,0,.23-1.23A1,1,0,0,0,337.56,150.36Zm0-.78a2.16,2.16,0,0,0-.08-.56.83.83,0,0,0-.27-.44.6.6,0,0,0-.42-.16.63.63,0,0,0-.55.29,1.7,1.7,0,0,0-.18.88,1.72,1.72,0,0,0,.07.57.78.78,0,0,0,.25.35.69.69,0,0,0,.41.13.72.72,0,0,0,.54-.23A1.18,1.18,0,0,0,337.58,149.58Z"/><line class="cls-2" x1="392.98" y1="97.48" x2="392.98" y2="130.23"/><line class="cls-2" x1="383.32" y1="94.23" x2="361.49" y2="130.23"/><line class="cls-2" x1="383.32" y1="94.23" x2="361.49" y2="130.23"/><line class="cls-2" x1="403.6" y1="94.23" x2="425.43" y2="130.23"/><line class="cls-2" x1="491.22" y1="97.48" x2="491.22" y2="130.23"/><line class="cls-2" x1="481.57" y1="94.23" x2="459.73" y2="130.23"/><line class="cls-2" x1="481.57" y1="94.23" x2="459.73" y2="130.23"/><line class="cls-2" x1="501.84" y1="94.23" x2="523.68" y2="130.23"/><circle class="cls-3" cx="392.98" cy="81.47" r="16"/><path class="cls-4" d="M392.87,82.1h-3.52l-.24.59a6.09,6.09,0,0,0-.53,1.67.76.76,0,0,0,.29.63,1.16,1.16,0,0,0,.72.21v.32h-2.75V85.2a1.47,1.47,0,0,0,.91-.43,5,5,0,0,0,.73-1.43c0-.06.13-.33.33-.79l2.69-6.43h.27l3.09,7.36.43,1a1.28,1.28,0,0,0,.38.52,1.5,1.5,0,0,0,.73.23v.32h-3.64V85.2a2.53,2.53,0,0,0,.9-.1.37.37,0,0,0,.24-.39,3.73,3.73,0,0,0-.31-.89Zm-.11-.31-1.64-4-1.64,4Z"/><path class="cls-4" d="M398.5,86.76h-1.93v-.24l2.23-3.25h.25v3.25h.36a1,1,0,0,0,.4,0s.1-.13.17-.33h.17l-.09.61h-1v.66a4.32,4.32,0,0,0,0,.69.21.21,0,0,0,.12.17.87.87,0,0,0,.39.06v.18h-1.7v-.18H398a.59.59,0,0,0,.34-.07.29.29,0,0,0,.12-.18c0-.08,0-.3,0-.67Zm0-.24V84l-1.71,2.48Z"/><path class="cls-4" d="M403.28,86.05a1.67,1.67,0,0,1-.51.43,1.16,1.16,0,0,1-.57.15,1.47,1.47,0,0,1-1.09-.48,1.69,1.69,0,0,1-.46-1.19,1.73,1.73,0,0,1,.45-1.19,1.44,1.44,0,0,1,1.13-.5,1.41,1.41,0,0,1,1,.37,2,2,0,0,1,.57.93,4.06,4.06,0,0,1,.16,1.16,3.71,3.71,0,0,1-.55,2.08,1.66,1.66,0,0,1-1.45.84,1.56,1.56,0,0,1-.76-.19c-.22-.13-.33-.26-.33-.42a.2.2,0,0,1,.23-.22c.12,0,.23.09.32.26a.66.66,0,0,0,.64.37,1,1,0,0,0,.93-.55,3.48,3.48,0,0,0,.31-1.64C403.29,86.2,403.28,86.13,403.28,86.05Zm0-1a2.78,2.78,0,0,0-.11-.75,1.2,1.2,0,0,0-.35-.59.87.87,0,0,0-.56-.21.79.79,0,0,0-.73.38A2.17,2.17,0,0,0,401.3,85a2.57,2.57,0,0,0,.09.77,1,1,0,0,0,.34.46.93.93,0,0,0,.55.18,1,1,0,0,0,.71-.3A1.55,1.55,0,0,0,403.3,85Z"/><circle class="cls-3" cx="491.71" cy="81.47" r="16"/><path class="cls-4" d="M490.16,82.21h-3.52l-.24.59a6.09,6.09,0,0,0-.53,1.67.73.73,0,0,0,.28.63,1.2,1.2,0,0,0,.73.22v.31h-2.76v-.31a1.51,1.51,0,0,0,.92-.44,5.21,5.21,0,0,0,.72-1.42l.33-.8,2.7-6.43h.26l3.1,7.36.42,1a1.36,1.36,0,0,0,.39.51,1.42,1.42,0,0,0,.73.24v.31H490v-.31a2.92,2.92,0,0,0,.91-.1.39.39,0,0,0,.24-.4,4.2,4.2,0,0,0-.32-.89Zm-.12-.3-1.64-4-1.63,4Z"/><path class="cls-4" d="M494.17,88.34a.39.39,0,0,1,.13-.3.4.4,0,0,1,.29-.12.41.41,0,0,1,.3.12.42.42,0,0,1,.12.3.41.41,0,0,1-.12.3.42.42,0,0,1-.3.12.38.38,0,0,1-.3-.13A.4.4,0,0,1,494.17,88.34Z"/><path class="cls-4" d="M496.17,88.34a.39.39,0,0,1,.13-.3.4.4,0,0,1,.29-.12.41.41,0,0,1,.3.12.42.42,0,0,1,.12.3.41.41,0,0,1-.12.3.42.42,0,0,1-.3.12.38.38,0,0,1-.3-.13A.4.4,0,0,1,496.17,88.34Z"/><path class="cls-4" d="M498.17,88.34a.39.39,0,0,1,.13-.3.4.4,0,0,1,.29-.12.41.41,0,0,1,.3.12.42.42,0,0,1,.12.3.41.41,0,0,1-.12.3.42.42,0,0,1-.3.12.38.38,0,0,1-.3-.13A.4.4,0,0,1,498.17,88.34Z"/><rect class="cls-3" x="347.68" y="130.23" width="27.62" height="29.9"/><path class="cls-4" d="M357.18,145.64l2.22-2c.52-.46.77-.79.77-1s-.25-.46-.77-.47v-.25h2.74v.25a1.79,1.79,0,0,0-.67.14,2.82,2.82,0,0,0-.63.37c-.19.15-.54.47-1.06.95l-1.33,1.22,2.73,2.76a10.58,10.58,0,0,0,1.25,1.15,1.59,1.59,0,0,0,.83.2v.24h-3.79V149h.15a1.81,1.81,0,0,0,.76-.1.31.31,0,0,0,.15-.26c0-.15-.26-.48-.78-1l-2.05-2.07-.52.45v1.33a8.8,8.8,0,0,0,0,1.12.59.59,0,0,0,.22.4,1.23,1.23,0,0,0,.66.13h.14v.24H355V149h.23a1.26,1.26,0,0,0,.65-.12.57.57,0,0,0,.23-.37,8.35,8.35,0,0,0,.05-1.16v-3.57a6.47,6.47,0,0,0-.06-1.15.48.48,0,0,0-.22-.34,2.37,2.37,0,0,0-.78-.08v-.25h3.22v.25h-.13a1.72,1.72,0,0,0-.7.09.46.46,0,0,0-.23.33,6.8,6.8,0,0,0-.05,1.15Z"/><path class="cls-4" d="M364.86,148.28H365v3.11c0,.26,0,.42,0,.48a.24.24,0,0,0,.09.16.51.51,0,0,0,.26.05h.11v.13h-1.32v-.13h.1a.41.41,0,0,0,.27-.06.23.23,0,0,0,.08-.14c0-.06,0-.22,0-.49v-2.08c0-.27,0-.43,0-.48a.22.22,0,0,0-.08-.15.41.41,0,0,0-.27-.06h-.13v-.14A1.18,1.18,0,0,0,364.86,148.28Z"/><path class="cls-4" d="M366.6,152.21V152a7.6,7.6,0,0,0,.84-.82,5.44,5.44,0,0,0,.74-1,1.7,1.7,0,0,0,.23-.82,1,1,0,0,0-.23-.74.75.75,0,0,0-.57-.24.63.63,0,0,0-.52.22.7.7,0,0,0-.18.46.52.52,0,0,0,.24.45c.06,0,.08.07.08.09s0,.08-.1.14a.24.24,0,0,1-.16.1q-.09,0-.21-.18a.74.74,0,0,1-.13-.46.85.85,0,0,1,.35-.71,1.3,1.3,0,0,1,.77-.26,1.28,1.28,0,0,1,.79.27,1,1,0,0,1,.35.81,1.29,1.29,0,0,1-.16.64,4.92,4.92,0,0,1-.76.93q-.62.62-1,.93h1.87l-.17.66h-.14a.43.43,0,0,1,0-.11s0,0,0-.08a.12.12,0,0,0,0-.1.73.73,0,0,0-.21,0Z"/><path class="cls-4" d="M369.51,150.3a2.74,2.74,0,0,1,.34-1.47,1.05,1.05,0,0,1,.91-.55,1,1,0,0,1,.91.55,2.67,2.67,0,0,1,.35,1.47,2.74,2.74,0,0,1-.34,1.46,1,1,0,0,1-1.83,0A2.74,2.74,0,0,1,369.51,150.3Zm.48,0a3.46,3.46,0,0,0,.21,1.54.62.62,0,0,0,.56.33.6.6,0,0,0,.6-.39,4.17,4.17,0,0,0,.17-1.48,3.7,3.7,0,0,0-.2-1.55.65.65,0,0,0-1.13,0A3.48,3.48,0,0,0,370,150.3Z"/><rect class="cls-3" x="380.35" y="130.23" width="27.62" height="29.9"/><path class="cls-4" d="M389.85,145.64l2.23-2c.51-.46.77-.79.77-1s-.26-.46-.77-.47v-.25h2.74v.25a1.88,1.88,0,0,0-.68.14,3,3,0,0,0-.62.37c-.19.15-.55.47-1.06.95l-1.33,1.22,2.73,2.76a9.81,9.81,0,0,0,1.25,1.15,1.56,1.56,0,0,0,.82.2v.24h-3.78V149h.15a1.81,1.81,0,0,0,.76-.1.31.31,0,0,0,.15-.26c0-.15-.26-.48-.78-1l-2.05-2.07-.53.45v1.33a8.15,8.15,0,0,0,0,1.12.62.62,0,0,0,.21.4,1.28,1.28,0,0,0,.67.13h.14v.24h-3.27V149h.23a1.22,1.22,0,0,0,.64-.12.58.58,0,0,0,.24-.37,8.35,8.35,0,0,0,.05-1.16v-3.57a6.47,6.47,0,0,0-.06-1.15.48.48,0,0,0-.22-.34,2.37,2.37,0,0,0-.78-.08v-.25H391v.25h-.13a1.78,1.78,0,0,0-.71.09.48.48,0,0,0-.22.33,6.4,6.4,0,0,0-.06,1.15Z"/><path class="cls-4" d="M397.54,148.28h.13v3.11c0,.26,0,.42,0,.48a.27.27,0,0,0,.08.16.56.56,0,0,0,.27.05h.11v.13h-1.32v-.13h.1a.41.41,0,0,0,.27-.06.29.29,0,0,0,.08-.14c0-.06,0-.22,0-.49v-2.08c0-.27,0-.43,0-.48a.22.22,0,0,0-.08-.15.41.41,0,0,0-.27-.06h-.13v-.14A1.18,1.18,0,0,0,397.54,148.28Z"/><path class="cls-4" d="M399.28,152.21V152a7.6,7.6,0,0,0,.84-.82,5.44,5.44,0,0,0,.74-1,1.68,1.68,0,0,0,.22-.82,1,1,0,0,0-.22-.74.78.78,0,0,0-.57-.24.62.62,0,0,0-.52.22.7.7,0,0,0-.18.46.53.53,0,0,0,.23.45q.09.06.09.09s0,.08-.1.14a.24.24,0,0,1-.16.1q-.09,0-.21-.18a.74.74,0,0,1-.13-.46.85.85,0,0,1,.35-.71,1.27,1.27,0,0,1,.76-.26,1.29,1.29,0,0,1,.8.27,1,1,0,0,1,.35.81,1.29,1.29,0,0,1-.16.64,4.7,4.7,0,0,1-.77.93c-.4.41-.73.72-1,.93h1.86l-.16.66h-.14a.22.22,0,0,1,0-.11s0,0,0-.08a.12.12,0,0,0,0-.1.78.78,0,0,0-.21,0Z"/><path class="cls-4" d="M402.28,152.21V152a7.6,7.6,0,0,0,.84-.82,5.44,5.44,0,0,0,.74-1,1.68,1.68,0,0,0,.22-.82,1,1,0,0,0-.22-.74.78.78,0,0,0-.57-.24.62.62,0,0,0-.52.22.7.7,0,0,0-.18.46.53.53,0,0,0,.23.45q.09.06.09.09s0,.08-.1.14a.24.24,0,0,1-.16.1q-.09,0-.21-.18a.74.74,0,0,1-.13-.46.85.85,0,0,1,.35-.71,1.27,1.27,0,0,1,.76-.26,1.29,1.29,0,0,1,.8.27,1,1,0,0,1,.35.81,1.29,1.29,0,0,1-.16.64,4.7,4.7,0,0,1-.77.93c-.4.41-.73.72-1,.93h1.86l-.16.66h-.14a.22.22,0,0,1,0-.11s0,0,0-.08a.12.12,0,0,0,0-.1.78.78,0,0,0-.21,0Z"/><rect class="cls-3" x="413.03" y="130.23" width="27.62" height="29.9"/><path class="cls-4" d="M422.53,145.64l2.23-2c.51-.46.77-.79.77-1s-.26-.46-.77-.47v-.25h2.74v.25a1.84,1.84,0,0,0-.68.14,2.55,2.55,0,0,0-.62.37c-.19.15-.55.47-1.06.95l-1.33,1.22,2.73,2.76a9.81,9.81,0,0,0,1.25,1.15,1.56,1.56,0,0,0,.82.2v.24h-3.78V149H425a1.85,1.85,0,0,0,.76-.1.31.31,0,0,0,.15-.26c0-.15-.26-.48-.78-1l-2.06-2.07-.52.45v1.33a8.15,8.15,0,0,0,.05,1.12.58.58,0,0,0,.21.4,1.28,1.28,0,0,0,.67.13h.14v.24h-3.27V149h.23a1.22,1.22,0,0,0,.64-.12.53.53,0,0,0,.23-.37,7,7,0,0,0,.05-1.16v-3.57a6.88,6.88,0,0,0-.05-1.15.48.48,0,0,0-.22-.34,2.41,2.41,0,0,0-.78-.08v-.25h3.22v.25h-.14a1.75,1.75,0,0,0-.7.09.48.48,0,0,0-.22.33,6.4,6.4,0,0,0-.06,1.15Z"/><path class="cls-4" d="M430.22,148.28h.13v3.11c0,.26,0,.42,0,.48a.23.23,0,0,0,.08.16.54.54,0,0,0,.26.05h.12v.13H429.5v-.13h.1a.41.41,0,0,0,.27-.06.21.21,0,0,0,.07-.14c0-.06,0-.22,0-.49v-2.56a.28.28,0,0,0-.08-.15.41.41,0,0,0-.27-.06h-.13v-.14A1.18,1.18,0,0,0,430.22,148.28Z"/><path class="cls-4" d="M432,152.21V152a7.6,7.6,0,0,0,.84-.82,5.44,5.44,0,0,0,.74-1,1.68,1.68,0,0,0,.22-.82,1,1,0,0,0-.23-.74.74.74,0,0,0-.56-.24.62.62,0,0,0-.52.22.7.7,0,0,0-.18.46.51.51,0,0,0,.23.45q.09.06.09.09s0,.08-.1.14-.12.1-.16.1-.13-.06-.22-.18a.81.81,0,0,1-.12-.46.85.85,0,0,1,.35-.71,1.27,1.27,0,0,1,.76-.26,1.29,1.29,0,0,1,.8.27,1,1,0,0,1,.35.81,1.29,1.29,0,0,1-.16.64,4.7,4.7,0,0,1-.77.93c-.41.41-.73.72-1,.93h1.86l-.16.66h-.14a.22.22,0,0,1,0-.11v-.08c0-.05,0-.09,0-.1a.78.78,0,0,0-.21,0Z"/><path class="cls-4" d="M436.1,150.08a.58.58,0,0,1,.19,0,.81.81,0,0,1,.67.29,1.09,1.09,0,0,1,.25.74,1.13,1.13,0,0,1-.37.88,1.29,1.29,0,0,1-.94.34,1.24,1.24,0,0,1-.66-.17c-.19-.12-.28-.25-.28-.38a.25.25,0,0,1,.05-.15.18.18,0,0,1,.14-.06c.1,0,.17.07.22.21a.5.5,0,0,0,.23.34.56.56,0,0,0,.3.08.74.74,0,0,0,.59-.27,1.23,1.23,0,0,0,.23-.83,1.08,1.08,0,0,0-.17-.68.49.49,0,0,0-.4-.22.67.67,0,0,0-.45.24s-.05.05-.08.05-.09,0-.09-.1a.12.12,0,0,1,0-.08l.26-.19a2.5,2.5,0,0,0,.61-.52.9.9,0,0,0,.15-.53.65.65,0,0,0-.15-.46.56.56,0,0,0-.42-.17.71.71,0,0,0-.46.17.52.52,0,0,0-.21.43.54.54,0,0,0,.18.39s0,0,0,0,0,.06-.09.09l-.14,0c-.06,0-.12,0-.17-.14a.52.52,0,0,1-.08-.3.8.8,0,0,1,.28-.59,1.09,1.09,0,0,1,.75-.26,1,1,0,0,1,.73.22.64.64,0,0,1,.25.49.7.7,0,0,1-.17.45,2.51,2.51,0,0,1-.57.48Z"/><rect class="cls-3" x="445.71" y="130.23" width="27.62" height="29.9"/><path class="cls-4" d="M455.21,145.64l2.22-2c.52-.46.78-.79.78-1s-.26-.46-.78-.47v-.25h2.75v.25a1.84,1.84,0,0,0-.68.14,2.82,2.82,0,0,0-.63.37c-.19.15-.54.47-1.05.95l-1.33,1.22,2.73,2.76a9.81,9.81,0,0,0,1.25,1.15,1.53,1.53,0,0,0,.82.2v.24h-3.78V149h.14a1.87,1.87,0,0,0,.77-.1.31.31,0,0,0,.15-.26c0-.15-.26-.48-.78-1l-2.06-2.07-.52.45v1.33a8.8,8.8,0,0,0,0,1.12.59.59,0,0,0,.22.4,1.28,1.28,0,0,0,.67.13h.14v.24H453V149h.22a1.24,1.24,0,0,0,.65-.12.53.53,0,0,0,.23-.37,7,7,0,0,0,.05-1.16v-3.57a8.28,8.28,0,0,0-.05-1.15.49.49,0,0,0-.23-.34,2.37,2.37,0,0,0-.78-.08v-.25h3.23v.25h-.14a1.75,1.75,0,0,0-.7.09.45.45,0,0,0-.22.33,6.4,6.4,0,0,0-.06,1.15Z"/><path class="cls-4" d="M461.72,152a.31.31,0,0,1,.31-.31.32.32,0,0,1,.23.09.33.33,0,0,1,.09.22.32.32,0,0,1-.09.23.33.33,0,0,1-.23.09.31.31,0,0,1-.22-.09A.33.33,0,0,1,461.72,152Z"/><path class="cls-4" d="M463.22,152a.31.31,0,0,1,.31-.31.32.32,0,0,1,.23.09.33.33,0,0,1,.09.22.32.32,0,0,1-.09.23.33.33,0,0,1-.23.09.31.31,0,0,1-.22-.09A.33.33,0,0,1,463.22,152Z"/><path class="cls-4" d="M464.72,152a.31.31,0,0,1,.31-.31.32.32,0,0,1,.23.09.33.33,0,0,1,.09.22.32.32,0,0,1-.09.23.33.33,0,0,1-.23.09.31.31,0,0,1-.22-.09A.33.33,0,0,1,464.72,152Z"/><rect class="cls-3" x="478.39" y="130.23" width="27.62" height="29.9"/><path class="cls-4" d="M487.89,145.64l2.22-2c.52-.46.78-.79.78-1s-.26-.46-.78-.47v-.25h2.75v.25a1.84,1.84,0,0,0-.68.14,2.82,2.82,0,0,0-.63.37c-.19.15-.54.47-1.06.95l-1.32,1.22,2.73,2.76a9.81,9.81,0,0,0,1.25,1.15,1.53,1.53,0,0,0,.82.2v.24h-3.78V149h.14a1.78,1.78,0,0,0,.76-.1.3.3,0,0,0,.16-.26c0-.15-.26-.48-.78-1l-2.06-2.07-.52.45v1.33a8.8,8.8,0,0,0,0,1.12.59.59,0,0,0,.22.4,1.28,1.28,0,0,0,.67.13H489v.24h-3.27V149h.22a1.26,1.26,0,0,0,.65-.12.53.53,0,0,0,.23-.37,8.35,8.35,0,0,0,0-1.16v-3.57a8.28,8.28,0,0,0,0-1.15.49.49,0,0,0-.23-.34,2.37,2.37,0,0,0-.78-.08v-.25H489v.25h-.14a1.72,1.72,0,0,0-.7.09.45.45,0,0,0-.22.33,6.4,6.4,0,0,0-.06,1.15Z"/><path class="cls-4" d="M494.4,152a.33.33,0,0,1,.09-.22.31.31,0,0,1,.22-.09.32.32,0,0,1,.23.09.33.33,0,0,1,.09.22.32.32,0,0,1-.09.23.33.33,0,0,1-.23.09.31.31,0,0,1-.22-.09A.33.33,0,0,1,494.4,152Z"/><path class="cls-4" d="M495.9,152a.33.33,0,0,1,.09-.22.31.31,0,0,1,.22-.09.32.32,0,0,1,.23.09.33.33,0,0,1,.09.22.32.32,0,0,1-.09.23.33.33,0,0,1-.23.09.31.31,0,0,1-.22-.09A.33.33,0,0,1,495.9,152Z"/><path class="cls-4" d="M497.4,152a.33.33,0,0,1,.09-.22.31.31,0,0,1,.22-.09.32.32,0,0,1,.23.09.33.33,0,0,1,.09.22.32.32,0,0,1-.09.23.33.33,0,0,1-.23.09.31.31,0,0,1-.22-.09A.33.33,0,0,1,497.4,152Z"/><rect class="cls-3" x="511.07" y="130.23" width="27.62" height="29.9"/><path class="cls-4" d="M520.57,145.64l2.22-2c.52-.46.77-.79.77-1s-.25-.46-.77-.47v-.25h2.75v.25a1.8,1.8,0,0,0-.68.14,2.82,2.82,0,0,0-.63.37c-.19.15-.54.47-1.06.95l-1.33,1.22,2.73,2.76a9.63,9.63,0,0,0,1.26,1.15,1.53,1.53,0,0,0,.82.2v.24h-3.78V149H523a1.81,1.81,0,0,0,.76-.1.31.31,0,0,0,.15-.26c0-.15-.26-.48-.78-1l-2-2.07-.52.45v1.33a8.8,8.8,0,0,0,0,1.12.59.59,0,0,0,.22.4,1.25,1.25,0,0,0,.67.13h.14v.24h-3.28V149h.23a1.26,1.26,0,0,0,.65-.12.57.57,0,0,0,.23-.37,8.35,8.35,0,0,0,0-1.16v-3.57a6.47,6.47,0,0,0-.06-1.15.48.48,0,0,0-.22-.34,2.37,2.37,0,0,0-.78-.08v-.25h3.22v.25h-.13a1.72,1.72,0,0,0-.7.09.49.49,0,0,0-.23.33,8.17,8.17,0,0,0,0,1.15Z"/><path class="cls-4" d="M527.08,152a.33.33,0,0,1,.09-.22.29.29,0,0,1,.22-.09.33.33,0,0,1,.23.09.33.33,0,0,1,.09.22.29.29,0,0,1-.1.23.31.31,0,0,1-.44,0A.33.33,0,0,1,527.08,152Z"/><path class="cls-4" d="M528.58,152a.33.33,0,0,1,.09-.22.29.29,0,0,1,.22-.09.33.33,0,0,1,.23.09.33.33,0,0,1,.09.22.29.29,0,0,1-.1.23.31.31,0,0,1-.44,0A.33.33,0,0,1,528.58,152Z"/><path class="cls-4" d="M530.08,152a.33.33,0,0,1,.09-.22.29.29,0,0,1,.22-.09.33.33,0,0,1,.23.09.33.33,0,0,1,.09.22.29.29,0,0,1-.1.23.31.31,0,0,1-.44,0A.33.33,0,0,1,530.08,152Z"/><path class="cls-4" d="M4.7,139.1a3.11,3.11,0,0,1,1.84.62,1.67,1.67,0,0,1,.6,1.31,1.78,1.78,0,0,1-.41,1.19,1.88,1.88,0,0,1-1,.65A7.77,7.77,0,0,1,4,143H1.13v-.25h.28a1.24,1.24,0,0,0,.64-.11.55.55,0,0,0,.23-.37,8.57,8.57,0,0,0,.05-1.16v-3.55a8.3,8.3,0,0,0-.05-1.14.52.52,0,0,0-.22-.36,1.74,1.74,0,0,0-.71-.09H1.21v-.25l1.19,0,1.37-.05c2,0,3,.58,3,1.72a1.43,1.43,0,0,1-.52,1.14A3.05,3.05,0,0,1,4.7,139.1ZM3.38,139h.23a2.52,2.52,0,0,0,1.58-.36,1.49,1.49,0,0,0,.43-1.18,1.88,1.88,0,0,0-.17-.88,1.11,1.11,0,0,0-.5-.48,2.6,2.6,0,0,0-1.14-.17H3.38Zm0,.26v1.62a11.86,11.86,0,0,0,0,1.32.6.6,0,0,0,.2.42,1,1,0,0,0,.65.15,1.75,1.75,0,0,0,1.29-.44A1.87,1.87,0,0,0,6,141a1.69,1.69,0,0,0-.49-1.33,2.57,2.57,0,0,0-1.71-.43Z"/><path class="cls-4" d="M9.46,139.57a1.81,1.81,0,0,1,.59-.8,1.31,1.31,0,0,1,.81-.32.73.73,0,0,1,.56.22.66.66,0,0,1,.2.45.39.39,0,0,1-.1.27.36.36,0,0,1-.26.11c-.18,0-.31-.13-.41-.4s-.16-.27-.29-.27a.89.89,0,0,0-.55.32,1.45,1.45,0,0,0-.41.65,3.72,3.72,0,0,0-.09.93v.78c0,.47,0,.77,0,.89a.42.42,0,0,0,.16.28.9.9,0,0,0,.47.09h.15V143H8v-.25h.11a1,1,0,0,0,.46-.08.35.35,0,0,0,.16-.25,7.87,7.87,0,0,0,0-.93v-1.24c0-.47,0-.77,0-.89a.37.37,0,0,0-.15-.28.9.9,0,0,0-.48-.1H8v-.24a7.69,7.69,0,0,0,1.32-.31A3.61,3.61,0,0,1,9.46,139.57Z"/><path class="cls-4" d="M11.84,140.81a2.32,2.32,0,0,1,.68-1.69,2.25,2.25,0,0,1,1.66-.67,2.22,2.22,0,0,1,1.67.68,2.28,2.28,0,0,1,.68,1.68,2.25,2.25,0,0,1-.69,1.75,2.45,2.45,0,0,1-3.31,0A2.27,2.27,0,0,1,11.84,140.81Zm.89,0a2.69,2.69,0,0,0,.38,1.64,1.46,1.46,0,0,0,2.15,0,2.69,2.69,0,0,0,.37-1.64,2.79,2.79,0,0,0-.37-1.65,1.25,1.25,0,0,0-1.08-.5,1.26,1.26,0,0,0-1.07.49A2.8,2.8,0,0,0,12.73,140.84Z"/><path class="cls-4" d="M21.78,142.22H22c0,.61-.34.91-.91.91a.8.8,0,0,1-.57-.19,1,1,0,0,1-.28-.57,5.81,5.81,0,0,1-1,.57,2,2,0,0,1-.79.19,1.19,1.19,0,0,1-.77-.25.86.86,0,0,1-.32-.69,1.19,1.19,0,0,1,.54-1,6.3,6.3,0,0,1,1.49-.81l.83-.34v-.21a2.52,2.52,0,0,0-.06-.66.67.67,0,0,0-.31-.37,1.21,1.21,0,0,0-.64-.16q-.81,0-.9.54c-.06.36-.21.55-.45.55a.29.29,0,0,1-.33-.32.91.91,0,0,1,.43-.65,2.13,2.13,0,0,1,1.36-.35,2.21,2.21,0,0,1,1.06.21,1.1,1.1,0,0,1,.49.49A2.19,2.19,0,0,1,21,140v1.77a2.71,2.71,0,0,0,.07.81.26.26,0,0,0,.28.17C21.57,142.74,21.72,142.57,21.78,142.22Zm-1.56-1.88-.59.23c-.92.38-1.38.85-1.38,1.42a.77.77,0,0,0,.18.54.56.56,0,0,0,.46.21,1.31,1.31,0,0,0,.58-.16,4.86,4.86,0,0,0,.75-.5Z"/><path class="cls-4" d="M26.22,139.09v-1.72c0-.47,0-.76,0-.88a.34.34,0,0,0-.15-.28.82.82,0,0,0-.48-.1h-.11v-.25a6,6,0,0,0,1.42-.22H27v5.91a7.87,7.87,0,0,0,0,.93.31.31,0,0,0,.17.25,1.23,1.23,0,0,0,.53.08v.25a8.06,8.06,0,0,0-1.39.14,3.79,3.79,0,0,1-.06-.8,2.91,2.91,0,0,1-.82.6,2,2,0,0,1-.87.2,1.92,1.92,0,0,1-1.48-.69,2.41,2.41,0,0,1-.62-1.66,2.38,2.38,0,0,1,.64-1.74,2,2,0,0,1,1.5-.66,2.22,2.22,0,0,1,.85.16A2.38,2.38,0,0,1,26.22,139.09Zm0,.31a2.85,2.85,0,0,0-.71-.46,1.86,1.86,0,0,0-.72-.15,1.29,1.29,0,0,0-1,.47,2.3,2.3,0,0,0-.41,1.52,2.48,2.48,0,0,0,.42,1.59,1.28,1.28,0,0,0,1,.51,1.57,1.57,0,0,0,.76-.2,2.15,2.15,0,0,0,.64-.58Z"/><path class="cls-4" d="M32,142h.23a1.68,1.68,0,0,1-1.82,1.25,2.16,2.16,0,0,1-1.59-.64,2.32,2.32,0,0,1-.64-1.69,2.29,2.29,0,0,1,.7-1.75,2.24,2.24,0,0,1,1.63-.67,2.2,2.2,0,0,1,1.05.25c.32.16.48.37.48.6a.43.43,0,0,1-.09.26.3.3,0,0,1-.26.12c-.23,0-.38-.14-.43-.42a.75.75,0,0,0-.2-.43.79.79,0,0,0-.54-.13,1.25,1.25,0,0,0-1.08.5,2.53,2.53,0,0,0-.37,1.51,2.9,2.9,0,0,0,.39,1.62,1.33,1.33,0,0,0,1.18.58A1.28,1.28,0,0,0,32,142Z"/><path class="cls-4" d="M37.36,142.22h.2c0,.61-.33.91-.9.91a.83.83,0,0,1-.58-.19,1,1,0,0,1-.27-.57,6.22,6.22,0,0,1-1,.57,2,2,0,0,1-.8.19,1.18,1.18,0,0,1-.76-.25.84.84,0,0,1-.33-.69,1.19,1.19,0,0,1,.54-1,6.5,6.5,0,0,1,1.49-.81l.84-.34v-.21a2.52,2.52,0,0,0-.06-.66.67.67,0,0,0-.31-.37,1.22,1.22,0,0,0-.65-.16q-.8,0-.9.54c0,.36-.2.55-.45.55a.29.29,0,0,1-.32-.32.91.91,0,0,1,.43-.65,2.1,2.1,0,0,1,1.35-.35,2.19,2.19,0,0,1,1.06.21,1.12,1.12,0,0,1,.5.49,2.19,2.19,0,0,1,.12.84v1.77a3.29,3.29,0,0,0,.06.81.28.28,0,0,0,.28.17C37.16,142.74,37.31,142.57,37.36,142.22Zm-1.55-1.88-.59.23c-.92.38-1.38.85-1.38,1.42a.76.76,0,0,0,.17.54.59.59,0,0,0,.46.21,1.34,1.34,0,0,0,.59-.16,5.39,5.39,0,0,0,.75-.5Z"/><path class="cls-4" d="M38.12,143.16v-1.44h.21c.25.83.68,1.25,1.31,1.25a.74.74,0,0,0,.61-.25.86.86,0,0,0,.2-.54.77.77,0,0,0-.22-.57,3.63,3.63,0,0,0-.85-.53,3.36,3.36,0,0,1-1-.64,1.12,1.12,0,0,1-.29-.77,1.36,1.36,0,0,1,.31-.83,1.06,1.06,0,0,1,.88-.39,1.17,1.17,0,0,1,1,.46,1.5,1.5,0,0,0,.21-.39h.2v1.36h-.2a1.76,1.76,0,0,0-.42-.84.9.9,0,0,0-.72-.35.7.7,0,0,0-.53.2.62.62,0,0,0-.19.46.66.66,0,0,0,.22.5,3.07,3.07,0,0,0,.82.49,2.33,2.33,0,0,1,1.12.8,1.76,1.76,0,0,1,.2.76,1.24,1.24,0,0,1-.38.94,1.32,1.32,0,0,1-1,.36,1.45,1.45,0,0,1-1.08-.5,1.17,1.17,0,0,0-.24.46Z"/><path class="cls-4" d="M44.36,138.87H43v2.66a3.77,3.77,0,0,0,.05.82.64.64,0,0,0,.6.47.79.79,0,0,0,.67-.44l.18.1a1.19,1.19,0,0,1-.5.54,1.3,1.3,0,0,1-.65.18,1.07,1.07,0,0,1-.68-.23.94.94,0,0,1-.37-.53,5.41,5.41,0,0,1-.07-1.08v-2.49h-.64v-.25a1.09,1.09,0,0,0,.79-.37,1.75,1.75,0,0,0,.44-1H43v1.38h1.32Z"/><path class="cls-4" d="M15.85,152.64l2.22-2c.52-.46.77-.79.77-1s-.25-.45-.77-.46v-.25h2.75v.25a1.8,1.8,0,0,0-.68.14,2.48,2.48,0,0,0-.63.37c-.19.15-.54.46-1.06,1l-1.32,1.22,2.72,2.76a10.48,10.48,0,0,0,1.26,1.15,1.53,1.53,0,0,0,.82.19v.25H18.15V156h.14a1.66,1.66,0,0,0,.76-.1.3.3,0,0,0,.15-.25c0-.15-.26-.49-.77-1l-2.06-2.08-.52.46v1.33a8.9,8.9,0,0,0,0,1.12.59.59,0,0,0,.22.4,1.27,1.27,0,0,0,.67.12h.14v.25H13.65V156h.22a1.28,1.28,0,0,0,.65-.11.53.53,0,0,0,.23-.37,8.57,8.57,0,0,0,.05-1.16v-3.58a6.55,6.55,0,0,0-.06-1.15.45.45,0,0,0-.22-.33,2.11,2.11,0,0,0-.78-.08v-.25H17v.25h-.14a1.77,1.77,0,0,0-.7.08.49.49,0,0,0-.23.33,8.38,8.38,0,0,0-.05,1.15Z"/><path class="cls-4" d="M25.91,153.31H22.85c0,.21,0,.37,0,.47a3.38,3.38,0,0,0,.37,1.75,1.2,1.2,0,0,0,1.08.58,1.43,1.43,0,0,0,1.39-.88h.25a1.48,1.48,0,0,1-.68.86,2.07,2.07,0,0,1-1.11.31,2.21,2.21,0,0,1-1.06-.28,2.3,2.3,0,0,1-.81-.8,2.34,2.34,0,0,1-.32-1.25,2.5,2.5,0,0,1,.62-1.73,1.94,1.94,0,0,1,1.53-.69,1.69,1.69,0,0,1,1.33.52A1.78,1.78,0,0,1,25.91,153.31ZM25,153.1c0-.09,0-.16,0-.22a.93.93,0,0,0-1-1c-.65,0-1,.41-1.16,1.22Z"/><path class="cls-4" d="M29,155.39,30,153a5.33,5.33,0,0,0,.22-.6c0-.18-.2-.27-.6-.28v-.25h1.55v.25a.74.74,0,0,0-.53.19,2.76,2.76,0,0,0-.41.77l-2,4.73a3.73,3.73,0,0,1-.5.92.6.6,0,0,1-.47.25c-.23,0-.35-.11-.35-.32s.19-.45.56-.62a1.64,1.64,0,0,0,.44-.24,1.09,1.09,0,0,0,.21-.37l.42-1-1.65-3.55a2.07,2.07,0,0,0-.37-.59.76.76,0,0,0-.49-.12v-.25h2v.25c-.36,0-.53.08-.53.22a2.46,2.46,0,0,0,.21.53Z"/><path class="cls-4" d="M31.61,156.36v-1.44h.21c.24.83.68,1.25,1.31,1.25a.74.74,0,0,0,.61-.25.86.86,0,0,0,.2-.54.77.77,0,0,0-.22-.57,3.63,3.63,0,0,0-.85-.53,3.36,3.36,0,0,1-1-.64,1.12,1.12,0,0,1-.29-.77,1.36,1.36,0,0,1,.31-.83,1.06,1.06,0,0,1,.88-.39,1.17,1.17,0,0,1,.95.46,1.5,1.5,0,0,0,.21-.39h.2v1.36H34a1.76,1.76,0,0,0-.42-.84.91.91,0,0,0-.72-.35.7.7,0,0,0-.53.2.62.62,0,0,0-.19.46.66.66,0,0,0,.22.5,3.07,3.07,0,0,0,.82.49,2.24,2.24,0,0,1,1.11.8,1.65,1.65,0,0,1,.21.76,1.24,1.24,0,0,1-.38.94,1.32,1.32,0,0,1-1,.36,1.45,1.45,0,0,1-1.08-.5,1.17,1.17,0,0,0-.24.46Z"/><path class="cls-4" d="M11.76,77.86H9l-.19.46a4.72,4.72,0,0,0-.42,1.31.59.59,0,0,0,.23.5.94.94,0,0,0,.57.17v.25H7V80.3A1.16,1.16,0,0,0,7.74,80a4.46,4.46,0,0,0,.56-1.12l.26-.62,2.12-5.06h.21L13.32,79l.33.76a1,1,0,0,0,.31.4,1.07,1.07,0,0,0,.57.19v.25H11.67V80.3a2.15,2.15,0,0,0,.71-.08.3.3,0,0,0,.18-.31,3.17,3.17,0,0,0-.24-.7Zm-.09-.24-1.29-3.1-1.29,3.1Z"/><path class="cls-4" d="M18.67,79.47h.23a1.67,1.67,0,0,1-1.82,1.25,2.16,2.16,0,0,1-1.59-.64,2.54,2.54,0,0,1,.06-3.44A2.24,2.24,0,0,1,17.18,76a2.2,2.2,0,0,1,1.05.25c.32.17.48.37.48.61a.4.4,0,0,1-.09.25.3.3,0,0,1-.26.12c-.23,0-.38-.14-.43-.41a.79.79,0,0,0-.2-.44.85.85,0,0,0-.54-.12,1.25,1.25,0,0,0-1.08.5,2.48,2.48,0,0,0-.37,1.5,2.9,2.9,0,0,0,.39,1.62,1.33,1.33,0,0,0,1.18.59A1.28,1.28,0,0,0,18.67,79.47Z"/><path class="cls-4" d="M22.18,76.4H20.85v2.65a3.68,3.68,0,0,0,.06.83.6.6,0,0,0,.22.34.6.6,0,0,0,.38.13.82.82,0,0,0,.67-.44l.17.1a1.1,1.1,0,0,1-.49.53,1.37,1.37,0,0,1-.66.18,1.09,1.09,0,0,1-.68-.22,1,1,0,0,1-.36-.54,5,5,0,0,1-.08-1.07V76.4h-.64v-.25a1.11,1.11,0,0,0,.79-.37,1.72,1.72,0,0,0,.45-1h.17v1.38h1.33Z"/><path class="cls-4" d="M24.14,76V79c0,.47,0,.76,0,.88a.35.35,0,0,0,.16.28.78.78,0,0,0,.47.1h.12v.25H22.54V80.3h.18a.81.81,0,0,0,.5-.11.43.43,0,0,0,.13-.26c0-.11,0-.4,0-.89V77.71a3.46,3.46,0,0,0-.07-.95c-.05-.11-.11-.19-.2-.21a1.31,1.31,0,0,0-.42,0h-.14v-.24A6.63,6.63,0,0,0,24,76Zm-1-2.24a.54.54,0,0,1,.17-.4.54.54,0,0,1,.39-.17.52.52,0,0,1,.39.17.54.54,0,0,1,.16.4.55.55,0,0,1-.16.4.52.52,0,0,1-.39.17.54.54,0,0,1-.39-.17A.56.56,0,0,1,23.1,73.73Z"/><path class="cls-4" d="M27.79,80.72h-.32L25.91,77.2a2.89,2.89,0,0,0-.36-.65.57.57,0,0,0-.44-.15v-.25h2v.25a1.19,1.19,0,0,0-.45,0,.2.2,0,0,0-.12.2,2,2,0,0,0,.22.58l1.18,2.67L29,77.52a2.65,2.65,0,0,0,.26-.74c0-.24-.18-.37-.54-.38v-.25h1.48v.25a.65.65,0,0,0-.46.22,5,5,0,0,0-.52,1Z"/><path class="cls-4" d="M31.93,76V79c0,.47,0,.76,0,.88a.38.38,0,0,0,.16.28.82.82,0,0,0,.48.1h.11v.25H30.33V80.3h.18a.79.79,0,0,0,.5-.11.38.38,0,0,0,.13-.26,8.32,8.32,0,0,0,0-.89V77.71a3.46,3.46,0,0,0-.07-.95c-.05-.11-.11-.19-.19-.21a1.31,1.31,0,0,0-.42,0h-.15v-.24A6.51,6.51,0,0,0,31.81,76Zm-1-2.24a.56.56,0,0,1,.55-.57.54.54,0,0,1,.4.17.58.58,0,0,1,.16.4.59.59,0,0,1-.16.4.54.54,0,0,1-.4.17.54.54,0,0,1-.39-.17A.55.55,0,0,1,30.9,73.73Z"/><path class="cls-4" d="M35.93,76.4H34.6v2.65a3.68,3.68,0,0,0,.06.83.6.6,0,0,0,.22.34.6.6,0,0,0,.38.13.82.82,0,0,0,.67-.44l.17.1a1.1,1.1,0,0,1-.49.53,1.37,1.37,0,0,1-.66.18,1.09,1.09,0,0,1-.68-.22,1,1,0,0,1-.36-.54,5,5,0,0,1-.08-1.07V76.4h-.64v-.25a1.11,1.11,0,0,0,.79-.37,1.72,1.72,0,0,0,.45-1h.17v1.38h1.33Z"/><path class="cls-4" d="M39,79.71l1-2.44a3.69,3.69,0,0,0,.22-.6q0-.27-.6-.27v-.25h1.55v.25a.74.74,0,0,0-.53.19,2.61,2.61,0,0,0-.41.77l-2,4.73a3.42,3.42,0,0,1-.5.92.62.62,0,0,1-.47.24c-.23,0-.35-.1-.35-.31s.19-.45.56-.62a1.71,1.71,0,0,0,.44-.25,1.08,1.08,0,0,0,.22-.37l.42-1-1.66-3.55a2.19,2.19,0,0,0-.36-.59.8.8,0,0,0-.5-.12v-.25h2v.25c-.35,0-.53.08-.53.22a2.49,2.49,0,0,0,.21.52Z"/><path class="cls-4" d="M15.85,90.17l2.22-2c.52-.47.77-.79.77-1s-.25-.45-.77-.47v-.25h2.75v.25a1.64,1.64,0,0,0-.68.15,2.45,2.45,0,0,0-.63.36c-.19.15-.54.47-1.06,1L17.13,89.4l2.72,2.75a8.91,8.91,0,0,0,1.26,1.15,1.53,1.53,0,0,0,.82.2v.25H18.15V93.5h.14a1.66,1.66,0,0,0,.76-.1.31.31,0,0,0,.16-.25c0-.16-.26-.49-.78-1l-2.06-2.07-.52.45v1.33a9.1,9.1,0,0,0,0,1.13.57.57,0,0,0,.22.39,1.16,1.16,0,0,0,.67.13h.14v.25H13.65V93.5h.22a1.26,1.26,0,0,0,.65-.12.53.53,0,0,0,.23-.37,8.35,8.35,0,0,0,.05-1.16V88.28a6.47,6.47,0,0,0-.06-1.15.43.43,0,0,0-.22-.33,2,2,0,0,0-.78-.09v-.25H17v.25h-.14a1.72,1.72,0,0,0-.7.09.49.49,0,0,0-.23.33,8.17,8.17,0,0,0-.05,1.15Z"/><path class="cls-4" d="M25.91,90.84H22.85a4.57,4.57,0,0,0,0,.47,3.37,3.37,0,0,0,.36,1.74,1.18,1.18,0,0,0,1.08.58,1.43,1.43,0,0,0,1.39-.87h.25a1.52,1.52,0,0,1-.68.86,2.18,2.18,0,0,1-2.17,0,2.22,2.22,0,0,1-.81-.8,2.34,2.34,0,0,1-.32-1.25,2.51,2.51,0,0,1,.62-1.73,1.94,1.94,0,0,1,1.53-.69,1.7,1.7,0,0,1,1.33.53A1.73,1.73,0,0,1,25.91,90.84ZM25,90.62a1.8,1.8,0,0,0,0-.22.94.94,0,0,0-.28-.73.92.92,0,0,0-.68-.26c-.65,0-1,.4-1.16,1.21Z"/><path class="cls-4" d="M29,92.91l1-2.44a5.33,5.33,0,0,0,.22-.6c0-.17-.2-.27-.6-.27v-.25h1.55v.25a.74.74,0,0,0-.53.19,2.61,2.61,0,0,0-.41.77l-2,4.73a3.42,3.42,0,0,1-.5.92.62.62,0,0,1-.47.24c-.23,0-.35-.1-.35-.31s.19-.45.56-.62a1.91,1.91,0,0,0,.44-.25,1.09,1.09,0,0,0,.21-.37l.42-1.05-1.65-3.54a1.93,1.93,0,0,0-.37-.59.76.76,0,0,0-.49-.12v-.25h2v.25c-.36,0-.53.08-.53.22a2.49,2.49,0,0,0,.21.52Z"/><path class="cls-4" d="M31.61,93.89V92.44h.21c.25.84.68,1.25,1.31,1.25a.76.76,0,0,0,.61-.24.89.89,0,0,0,.2-.55.75.75,0,0,0-.22-.56,3.32,3.32,0,0,0-.85-.53,3.17,3.17,0,0,1-1-.65,1.07,1.07,0,0,1-.29-.76,1.36,1.36,0,0,1,.31-.83,1,1,0,0,1,.88-.4,1.18,1.18,0,0,1,.95.47,2,2,0,0,0,.21-.39h.2v1.36H34a1.84,1.84,0,0,0-.42-.85.93.93,0,0,0-.72-.35.74.74,0,0,0-.53.2.63.63,0,0,0-.19.46.65.65,0,0,0,.22.5,2.62,2.62,0,0,0,.82.49,2.4,2.4,0,0,1,1.12.81,1.73,1.73,0,0,1,.2.76,1.27,1.27,0,0,1-.38.94,1.36,1.36,0,0,1-1,.35,1.41,1.41,0,0,1-1.08-.5,1.22,1.22,0,0,0-.24.47Z"/><path class="cls-4" d="M2.08,12.62l1.09,0c.9-.05,1.52-.07,1.83-.07A4.84,4.84,0,0,1,7.3,13a2.9,2.9,0,0,1,1.23,1.22,4.12,4.12,0,0,1,.18,3.1,2.62,2.62,0,0,1-.6,1,2.57,2.57,0,0,1-.89.61,3.84,3.84,0,0,1-1,.26c-.3,0-.73.05-1.28.05H2.05V19h.27a1.2,1.2,0,0,0,.59-.1.53.53,0,0,0,.21-.34,7,7,0,0,0,0-1.06V14.27a6.62,6.62,0,0,0,0-1,.44.44,0,0,0-.2-.32,1.49,1.49,0,0,0-.65-.08H2.08Zm2,.14v4.42a11.11,11.11,0,0,0,0,1.27.47.47,0,0,0,.22.39,1.6,1.6,0,0,0,.77.12,3.63,3.63,0,0,0,1.42-.24,2,2,0,0,0,.93-.93A3.76,3.76,0,0,0,7.87,16a4.83,4.83,0,0,0-.21-1.49A2.86,2.86,0,0,0,7,13.44a2.16,2.16,0,0,0-.9-.56,4.38,4.38,0,0,0-1.26-.15Z"/><path class="cls-4" d="M13.85,18.46H14c0,.55-.3.83-.82.83a.76.76,0,0,1-.52-.17.92.92,0,0,1-.26-.53,5.18,5.18,0,0,1-.89.53,2,2,0,0,1-.72.17,1.13,1.13,0,0,1-.7-.23.78.78,0,0,1-.29-.62,1.1,1.1,0,0,1,.49-.88,6.19,6.19,0,0,1,1.36-.74l.75-.3v-.2a2.2,2.2,0,0,0,0-.6.66.66,0,0,0-.28-.33,1,1,0,0,0-.59-.15c-.49,0-.76.17-.81.49s-.19.5-.41.5-.3-.1-.3-.28a.84.84,0,0,1,.39-.6A1.92,1.92,0,0,1,11.61,15a2,2,0,0,1,1,.19,1.08,1.08,0,0,1,.45.45,2,2,0,0,1,.11.76v1.62a2.59,2.59,0,0,0,.06.72.23.23,0,0,0,.25.16C13.66,18.93,13.8,18.77,13.85,18.46Zm-1.42-1.71L11.9,17q-1.26.51-1.26,1.29a.79.79,0,0,0,.16.5.54.54,0,0,0,.42.18,1.27,1.27,0,0,0,.54-.15,3.92,3.92,0,0,0,.67-.45Z"/><path class="cls-4" d="M15.74,15v2.79c0,.42,0,.69,0,.8a.37.37,0,0,0,.15.26.85.85,0,0,0,.43.08h.1v.23H14.29V19h.17a.67.67,0,0,0,.45-.1.35.35,0,0,0,.12-.24c0-.09,0-.36,0-.8V16.61a3.21,3.21,0,0,0-.07-.86.3.3,0,0,0-.18-.2,1.13,1.13,0,0,0-.38,0h-.13v-.22A6.32,6.32,0,0,0,15.64,15Zm-.94-2a.49.49,0,0,1,.15-.36.49.49,0,0,1,.72,0,.53.53,0,0,1,0,.72A.51.51,0,0,1,14.8,13Z"/><path class="cls-4" d="M18.17,12.47v5.35c0,.42,0,.69,0,.8a.36.36,0,0,0,.14.26.9.9,0,0,0,.44.08h.11v.23H16.74V19h.13a.74.74,0,0,0,.42-.08.34.34,0,0,0,.15-.22,7.4,7.4,0,0,0,0-.84v-4a1.63,1.63,0,0,0-.11-.79c-.07-.11-.26-.17-.55-.17v-.22a3.94,3.94,0,0,0,.71-.07,2.11,2.11,0,0,0,.55-.14Z"/><path class="cls-4" d="M21.62,18.43l.93-2.22a5.12,5.12,0,0,0,.2-.54c0-.17-.18-.25-.54-.26v-.22h1.41v.22a.66.66,0,0,0-.48.18,2.51,2.51,0,0,0-.38.7L21,20.59a3.34,3.34,0,0,1-.45.84.59.59,0,0,1-.43.22c-.21,0-.32-.1-.32-.29s.17-.41.51-.56a1.45,1.45,0,0,0,.4-.23.94.94,0,0,0,.2-.33l.38-.95-1.51-3.23a1.61,1.61,0,0,0-.33-.53.67.67,0,0,0-.45-.12v-.22h1.84v.22c-.32,0-.49.08-.49.2a2.53,2.53,0,0,0,.19.48Z"/><path class="cls-4" d="M33.39,19.19H31.6a8,8,0,0,1-1.45-1.74,9.23,9.23,0,0,0-.65-.86,3.32,3.32,0,0,0-.46-.51.79.79,0,0,0-.4-.09h-.26v1.47a7.42,7.42,0,0,0,0,1,.53.53,0,0,0,.19.36,1.21,1.21,0,0,0,.61.11h.32v.23H26.37V19h.21a1.17,1.17,0,0,0,.59-.1.53.53,0,0,0,.21-.34,7.58,7.58,0,0,0,0-1.06V14.22a7.15,7.15,0,0,0,0-1,.41.41,0,0,0-.2-.32,1.47,1.47,0,0,0-.65-.09h-.11v-.22l.95-.05c.63,0,1.13,0,1.5,0a5.46,5.46,0,0,1,1.54.18,2,2,0,0,1,1,.58,1.36,1.36,0,0,1,.37.95,1.46,1.46,0,0,1-.48,1.11,2.35,2.35,0,0,1-1.41.57,5.53,5.53,0,0,1,1.34,1.45,6.7,6.7,0,0,0,1.18,1.32,1.77,1.77,0,0,0,1,.33Zm-5-3.42.76,0a2.61,2.61,0,0,0,.68-.11,1.19,1.19,0,0,0,.46-.25,1.11,1.11,0,0,0,.28-.44,1.94,1.94,0,0,0,.11-.68,1.72,1.72,0,0,0-.35-1.12,2,2,0,0,0-1.52-.42l-.42,0Z"/><path class="cls-4" d="M35,15v2.79a7.05,7.05,0,0,0,0,.8.36.36,0,0,0,.14.26.85.85,0,0,0,.43.08h.11v.23H33.56V19h.17a.67.67,0,0,0,.45-.1.35.35,0,0,0,.12-.24c0-.09,0-.36,0-.8V16.61a2.81,2.81,0,0,0-.07-.86.32.32,0,0,0-.17-.2,1.2,1.2,0,0,0-.39,0h-.13v-.22A6.32,6.32,0,0,0,34.91,15Zm-1-2a.49.49,0,0,1,.15-.36.48.48,0,0,1,.72,0,.51.51,0,1,1-.87.36Z"/><path class="cls-4" d="M36.31,19.32V18h.19c.22.76.62,1.14,1.19,1.14a.66.66,0,0,0,.55-.23.76.76,0,0,0,.18-.49.69.69,0,0,0-.19-.51,2.88,2.88,0,0,0-.78-.48,3.16,3.16,0,0,1-.87-.59,1,1,0,0,1-.26-.7,1.25,1.25,0,0,1,.28-.75,1,1,0,0,1,.8-.36,1,1,0,0,1,.86.42,1.13,1.13,0,0,0,.19-.35h.18v1.23h-.18a1.64,1.64,0,0,0-.37-.76.85.85,0,0,0-.67-.32.64.64,0,0,0-.47.18.58.58,0,0,0-.18.42.61.61,0,0,0,.2.45,2.77,2.77,0,0,0,.75.45,2.08,2.08,0,0,1,1,.73,1.44,1.44,0,0,1,.19.69,1.12,1.12,0,0,1-.35.85,1.17,1.17,0,0,1-.86.33,1.31,1.31,0,0,1-1-.45,1,1,0,0,0-.22.42Z"/><path class="cls-4" d="M41.88,15.19h1.61v.22a2.24,2.24,0,0,0-1.19.67l-.74.6L43,18.35a2.7,2.7,0,0,0,.5.49.71.71,0,0,0,.38.12v.23h-2V19c.33,0,.5-.07.5-.21a1.36,1.36,0,0,0-.33-.47l-1-1.2-.21.16v.58a7.05,7.05,0,0,0,0,.8.33.33,0,0,0,.13.25.79.79,0,0,0,.43.09v.23h-2V19h.15a.69.69,0,0,0,.46-.1.35.35,0,0,0,.12-.24c0-.09,0-.36,0-.8v-4a1.61,1.61,0,0,0-.1-.74c-.08-.11-.25-.17-.54-.17v-.22a3.84,3.84,0,0,0,.7-.07,2.11,2.11,0,0,0,.55-.14h.1V17l.42-.29c.68-.48,1-.83,1-1s-.13-.22-.38-.23Z"/><path class="cls-4" d="M9.86,28.75H7.34l-.17.42a4.35,4.35,0,0,0-.38,1.19.54.54,0,0,0,.2.45.86.86,0,0,0,.52.15v.23h-2V31a1,1,0,0,0,.66-.31,4.19,4.19,0,0,0,.52-1c0-.05.09-.24.23-.57l1.92-4.6h.19l2.22,5.26.3.7a.86.86,0,0,0,.28.36.94.94,0,0,0,.52.17v.23H9.77V31a1.88,1.88,0,0,0,.65-.07.27.27,0,0,0,.17-.28,3.13,3.13,0,0,0-.23-.64Zm-.09-.22L8.6,25.7,7.43,28.53Z"/><path class="cls-4" d="M16.13,30.21h.22a1.53,1.53,0,0,1-1.66,1.14,2,2,0,0,1-1.44-.58,2.07,2.07,0,0,1-.58-1.54,2.11,2.11,0,0,1,.63-1.59,2.14,2.14,0,0,1,2.44-.39c.29.16.43.34.43.56a.34.34,0,0,1-.08.23.27.27,0,0,1-.23.11c-.21,0-.35-.13-.39-.38a.79.79,0,0,0-.18-.4.83.83,0,0,0-.5-.11,1.12,1.12,0,0,0-1,.46,2.29,2.29,0,0,0-.33,1.36,2.72,2.72,0,0,0,.35,1.48,1.22,1.22,0,0,0,1.07.53A1.15,1.15,0,0,0,16.13,30.21Z"/><path class="cls-4" d="M20.41,30.21h.21A1.53,1.53,0,0,1,19,31.35a2,2,0,0,1-1.44-.58,2.07,2.07,0,0,1-.58-1.54,2.11,2.11,0,0,1,.63-1.59A2.06,2.06,0,0,1,19.06,27a2,2,0,0,1,1,.22c.29.16.44.34.44.56a.4.4,0,0,1-.08.23.29.29,0,0,1-.24.11c-.21,0-.34-.13-.39-.38a.79.79,0,0,0-.18-.4.83.83,0,0,0-.5-.11,1.12,1.12,0,0,0-1,.46,2.29,2.29,0,0,0-.33,1.36,2.63,2.63,0,0,0,.36,1.48,1.2,1.2,0,0,0,1.07.53A1.16,1.16,0,0,0,20.41,30.21Z"/><path class="cls-4" d="M21.23,29.18a2.07,2.07,0,0,1,.61-1.53,2.17,2.17,0,0,1,3,0,2.29,2.29,0,0,1,0,3.12,2.24,2.24,0,0,1-3,0A2.09,2.09,0,0,1,21.23,29.18Zm.81,0a2.46,2.46,0,0,0,.34,1.49,1.21,1.21,0,0,0,1,.42,1.2,1.2,0,0,0,1-.42,2.54,2.54,0,0,0,.33-1.49,2.62,2.62,0,0,0-.33-1.51,1.15,1.15,0,0,0-1-.45,1.14,1.14,0,0,0-1,.45A2.53,2.53,0,0,0,22,29.21Z"/><path class="cls-4" d="M30.2,27.19v2.62c0,.44,0,.71,0,.82a.35.35,0,0,0,.15.25.8.8,0,0,0,.44.08v.23a3.11,3.11,0,0,0-1.08.15h-.06a2.1,2.1,0,0,1-.17-.92,2.08,2.08,0,0,1-.68.7,1.6,1.6,0,0,1-.84.23,1.36,1.36,0,0,1-.71-.18,1,1,0,0,1-.42-.45,2,2,0,0,1-.12-.8V28.56c0-.46,0-.74,0-.85a.3.3,0,0,0-.16-.22,1,1,0,0,0-.47-.08v-.22h1.35V30a2.77,2.77,0,0,0,.05.6.63.63,0,0,0,.25.32.77.77,0,0,0,.47.14,1.19,1.19,0,0,0,.71-.24,1.35,1.35,0,0,0,.47-.53,2,2,0,0,0,.12-.79v-.9c0-.44,0-.7,0-.79a.39.39,0,0,0-.12-.25.71.71,0,0,0-.46-.11h-.1v-.22Z"/><path class="cls-4" d="M32.44,27h.14a2.79,2.79,0,0,1,.12.82,2.78,2.78,0,0,1,.74-.62,1.8,1.8,0,0,1,.81-.2,1.35,1.35,0,0,1,.78.2.92.92,0,0,1,.39.49,3,3,0,0,1,.09.85v1.25c0,.46,0,.74,0,.84a.32.32,0,0,0,.16.23,1,1,0,0,0,.47.07v.23h-2V31h.09a.69.69,0,0,0,.46-.1.39.39,0,0,0,.12-.24c0-.09,0-.36,0-.8V28.53a3.47,3.47,0,0,0-.05-.68.64.64,0,0,0-.25-.36.81.81,0,0,0-.51-.15,1.21,1.21,0,0,0-.68.21,2.11,2.11,0,0,0-.62.64v1.63a6.44,6.44,0,0,0,0,.84.32.32,0,0,0,.16.23,1,1,0,0,0,.48.07v.23h-2V31a1.22,1.22,0,0,0,.47-.06.32.32,0,0,0,.17-.21,6.83,6.83,0,0,0,0-.87v-1.2a6.44,6.44,0,0,0,0-.84.34.34,0,0,0-.15-.23,1.12,1.12,0,0,0-.49-.07v-.23A6.3,6.3,0,0,0,32.44,27Z"/><path class="cls-4" d="M39.12,27.41h-1.2v2.42a3.19,3.19,0,0,0,0,.75.54.54,0,0,0,.2.31.56.56,0,0,0,.34.12.74.74,0,0,0,.61-.4l.16.09a1.07,1.07,0,0,1-.45.49,1.28,1.28,0,0,1-.6.16.94.94,0,0,1-.61-.21.84.84,0,0,1-.33-.48,4.48,4.48,0,0,1-.07-1V27.41h-.58v-.22a1,1,0,0,0,.72-.34,1.63,1.63,0,0,0,.4-.92h.16v1.26h1.2Z"/><path class="cls-4" d="M39.7,31.32V30h.19c.22.76.62,1.14,1.19,1.14a.67.67,0,0,0,.55-.23.76.76,0,0,0,.18-.49.69.69,0,0,0-.19-.51,2.88,2.88,0,0,0-.78-.48,3.16,3.16,0,0,1-.87-.59,1,1,0,0,1-.26-.7,1.19,1.19,0,0,1,.28-.75,1,1,0,0,1,.8-.36,1.06,1.06,0,0,1,.86.42,1.4,1.4,0,0,0,.19-.35H42v1.23h-.18a1.64,1.64,0,0,0-.37-.76.85.85,0,0,0-.67-.32.64.64,0,0,0-.47.18.58.58,0,0,0-.18.42.61.61,0,0,0,.2.45,2.77,2.77,0,0,0,.75.45,2.08,2.08,0,0,1,1,.73,1.44,1.44,0,0,1,.19.69A1.12,1.12,0,0,1,42,31a1.2,1.2,0,0,1-.86.33,1.34,1.34,0,0,1-1-.45,1.17,1.17,0,0,0-.21.42Z"/></g></svg>