<svg xmlns="http://www.w3.org/2000/svg" viewBox="0 0 324.24 49.36"><defs><style>.cls-1,.cls-3,.cls-4{fill:none;}.cls-1{stroke:#1d1d1b;stroke-width:0.76px;}.cls-1,.cls-4{stroke-linejoin:round;}.cls-2{fill:#1d1d1b;}.cls-3,.cls-4{stroke:#010101;stroke-linecap:round;}.cls-3{stroke-miterlimit:10;}</style></defs><g id="Layer_1" data-name="Layer 1"><rect class="cls-1" x="60.54" y="3.23" width="56.53" height="29.9"/><path class="cls-2" d="M76,17.66l2.83-2.55c.66-.59,1-1,1-1.26s-.32-.58-1-.59v-.32h3.49v.32a2.21,2.21,0,0,0-.86.18,3.06,3.06,0,0,0-.8.47c-.24.19-.69.59-1.35,1.21L77.6,16.67l3.47,3.51a11.25,11.25,0,0,0,1.59,1.46,1.94,1.94,0,0,0,1,.26v.31H78.89V21.9h.19a2.26,2.26,0,0,0,1-.13.38.38,0,0,0,.19-.32c0-.2-.33-.62-1-1.28l-2.62-2.64-.66.58V19.8a13.41,13.41,0,0,0,0,1.43.73.73,0,0,0,.28.5,1.52,1.52,0,0,0,.85.17h.18v.31H73.17V21.9h.28a1.65,1.65,0,0,0,.83-.15.7.7,0,0,0,.29-.47,10.16,10.16,0,0,0,.07-1.48V15.25a8.22,8.22,0,0,0-.08-1.46.55.55,0,0,0-.28-.42,2.54,2.54,0,0,0-1-.11v-.32h4.1v.32h-.17a2.22,2.22,0,0,0-.9.11.58.58,0,0,0-.28.42A8.46,8.46,0,0,0,76,15.25Z"/><path class="cls-2" d="M91.7,19.33H92l-.2,2.88H84.15V21.9h.19a1.37,1.37,0,0,0,.89-.19.81.81,0,0,0,.26-.47,9.74,9.74,0,0,0,.06-1.44V15.25a9.94,9.94,0,0,0-.06-1.39.65.65,0,0,0-.27-.47,1.87,1.87,0,0,0-.88-.13v-.32H91l.22,2.31h-.33a3.69,3.69,0,0,0-.53-1.38,1.36,1.36,0,0,0-.76-.51,6.76,6.76,0,0,0-1.41-.1H86.88v3.89h1a2.61,2.61,0,0,0,1-.12.65.65,0,0,0,.36-.35,3.61,3.61,0,0,0,.08-.92h.32v3.17h-.32a2.66,2.66,0,0,0-.13-1,.63.63,0,0,0-.38-.34,3.2,3.2,0,0,0-.84-.08h-1v2.2a4.82,4.82,0,0,0,.21,1.94c.14.19.52.29,1.14.29h.69a3.45,3.45,0,0,0,1.21-.19,2.16,2.16,0,0,0,.89-.77A4.56,4.56,0,0,0,91.7,19.33Z"/><path class="cls-2" d="M97.73,18.16l1.82-3.07A2.6,2.6,0,0,0,100,14a.72.72,0,0,0-.24-.52,1.18,1.18,0,0,0-.85-.24v-.32h3v.32a1.79,1.79,0,0,0-1,.46,8.47,8.47,0,0,0-1,1.38l-2.08,3.47V19.8a9.2,9.2,0,0,0,.07,1.51.66.66,0,0,0,.31.45,2,2,0,0,0,.92.14v.31h-4V21.9h.15a1.65,1.65,0,0,0,.83-.15.7.7,0,0,0,.29-.47,10.76,10.76,0,0,0,.06-1.48V18.66l-2.31-3.8a9.34,9.34,0,0,0-.94-1.37,1.23,1.23,0,0,0-.83-.23v-.32h3.76v.32c-.7,0-1.06.16-1.06.47a2.09,2.09,0,0,0,.35.77Z"/><path class="cls-2" d="M104.08,20h.17v4.14c0,.34,0,.56,0,.65a.26.26,0,0,0,.11.2.59.59,0,0,0,.35.07h.15v.18h-1.76V25h.13a.61.61,0,0,0,.37-.08.34.34,0,0,0,.09-.19c0-.07,0-.29,0-.65V21.33c0-.35,0-.56,0-.64a.35.35,0,0,0-.1-.19.53.53,0,0,0-.37-.09h-.17v-.18A1.6,1.6,0,0,0,104.08,20Z"/><path class="cls-2" d="M10.93,41.05l-3.75-5v3.68a2.45,2.45,0,0,0,.05.6c0,.1.11.18.25.27a1.3,1.3,0,0,0,.63.12v.18h-2v-.18a1.59,1.59,0,0,0,.58-.14A.47.47,0,0,0,7,40.37a2.56,2.56,0,0,0,0-.61V37a3.57,3.57,0,0,0-.06-.82.38.38,0,0,0-.18-.26,1.52,1.52,0,0,0-.55-.06v-.18H7.77l3.13,4.14V36.61a1.2,1.2,0,0,0-.07-.5.57.57,0,0,0-.29-.22,1.71,1.71,0,0,0-.54-.08v-.18h1.92v.18a1.42,1.42,0,0,0-.53.13.46.46,0,0,0-.24.24,1.4,1.4,0,0,0-.06.48v4.39Z"/><path class="cls-2" d="M16.23,35.63H18v.18a.93.93,0,0,0-.53.16.54.54,0,0,0-.21.3,3.12,3.12,0,0,0,0,.65v1.76a8,8,0,0,1,0,1,1.41,1.41,0,0,1-.31.64,1.76,1.76,0,0,1-.71.51,2.82,2.82,0,0,1-1,.18,2.73,2.73,0,0,1-1.2-.24,1.48,1.48,0,0,1-.7-.62,2.09,2.09,0,0,1-.21-1V37a6.14,6.14,0,0,0,0-.82.38.38,0,0,0-.16-.25,1.16,1.16,0,0,0-.52-.07h-.12v-.18h2.42v.18h-.11a1.37,1.37,0,0,0-.51.06.38.38,0,0,0-.16.24,4.81,4.81,0,0,0,0,.84v1.67a6.76,6.76,0,0,0,.08,1.23,1,1,0,0,0,.45.63,1.66,1.66,0,0,0,1,.27,2.13,2.13,0,0,0,.88-.18,1.47,1.47,0,0,0,.59-.45,1.18,1.18,0,0,0,.23-.56,6.22,6.22,0,0,0,.05-.9V36.85a2.89,2.89,0,0,0-.05-.63.51.51,0,0,0-.22-.28,1.1,1.1,0,0,0-.53-.13Z"/><path class="cls-2" d="M22.93,39.37l0,1.56H18.4v-.18h.15a.88.88,0,0,0,.47-.09.39.39,0,0,0,.17-.27,6.16,6.16,0,0,0,0-.84V37a6.14,6.14,0,0,0,0-.82.35.35,0,0,0-.16-.25,1.16,1.16,0,0,0-.52-.07H18.4v-.18h2.54v.18H20.7a1.37,1.37,0,0,0-.51.06.38.38,0,0,0-.16.24A4.81,4.81,0,0,0,20,37v2.77a4.82,4.82,0,0,0,0,.72.36.36,0,0,0,.17.23,1.46,1.46,0,0,0,.6.08h.4a2.17,2.17,0,0,0,.72-.09,1,1,0,0,0,.45-.37,3.14,3.14,0,0,0,.39-.92Z"/><path class="cls-2" d="M27.77,39.37l0,1.56h-4.5v-.18h.15a.85.85,0,0,0,.47-.09.39.39,0,0,0,.17-.27,4.81,4.81,0,0,0,0-.84V37a4.75,4.75,0,0,0,0-.82.34.34,0,0,0-.15-.25,1.21,1.21,0,0,0-.53-.07h-.11v-.18h2.54v.18h-.23a1.43,1.43,0,0,0-.52.06.38.38,0,0,0-.16.24,4.81,4.81,0,0,0,0,.84v2.77a4.82,4.82,0,0,0,0,.72.36.36,0,0,0,.17.23,1.46,1.46,0,0,0,.6.08H26a2.09,2.09,0,0,0,.72-.09,1,1,0,0,0,.45-.37,2.68,2.68,0,0,0,.39-.92Z"/><path class="cls-2" d="M70.51,48h-.37a7.91,7.91,0,0,1-1.79-5.09A7.67,7.67,0,0,1,70.08,38h.37a6.83,6.83,0,0,0-1.31,2.22,7.87,7.87,0,0,0-.46,2.63,8,8,0,0,0,.54,3A6.23,6.23,0,0,0,70.51,48Z"/><path class="cls-2" d="M70.91,45.52V44.07h.21c.24.84.67,1.25,1.3,1.25a.75.75,0,0,0,.61-.24.89.89,0,0,0,.2-.55A.78.78,0,0,0,73,44a3.33,3.33,0,0,0-.86-.53,3.29,3.29,0,0,1-1-.65,1.06,1.06,0,0,1-.29-.77,1.32,1.32,0,0,1,.31-.83,1.06,1.06,0,0,1,.87-.39,1.17,1.17,0,0,1,1,.47,1.25,1.25,0,0,0,.21-.4h.2v1.36h-.2a2,2,0,0,0-.41-.84,1,1,0,0,0-.73-.35.7.7,0,0,0-.52.2.65.65,0,0,0,0,1,3,3,0,0,0,.82.49,2.33,2.33,0,0,1,1.12.81,1.57,1.57,0,0,1,.2.76,1.2,1.2,0,0,1-.38.93,1.32,1.32,0,0,1-.95.36,1.44,1.44,0,0,1-1.08-.5,1.15,1.15,0,0,0-.23.47Z"/><path class="cls-2" d="M77.15,41.22H75.82v2.66a4.71,4.71,0,0,0,.05.83.64.64,0,0,0,.61.47.82.82,0,0,0,.67-.44l.17.1a1.15,1.15,0,0,1-.49.53,1.37,1.37,0,0,1-.66.18,1.09,1.09,0,0,1-.68-.22,1,1,0,0,1-.37-.54,6.09,6.09,0,0,1-.07-1.07v-2.5h-.64V41a1.11,1.11,0,0,0,.79-.37,1.79,1.79,0,0,0,.45-1h.17V41h1.33Z"/><path class="cls-2" d="M82.18,44.57h.2c0,.61-.33.92-.9.92a.86.86,0,0,1-.58-.19,1.06,1.06,0,0,1-.28-.58,5.93,5.93,0,0,1-1,.58,2.15,2.15,0,0,1-.79.19,1.21,1.21,0,0,1-.77-.26.84.84,0,0,1-.32-.68,1.21,1.21,0,0,1,.54-1,6.93,6.93,0,0,1,1.49-.8l.83-.34v-.22a2.62,2.62,0,0,0-.06-.66.67.67,0,0,0-.3-.36,1.16,1.16,0,0,0-.65-.16c-.54,0-.84.18-.9.53s-.21.55-.45.55-.33-.1-.33-.31.15-.42.44-.66a2.16,2.16,0,0,1,1.35-.35,2.21,2.21,0,0,1,1.06.21,1.15,1.15,0,0,1,.49.49,2,2,0,0,1,.13.84v1.78a3.25,3.25,0,0,0,.06.8.27.27,0,0,0,.28.18C82,45.1,82.12,44.92,82.18,44.57Zm-1.56-1.88-.58.24c-.93.37-1.39.85-1.39,1.41a.81.81,0,0,0,.18.55.57.57,0,0,0,.46.21,1.41,1.41,0,0,0,.59-.17,4.19,4.19,0,0,0,.74-.5Z"/><path class="cls-2" d="M84.32,41.92a1.81,1.81,0,0,1,.6-.8,1.32,1.32,0,0,1,.8-.32.72.72,0,0,1,.56.22.7.7,0,0,1,.2.45.38.38,0,0,1-.1.27.36.36,0,0,1-.26.11c-.18,0-.31-.13-.41-.4s-.16-.26-.29-.26a.89.89,0,0,0-.55.31,1.51,1.51,0,0,0-.41.65,3.83,3.83,0,0,0-.09.93v.79c0,.47,0,.76,0,.88a.4.4,0,0,0,.16.28.82.82,0,0,0,.48.1h.15v.25H82.83v-.25h.11A.86.86,0,0,0,83.4,45a.37.37,0,0,0,.17-.25c0-.11,0-.42,0-.92V42.63a8.55,8.55,0,0,0,0-.89.36.36,0,0,0-.15-.28.82.82,0,0,0-.48-.1h-.11v-.24a7.66,7.66,0,0,0,1.32-.32A3.67,3.67,0,0,1,84.32,41.92Z"/><path class="cls-2" d="M89.52,41.22H88.2v2.66a3.88,3.88,0,0,0,0,.83.57.57,0,0,0,.23.34.64.64,0,0,0,.37.13.81.81,0,0,0,.67-.44l.17.1a1.1,1.1,0,0,1-.49.53,1.31,1.31,0,0,1-.66.18,1.11,1.11,0,0,1-.68-.22,1,1,0,0,1-.36-.54,5.23,5.23,0,0,1-.07-1.07v-2.5h-.64V41a1.15,1.15,0,0,0,.79-.37,1.78,1.78,0,0,0,.44-1h.18V41h1.32Z"/><path class="cls-2" d="M95.37,41h1.77v.24a2.42,2.42,0,0,0-1.31.73c-.18.15-.45.38-.82.67l1.57,1.83a2.61,2.61,0,0,0,.56.54.81.81,0,0,0,.42.14v.25H95.37v-.25q.54,0,.54-.24c0-.07-.12-.24-.36-.52l-1.12-1.31-.24.17v.64c0,.47,0,.76,0,.88a.42.42,0,0,0,.16.28.76.76,0,0,0,.46.1v.25H92.6v-.25h.17a.77.77,0,0,0,.5-.11.45.45,0,0,0,.14-.26c0-.11,0-.4,0-.89V39.46a1.74,1.74,0,0,0-.12-.82c-.08-.12-.27-.18-.58-.18v-.24a4.8,4.8,0,0,0,.76-.08,2.8,2.8,0,0,0,.6-.15h.11v4.95l.47-.32c.75-.53,1.12-.92,1.12-1.15s-.14-.24-.41-.25Z"/><path class="cls-2" d="M101.9,42.46H98.83c0,.22,0,.37,0,.48a3.37,3.37,0,0,0,.36,1.74,1.18,1.18,0,0,0,1.08.58,1.41,1.41,0,0,0,1.39-.87h.26a1.48,1.48,0,0,1-.69.85,2.13,2.13,0,0,1-2.16,0,2.22,2.22,0,0,1-1.13-2.05,2.51,2.51,0,0,1,.61-1.73,2,2,0,0,1,1.53-.69,1.68,1.68,0,0,1,1.34.53A1.83,1.83,0,0,1,101.9,42.46Zm-.94-.21a1.77,1.77,0,0,0,0-.22,1,1,0,0,0-.27-.73A.93.93,0,0,0,100,41c-.65,0-1,.4-1.17,1.21Z"/><path class="cls-2" d="M105,44.54l1-2.44a3.69,3.69,0,0,0,.22-.6c0-.18-.2-.27-.6-.28V41h1.55v.24a.78.78,0,0,0-.53.19,2.87,2.87,0,0,0-.41.78l-2,4.73a3.79,3.79,0,0,1-.49.92.66.66,0,0,1-.48.24c-.23,0-.35-.1-.35-.31s.19-.45.56-.62a1.71,1.71,0,0,0,.44-.25,1.08,1.08,0,0,0,.22-.37l.42-1.05-1.66-3.54a2,2,0,0,0-.36-.59.73.73,0,0,0-.5-.13V41h2v.24c-.35,0-.53.09-.53.22a2.27,2.27,0,0,0,.21.53Z"/><path class="cls-2" d="M107.09,48a6.08,6.08,0,0,0,1.29-2.12,8.2,8.2,0,0,0,.1-5.58A6.33,6.33,0,0,0,107.14,38h.38a7.63,7.63,0,0,1,1.74,4.89,7.86,7.86,0,0,1-1.8,5.09Z"/><rect class="cls-1" x="162.63" y="3.23" width="56.53" height="29.9"/><path class="cls-2" d="M178.06,17.66l2.83-2.55c.65-.59,1-1,1-1.26s-.33-.58-1-.59v-.32h3.49v.32a2.18,2.18,0,0,0-.86.18,3.06,3.06,0,0,0-.8.47c-.24.19-.69.59-1.35,1.21l-1.69,1.55,3.48,3.51a11.25,11.25,0,0,0,1.59,1.46,1.93,1.93,0,0,0,1,.26v.31H181V21.9h.19a2.26,2.26,0,0,0,1-.13.38.38,0,0,0,.19-.32c0-.2-.33-.62-1-1.28l-2.62-2.64-.66.58V19.8a11.08,11.08,0,0,0,.05,1.43.73.73,0,0,0,.28.5,1.52,1.52,0,0,0,.85.17h.18v.31h-4.17V21.9h.29a1.58,1.58,0,0,0,.82-.15.68.68,0,0,0,.3-.47,10.76,10.76,0,0,0,.06-1.48V15.25a8.62,8.62,0,0,0-.07-1.46.58.58,0,0,0-.28-.42,2.54,2.54,0,0,0-1-.11v-.32h4.1v.32h-.17a2.19,2.19,0,0,0-.9.11.58.58,0,0,0-.28.42,8.46,8.46,0,0,0-.07,1.46Z"/><path class="cls-2" d="M193.79,19.33h.32l-.19,2.88h-7.68V21.9h.19a1.37,1.37,0,0,0,.89-.19.81.81,0,0,0,.26-.47,10.39,10.39,0,0,0,0-1.44V15.25a12.75,12.75,0,0,0,0-1.39.65.65,0,0,0-.27-.47,1.87,1.87,0,0,0-.88-.13v-.32h6.62l.22,2.31H193a3.69,3.69,0,0,0-.53-1.38,1.4,1.4,0,0,0-.76-.51,6.76,6.76,0,0,0-1.41-.1H189v3.89h1a2.61,2.61,0,0,0,1-.12.6.6,0,0,0,.35-.35,3.09,3.09,0,0,0,.09-.92h.32v3.17h-.32a2.66,2.66,0,0,0-.13-1,.63.63,0,0,0-.38-.34,3.25,3.25,0,0,0-.84-.08h-1v2.2a4.82,4.82,0,0,0,.21,1.94c.14.19.52.29,1.14.29H191a3.35,3.35,0,0,0,1.2-.19,2.12,2.12,0,0,0,.9-.77A4.56,4.56,0,0,0,193.79,19.33Z"/><path class="cls-2" d="M199.82,18.16l1.82-3.07a2.6,2.6,0,0,0,.45-1.07.72.72,0,0,0-.24-.52,1.18,1.18,0,0,0-.85-.24v-.32h3v.32a1.79,1.79,0,0,0-1,.46,7.82,7.82,0,0,0-1,1.38L200,18.57V19.8a9.2,9.2,0,0,0,.07,1.51.64.64,0,0,0,.3.45,2.12,2.12,0,0,0,.93.14v.31H197.3V21.9h.15a1.58,1.58,0,0,0,.82-.15.66.66,0,0,0,.29-.47,8.83,8.83,0,0,0,.07-1.48V18.66l-2.31-3.8a10.26,10.26,0,0,0-.94-1.37,1.26,1.26,0,0,0-.84-.23v-.32h3.76v.32c-.7,0-1.05.16-1.05.47a2.09,2.09,0,0,0,.35.77Z"/><path class="cls-2" d="M204.48,25.21V25a9.16,9.16,0,0,0,1.13-1.1,7.2,7.2,0,0,0,1-1.3,2.25,2.25,0,0,0,.3-1.1,1.4,1.4,0,0,0-.3-1,1,1,0,0,0-.76-.31.83.83,0,0,0-.69.29.94.94,0,0,0-.24.61.7.7,0,0,0,.31.6q.12.07.12.12c0,.05,0,.11-.13.19a.35.35,0,0,1-.22.13c-.08,0-.17-.08-.28-.24a1,1,0,0,1-.17-.61,1.14,1.14,0,0,1,.47-1,1.66,1.66,0,0,1,1-.34,1.68,1.68,0,0,1,1.06.36,1.26,1.26,0,0,1,.47,1.08,1.81,1.81,0,0,1-.21.85,6.29,6.29,0,0,1-1,1.23c-.55.56-1,1-1.31,1.25h2.48l-.22.88h-.19a.32.32,0,0,1,0-.14s0-.06,0-.11,0-.12-.05-.14a1.35,1.35,0,0,0-.28,0Z"/><rect class="cls-1" x="264.71" y="3.23" width="56.53" height="29.9"/><path class="cls-2" d="M280.14,17.66,283,15.11q1-.88,1-1.26c0-.38-.33-.58-1-.59v-.32h3.5v.32a2.26,2.26,0,0,0-.87.18,3,3,0,0,0-.79.47c-.25.19-.69.59-1.35,1.21l-1.69,1.55,3.47,3.51a11.7,11.7,0,0,0,1.6,1.46,1.91,1.91,0,0,0,1,.26v.31h-4.81V21.9h.18a2.32,2.32,0,0,0,1-.13.41.41,0,0,0,.19-.32c0-.2-.33-.62-1-1.28l-2.62-2.64-.67.58V19.8a10.46,10.46,0,0,0,.06,1.43.73.73,0,0,0,.28.5,1.5,1.5,0,0,0,.85.17h.17v.31h-4.16V21.9h.29a1.6,1.6,0,0,0,.82-.15.75.75,0,0,0,.3-.47,10.76,10.76,0,0,0,.06-1.48V15.25a8.62,8.62,0,0,0-.07-1.46.58.58,0,0,0-.28-.42,2.64,2.64,0,0,0-1-.11v-.32h4.11v.32h-.17a2.19,2.19,0,0,0-.9.11.55.55,0,0,0-.28.42,8.06,8.06,0,0,0-.08,1.46Z"/><path class="cls-2" d="M295.87,19.33h.33l-.2,2.88h-7.67V21.9h.19a1.37,1.37,0,0,0,.89-.19.87.87,0,0,0,.26-.47,12.44,12.44,0,0,0,.05-1.44V15.25a9.94,9.94,0,0,0-.06-1.39.64.64,0,0,0-.26-.47,1.9,1.9,0,0,0-.88-.13v-.32h6.62l.22,2.31H295a3.85,3.85,0,0,0-.54-1.38,1.34,1.34,0,0,0-.75-.51,6.76,6.76,0,0,0-1.41-.1h-1.29v3.89h1A2.61,2.61,0,0,0,293,17a.63.63,0,0,0,.35-.35,3.09,3.09,0,0,0,.09-.92h.32v3.17h-.32a2.87,2.87,0,0,0-.13-1,.66.66,0,0,0-.38-.34,3.29,3.29,0,0,0-.85-.08h-1v2.2a4.56,4.56,0,0,0,.22,1.94c.14.19.52.29,1.14.29h.69a3.35,3.35,0,0,0,1.2-.19,2.12,2.12,0,0,0,.9-.77A4.56,4.56,0,0,0,295.87,19.33Z"/><path class="cls-2" d="M301.9,18.16l1.83-3.07a2.6,2.6,0,0,0,.45-1.07.72.72,0,0,0-.24-.52,1.18,1.18,0,0,0-.85-.24v-.32h3v.32a1.76,1.76,0,0,0-1,.46,7.82,7.82,0,0,0-1,1.38L302,18.57V19.8a10.58,10.58,0,0,0,.07,1.51.66.66,0,0,0,.31.45,2.12,2.12,0,0,0,.93.14v.31h-3.95V21.9h.15a1.6,1.6,0,0,0,.82-.15.7.7,0,0,0,.29-.47,10.76,10.76,0,0,0,.06-1.48V18.66l-2.31-3.8a10.63,10.63,0,0,0-.93-1.37,1.28,1.28,0,0,0-.84-.23v-.32h3.76v.32c-.7,0-1.05.16-1.05.47a2.09,2.09,0,0,0,.35.77Z"/><path class="cls-2" d="M308.1,22.37a.67.67,0,0,1,.24,0,1.12,1.12,0,0,1,.91.39,1.65,1.65,0,0,1-.16,2.16,1.75,1.75,0,0,1-1.26.46,1.65,1.65,0,0,1-.88-.23c-.25-.16-.38-.33-.38-.51a.27.27,0,0,1,.08-.19.22.22,0,0,1,.18-.08c.13,0,.23.09.29.28a.69.69,0,0,0,.31.45.82.82,0,0,0,.39.11,1,1,0,0,0,.8-.36,1.65,1.65,0,0,0,.31-1.11,1.5,1.5,0,0,0-.23-.91.68.68,0,0,0-.54-.29.9.9,0,0,0-.59.32.17.17,0,0,1-.12.06c-.07,0-.11,0-.11-.12a.17.17,0,0,1,.06-.12,3.29,3.29,0,0,1,.34-.25,3.81,3.81,0,0,0,.82-.69,1.2,1.2,0,0,0,.19-.7.88.88,0,0,0-.2-.63.75.75,0,0,0-.55-.22,1,1,0,0,0-.63.23.71.71,0,0,0-.27.57.74.74,0,0,0,.24.52s0,0,0,.05-.05.07-.13.11a.76.76,0,0,1-.19.05c-.08,0-.15-.06-.23-.18a.79.79,0,0,1-.1-.4,1,1,0,0,1,.37-.78,1.69,1.69,0,0,1,2-.06.88.88,0,0,1,.33.66.9.9,0,0,1-.22.59,3.34,3.34,0,0,1-.76.64Z"/><line class="cls-3" x1="128.34" y1="11.62" x2="151.18" y2="11.62"/><polyline class="cls-4" points="148.89 14.3 151.68 11.51 148.81 8.64"/><line class="cls-3" x1="151.68" y1="24.2" x2="128.85" y2="24.2"/><polyline class="cls-4" points="131.14 21.52 128.34 24.31 131.21 27.18"/><line class="cls-3" x1="49.55" y1="24.03" x2="26.72" y2="24.03"/><polyline class="cls-4" points="29.01 21.35 26.21 24.14 29.08 27.01"/><line class="cls-3" x1="230.13" y1="11.62" x2="252.97" y2="11.62"/><polyline class="cls-4" points="250.68 14.3 253.47 11.51 250.6 8.64"/><line class="cls-3" x1="253.47" y1="24.2" x2="230.64" y2="24.2"/><polyline class="cls-4" points="232.93 21.52 230.13 24.31 233 27.18"/><rect class="cls-1" x="14.11" y="17.25" width="5.99" height="13.89"/></g></svg>