<svg xmlns="http://www.w3.org/2000/svg" viewBox="0 0 614.53 246.64"><defs><style>.cls-1{fill:#b2b2b2;}.cls-10,.cls-11,.cls-2,.cls-4,.cls-5,.cls-8,.cls-9{fill:none;}.cls-2{stroke:#b2b2b2;}.cls-10,.cls-11,.cls-2,.cls-9{stroke-miterlimit:10;}.cls-2,.cls-9{stroke-width:0.75px;}.cls-3,.cls-6{fill:#1d1d1b;}.cls-10,.cls-11,.cls-5,.cls-6,.cls-8,.cls-9{stroke:#1d1d1b;stroke-linecap:round;}.cls-5,.cls-6,.cls-8{stroke-linejoin:round;}.cls-5{stroke-width:2px;}.cls-7{fill:#fff;}.cls-10,.cls-11,.cls-9{stroke-dasharray:1 2;}.cls-10{stroke-width:0.5px;}.cls-11{stroke-width:0.25px;}</style></defs><g id="Layer_2" data-name="Layer 2"><rect class="cls-1" x="102.93" y="73.69" width="85.49" height="4.43"/><path class="cls-1" d="M188.42,114.92H102.93V79.29h85.49Zm-47.5-31.71h-16.2v19.58h16.2Zm-17.25,0H107.46v19.58h16.21Zm34.84,0H142.3v19.58h16.21Zm17.72,0H160v19.58h16.21Zm.18,31.72V105H107.46v9.37m79.91.46V105.1h-10v9.77"/><line class="cls-2" x1="273.84" y1="86.63" x2="282.66" y2="86.63"/><line class="cls-2" x1="287.39" y1="86.63" x2="296.21" y2="86.63"/><line class="cls-2" x1="273.84" y1="72.32" x2="282.66" y2="72.32"/><line class="cls-2" x1="287.39" y1="72.32" x2="296.21" y2="72.32"/><line class="cls-2" x1="273.84" y1="57.85" x2="282.66" y2="57.85"/><line class="cls-2" x1="287.39" y1="57.85" x2="296.21" y2="57.85"/><path class="cls-1" d="M269.17,47.24h32.49v67.9H269.17Zm13.47,33.25h-8.82V92.54h8.82Zm13.55,0h-8.82V92.54h8.82Zm-13.55-14.3h-8.82v12h8.82Zm13.55,0h-8.82v12h8.82ZM282.64,51.72h-8.82V63.77h8.82Zm13.55,0h-8.82V63.77h8.82ZM291.79,98H278.24v17.19h13.55Z"/><path class="cls-1" d="M268,115.14H214.87V5.29H268Zm-37.7-34.65H221.5V92.54h8.82Zm-8.8,6.14h8.82m15.32-6.14h-8.82V92.54h8.82Zm-8.8,6.14h8.82M261,80.49h-8.82V92.54H261Zm-8.79,6.14H261m-30.7-22.86H221.5v12h8.82Zm-8.8,6.14h8.82m15.32-6.14h-8.82v12h8.82Zm-8.8,6.14h8.82M261,63.77h-8.82v12H261Zm-8.79,6.14H261m-30.7-22.67H221.5v12h8.82Zm-8.8,6.13h8.82m15.32-6.13h-8.82v12h8.82Zm-8.8,6.13h8.82M261,47.24h-8.82v12H261Zm-8.79,6.13H261m-30.7-23.14H221.5V42.28h8.82Zm-8.8,6.13h0Zm24.14-6.13h-8.82V42.28h8.82Zm-8.8,6.13h8.82M261,30.23h-8.82V42.28H261Zm-8.79,6.13H261M230.32,13.5H221.5V25.55h8.82Zm-8.8,6.14h0Zm24.14-6.14h-8.82V25.55h8.82Zm-8.8,6.14h8.82M261,13.5h-8.82V25.55H261Zm-8.79,6.14H261M248.22,98H234.67v17.19h13.55Z"/><rect class="cls-1" x="275.2" y="37.32" width="19.26" height="9.92"/><path class="cls-3" d="M34.36,175.89h.15a8.87,8.87,0,0,0,2.68-.33,3.16,3.16,0,0,0,1.49-.91,2.33,2.33,0,0,0,.53-1.61v-.39a1.92,1.92,0,0,0-.48-1.39,3.84,3.84,0,0,0-1-.78,6.68,6.68,0,0,0-1.52-.51L36,169.9a13.73,13.73,0,0,0-3.11-.29H28.06l-.54,1.14-1.21,3.6,1.31.36c.87.24,1.91.49,3.11.76a16.05,16.05,0,0,0,3.63.42"/><path class="cls-3" d="M31.11,165.14l.23-.06a7.71,7.71,0,0,0,1.51-.51,3.94,3.94,0,0,0,1-.79,1.9,1.9,0,0,0,.48-1.38V162a2.3,2.3,0,0,0-.52-1.6,3.26,3.26,0,0,0-1.5-.92,8.82,8.82,0,0,0-2.68-.33h-.14a16.14,16.14,0,0,0-3.64.42c-1.19.27-2.23.53-3.11.76l-1.31.37,1.21,3.59.55,1.14H28a13.73,13.73,0,0,0,3.11-.29"/><path class="cls-3" d="M19.42,172.4a4.53,4.53,0,0,0,1.23.54l.15.05c.66.2,1.38.38,2.18.55l1.21.25,1.11-2.69.4-1.8-1.27-.37a9.33,9.33,0,0,0-2.54-.36h-.37a4.47,4.47,0,0,0-1.41.18,5.84,5.84,0,0,0-.85.33,3.39,3.39,0,0,0-.69.47h0a1.16,1.16,0,0,0-.36.92v.05a1.69,1.69,0,0,0,.4,1.12,4,4,0,0,0,.81.75"/><path class="cls-3" d="M14.41,166a7.47,7.47,0,0,0,.85.32,4.19,4.19,0,0,0,1.42.19H17a9.24,9.24,0,0,0,2.54-.37l1.28-.37-.41-1.8-1.11-2.68-1.21.25c-.79.16-1.52.35-2.18.55l-.14.05a3.88,3.88,0,0,0-1.23.54,3.73,3.73,0,0,0-.81.74,1.66,1.66,0,0,0-.41,1.12v.06a1.15,1.15,0,0,0,.37.91v0a3.49,3.49,0,0,0,.68.47"/><path class="cls-3" d="M87.59,168.75l.13,0a7.25,7.25,0,0,0,2.41-.83,2.22,2.22,0,0,0,1-1.16,2.11,2.11,0,0,0-.24-1.64l-.18-.37a2.63,2.63,0,0,0-1.11-1.23,5.13,5.13,0,0,0-1.34-.55,8.68,8.68,0,0,0-1.68-.19l-.24,0a13.46,13.46,0,0,0-3.1.33l-4.57.93v1.19l.51,3.66,1.42.1c.94.05,2,.09,3.32.12a16.16,16.16,0,0,0,3.66-.31"/><path class="cls-3" d="M79.51,159.13l.18-.11a5.06,5.06,0,0,0,1.21-.78,2.49,2.49,0,0,0,.62-1,1.76,1.76,0,0,0-.18-1.41l-.18-.38a3.27,3.27,0,0,0-1.25-1.43,4.39,4.39,0,0,0-1.85-.58,9,9,0,0,0-2.71.21l-.13,0a13.93,13.93,0,0,0-3.28,1.11c-1,.49-1.89.93-2.61,1.33l-1.09.6,2.82,3.2,1,1,4.57-.93a11.61,11.61,0,0,0,2.83-.88"/><path class="cls-3" d="M71.72,168.32a5.42,5.42,0,0,0,1.42.27l.16,0c.72.07,1.5.1,2.33.11H76.9l-.18-2.78-.45-1.8-1.38-.1a9.23,9.23,0,0,0-2.6.15l-.34.07a3.48,3.48,0,0,0-1.27.45,4.8,4.8,0,0,0-.66.47,2.2,2.2,0,0,0-.43.59h0a1,1,0,0,0,.08.94l0,.05a2.35,2.35,0,0,0,.9,1,6.07,6.07,0,0,0,1.12.55"/><path class="cls-3" d="M64,163.16c.25.05.57.1,1,.14a4.33,4.33,0,0,0,1.43-.1l.35-.07a7.41,7.41,0,0,0,2.26-.84l1-.6-1.22-1.64-2.3-2.34-1,.47a19.29,19.29,0,0,0-1.83.95l-.11.08a2.77,2.77,0,0,0-.92.75,2.57,2.57,0,0,0-.43.86,1.54,1.54,0,0,0,.14,1.15l0,.05a1.65,1.65,0,0,0,.77.81h0a5,5,0,0,0,.87.32"/><path class="cls-3" d="M138,162.51l.13,0a7.41,7.41,0,0,0,2.42-.83,2.27,2.27,0,0,0,1-1.16,2.17,2.17,0,0,0-.25-1.64l-.18-.37a2.62,2.62,0,0,0-1.1-1.23,5.33,5.33,0,0,0-1.35-.55,8.68,8.68,0,0,0-1.68-.19l-.24,0a13.46,13.46,0,0,0-3.1.33l-4.57.93v1.19l.51,3.66,1.42.1c.95.05,2.05.09,3.32.12a16.16,16.16,0,0,0,3.66-.31"/><path class="cls-3" d="M129.87,152.89l.18-.11a4.86,4.86,0,0,0,1.21-.78,2.53,2.53,0,0,0,.62-.94,1.71,1.71,0,0,0-.18-1.42l-.18-.38a3.31,3.31,0,0,0-1.24-1.43,4.43,4.43,0,0,0-1.85-.58,9,9,0,0,0-2.72.21l-.13,0a13.26,13.26,0,0,0-3.27,1.1c-1,.49-1.89.93-2.62,1.33l-1.08.6,2.82,3.2,1,1,4.57-.93a11.61,11.61,0,0,0,2.83-.88"/><path class="cls-3" d="M122.08,162.08a5.42,5.42,0,0,0,1.42.27l.16,0c.72.06,1.5.09,2.34.1h1.27l-.18-2.77-.45-1.8-1.39-.11a9.54,9.54,0,0,0-2.59.15l-.35.07a3.35,3.35,0,0,0-1.26.45,4.25,4.25,0,0,0-.66.47,2.38,2.38,0,0,0-.44.59h0a1,1,0,0,0,.07.94l0,.05a2.35,2.35,0,0,0,.9,1,6.07,6.07,0,0,0,1.12.55"/><path class="cls-3" d="M114.32,156.92a8.39,8.39,0,0,0,1,.14,4.41,4.41,0,0,0,1.44-.1l.34-.07a7.31,7.31,0,0,0,2.26-.84l1.05-.6-1.22-1.64-2.31-2.34-1,.47a17.92,17.92,0,0,0-1.82.95l-.11.08a2.94,2.94,0,0,0-.93.75,2.89,2.89,0,0,0-.43.86,1.56,1.56,0,0,0,.14,1.16l0,0a1.67,1.67,0,0,0,.77.8h0a5,5,0,0,0,.87.32"/><path class="cls-3" d="M185.26,160.49h.14a9.14,9.14,0,0,0,2.7-.3,3.37,3.37,0,0,0,1.52-.9,2.37,2.37,0,0,0,.56-1.6v-.39a1.83,1.83,0,0,0-.45-1.39,3.56,3.56,0,0,0-1-.8,6.55,6.55,0,0,0-1.5-.52l-.22-.07a13.4,13.4,0,0,0-3.1-.32l-4.78-.06-.58,1.14-1.3,3.58,1.3.38c.87.24,1.9.51,3.09.79a16.54,16.54,0,0,0,3.62.46"/><path class="cls-3" d="M182.29,149.71l.22-.07a7.46,7.46,0,0,0,1.53-.49,3.93,3.93,0,0,0,1.05-.77,1.92,1.92,0,0,0,.52-1.38v-.4a2.28,2.28,0,0,0-.48-1.61,3.16,3.16,0,0,0-1.47-.93,9,9,0,0,0-2.68-.36h-.14a16.14,16.14,0,0,0-3.64.38c-1.21.26-2.25.5-3.13.72l-1.32.36,1.11,3.6.52,1.15,4.78.05a14.21,14.21,0,0,0,3.12-.25"/><path class="cls-3" d="M170.41,156.83a4.14,4.14,0,0,0,1.22.55l.14.06c.66.21,1.38.4,2.17.57l1.2.26,1.18-2.67.45-1.8-1.26-.38A9.25,9.25,0,0,0,173,153h-.37a4.55,4.55,0,0,0-1.41.16,7,7,0,0,0-.86.32,3.17,3.17,0,0,0-.7.47h0a1.14,1.14,0,0,0-.39.91v0a1.67,1.67,0,0,0,.38,1.13,3.65,3.65,0,0,0,.78.75"/><path class="cls-3" d="M165.57,150.35a6.14,6.14,0,0,0,.84.33,4.14,4.14,0,0,0,1.41.2h.36a9.44,9.44,0,0,0,2.56-.34l1.28-.35-.36-1.81-1-2.69-1.22.23c-.79.16-1.53.33-2.19.53l-.14,0a4.46,4.46,0,0,0-1.25.52,4,4,0,0,0-.83.74,1.71,1.71,0,0,0-.43,1.12v.05a1.12,1.12,0,0,0,.34.92h0a3.54,3.54,0,0,0,.67.48"/><path class="cls-3" d="M231.58,167.41l.13,0a9.38,9.38,0,0,0,2.71.23,4.33,4.33,0,0,0,1.86-.57,3.35,3.35,0,0,0,1.27-1.42l.19-.37a1.82,1.82,0,0,0,.21-1.42,2.55,2.55,0,0,0-.61-.95,5,5,0,0,0-1.19-.79L236,162a11.7,11.7,0,0,0-2.82-.9l-4.54-1-1.07,1-2.88,3.17,1.07.61c.72.4,1.58.85,2.59,1.35a13.24,13.24,0,0,0,3.26,1.13"/><path class="cls-3" d="M233.65,156.54l.24,0a8.24,8.24,0,0,0,1.69-.17,5.67,5.67,0,0,0,1.35-.54,2.69,2.69,0,0,0,1.13-1.22l.19-.38a2.12,2.12,0,0,0,.27-1.63,2.15,2.15,0,0,0-1-1.17,7.3,7.3,0,0,0-2.39-.85l-.14,0a16,16,0,0,0-3.65-.33c-1.27,0-2.38,0-3.32.09l-1.42.08L226,154l0,1.19,4.55,1a13.54,13.54,0,0,0,3.09.35"/><path class="cls-3" d="M219.05,161.08a3,3,0,0,0,.92.76l.11.08a19.87,19.87,0,0,0,1.81,1l1,.48,2.34-2.32,1.25-1.64-1-.6a7.6,7.6,0,0,0-2.24-.86l-.35-.08a5,5,0,0,0-1.43-.11c-.39,0-.71.09-1,.14a4.69,4.69,0,0,0-.88.31h0a1.64,1.64,0,0,0-.78.8l0,.05a1.51,1.51,0,0,0-.15,1.15,2.69,2.69,0,0,0,.4.87"/><path class="cls-3" d="M217.39,154a4.77,4.77,0,0,0,.65.48,3.53,3.53,0,0,0,1.25.46l.35.07a9.5,9.5,0,0,0,2.59.17l1.39-.09.48-1.8.23-2.77h-1.27c-.83,0-1.61,0-2.34.08l-.16,0a5.42,5.42,0,0,0-1.42.27,5.49,5.49,0,0,0-1.13.54,2.37,2.37,0,0,0-.92,1l0,0a1,1,0,0,0-.09.94h0a2,2,0,0,0,.43.59"/><path class="cls-3" d="M281.94,172.92l.13,0a9.06,9.06,0,0,0,2.71.23,4.33,4.33,0,0,0,1.86-.57,3.23,3.23,0,0,0,1.27-1.42l.19-.37a1.74,1.74,0,0,0,.21-1.42,2.76,2.76,0,0,0-.6-1,5.27,5.27,0,0,0-1.2-.79l-.18-.11a11.75,11.75,0,0,0-2.81-.9l-4.55-1-1.07,1L275,169.83l1.08.62c.71.4,1.58.84,2.59,1.34a13.17,13.17,0,0,0,3.25,1.13"/><path class="cls-3" d="M284,162.05h.24a8.78,8.78,0,0,0,1.68-.18,5.2,5.2,0,0,0,1.36-.54,2.73,2.73,0,0,0,1.12-1.22l.19-.37a1.9,1.9,0,0,0-.7-2.81,7.71,7.71,0,0,0-2.4-.85l-.13,0a16.62,16.62,0,0,0-3.66-.33c-1.27,0-2.37,0-3.32.09l-1.42.08-.58,3.67,0,1.19,4.55,1a13.08,13.08,0,0,0,3.1.35"/><path class="cls-3" d="M269.42,166.59a3,3,0,0,0,.91.76l.11.08a19.87,19.87,0,0,0,1.81,1l1,.48,2.34-2.32,1.25-1.64-1-.6a7.49,7.49,0,0,0-2.24-.86l-.35-.07a4.37,4.37,0,0,0-1.43-.11,6.63,6.63,0,0,0-1,.14,4.17,4.17,0,0,0-.88.3v0a1.6,1.6,0,0,0-.79.79l0,0a1.51,1.51,0,0,0-.16,1.15,2.5,2.5,0,0,0,.41.87"/><path class="cls-3" d="M267.75,159.47a4.06,4.06,0,0,0,.65.48,3.53,3.53,0,0,0,1.25.46l.35.08a9.53,9.53,0,0,0,2.59.16l1.39-.09.48-1.8.23-2.77h-1.27c-.83,0-1.61,0-2.33.09l-.16,0a5.16,5.16,0,0,0-1.43.26,5.49,5.49,0,0,0-1.13.54,2.5,2.5,0,0,0-.92,1l0,.05a1,1,0,0,0-.09.94v0a2.3,2.3,0,0,0,.43.58"/><path class="cls-3" d="M335.7,173.57h.15a9.39,9.39,0,0,0,2.71-.2,3.64,3.64,0,0,0,1.59-.84,2.5,2.5,0,0,0,.71-1.58l0-.39a1.78,1.78,0,0,0-.33-1.41,3.47,3.47,0,0,0-.94-.83,6.86,6.86,0,0,0-1.45-.58l-.22-.08a13.82,13.82,0,0,0-3.06-.43l-4.78-.22-.67,1.11-1.61,3.53,1.27.42c.85.28,1.85.58,3,.91a15.56,15.56,0,0,0,3.57.58"/><path class="cls-3" d="M333.66,162.7l.23,0a8.61,8.61,0,0,0,1.57-.44,4.13,4.13,0,0,0,1.11-.74,2,2,0,0,0,.64-1.36l0-.39a2.19,2.19,0,0,0-.34-1.63,3,3,0,0,0-1.39-1,8.64,8.64,0,0,0-2.64-.45h-.14a16.92,16.92,0,0,0-3.67.25c-1.23.21-2.29.42-3.19.61l-1.35.31.81,3.64.42,1.16,4.77.22a13.5,13.5,0,0,0,3.13-.14"/><path class="cls-3" d="M321.19,169.39a3.93,3.93,0,0,0,1.17.59l.14.06c.63.23,1.34.45,2.11.65l1.18.31,1.41-2.62.6-1.79-1.23-.42a9,9,0,0,0-2.49-.48l-.37,0a4.33,4.33,0,0,0-1.43.12,7.15,7.15,0,0,0-.88.28,4.07,4.07,0,0,0-.74.44h0a1.24,1.24,0,0,0-.46.9v.05a1.61,1.61,0,0,0,.28,1.14,3.4,3.4,0,0,0,.72.78"/><path class="cls-3" d="M316.92,162.74a5.64,5.64,0,0,0,.8.37,4.33,4.33,0,0,0,1.39.25h.37a9.45,9.45,0,0,0,2.57-.24l1.31-.31-.2-1.82-.81-2.72-1.23.19c-.81.13-1.56.27-2.24.44l-.15.05a4.65,4.65,0,0,0-1.28.48,4,4,0,0,0-.89.7,1.76,1.76,0,0,0-.53,1.1v.06a1.12,1.12,0,0,0,.26.93h0a2.73,2.73,0,0,0,.64.5"/><path class="cls-3" d="M387,172.74h.15a8.41,8.41,0,0,0,2.63-.48,2.86,2.86,0,0,0,1.36-1,2.19,2.19,0,0,0,.31-1.63l0-.39a2.06,2.06,0,0,0-.67-1.36,4,4,0,0,0-1.13-.72,7.76,7.76,0,0,0-1.57-.43l-.23,0a13.83,13.83,0,0,0-3.14-.11l-4.77.26-.39,1.17-.73,3.65,1.36.29c.9.18,2,.38,3.2.58a16.92,16.92,0,0,0,3.67.22"/><path class="cls-3" d="M382.35,162.21l.21-.08a6.91,6.91,0,0,0,1.44-.59,3.16,3.16,0,0,0,.92-.84,1.79,1.79,0,0,0,.3-1.41l-.05-.39a2.5,2.5,0,0,0-.74-1.57,3.56,3.56,0,0,0-1.61-.83,9.21,9.21,0,0,0-2.72-.18H380a16.1,16.1,0,0,0-3.56.62q-1.74.51-3,.93l-1.26.44,1.69,3.51.69,1.11,4.77-.27a13.59,13.59,0,0,0,3.06-.46"/><path class="cls-3" d="M371.66,170.09a4.86,4.86,0,0,0,1.3.47l.15,0c.68.16,1.43.3,2.25.43l1.24.18.75-2.74.16-1.82-1.32-.29a9.08,9.08,0,0,0-2.58-.22l-.36,0a4.29,4.29,0,0,0-1.39.26,5.64,5.64,0,0,0-.8.37,2.73,2.73,0,0,0-.62.51h0a1.09,1.09,0,0,0-.24.93v0a1.82,1.82,0,0,0,.55,1.1,5,5,0,0,0,.9.7"/><path class="cls-3" d="M365.82,164c.23.09.53.18.89.28a4.67,4.67,0,0,0,1.43.1l.36,0a8.89,8.89,0,0,0,2.49-.5l1.22-.44-.64-1.78L370.1,159l-1.17.31c-.77.21-1.47.43-2.1.67l-.13.06a3.94,3.94,0,0,0-1.16.6,3.38,3.38,0,0,0-.7.79,1.55,1.55,0,0,0-.26,1.14v.05a1.25,1.25,0,0,0,.48.9h0a3.72,3.72,0,0,0,.75.43"/><path class="cls-3" d="M428.11,165.91h.14a8.85,8.85,0,0,0,2.71-.24,3.43,3.43,0,0,0,1.57-.86,2.47,2.47,0,0,0,.65-1.59l0-.39a1.83,1.83,0,0,0-.37-1.4,3.51,3.51,0,0,0-1-.82,6.89,6.89,0,0,0-1.47-.56l-.22-.07a13.18,13.18,0,0,0-3.08-.39l-4.78-.16-.64,1.11-1.49,3.55,1.28.41c.86.27,1.87.56,3,.86a15.67,15.67,0,0,0,3.59.54"/><path class="cls-3" d="M425.72,155.07l.22-.06a7.49,7.49,0,0,0,1.56-.45,4.62,4.62,0,0,0,1.09-.75,2,2,0,0,0,.59-1.37l0-.39a2.28,2.28,0,0,0-.39-1.63,3.13,3.13,0,0,0-1.42-1,8.9,8.9,0,0,0-2.66-.42h-.14a16.25,16.25,0,0,0-3.66.3c-1.22.23-2.28.44-3.17.65l-1.34.32.93,3.63.45,1.16,4.78.16a13.65,13.65,0,0,0,3.13-.19"/><path class="cls-3" d="M413.47,161.93a4.23,4.23,0,0,0,1.19.58l.13.05a22.16,22.16,0,0,0,2.14.62l1.19.29,1.32-2.64L420,159l-1.24-.4a8.35,8.35,0,0,0-2.51-.45l-.36,0a4.51,4.51,0,0,0-1.43.14,6.12,6.12,0,0,0-.87.3,3.33,3.33,0,0,0-.72.45h0a1.19,1.19,0,0,0-.44.9V160a1.6,1.6,0,0,0,.31,1.14,3.67,3.67,0,0,0,.75.77"/><path class="cls-3" d="M409,155.34a5.73,5.73,0,0,0,.82.35,4.13,4.13,0,0,0,1.39.23l.37,0a9.92,9.92,0,0,0,2.57-.28l1.3-.33-.26-1.81-.9-2.72L413,151q-1.21.21-2.22.48l-.15,0a4.69,4.69,0,0,0-1.27.5,4.05,4.05,0,0,0-.87.72,1.77,1.77,0,0,0-.49,1.11v0a1.07,1.07,0,0,0,.29.92v0a3,3,0,0,0,.65.49"/><path class="cls-3" d="M475.16,154.14l.13,0a8.91,8.91,0,0,0,2.54-1,3.44,3.44,0,0,0,1.26-1.26,2.47,2.47,0,0,0,.19-1.71l-.08-.38a1.82,1.82,0,0,0-.75-1.24,3.41,3.41,0,0,0-1.16-.52,7.19,7.19,0,0,0-1.56-.13h-.23a13.86,13.86,0,0,0-3.07.48l-4.64,1.17-.3,1.25L467,154.6l1.35,0c.89,0,1.95,0,3.16,0a15.61,15.61,0,0,0,3.61-.48"/><path class="cls-3" d="M469.85,144.39l.2-.12a7.33,7.33,0,0,0,1.36-.87,3.78,3.78,0,0,0,.84-1,1.94,1.94,0,0,0,.19-1.47l-.08-.39a2.21,2.21,0,0,0-.83-1.45,3.06,3.06,0,0,0-1.63-.53,8.61,8.61,0,0,0-2.67.34l-.13,0a16.52,16.52,0,0,0-3.44,1.3c-1.11.56-2.06,1.07-2.86,1.51l-1.2.68,1.9,3.23.76,1,4.63-1.18a13.83,13.83,0,0,0,3-1"/><path class="cls-3" d="M460,154.38a4.27,4.27,0,0,0,1.3.22l.15,0q1,0,2.22,0l1.23-.05.53-2.9,0-1.87-1.31-.05a8.89,8.89,0,0,0-2.53.26l-.36.09a4.58,4.58,0,0,0-1.33.53,6.57,6.57,0,0,0-.75.53,3,3,0,0,0-.57.63h0a1.22,1.22,0,0,0-.17,1v.05a1.62,1.62,0,0,0,.62,1,3.73,3.73,0,0,0,.93.54"/><path class="cls-3" d="M453.84,149.29a7,7,0,0,0,.88.12,4.61,4.61,0,0,0,1.41-.17l.35-.09a9.64,9.64,0,0,0,2.39-1l1.16-.68-.75-1.67-1.62-2.36-1.12.55c-.74.35-1.4.71-2,1.07l-.13.08a5,5,0,0,0-1.09.83,4.72,4.72,0,0,0-.63.93,1.74,1.74,0,0,0-.16,1.21v.05a1.12,1.12,0,0,0,.53.81h0a3.16,3.16,0,0,0,.76.29"/><path class="cls-1" d="M439.56,115.05H327.29V62.43H439.56ZM378.7,98H350.55v17.1H378.7ZM342.33,68.44H332.1V78.83h10.23Zm0,14.72H332.1V93.54h10.23Zm0,14.71H332.1v10.39h10.23Zm54.55-29.43H386.65V78.83h10.23Zm0,14.72H386.65V93.54h10.23Zm0,14.71H386.65v10.39h10.23Zm18.19-29.43H404.83V78.83h10.24Zm0,14.72H404.83V93.54h10.24Zm0,14.71H404.83v10.39h10.24Zm18.18-29.43H423V78.83h10.23Zm0,14.72H423V93.54h10.23Zm0,14.71H423v10.39h10.23ZM360.52,68.44H350.28V78.83h10.24Zm0,14.72H350.28V93.54h10.24ZM378.7,68.44H368.47V78.83H378.7Zm0,14.72H368.47V93.54H378.7Z"/><line class="cls-2" x1="10.16" y1="115.44" x2="561.06" y2="115.44"/><path class="cls-4" d="M325.7,96.27a.69.69,0,1,0-.7-1.2l-1.68,1V94.18a.7.7,0,1,0-1.39,0v4.68l-3.86-2.22a.69.69,0,1,0-.69,1.2l4.55,2.62v3l.31,0H323l.31,0V97.64Z"/><path class="cls-1" d="M322.63,103.52h-.39l-.31,0h0v11.23a.7.7,0,0,0,1.39,0V103.49h0l-.31,0Z"/><path class="cls-1" d="M307.65,103.54c-.24,0-.47,0-.7,0v11.23a.7.7,0,1,0,1.39,0V103.51Q308,103.54,307.65,103.54Z"/><path class="cls-1" d="M322.63,84.58a9.47,9.47,0,0,0-.7,18.91v-3l-4.55-2.62a.69.69,0,0,1,.69-1.2l3.86,2.22V94.18a.7.7,0,1,1,1.39,0V96l1.69-1a.69.69,0,0,1,.95.25.7.7,0,0,1-.26,1l-2.38,1.37v5.85a9.47,9.47,0,0,0-.69-18.91Z"/><path class="cls-1" d="M310.72,96.29l-2.38,1.38v5.82a9.45,9.45,0,0,0,5.71-2.47A11,11,0,0,1,316,85.2c-1.6-8.47-4.73-19.32-8.33-19.32-5.23,0-9.47,22.93-9.47,28.16a9.48,9.48,0,0,0,8.77,9.45v-3l-4.55-2.62a.7.7,0,0,1,.7-1.21L307,98.88V94.2a.7.7,0,0,1,1.39,0v1.86l1.69-1a.69.69,0,1,1,.69,1.2Z"/><path class="cls-4" d="M17,96.41v6.25l.33,0h.82l.33,0V99.43l4.87-2.8a.74.74,0,0,0-.74-1.29l-4.13,2.37v-5a.74.74,0,1,0-1.48,0v2l-1.8-1a.75.75,0,0,0-1,.27.76.76,0,0,0,.27,1Z"/><path class="cls-1" d="M17.29,102.68l-.33,0h0v12a.74.74,0,1,0,1.48,0v-12h0l-.33,0h-.82Z"/><path class="cls-1" d="M33,102.69v12a.75.75,0,0,0,.74.75.76.76,0,0,0,.75-.75v-12q-.37,0-.75,0C33.46,102.72,33.22,102.71,33,102.69Z"/><path class="cls-1" d="M7.57,92.57A10.12,10.12,0,0,0,17,102.66V96.41L14.41,95a.76.76,0,0,1-.27-1,.75.75,0,0,1,1-.27l1.8,1v-2a.74.74,0,1,1,1.48,0v5l4.13-2.37a.74.74,0,0,1,.74,1.29l-4.87,2.8v3.23A10.12,10.12,0,1,0,7.57,92.57Z"/><path class="cls-1" d="M30.16,94a.74.74,0,0,1,1-.28l1.8,1v-2a.74.74,0,0,1,.74-.74.75.75,0,0,1,.75.74v5l4.12-2.37a.74.74,0,1,1,.74,1.28l-4.86,2.81v3.2a10.12,10.12,0,0,0,9.38-10.1c0-5.59-4.53-30.11-10.13-30.11-3.84,0-7.19,11.6-8.9,20.66A11.78,11.78,0,0,1,26.88,100,10.05,10.05,0,0,0,33,102.66V96.44L30.43,95A.73.73,0,0,1,30.16,94Z"/><path class="cls-4" d="M94.51,88.6a1,1,0,0,0,.35-1.33,1,1,0,0,0-1.33-.36l-2.35,1.36V85.66a1,1,0,0,0-2,0v6.56l-5.41-3.11a1,1,0,1,0-1,1.69l6.38,3.67v4.24l.43,0h1.08l.44,0V90.52Z"/><path class="cls-1" d="M90.2,98.75h-.54l-.43,0h0l.27,0-.27,0v15.73a1,1,0,0,0,2,0V98.71l-.27,0,.27,0h0l-.44,0Z"/><path class="cls-1" d="M90.2,72.21a13.27,13.27,0,0,0-1,26.5V94.47L82.85,90.8a1,1,0,0,1,1-1.69l5.4,3.11V85.66a1,1,0,0,1,2,0v2.61l2.36-1.36a1,1,0,0,1,1,1.69l-3.33,1.92v8.19a13.27,13.27,0,0,0-1-26.5Z"/><path class="cls-4" d="M557.93,92.82a.82.82,0,0,0-.82-1.42l-2,1.15v-2.2a.83.83,0,0,0-1.65,0v5.53l-4.55-2.63a.82.82,0,0,0-.82,1.43l5.37,3.09v3.57l.37,0h.91l.37,0v-6.9Z"/><path class="cls-1" d="M554.31,101.37h-.46l-.36,0h0v13.25a.82.82,0,1,0,1.64,0V101.34h0l-.37,0Z"/><path class="cls-1" d="M554.31,79a11.18,11.18,0,0,0-.82,22.33V97.77l-5.38-3.09a.82.82,0,0,1,.82-1.43l4.56,2.63V90.35a.82.82,0,1,1,1.64,0v2.19l2-1.14a.82.82,0,1,1,.83,1.42l-2.81,1.62v6.9A11.18,11.18,0,0,0,554.31,79Z"/><path class="cls-1" d="M461.54,68.9l11.51,10.38V74.37h5.48v40.21h-21V101.37H450.4v13h-5.1V85.13Zm-4,17.74H450v7.93h7.55Zm15.29.19H462.67v7.74h10.19Zm.38,14.73H461.91v7.93h11.33Z"/><line class="cls-5" x1="29.97" y1="233.27" x2="29.97" y2="181.75"/><rect class="cls-6" x="29.97" y="216.64" width="31.49" height="17.13"/><path class="cls-7" d="M32.55,228.28v-1.11h1.62v-4.42h0a1.94,1.94,0,0,1-.33.4l-.6.54-.79-.8,1.86-1.71h1.19v6h1.62v1.11Z"/><path class="cls-7" d="M41.93,228.12a2.8,2.8,0,0,1-1.27.28,2.84,2.84,0,0,1-1.28-.28,2.09,2.09,0,0,1-.84-.8,4.36,4.36,0,0,1-.44-1.16,7,7,0,0,1-.14-1.44q0-3.66,2.7-3.66a2.72,2.72,0,0,1,1.28.28,2.13,2.13,0,0,1,.84.79,3.77,3.77,0,0,1,.44,1.15,6.25,6.25,0,0,1,.15,1.44,6.37,6.37,0,0,1-.15,1.44,4,4,0,0,1-.44,1.16A2.18,2.18,0,0,1,41.93,228.12Zm-1.27-.9c.87,0,1.31-.84,1.31-2.5s-.44-2.47-1.31-2.47-1.32.82-1.32,2.47S39.78,227.22,40.66,227.22Z"/><path class="cls-7" d="M44.82,224.45v-1.27h1.32v1.27Zm0,3.83V227h1.32v1.27Z"/><path class="cls-7" d="M47.28,226.45v-.79l3.21-4.48H52.1v4.2h1v1.07h-1v1.83H50.77v-1.83Zm1.43-1.07h2.06v-2.2l0-.74h0a3.08,3.08,0,0,1-.37.65l-1.72,2.27Z"/><path class="cls-7" d="M54.1,228.28a4.57,4.57,0,0,1-.07-.63,2.4,2.4,0,0,1,.2-1,2.61,2.61,0,0,1,.5-.78,4.85,4.85,0,0,1,.67-.6c.25-.19.5-.36.75-.52s.47-.32.68-.47a2.63,2.63,0,0,0,.5-.5,1,1,0,0,0,.19-.54.88.88,0,0,0-.33-.72,1.19,1.19,0,0,0-.8-.27,1.56,1.56,0,0,0-.48.08,1.51,1.51,0,0,0-.38.21l-.27.25-.17.22-.05.08-1-.64.09-.16a2.27,2.27,0,0,1,.27-.34,3.2,3.2,0,0,1,.47-.43,3,3,0,0,1,.7-.34,2.89,2.89,0,0,1,.94-.15,2.7,2.7,0,0,1,1.73.56,1.9,1.9,0,0,1,.7,1.54,2.14,2.14,0,0,1-.25,1,2.44,2.44,0,0,1-.62.76c-.25.21-.52.41-.81.61s-.56.37-.81.52a2.9,2.9,0,0,0-.62.52.94.94,0,0,0-.26.61H59v1.11Z"/><circle class="cls-3" cx="43.92" cy="145.74" r="6.11"/><path class="cls-7" d="M40.81,148.32a.37.37,0,0,0,.53.06h0l2.32-1.85v3.11a.37.37,0,0,0,.59.31l2.69-1.75a.39.39,0,0,0,.11-.53l-.09-.09-2.31-1.84L47,143.89a.36.36,0,0,0,.06-.53.34.34,0,0,0-.08-.09l-2.69-1.75a.39.39,0,0,0-.59.32V145l-2.32-1.86a.38.38,0,0,0-.53.06.37.37,0,0,0,.06.53h0l2.57,2.06-2.57,2A.37.37,0,0,0,40.81,148.32Zm3.61-5.78,1.66,1.08L44.42,145Zm0,4,1.66,1.32-1.66,1.08Z"/><circle class="cls-3" cx="247.78" cy="146.8" r="6.11"/><path class="cls-7" d="M244.68,149.39a.38.38,0,0,0,.53.06h0l2.32-1.85v3.1a.38.38,0,0,0,.38.38.37.37,0,0,0,.21-.06l2.68-1.75a.38.38,0,0,0,.11-.53l-.08-.09-2.31-1.85,2.31-1.84a.38.38,0,0,0,.06-.54.24.24,0,0,0-.09-.08l-2.68-1.75a.38.38,0,0,0-.53.11.37.37,0,0,0-.06.21V146l-2.32-1.85a.38.38,0,0,0-.48.59h0l2.57,2.05-2.57,2.06A.37.37,0,0,0,244.68,149.39Zm3.61-5.78,1.66,1.08L248.29,146Zm0,4,1.66,1.32L248.29,150Z"/><circle class="cls-3" cx="381.4" cy="145.09" r="6.11"/><path class="cls-7" d="M378.29,147.68a.38.38,0,0,0,.53.06h0l2.32-1.86V149a.38.38,0,0,0,.38.38.37.37,0,0,0,.21-.06l2.68-1.76a.37.37,0,0,0,.11-.52.18.18,0,0,0-.08-.09l-2.31-1.85,2.31-1.85a.37.37,0,0,0,.06-.53.24.24,0,0,0-.09-.08l-2.68-1.76a.38.38,0,0,0-.52.11.35.35,0,0,0-.07.21v3.11l-2.32-1.86a.38.38,0,0,0-.47.6h0l2.56,2.05-2.56,2A.38.38,0,0,0,378.29,147.68Zm3.61-5.78,1.66,1.08-1.66,1.32Zm0,4,1.66,1.32-1.66,1.09Z"/><circle class="cls-3" cx="527" cy="85.71" r="6.11"/><path class="cls-7" d="M523.89,88.29a.36.36,0,0,0,.53.06h0l2.33-1.85v3.11a.38.38,0,0,0,.38.38.31.31,0,0,0,.2-.07L530,88.17a.39.39,0,0,0,.11-.53l-.08-.09-2.31-1.84,2.31-1.85a.38.38,0,0,0,.06-.53.32.32,0,0,0-.09-.08l-2.69-1.76a.38.38,0,0,0-.52.11.39.39,0,0,0-.06.21v3.11l-2.33-1.86a.38.38,0,0,0-.47.59h0l2.57,2L524,87.76A.38.38,0,0,0,523.89,88.29Zm3.62-5.78,1.65,1.08-1.65,1.33Zm0,4,1.65,1.32-1.65,1.08Z"/><circle class="cls-3" cx="586.95" cy="104.55" r="6.11"/><path class="cls-7" d="M583.84,107.14a.39.39,0,0,0,.54.06h0l2.32-1.86v3.11a.38.38,0,0,0,.38.38.39.39,0,0,0,.21-.06L590,107a.37.37,0,0,0,.11-.52.24.24,0,0,0-.08-.09l-2.31-1.85L590,102.7a.37.37,0,0,0,.06-.53.24.24,0,0,0-.09-.08l-2.68-1.76a.39.39,0,0,0-.53.11.42.42,0,0,0-.06.21v3.11l-2.32-1.86a.38.38,0,0,0-.48.6h0l2.57,2-2.57,2A.39.39,0,0,0,583.84,107.14Zm3.62-5.78,1.66,1.08-1.66,1.32Zm0,4,1.66,1.32-1.66,1.09Z"/><circle class="cls-3" cx="488.74" cy="97.13" r="6.11"/><path class="cls-7" d="M485.63,99.71a.37.37,0,0,0,.54.06h0l2.32-1.85V101a.38.38,0,0,0,.38.38.33.33,0,0,0,.21-.07l2.68-1.75a.37.37,0,0,0,.11-.53l-.08-.09-2.31-1.84,2.31-1.85a.38.38,0,0,0,.06-.53.32.32,0,0,0-.09-.08l-2.68-1.76a.39.39,0,0,0-.53.11.39.39,0,0,0-.06.21v3.11l-2.32-1.86a.39.39,0,0,0-.54.06.38.38,0,0,0,.06.53h0l2.57,2-2.57,2.05A.38.38,0,0,0,485.63,99.71Zm3.62-5.78L490.91,95l-1.66,1.33Zm0,4,1.65,1.32-1.65,1.08Z"/><line class="cls-5" x1="169.69" y1="233.27" x2="169.69" y2="164.98"/><rect class="cls-6" x="169.69" y="216.64" width="31.49" height="17.13"/><path class="cls-7" d="M173.51,228.28v-1.11h1.62v-4.42h0a1.94,1.94,0,0,1-.33.4l-.6.54-.79-.8,1.87-1.71h1.18v6h1.62v1.11Z"/><path class="cls-7" d="M178.89,228.28v-1.11h1.61v-3.94l0-.48h0a1.57,1.57,0,0,1-.32.4l-.6.54-.8-.8,1.87-1.71h1.19v6h1.62v1.11Z"/><path class="cls-7" d="M184.55,224.45v-1.27h1.32v1.27Zm0,3.83V227h1.32v1.27Z"/><path class="cls-7" d="M187.29,228.28v-1.11h1.61v-4.42h0a1.57,1.57,0,0,1-.32.4l-.6.54-.8-.8,1.87-1.71h1.19v6h1.61v1.11Z"/><path class="cls-7" d="M192.55,227.44l.69-1a.45.45,0,0,0,.07.07l.21.17a1.79,1.79,0,0,0,.34.22,1.75,1.75,0,0,0,.43.17,2,2,0,0,0,.54.08,1.5,1.5,0,0,0,1-.34,1.05,1.05,0,0,0,.42-.87,1.08,1.08,0,0,0-.42-.89,1.64,1.64,0,0,0-1.08-.34,2.3,2.3,0,0,0-.58.07,2.44,2.44,0,0,0-.44.15l-.13.08-.75-.26.35-3.6h3.91v1.11h-2.75l-.11,1.17,0,.33h0a1.8,1.8,0,0,1,.79-.16,2.69,2.69,0,0,1,1.92.67,2.19,2.19,0,0,1,.71,1.66,2.24,2.24,0,0,1-.76,1.74,2.73,2.73,0,0,1-1.93.7,4,4,0,0,1-.85-.1,3.2,3.2,0,0,1-.67-.24l-.47-.28-.3-.24Z"/><line class="cls-5" x1="463.65" y1="233.27" x2="463.65" y2="172.36"/><rect class="cls-6" x="463.65" y="216.64" width="31.49" height="17.13"/><path class="cls-7" d="M466.57,228.28v-1.11h1.62v-4.42h0a1.94,1.94,0,0,1-.33.4l-.6.54-.8-.8,1.87-1.71h1.19v6h1.62v1.11Z"/><path class="cls-7" d="M471.75,227.45l.69-1,.23.2a2.83,2.83,0,0,0,.58.32,2.16,2.16,0,0,0,.88.2,1.49,1.49,0,0,0,1-.3.92.92,0,0,0,.38-.76.9.9,0,0,0-.45-.82,2.09,2.09,0,0,0-1.14-.28h-.52l-.3-.66,1.36-1.54.54-.54v0a5.39,5.39,0,0,1-.66,0h-2.23v-1.11h4.56V222l-1.83,2a2.58,2.58,0,0,1,1.44.65,1.84,1.84,0,0,1,.6,1.42,2.2,2.2,0,0,1-.71,1.64,2.66,2.66,0,0,1-1.92.69,4.12,4.12,0,0,1-.86-.1,3.78,3.78,0,0,1-.7-.24l-.49-.27-.32-.24Z"/><path class="cls-7" d="M478.26,224.45v-1.27h1.32v1.27Zm0,3.83V227h1.32v1.27Z"/><path class="cls-7" d="M481,228.28c0-.31-.07-.52-.07-.63a2.4,2.4,0,0,1,.2-1,2.82,2.82,0,0,1,.5-.78,5.51,5.51,0,0,1,.67-.6c.25-.19.5-.36.75-.52s.47-.32.68-.47a2.63,2.63,0,0,0,.5-.5.89.89,0,0,0,.19-.54.9.9,0,0,0-.32-.72,1.24,1.24,0,0,0-.81-.27,1.61,1.61,0,0,0-.48.08,1.51,1.51,0,0,0-.38.21l-.27.25a1.65,1.65,0,0,0-.16.22l-.06.08-1-.64s.05-.09.09-.16a2.27,2.27,0,0,1,.27-.34,3.2,3.2,0,0,1,.47-.43,3,3,0,0,1,.7-.34,2.89,2.89,0,0,1,.94-.15,2.7,2.7,0,0,1,1.73.56,1.9,1.9,0,0,1,.7,1.54,2,2,0,0,1-.25,1,2.44,2.44,0,0,1-.62.76c-.25.21-.52.41-.81.61s-.56.37-.81.52a2.9,2.9,0,0,0-.62.52.94.94,0,0,0-.26.61H486v1.11Z"/><path class="cls-7" d="M487.06,226.22a1.69,1.69,0,0,1,.25-.89,2.53,2.53,0,0,1,.46-.62,2.71,2.71,0,0,1,.41-.32,1.69,1.69,0,0,1-.77-1.39,1.8,1.8,0,0,1,.62-1.37,2.55,2.55,0,0,1,1.78-.57,2.68,2.68,0,0,1,1.73.53,1.7,1.7,0,0,1,.68,1.44,2.62,2.62,0,0,1-.83,1.75,1.72,1.72,0,0,1,1,1.51,1.89,1.89,0,0,1-.72,1.48,2.77,2.77,0,0,1-1.91.63,2.85,2.85,0,0,1-1.92-.63A1.92,1.92,0,0,1,487.06,226.22Zm3.91,0a.73.73,0,0,0-.08-.33,1,1,0,0,0-.32-.29l-.38-.23-.54-.24-.52-.22a1.53,1.53,0,0,0-.69,1.2,1,1,0,0,0,.38.81,1.32,1.32,0,0,0,.9.33,1.36,1.36,0,0,0,.89-.29A.9.9,0,0,0,491,226.23Zm-2.22-3.2a.63.63,0,0,0,.09.33,1.46,1.46,0,0,0,.19.26,1.6,1.6,0,0,0,.35.23l.38.19.47.2.09,0,.07,0a1.71,1.71,0,0,0,.51-1.2.79.79,0,0,0-.31-.66,1.25,1.25,0,0,0-.8-.24,1.13,1.13,0,0,0-.77.23A.74.74,0,0,0,488.75,223Z"/><line class="cls-2" x1="221.52" y1="19.64" x2="230.34" y2="19.64"/><line class="cls-2" x1="236.86" y1="19.64" x2="245.68" y2="19.64"/><line class="cls-2" x1="252.21" y1="19.64" x2="261.02" y2="19.64"/><line class="cls-2" x1="221.52" y1="36.26" x2="230.34" y2="36.26"/><line class="cls-2" x1="236.86" y1="36.26" x2="245.68" y2="36.26"/><line class="cls-2" x1="252.21" y1="36.26" x2="261.02" y2="36.26"/><line class="cls-2" x1="221.52" y1="52.88" x2="230.34" y2="52.88"/><line class="cls-2" x1="236.86" y1="52.88" x2="245.68" y2="52.88"/><line class="cls-2" x1="252.21" y1="52.88" x2="261.02" y2="52.88"/><line class="cls-2" x1="221.52" y1="69.91" x2="230.34" y2="69.91"/><line class="cls-2" x1="236.86" y1="69.91" x2="245.68" y2="69.91"/><line class="cls-2" x1="252.21" y1="69.91" x2="261.02" y2="69.91"/><line class="cls-2" x1="221.52" y1="86.52" x2="230.34" y2="86.52"/><line class="cls-2" x1="236.86" y1="86.52" x2="245.68" y2="86.52"/><line class="cls-2" x1="252.21" y1="86.52" x2="261.02" y2="86.52"/><path class="cls-3" d="M195.85,129.2c.1,1.58,3.29,1.23,2.56-.51a1.79,1.79,0,0,1-2.56.51m11.27-.92c0,.43-.07,0-.21,0-.27.82-.37,1.15-.81,1.44a5.35,5.35,0,0,1,.1,1.43c1,0,1.76-.29,1.84-1.23-.6-.39-.5-1.2-.92-1.64m-9.83.51s.59-.45.51-.3c.16-.28-.26-.27.2-.31.23-.68-.14-.9-.2-1.54a11.84,11.84,0,0,0-2.36.93,1.57,1.57,0,0,0,1.85,1.22m-5.23-2.66c-.11.23-.67,0-.72.31.26.11.89,0,.72-.31m-1.43.92c.15-.28.62-.26.82-.51-.28-.26-1,.32-.82.51m2.25-1c-.1,0-.12-.08-.2-.1.31.3,1.45.32,1.64.41-.3-.3-.74-.89-1.44-.31m2.05.1a6.63,6.63,0,0,0,.31.82,9.82,9.82,0,0,0,2.35-1c-.22-1.43-1.74.15-2.66.2m-.61-.61c.31.34,1-.12,1.53-.31s1.33-.33,1.33-.72c-.83.47-2,.62-2.86,1m4-1.13c-.14,0-.19-.15-.41-.1.06.18-.12.6.1.61,0-.26.72-.8.21-.61.06,0,.12,0,.1.1M186.94,126a8,8,0,0,0-1.13-2.66c.4.86.51,2,1.13,2.66m-.82-3c.09.53.38,1.16.62,1.23-.2.5.34,1.15.51,1.64a3.55,3.55,0,0,1,2.76.51c.22-.16.57-.18.62-.51-.32-.26-.57-.07-.72-.11.12,0,.16-.11.21-.2-1.93-1.13-2.31-1.5-4-2.56m13.62,0a1,1,0,0,1-.51.82,5.09,5.09,0,0,0,2.46-1.33c.7-.71,2.33-1.78,1.74-2.77-1.12,1.2-1.85,2.79-3.69,3.28m9.74-5.94c-.35,0-.45.24-.62.41.46,1.07.27,2.28.51,3.58s1.08,2.6,1.33,4.1c.12.66.05,1.26.21,1.84.08.3.36.62.41.93.23,1.31-.07,2.69.1,4.09-1.85.45-4.08,1.14-5.43,0-.77,0-1.77.14-2.25-.2-1.05.29-3.63.56-3.59-1.13,1.48-.22,2.62-.46,3.08-1.84,0-.32-.22-.46-.31-.72.89-1.69,0-4.6.51-6.25-.75.37-.71.93-1.53,1.54-1.24.92-3.6.76-3.69,2.35-.06,1,.95,2,.92,3.18,0,.46-.3.7-.31,1.33a2.09,2.09,0,0,1-3.17-.1c-.91-1-.8-3.18-2.05-3.48-.95-.23-1.67.5-2.66.71,2.51,4.1-4.26,7.19-5.95,3.38-.29.09-1.2.29-1.33-.1s.51-.77.92-.92a3.58,3.58,0,0,1,2-3.69c-.78-1.48-1-4-2.45-4.2.33-.28.48-.73.92-.82,4.12-.82,10-1.28,14.44-1.94.4.21.38.85.82,1-.43.46-.37,1.41-.51,2.15,1.75-.53,2.31-2.26,3.48-3.38a9.62,9.62,0,0,0-.51-3.17c-.49.16-.57.73-1,.92a.41.41,0,0,0-.41-.62c.46-.5.67-1.24,1.54-1.33.42-1.62.15-4,.41-6.14s1.49-4,.41-5.33c-.29-.15-.77-.11-1-.31a5.53,5.53,0,0,1,.2-3.38c0-.37-.73,0-.62-.51.72-1.15,2.31-1,3.9-.82a7.14,7.14,0,0,0,.92,1.54,4,4,0,0,1-.62,2.46c0,.69.54,1,.31,1.33.29,0,.46-.07.82.2,1.3,1,1.89,2.71,1.85,5.33a24.86,24.86,0,0,0-.11,2.87c-.09.33.34.14.31.41-.07.75-.43.8-.1,1.53-.7.66-.18,2-.1,3.18"/><path class="cls-8" d="M46.3,136.65a9.4,9.4,0,0,1,7,9.09c0,.13,0,.26,0,.39"/><path class="cls-8" d="M47.3,133a13.15,13.15,0,0,1,9.77,12.72c0,.16,0,.33,0,.49"/><path class="cls-8" d="M48.43,129.37a17,17,0,0,1,12.62,16.39c0,.19,0,.39,0,.58"/><path class="cls-8" d="M250.33,137.86a9.41,9.41,0,0,1,7,9.09c0,.13,0,.26,0,.39"/><path class="cls-8" d="M251.33,134.23A13.16,13.16,0,0,1,261.1,147c0,.16,0,.33,0,.49"/><path class="cls-8" d="M252.46,130.58A17,17,0,0,1,265.08,147c0,.2,0,.39,0,.58"/><path class="cls-3" d="M520.5,96.91l.25.5,0,.61-.1.3-.25.65-.25.86.45.4.25-.1.41.05.85.1.76.41.35.35.6,1.41.51,1.56.4.75.5.3.51,1,.3.45v.86l-.46.75-.45.56-.8.4-.61,0-1-.2-.66-.45-.2-.61-.15.46.15,1.71v1.76l.1,2,0,1.26.1.65.3.81.2.91-.2.3.25,1.26.31.75.05.75v3.63l-.26,1.91v1.71l-.5,1.06v.35l.1,2.32-.2,1.76.3.5-.2,1.21.4,1.56-.4,4,.2,1.31.15.2-.4,1,.4.3-.15.56V146l-.4.61-1,.35-1-.05-.71-.25L519,146l.15-1.1-.45-.61-.15-.45-.25-.56.2-.65,0-1.81.15-1.06-.15-.85v-1.21l-.2-.45,0-1v-1.76l.1-.56-.26-.65.05-.5-.1-.31-.2-.3v-1.31l-.4-1.46v-.7l-.55-1.26v-1.31l-.1-.7v-1.21l-.26-.8-.25.75v1l-.1,1-.45,1.91-.55,2.27-.26.6-.2,1,0,.75-.45.51.2.85-.4.41.15.8-.1,1.31.15,1.71-.35,2,.1.95-.25,1,.1.9-.1.76-.46,1-.1.31-.65.4L512,146l-.35.66-.3.6-.86.45-.75.1-.65-.25-.46-.25-.1-.4v-.45l.15-.61.3-.65.36-.4v-.41l-.2-.45-.1-.71-.21-.8-.5-.65,1.26-3.93.5-1.11.3-1.66v-.91l.16-.15,0-.3.15-.55v-1.36l-.1-2.37-.05-1.1-.36-1.31v-2.77l-.2-.91.15-1.1-.1-.61h-.3l-.1.41h-.25l-.2-.41-.1-.4-.21-.3-.5-.66-.4.2-.81-1.1-.55-1-.05-.9-.15-1.31-.2-1.31-.15-2.17.1-1.35.15-.61.95-2.56,2.07-5.54.65-1.16.25-.5.81-.51,1.06-.3,1.05-.15.15-.55.46-.61.45-.3.35-.1-.15-.2-.05-.55.05-.86.2-1V94.8l.51-.91.2-1,.5-.3.1-.6.2-.3,1.11-.41,1,.31.8.1,1.21.6v1l.3.5v.7l.1.51v.8l-.3.71Zm-10.07,11.73-.65,1.66,0,.85-.15,1-.1,1.66-.15.91-.36,1.16-.05.55v.2l.05.6v.81l.21.2.3.25.9.4.26-.1.2-.5-.3-.4v-.45l-.16-.11.41-1.1.25-.35v-.66l-.25-.6-.2-1.46.3-1.06-.3-.45,0-.81.15-1.36Z"/><ellipse class="cls-9" cx="516.1" cy="145.36" rx="32.12" ry="8.74"/><ellipse class="cls-10" cx="516.1" cy="145.36" rx="59.16" ry="16.1"/><ellipse class="cls-11" cx="516.1" cy="145.36" rx="88.36" ry="24.05"/><path class="cls-3" d="M575.1,164.42l-.27-.46.46-.65,1.71-.4,1.57-.52.07-.46-.13-.13-.59-.53.13-.59.32-1.44v-.07l-.65-1.77-.79-3.28v-.91l-.33-1.32-.59-8.07-.45-1-.4-4.72.26-.46.07-.53.13-.65-.13-.59v-.46l.46-.33-.46-.46.07-.79-.33-.26.13-.39.59-.13-.13-.33.33-.53.13-1.24-.07-1.51-.33-1.58.07-2.36.06-1.7.2-.59.46-.53.59-.79v-.32l.07-.66.78-1.18.26-.07.07-.59-.46-1.37-.39-.46-.66-.27-.26-.19-.13-.53.19-.46.07-.19-.07-.14v-.19l.14-.07V115l.33-.39-.14-.33V114l.92-.52.2-.4.33-.46.26-.26.2-.13-.4-.46.13-.52.86-.4h1.51l1.18.66.39.85.79,1,.46,1.31v1.18l-.79,1.78-.79.52v.2l.46.78,4,1.38.66.66,1.64,2.95.52,2.16,1.64,3.68v1.11l-.32,1.38-.14,1.77-.32.4h-1.51l-1,.78-.72.72v2l-.26.33.13,2.62V144l.66,6.49,1.18,2.3.46,3.15.26,3.21.26,2.23-.2.39.13,1.18.07,1-.59.52H575.1Zm7.87-3.15-.2.46.2,1.18v.27l1-.27,1.58-.52.06-.46-.19-.13-.53-.53.13-.59v-1.24l-.07-.79-.32-.59v-1.31l-.2-.72-1-1-.66-1.31-1-4.53-.06,1,.26.52.39,1.91v3.47l.33,2.76Z"/><polygon class="cls-3" points="483.1 112.54 484.36 110.64 485.31 108.86 486.36 107.8 487.62 107.17 488.89 106.65 490.15 106.65 491.41 107.49 492.46 108.64 492.57 109.28 493.3 109.91 493.3 110.64 492.67 111.38 492.67 112.22 492.57 112.96 492.15 113.8 491.31 114.43 490.99 115.17 490.67 115.69 489.94 115.69 490.57 116.33 492.15 117.38 492.46 118.22 493.41 120.95 493.62 122.85 494.04 124.32 494.14 125.27 495.09 126.95 495.09 127.69 494.88 128.84 493.94 129.68 493.2 129.68 492.46 129.47 491.83 129.16 492.46 131.26 492.78 132.31 493.62 135.68 494.78 139.78 492.78 140.52 492.67 142.62 492.99 146.51 491.31 146.94 490.36 147.15 490.04 148.41 490.04 149.46 489.62 150.3 489.62 150.83 489.73 152.3 489.52 154.61 488.46 159.98 488.36 162.19 488.68 162.92 489.41 164.61 490.46 165.45 491.1 165.87 491.94 166.39 492.36 166.71 492.25 167.13 490.99 167.13 488.99 167.13 488.25 166.5 487.52 165.45 486.68 165.03 486.68 166.19 485.52 166.19 485.42 165.03 485.31 163.66 485.52 163.03 485.94 162.29 486.26 161.13 486.36 155.45 486.05 153.56 486.36 151.88 486.68 150.41 486.47 148.72 486.47 148.2 485.63 148.2 485.42 149.35 485.2 150.72 484.68 152.4 484.15 153.67 484.15 154.82 483.94 156.72 483.63 158.19 483.1 160.61 482.68 163.34 482.68 164.4 482.79 165.45 482.79 166.19 482.57 166.82 482.57 167.66 482.57 169.13 482.26 170.39 481.73 170.39 481.52 170.08 481.52 169.44 479.94 169.44 479.63 168.39 480.26 167.24 480.47 166.08 480.89 164.4 480.89 162.82 480.68 159.87 480.47 155.56 481 153.35 481.31 151.46 481.84 148.51 481.42 142.2 480.68 139.78 480.68 136.1 480.58 133.47 481 131.05 480.79 128.42 479.63 122.53 479.42 120.11 480.26 116.33 482.26 115.38 483.73 114.54 483.2 114.01 483.1 112.54"/><path class="cls-3" d="M194.64,100.23a3.21,3.21,0,0,0,.91,2.22h0l-1.08,1.08h0a4.57,4.57,0,0,1-1.37-3.3,4.71,4.71,0,0,1,1.37-3.3h0L195.55,98h0A3.18,3.18,0,0,0,194.64,100.23Z"/><path class="cls-3" d="M196.69,99.15l1.08,1.08-1.08,1.08h0a1.44,1.44,0,0,1-.45-1.08,1.18,1.18,0,0,1,.45-1.08Z"/><path class="cls-3" d="M191.51,100.23a6.24,6.24,0,0,0,1.59,4.16h0l.12.11h0l.11.11h0l-1.08,1.08h0a7.82,7.82,0,0,1,0-11h0l1.08,1.08h0l-.11.11h0l-.12.12h0A6.74,6.74,0,0,0,191.51,100.23Z"/><path class="cls-3" d="M536.64,79.9a3.13,3.13,0,0,0-1.89-1.48h0l.4-1.48h0A4.58,4.58,0,0,1,538,79.13a4.7,4.7,0,0,1,.45,3.55h0l-1.48-.4h0A3.12,3.12,0,0,0,536.64,79.9Z"/><path class="cls-3" d="M535.4,81.85l-1.48-.4.41-1.48h0a1.45,1.45,0,0,1,.93.72,1.19,1.19,0,0,1,.14,1.16Z"/><path class="cls-3" d="M539.36,78.34a6.27,6.27,0,0,0-3.44-2.82h0l-.16,0h0l-.15,0h0L536,74h0a7.84,7.84,0,0,1,5.48,9.6h0L540,83.15h0l0-.15h0l0-.16h0A6.7,6.7,0,0,0,539.36,78.34Z"/><path class="cls-3" d="M596.6,98.74a3.19,3.19,0,0,0-1.89-1.48h0l.4-1.47h0A4.55,4.55,0,0,1,597.93,98a4.73,4.73,0,0,1,.46,3.54h0l-1.48-.4h0A3.18,3.18,0,0,0,596.6,98.74Z"/><path class="cls-3" d="M595.36,100.7l-1.48-.41.4-1.47h0a1.41,1.41,0,0,1,.93.71,1.23,1.23,0,0,1,.15,1.17Z"/><path class="cls-3" d="M599.32,97.19a6.21,6.21,0,0,0-3.45-2.82h0l-.15,0h0l-.16,0h0l.4-1.47h0a7.82,7.82,0,0,1,5.48,9.59h0L600,102h0l0-.16h0l0-.15h0A6.73,6.73,0,0,0,599.32,97.19Z"/><path class="cls-3" d="M498.39,91.32a3.19,3.19,0,0,0-1.9-1.48h0l.41-1.48h0a4.59,4.59,0,0,1,2.82,2.19,4.7,4.7,0,0,1,.45,3.55h0l-1.47-.4h0A3.17,3.17,0,0,0,498.39,91.32Z"/><path class="cls-3" d="M497.14,93.27l-1.47-.4.4-1.48h0a1.45,1.45,0,0,1,.93.72,1.19,1.19,0,0,1,.14,1.16Z"/><path class="cls-3" d="M501.11,89.76a6.25,6.25,0,0,0-3.45-2.82h0l-.16,0h0l-.15,0h0l.4-1.48h0a7.84,7.84,0,0,1,5.48,9.6h0l-1.47-.41h0l0-.15h0l0-.16h0A6.75,6.75,0,0,0,501.11,89.76Z"/><path class="cls-8" d="M384,135.41a9.38,9.38,0,0,1,7,9.08v.39"/><path class="cls-8" d="M385,131.78a13.16,13.16,0,0,1,9.77,12.71c0,.17,0,.34,0,.5"/><path class="cls-8" d="M386.1,128.12a17,17,0,0,1,12.62,16.4c0,.19,0,.38,0,.57"/></g></svg>