<svg xmlns="http://www.w3.org/2000/svg" viewBox="0 0 358.52 232.49"><defs><style>.cls-1,.cls-3,.cls-4,.cls-5,.cls-6,.cls-7,.cls-8,.cls-9{fill:none;}.cls-1,.cls-5,.cls-6,.cls-7,.cls-8{stroke:#010101;}.cls-1,.cls-5,.cls-6,.cls-7,.cls-8,.cls-9{stroke-linecap:round;}.cls-1,.cls-5,.cls-7{stroke-miterlimit:10;}.cls-1,.cls-5,.cls-6{stroke-width:0.75px;}.cls-2{fill:#1d1d1b;}.cls-3,.cls-4,.cls-9{stroke:#1d1d1b;}.cls-3,.cls-4,.cls-6,.cls-8,.cls-9{stroke-linejoin:round;}.cls-3{stroke-width:0.5px;}.cls-4{stroke-width:0.44px;}.cls-5{stroke-dasharray:2 2;}.cls-7{stroke-width:0.25px;}.cls-9{stroke-width:2px;}.cls-10{fill:#010101;}</style></defs><g id="Layer_1" data-name="Layer 1"><line class="cls-1" x1="160.18" y1="198.24" x2="298.42" y2="98.75"/><polyline class="cls-1" points="298.13 102.27 298.76 98.36 294.76 97.71"/><path class="cls-2" d="M14.93,5.78l0,1.56h-4.5V7.16h.16A1,1,0,0,0,11,7.08a.42.42,0,0,0,.17-.27,6.24,6.24,0,0,0,0-.85V3.37a5.9,5.9,0,0,0,0-.82A.36.36,0,0,0,11,2.3a1.16,1.16,0,0,0-.52-.07h-.12V2.05h2.55v.18H12.7a1.37,1.37,0,0,0-.51.06.34.34,0,0,0-.16.24,4.81,4.81,0,0,0,0,.84V6.14a5,5,0,0,0,0,.72.34.34,0,0,0,.17.22,1.28,1.28,0,0,0,.59.08h.41a2.54,2.54,0,0,0,.72-.08,1,1,0,0,0,.45-.38,3,3,0,0,0,.39-.92Z"/><path class="cls-2" d="M18.2,5.23H16c0,.15,0,.26,0,.34a2.54,2.54,0,0,0,.26,1.27.88.88,0,0,0,.79.42,1,1,0,0,0,1-.64h.19a1.12,1.12,0,0,1-.5.63,1.54,1.54,0,0,1-.81.22,1.61,1.61,0,0,1-.77-.2,1.64,1.64,0,0,1-.59-.58,1.76,1.76,0,0,1-.23-.91,1.8,1.8,0,0,1,.45-1.26A1.39,1.39,0,0,1,16.86,4a1.22,1.22,0,0,1,1,.39A1.34,1.34,0,0,1,18.2,5.23Zm-.69-.16a.92.92,0,0,0,0-.16.66.66,0,0,0-.2-.53.67.67,0,0,0-.49-.19c-.48,0-.76.29-.85.88Z"/><path class="cls-2" d="M21.24,4.42a.92.92,0,0,1,.67-.37.37.37,0,0,1,.29.1.31.31,0,0,1,.11.22c0,.18-.08.26-.24.26a.26.26,0,0,1-.22-.16q-.09-.15-.18-.15a.48.48,0,0,0-.33.21,1.21,1.21,0,0,1,.21.68,1.18,1.18,0,0,1-.34.82,1.49,1.49,0,0,1-1.13.39c-.55,0-.83.14-.83.34s.06.16.19.2a2.93,2.93,0,0,0,.77.1,5.1,5.1,0,0,1,1,.12,1,1,0,0,1,.56.35A1.05,1.05,0,0,1,21.54,9a1.92,1.92,0,0,1-1.21.32A2.11,2.11,0,0,1,19.16,9a.82.82,0,0,1-.43-.71.61.61,0,0,1,.12-.39.43.43,0,0,1,.36-.15.2.2,0,0,1,.11,0,.81.81,0,0,0-.24.56.68.68,0,0,0,.32.57,1.71,1.71,0,0,0,1,.22,1.52,1.52,0,0,0,.89-.23.69.69,0,0,0,.32-.58.58.58,0,0,0-.29-.55,2.37,2.37,0,0,0-1-.19,2.28,2.28,0,0,1-1.09-.21A.49.49,0,0,1,18.93,7c0-.34.24-.56.71-.64a1.8,1.8,0,0,1-.55-.5,1.09,1.09,0,0,1-.19-.63,1.07,1.07,0,0,1,.38-.83A1.34,1.34,0,0,1,20.2,4,1.39,1.39,0,0,1,21.24,4.42Zm-1.76.86a1.06,1.06,0,0,0,.21.73.66.66,0,0,0,.53.24A.68.68,0,0,0,20.73,6a1.23,1.23,0,0,0,.21-.81,1.06,1.06,0,0,0-.23-.8.74.74,0,0,0-.51-.22.61.61,0,0,0-.54.27A1.49,1.49,0,0,0,19.48,5.28Z"/><path class="cls-2" d="M25.45,5.23H23.21c0,.15,0,.26,0,.34a2.54,2.54,0,0,0,.26,1.27.88.88,0,0,0,.79.42,1,1,0,0,0,1-.64h.19a1.12,1.12,0,0,1-.5.63,1.54,1.54,0,0,1-.81.22,1.61,1.61,0,0,1-.77-.2,1.64,1.64,0,0,1-.59-.58,1.76,1.76,0,0,1-.23-.91A1.8,1.8,0,0,1,23,4.52,1.39,1.39,0,0,1,24.11,4a1.22,1.22,0,0,1,1,.39A1.34,1.34,0,0,1,25.45,5.23Zm-.69-.16a.92.92,0,0,0,0-.16.66.66,0,0,0-.2-.53.67.67,0,0,0-.49-.19c-.48,0-.76.29-.85.88Z"/><path class="cls-2" d="M26.85,4H27a2.29,2.29,0,0,1,.1.66,2,2,0,0,1,.59-.49A1.33,1.33,0,0,1,28.29,4a1.17,1.17,0,0,1,.63.16.7.7,0,0,1,.31.4,2.31,2.31,0,0,1,.07.67v1c0,.37,0,.6,0,.68a.27.27,0,0,0,.13.18.82.82,0,0,0,.38.06v.18H28.19V7.16h.08a.53.53,0,0,0,.36-.08.3.3,0,0,0,.1-.19c0-.07,0-.29,0-.65v-1a2.35,2.35,0,0,0,0-.54.51.51,0,0,0-.19-.28.64.64,0,0,0-.42-.13,1,1,0,0,0-.54.17,1.6,1.6,0,0,0-.49.51v1.3c0,.37,0,.6,0,.68a.26.26,0,0,0,.12.18.87.87,0,0,0,.39.06v.18H26V7.16a.88.88,0,0,0,.38,0,.25.25,0,0,0,.13-.17c0-.07,0-.3,0-.7v-1a4.87,4.87,0,0,0,0-.68.25.25,0,0,0-.12-.18A.87.87,0,0,0,26,4.37V4.19A4.75,4.75,0,0,0,26.85,4Z"/><path class="cls-2" d="M33,4.48V3.23c0-.34,0-.55,0-.64a.27.27,0,0,0-.11-.2.61.61,0,0,0-.35-.07h-.08V2.14a4.6,4.6,0,0,0,1-.17h.09v4.3a4.78,4.78,0,0,0,0,.68.23.23,0,0,0,.12.18.85.85,0,0,0,.38.06v.18a5.83,5.83,0,0,0-1,.1A2.08,2.08,0,0,1,33,6.89a2,2,0,0,1-.6.44,1.52,1.52,0,0,1-.63.14A1.36,1.36,0,0,1,30.74,7a1.74,1.74,0,0,1-.46-1.21,1.74,1.74,0,0,1,.47-1.26A1.46,1.46,0,0,1,31.84,4a1.63,1.63,0,0,1,.62.12A2,2,0,0,1,33,4.48Zm0,.23a1.84,1.84,0,0,0-.51-.33A1.28,1.28,0,0,0,32,4.26a.94.94,0,0,0-.73.34,1.67,1.67,0,0,0-.3,1.11,1.77,1.77,0,0,0,.31,1.16.94.94,0,0,0,.74.37,1.12,1.12,0,0,0,.55-.14A1.57,1.57,0,0,0,33,6.67Z"/><path class="cls-2" d="M34.76,4.34a.4.4,0,0,1,.12-.29.38.38,0,0,1,.3-.13.4.4,0,0,1,.29.12.41.41,0,0,1,.13.3.38.38,0,0,1-.13.3.4.4,0,0,1-.29.12.41.41,0,0,1-.3-.12A.44.44,0,0,1,34.76,4.34Zm0,2.71a.44.44,0,0,1,.12-.3.41.41,0,0,1,.3-.12.4.4,0,0,1,.29.12.41.41,0,0,1,.13.3.38.38,0,0,1-.13.3.4.4,0,0,1-.29.12.38.38,0,0,1-.3-.13A.4.4,0,0,1,34.76,7.05Z"/><path class="cls-2" d="M41.91,97.6v1.12a6.63,6.63,0,0,0,0,.81.43.43,0,0,0,.15.29.92.92,0,0,0,.49.1h.17v.18H40.33v-.18h.14a.88.88,0,0,0,.47-.09.42.42,0,0,0,.17-.27,6.9,6.9,0,0,0,0-.84v-2.6a6.72,6.72,0,0,0,0-.82.38.38,0,0,0-.16-.25,1.16,1.16,0,0,0-.52-.07h-.1V94.8l.66,0,1.25,0a4.62,4.62,0,0,1,1.26.13,1.46,1.46,0,0,1,.73.45,1.28,1.28,0,0,1,.28.83,1.6,1.6,0,0,1-.19.77,1.24,1.24,0,0,1-.56.5,3.15,3.15,0,0,1-1.27.17Zm0-.19h.38a2.41,2.41,0,0,0,.73-.09.89.89,0,0,0,.47-.39,1.54,1.54,0,0,0-.13-1.68,1.47,1.47,0,0,0-1-.31h-.4Z"/><path class="cls-2" d="M47.87,99.51H48c0,.44-.24.67-.65.67a.61.61,0,0,1-.42-.14.69.69,0,0,1-.2-.42A4.72,4.72,0,0,1,46,100a1.48,1.48,0,0,1-.57.14.88.88,0,0,1-.56-.19.61.61,0,0,1-.24-.5.87.87,0,0,1,.4-.7,4.79,4.79,0,0,1,1.08-.59l.61-.24V97.8a1.79,1.79,0,0,0-.05-.48.45.45,0,0,0-.22-.26.84.84,0,0,0-.47-.12q-.59,0-.66.39c0,.27-.15.4-.32.4a.21.21,0,0,1-.24-.23.67.67,0,0,1,.31-.48,1.59,1.59,0,0,1,1-.25,1.62,1.62,0,0,1,.77.15.88.88,0,0,1,.36.36,1.53,1.53,0,0,1,.09.61v1.29a2.31,2.31,0,0,0,0,.58.2.2,0,0,0,.21.13C47.72,99.89,47.83,99.76,47.87,99.51Zm-1.13-1.37-.43.17c-.67.28-1,.62-1,1a.56.56,0,0,0,.13.39.43.43,0,0,0,.34.15,1,1,0,0,0,.42-.12,3.61,3.61,0,0,0,.55-.36Z"/><path class="cls-2" d="M50.21,97.08h-1V99a2.63,2.63,0,0,0,0,.6.45.45,0,0,0,.16.25.48.48,0,0,0,.27.09.6.6,0,0,0,.49-.32l.13.07a.76.76,0,0,1-.36.39,1,1,0,0,1-.48.13.76.76,0,0,1-.49-.16.73.73,0,0,1-.27-.39,4.43,4.43,0,0,1-.05-.78V97.08h-.47V96.9a.85.85,0,0,0,.58-.27,1.33,1.33,0,0,0,.32-.74h.13v1h1Z"/><path class="cls-2" d="M51.65,97.42a1.73,1.73,0,0,1,.53-.49,1.27,1.27,0,0,1,.64-.16,1.18,1.18,0,0,1,.65.16.74.74,0,0,1,.34.41,2.8,2.8,0,0,1,.08.77V99c0,.37,0,.6,0,.68a.24.24,0,0,0,.13.18.87.87,0,0,0,.39.06v.18H52.77v-.18h.08a.53.53,0,0,0,.37-.09.35.35,0,0,0,.1-.19c0-.07,0-.29,0-.64V98a2.66,2.66,0,0,0,0-.59.51.51,0,0,0-.22-.32.73.73,0,0,0-.43-.12.88.88,0,0,0-.55.17,1.62,1.62,0,0,0-.43.54V99c0,.36,0,.58,0,.66a.25.25,0,0,0,.12.19.77.77,0,0,0,.37.07v.18H50.54v-.18h.08a.55.55,0,0,0,.36-.08.32.32,0,0,0,.1-.2c0-.07,0-.29,0-.64V95.81A1.26,1.26,0,0,0,51,95.2c-.06-.09-.2-.13-.44-.13v-.18a2.66,2.66,0,0,0,1-.17h.08Z"/><path class="cls-2" d="M58.74,94.85h.17V99c0,.34,0,.55,0,.64a.31.31,0,0,0,.11.21.71.71,0,0,0,.35.07h.15v.18H57.78v-.18h.13a.61.61,0,0,0,.37-.08.31.31,0,0,0,.09-.2c0-.07,0-.29,0-.64V96.22c0-.36,0-.57,0-.64a.38.38,0,0,0-.1-.2.61.61,0,0,0-.37-.08h-.17v-.18A1.66,1.66,0,0,0,58.74,94.85Z"/><path class="cls-2" d="M41.91,115.47v1.12a7,7,0,0,0,0,.82.43.43,0,0,0,.15.28.92.92,0,0,0,.49.1h.17V118H40.33v-.18h.14a.88.88,0,0,0,.47-.09.42.42,0,0,0,.17-.27,6.9,6.9,0,0,0,0-.84V114a6.72,6.72,0,0,0,0-.82.38.38,0,0,0-.16-.25,1.16,1.16,0,0,0-.52-.07h-.1v-.18l.66,0,1.25,0a4.62,4.62,0,0,1,1.26.13,1.53,1.53,0,0,1,.73.45,1.28,1.28,0,0,1,.28.83,1.6,1.6,0,0,1-.19.77,1.24,1.24,0,0,1-.56.5,3.15,3.15,0,0,1-1.27.17Zm0-.19h.38a2.41,2.41,0,0,0,.73-.09.89.89,0,0,0,.47-.39,1.54,1.54,0,0,0-.13-1.68,1.47,1.47,0,0,0-1-.31h-.4Z"/><path class="cls-2" d="M47.87,117.38H48c0,.44-.24.67-.65.67a.61.61,0,0,1-.42-.14.69.69,0,0,1-.2-.42,4.72,4.72,0,0,1-.72.42,1.48,1.48,0,0,1-.57.14.83.83,0,0,1-.56-.19.59.59,0,0,1-.24-.5.87.87,0,0,1,.4-.7,4.79,4.79,0,0,1,1.08-.59l.61-.24v-.16a1.79,1.79,0,0,0-.05-.48.45.45,0,0,0-.22-.26.84.84,0,0,0-.47-.12q-.59,0-.66.39c0,.27-.15.4-.32.4a.21.21,0,0,1-.24-.23.67.67,0,0,1,.31-.48,1.59,1.59,0,0,1,1-.25,1.62,1.62,0,0,1,.77.15.88.88,0,0,1,.36.36,1.56,1.56,0,0,1,.09.61v1.29a2.31,2.31,0,0,0,0,.58.2.2,0,0,0,.21.13C47.72,117.76,47.83,117.63,47.87,117.38ZM46.74,116l-.43.17c-.67.28-1,.62-1,1a.56.56,0,0,0,.13.39.43.43,0,0,0,.34.15,1,1,0,0,0,.42-.12,3.61,3.61,0,0,0,.55-.36Z"/><path class="cls-2" d="M50.21,115h-1v1.93a2.63,2.63,0,0,0,0,.6.45.45,0,0,0,.16.25.48.48,0,0,0,.27.09.6.6,0,0,0,.49-.32l.13.07A.76.76,0,0,1,50,118a1,1,0,0,1-.48.13.76.76,0,0,1-.49-.16.73.73,0,0,1-.27-.39,4.43,4.43,0,0,1-.05-.78V115h-.47v-.18a.85.85,0,0,0,.58-.27,1.33,1.33,0,0,0,.32-.74h.13v1h1Z"/><path class="cls-2" d="M51.65,115.29a1.73,1.73,0,0,1,.53-.49,1.27,1.27,0,0,1,.64-.16,1.18,1.18,0,0,1,.65.16.74.74,0,0,1,.34.41,2.84,2.84,0,0,1,.08.78v.88c0,.37,0,.6,0,.68a.24.24,0,0,0,.13.18.87.87,0,0,0,.39.06V118H52.77v-.18h.08a.53.53,0,0,0,.37-.09.35.35,0,0,0,.1-.19c0-.07,0-.29,0-.64v-1a2.66,2.66,0,0,0,0-.59.51.51,0,0,0-.22-.32.73.73,0,0,0-.43-.12.88.88,0,0,0-.55.17,1.62,1.62,0,0,0-.43.54v1.28c0,.36,0,.58,0,.66a.25.25,0,0,0,.12.19.77.77,0,0,0,.37.07V118H50.54v-.18h.08a.55.55,0,0,0,.36-.08.32.32,0,0,0,.1-.2c0-.07,0-.29,0-.64v-3.19a1.26,1.26,0,0,0-.09-.61c-.06-.09-.2-.13-.44-.13v-.18a2.66,2.66,0,0,0,1-.17h.08Z"/><path class="cls-2" d="M57.06,118v-.25a10,10,0,0,0,1.12-1.1,6.76,6.76,0,0,0,1-1.3,2.16,2.16,0,0,0,.31-1.1,1.37,1.37,0,0,0-.31-1,1,1,0,0,0-.76-.32.88.88,0,0,0-.69.29,1,1,0,0,0-.24.62.66.66,0,0,0,.32.59c.07.06.11.1.11.13a.33.33,0,0,1-.13.19.37.37,0,0,1-.22.12c-.08,0-.17-.08-.28-.24a1,1,0,0,1-.17-.6,1.13,1.13,0,0,1,.47-1,1.69,1.69,0,0,1,2.07,0,1.26,1.26,0,0,1,.47,1.08,1.81,1.81,0,0,1-.21.85,6.27,6.27,0,0,1-1,1.24c-.55.55-1,1-1.31,1.25h2.48l-.22.87h-.18a.34.34,0,0,1,0-.14.31.31,0,0,0,0-.1c0-.08,0-.13,0-.14a.8.8,0,0,0-.27,0Z"/><path class="cls-2" d="M45,28.73l-3.74-5v3.67a2.68,2.68,0,0,0,0,.61.54.54,0,0,0,.26.26,1.3,1.3,0,0,0,.63.12v.18h-2v-.18a1.33,1.33,0,0,0,.58-.14.43.43,0,0,0,.24-.24,3.2,3.2,0,0,0,0-.61v-2.8a3.57,3.57,0,0,0-.06-.82.4.4,0,0,0-.18-.27,1.56,1.56,0,0,0-.55-.06v-.17h1.56L45,27.46V24.29a1.15,1.15,0,0,0-.07-.49.52.52,0,0,0-.3-.22,1.4,1.4,0,0,0-.53-.09v-.17H46v.17a1.64,1.64,0,0,0-.53.13.5.5,0,0,0-.25.25,1.68,1.68,0,0,0-.05.48v4.38Z"/><path class="cls-2" d="M46.37,27a1.67,1.67,0,0,1,.49-1.23,1.71,1.71,0,0,1,2.42,0,1.67,1.67,0,0,1,.5,1.23,1.66,1.66,0,0,1-.5,1.27,1.81,1.81,0,0,1-2.42,0A1.64,1.64,0,0,1,46.37,27ZM47,27a2,2,0,0,0,.28,1.19.94.94,0,0,0,.78.34.93.93,0,0,0,.78-.34A2,2,0,0,0,49.12,27a2.06,2.06,0,0,0-.27-1.21.92.92,0,0,0-.78-.36,1,1,0,0,0-.79.36A2.06,2.06,0,0,0,47,27Z"/><path class="cls-2" d="M53.07,25.75V24.5c0-.34,0-.55,0-.64a.27.27,0,0,0-.11-.2.6.6,0,0,0-.35-.08h-.08v-.17a4.6,4.6,0,0,0,1-.17h.08v4.3c0,.37,0,.6,0,.68a.27.27,0,0,0,.13.18.82.82,0,0,0,.38.06v.18a6,6,0,0,0-1,.1,2.71,2.71,0,0,1,0-.58,2.14,2.14,0,0,1-.6.44,1.52,1.52,0,0,1-.63.14,1.43,1.43,0,0,1-1.08-.5A1.75,1.75,0,0,1,50.35,27a1.77,1.77,0,0,1,.46-1.26,1.5,1.5,0,0,1,1.1-.49,1.63,1.63,0,0,1,.62.12A2,2,0,0,1,53.07,25.75Zm0,.23a1.74,1.74,0,0,0-.52-.33,1.2,1.2,0,0,0-.52-.12.94.94,0,0,0-.73.34A1.67,1.67,0,0,0,51,27a1.85,1.85,0,0,0,.3,1.16,1,1,0,0,0,.75.37,1.15,1.15,0,0,0,.55-.14,1.57,1.57,0,0,0,.47-.43Z"/><path class="cls-2" d="M57.43,26.49H55.2c0,.16,0,.27,0,.35a2.43,2.43,0,0,0,.26,1.27.87.87,0,0,0,.79.42,1,1,0,0,0,1-.64h.19a1.1,1.1,0,0,1-.49.63,1.54,1.54,0,0,1-.81.22,1.61,1.61,0,0,1-.77-.2,1.64,1.64,0,0,1-.59-.58,1.67,1.67,0,0,1-.23-.91A1.84,1.84,0,0,1,55,25.79a1.43,1.43,0,0,1,1.12-.51,1.24,1.24,0,0,1,1,.39A1.27,1.27,0,0,1,57.43,26.49Zm-.68-.15a.92.92,0,0,0,0-.16.67.67,0,0,0-.7-.72c-.47,0-.75.29-.84.88Z"/><path class="cls-2" d="M45.88,64.35H44.46A6.25,6.25,0,0,1,43.3,63c-.17-.24-.34-.47-.52-.69a2.65,2.65,0,0,0-.37-.4.56.56,0,0,0-.32-.07h-.21V63a6.74,6.74,0,0,0,0,.81.4.4,0,0,0,.16.29.87.87,0,0,0,.48.09h.26v.18H40.27v-.18h.17a.87.87,0,0,0,.47-.08.39.39,0,0,0,.17-.27,6.9,6.9,0,0,0,0-.84v-2.6a6.72,6.72,0,0,0,0-.82.33.33,0,0,0-.16-.25,1.16,1.16,0,0,0-.52-.07h-.09v-.18l.76,0c.5,0,.9,0,1.2,0a4.52,4.52,0,0,1,1.23.14,1.75,1.75,0,0,1,.77.46,1.09,1.09,0,0,1,.29.77,1.17,1.17,0,0,1-.38.89,1.92,1.92,0,0,1-1.12.45,4.61,4.61,0,0,1,1.07,1.16,5.44,5.44,0,0,0,.94,1.06,1.47,1.47,0,0,0,.81.26Zm-4-2.73.61,0a2.17,2.17,0,0,0,.54-.09.85.85,0,0,0,.6-.56,1.62,1.62,0,0,0,.08-.54,1.32,1.32,0,0,0-.28-.89,1.57,1.57,0,0,0-1.22-.34l-.33,0Z"/><path class="cls-2" d="M48.73,62.24H46.5c0,.15,0,.26,0,.34a2.51,2.51,0,0,0,.26,1.27.88.88,0,0,0,.79.42,1,1,0,0,0,1-.63h.19a1.13,1.13,0,0,1-.5.62,1.54,1.54,0,0,1-.81.22,1.57,1.57,0,0,1-.76-.2,1.67,1.67,0,0,1-.6-.58,1.76,1.76,0,0,1-.23-.91,1.8,1.8,0,0,1,.45-1.26,1.4,1.4,0,0,1,1.11-.5,1.2,1.2,0,0,1,1,.38A1.34,1.34,0,0,1,48.73,62.24ZM48,62.08a1,1,0,0,0,0-.16.66.66,0,0,0-.21-.53.66.66,0,0,0-.49-.19c-.47,0-.76.29-.85.88Z"/><path class="cls-2" d="M50.26,59v4.28c0,.34,0,.55,0,.64a.27.27,0,0,0,.11.2.63.63,0,0,0,.35.07h.09v.18H49.11v-.18h.11a.71.71,0,0,0,.34-.06.29.29,0,0,0,.12-.18c0-.08,0-.3,0-.67V60.09a1.33,1.33,0,0,0-.09-.63c-.06-.09-.21-.13-.44-.13v-.18a3.15,3.15,0,0,0,.56-.06,1.6,1.6,0,0,0,.44-.11Z"/><path class="cls-2" d="M54.47,63.77h.15c0,.44-.24.67-.66.67a.63.63,0,0,1-.42-.14.75.75,0,0,1-.2-.42,5.2,5.2,0,0,1-.71.42,1.57,1.57,0,0,1-.58.14.92.92,0,0,1-.56-.19.63.63,0,0,1-.23-.5.87.87,0,0,1,.39-.7,4.67,4.67,0,0,1,1.09-.59l.6-.24v-.16a1.88,1.88,0,0,0,0-.48.44.44,0,0,0-.23-.26.8.8,0,0,0-.47-.12c-.39,0-.61.13-.65.39s-.15.4-.33.4a.21.21,0,0,1-.24-.23.69.69,0,0,1,.32-.48,1.55,1.55,0,0,1,1-.25,1.59,1.59,0,0,1,.77.15.86.86,0,0,1,.37.36,1.79,1.79,0,0,1,.08.61v1.29A2.15,2.15,0,0,0,54,64a.19.19,0,0,0,.2.13C54.32,64.15,54.43,64,54.47,63.77ZM53.34,62.4l-.43.17c-.67.28-1,.62-1,1A.57.57,0,0,0,52,64a.4.4,0,0,0,.33.15A1,1,0,0,0,52.8,64a3.15,3.15,0,0,0,.54-.36Z"/><path class="cls-2" d="M56.7,63.75,57.44,62a2.54,2.54,0,0,0,.16-.43c0-.13-.15-.2-.44-.21v-.17h1.13v.17a.58.58,0,0,0-.38.14,2.16,2.16,0,0,0-.3.56l-1.43,3.45a2.43,2.43,0,0,1-.36.67.47.47,0,0,1-.34.17c-.17,0-.26-.07-.26-.23s.14-.32.41-.45a1.18,1.18,0,0,0,.32-.18,1,1,0,0,0,.16-.27l.3-.76-1.2-2.58a1.6,1.6,0,0,0-.27-.43.56.56,0,0,0-.36-.09v-.17h1.47v.17c-.26,0-.39.07-.39.16a2.13,2.13,0,0,0,.16.39Z"/><path class="cls-2" d="M62.13,61.86V63a6.74,6.74,0,0,0,0,.81.4.4,0,0,0,.16.29.9.9,0,0,0,.48.09H63v.18H60.55v-.18h.14a.87.87,0,0,0,.47-.08.39.39,0,0,0,.17-.27,6.9,6.9,0,0,0,0-.84v-2.6a6.72,6.72,0,0,0,0-.82.33.33,0,0,0-.16-.25,1.16,1.16,0,0,0-.52-.07h-.1v-.18l.67,0,1.24,0a4.57,4.57,0,0,1,1.26.13,1.42,1.42,0,0,1,.73.45,1.23,1.23,0,0,1,.28.83,1.52,1.52,0,0,1-.19.77,1.3,1.3,0,0,1-.56.5,3.35,3.35,0,0,1-1.27.17Zm0-.19h.38a2.2,2.2,0,0,0,.74-.1.89.89,0,0,0,.47-.38,1.37,1.37,0,0,0,.18-.72,1.28,1.28,0,0,0-.32-1,1.49,1.49,0,0,0-1-.3h-.41Z"/><path class="cls-2" d="M68.09,63.77h.15c0,.44-.25.67-.66.67a.61.61,0,0,1-.42-.14.75.75,0,0,1-.2-.42,4.72,4.72,0,0,1-.72.42,1.48,1.48,0,0,1-.57.14.9.9,0,0,1-.56-.19.6.6,0,0,1-.23-.5.87.87,0,0,1,.39-.7,4.79,4.79,0,0,1,1.08-.59l.61-.24v-.16a1.79,1.79,0,0,0,0-.48.42.42,0,0,0-.22-.26.84.84,0,0,0-.47-.12c-.39,0-.61.13-.65.39s-.15.4-.33.4a.21.21,0,0,1-.24-.23.69.69,0,0,1,.32-.48,1.55,1.55,0,0,1,1-.25,1.62,1.62,0,0,1,.77.15.88.88,0,0,1,.36.36,1.53,1.53,0,0,1,.09.61v1.29a2.15,2.15,0,0,0,0,.58.19.19,0,0,0,.2.13C67.94,64.15,68.05,64,68.09,63.77ZM67,62.4l-.43.17c-.67.28-1,.62-1,1a.62.62,0,0,0,.13.4.43.43,0,0,0,.34.15,1,1,0,0,0,.42-.12,2.84,2.84,0,0,0,.55-.36Z"/><path class="cls-2" d="M70.43,61.33h-1v1.94a2.69,2.69,0,0,0,0,.6.45.45,0,0,0,.16.25.49.49,0,0,0,.28.09.58.58,0,0,0,.48-.32l.13.07a.81.81,0,0,1-.36.39.94.94,0,0,1-.48.13.78.78,0,0,1-.49-.16.73.73,0,0,1-.27-.39,4.43,4.43,0,0,1,0-.78V61.33h-.46v-.17a.85.85,0,0,0,.57-.27,1.27,1.27,0,0,0,.32-.74h.13v1h1Z"/><path class="cls-2" d="M71.88,61.68a1.6,1.6,0,0,1,.52-.49A1.29,1.29,0,0,1,73,61a1.18,1.18,0,0,1,.65.16.72.72,0,0,1,.34.4,2.84,2.84,0,0,1,.08.78v.89c0,.37,0,.6,0,.68a.27.27,0,0,0,.13.18.91.91,0,0,0,.39,0v.18H73v-.18h.07a.54.54,0,0,0,.37-.08.3.3,0,0,0,.1-.19c0-.08,0-.29,0-.64v-1a2.16,2.16,0,0,0,0-.59.51.51,0,0,0-.22-.32.73.73,0,0,0-.43-.13.91.91,0,0,0-.55.18,1.49,1.49,0,0,0-.42.54v1.28c0,.36,0,.58,0,.66a.31.31,0,0,0,.12.19.8.8,0,0,0,.37.06v.18H70.76v-.18h.08a.54.54,0,0,0,.37-.08.31.31,0,0,0,.09-.19c0-.07,0-.29,0-.64V60.07a1.26,1.26,0,0,0-.09-.61c-.07-.09-.21-.13-.44-.13v-.18a2.6,2.6,0,0,0,1-.17h.09Z"/><path class="cls-2" d="M45.88,46.48H44.46a6.25,6.25,0,0,1-1.16-1.39c-.17-.24-.34-.47-.52-.69a2.65,2.65,0,0,0-.37-.4.56.56,0,0,0-.32-.07h-.21V45.1a6.83,6.83,0,0,0,0,.82.4.4,0,0,0,.16.29.87.87,0,0,0,.48.09h.26v.18H40.27V46.3h.17a.87.87,0,0,0,.47-.08.39.39,0,0,0,.17-.27,7,7,0,0,0,0-.85V42.51a6.6,6.6,0,0,0,0-.82.33.33,0,0,0-.16-.25,1.16,1.16,0,0,0-.52-.07h-.09v-.18l.76,0c.5,0,.9,0,1.2,0a4.52,4.52,0,0,1,1.23.14,1.75,1.75,0,0,1,.77.46,1.09,1.09,0,0,1,.29.77,1.17,1.17,0,0,1-.38.89,1.92,1.92,0,0,1-1.12.45A4.61,4.61,0,0,1,44.13,45,5.44,5.44,0,0,0,45.07,46a1.47,1.47,0,0,0,.81.26Zm-4-2.73.61,0a2.17,2.17,0,0,0,.54-.09,1,1,0,0,0,.37-.21.89.89,0,0,0,.23-.35,1.62,1.62,0,0,0,.08-.54,1.32,1.32,0,0,0-.28-.89,1.57,1.57,0,0,0-1.22-.34l-.33,0Z"/><path class="cls-2" d="M48.73,44.37H46.5c0,.15,0,.26,0,.34A2.51,2.51,0,0,0,46.74,46a.88.88,0,0,0,.79.42,1,1,0,0,0,1-.64h.19a1.12,1.12,0,0,1-.5.63,1.54,1.54,0,0,1-.81.22,1.57,1.57,0,0,1-.76-.2,1.67,1.67,0,0,1-.6-.58,1.76,1.76,0,0,1-.23-.91,1.8,1.8,0,0,1,.45-1.26,1.4,1.4,0,0,1,1.11-.5,1.2,1.2,0,0,1,1,.38A1.34,1.34,0,0,1,48.73,44.37ZM48,44.21a1,1,0,0,0,0-.16.66.66,0,0,0-.21-.53.66.66,0,0,0-.49-.19c-.47,0-.76.29-.85.88Z"/><path class="cls-2" d="M50.26,41.11v4.28c0,.34,0,.55,0,.64a.27.27,0,0,0,.11.2.63.63,0,0,0,.35.07h.09v.18H49.11V46.3h.11a.71.71,0,0,0,.34-.06.29.29,0,0,0,.12-.18c0-.08,0-.3,0-.67V42.22a1.33,1.33,0,0,0-.09-.63c-.06-.09-.21-.13-.44-.13v-.18a3.15,3.15,0,0,0,.56-.06,1.6,1.6,0,0,0,.44-.11Z"/><path class="cls-2" d="M54.47,45.9h.15c0,.44-.24.67-.66.67a.58.58,0,0,1-.42-.15.69.69,0,0,1-.2-.41,4.22,4.22,0,0,1-.71.41,1.42,1.42,0,0,1-.58.15.92.92,0,0,1-.56-.19.63.63,0,0,1-.23-.5.87.87,0,0,1,.39-.7,4.67,4.67,0,0,1,1.09-.59l.6-.24v-.16a1.88,1.88,0,0,0,0-.48.48.48,0,0,0-.23-.27.88.88,0,0,0-.47-.11c-.39,0-.61.13-.65.39s-.15.4-.33.4a.21.21,0,0,1-.24-.23.69.69,0,0,1,.32-.48,1.55,1.55,0,0,1,1-.25,1.59,1.59,0,0,1,.77.15.8.8,0,0,1,.37.36,1.79,1.79,0,0,1,.08.61v1.29a2.15,2.15,0,0,0,.05.58.19.19,0,0,0,.2.13C54.32,46.28,54.43,46.15,54.47,45.9Zm-1.13-1.37-.43.17c-.67.28-1,.62-1,1a.57.57,0,0,0,.13.4.4.4,0,0,0,.33.15,1,1,0,0,0,.43-.12,3.15,3.15,0,0,0,.54-.36Z"/><path class="cls-2" d="M56.7,45.88l.74-1.78a2.54,2.54,0,0,0,.16-.43c0-.13-.15-.2-.44-.21v-.18h1.13v.18a.58.58,0,0,0-.38.14,2.16,2.16,0,0,0-.3.56L56.18,47.6a2.16,2.16,0,0,1-.36.67.45.45,0,0,1-.34.18c-.17,0-.26-.07-.26-.23s.14-.32.41-.45a1.18,1.18,0,0,0,.32-.18,1,1,0,0,0,.16-.27l.3-.76L55.21,44a1.6,1.6,0,0,0-.27-.43.56.56,0,0,0-.36-.09v-.18h1.47v.18c-.26,0-.39.07-.39.16a2.13,2.13,0,0,0,.16.39Z"/><path class="cls-2" d="M60.75,46.43v-1.7H61c.22,1.1.74,1.66,1.57,1.66a1.18,1.18,0,0,0,.87-.32,1,1,0,0,0,.3-.71.9.9,0,0,0-.27-.67,3.26,3.26,0,0,0-1-.57,6,6,0,0,1-1-.48,1.43,1.43,0,0,1-.69-1.23,1.24,1.24,0,0,1,.39-.94,1.36,1.36,0,0,1,1-.38,1.9,1.9,0,0,1,.63.11,1.57,1.57,0,0,1,.61.45.79.79,0,0,0,.2-.46h.17v1.38h-.17a1.87,1.87,0,0,0-.52-1,1.27,1.27,0,0,0-.88-.35.88.88,0,0,0-.69.26.83.83,0,0,0-.22.56.8.8,0,0,0,.28.62,4,4,0,0,0,1,.58,10.51,10.51,0,0,1,1,.49,1.36,1.36,0,0,1,.5.51,1.55,1.55,0,0,1,.18.76,1.48,1.48,0,0,1-.45,1.11,1.7,1.7,0,0,1-1.21.42,1.83,1.83,0,0,1-1.45-.67,1.32,1.32,0,0,0-.19.52Z"/><path class="cls-2" d="M66.82,43.46h-1V45.4a3.6,3.6,0,0,0,0,.6.41.41,0,0,0,.17.24.39.39,0,0,0,.27.1.6.6,0,0,0,.49-.32l.12.07a.85.85,0,0,1-.36.39.9.9,0,0,1-.47.13.79.79,0,0,1-.5-.16.66.66,0,0,1-.26-.39,3.45,3.45,0,0,1-.06-.78V43.46h-.46v-.18A.77.77,0,0,0,65.4,43a1.27,1.27,0,0,0,.33-.73h.12v1h1Z"/><path class="cls-2" d="M70.48,45.9h.14c0,.44-.24.67-.65.67a.57.57,0,0,1-.42-.15.7.7,0,0,1-.21-.41,3.86,3.86,0,0,1-.71.41,1.35,1.35,0,0,1-.57.15.88.88,0,0,1-.56-.19.61.61,0,0,1-.24-.5.85.85,0,0,1,.4-.7,4.79,4.79,0,0,1,1.08-.59l.6-.24v-.16a1.88,1.88,0,0,0,0-.48.5.5,0,0,0-.22-.27.93.93,0,0,0-.47-.11q-.58,0-.66.39c0,.26-.15.4-.32.4a.21.21,0,0,1-.24-.23.67.67,0,0,1,.31-.48,1.57,1.57,0,0,1,1-.25,1.62,1.62,0,0,1,.77.15.83.83,0,0,1,.36.36,1.53,1.53,0,0,1,.09.61v1.29a2.31,2.31,0,0,0,0,.58.2.2,0,0,0,.21.13C70.33,46.28,70.44,46.15,70.48,45.9Zm-1.14-1.37-.42.17c-.67.28-1,.62-1,1a.57.57,0,0,0,.13.4.43.43,0,0,0,.34.15,1,1,0,0,0,.42-.12,3.15,3.15,0,0,0,.54-.36Z"/><path class="cls-2" d="M72,44a1.28,1.28,0,0,1,.43-.58.92.92,0,0,1,.58-.23.53.53,0,0,1,.41.16.45.45,0,0,1,.15.32.3.3,0,0,1-.08.2.26.26,0,0,1-.19.08c-.13,0-.22-.1-.29-.29s-.12-.19-.21-.19a.66.66,0,0,0-.41.22,1.27,1.27,0,0,0-.3.48,3,3,0,0,0-.06.68v.57c0,.34,0,.55,0,.64a.27.27,0,0,0,.11.2.61.61,0,0,0,.35.07h.11v.18H71V46.3H71a.71.71,0,0,0,.34-.06.29.29,0,0,0,.12-.18c0-.08,0-.3,0-.67v-.91c0-.34,0-.56,0-.64a.27.27,0,0,0-.11-.21.68.68,0,0,0-.35-.07H71v-.17a5.84,5.84,0,0,0,1-.23A2.44,2.44,0,0,1,72,44Z"/><path class="cls-2" d="M75.82,43.46h-1V45.4a3.6,3.6,0,0,0,0,.6.41.41,0,0,0,.17.24.39.39,0,0,0,.27.1.6.6,0,0,0,.49-.32l.12.07a.85.85,0,0,1-.36.39.9.9,0,0,1-.47.13.79.79,0,0,1-.5-.16.66.66,0,0,1-.26-.39,3.45,3.45,0,0,1-.06-.78V43.46h-.46v-.18A.77.77,0,0,0,74.4,43a1.27,1.27,0,0,0,.33-.73h.12v1h1Z"/><path class="cls-2" d="M45.88,82.22H44.46a6.25,6.25,0,0,1-1.16-1.39c-.17-.24-.34-.47-.52-.69a2.65,2.65,0,0,0-.37-.4.56.56,0,0,0-.32-.07h-.21v1.18a6.74,6.74,0,0,0,0,.81.4.4,0,0,0,.16.29.87.87,0,0,0,.48.09h.26v.18H40.27V82h.17a.87.87,0,0,0,.47-.08.39.39,0,0,0,.17-.27,6.9,6.9,0,0,0,0-.84v-2.6a6.72,6.72,0,0,0,0-.82.33.33,0,0,0-.16-.25,1.16,1.16,0,0,0-.52-.07h-.09v-.18l.76,0c.5,0,.9,0,1.2,0A4.52,4.52,0,0,1,43.5,77a1.75,1.75,0,0,1,.77.46,1.09,1.09,0,0,1,.29.77,1.17,1.17,0,0,1-.38.89,1.92,1.92,0,0,1-1.12.45,4.61,4.61,0,0,1,1.07,1.16,5.44,5.44,0,0,0,.94,1.06,1.4,1.4,0,0,0,.81.26Zm-4-2.73.61,0a2.17,2.17,0,0,0,.54-.09.85.85,0,0,0,.6-.56,1.62,1.62,0,0,0,.08-.54,1.32,1.32,0,0,0-.28-.89,1.57,1.57,0,0,0-1.22-.34l-.33,0Z"/><path class="cls-2" d="M48.73,80.11H46.5c0,.15,0,.26,0,.34a2.51,2.51,0,0,0,.26,1.27.88.88,0,0,0,.79.42,1,1,0,0,0,1-.63h.19a1.13,1.13,0,0,1-.5.62,1.54,1.54,0,0,1-.81.22,1.57,1.57,0,0,1-.76-.2,1.67,1.67,0,0,1-.6-.58,1.76,1.76,0,0,1-.23-.91,1.8,1.8,0,0,1,.45-1.26,1.4,1.4,0,0,1,1.11-.5,1.2,1.2,0,0,1,1,.38A1.34,1.34,0,0,1,48.73,80.11ZM48,80a1,1,0,0,0,0-.16.66.66,0,0,0-.21-.53.66.66,0,0,0-.49-.19c-.47,0-.76.29-.85.88Z"/><path class="cls-2" d="M50.26,76.85v4.28c0,.34,0,.55,0,.64a.27.27,0,0,0,.11.2.63.63,0,0,0,.35.07h.09v.18H49.11V82h.11a.71.71,0,0,0,.34-.06.29.29,0,0,0,.12-.18c0-.08,0-.3,0-.67V78a1.33,1.33,0,0,0-.09-.63c-.06-.09-.21-.13-.44-.13V77a3.15,3.15,0,0,0,.56-.06,1.6,1.6,0,0,0,.44-.11Z"/><path class="cls-2" d="M54.47,81.64h.15c0,.44-.24.67-.66.67a.63.63,0,0,1-.42-.14.75.75,0,0,1-.2-.42,5.2,5.2,0,0,1-.71.42,1.57,1.57,0,0,1-.58.14.92.92,0,0,1-.56-.19.63.63,0,0,1-.23-.5.87.87,0,0,1,.39-.7,4.67,4.67,0,0,1,1.09-.59l.6-.24v-.16a1.88,1.88,0,0,0,0-.48.44.44,0,0,0-.23-.26.8.8,0,0,0-.47-.12c-.39,0-.61.13-.65.39s-.15.4-.33.4a.21.21,0,0,1-.24-.23.69.69,0,0,1,.32-.48,1.55,1.55,0,0,1,1-.25,1.59,1.59,0,0,1,.77.15.86.86,0,0,1,.37.36,1.79,1.79,0,0,1,.08.61v1.29a2.15,2.15,0,0,0,.05.58.19.19,0,0,0,.2.13C54.32,82,54.43,81.89,54.47,81.64Zm-1.13-1.37-.43.17c-.67.28-1,.62-1,1a.57.57,0,0,0,.13.4.4.4,0,0,0,.33.15,1,1,0,0,0,.43-.12,3.15,3.15,0,0,0,.54-.36Z"/><path class="cls-2" d="M56.7,81.62l.74-1.78a2.54,2.54,0,0,0,.16-.43c0-.13-.15-.2-.44-.21V79h1.13v.17a.58.58,0,0,0-.38.14,2.16,2.16,0,0,0-.3.56l-1.43,3.45a2.43,2.43,0,0,1-.36.67.47.47,0,0,1-.34.17c-.17,0-.26-.07-.26-.23s.14-.32.41-.45a1.18,1.18,0,0,0,.32-.18,1,1,0,0,0,.16-.27l.3-.76-1.2-2.58a1.6,1.6,0,0,0-.27-.43.56.56,0,0,0-.36-.09V79h1.47v.17c-.26,0-.39.07-.39.16a2.13,2.13,0,0,0,.16.39Z"/><path class="cls-2" d="M60.67,78.2h-.18l0-1.27h5.14l0,1.27h-.17a1.85,1.85,0,0,0-.25-.75.63.63,0,0,0-.33-.29,2.32,2.32,0,0,0-.62,0h-.85v3.74a6.74,6.74,0,0,0,0,.81.4.4,0,0,0,.16.29.94.94,0,0,0,.49.09h.25v.18H61.76V82H62a.92.92,0,0,0,.47-.08.41.41,0,0,0,.16-.27,4.81,4.81,0,0,0,0-.84V77.11h-.78a2.71,2.71,0,0,0-.69,0,.59.59,0,0,0-.33.29A2.19,2.19,0,0,0,60.67,78.2Z"/><path class="cls-2" d="M68.25,80.11H66c0,.15,0,.26,0,.34a2.4,2.4,0,0,0,.27,1.27.87.87,0,0,0,.79.42,1,1,0,0,0,1-.63h.19a1.09,1.09,0,0,1-.5.62,1.48,1.48,0,0,1-.8.22,1.61,1.61,0,0,1-.77-.2,1.64,1.64,0,0,1-.59-.58,1.67,1.67,0,0,1-.23-.91,1.79,1.79,0,0,1,.44-1.26,1.41,1.41,0,0,1,1.11-.5,1.24,1.24,0,0,1,1,.38A1.27,1.27,0,0,1,68.25,80.11ZM67.57,80c0-.06,0-.11,0-.16a.67.67,0,0,0-.7-.72c-.47,0-.75.29-.84.88Z"/><path class="cls-2" d="M69.89,79.71a1.36,1.36,0,0,1,.43-.58.92.92,0,0,1,.58-.23.53.53,0,0,1,.41.16.45.45,0,0,1,.15.32.28.28,0,0,1-.08.2.25.25,0,0,1-.18.08c-.13,0-.23-.09-.3-.29s-.12-.19-.21-.19a.6.6,0,0,0-.4.23,1,1,0,0,0-.3.47,2.44,2.44,0,0,0-.07.68v.57c0,.34,0,.55,0,.64A.27.27,0,0,0,70,82a.63.63,0,0,0,.35.07h.11v.18H68.8V82h.08a.71.71,0,0,0,.34-.06.29.29,0,0,0,.12-.18c0-.08,0-.3,0-.67v-.91c0-.34,0-.56,0-.64a.27.27,0,0,0-.11-.21.68.68,0,0,0-.35-.07H68.8v-.17a5.84,5.84,0,0,0,1-.23A2.44,2.44,0,0,1,69.89,79.71Z"/><path class="cls-2" d="M72.88,78.9h0a1.58,1.58,0,0,1,.12.67,1.9,1.9,0,0,1,.56-.51,1.33,1.33,0,0,1,.65-.16,1.05,1.05,0,0,1,.64.18.92.92,0,0,1,.35.53,2.22,2.22,0,0,1,.6-.53,1.3,1.3,0,0,1,.64-.18,1.06,1.06,0,0,1,.63.17.64.64,0,0,1,.31.39,2.92,2.92,0,0,1,.06.71v1c0,.37,0,.6,0,.68a.26.26,0,0,0,.12.18A.91.91,0,0,0,78,82v.18h-1.6V82a.8.8,0,0,0,.36-.05.27.27,0,0,0,.13-.17c0-.08,0-.31,0-.69V80.06a2,2,0,0,0,0-.49.47.47,0,0,0-.19-.28.66.66,0,0,0-.41-.12.88.88,0,0,0-.51.18,2,2,0,0,0-.51.51v1.27c0,.34,0,.55,0,.64a.29.29,0,0,0,.11.2.59.59,0,0,0,.34.07v.18H74.18V82a.8.8,0,0,0,.36-.05.25.25,0,0,0,.13-.17,4.23,4.23,0,0,0,0-.69v-.89a3,3,0,0,0,0-.61.53.53,0,0,0-.2-.33.64.64,0,0,0-.42-.13.89.89,0,0,0-.49.16,2.12,2.12,0,0,0-.51.46v1.34c0,.35,0,.57,0,.65a.27.27,0,0,0,.12.2.78.78,0,0,0,.36.06v.18H72V82a.8.8,0,0,0,.36-.05.23.23,0,0,0,.12-.17,4.32,4.32,0,0,0,0-.69v-1c0-.37,0-.59,0-.67a.26.26,0,0,0-.12-.19.8.8,0,0,0-.37-.06v-.18A4.49,4.49,0,0,0,72.88,78.9Z"/><path class="cls-2" d="M79.47,78.9v2.23c0,.34,0,.55,0,.64a.24.24,0,0,0,.11.2A.59.59,0,0,0,80,82H80v.18H78.31V82h.13A.53.53,0,0,0,78.8,82a.27.27,0,0,0,.1-.19c0-.07,0-.29,0-.64v-1a2.78,2.78,0,0,0,0-.69c0-.08-.08-.14-.14-.16a1.09,1.09,0,0,0-.31,0h-.1V79.1a4.44,4.44,0,0,0,1.07-.2Zm-.75-1.64a.44.44,0,0,1,.11-.29.41.41,0,0,1,.58,0,.39.39,0,0,1,.11.29.4.4,0,0,1-.69.3A.44.44,0,0,1,78.72,77.26Z"/><path class="cls-2" d="M81.28,78.9h.11a2.18,2.18,0,0,1,.1.66,1.92,1.92,0,0,1,.59-.5,1.32,1.32,0,0,1,.64-.16,1.09,1.09,0,0,1,.63.16.65.65,0,0,1,.31.39,2.28,2.28,0,0,1,.08.68v1c0,.37,0,.59,0,.67a.27.27,0,0,0,.13.18.82.82,0,0,0,.38.06v.18H82.62V82h.08c.18,0,.31,0,.36-.08a.3.3,0,0,0,.1-.19c0-.07,0-.29,0-.64v-1a3.45,3.45,0,0,0,0-.55.59.59,0,0,0-.2-.28.64.64,0,0,0-.42-.13,1,1,0,0,0-.54.17,2,2,0,0,0-.49.51v1.31c0,.37,0,.59,0,.67a.27.27,0,0,0,.13.18A.79.79,0,0,0,82,82v.18H80.4V82a.88.88,0,0,0,.38-.05.25.25,0,0,0,.13-.17,4.78,4.78,0,0,0,0-.69v-1a4.6,4.6,0,0,0,0-.67.23.23,0,0,0-.12-.18.87.87,0,0,0-.39-.06v-.18A7.24,7.24,0,0,0,81.28,78.9Z"/><path class="cls-2" d="M88,81.64h.15c0,.44-.24.67-.66.67a.64.64,0,0,1-.42-.14.75.75,0,0,1-.2-.42,5.2,5.2,0,0,1-.71.42,1.57,1.57,0,0,1-.58.14.92.92,0,0,1-.56-.19.63.63,0,0,1-.23-.5.87.87,0,0,1,.39-.7,4.67,4.67,0,0,1,1.09-.59l.6-.24v-.16a1.88,1.88,0,0,0,0-.48.45.45,0,0,0-.22-.26.85.85,0,0,0-.48-.12c-.39,0-.6.13-.65.39s-.15.4-.33.4a.21.21,0,0,1-.24-.23.69.69,0,0,1,.32-.48,1.55,1.55,0,0,1,1-.25,1.59,1.59,0,0,1,.77.15.86.86,0,0,1,.37.36,1.79,1.79,0,0,1,.08.61v1.29a2.15,2.15,0,0,0,.05.58.19.19,0,0,0,.2.13C87.81,82,87.91,81.89,88,81.64Zm-1.13-1.37-.42.17c-.68.28-1,.62-1,1a.57.57,0,0,0,.13.4.4.4,0,0,0,.33.15,1,1,0,0,0,.43-.12,3.15,3.15,0,0,0,.54-.36Z"/><path class="cls-2" d="M90.3,79.2h-1v1.94a3.5,3.5,0,0,0,0,.6.47.47,0,0,0,.17.25.44.44,0,0,0,.27.09.6.6,0,0,0,.49-.32l.12.07a.84.84,0,0,1-.35.39,1,1,0,0,1-.48.13.81.81,0,0,1-.5-.16.66.66,0,0,1-.26-.39,3.45,3.45,0,0,1-.06-.78V79.2h-.46V79a.85.85,0,0,0,.57-.27,1.34,1.34,0,0,0,.33-.74h.12v1h1Z"/><path class="cls-2" d="M91.72,78.9v2.23c0,.34,0,.55,0,.64a.27.27,0,0,0,.11.2.61.61,0,0,0,.35.07h.08v.18H90.56V82h.13c.19,0,.31,0,.36-.08a.27.27,0,0,0,.1-.19c0-.07,0-.29,0-.64v-1a2.34,2.34,0,0,0,0-.69.25.25,0,0,0-.14-.16,1.09,1.09,0,0,0-.31,0h-.1V79.1a4.64,4.64,0,0,0,1.08-.2ZM91,77.26a.4.4,0,0,1,.12-.29.38.38,0,0,1,.29-.12.38.38,0,0,1,.28.12.4.4,0,0,1,.12.29.41.41,0,0,1-.12.3.38.38,0,0,1-.28.12.38.38,0,0,1-.29-.12A.41.41,0,0,1,91,77.26Z"/><path class="cls-2" d="M92.73,80.62a1.71,1.71,0,0,1,.49-1.23,1.71,1.71,0,0,1,2.92,1.23,1.62,1.62,0,0,1-.5,1.27,1.69,1.69,0,0,1-1.21.46,1.66,1.66,0,0,1-1.7-1.73Zm.65,0a1.89,1.89,0,0,0,.28,1.19.92.92,0,0,0,.77.34.94.94,0,0,0,.79-.34,2,2,0,0,0,.27-1.19,2,2,0,0,0-.27-1.2.92.92,0,0,0-.79-.36.93.93,0,0,0-.78.35A2.06,2.06,0,0,0,93.38,80.64Z"/><path class="cls-2" d="M97.54,78.9h.1a1.91,1.91,0,0,1,.1.66,2,2,0,0,1,.59-.5A1.36,1.36,0,0,1,99,78.9a1.08,1.08,0,0,1,.62.16.67.67,0,0,1,.32.39,2.35,2.35,0,0,1,.07.68v1c0,.37,0,.59,0,.67a.23.23,0,0,0,.12.18.85.85,0,0,0,.38.06v.18H98.88V82H99a.54.54,0,0,0,.37-.08.28.28,0,0,0,.09-.19c0-.07,0-.29,0-.64v-1a3.16,3.16,0,0,0,0-.55.48.48,0,0,0-.2-.28.61.61,0,0,0-.41-.13,1,1,0,0,0-.55.17,2.18,2.18,0,0,0-.49.51v1.31c0,.37,0,.59,0,.67a.27.27,0,0,0,.13.18.85.85,0,0,0,.38.06v.18H96.66V82A.83.83,0,0,0,97,82a.23.23,0,0,0,.13-.17,4.14,4.14,0,0,0,0-.69v-1c0-.37,0-.6,0-.67a.27.27,0,0,0-.13-.18.85.85,0,0,0-.38-.06v-.18A7.65,7.65,0,0,0,97.54,78.9Z"/><path class="cls-2" d="M106.13,79h1.67v.17a1.31,1.31,0,0,0-.55.31,2.29,2.29,0,0,0-.49.82,4.06,4.06,0,0,1-.38.74,3.27,3.27,0,0,0,.65.76,1,1,0,0,0,.51.16.65.65,0,0,0,.57-.35h.18a1,1,0,0,1-.36.52,1,1,0,0,1-.61.19,1.65,1.65,0,0,1-1.34-.76,2,2,0,0,1-1.46.76,1.29,1.29,0,0,1-.54-.1,1.5,1.5,0,0,1-.48-.3,1.41,1.41,0,0,1-.34-.46,1.16,1.16,0,0,1-.12-.59,1.26,1.26,0,0,1,.26-.82,4.94,4.94,0,0,1,1-.84,2,2,0,0,1-.46-1.16,1,1,0,0,1,.31-.72A1.07,1.07,0,0,1,105,77a1.27,1.27,0,0,1,.76.24.73.73,0,0,1,.34.62c0,.4-.37.79-1.12,1.17l.67.93.64.89a2.86,2.86,0,0,0,.35-.64,1.48,1.48,0,0,0,.13-.53c0-.3-.2-.47-.61-.52Zm-1.68.37a2.09,2.09,0,0,0-.63.58,1.2,1.2,0,0,0-.23.65,1.35,1.35,0,0,0,.39.91,1.17,1.17,0,0,0,.88.42,1.34,1.34,0,0,0,1-.53c-.28-.42-.53-.8-.77-1.14S104.64,79.66,104.45,79.4Zm.39-.48c.52-.3.78-.63.78-1a.88.88,0,0,0-.05-.29.65.65,0,0,0-.13-.23.48.48,0,0,0-.2-.14.53.53,0,0,0-.25,0,.58.58,0,0,0-.46.19.65.65,0,0,0-.17.46A2,2,0,0,0,104.84,78.92Z"/><path class="cls-2" d="M112.11,79.73v1.12a6.74,6.74,0,0,0,0,.81.43.43,0,0,0,.15.29.94.94,0,0,0,.49.09H113v.18h-2.42V82h.14a.9.9,0,0,0,.47-.08.42.42,0,0,0,.17-.27,6.9,6.9,0,0,0,0-.84v-2.6a6.72,6.72,0,0,0,0-.82.36.36,0,0,0-.16-.25,1.19,1.19,0,0,0-.52-.07h-.1v-.18l.66,0,1.24,0a4.65,4.65,0,0,1,1.27.13,1.39,1.39,0,0,1,.72.45,1.23,1.23,0,0,1,.29.83,1.52,1.52,0,0,1-.2.77,1.17,1.17,0,0,1-.55.5,3.35,3.35,0,0,1-1.27.17Zm0-.19h.38a2.41,2.41,0,0,0,.73-.09.89.89,0,0,0,.47-.39,1.29,1.29,0,0,0,.19-.72,1.32,1.32,0,0,0-.32-1,1.53,1.53,0,0,0-1-.3h-.4Z"/><path class="cls-2" d="M118.24,79v2.09c0,.35,0,.57,0,.66a.29.29,0,0,0,.11.2.78.78,0,0,0,.36.06v.18a2.56,2.56,0,0,0-.87.13h0a1.57,1.57,0,0,1-.14-.74,1.81,1.81,0,0,1-.54.56,1.3,1.3,0,0,1-.68.18,1.13,1.13,0,0,1-.56-.14.78.78,0,0,1-.34-.36,1.7,1.7,0,0,1-.09-.64V80.12c0-.37,0-.59,0-.67a.27.27,0,0,0-.13-.19.82.82,0,0,0-.38-.06V79H116v2.21a1.88,1.88,0,0,0,0,.48.42.42,0,0,0,.2.26.65.65,0,0,0,.37.11.9.9,0,0,0,.57-.2,1.07,1.07,0,0,0,.37-.41,1.53,1.53,0,0,0,.1-.63v-.73c0-.35,0-.56,0-.63a.3.3,0,0,0-.1-.2.52.52,0,0,0-.36-.09h-.08V79Z"/><path class="cls-2" d="M119.7,82.35h-.15V78.07c0-.31,0-.51,0-.6a.31.31,0,0,0-.13-.21.78.78,0,0,0-.36-.06V77a3.15,3.15,0,0,0,.55-.06,1.5,1.5,0,0,0,.44-.11h.08v2.53a2.2,2.2,0,0,1,.56-.36,1.52,1.52,0,0,1,1.7.36,1.71,1.71,0,0,1,.44,1.22,1.79,1.79,0,0,1-.45,1.25,1.49,1.49,0,0,1-1.18.5,1.26,1.26,0,0,1-.62-.15,1.12,1.12,0,0,1-.45-.44A2.49,2.49,0,0,0,119.7,82.35Zm.41-2.74v1.26a2.83,2.83,0,0,0,.07.7.8.8,0,0,0,.31.4.88.88,0,0,0,.57.2,1,1,0,0,0,.81-.41,2,2,0,0,0,.29-1.2,1.81,1.81,0,0,0-.27-1.08.9.9,0,0,0-.75-.38,1.21,1.21,0,0,0-.52.13A1.87,1.87,0,0,0,120.11,79.61Z"/><path class="cls-2" d="M124.25,76.85v4.28c0,.34,0,.55,0,.64a.25.25,0,0,0,.12.2.57.57,0,0,0,.34.07h.1v.18h-1.71V82h.11a.69.69,0,0,0,.33-.06.23.23,0,0,0,.12-.18c0-.08,0-.3,0-.67V78a1.33,1.33,0,0,0-.09-.63c-.06-.09-.21-.13-.44-.13V77a3.06,3.06,0,0,0,.56-.06,1.5,1.5,0,0,0,.44-.11Z"/><path class="cls-2" d="M126.23,78.9v2.23c0,.34,0,.55,0,.64a.27.27,0,0,0,.11.2.61.61,0,0,0,.35.07h.08v.18h-1.72V82h.13c.19,0,.31,0,.36-.08a.27.27,0,0,0,.1-.19c0-.07,0-.29,0-.64v-1a2.34,2.34,0,0,0,0-.69c0-.08-.08-.14-.14-.16a1.09,1.09,0,0,0-.31,0h-.1V79.1a4.64,4.64,0,0,0,1.08-.2Zm-.75-1.64a.4.4,0,0,1,.12-.29.38.38,0,0,1,.28-.12.38.38,0,0,1,.29.12.4.4,0,0,1,.12.29.41.41,0,0,1-.12.3.38.38,0,0,1-.29.12.38.38,0,0,1-.28-.12A.41.41,0,0,1,125.48,77.26Z"/><path class="cls-2" d="M130,81.44h.17a1.22,1.22,0,0,1-1.33.91,1.58,1.58,0,0,1-1.15-.46,1.66,1.66,0,0,1-.46-1.23,1.73,1.73,0,0,1,.5-1.28,1.67,1.67,0,0,1,1.19-.48,1.61,1.61,0,0,1,.76.18c.24.12.35.27.35.44a.28.28,0,0,1-.06.18.23.23,0,0,1-.19.09c-.17,0-.28-.1-.31-.3a.64.64,0,0,0-.15-.32.62.62,0,0,0-.39-.09.9.9,0,0,0-.79.37,1.81,1.81,0,0,0-.26,1.09,2.1,2.1,0,0,0,.28,1.18,1,1,0,0,0,.86.43A.93.93,0,0,0,130,81.44Z"/><path class="cls-2" d="M133.88,81.64H134c0,.44-.24.67-.66.67a.64.64,0,0,1-.42-.14.75.75,0,0,1-.2-.42,5.2,5.2,0,0,1-.71.42,1.57,1.57,0,0,1-.58.14.92.92,0,0,1-.56-.19.63.63,0,0,1-.23-.5.87.87,0,0,1,.39-.7,4.67,4.67,0,0,1,1.09-.59l.6-.24v-.16a1.88,1.88,0,0,0,0-.48.45.45,0,0,0-.22-.26.85.85,0,0,0-.48-.12c-.39,0-.6.13-.65.39s-.15.4-.33.4a.21.21,0,0,1-.24-.23.69.69,0,0,1,.32-.48,1.55,1.55,0,0,1,1-.25,1.59,1.59,0,0,1,.77.15.86.86,0,0,1,.37.36,1.79,1.79,0,0,1,.08.61v1.29a2.15,2.15,0,0,0,.05.58.19.19,0,0,0,.2.13C133.74,82,133.84,81.89,133.88,81.64Zm-1.13-1.37-.43.17c-.67.28-1,.62-1,1a.57.57,0,0,0,.13.4.4.4,0,0,0,.33.15,1,1,0,0,0,.43-.12,3.15,3.15,0,0,0,.54-.36Z"/><path class="cls-2" d="M136.23,79.2h-1v1.94a3.5,3.5,0,0,0,0,.6.47.47,0,0,0,.17.25.44.44,0,0,0,.27.09.6.6,0,0,0,.49-.32l.12.07a.81.81,0,0,1-.36.39.9.9,0,0,1-.47.13.79.79,0,0,1-.5-.16.66.66,0,0,1-.26-.39,3.45,3.45,0,0,1-.06-.78V79.2h-.46V79a.85.85,0,0,0,.57-.27,1.34,1.34,0,0,0,.33-.74h.12v1h1Z"/><path class="cls-2" d="M137.65,78.9v2.23c0,.34,0,.55,0,.64a.27.27,0,0,0,.11.2.61.61,0,0,0,.35.07h.08v.18h-1.72V82h.13c.19,0,.31,0,.36-.08a.27.27,0,0,0,.1-.19c0-.07,0-.29,0-.64v-1a2.34,2.34,0,0,0-.05-.69.25.25,0,0,0-.14-.16,1.09,1.09,0,0,0-.31,0h-.1V79.1a4.64,4.64,0,0,0,1.08-.2Zm-.75-1.64A.4.4,0,0,1,137,77a.38.38,0,0,1,.29-.12.38.38,0,0,1,.28.12.4.4,0,0,1,.12.29.41.41,0,0,1-.12.3.38.38,0,0,1-.28.12.38.38,0,0,1-.29-.12A.41.41,0,0,1,136.9,77.26Z"/><path class="cls-2" d="M138.66,80.62a1.67,1.67,0,0,1,1.7-1.72,1.64,1.64,0,0,1,1.22.49,1.67,1.67,0,0,1,.49,1.23,1.62,1.62,0,0,1-.5,1.27,1.69,1.69,0,0,1-1.21.46,1.66,1.66,0,0,1-1.7-1.73Zm.65,0a1.89,1.89,0,0,0,.28,1.19.92.92,0,0,0,.77.34.94.94,0,0,0,.79-.34,2,2,0,0,0,.27-1.19,2,2,0,0,0-.27-1.2.92.92,0,0,0-.79-.36.93.93,0,0,0-.78.35A2.06,2.06,0,0,0,139.31,80.64Z"/><path class="cls-2" d="M143.47,78.9h.1a2.18,2.18,0,0,1,.1.66,2,2,0,0,1,.59-.5,1.36,1.36,0,0,1,.65-.16,1.08,1.08,0,0,1,.62.16.67.67,0,0,1,.32.39,2.35,2.35,0,0,1,.07.68v1c0,.37,0,.59,0,.67a.23.23,0,0,0,.12.18.85.85,0,0,0,.38.06v.18h-1.63V82h.07a.54.54,0,0,0,.37-.08.28.28,0,0,0,.09-.19c0-.07,0-.29,0-.64v-1a3.16,3.16,0,0,0,0-.55.53.53,0,0,0-.2-.28.63.63,0,0,0-.41-.13,1,1,0,0,0-.55.17,2.18,2.18,0,0,0-.49.51v1.31c0,.37,0,.59,0,.67a.27.27,0,0,0,.13.18.85.85,0,0,0,.38.06v.18h-1.61V82A.83.83,0,0,0,143,82a.23.23,0,0,0,.13-.17,4.14,4.14,0,0,0,0-.69v-1c0-.37,0-.6,0-.67a.27.27,0,0,0-.13-.18.85.85,0,0,0-.38-.06v-.18A7.65,7.65,0,0,0,143.47,78.9Z"/><circle class="cls-3" cx="314.97" cy="82.44" r="14.04"/><circle class="cls-3" cx="260.43" cy="32.05" r="14.04"/><circle class="cls-3" cx="181.5" cy="59.4" r="14.04"/><circle class="cls-4" cx="149.31" cy="215.8" r="14.04"/><circle class="cls-3" cx="342.01" cy="146.07" r="14.04"/><circle class="cls-3" cx="260.43" cy="173.48" r="14.04"/><circle class="cls-3" cx="209.63" cy="121.58" r="14.04"/><line class="cls-1" x1="300.94" y1="69.53" x2="274.51" y2="44.95"/><polyline class="cls-1" points="278.01 44.54 274.06 44.69 274.2 48.74"/><line class="cls-5" x1="188.84" y1="75.27" x2="202.05" y2="104.97"/><polyline class="cls-1" points="198.67 103.97 202.36 105.39 203.81 101.6"/><line class="cls-1" x1="239.89" y1="30.89" x2="196.37" y2="45.78"/><polyline class="cls-6" points="197.67 42.51 195.93 46.06 199.57 47.84"/><path class="cls-2" d="M320.25,19.45h0V15.87a2.07,2.07,0,0,0-2.07-2.07H307.88a2.08,2.08,0,0,0-2.08,2.07v1.44h0a.07.07,0,0,0-.07.07v.89a.08.08,0,0,0,.07.07h0v1.13h0a.07.07,0,0,0-.07.07v1.77a.07.07,0,0,0,.07.07h0v.42h0a.07.07,0,0,0-.07.07v1.78a.07.07,0,0,0,.07.07h0V41.05a2.07,2.07,0,0,0,2.08,2.07h10.27a2.07,2.07,0,0,0,2.07-2.07V21.35h0a.07.07,0,0,0,.07-.07V19.52A.07.07,0,0,0,320.25,19.45Zm-8.5-3.92h2.44a.09.09,0,0,1,.09.08.1.1,0,0,1-.09.08h-2.44a.09.09,0,0,1-.08-.08A.08.08,0,0,1,311.75,15.53Zm-1.22-.13a.2.2,0,0,1,.21.2h0a.2.2,0,0,1-.21.2.2.2,0,0,1-.2-.2.2.2,0,0,1,.2-.21ZM313,42.26a1,1,0,0,1,0-2,1,1,0,0,1,1,1h0A1,1,0,0,1,313,42.26Zm6.35-2.53H306.64V17.15h12.72Z"/><line class="cls-1" x1="332.69" y1="130.26" x2="319.8" y2="99.95"/><polyline class="cls-6" points="323.17 101.01 319.5 99.53 317.98 103.3"/><line class="cls-1" x1="244.33" y1="161.56" x2="222.38" y2="139.43"/><polyline class="cls-1" points="225.9 139.22 221.95 139.14 221.87 143.2"/><line class="cls-5" x1="227.1" y1="135.2" x2="249.05" y2="157.33"/><polyline class="cls-1" points="245.53 157.53 249.48 157.61 249.56 153.56"/><line class="cls-1" x1="229.81" y1="125.62" x2="321.41" y2="142.7"/><polyline class="cls-1" points="318.67 144.92 321.93 142.68 319.64 139.34"/><line class="cls-1" x1="170.02" y1="77.04" x2="146.03" y2="194.49"/><polyline class="cls-6" points="143.88 191.7 146.04 195.01 149.44 192.79"/><line class="cls-5" x1="164.48" y1="203.52" x2="239.78" y2="173.77"/><polyline class="cls-1" points="238.62 177.1 240.21 173.48 236.49 171.85"/><line class="cls-5" x1="321.41" y1="153.19" x2="278.45" y2="168.13"/><polyline class="cls-1" points="279.73 164.84 278.01 168.4 281.66 170.17"/><line class="cls-5" x1="253.63" y1="48.09" x2="221.42" y2="104.78"/><polyline class="cls-1" points="220.22 101.46 221.27 105.28 225.18 104.2"/><line class="cls-5" x1="270.5" y1="156.2" x2="304.61" y2="100.63"/><polyline class="cls-1" points="305.7 103.99 304.78 100.14 300.83 101.08"/><line class="cls-1" x1="9.81" y1="97.92" x2="32.65" y2="97.92"/><polyline class="cls-6" points="30.36 100.6 33.15 97.8 30.28 94.93"/><line class="cls-7" x1="301.61" y1="28.46" x2="278.78" y2="28.46"/><polyline class="cls-8" points="281.06 25.78 278.27 28.58 281.14 31.45"/><line class="cls-9" x1="10.06" y1="61.68" x2="32.9" y2="61.68"/><line class="cls-5" x1="9.81" y1="115.28" x2="32.65" y2="115.28"/><polyline class="cls-6" points="30.36 117.97 33.15 115.17 30.28 112.3"/><circle class="cls-10" cx="260.43" cy="32.05" r="2.77"/><circle class="cls-3" cx="21.92" cy="25.73" r="6.88"/><line class="cls-9" x1="15.04" y1="43.71" x2="32.9" y2="43.71"/><circle class="cls-10" cx="12.45" cy="43.71" r="2.77"/><line class="cls-9" x1="10.55" y1="79.74" x2="32.52" y2="79.74"/><line class="cls-9" x1="33.28" y1="82.92" x2="33.28" y2="76.08"/><line class="cls-5" x1="325.33" y1="98.25" x2="338.22" y2="128.55"/><polyline class="cls-1" points="334.85 127.5 338.52 128.97 340.04 125.21"/></g><g id="Layer_2" data-name="Layer 2"><polyline class="cls-9" points="260.43 32.05 181.5 59.4 149.31 217.82 260.43 173.48"/><line class="cls-9" x1="263.57" y1="179.34" x2="258.89" y2="167.61"/></g></svg>