<?xml-stylesheet type="text/css" href="../graph.css"?><svg xmlns="http://www.w3.org/2000/svg" viewBox="0 0 2400 1800"><path fill="#eee" d="M0 0h2400v1500H0z"/><path d="M0 0h2400v1500H0z"/><path fill="#009d51" d="M0 0h366l6 .15h162l6 .15h18l6 .15h66l6 .15 6 .15h6l6 .15h18l6 .15h12l6 .3h12l6 .45h6l6 .15 6 .15h18l6 .15h12l6 .3h18l6 .15 6 .3 6 .6 6 .45 6 .6 6 .15 6 .15 6 .15h6l6 .15h6l6 .3 6 .15 6 .15 6 .6h6l6 .15 6 .3h6l6 .3 6 .15h6l6 .15h12l6 .3 6 .15 6 .3h12l6 .3h36l6 .15 6 .15h18l6 .15h66l6 .15h18l6 .15h12l6 .15h6l6 .15h108l6 .15h150l6 .15h954V1500H0"/><path fill="#8bb4b8" d="M0 0h132l6 .15h6l6 .15h30l6 .3 6 .3 6 .15h6l6 .15h6l6 .15h6l6 .3h12l6 .45 6 .3h6l6 .3 6 .3 6 .3 6 .45 6 .45h6l6 .3 6 .15 6 .3h6l6 .15h6l6 .3 6 .6 6 .6 6 .15 6 .3 6 .75 6 .6 6 .45 6 .6 6 .75 6 .45 6 .3 6 .45 6 .9 6 .6 6 1.8 6 .6 6 1.35 6 1.2 6 1.5 6 1.2 6 1.35 6 1.35 6 1.05 6 1.65 6 2.7 6 1.65 6 1.5 6 2.55 6 2.1 6 1.95 6 2.1 6 1.8 6 1.95 6 2.1 6 3.15 6 1.95 6 2.4 6 2.7 6 2.25 6 3.3 6 3.15 6 4.95 6 4.05 6 4.65 6 4.35 6 3.75 6 3.9 6 3.75 6 4.2 6 4.05 6 4.95 6 5.85 6 3.75 6 7.8 6 3.75 6 7.05 6 6.9 6 8.55 6 7.65 6 6.45 6 7.65 6 8.85 6 9.3 6 10.35 6 9 6 10.5 6 9.75 6 10.65 6 11.55 6 11.85 6 12.9 6 12.6 6 13.05 6 14.1 6 14.55 6 14.4 6 13.05 6 13.05 6 11.7 6 14.25 6 15.75 6 16.35 6 14.7 6 17.1 6 14.7 6 17.1 6 18.15 6 17.85 6 17.25 6 15 6 18.15 6 17.25 6 16.2 6 17.1 6 17.4 6 19.35 6 19.05 6 14.4 6 16.5 6 15.3 6 16.95 6 14.55 6 16.8 6 13.35 6 14.1 6 12 6 12.3 6 13.2 6 11.25 6 10.95 6 12.3 6 9 6 8.55 6 8.25 6 7.95 6 7.8 6 6.6 6 7.5 6 6.3 6 7.05 6 5.55 6 4.05 6 5.7 6 5.55 6 3.15 6 6 6 2.85 6 2.4 6 2.4 6 3.45 6 3.15 6 2.85 6 1.95 6 3.45 6 1.8 6 2.85 6 2.4 6 2.4 6 2.55 6 2.1 6 1.35 6 2.1 6 2.25 6 2.25 6 1.95 6 .75 6 1.5 6 1.05 6 1.35 6 1.35 6 1.2 6 1.65 6 1.2 6 1.35 6 1.35 6 .75 6 .45 6 .9 6 1.35 6 .45 6 .6 6 .45 6 .9 6 .75 6 .75 6 .6 6 .75 6 .15 6 .3 6 .3 6 .6 6 .6 6 .3 6 .75 6 .3 6 .3 6 .45 6 .3 6 .15h6l6 .9 6 .3 6 .6 6 .15 6 .15 6 .15 6 .75 6 .3 6 .15 6 .45 6 .15 6 .15 6 .15 6 .15 6 .3 6 .15 6 .3 6 .3h6l6 .15 6 .3 6 .15 6 .15 6 .3h18l6 .15h18l6 .15h6l6 .15h468l6 .15h288l6-.15h6V1500H0"/><path fill="#ff3945" d="M0 1500h36l6-.15h18l6-.15h6l6-.15 6-.15h12l6-.15h6l6-.45h12l6-.15 6 .15 6-.3h6l6-.15 6-.15 6-.3 6-.3 6-.3h12l6-.3 6-.6 6 .15 6-.15h6l6-.15 6 .3 6-.3 6-.15 6 .15 6-.45 6-.3 6 .15 6 .15 6-.45 6-.15 6-.45 6-.75 6-.45 6 .15 6-.15 6-.6 6-.6 6-.75 6-1.5 6-.9 6-.9 6-.6 6-1.2 6-.15 6-1.35 6-.9 6-1.35 6-1.2 6-1.05 6-.75 6-1.95 6-1.2 6-1.5h6l6-1.95 6-.6 6-.75 6-.15 6-.45 6-1.8 6-1.65 6-2.25 6-1.8 6-.3 6-1.95 6-2.4 6-.45 6-3 6-2.25 6-1.2 6-1.65 6-1.95 6-1.95 6-1.65 6-3.6 6-3.6 6-2.55 6-4.8 6-1.95 6-4.05 6-3.15 6-3.6 6-1.95 6-3.3 6-4.05 6-6.15 6-5.4 6-5.85 6-6.75 6-4.2 6-5.1 6-6.9 6-4.65 6-9 6-5.1 6-4.95 6-3.9 6-5.7 6-7.8 6-8.55 6-4.95 6-5.25 6-3.3 6-6 6-4.8 6-5.7 6-6.6 6-4.2 6-3 6-4.8 6-4.05 6-4.8 6-3.9 6-4.5 6-1.2 6-6.3 6-2.4 6-6.9 6-1.65 6-3.75 6 .3 6-.6 6 .6 6-2.7 6 4.35 6 2.4 6 1.95 6 2.55 6 3.3 6 3.3 6 5.4 6 6.45 6 4.65 6 7.65 6 10.65 6 8.7 6 7.5 6 7.65 6 7.2 6 7.95 6 8.4 6 10.35 6 7.2 6 7.8 6 5.55 6 7.65 6 8.25 6 7.5 6 7.2 6 8.7 6 4.8 6 6.15 6 6 6 5.55 6 5.85 6 3.3 6 4.95 6 4.05 6 4.5 6 3.6 6 .6 6 4.65 6 2.85 6 1.2 6 4.05 6 .3 6 .3 6 .9 6 1.5 6 2.55 6 1.05 6 1.35 6 2.25 6 .9 6 1.5 6 .3 6 1.05 6 1.65 6 .75 6-.15 6 1.95 6 1.35 6 1.65 6 1.65 6 .3 6 .45 6 .15 6 .6 6 .6 6 .9 6 1.35 6 .6 6 .75 6 .6 6 .6h6l6 .75 6 .9 6 .15 6 .15h6l6 .75 6 .3 6 .45 6 .3 6 .45 6-.15h6l6-.15 6 .45 6 .45 6-.15 6 .3 6 .15 6 .15 6 .3 6-.15 6-.15 6-.3 6 .9 6 .15 6 .45h6l6-.15 6-.15 6 .75h12l6 .3 6 .15 6 .15 6 .15 6 .15 6 .15 6 .15 6 .3 6 .3h12l6 .3 6 .15 6 .15 6 .3h18l6 .15h18l6 .15h6l6 .15h348l6-.15h114l6 .15h216l6-.15h66l6-.15h6v.3H0"/><path fill="#fff" d="M0 1500h2400v300H0z"/><path fill="#8bb4b8" d="M70 1575h100v100H70z"/><text font-size="60" font-weight="500" x="190" y="1630">Healthy</text><text font-size="60" font-weight="500" x="190" y="1710">29%</text><path fill="#ff3945" d="M550 1575h100v100H550z"/><text font-size="60" font-weight="500" x="670" y="1630">Infected</text><text font-size="60" font-weight="500" x="670" y="1710">71%</text><path fill="#009d51" d="M1030 1575h100v100h-100z"/><text font-size="60" font-weight="500" x="1150" y="1630">Recovered</text><path d="M1510 1575h100v100h-100z"/><text font-size="60" font-weight="500" x="1630" y="1630">Dead</text><text font-size="60" font-weight="500" x="1630" y="1710">0.7%</text><path fill="#eee" d="M1990 1575h100v100h-100z"/><text font-size="60" font-weight="500" x="2110" y="1630">Isolated</text><text font-size="60" font-weight="500" x="2110" y="1710">9%</text></svg>