<?xml-stylesheet type="text/css" href="../graph.css"?><svg xmlns="http://www.w3.org/2000/svg" viewBox="0 0 2400 1800"><path fill="#eee" d="M0 0h2400v1500H0z"/><path d="M0 0h2400v1500H0z"/><path fill="#009d51" d="M0 0h324l6 .15h72l6 .15h6l6 .15h12l6 .15h60l6 .15h6l6 .15h48l6 .15h12l6 .15 6 .15h6l6 .15h12l6 .15 6 .15h24l6 .15 6 .15 6 .15h24l6 .15 6 .15h6l6 .15 6 .15h6l6 .3 6 .15h18l6 .45h12l6 .3h6l6 .3 6 .15h6l6 .15 6 .15 6 .15 6 .3h6l6 .15 6 .3h6l6 .45 6 .15 6 .15 6 .3 6 .3 6 .3 6 .6 6 .15 6 .3 6 .45 6 .3 6 .15 6 .45h6l6 .15h6l6 .15 6 .15 6 .15 6 .15 6 .15h6l6 .3 6 .15h18l6 .3h30l6 .15h84l6 .15h6l6 .15h132l6 .15h1098v1488H0"/><path fill="#8bb4b8" d="M0 0h96l6 .15h126l6 .15h36l6 .15h6l6 .15h6l6 .15h18l6 .3 6 .15h6l6 .45h12l6 .3 6 .45 6 .45h6l6 .3 6 .9 6 .45 6 .3 6 .6 6 .15 6 1.05 6 .6 6 .45 6 1.05 6 .3 6 .75 6 .6 6 .9 6 .3 6 1.05 6 .3 6 1.05 6 .6 6 .75 6 1.2 6 .6 6 .9 6 1.05 6 1.2 6 1.05 6 1.35 6 1.95 6 2.25 6 2.25 6 2.4 6 2.25 6 2.1 6 2.7 6 2.25 6 2.85 6 3 6 4.2 6 3.45 6 3.9 6 4.8 6 5.4 6 5.55 6 4.95 6 5.7 6 5.4 6 6.75 6 6.45 6 6.15 6 7.5 6 7.5 6 8.55 6 9 6 9.3 6 9.15 6 9.9 6 10.2 6 7.5 6 11.1 6 11.7 6 12.45 6 12.3 6 13.8 6 12.9 6 12.3 6 13.8 6 15.6 6 14.4 6 15.45 6 17.4 6 16.8 6 19.35 6 14.7 6 18.9 6 16.95 6 18.45 6 22.05 6 19.5 6 18.6 6 20.4 6 19.35 6 20.1 6 21 6 21.75 6 22.5 6 18.3 6 22.5 6 19.2 6 22.8 6 19.35 6 18.6 6 18.9 6 21.3 6 22.8 6 22.95 6 16.2 6 15 6 17.4 6 17.1 6 15.6 6 15.45 6 16.35 6 13.5 6 15 6 12.45 6 12 6 11.85 6 11.55 6 9.3 6 9.75 6 8.25 6 7.65 6 8.1 6 6.3 6 8.25 6 7.5 6 6.45 6 4.5 6 7.65 6 4.65 6 5.7 6 3.45 6 4.95 6 5.55 6 3.45 6 3.75 6 1.95 6 3.15 6 2.1 6 3.15 6 2.85 6 2.4 6 2.1 6 2.1 6 2.1 6 2.7 6 1.5 6 1.5 6 1.35 6 1.2 6 1.5 6 1.95 6 1.2 6 1.2 6 1.05 6 1.65 6 1.65 6 1.05 6 .9 6 .6 6 .6 6 1.05 6 .3 6 .15 6 .6 6 .75 6 .3 6 .3 6 1.05 6 .3h6l6 .3 6 .15 6 .6 6 .3 6 .15 6 .3h18l6 .3 6 .15h6l6 .15 6 .6h36l6 .15 6 .15h78l6 .15h192l6 .15h492l6-.15h36l6-.15h18l6 .15h6l6-.15 6-.15h24l6 .15 6-.15h12l6-.15h6V1500H0"/><path fill="#ff3945" d="M0 1500l6-.15h90l6 .15h6l6-.15h78l6-.15h6l6-.15 6-.15h6l6-.15h6l6-.3 6-.15 6-.15h6l6-.45 6-.3 6-.15 6-.45 6-.15 6-.3 6-.45 6-.3 6-.45 6-.6 6-.3 6-.6 6-.3 6-.15 6-.6 6-1.05 6-.45 6 .3 6-.3 6-.45 6-.75 6-.15 6 .15 6-.6 6-.6 6-.75 6-.3 6 .15 6-.75 6-.15 6-.9 6-1.5 6-1.35 6-.75 6-.9 6-.9 6-3.15 6-1.95 6-2.1 6-2.25 6-1.2 6-2.1 6-4.95 6-2.7 6-3.45 6-3.15 6-3.45 6-2.7 6-3.45 6-3.15 6-4.95 6-4.5 6-4.95 6-3.15 6-4.05 6-5.85 6-4.65 6-4.95 6-5.85 6-6.9 6-4.35 6-4.5 6-5.7 6-5.85 6-5.7 6-6.45 6-5.25 6-6.3 6-10.8 6-5.1 6-7.2 6-5.7 6-6.3 6-5.55 6-9.3 6-5.7 6-9.75 6-12.75 6-6 6-6.45 6-4.05 6-7.35 6-9.45 6-7.5 6-6.9 6-7.95 6-3.3 6-9 6-5.25 6-2.85 6-3 6-1.8 6-2.4 6-1.2 6-4.65 6-1.2 6 1.2 6-2.25 6 .15 6-.45 6 .15 6 3.45 6 4.05 6 4.2 6 6.6 6 4.8 6 9.3 6 4.05 6 10.5 6 5.55 6 7.2 6 7.05 6 10.65 6 14.85 6 15 6 5.55 6 9.15 6 10.35 6 10.5 6 7.35 6 9.15 6 9.9 6 8.55 6 9.3 6 7.35 6 6.3 6 7.5 6 7.35 6 4.8 6 5.7 6 6.15 6 4.95 6 5.25 6 3.6 6 6.15 6 5.25 6 4.35 6 1.5 6 5.7 6 2.1 6 3.9 6 1.65 6 3.6 6 4.65 6 2.7 6 2.4 6 .3 6 .75 6 .75 6 2.1 6 1.95 6 2.1 6 .9 6 .75 6 1.2 6 1.8 6 .9 6 .75 6 .45 6 .75 6 1.2 6 1.8 6 .9 6 .9 6 .9 6 1.2 6 1.5 6 .75 6 .6 6 .3 6 .45 6 .9h12l6 .6 6 .75 6 .15 6 .3 6 .75 6 .15 6-.15 6 .15 6 .15 6 .6 6 .3h6l6 .3h12l6-.15 6 .3 6 .15h6l6 .15 6 .6h18l6-.15h12l6 .15 6 .15h78l6 .15h90l6-.15h96l6 .15h438l6-.15h48l6-.15h36l6-.15h18l6 .15h6l6-.15 6-.15h30l6-.15h12l6-.15h6v.9H0"/><path fill="#fff" d="M0 1500h2400v300H0z"/><path fill="#8bb4b8" d="M70 1575h100v100H70z"/><text font-size="60" font-weight="500" x="190" y="1630">Healthy</text><text font-size="60" font-weight="500" x="190" y="1710">20%</text><path fill="#ff3945" d="M550 1575h100v100H550z"/><text font-size="60" font-weight="500" x="670" y="1630">Infected</text><text font-size="60" font-weight="500" x="670" y="1710">80%</text><path fill="#009d51" d="M1030 1575h100v100h-100z"/><text font-size="60" font-weight="500" x="1150" y="1630">Recovered</text><path d="M1510 1575h100v100h-100z"/><text font-size="60" font-weight="500" x="1630" y="1630">Dead</text><text font-size="60" font-weight="500" x="1630" y="1710">0.8%</text><path fill="#eee" d="M1990 1575h100v100h-100z"/><text font-size="60" font-weight="500" x="2110" y="1630">Isolated</text><text font-size="60" font-weight="500" x="2110" y="1710">4%</text></svg>