<?xml-stylesheet type="text/css" href="../graph.css"?>
<svg xmlns="http://www.w3.org/2000/svg" height="100%" viewBox="0 0 450 320" width="100%">
    <rect fill="#fff" height="320" width="450" x="0" y="0"/>
    <text alignment-baseline="middle" font-size="12px" text-anchor="end" x="40" y="47">100</text>
    <rect x="48" y="45" width="5" height="1"/>
    <text alignment-baseline="middle" font-size="12px" text-anchor="end" x="40" y="94">80</text>
    <rect x="48" y="92" width="5" height="1"/>
    <text alignment-baseline="middle" font-size="12px" text-anchor="end" x="40" y="141">60</text>
    <rect x="48" y="139" width="5" height="1"/>
    <text alignment-baseline="middle" font-size="12px" text-anchor="end" x="40" y="188">40</text>
    <rect x="48" y="186" width="5" height="1"/>
    <text alignment-baseline="middle" font-size="12px" text-anchor="end" x="40" y="235">20</text>
    <rect x="48" y="233" width="5" height="1"/>
    <text alignment-baseline="middle" font-size="12px" text-anchor="end" x="40" y="282">0</text>
    <rect x="48" y="280" width="5" height="1"/>
    <rect x="53" y="45" width="1" height="236"/>
    <text alignment-baseline="middle" font-size="12px" text-anchor="middle" x="235" y="305">% Healthy</text>
    <rect fill="#8bb4b8" height="46" width="50" x="95" y="235"/>
    <text alignment-baseline="middle" font-size="11px" text-anchor="middle" x="120" y="223">Free Movement</text>
    <text alignment-baseline="middle" font-size="11px" text-anchor="middle" x="120" y="206">19.67%</text>
    <rect fill="#ff3945" height="69" width="50" x="175" y="212"/>
    <text alignment-baseline="middle" font-size="11px" text-anchor="middle" x="200" y="200">Apple/Google</text>
    <text alignment-baseline="middle" font-size="11px" text-anchor="middle" x="200" y="183">29.42%</text>
    <rect fill="#009d51" height="222" width="50" x="255" y="59"/>
    <text alignment-baseline="middle" font-size="11px" text-anchor="middle" x="280" y="47">SafetyScore</text>
    <text alignment-baseline="middle" font-size="11px" text-anchor="middle" x="280" y="30">94.13%</text>
    <rect fill="#444444" height="223" width="50" x="335" y="58"/>
    <text alignment-baseline="middle" font-size="11px" text-anchor="middle" x="360" y="46">Lockdown</text>
    <text alignment-baseline="middle" font-size="11px" text-anchor="middle" x="360" y="29">94.43%</text>
</svg>