<?xml-stylesheet type="text/css" href="../graph.css"?><svg xmlns="http://www.w3.org/2000/svg" viewBox="0 0 2400 1800"><path fill="#eee" d="M0 0h2400v1500H0z"/><path d="M0 0h2400v1500H0z"/><path fill="#009d51" d="M0 0h1338l6 .15h102l6 .15h84l6 .15h78l6 .15h474l6 .15h24l6 .15h144l6 .15h114V1500H0"/><path fill="#8bb4b8" d="M0 0h108l6 .15h204l6 .15h12l6 .15h18l6 .15 6 .15h6l6 .15 6 .15 6 .45h6l6 .15h6l6 .3 6 .15h12l6 .3h18l6 .15 6 .15h6l6 .15 6 .15h6l6 .15h6l6 .3h6l6 .3 6 .15h12l6 .3h12l6 .15h18l6 .3h6l6 .15h12l6 .6h18l6 .15h12l6 .3 6 .15 6 .15h6l6 .3 6 .15 6 .15h6l6 .9 6 .15h6l6 .6 6 .15 6 .3 6 .15 6 .3 6 .15 6 .3 6 .15 6 .3 6 .3 6 .15 6 .15h12l6 .3 6 .3 6 .3 6 .15 6 .3 6 .15 6 .6 6 .15 6 .15 6 .15 6 .15h12l6 .15h6l6 .45 6 .15h24l6 .15h18l6 .15h12l6 .15 6 .15h30l6 .15h6l6 .3h6l6 .15h6l6 .15 6 .15h6l6 .15h6l6 .15h60l6 .15h18l6 .15h24l6 .15h18l6 .15 6 .15h6l6 .15 6 .15 6 .15 6 .15h30l6 .45 6 .15 6 .15h6l6 .15h6l6 .3 6 .45 6 .45 6 .15 6 .3 6 .3 6 .3h6l6 .3 6 .6 6 .15h6l6 .15 6 .45 6 .3 6 .15 6 .9 6 .6 6 .75 6 .45 6 .3h6l6 .45 6 .45 6 .3 6 .3 6 .15 6 .15 6 .45 6 .45 6 .45 6 .3 6 .15 6 .6 6 .3 6 .3 6 .45 6 .3 6 .15 6 .15 6 .3 6 .15 6 .75 6 .75 6 .6 6 .3 6 .3 6 .9 6 .15 6 .3 6 .3 6 .15 6 .15 6 .15 6 .15 6 .3h6l6 .15 6 .15h6l6 .15 6 .15 6 .3 6 .6 6 .3 6 .15 6 .45 6 .15 6 .15 6 .45 6 .3 6 .15 6 .9 6 .15 6 .3 6 .15 6 .45 6 .3 6 .15h6l6 .45 6 .45 6 .45 6 .45 6 .15 6 .3 6 .3 6 .3 6 .45 6 .45h6l6 .15 6 .45 6 .3 6 .6 6 .3 6 .6 6 .45 6 .15 6 .6 6 .3 6 .45 6 .6 6 .15 6 1.05 6 .6 6 .3h6l6 .45 6 .45 6 .45 6 .9 6 .45 6 .45 6 1.05 6 .6 6 .6 6 .45 6 .15 6 .75 6 .6 6 1.05 6 .6 6 .3 6 .15 6 .3 6 .6 6 .6 6 .45 6 .3 6 .6 6 .6 6 .3 6 .75 6 .15 6 .75 6 .15 6 .9 6 .15 6 .15 6 .3 6 .15 6 .15 6 .15 6 1.2 6 .6h6l6 .45 6 .75 6 .75 6 .45 6 .45 6 .15 6 .3 6 .3 6 .6 6 .45 6 .3 6 .3h6l6 .75 6 .3 6 .9 6 .75 6 .15 6 .3 6 .45 6 .15 6 .6 6 .6 6 .45 6 .45 6 .15 6 .45 6 .45 6 .45h6V1500H0"/><path fill="#ff3945" d="M0 1500h12l6-.15h90l6 .15h96l6-.15h24l6-.15h24l6-.15 6-.15 6-.15 6-.3h6l6-.15 6-.15 6-.3 6-.3h12l6 .15 6-.15h12l6 .15h6l6-.15 6 .15h6l6 .3 6-.15h6l6-.15 6 .3 6-.15h12l6 .3 6-.3h18l6 .15h18l6-.15 6 .15 6-.3 6 .3h6l6 .15h18l6 .15 6-.3 6-.15 6 .15 6-.15 6-.15 6-.15 6 .3 6-.15 6-.15 6-.45 6-.45 6 .6h6l6-.45 6-.6h6l6-.3 6-.3 6 .15h6l6-.3 6-.15 6 .3h12l6-.45 6 .75 6 .15 6-.3 6 .15 6-.3 6 .3h12l6 .15 6 .3h6l6 .15h6l6 .15 6 .15 6-.15 6-.15 6 .15 6 .15 6 .15 6 .15 6 .3 6 .15 6 .6h6l6 .15 6 .15h30l6 .3 6 .15h12l6-.15 6-.15h6l6-.15h6l6-.15 6 .15 6-.15h6l6-.15 6 .15h30l6 .15h6l6 .15h6l6 .15h6l6 .15 6 .15h6l6 .15 6-.15 6 .15h18l6-.15h12l6-.15h12l6-.3h42l6-.15h6l6-.15h6l6-.45 6-.15 6-.15h12l6-.15 6-.3 6 .15 6-.3 6-.3 6-.15 6-.15 6-.3h12l6-.45 6-.15 6-.15h6l6-.15 6-.45 6 .15 6-.45 6-.15h12l6-.3 6-.45 6 .15 6 .3 6-.3 6-.15h12l6-.45h6l6 .9 6-.3 6 .6 6 .15 6 .15 6-.45 6 .3 6-.3 6 .15 6-.3 6-.6h6l6-.3h6l6 .3h6l6-.3 6 .6 6 .15 6 .15 6 .15 6-.3 6 .15 6 .15 6 .15h6l6 .6 6 .6 6 .45 6 .15 6 .15 6 .75 6-.15 6-.45h6l6-.15 6-.15 6-.15 6-.6 6 .15 6-.45h6l6-.45h6l6 .15 6-.3h6l6 .6 6 .15 6-.45h6l6-.15 6-.3h6l6 .15 6-.3 6 .45 6 .15h6l6-.6 6 .45h6l6-.3 6-.45 6 .15 6-.15 6 .3 6 .3 6-.6 6 .15 6 .3 6-.75 6-.3 6-.15 6-.45 6-.3 6-.3 6 .15 6 .3 6 .15 6-.45 6-.3 6-.15h6l6-.6 6 .3 6-.3 6-.3 6 .15 6 .3h6l6-.45 6-.3h6l6-.3 6 .6 6 .15 6 .3 6 .3 6 .3 6 .3 6-.45 6-.3 6 .3 6 .15 6 .9 6 .3 6-.3h6l6-.3 6 .15 6 .45h6l6-.6 6 .15 6 .6 6-.45h12l6 .6 6-.15h6l6 .15 6-.3h6l6-.6 6-.45 6-.45 6 1.05 6 .3 6-.45 6-.15 6 .45 6 .75 6-.15 6 .15h6l6-.6 6-.3 6 .15h6l6-.3 6 .15 6-.3 6 .45h6l6 .75 6 .45 6 .15 6 .15 6 .3 6-.3 6 .45 6 .15h6l6 .15 6 .15 6 .15 6 .3 6 .3h6v3.6H0"/><path fill="#fff" d="M0 1500h2400v300H0z"/><path fill="#8bb4b8" d="M70 1575h100v100H70z"/><text font-size="60" font-weight="500" x="190" y="1630">Healthy</text><text font-size="60" font-weight="500" x="190" y="1710">94%</text><path fill="#ff3945" d="M550 1575h100v100H550z"/><text font-size="60" font-weight="500" x="670" y="1630">Infected</text><text font-size="60" font-weight="500" x="670" y="1710">6%</text><path fill="#009d51" d="M1030 1575h100v100h-100z"/><text font-size="60" font-weight="500" x="1150" y="1630">Recovered</text><path d="M1510 1575h100v100h-100z"/><text font-size="60" font-weight="500" x="1630" y="1630">Dead</text><text font-size="60" font-weight="500" x="1630" y="1710">0.1%</text><path fill="#eee" d="M1990 1575h100v100h-100z"/><text font-size="60" font-weight="500" x="2110" y="1630">Isolated</text><text font-size="60" font-weight="500" x="2110" y="1710">0.7%</text></svg>